<?xml version="1.0" encoding="UTF-8"?> <svg xmlns="http://www.w3.org/2000/svg" width="75" height="75" viewBox="0 0 75 75" fill="none"><path d="M21.875 25C21.0462 25 20.2513 25.3292 19.6653 25.9153C19.0792 26.5013 18.75 27.2962 18.75 28.125C18.75 28.9538 19.0792 29.7487 19.6653 30.3347C20.2513 30.9208 21.0462 31.25 21.875 31.25C22.7038 31.25 23.4987 30.9208 24.0847 30.3347C24.6708 29.7487 25 28.9538 25 28.125C25 27.2962 24.6708 26.5013 24.0847 25.9153C23.4987 25.3292 22.7038 25 21.875 25ZM40.625 25C39.7962 25 39.0014 25.3292 38.4153 25.9153C37.8293 26.5013 37.5 27.2962 37.5 28.125C37.5 28.9538 37.8293 29.7487 38.4153 30.3347C39.0014 30.9208 39.7962 31.25 40.625 31.25C41.4538 31.25 42.2487 30.9208 42.8347 30.3347C43.4208 29.7487 43.75 28.9538 43.75 28.125C43.75 27.2962 43.4208 26.5013 42.8347 25.9153C42.2487 25.3292 41.4538 25 40.625 25ZM38.4375 42.8125C34.0625 39.6875 28.125 39.6875 24.0625 42.8125L20.3125 37.8125C26.5625 33.125 35.625 33.125 42.1875 37.8125L38.4375 42.8125ZM68.75 62.5L62.5 68.75L50 56.25V50H56.25L68.75 62.5Z" fill="#252525"></path><path d="M31.25 56.25C17.5 56.25 6.25 45 6.25 31.25C6.25 17.5 17.5 6.25 31.25 6.25C45 6.25 56.25 17.5 56.25 31.25C56.25 45 45 56.25 31.25 56.25ZM31.25 12.5C20.9375 12.5 12.5 20.9375 12.5 31.25C12.5 41.5625 20.9375 50 31.25 50C41.5625 50 50 41.5625 50 31.25C50 20.9375 41.5625 12.5 31.25 12.5Z" fill="#252525"></path><path d="M45.701 48.1288L47.9107 45.919L55.6448 53.6529L53.4352 55.8626L45.701 48.1288Z" fill="#252525"></path></svg> 