<?xml version="1.0" encoding="UTF-8"?> <svg xmlns="http://www.w3.org/2000/svg" width="150" height="66" viewBox="0 0 150 66" fill="none"><circle cx="3" cy="3" r="3" fill="white" fill-opacity="0.5"></circle><circle cx="21" cy="3" r="3" fill="white" fill-opacity="0.5"></circle><circle cx="39" cy="3" r="3" fill="white" fill-opacity="0.5"></circle><circle cx="57" cy="3" r="3" fill="white" fill-opacity="0.5"></circle><circle cx="75" cy="3" r="3" fill="white" fill-opacity="0.5"></circle><circle cx="93" cy="3" r="3" fill="white" fill-opacity="0.5"></circle><circle cx="111" cy="3" r="3" fill="white" fill-opacity="0.5"></circle><circle cx="129" cy="3" r="3" fill="white" fill-opacity="0.5"></circle><circle cx="147" cy="3" r="3" fill="white" fill-opacity="0.5"></circle><circle cx="3" cy="23" r="3" fill="white" fill-opacity="0.5"></circle><circle cx="21" cy="23" r="3" fill="white" fill-opacity="0.5"></circle><circle cx="39" cy="23" r="3" fill="white" fill-opacity="0.5"></circle><circle cx="57" cy="23" r="3" fill="white" fill-opacity="0.5"></circle><circle cx="75" cy="23" r="3" fill="white" fill-opacity="0.5"></circle><circle cx="93" cy="23" r="3" fill="white" fill-opacity="0.5"></circle><circle cx="111" cy="23" r="3" fill="white" fill-opacity="0.5"></circle><circle cx="129" cy="23" r="3" fill="white" fill-opacity="0.5"></circle><circle cx="147" cy="23" r="3" fill="white" fill-opacity="0.5"></circle><circle cx="3" cy="43" r="3" fill="white" fill-opacity="0.5"></circle><circle cx="21" cy="43" r="3" fill="white" fill-opacity="0.5"></circle><circle cx="39" cy="43" r="3" fill="white" fill-opacity="0.5"></circle><circle cx="57" cy="43" r="3" fill="white" fill-opacity="0.5"></circle><circle cx="75" cy="43" r="3" fill="white" fill-opacity="0.5"></circle><circle cx="93" cy="43" r="3" fill="white" fill-opacity="0.5"></circle><circle cx="111" cy="43" r="3" fill="white" fill-opacity="0.5"></circle><circle cx="129" cy="43" r="3" fill="white" fill-opacity="0.5"></circle><circle cx="147" cy="43" r="3" fill="white" fill-opacity="0.5"></circle><circle cx="3" cy="63" r="3" fill="white" fill-opacity="0.5"></circle><circle cx="21" cy="63" r="3" fill="white" fill-opacity="0.5"></circle><circle cx="39" cy="63" r="3" fill="white" fill-opacity="0.5"></circle><circle cx="57" cy="63" r="3" fill="white" fill-opacity="0.5"></circle><circle cx="75" cy="63" r="3" fill="white" fill-opacity="0.5"></circle><circle cx="93" cy="63" r="3" fill="white" fill-opacity="0.5"></circle><circle cx="111" cy="63" r="3" fill="white" fill-opacity="0.5"></circle><circle cx="129" cy="63" r="3" fill="white" fill-opacity="0.5"></circle><circle cx="147" cy="63" r="3" fill="white" fill-opacity="0.5"></circle></svg> 