<?xml version="1.0" encoding="UTF-8"?> <svg xmlns="http://www.w3.org/2000/svg" width="31" height="26" viewBox="0 0 31 26" fill="none"><path d="M30.9 20C30.9 16.2 28.2 13.9 24.9 13.9C23.9 13.9 23.2 14.2 22.9 14.4C23 10.3 26 5.7 30.4 4.7V0C24.8 0.599998 17.1 5.7 17.1 17.5C17.1 23.2 20.5 26 24.4 26C28.1 26 30.9 23.3 30.9 20ZM13.8 20C13.8 16.2 11.1 13.9 7.8 13.9C6.8 13.9 6.1 14.2 5.8 14.4C5.9 10.3 8.9 5.7 13.3 4.7V0C7.7 0.599998 0 5.7 0 17.5C0 23.2 3.4 26 7.3 26C11 26 13.8 23.3 13.8 20Z" fill="#CFCFCF"></path></svg> 