<svg xmlns="http://www.w3.org/2000/svg" width="188" height="54" viewBox="0 0 188 54">
    <g fill="none" fill-rule="nonzero">
        <path fill="#000" d="M187.887 48.57a5.408 5.408 0 0 1-5.41 5.411H5.42a5.415 5.415 0 0 1-5.417-5.41V5.42A5.422 5.422 0 0 1 5.42.002h177.056a5.415 5.415 0 0 1 5.411 5.418v43.15z"/>
        <g fill="#FFF">
            <path d="M41.262 26.695c-.04-4.554 3.724-6.769 3.896-6.872-2.132-3.112-5.437-3.538-6.598-3.572-2.776-.292-5.469 1.663-6.882 1.663-1.443 0-3.62-1.634-5.967-1.586-3.02.046-5.845 1.797-7.394 4.515-3.198 5.542-.813 13.687 2.25 18.167 1.533 2.194 3.324 4.644 5.668 4.558 2.293-.095 3.15-1.464 5.917-1.464 2.742 0 3.546 1.464 5.936 1.409 2.461-.04 4.01-2.204 5.49-4.418 1.77-2.515 2.482-4.991 2.51-5.119-.058-.02-4.78-1.824-4.826-7.281zM36.746 13.304c1.234-1.544 2.078-3.645 1.843-5.776-1.785.079-4.017 1.236-5.303 2.746-1.137 1.33-2.153 3.512-1.89 5.564 2.005.15 4.063-1.013 5.35-2.534z"/>
        </g>
        <g fill="#FFF">
            <path d="M74.448 43.253h-3.204l-1.756-5.523h-6.102l-1.672 5.523h-3.12l6.045-18.802h3.734l6.075 18.802zm-5.489-7.84l-1.588-4.91c-.168-.5-.482-1.682-.946-3.541h-.057c-.185.8-.483 1.98-.892 3.542l-1.56 4.91h5.043zM89.995 36.307c0 2.306-.622 4.129-1.867 5.467-1.115 1.19-2.499 1.785-4.151 1.785-1.784 0-3.066-.641-3.846-1.924h-.056v7.142h-3.009V34.159c0-1.45-.038-2.938-.111-4.463H79.6l.167 2.148h.057c1.003-1.619 2.526-2.427 4.57-2.427 1.597 0 2.93.632 3.997 1.896 1.07 1.266 1.603 2.93 1.603 4.994zm-3.065.11c0-1.319-.296-2.407-.892-3.263-.65-.893-1.524-1.34-2.619-1.34-.742 0-1.417.25-2.02.74-.603.494-.998 1.14-1.183 1.94-.093.372-.14.678-.14.918v2.26c0 .986.302 1.818.906 2.498.604.68 1.389 1.019 2.354 1.019 1.133 0 2.015-.438 2.646-1.311.632-.875.948-2.028.948-3.46zM105.57 36.307c0 2.306-.622 4.129-1.868 5.467-1.114 1.19-2.498 1.785-4.15 1.785-1.784 0-3.066-.641-3.844-1.924h-.057v7.142h-3.009V34.159c0-1.45-.038-2.938-.111-4.463h2.646l.168 2.148h.056c1.002-1.619 2.525-2.427 4.57-2.427 1.596 0 2.93.632 3.999 1.896 1.065 1.266 1.6 2.93 1.6 4.994zm-3.065.11c0-1.319-.298-2.407-.893-3.263-.65-.893-1.521-1.34-2.618-1.34-.744 0-1.417.25-2.02.74-.605.494-.998 1.14-1.183 1.94-.092.372-.14.678-.14.918v2.26c0 .986.302 1.818.903 2.498.604.678 1.389 1.019 2.357 1.019 1.133 0 2.015-.438 2.646-1.311.632-.875.948-2.028.948-3.46zM122.984 37.98c0 1.6-.555 2.9-1.668 3.905-1.224 1.098-2.927 1.646-5.116 1.646-2.02 0-3.64-.39-4.867-1.171l.697-2.51c1.321.799 2.77 1.2 4.35 1.2 1.133 0 2.015-.257 2.648-.768.631-.512.946-1.198.946-2.055 0-.762-.26-1.405-.78-1.927-.518-.52-1.383-1.006-2.591-1.453-3.288-1.228-4.931-3.027-4.931-5.392 0-1.545.576-2.812 1.729-3.799 1.148-.987 2.68-1.48 4.597-1.48 1.71 0 3.129.298 4.262.893l-.752 2.455c-1.059-.576-2.255-.864-3.594-.864-1.059 0-1.886.26-2.478.78-.501.466-.753 1.032-.753 1.703 0 .743.287 1.358.863 1.841.5.447 1.41.93 2.732 1.451 1.615.651 2.802 1.413 3.566 2.286.76.87 1.14 1.96 1.14 3.26zM132.931 31.956h-3.316v6.582c0 1.674.584 2.51 1.755 2.51.538 0 .984-.046 1.337-.14l.083 2.288c-.593.222-1.373.334-2.34.334-1.188 0-2.116-.363-2.787-1.088-.667-.726-1.003-1.944-1.003-3.655v-6.834h-1.976v-2.26h1.976V27.21l2.955-.893v3.375h3.316v2.263zM147.894 36.363c0 2.083-.596 3.794-1.784 5.132-1.246 1.378-2.9 2.064-4.962 2.064-1.987 0-3.569-.66-4.748-1.979-1.18-1.32-1.77-2.985-1.77-4.993 0-2.1.607-3.821 1.825-5.16 1.215-1.339 2.855-2.008 4.916-2.008 1.987 0 3.586.66 4.793 1.98 1.154 1.282 1.73 2.936 1.73 4.964zm-3.122.097c0-1.25-.267-2.323-.807-3.217-.63-1.082-1.533-1.622-2.701-1.622-1.21 0-2.128.541-2.759 1.622-.54.896-.807 1.985-.807 3.274 0 1.25.267 2.322.807 3.215.65 1.082 1.56 1.622 2.732 1.622 1.149 0 2.05-.551 2.701-1.65.555-.911.834-1.995.834-3.244zM157.673 32.345a5.218 5.218 0 0 0-.948-.084c-1.059 0-1.877.4-2.453 1.201-.5.707-.752 1.6-.752 2.677v7.114h-3.007l.028-9.288c0-1.562-.038-2.985-.113-4.268h2.62l.11 2.594h.084c.317-.892.818-1.61 1.504-2.148.67-.484 1.394-.726 2.175-.726.278 0 .529.02.752.055v2.873zM171.128 35.833c0 .54-.035.994-.11 1.366h-9.025c.035 1.34.47 2.364 1.31 3.07.76.631 1.743.948 2.951.948 1.337 0 2.556-.213 3.652-.641l.472 2.09c-1.282.56-2.794.838-4.54.838-2.1 0-3.748-.619-4.948-1.855-1.196-1.236-1.796-2.896-1.796-4.978 0-2.045.557-3.747 1.674-5.105 1.168-1.45 2.747-2.174 4.734-2.174 1.952 0 3.43.725 4.433 2.174.794 1.152 1.193 2.576 1.193 4.267zm-2.869-.782c.02-.892-.176-1.664-.584-2.315-.52-.838-1.32-1.256-2.397-1.256-.984 0-1.784.408-2.395 1.228-.501.651-.799 1.432-.89 2.342h6.266v.001z"/>
        </g>
        <g fill="#FFF">
            <path d="M67.964 12.885c0 1.663-.498 2.914-1.493 3.755-.921.776-2.231 1.164-3.927 1.164-.841 0-1.56-.037-2.163-.11V8.608a15.946 15.946 0 0 1 2.547-.192c1.615 0 2.833.352 3.655 1.056.92.795 1.381 1.932 1.381 3.413zm-1.56.04c0-1.077-.284-1.904-.854-2.48-.57-.575-1.403-.863-2.5-.863-.465 0-.862.03-1.19.096v6.907c.181.028.514.04.999.04 1.131 0 2.005-.314 2.62-.944.615-.63.926-1.549.926-2.755zM76.232 14.337c0 1.024-.292 1.864-.876 2.522-.613.677-1.424 1.014-2.437 1.014-.977 0-1.754-.323-2.334-.973-.579-.649-.868-1.467-.868-2.453 0-1.031.298-1.877.896-2.534.598-.657 1.403-.986 2.416-.986.976 0 1.76.323 2.355.972.564.63.848 1.444.848 2.438zm-1.534.048c0-.614-.133-1.141-.396-1.58-.31-.532-.753-.798-1.327-.798-.594 0-1.046.266-1.356.797-.265.44-.397.975-.397 1.608 0 .615.133 1.142.397 1.58.32.532.766.798 1.342.798.564 0 1.008-.27 1.326-.811.274-.448.411-.98.411-1.594zM87.318 11.062l-2.081 6.66h-1.355l-.862-2.892a21.665 21.665 0 0 1-.535-2.151h-.027a15.768 15.768 0 0 1-.535 2.151l-.916 2.892h-1.37l-1.957-6.66h1.52l.752 3.166c.182.75.332 1.463.451 2.138h.027c.11-.557.292-1.266.55-2.124l.943-3.178h1.205l.905 3.11c.219.76.397 1.49.533 2.193h.041c.1-.685.252-1.415.452-2.192l.807-3.111h1.452v-.002zM94.985 17.722h-1.479v-3.814c0-1.176-.446-1.763-1.34-1.763-.44 0-.794.16-1.069.484a1.72 1.72 0 0 0-.41 1.142v3.95h-1.48v-4.756c0-.585-.018-1.219-.053-1.906h1.3l.069 1.042h.04c.173-.324.43-.59.767-.804.4-.249.85-.375 1.34-.375.622 0 1.138.201 1.549.604.51.493.766 1.229.766 2.206v3.99zM99.063 17.722h-1.477V8.006h1.477zM107.77 14.337c0 1.024-.292 1.864-.876 2.522-.613.677-1.425 1.014-2.437 1.014-.978 0-1.756-.323-2.334-.973-.579-.649-.868-1.467-.868-2.453 0-1.031.298-1.877.896-2.534.598-.657 1.403-.986 2.414-.986.978 0 1.761.323 2.357.972.564.63.848 1.444.848 2.438zm-1.535.048c0-.614-.133-1.141-.397-1.58-.309-.532-.752-.798-1.325-.798-.595 0-1.047.266-1.356.797-.265.44-.397.975-.397 1.608 0 .615.133 1.142.397 1.58.32.532.766.798 1.342.798.564 0 1.006-.27 1.325-.811.275-.448.41-.98.41-1.594zM114.928 17.722H113.6l-.11-.767h-.041c-.455.612-1.103.918-1.944.918-.628 0-1.136-.202-1.518-.603-.347-.364-.52-.818-.52-1.356 0-.814.338-1.434 1.02-1.864.68-.43 1.637-.64 2.868-.63v-.124c0-.877-.46-1.315-1.381-1.315-.656 0-1.235.165-1.734.493l-.3-.972c.617-.383 1.38-.575 2.28-.575 1.74 0 2.612.918 2.612 2.755v2.452c0 .666.032 1.195.096 1.588zm-1.536-2.289v-1.027c-1.631-.028-2.447.42-2.447 1.343 0 .347.093.607.284.78.19.175.433.26.722.26.325 0 .628-.102.905-.307a1.261 1.261 0 0 0 .536-1.049zM123.331 17.722h-1.312l-.07-1.07h-.04c-.42.814-1.134 1.221-2.137 1.221-.802 0-1.469-.315-1.998-.945-.53-.63-.793-1.448-.793-2.452 0-1.078.286-1.951.862-2.618.557-.622 1.24-.933 2.053-.933.893 0 1.519.301 1.874.904h.028V8.006h1.48v7.922c0 .648.018 1.246.053 1.794zm-1.533-2.808v-1.11c0-.193-.014-.348-.04-.467a1.687 1.687 0 0 0-.535-.897 1.453 1.453 0 0 0-.99-.363c-.551 0-.983.219-1.3.658-.315.44-.475 1-.475 1.686 0 .658.151 1.192.455 1.603.32.438.752.657 1.292.657.486 0 .874-.182 1.169-.548.285-.338.424-.745.424-1.22zM135.98 14.337c0 1.024-.293 1.864-.877 2.522-.613.677-1.423 1.014-2.437 1.014-.975 0-1.753-.323-2.334-.973-.579-.649-.868-1.467-.868-2.453 0-1.031.298-1.877.896-2.534.598-.657 1.403-.986 2.417-.986.975 0 1.761.323 2.354.972.565.63.848 1.444.848 2.438zm-1.533.048c0-.614-.133-1.141-.397-1.58-.312-.532-.752-.798-1.328-.798-.592 0-1.044.266-1.356.797-.265.44-.396.975-.396 1.608 0 .615.132 1.142.396 1.58.32.532.766.798 1.342.798.565 0 1.01-.27 1.328-.811.272-.448.41-.98.41-1.594zM143.931 17.722h-1.477v-3.814c0-1.176-.446-1.763-1.342-1.763a1.33 1.33 0 0 0-1.067.484c-.274.324-.41.705-.41 1.142v3.95h-1.481v-4.756c0-.585-.017-1.219-.052-1.906h1.298l.069 1.042h.04c.174-.324.431-.59.767-.804.402-.249.85-.375 1.342-.375.62 0 1.136.201 1.547.604.512.493.766 1.229.766 2.206v3.99zM153.884 12.171h-1.628v3.236c0 .822.289 1.233.862 1.233.265 0 .485-.023.659-.07l.038 1.124c-.292.11-.676.165-1.149.165-.584 0-1.038-.178-1.367-.534-.33-.356-.494-.955-.494-1.795V12.17h-.972v-1.109h.972v-1.22l1.45-.438v1.657h1.628v1.11h.001zM161.713 17.722h-1.48v-3.786c0-1.194-.446-1.791-1.34-1.791-.685 0-1.154.346-1.41 1.038-.044.145-.07.323-.07.533v4.005h-1.477V8.006h1.477v4.014h.029c.465-.73 1.133-1.095 1.998-1.095.612 0 1.119.2 1.521.604.5.501.752 1.247.752 2.233v3.96zM169.79 14.077c0 .266-.02.489-.056.671H165.3c.02.659.231 1.16.642 1.508.375.31.86.466 1.452.466.656 0 1.255-.105 1.794-.315l.231 1.028c-.63.274-1.373.412-2.232.412-1.03 0-1.842-.304-2.429-.912-.59-.607-.882-1.422-.882-2.445 0-1.005.272-1.841.821-2.508.573-.712 1.348-1.068 2.326-1.068.957 0 1.683.356 2.175 1.068.396.565.592 1.264.592 2.095zm-1.412-.383c.011-.439-.086-.818-.286-1.137-.257-.411-.648-.617-1.177-.617-.483 0-.877.2-1.177.603-.246.32-.391.703-.44 1.151h3.08z"/>
        </g>
    </g>
</svg>
