<svg xmlns="http://www.w3.org/2000/svg" width="42" height="42" viewBox="0 0 42 42">
    <g fill="none" fill-rule="evenodd">
        <circle cx="21" cy="21" r="21" fill="#444" fill-rule="nonzero"/>
        <path fill="#FFF" d="M30.835 25.014l-4.379-7.584c-.23-.397-.592-.625-.995-.625-.404 0-.767.228-.996.625l-2.653 4.594a.729.729 0 1 0 1.263.729l2.386-4.133 4.111 7.122c.178.308.181.52.13.609-.05.088-.236.192-.592.192H13.078c-.355 0-.541-.104-.592-.193-.052-.088-.049-.301.129-.609l8.01-13.883c.177-.307.324-.416.47-.416.072 0 .272.11.449.417l1.544 2.693a.726.726 0 1 0 1.26-.724l-1.55-2.688c-.419-.73-1.047-1.14-1.722-1.14-.676 0-1.303.41-1.723 1.138l-8 13.875c-.42.728-.467 1.481-.13 2.066.339.585 1.015.921 1.855.921H29.11c.841 0 1.517-.336 1.854-.92.338-.586.29-1.339-.13-2.066"/>
    </g>
</svg>
