<?xml version="1.0" encoding="utf-8"?>
<!-- Generator: Adobe Illustrator 15.0.0, SVG Export Plug-In . SVG Version: 6.00 Build 0)  -->
<!DOCTYPE svg PUBLIC "-//W3C//DTD SVG 1.1//EN" "http://www.w3.org/Graphics/SVG/1.1/DTD/svg11.dtd">
<svg version="1.1" id="Layer_1" xmlns="http://www.w3.org/2000/svg" xmlns:xlink="http://www.w3.org/1999/xlink" x="0px" y="0px"
	 width="262.791px" height="232.744px" viewBox="0 0 262.791 232.744" enable-background="new 0 0 262.791 232.744"
	 xml:space="preserve">
<g>
	<g>
		<g>
			<path fill-rule="evenodd" clip-rule="evenodd" fill="#F9F7E1" d="M181.965,39.875c-6.305-7.998-16.395-18.097-20.18-21.465
				c-3.783-3.365-19.336-13.891-27.324-13.049c-17.143,1.807-43.301,12.625-51.709,29.885
				c-8.408,17.258-14.713,79.131-14.293,104.387c0.422,25.252,12.191,65.663,44.563,70.711c32.365,5.051,58.434,0,68.104-14.731
				c9.666-14.731,18.496-49.668,15.553-66.505C193.739,112.275,188.274,47.873,181.965,39.875z"/>
			<g>
				<g>
					<defs>
						<path id="SVGID_1_" d="M131.512,50.102c-13.188,0-17.984,6.16-14.387,13.566c3.602,7.397,8.402,15.414,14.387,15.414
							c5.998,0,10.799-8.017,14.383-15.414C149.504,56.262,144.7,50.102,131.512,50.102"/>
					</defs>
					<use xlink:href="#SVGID_1_"  overflow="visible" fill-rule="evenodd" clip-rule="evenodd" fill="#FF812C"/>
					<clipPath id="SVGID_2_">
						<use xlink:href="#SVGID_1_"  overflow="visible"/>
					</clipPath>
				</g>
			</g>
			<g>
				<g>
					<defs>
						<path id="SVGID_3_" d="M80.528,40.61c-0.039,0-0.088,0.038-0.143,0.108c-6.307,7.995-11.771,72.394-14.715,89.23
							c-2.941,16.84,5.883,51.776,15.555,66.508c7.238,11.027,23.668,16.629,45.053,16.629c5.379,0,11.08-0.354,17.018-1.063
							c-2.336,0.147-4.744,0.222-7.225,0.222c-7.178,0-14.916-0.629-23.049-1.9c-32.371-5.048-44.141-45.459-44.563-70.711
							c-0.381-23.064,4.842-76.671,12.154-98.943C80.59,40.641,80.565,40.61,80.528,40.61"/>
					</defs>
					<clipPath id="SVGID_4_">
						<use xlink:href="#SVGID_3_"  overflow="visible"/>
					</clipPath>
					<rect x="55.44" y="30.953" clip-path="url(#SVGID_4_)" fill="#E8E8E9" width="97.514" height="191.791"/>
				</g>
			</g>
			<g>
				<g>
					<path fill-rule="evenodd" clip-rule="evenodd" fill="#E3E1CE" d="M193.348,139.426c-2.35,0.004-12.197,13.468-26.6,26.935
						c-14.398,13.468-33.348,26.936-53.904,26.936c-7.027,0-14.244-1.573-21.527-5.26c-34.111-17.255-9.08-143.751-10.703-147.347
						c-7.313,22.272-12.535,75.879-12.154,98.943c0.422,25.252,12.191,65.663,44.563,70.711c8.133,1.271,15.871,1.9,23.049,1.9
						c2.48,0,4.889-0.074,7.225-0.222c1.984-0.241,3.998-0.517,6.035-0.835c32.369-5.051,44.139-45.457,44.561-70.713
						C193.903,139.758,193.719,139.426,193.348,139.426z"/>
				</g>
			</g>
			<g>
				<g>
					<path fill-rule="evenodd" clip-rule="evenodd" fill="#E8772C" d="M144.944,55.583c-2.418-0.003-6.914,4.671-13.281,19.648
						c-0.287,0.671-0.811,0.938-1.475,0.938c-1.408,0-3.441-1.203-5.186-2.407c-1.74-1.203-3.184-2.406-3.408-2.406
						c-0.137,0,0.219,0.488,1.307,1.773c1.826,2.154,3.367,3.983,5.102,5.028c1.125,0.589,2.293,0.925,3.51,0.925
						c5.992-0.264,10.799-8.017,14.383-15.414C147.676,60.014,147.295,55.583,144.944,55.583z"/>
				</g>
			</g>
			<path fill-rule="evenodd" clip-rule="evenodd" fill="#1D1F28" d="M132.846,221.19c26.57,0,44.482-15.193,44.482-15.193
				c12.336-11.498,20.99-28.919,25.6-52.082c4.197-20.386-2.757-38.633-3.266-56.058c-0.229-7.889,0.078-15.652-1.049-21.677
				C189.786,13.041,154.211,0.102,131.034,0c-23.539,0.102-58.871,13.041-67.699,76.181c-1.131,6.024-0.947,13.788-1.176,21.677
				c-0.508,17.425-7.461,35.672-3.268,56.058c4.613,23.163,13.266,40.584,25.604,52.082
				C84.495,205.997,106.276,221.19,132.846,221.19z M131.034,208.813c-41.199-0.084-53.787-30.813-58.762-49.854
				c-4.998-19.059,12.77-45.092,16.686-61.584C92.874,80.882,78.945,63.65,79.93,50.09c0.984-13.563,20.152-29.318,28.699-33.352
				c8.524-4.014,10.635,5.376,22.404,5.465c11.263-0.089,13.77-9.479,22.297-5.465c8.55,4.033,27.611,19.788,28.593,33.352
				c0.983,13.561-12.911,30.792-8.997,47.285c3.916,16.492,21.745,42.525,16.747,61.584
				C184.702,177.999,172.37,208.729,131.034,208.813z"/>
			<g>
				<g>
					<path fill-rule="evenodd" clip-rule="evenodd" fill="#3A3430" d="M154.741,36.604c-3.961,0-7.182,3.301-7.182,7.387
						c0,4.082,3.221,7.391,7.182,7.391c3.963,0,7.191-3.309,7.191-7.391C161.932,39.904,158.704,36.604,154.741,36.604z"/>
				</g>
			</g>
			<g>
				<g>
					<path fill-rule="evenodd" clip-rule="evenodd" fill="#3A3430" d="M108.303,36.604c-3.984,0-7.197,3.301-7.197,7.387
						c0,4.082,3.213,7.391,7.197,7.391c3.953,0,7.184-3.309,7.184-7.391C115.487,39.904,112.256,36.604,108.303,36.604z"/>
				</g>
			</g>
			<g>
				<g>
					<path fill-rule="evenodd" clip-rule="evenodd" fill="#FF812C" d="M200.844,200.083c-1.67-0.377-3.354-0.893-4.992-0.893h-0.002
						c-5.512,0-9.825,2.355-14.632,4.51c-1.043,0.465-1.942,1.067-2.942,1.524v-0.034h-0.195h-0.004
						c-11.152,5-25.236,9.842-46.559,11.07c-21.619,1.244-36.992-4.981-47.033-11.363c0.166,0.173,0.326,0.352,0.496,0.525
						c-1.076-0.453-2.137-0.929-3.18-1.39c-4.805-2.153-9.348-4.187-14.861-4.187c-1.643,0-3.32,0.185-4.994,0.564
						c-7.77,1.732-7.883,7.868-7.754,9.697c0.785,9.914,16.658,22.297,34.053,22.621c0.33,0.004,0.697,0.016,1.035,0.016
						c13.824,0,26.824-5.071,34.711-9.011l0.029-0.014c1.18,0.113,2.402,0.195,3.637,0.256l0.135,0.064
						c1.217,0.057,2.443,0.149,3.658,0.149h0.182c2.207,0,4.365-0.176,6.492-0.354c0.207-0.016,0.416-0.054,0.621-0.073l0.152-0.299
						c7.879,3.932,20.76,8.726,34.592,8.726h0.613l0.443,0.268c17.396-0.325,33.27-12.736,34.057-22.65
						C208.725,207.979,208.616,201.819,200.844,200.083z"/>
				</g>
			</g>
		</g>
		<g>
			<path fill-rule="evenodd" clip-rule="evenodd" fill="#1D1F28" d="M71.792,78.391c0,0-21.859-20.786-51.359-23.808
				s-23.43,16.381-4.637,27.741c18.791,11.36,49.703,47.625,49.703,47.625L71.792,78.391z"/>
			<path fill-rule="evenodd" clip-rule="evenodd" fill="#1D1F28" d="M190.999,78.391c0,0,21.859-20.786,51.359-23.808
				s23.43,16.381,4.639,27.741s-49.705,47.625-49.705,47.625L190.999,78.391z"/>
		</g>
		<g>
			<path fill-rule="evenodd" clip-rule="evenodd" fill="#E04514" d="M198.614,76.205c-0.149-1.067-0.308-2.118-0.472-3.156
				c-14.271,12.859-38.827,21.354-66.747,21.354c-28.406,0-53.329-8.795-67.48-22.032c-0.203,1.253-0.399,2.52-0.581,3.815
				c-1.131,6.024-0.947,13.785-1.176,21.674c-0.508,17.425-7.461,35.768-3.268,56.152c4.613,23.164,13.266,40.178,25.604,52.178
				c0,0,17.459,11.909,46.534,11.909s46.3-11.909,46.3-11.909c12.336-12,20.99-29.016,25.6-52.179
				c4.197-20.386-2.757-38.681-3.266-56.106C199.434,90.017,199.741,82.229,198.614,76.205z"/>
		</g>
	</g>
	<g>
		<path fill-rule="evenodd" clip-rule="evenodd" fill="#39B54A" d="M131.395,94.403c-8.912,0-17.472-0.878-25.475-2.474
			c-7.676,11.657-8.662,24.912-8.662,24.912s11.927-0.89,23.103-7.531c3.649,10.066,9.549,16.914,9.549,16.914
			s5.9-6.848,9.549-16.913c11.176,6.642,23.103,7.531,23.103,7.531s-0.961-12.879-8.339-24.412
			C146.988,93.708,139.331,94.403,131.395,94.403z"/>
	</g>
	<g>
		<polygon fill-rule="evenodd" clip-rule="evenodd" fill="#1D1F28" points="82.802,145.62 106.141,153.789 98.75,126.225 		"/>
		<polygon fill-rule="evenodd" clip-rule="evenodd" fill="#1D1F28" points="176.142,146.62 152.803,154.789 160.194,127.225 		"/>
	</g>
	<polygon fill-rule="evenodd" clip-rule="evenodd" fill="#1D1F28" points="137.919,168.624 121.034,170.477 130.225,153.115 	"/>
	<path fill-rule="evenodd" clip-rule="evenodd" fill="#1D1F28" d="M155.4,181.179l2.354,4.762l-10.67,5.25l-1.106-6.457
		c-5.205,1.627-10.589,2.707-15.724,2.707c-4.832,0-9.967-0.8-15.01-2.022l-0.99,5.772l-10.67-5.25l1.712-3.464
		C92.631,178.108,82.52,172.44,82.52,172.44s14.556,28.258,42.506,32.461l1.728-5.825l10.012,0.864l1.561,5.014
		c27.742-4.24,38.098-35.514,38.098-35.514S167.27,175.981,155.4,181.179z"/>
</g>
</svg>
