<svg xmlns="http://www.w3.org/2000/svg" xmlns:xlink="http://www.w3.org/1999/xlink" version="1.1" id="Layer_1" x="0px" y="0px" width="1920px" height="1920px" viewBox="0 0 1920 1920" enable-background="new 0 0 1920 1920" xml:space="preserve">
<g>
    <defs>
        <rect id="SVGID_1_" width="1920" height="1920"/>
    </defs>
    <clipPath id="SVGID_2_">
        <use xlink:href="#SVGID_1_" overflow="visible"/>
    </clipPath>
    <g clip-path="url(#SVGID_2_)">
        <rect fill="#FFFFFF" width="1920" height="1920"/>
        <radialGradient id="SVGID_3_" cx="1905.2256" cy="1906.0801" r="1883.3867" gradientUnits="userSpaceOnUse">
            <stop offset="0" style="stop-color:#AE84BB"/>
            <stop offset="1" style="stop-color:#AE84BB;stop-opacity:0"/>
        </radialGradient>
        <rect opacity="0.2" fill="url(#SVGID_3_)" width="1920" height="1920"/>
        <linearGradient id="SVGID_4_" gradientUnits="userSpaceOnUse" x1="469.3701" y1="1197.2412" x2="1610.9694" y2="645.228">
            <stop offset="0" style="stop-color:#AE84BB;stop-opacity:0"/>
            <stop offset="0.5" style="stop-color:#AE84BB"/>
            <stop offset="1" style="stop-color:#AE84BB;stop-opacity:0"/>
        </linearGradient>
        <rect opacity="0.3" fill="url(#SVGID_4_)" width="1920" height="1920"/>
        <linearGradient id="SVGID_5_" gradientUnits="userSpaceOnUse" x1="-507.0513" y1="2052.8291" x2="823.4501" y2="1061.7178">
            <stop offset="0" style="stop-color:#AE84BB;stop-opacity:0"/>
            <stop offset="0.5" style="stop-color:#AE84BB"/>
            <stop offset="1" style="stop-color:#AE84BB;stop-opacity:0"/>
        </linearGradient>
        <rect opacity="0.2" fill="url(#SVGID_5_)" width="1920" height="1920"/>
        <linearGradient id="SVGID_6_" gradientUnits="userSpaceOnUse" x1="2236.5664" y1="89.3447" x2="1708.9719" y2="449.1791">
            <stop offset="0" style="stop-color:#AE84BB;stop-opacity:0"/>
            <stop offset="0.5" style="stop-color:#AE84BB"/>
            <stop offset="1" style="stop-color:#AE84BB;stop-opacity:0"/>
        </linearGradient>
        <rect opacity="0.2" fill="url(#SVGID_6_)" width="1920" height="1920"/>
    </g>
    <g clip-path="url(#SVGID_2_)">
        
            <rect x="494.808" y="1384.808" transform="matrix(0.7071 0.7071 -0.7071 0.7071 1133.3251 51.9114)" fill="#FFFFFF" width="18.385" height="18.385"/>
        
            <rect x="959.809" y="1458.808" transform="matrix(0.7071 0.7071 -0.7071 0.7071 1321.8466 -255.2198)" fill="#FFFFFF" width="18.385" height="18.385"/>
        
            <rect x="1421.809" y="1542.808" transform="matrix(0.7071 0.7071 -0.7071 0.7071 1516.5602 -557.3003)" fill="#FFFFFF" width="18.385" height="18.385"/>
        
            <rect x="1260.809" y="1810.808" transform="matrix(0.7071 0.7071 -0.7071 0.7071 1658.9089 -364.9607)" fill="#FFFFFF" width="18.385" height="18.385"/>
        
            <rect x="1745.809" y="1419.808" transform="matrix(0.7071 0.7071 -0.7071 0.7071 1524.4835 -822.4287)" fill="#FFFFFF" width="18.385" height="18.385"/>
        
            <rect x="1800.809" y="977.808" transform="matrix(0.7071 0.7071 -0.7071 0.7071 1228.0515 -990.7783)" fill="#FFFFFF" width="18.385" height="18.385"/>
        
            <rect x="832.808" y="916.808" transform="matrix(0.7071 0.7071 -0.7071 0.7071 901.397 -324.1648)" fill="#FFFFFF" width="18.385" height="18.385"/>
        
            <rect x="536.808" y="714.808" transform="matrix(0.7071 0.7071 -0.7071 0.7071 671.865 -174.0256)" fill="#FFFFFF" width="18.385" height="18.385"/>
        
            <rect x="1126.809" y="1304.808" transform="matrix(0.7071 0.7071 -0.7071 0.7071 1261.8652 -418.4124)" fill="#FFFFFF" width="18.385" height="18.385"/>
        
            <rect x="1323.809" y="924.808" transform="matrix(0.7071 0.7071 -0.7071 0.7071 1050.8647 -669.0117)" fill="#FFFFFF" width="18.385" height="18.385"/>
        
            <rect x="164.808" y="906.808" transform="matrix(0.7071 0.7071 -0.7071 0.7071 698.6732 145.2537)" fill="#FFFFFF" width="18.385" height="18.385"/>
        
            <rect x="38.808" y="1078.808" transform="matrix(0.7071 0.7071 -0.7071 0.7071 783.3911 284.7267)" fill="#FFFFFF" width="18.385" height="18.385"/>
        
            <rect x="113.808" y="1514.808" transform="matrix(0.7071 0.7071 -0.7071 0.7071 1113.6566 359.3951)" fill="#FFFFFF" width="18.385" height="18.385"/>
        
            <rect x="1862.809" y="1835.808" transform="matrix(0.7071 0.7071 -0.7071 0.7071 1852.9083 -783.3164)" fill="#FFFFFF" width="18.385" height="18.385"/>
        
            <rect x="739.808" y="1238.808" transform="matrix(0.7071 0.7071 -0.7071 0.7071 1101.8462 -164.0923)" fill="#FFFFFF" width="18.385" height="18.385"/>
        
            <rect x="567.808" y="988.808" transform="matrix(0.7071 0.7071 -0.7071 0.7071 874.692 -115.6931)" fill="#FFFFFF" width="18.385" height="18.385"/>
        
            <rect x="924.809" y="1028.808" transform="matrix(0.7071 0.7071 -0.7071 0.7071 1007.5394 -356.4153)" fill="#FFFFFF" width="18.385" height="18.385"/>
    </g>
    <g clip-path="url(#SVGID_2_)">
        
            <rect x="494.808" y="528.808" transform="matrix(0.7071 0.7071 -0.7071 0.7071 528.0416 -198.8052)" fill="#FFFFFF" width="18.385" height="18.385"/>
        
            <rect x="959.809" y="602.808" transform="matrix(0.7071 0.7071 -0.7071 0.7071 716.5632 -505.9365)" fill="#FFFFFF" width="18.385" height="18.385"/>
        
            <rect x="1421.809" y="686.808" transform="matrix(0.7071 0.7071 -0.7071 0.7071 911.2768 -808.0168)" fill="#FFFFFF" width="18.385" height="18.385"/>
        
            <rect x="1260.809" y="954.808" transform="matrix(0.7071 0.7071 -0.7071 0.7071 1053.6256 -615.6772)" fill="#FFFFFF" width="18.385" height="18.385"/>
        
            <rect x="1745.809" y="563.808" transform="matrix(0.7071 0.7071 -0.7071 0.7071 919.2001 -1073.1453)" fill="#FFFFFF" width="18.385" height="18.385"/>
        
            <rect x="1800.809" y="121.808" transform="matrix(0.7071 0.7071 -0.7071 0.7071 622.7681 -1241.4949)" fill="#FFFFFF" width="18.385" height="18.385"/>
        
            <rect x="832.808" y="60.808" transform="matrix(0.7071 0.7071 -0.7071 0.7071 296.1136 -574.8814)" fill="#FFFFFF" width="18.385" height="18.385"/>
        
            <rect x="536.808" y="-141.192" transform="matrix(0.7071 0.7071 -0.7071 0.7071 66.5816 -424.7422)" fill="#FFFFFF" width="18.385" height="18.385"/>
        
            <rect x="1126.809" y="448.808" transform="matrix(0.7071 0.7071 -0.7071 0.7071 656.5819 -669.1289)" fill="#FFFFFF" width="18.385" height="18.385"/>
        
            <rect x="1323.809" y="68.808" transform="matrix(0.7071 0.7071 -0.7071 0.7071 445.5813 -919.7284)" fill="#FFFFFF" width="18.385" height="18.385"/>
        
            <rect x="164.808" y="50.808" transform="matrix(0.7071 0.7071 -0.7071 0.7071 93.3898 -105.463)" fill="#FFFFFF" width="18.385" height="18.385"/>
        
            <rect x="38.808" y="222.808" transform="matrix(0.7071 0.7071 -0.7071 0.7071 178.1076 34.0101)" fill="#FFFFFF" width="18.385" height="18.385"/>
        
            <rect x="113.808" y="658.808" transform="matrix(0.7071 0.7071 -0.7071 0.7071 508.3732 108.6785)" fill="#FFFFFF" width="18.385" height="18.385"/>
        
            <rect x="1862.809" y="979.808" transform="matrix(0.7071 0.7071 -0.7071 0.7071 1247.625 -1034.0332)" fill="#FFFFFF" width="18.385" height="18.385"/>
        
            <rect x="739.808" y="382.808" transform="matrix(0.7071 0.7071 -0.7071 0.7071 496.5629 -414.8088)" fill="#FFFFFF" width="18.385" height="18.385"/>
        
            <rect x="567.808" y="132.808" transform="matrix(0.7071 0.7071 -0.7071 0.7071 269.4086 -366.4098)" fill="#FFFFFF" width="18.385" height="18.385"/>
        
            <rect x="924.809" y="172.808" transform="matrix(0.7071 0.7071 -0.7071 0.7071 402.256 -607.1318)" fill="#FFFFFF" width="18.385" height="18.385"/>
    </g>
    <g opacity="0.4" clip-path="url(#SVGID_2_)">
        <path fill="#FFFFFF" d="M841,813c-13.807,0-25,11.193-25,25s11.193,25,25,25h205c13.807,0,25-11.193,25-25s-11.193-25-25-25H841z"/>
        <path fill="#FFFFFF" d="M939-125h205c13.807,0,25-11.193,25-25s-11.193-25-25-25H939c-13.807,0-25,11.193-25,25    S925.193-125,939-125z"/>
        <g>
            
                <path fill="none" stroke="#FFFFFF" stroke-width="50" stroke-linecap="round" stroke-linejoin="round" stroke-miterlimit="10" d="     M576,744"/>
            
                <path fill="none" stroke="#FFFFFF" stroke-width="50" stroke-linecap="round" stroke-linejoin="round" stroke-miterlimit="10" d="     M824,744"/>
        </g>
        <path fill="#FFFFFF" d="M1049.998,1011H968c-13.807,0-25-11.192-25-25s11.193-25,25-25h9h15c13.807,0,25-11.193,25-25    s-11.193-25-25-25H590c-13.807,0-25,11.193-25,25s11.193,25,25,25h26h106h27c13.807,0,25,11.192,25,25s-11.193,25-25,25h-50.998    c-10.399,3.027-18.002,12.623-18.002,24c0,13.807,11.193,25,25,25h338c13.807,0,25-11.193,25-25    C1068,1023.623,1060.397,1014.027,1049.998,1011z"/>
        <path fill="#FFFFFF" d="M212.998,1453H131c-13.807,0-25-11.192-25-25s11.193-25,25-25h30.998    c10.399-3.027,18.002-12.623,18.002-24c0-13.807-11.193-25-25-25h-402c-13.807,0-25,11.193-25,25s11.193,25,25,25h25.002    c2.222-0.646,4.568-1,6.998-1h133c13.807,0,25,11.192,25,25s-11.193,25-25,25h-56.998c-10.399,3.027-18.002,12.623-18.002,24    c0,13.807,11.193,25,25,25h338c13.807,0,25-11.193,25-25C231,1465.623,223.397,1456.027,212.998,1453z"/>
        <path fill="#FFFFFF" d="M1170.998,1576H1089c-13.808,0-25-11.192-25-25s11.192-25,25-25h30.998    c10.399-3.027,18.002-12.623,18.002-24c0-13.807-11.193-25-25-25H711c-13.807,0-25,11.193-25,25s11.193,25,25,25h19.002    c2.222-0.646,4.568-1,6.998-1h133c13.807,0,25,11.192,25,25s-11.193,25-25,25h-50.998c-10.399,3.027-18.002,12.623-18.002,24    c0,13.807,11.193,25,25,25h338c13.807,0,25-11.193,25-25C1189,1588.623,1181.397,1579.027,1170.998,1576z"/>
        <path fill="#FFFFFF" d="M722,1387h-29c-13.807,0-25-11.193-25-25s11.193-25,25-25h121.005c10.396-3.029,17.995-12.624,17.995-24    c0-13.808-11.193-25-25-25H344c-13.807,0-25,11.192-25,25c0,11.377,7.603,20.973,18.002,24H461c13.807,0,25,11.193,25,25    s-11.193,25-25,25h-31h-13c-13.807,0-25,11.193-25,25s11.193,25,25,25h305c13.807,0,25-11.193,25-25S735.807,1387,722,1387z"/>
        <g>
            <path fill="#FFFFFF" d="M301.81,1188H281c-13.807,0-25-11.193-25-25s11.193-25,25-25h17c13.807,0,25-11.192,25-25     s-11.193-25-25-25H164c-13.807,0-25,11.192-25,25c0,11.377,7.603,20.973,18.002,24H164c2.43,0,4.776,0.354,6.998,1H175     c-1.112,0-2.205,0.08-3.279,0.221C181.748,1141.475,189,1150.888,189,1162c0,13.808-11.193,25-25,25H88.002     C77.603,1190.027,70,1199.623,70,1211c0,13.807,11.193,25,25,25h197c13.807,0,25-11.193,25-25     C317,1200.676,310.74,1191.814,301.81,1188z"/>
            <path fill="#FFFFFF" d="M922.998,1187H689c-13.807,0-25-11.193-25-25s11.193-25,25-25h34.998     c10.399-3.027,18.002-12.623,18.002-24c0-13.807-11.193-25-25-25H482c-13.807,0-25,11.193-25,25s11.193,25,25,25h12     c13.807,0,25,11.193,25,25s-11.193,25-25,25h-50.81c-8.931,3.813-15.19,12.675-15.19,23c0,13.808,11.193,25,25,25h463     c13.807,0,25-11.192,25-25C941,1199.623,933.397,1190.027,922.998,1187z"/>
        </g>
        <path fill="#FFFFFF" d="M441.988,912H344c-13.807,0-25-11.193-25-25c0-13.807,11.193-25,25-25H50c13.807,0,25-11.193,25-25    s-11.193-25-25-25h-300c-13.807,0-25,11.193-25,25s11.193,25,25,25h240c-13.807,0-25,11.193-25,25    c0,12.097,8.592,22.186,20.006,24.5c-0.682,0.139-1.352,0.308-2.011,0.5H124c13.807,0,25,11.193,25,25s-11.193,25-25,25H88.002    C77.603,965.027,70,974.623,70,986c0,13.807,11.193,25,25,25h203h129h5c27.614,0,50-22.386,50-50    C482,936.807,464.816,916.629,441.988,912z"/>
        <path fill="#FFFFFF" d="M487.994,1650.5c0.682-0.139,1.351-0.308,2.01-0.5H349c-13.807,0-25-11.193-25-25s11.193-25,25-25h35.998    c10.399-3.027,18.002-12.623,18.002-24c0-13.807-11.193-25-25-25H245H116h-5c-27.614,0-50,22.386-50,50    c0,24.193,17.184,44.371,40.012,49H199c13.807,0,25,11.193,25,25s-11.193,25-25,25H49c-13.807,0-25,11.193-25,25s11.193,25,25,25    h230c13.807,0,25-11.193,25-25s-11.193-25-25-25h204c13.807,0,25-11.192,25-25C508,1662.902,499.408,1652.814,487.994,1650.5z"/>
        <path fill="#FFFFFF" d="M1470,1240h-19.002c-2.222,0.646-4.568,1-6.998,1h-133c-13.808,0-25-11.192-25-25s11.192-25,25-25h50.998    c10.399-3.027,18.002-12.623,18.002-24c0-13.807-11.193-25-25-25h-278c-13.807,0-25,11.193-25,25c0,11.377,7.603,20.973,18.002,24    H1152c13.808,0,25,11.192,25,25s-11.192,25-25,25h-30.998c-10.399,3.027-18.002,12.623-18.002,24c0,13.807,11.193,25,25,25h342    c13.807,0,25-11.193,25-25S1483.807,1240,1470,1240z"/>
        <path fill="#FFFFFF" d="M1923.998,1430H1800c-13.807,0-25-11.193-25-25s11.193-25,25-25h50.998    c10.399-3.027,18.002-12.623,18.002-24c0-13.807-11.193-25-25-25h-305c-13.807,0-25,11.193-25,25c0,11.377,7.603,20.973,18.002,24    H1568c13.807,0,25,11.193,25,25s-11.193,25-25,25h-121.005c-10.396,3.029-17.995,12.624-17.995,24c0,13.808,11.192,25,25,25h463    c13.808,0,25-11.192,25-25C1942,1442.623,1934.398,1433.027,1923.998,1430z"/>
        <path fill="#FFFFFF" d="M1617,788c0-13.807-11.193-25-25-25h-195c-13.807,0-25,11.193-25,25c0,11.377,7.603,20.973,18.002,24H1312    c-13.807,0-25,11.193-25,25s11.193,25,25,25h12c13.808,0,25,11.193,25,25c0,13.807-11.192,25-25,25h-91.005    C1222.6,915.029,1215,924.625,1215,936c0,13.807,11.193,25,25,25h213c13.807,0,25-11.193,25-25c0-11.377-7.603-20.973-18.002-24    H1416c-13.808,0-25-11.193-25-25c0-13.807,11.192-25,25-25h61h29h73c13.807,0,25-11.193,25-25c0-11.377-7.603-20.973-18.002-24    H1592C1605.807,813,1617,801.807,1617,788z"/>
        <path fill="#FFFFFF" d="M2115.998,862H1992c-2.43,0-4.776-0.354-6.998-1h-108.004c-2.222,0.646-4.568,1-6.998,1h-120.998    c-10.399,3.027-18.002,12.623-18.002,24c0,13.807,11.193,25,25,25h353c13.807,0,25-11.193,25-25    C2134,874.623,2126.397,865.027,2115.998,862z"/>
        <g>
            <path fill="#FFFFFF" d="M1779,1629h-12c-13.807,0-25-11.193-25-25s11.193-25,25-25h50.81c8.931-3.813,15.19-12.675,15.19-23     c0-13.808-11.192-25-25-25h-463c-13.808,0-25,11.192-25,25c0,11.377,7.602,20.973,18.002,24H1572c13.807,0,25,11.193,25,25     s-11.193,25-25,25h-34.998c-10.399,3.027-18.002,12.623-18.002,24c0,13.807,11.193,25,25,25h235c13.807,0,25-11.193,25-25     S1792.807,1629,1779,1629z"/>
            <path fill="#FFFFFF" d="M2103.998,1630H2097c-2.43,0-4.776-0.354-6.998-1H2086c1.112,0,2.205-0.08,3.279-0.221     c-10.027-3.254-17.279-12.667-17.279-23.779c0-13.808,11.192-25,25-25h75.998c10.399-3.027,18.002-12.623,18.002-24     c0-13.807-11.193-25-25-25h-197c-13.807,0-25,11.193-25,25c0,10.324,6.26,19.186,15.191,23H1980c13.807,0,25,11.193,25,25     s-11.193,25-25,25h-17c-13.808,0-25,11.192-25,25s11.192,25,25,25h134c13.808,0,25-11.192,25-25     C2122,1642.623,2114.398,1633.027,2103.998,1630z"/>
        </g>
        <path fill="#FFFFFF" d="M2275.994,1855.5c0.682-0.139,1.351-0.308,2.01-0.5H2137c-13.807,0-25-11.193-25-25s11.193-25,25-25    h38.746c8.959-3.801,15.254-12.655,15.254-23c0-13.807-11.193-25-25-25h-193.012c-3.228-0.654-6.567-1-9.988-1h-134    c-27.614,0-50,22.386-50,50c0,24.193,17.184,44.371,40.012,49H1917c13.807,0,25,11.193,25,25s-11.193,25-25,25h-150    c-13.807,0-25,11.193-25,25s11.193,25,25,25h300c13.807,0,25-11.193,25-25s-11.193-25-25-25h204c13.807,0,25-11.193,25-25    C2296,1867.903,2287.407,1857.814,2275.994,1855.5z"/>
        <path fill="#FFFFFF" d="M1485,1805h-26.002c-2.222,0.646-4.568,1-6.998,1h-21h-97h-15c-13.808,0-25-11.192-25-25s11.192-25,25-25    h96.998c10.399-3.027,18.002-12.623,18.002-24c0-13.807-11.193-25-25-25h-248c-13.807,0-25,11.193-25,25s11.193,25,25,25h-123    c-13.807,0-25,11.193-25,25c0,11.377,7.603,20.973,18.002,24H1115c13.808,0,25,11.192,25,25s-11.192,25-25,25h-50.998    c-10.399,3.027-18.002,12.623-18.002,24c0,13.807,11.193,25,25,25h155h183h76c27.614,0,50-22.386,50-50S1512.614,1805,1485,1805z"/>
        <path fill="#FFFFFF" d="M2169.994,1136.5c11.413-2.314,20.006-12.403,20.006-24.5c0-13.807-11.193-25-25-25h-98.002    c10.399-3.027,18.002-12.623,18.002-24c0-13.807-11.193-25-25-25h-193.012c-3.228-0.654-6.567-1-9.988-1h-134    c-27.614,0-50,22.386-50,50c0,24.193,17.184,44.371,40.012,49H1763h48c13.807,0,25,11.193,25,25s-11.193,25-25,25h-150    c-13.807,0-25,11.193-25,25s11.193,25,25,25h300c13.807,0,25-11.193,25-25s-11.193-25-25-25h204c13.807,0,25-11.193,25-25    C2190,1148.903,2181.407,1138.814,2169.994,1136.5z"/>
        <path fill="#FFFFFF" d="M1395-77H993c-13.807,0-25,11.193-25,25s11.193,25,25,25h15h9c13.808,0,25,11.193,25,25s-11.192,25-25,25    h-81.998C924.603,26.027,917,35.623,917,47c0,13.807,11.193,25,25,25h338c13.807,0,25-11.193,25-25    c0-11.377-7.603-20.973-18.002-24H1236c-13.808,0-25-11.193-25-25s11.192-25,25-25h27h106h26c13.807,0,25-11.193,25-25    S1408.807-77,1395-77z"/>
        <path fill="#FFFFFF" d="M2232,366h-402c-13.807,0-25,11.193-25,25c0,11.377,7.603,20.973,18.002,24H1854c13.808,0,25,11.193,25,25    s-11.192,25-25,25h-81.998c-10.399,3.027-18.002,12.623-18.002,24c0,13.807,11.193,25,25,25h338c13.807,0,25-11.193,25-25    c0-11.377-7.603-20.973-18.002-24H2067c-13.808,0-25-11.193-25-25s11.192-25,25-25h133c2.43,0,4.776,0.354,6.998,1H2232    c13.807,0,25-11.193,25-25S2245.807,366,2232,366z"/>
        <path fill="#FFFFFF" d="M1274,489H872c-13.807,0-25,11.193-25,25c0,11.377,7.603,20.973,18.002,24H896c13.807,0,25,11.193,25,25    s-11.193,25-25,25h-81.998C803.603,591.027,796,600.623,796,612c0,13.807,11.193,25,25,25h338c13.807,0,25-11.193,25-25    c0-11.377-7.603-20.973-18.002-24H1115c-13.808,0-25-11.193-25-25s11.192-25,25-25h133c2.43,0,4.776,0.354,6.998,1H1274    c13.807,0,25-11.193,25-25S1287.807,489,1274,489z"/>
        <path fill="#FFFFFF" d="M1577.81,400H1524c-13.807,0-25-11.193-25-25s11.193-25,25-25h37.998H1641c13.808,0,25-11.193,25-25    s-11.192-25-25-25h-463c-13.808,0-25,11.193-25,25c0,12.097,8.592,22.186,20.006,24.5c-0.682,0.138-1.351,0.308-2.011,0.5H1292    c13.807,0,25,11.193,25,25s-11.193,25-25,25h-38.746c-8.959,3.8-15.254,12.655-15.254,23c0,13.807,11.193,25,25,25h305    c13.807,0,25-11.193,25-25C1593,412.675,1586.74,403.814,1577.81,400z"/>
        <g>
            <path fill="#FFFFFF" d="M1541.81,200H1491c-13.807,0-25-11.193-25-25s11.193-25,25-25h12c13.807,0,25-11.193,25-25     s-11.193-25-25-25h-235c-13.807,0-25,11.193-25,25c0,11.377,7.603,20.973,18.002,24H1296c13.807,0,25,11.193,25,25     s-11.193,25-25,25h-233.998c-10.4,3.027-18.002,12.623-18.002,24c0,13.807,11.192,25,25,25h463c13.808,0,25-11.193,25-25     C1557,212.675,1550.74,203.814,1541.81,200z"/>
            <path fill="#FFFFFF" d="M1896.998,199H1821c-13.808,0-25-11.193-25-25c0-11.112,7.252-20.525,17.279-23.779     c-1.074-0.141-2.167-0.221-3.279-0.221h4.002c2.222-0.646,4.568-1,6.998-1h6.998c10.4-3.027,18.002-12.623,18.002-24     c0-13.807-11.192-25-25-25h-134c-13.808,0-25,11.193-25,25s11.192,25,25,25h17c13.807,0,25,11.193,25,25s-11.193,25-25,25h-20.81     c-8.931,3.814-15.19,12.675-15.19,23c0,13.807,11.193,25,25,25h197c13.807,0,25-11.193,25-25     C1915,211.623,1907.397,202.027,1896.998,199z"/>
        </g>
        <path fill="#FFFFFF" d="M2235-176h-300c-13.807,0-25,11.193-25,25s11.193,25,25,25h-294c13.807,0,25,11.193,25,25    s-11.193,25-25,25h-97.988C1520.184-71.372,1503-51.193,1503-27c0,27.614,22.386,50,50,50h5h129h203c13.807,0,25-11.193,25-25    c0-11.377-7.603-20.973-18.002-24H1861c-13.807,0-25-11.193-25-25s11.193-25,25-25h141.005c-0.66-0.192-1.329-0.362-2.011-0.5    C2011.407-78.814,2020-88.903,2020-101c0-13.807-11.193-25-25-25h240c13.807,0,25-11.193,25-25S2248.807-176,2235-176z"/>
        <path fill="#FFFFFF" d="M1936,712h-150c-13.807,0-25-11.193-25-25s11.193-25,25-25h97.988c22.828-4.628,40.012-24.807,40.012-49    c0-27.614-22.386-50-50-50h-5h-129h-133c-13.807,0-25,11.193-25,25c0,11.377,7.603,20.973,18.002,24H1636    c13.807,0,25,11.193,25,25s-11.193,25-25,25h-141.005c0.66,0.192,1.329,0.362,2.011,0.5C1485.592,664.814,1477,674.903,1477,687    c0,13.807,11.192,25,25,25h204c-13.807,0-25,11.193-25,25s11.193,25,25,25h230c13.807,0,25-11.193,25-25S1949.807,712,1936,712z"/>
        <path fill="#FFFFFF" d="M863.998,253H833c-13.807,0-25-11.193-25-25s11.193-25,25-25h81.998C925.397,199.973,933,190.377,933,179    c0-13.807-11.193-25-25-25H630c-13.807,0-25,11.193-25,25c0,11.377,7.603,20.973,18.002,24H674c13.807,0,25,11.193,25,25    s-11.193,25-25,25H541c-2.43,0-4.776-0.354-6.998-1H515c-13.807,0-25,11.193-25,25s11.193,25,25,25h342c13.807,0,25-11.193,25-25    C882,265.623,874.397,256.027,863.998,253z"/>
        <path fill="#FFFFFF" d="M538.005,442H417c-13.807,0-25-11.193-25-25s11.193-25,25-25h35.998C463.397,388.973,471,379.377,471,368    c0-13.807-11.193-25-25-25H141c-13.807,0-25,11.193-25,25c0,11.377,7.603,20.973,18.002,24H185c13.807,0,25,11.193,25,25    s-11.193,25-25,25H61.002C50.603,445.027,43,454.623,43,466c0,13.807,11.193,25,25,25h463c13.807,0,25-11.193,25-25    C556,454.625,548.402,445.029,538.005,442z"/>
        <path fill="#FFFFFF" d="M752.005-76H661c-13.807,0-25-11.193-25-25s11.193-25,25-25h12c13.807,0,25-11.193,25-25s-11.193-25-25-25    h-78.002C605.397-179.027,613-188.623,613-200c0-13.807-11.193-25-25-25H393c-13.807,0-25,11.193-25,25s11.193,25,25,25h6.002    C388.603-171.973,381-162.377,381-151c0,13.807,11.193,25,25,25h73h29h61c13.807,0,25,11.193,25,25s-11.193,25-25,25h-43.998    C514.603-72.973,507-63.377,507-52c0,13.807,11.193,25,25,25h213c13.807,0,25-11.193,25-25C770-63.375,762.402-72.971,752.005-76z    "/>
        <path fill="#FFFFFF" d="M235.998-126H115c-2.43,0-4.776-0.354-6.998-1H-0.002c-2.222,0.646-4.568,1-6.998,1h-123.998    C-141.397-122.973-149-113.377-149-102c0,13.807,11.193,25,25,25h353c13.807,0,25-11.193,25-25    C254-113.377,246.397-122.973,235.998-126z"/>
        <g>
            <path fill="#FFFFFF" d="M28.998,642H5c-14.359,0-26-11.641-26-26s11.641-26,26-26h22.854C35.678,585.775,41,577.515,41,568     c0-13.807-11.193-25-25-25h-197c-13.807,0-25,11.193-25,25c0,9.506,5.307,17.772,13.117,22H-112c14.359,0,26,11.641,26,26     c0,11.626-7.633,21.468-18.159,24.794c1.035,0.13,2.088,0.206,3.159,0.206h-3.863c-2.269,0.646-4.66,1-7.137,1h-6.998     C-129.397,645.027-137,654.623-137,666c0,13.807,11.193,25,25,25H22c13.807,0,25-11.193,25-25     C47,654.623,39.397,645.027,28.998,642z"/>
            <path fill="#FFFFFF" d="M451.098,642.151L412.896,642c-14.358-0.057-25.953-11.744-25.896-26.103     C387.057,601.573,398.687,590,412.998,590c0.035,0,0.07,0,0.105,0l236.848,0.936C658.805,587.089,665,578.27,665,568     c0-13.807-11.193-25-25-25H177c-13.807,0-25,11.193-25,25c0,9.515,5.322,17.775,13.146,22H218c14.359,0,26,11.641,26,26     s-11.641,26-26,26h-21.745c-8.96,3.8-15.255,12.655-15.255,23c0,13.807,11.193,25,25,25h235c13.807,0,25-11.193,25-25     C466,654.791,459.869,646.032,451.098,642.151z"/>
        </g>
        <path fill="#FFFFFF" d="M324,198H174c-13.807,0-25-11.193-25-25s11.193-25,25-25h48c-13.807,0-25-11.193-25-25s11.193-25,25-25    h89.975C311.439,70.849,289.279,49,262,49H128c-3.421,0-6.761,0.346-9.988,1H-75c-13.807,0-25,11.193-25,25    c0,11.377,7.603,20.973,18.002,24H-180c-13.807,0-25,11.193-25,25c0,12.097,8.592,22.186,20.006,24.5    C-196.408,150.814-205,160.903-205,173c0,13.807,11.193,25,25,25H24c-13.807,0-25,11.193-25,25s11.193,25,25,25h300    c13.807,0,25-11.193,25-25S337.807,198,324,198z"/>
    </g>
    <g opacity="0.5" clip-path="url(#SVGID_2_)">
        <g>
            
                <linearGradient id="SVGID_7_" gradientUnits="userSpaceOnUse" x1="343.0869" y1="1161.0654" x2="1101.0947" y2="1161.0654" gradientTransform="matrix(0.7071 -0.7071 0.7071 0.7071 -609.5811 850.6006)">
                <stop offset="0" style="stop-color:#FFFFFF;stop-opacity:0"/>
                <stop offset="0.5" style="stop-color:#FFFFFF"/>
                <stop offset="1" style="stop-color:#FFFFFF;stop-opacity:0"/>
            </linearGradient>
            <path fill="url(#SVGID_7_)" d="M989.993,893.006c3.889,3.889,3.889,10.254,0,14.143l-521.845,521.846     c-3.889,3.889-10.252,3.889-14.142,0l0,0c-3.889-3.89-3.89-10.253,0-14.143l521.844-521.846     C979.74,889.117,986.104,889.117,989.993,893.006L989.993,893.006z"/>
        </g>
        <g>
            
                <linearGradient id="SVGID_8_" gradientUnits="userSpaceOnUse" x1="1146.0967" y1="1646.0703" x2="1904.1035" y2="1646.0703" gradientTransform="matrix(0.7071 -0.7071 0.7071 0.7071 -717.334 1560.4629)">
                <stop offset="0" style="stop-color:#FFFFFF;stop-opacity:0"/>
                <stop offset="0.5" style="stop-color:#FFFFFF"/>
                <stop offset="1" style="stop-color:#FFFFFF;stop-opacity:0"/>
            </linearGradient>
            <path fill="url(#SVGID_8_)" d="M1792.993,1378.006c3.889,3.889,3.889,10.253,0,14.143l-521.844,521.846     c-3.89,3.889-10.253,3.889-14.143,0l0,0c-3.889-3.89-3.889-10.253,0-14.143l521.844-521.846     C1782.74,1374.117,1789.104,1374.117,1792.993,1378.006L1792.993,1378.006z"/>
        </g>
        <g>
            
                <linearGradient id="SVGID_9_" gradientUnits="userSpaceOnUse" x1="138.0845" y1="524.0601" x2="896.0918" y2="524.0601" gradientTransform="matrix(0.7071 -0.7071 0.7071 0.7071 -219.1963 519.0703)">
                <stop offset="0" style="stop-color:#FFFFFF;stop-opacity:0"/>
                <stop offset="0.5" style="stop-color:#FFFFFF"/>
                <stop offset="1" style="stop-color:#FFFFFF;stop-opacity:0"/>
            </linearGradient>
            <path fill="url(#SVGID_9_)" d="M784.993,256.006c3.889,3.889,3.889,10.253,0,14.142L263.148,791.994     c-3.889,3.889-10.252,3.889-14.142,0l0,0c-3.89-3.889-3.89-10.253,0-14.143l521.844-521.846     C774.74,252.117,781.104,252.117,784.993,256.006L784.993,256.006z"/>
        </g>
        <g>
            
                <linearGradient id="SVGID_10_" gradientUnits="userSpaceOnUse" x1="1107.0957" y1="1802.0713" x2="1865.1035" y2="1802.0713" gradientTransform="matrix(0.7071 -0.7071 0.7071 0.7071 -839.0664 1578.5762)">
                <stop offset="0" style="stop-color:#FFFFFF;stop-opacity:0"/>
                <stop offset="0.5" style="stop-color:#FFFFFF"/>
                <stop offset="1" style="stop-color:#FFFFFF;stop-opacity:0"/>
            </linearGradient>
            <path fill="url(#SVGID_10_)" d="M1753.993,1534.006c3.889,3.89,3.889,10.253,0,14.143l-521.844,521.846     c-3.89,3.889-10.253,3.889-14.143,0l0,0c-3.889-3.889-3.889-10.253,0-14.143l521.844-521.846     C1743.74,1530.117,1750.104,1530.117,1753.993,1534.006L1753.993,1534.006z"/>
        </g>
        <g>
            
                <linearGradient id="SVGID_11_" gradientUnits="userSpaceOnUse" x1="483.0889" y1="956.0649" x2="1241.0977" y2="956.0649" gradientTransform="matrix(0.7071 -0.7071 0.7071 0.7071 -423.6191 889.5527)">
                <stop offset="0" style="stop-color:#FFFFFF;stop-opacity:0"/>
                <stop offset="0.5" style="stop-color:#FFFFFF"/>
                <stop offset="1" style="stop-color:#FFFFFF;stop-opacity:0"/>
            </linearGradient>
            <path fill="url(#SVGID_11_)" d="M1129.993,688.006c3.889,3.889,3.889,10.253,0,14.143l-521.844,521.846     c-3.89,3.889-10.253,3.889-14.143,0l0,0c-3.889-3.89-3.889-10.253,0-14.143l521.844-521.846     C1119.74,684.117,1126.104,684.117,1129.993,688.006L1129.993,688.006z"/>
        </g>
        <g>
            
                <linearGradient id="SVGID_12_" gradientUnits="userSpaceOnUse" x1="1466.0957" y1="228.0552" x2="2224.1035" y2="228.0552" gradientTransform="matrix(0.7071 -0.7071 0.7071 0.7071 379.0713 1371.4121)">
                <stop offset="0" style="stop-color:#FFFFFF;stop-opacity:0"/>
                <stop offset="0.5" style="stop-color:#FFFFFF"/>
                <stop offset="1" style="stop-color:#FFFFFF;stop-opacity:0"/>
            </linearGradient>
            <path fill="url(#SVGID_12_)" d="M2112.993-39.994c3.889,3.889,3.889,10.253,0,14.143l-521.844,521.846     c-3.89,3.889-10.253,3.889-14.143,0l0,0c-3.889-3.889-3.889-10.253,0-14.142l521.844-521.846     C2102.74-43.883,2109.104-43.883,2112.993-39.994L2112.993-39.994z"/>
        </g>
        <g>
            
                <linearGradient id="SVGID_13_" gradientUnits="userSpaceOnUse" x1="1332.0957" y1="489.0581" x2="2090.1035" y2="489.0581" gradientTransform="matrix(0.7071 -0.7071 0.7071 0.7071 155.2686 1353.1064)">
                <stop offset="0" style="stop-color:#FFFFFF;stop-opacity:0"/>
                <stop offset="0.5" style="stop-color:#FFFFFF"/>
                <stop offset="1" style="stop-color:#FFFFFF;stop-opacity:0"/>
            </linearGradient>
            <path fill="url(#SVGID_13_)" d="M1978.993,221.006c3.889,3.889,3.889,10.253,0,14.142l-521.844,521.846     c-3.89,3.889-10.253,3.889-14.143,0l0,0c-3.889-3.889-3.889-10.253,0-14.142l521.844-521.846     C1968.74,217.117,1975.104,217.117,1978.993,221.006L1978.993,221.006z"/>
        </g>
        <g>
            
                <linearGradient id="SVGID_14_" gradientUnits="userSpaceOnUse" x1="99.0835" y1="368.0591" x2="857.0918" y2="368.0591" gradientTransform="matrix(0.7071 -0.7071 0.7071 0.7071 -120.3105 445.8013)">
                <stop offset="0" style="stop-color:#FFFFFF;stop-opacity:0"/>
                <stop offset="0.5" style="stop-color:#FFFFFF"/>
                <stop offset="1" style="stop-color:#FFFFFF;stop-opacity:0"/>
            </linearGradient>
            <path fill="url(#SVGID_14_)" d="M745.993,100.006c3.889,3.889,3.889,10.253,0,14.142L224.148,635.994     c-3.889,3.889-10.252,3.889-14.142,0l0,0c-3.89-3.889-3.89-10.253,0-14.143l521.844-521.846     C735.74,96.117,742.104,96.117,745.993,100.006L745.993,100.006z"/>
        </g>
        <g>
            
                <linearGradient id="SVGID_15_" gradientUnits="userSpaceOnUse" x1="-364.9189" y1="1141.0684" x2="393.0889" y2="1141.0684" gradientTransform="matrix(0.7071 -0.7071 0.7071 0.7071 -802.8086 344.1104)">
                <stop offset="0" style="stop-color:#FFFFFF;stop-opacity:0"/>
                <stop offset="0.5" style="stop-color:#FFFFFF"/>
                <stop offset="1" style="stop-color:#FFFFFF;stop-opacity:0"/>
            </linearGradient>
            <path fill="url(#SVGID_15_)" d="M281.993,873.006c3.89,3.889,3.89,10.253,0,14.143l-521.844,521.846     c-3.89,3.889-10.253,3.889-14.143,0l0,0c-3.889-3.89-3.889-10.253,0-14.143l521.845-521.846     C271.74,869.117,278.104,869.117,281.993,873.006L281.993,873.006z"/>
        </g>
        <g>
            
                <linearGradient id="SVGID_16_" gradientUnits="userSpaceOnUse" x1="889.0903" y1="99.0547" x2="1647.0977" y2="99.0547" gradientTransform="matrix(0.7071 -0.7071 0.7071 0.7071 301.2881 925.6279)">
                <stop offset="0" style="stop-color:#FFFFFF;stop-opacity:0"/>
                <stop offset="0.5" style="stop-color:#FFFFFF"/>
                <stop offset="1" style="stop-color:#FFFFFF;stop-opacity:0"/>
            </linearGradient>
            <path fill="url(#SVGID_16_)" d="M1535.993-168.994c3.889,3.889,3.889,10.253,0,14.143l-521.844,521.846     c-3.89,3.889-10.253,3.889-14.143,0l0,0c-3.889-3.889-3.889-10.253,0-14.142l521.844-521.846     C1525.74-172.883,1532.104-172.883,1535.993-168.994L1535.993-168.994z"/>
        </g>
    </g>
</g>
<rect fill="#7943CE" fill-opacity="0.8" width="1920" height="1920"/>
</svg>