<?xml version="1.0" encoding="UTF-8" standalone="no"?>
<svg width="447px" height="444px" viewBox="0 0 447 444" version="1.1" xmlns="http://www.w3.org/2000/svg" xmlns:xlink="http://www.w3.org/1999/xlink" xmlns:sketch="http://www.bohemiancoding.com/sketch/ns">
    <!-- Generator: Sketch 3.3.1 (12005) - http://www.bohemiancoding.com/sketch -->
    <title>Imported Layers</title>
    <desc>Created with Sketch.</desc>
    <defs></defs>
    <g id="App-Prototype" stroke="none" stroke-width="1" fill="none" fill-rule="evenodd" sketch:type="MSPage">
        <g id="Magic-Slide" sketch:type="MSArtboardGroup" transform="translate(-81.000000, -272.000000)">
            <g id="Imported-Layers" sketch:type="MSLayerGroup" transform="translate(81.000000, 272.000000)">
                <path d="M320.451,408.938 C318.465,408.529 316.468,408.324 314.517,408.324 C307.961,408.324 302.556,410.517 296.837,412.842 C295.596,413.34 293.269,414.125 293.377,414.024 C280.108,420.475 263.359,424.672 237.999,426 C212.288,427.347 194.001,420.645 182.056,413.758 C182.257,413.947 180.112,413.34 178.868,412.842 C173.152,410.517 167.746,408.324 161.19,408.324 C159.238,408.324 157.242,408.529 155.254,408.938 C146.011,410.807 145.877,417.425 146.028,419.4 C146.966,430.092 165.842,443.449 186.533,443.801 C186.927,443.806 187.358,443.813 187.764,443.813 C204.221,443.813 219.698,438.329 229.077,434.083 C231.941,434.328 235,434.457 237.999,434.463 C240.987,434.457 243.911,434.328 246.775,434.083 C256.152,438.329 271.487,443.813 287.943,443.813 C288.351,443.813 288.781,443.806 289.175,443.801 C309.867,443.449 328.744,430.092 329.679,419.4 C329.828,417.425 329.696,410.807 320.451,408.938" id="Fill-1" fill="#FF812C" sketch:type="MSShapeGroup"></path>
                <path d="M239.5,174 C219.111,176.146 188.001,188.999 178.001,209.5 C167.999,229.999 160.501,303.5 161.002,333.501 C161.499,363.499 175.5,411.5 213.999,417.5 C252.501,423.5 283.501,417.5 295.001,400 C306.502,382.5 317.002,341 313.499,321 C310,301 303.501,224.5 296,215 C288.502,205.501 276.502,193.501 272,189.499 C267.5,185.5 248.999,173 239.5,174" id="Fill-2" fill="#F9F8E1" sketch:type="MSShapeGroup"></path>
                <path d="M237.998,229.147 C222.312,229.147 216.601,236.465 220.883,245.26 C225.164,254.047 230.874,263.57 237.998,263.57 C245.126,263.57 250.839,254.047 255.098,245.26 C259.39,236.465 253.677,229.147 237.998,229.147" id="Fill-3" fill="#FF812C" sketch:type="MSShapeGroup"></path>
                <path d="M391.921,282.014 L373.925,290.742 C371.441,291.949 368.452,290.91 367.244,288.426 C366.04,285.94 367.077,282.952 369.561,281.746 L387.557,273.016 C390.04,271.811 393.031,272.848 394.236,275.332 C395.441,277.817 394.404,280.807 391.921,282.014" id="Fill-4" fill="#85E8F9" sketch:type="MSShapeGroup"></path>
                <path d="M398.324,355.446 C400.058,357.18 424.771,345.537 426.744,342 L399.606,342 C398.232,348.075 397.369,354.492 398.324,355.446" id="Fill-5" fill="#753FC3" sketch:type="MSShapeGroup"></path>
                <path d="M108.178,126.678 C103.463,130.47 97.685,132.984 91.501,134 C90.011,134.245 88.546,134.363 87.114,134.363 C80.263,134.363 74.171,131.657 69.733,127.169 C64.801,131.184 58.583,132.942 50.983,133.623 C46.743,139.465 44.001,146.106 44.001,152.625 C44.001,171.196 61.014,186.249 82,186.249 C85.326,186.249 88.549,185.871 91.624,185.162 C92.458,176.08 97.566,167.751 106,167.751 C108.833,167.751 111.713,168.69 114.346,170.283 C117.931,165.15 120.001,159.102 120.001,152.625 C120.001,143.035 115.459,133.65 108.178,126.678" id="Fill-6" fill-opacity="0.8" fill="#C1C1C1" sketch:type="MSShapeGroup"></path>
                <path d="M91.501,69 C83.308,69 76.958,73.054 72.212,79.414 C79.424,85.256 83.555,93.057 82,101.499 C80.983,107.023 79.671,111.626 78.051,115.458 C79.089,115.308 80.111,115.23 81.111,115.23 C81.41,115.23 81.705,115.237 82,115.251 C92.138,115.733 101.359,120.149 108.178,126.678 C115.304,120.949 120.001,112.302 120.001,101.499 C120.001,83.551 107.242,69 91.501,69" id="Fill-7" fill-opacity="0.8" fill="#E8E8E9" sketch:type="MSShapeGroup"></path>
                <path d="M81.111,115.23 C80.111,115.23 79.089,115.308 78.051,115.458 C75.854,120.656 73.092,124.436 69.733,127.169 C74.171,131.657 80.263,134.363 87.114,134.363 C88.546,134.363 90.011,134.245 91.501,134 C97.685,132.984 103.463,130.47 108.178,126.678 C101.359,120.149 92.138,115.733 82,115.251 C81.705,115.237 81.41,115.23 81.111,115.23" id="Fill-8" fill-opacity="0.85" fill="#B0B1B2" sketch:type="MSShapeGroup"></path>
                <path d="M41.001,69 C18.356,69 0,83.551 0,101.499 C0,119.449 18.356,134 41.001,134 C44.561,134 47.888,133.902 50.983,133.623 C54.769,128.409 59.749,123.832 65.036,120.549 C62.379,115.145 61.463,108.551 62.999,101.499 C64.832,93.09 67.841,85.274 72.212,79.414 C64.346,73.041 52.814,69 41.001,69" id="Fill-9" fill-opacity="0.8" fill="#E8E8E9" sketch:type="MSShapeGroup"></path>
                <path d="M65.036,120.549 C59.749,123.832 54.769,128.409 50.983,133.623 C58.583,132.942 64.801,131.184 69.733,127.169 C67.846,125.261 66.257,123.03 65.036,120.549" id="Fill-10" fill-opacity="0.7" fill="#B0B1B2" sketch:type="MSShapeGroup"></path>
                <path d="M72.212,79.414 C67.841,85.274 64.832,93.09 62.999,101.499 C61.463,108.551 62.379,115.145 65.036,120.549 C69.328,117.884 73.824,116.07 78.051,115.458 C79.671,111.626 80.983,107.023 82,101.499 C83.555,93.057 79.424,85.256 72.212,79.414" id="Fill-11" fill-opacity="0.9" fill="#D4D4D6" sketch:type="MSShapeGroup"></path>
                <path d="M78.051,115.458 C73.824,116.07 69.328,117.884 65.036,120.549 C66.257,123.03 67.846,125.261 69.733,127.169 C73.092,124.436 75.854,120.656 78.051,115.458" id="Fill-12" fill-opacity="0.9" fill="#A1A2A4" sketch:type="MSShapeGroup"></path>
                <path d="M306.722,46 C294.175,46 284,56.298 284,69 C284,80.895 293.051,89.001 304.387,91.557 C303.744,89.299 303.399,86.936 303.393,84.499 C303.346,67.756 312.382,58.44 325.138,56.293 C320.541,50.287 313.761,46 306.722,46" id="Fill-13" fill-opacity="0.8" fill="#E8E8E9" sketch:type="MSShapeGroup"></path>
                <path d="M331.115,55.811 C329.051,55.811 327.053,55.971 325.138,56.293 C328.737,60.997 330.999,66.755 330.999,72.334 C330.999,83.84 321.701,92.28 310.328,92.28 C309.146,92.28 307.942,92.188 306.722,92 C305.935,91.878 305.155,91.731 304.387,91.557 C306.124,97.657 310.034,102.972 315.334,106.783 C317.258,103.6 320.562,101.499 324.315,101.499 C330.176,101.499 334.943,106.625 335.064,112.999 L335.068,112.999 C352.561,112.999 366.743,100.241 366.743,84.499 C366.743,68.76 352.482,57.635 335.068,56 C333.727,55.873 332.408,55.811 331.115,55.811" id="Fill-14" fill-opacity="0.7" fill="#C1C1C1" sketch:type="MSShapeGroup"></path>
                <path d="M325.138,56.293 C312.382,58.44 303.346,67.756 303.393,84.499 C303.399,86.936 303.744,89.299 304.387,91.557 C305.155,91.731 305.935,91.878 306.722,92 C307.942,92.188 309.146,92.28 310.328,92.28 C321.701,92.28 330.999,83.84 330.999,72.334 C330.999,66.755 328.737,60.997 325.138,56.293" id="Fill-15" fill-opacity="0.9" fill="#BDBDBD" sketch:type="MSShapeGroup"></path>
                <path d="M260.914,0 C246.468,0 234.76,12.312 234.76,27.5 C234.76,41.416 244.838,55.359 257.41,55.359 C258.558,55.359 259.73,55.242 260.914,54.999 C282.001,50.667 287.333,40.002 287.07,27.5 C286.748,12.314 275.359,0 260.914,0" id="Fill-16" fill-opacity="0.5" fill="#E8E8E9" sketch:type="MSShapeGroup"></path>
                <path d="M114.346,170.283 C109.279,177.533 101.183,182.953 91.624,185.162 C91.542,186.04 91.501,186.926 91.501,187.813 C91.501,197.852 98.999,205.992 108.25,205.992 C117.503,205.992 125.002,197.852 125.002,187.813 C125.002,180.845 120.308,173.889 114.346,170.283" id="Fill-17" fill-opacity="0.8" fill="#C1C1C1" sketch:type="MSShapeGroup"></path>
                <path d="M106,167.751 C97.566,167.751 92.458,176.08 91.624,185.162 C101.183,182.953 109.279,177.533 114.346,170.283 C111.713,168.69 108.833,167.751 106,167.751" id="Fill-18" fill-opacity="0.9" fill="#B5B5B5" sketch:type="MSShapeGroup"></path>
                <path d="M315.334,106.783 C314.213,108.639 313.56,110.861 313.56,113.25 C313.56,119.74 318.374,124.999 324.315,124.999 C330.252,124.999 335.068,119.74 335.068,113.25 C335.068,113.166 335.066,113.082 335.064,112.999 C327.598,112.998 320.741,110.673 315.334,106.783" id="Fill-19" fill-opacity="0.65" fill="#C1C1C1" sketch:type="MSShapeGroup"></path>
                <path d="M324.315,101.499 C320.562,101.499 317.258,103.6 315.334,106.783 C320.741,110.673 327.598,112.998 335.064,112.999 C334.943,106.625 330.176,101.499 324.315,101.499" id="Fill-20" fill-opacity="0.9" fill="#B5B5B5" sketch:type="MSShapeGroup"></path>
                <path d="M406.053,289.079 C402.735,282.293 393.207,288.424 382.619,299.055 C378.831,302.859 367.47,306.758 362.75,303 C347.965,291.236 338.5,277.5 325.867,261.936 C325.816,261.873 318.235,250.861 314.008,238.197 L313.995,238.166 C305.943,207.945 291.674,190.434 276.372,180.688 C272.421,176.451 268.167,166.985 268.167,166.985 C268.167,166.985 269.249,173.93 265.75,172.755 C262.252,171.583 259.003,161.315 259.003,161.315 C259.003,161.315 261.751,170.994 256.48,169.235 C251.59,167.601 249.478,156.455 249.202,154.859 C249.469,156.47 251.232,167.779 247.75,167.923 C243.999,168.075 239.835,153.295 239.835,153.295 C239.835,153.295 240.501,165.716 237.854,165.716 C235.207,165.716 233.502,150.165 233.502,150.165 C233.502,150.165 231.999,166.594 229.5,166.594 C227.001,166.594 227.334,156.23 227.334,156.23 C227.334,156.23 223.749,167.475 219.505,169.235 C215.262,170.994 218.333,158.576 218.333,158.576 C218.333,158.576 212.36,173.317 208.379,175.226 C204.398,177.135 208.501,163.662 208.501,163.662 C208.501,163.662 203.053,175.258 197.3,182.068 C181.205,193.153 166.609,213.212 159.531,248.107 L159.511,248.174 C159.181,249.885 156.098,253.545 156.034,253.592 C143.39,267.037 127.658,280.582 115.75,295.251 C95.249,320.5 85.943,344.086 91.001,349.7 C98.25,357.75 108.25,351.75 122.124,332.524 C122.079,332.7 136.593,310.089 155.609,292.943 C153.773,311.514 147.771,330.99 152.196,352.467 C157.608,379.605 167.702,400.099 182.056,413.758 C194.001,420.645 212.288,427.347 237.999,426 C263.359,424.672 280.108,420.475 293.377,414.024 L293.378,414.026 C307.879,400.365 318.064,379.779 323.51,352.467 C327.534,332.937 322.934,315.059 320.687,298.012 C332.158,313.785 354.957,327.012 354.918,326.826 C377.295,340.481 414.196,305.709 406.053,289.079 M307.745,358.459 C301.827,381.076 287.162,417.581 237.999,417.678 C189.001,417.581 174.027,381.076 168.109,358.459 C162.167,335.821 183.297,304.897 187.954,285.301 C192.611,265.712 176.05,245.243 177.218,229.132 C178.385,213.023 201.186,194.304 211.355,189.517 C221.494,184.746 224.002,195.9 237.999,196.008 C251.394,195.9 254.378,184.746 264.518,189.517 C274.685,194.304 297.359,213.023 298.526,229.132 C299.696,245.243 283.168,265.712 287.828,285.301 C292.484,304.897 313.688,335.821 307.745,358.459" id="Fill-21" fill="#1D1F28" sketch:type="MSShapeGroup"></path>
                <path d="M169.066,335.697 C167.019,343.69 166.274,351.469 168.109,358.459 C174.027,381.076 189.001,417.581 237.999,417.678 C287.162,417.581 301.827,381.076 307.745,358.459 C309.371,352.264 308.964,345.448 307.42,338.413 C302.055,343.858 292.426,355.555 279.904,367.252 C262.778,383.25 240.237,399.246 215.788,399.246 C207.431,399.246 198.85,397.377 190.186,392.999 C176.001,385.832 170.414,362.805 169.066,335.697" id="Fill-22" fill="#E3E1CE" sketch:type="MSShapeGroup"></path>
                <path d="M174.531,224.096 C168.167,245.038 162.765,306.399 159.683,324 C156.184,344 166.684,385.501 178.184,403.001 C186.793,416.104 206.332,422.759 231.767,422.759 C240.304,422.759 249.509,422.008 259.183,420.501 C297.683,414.501 311.684,366.5 312.184,336.5 C312.198,335.65 311.978,335.256 311.54,335.256 C310.789,335.257 309.392,336.412 307.42,338.413 C308.964,345.448 309.371,352.264 307.745,358.459 C301.827,381.076 287.162,417.581 237.999,417.678 C189.001,417.581 174.027,381.076 168.109,358.459 C166.274,351.469 167.019,343.69 169.066,335.697 C167.009,294.36 174.808,243.543 176.993,225.045 C176.162,224.756 175.339,224.439 174.531,224.096" id="Fill-23" fill="#1D1F28" sketch:type="MSShapeGroup"></path>
                <path d="M233.809,262.465 C234.983,263.172 236.233,263.577 237.66,263.577 C237.772,263.577 237.884,263.574 237.998,263.57 C236.543,263.57 235.146,263.172 233.809,262.465" id="Fill-24" fill="#E3E1CE" sketch:type="MSShapeGroup"></path>
                <path d="M253.965,235.657 C251.093,235.657 245.745,241.205 238.169,258.999 C237.832,259.792 237.208,260.113 236.416,260.113 C234.744,260.113 232.323,258.684 230.252,257.254 C228.182,255.825 226.464,254.397 226.201,254.397 C226.033,254.397 226.455,254.975 227.752,256.5 C229.917,259.054 231.749,261.225 233.809,262.465 C235.146,263.172 236.543,263.57 237.998,263.57 C245.121,263.26 250.839,254.047 255.098,245.26 C257.215,240.92 256.763,235.657 253.965,235.657" id="Fill-25" fill="#E8772C" sketch:type="MSShapeGroup"></path>
                <path d="M393.506,361.62 C393.031,361.62 392.694,361.537 392.518,361.361 C389.811,358.654 396.959,326.295 400.42,324.564 C400.658,324.445 401.002,324.389 401.435,324.389 C407.948,324.388 434.886,337.149 434.886,340.818 C434.886,344.896 400.253,361.62 393.506,361.62 M401.367,309.318 C398.701,313.039 395.269,316.635 391.386,319.752 C391.527,320.043 391.659,320.316 391.781,320.566 C396.564,330.427 380.039,359.189 384.131,367.623 C384.879,369.166 385.784,370.178 387.833,370.178 C390.064,370.178 393.647,368.982 399.86,365.968 C407.337,362.34 412.501,359.834 415.604,358.33 C418.041,357.147 419.203,356.582 419.203,356.582 C422.228,355.116 427.243,352.682 434.611,349.108 C446.531,343.324 447.214,341.004 445.647,337.779 C441.558,329.345 408.737,324.522 403.956,314.661 C403.324,313.359 402.423,311.5 401.367,309.318 M388.881,283.489 L376.628,289.432 C377.681,291.595 379.578,295.486 381.707,299.86 C382.045,299.594 382.352,299.325 382.619,299.055 C386.003,295.658 389.277,292.721 392.276,290.518 C390.855,287.576 389.645,285.07 388.881,283.489" id="Fill-26" fill="#9DEDFA" sketch:type="MSShapeGroup"></path>
                <path d="M388.01,281.688 L383.85,283.705 L380.251,285.451 L375.752,287.635 C375.752,287.635 376.073,288.293 376.628,289.432 L388.881,283.489 C388.329,282.35 388.01,281.688 388.01,281.688" id="Fill-27" fill="#85E8F9" sketch:type="MSShapeGroup"></path>
                <path d="M392.276,290.518 C389.277,292.721 386.003,295.658 382.619,299.055 C382.352,299.325 382.045,299.594 381.707,299.86 C385.19,307.012 389.3,315.455 391.386,319.752 C395.269,316.635 398.701,313.039 401.367,309.318 C398.715,303.838 395.083,296.326 392.276,290.518" id="Fill-28" fill="#70C0CF" sketch:type="MSShapeGroup"></path>
                <path d="M116.4,339.967 C111.66,345.682 107.43,349.567 103.654,351.574 L119.786,376.667 C121.409,379.194 124.148,380.572 126.944,380.572 C128.518,380.572 130.109,380.136 131.531,379.222 C135.481,376.682 136.626,371.423 134.085,367.475 L116.4,339.967 M92.726,295.144 C91.8,295.144 90.864,295.401 90.029,295.938 L73.203,306.753 C70.881,308.247 70.208,311.34 71.701,313.663 C72.655,315.15 74.267,315.96 75.911,315.96 C76.838,315.96 77.774,315.703 78.61,315.166 L79.767,314.421 L92.201,333.762 C94.115,328.621 97.081,322.591 101.026,316.053 L94.067,305.228 L95.434,304.35 C97.759,302.855 98.431,299.764 96.935,297.441 C95.979,295.954 94.37,295.144 92.726,295.144" id="Fill-29" fill="#9DEDFA" sketch:type="MSShapeGroup"></path>
                <path d="M101.026,316.053 C97.081,322.591 94.115,328.621 92.201,333.762 L103.654,351.574 C107.43,349.567 111.66,345.682 116.4,339.967 L101.026,316.053" id="Fill-30" fill="#70C0CF" sketch:type="MSShapeGroup"></path>
                <path d="M279.332,226.785 C288.775,226.661 298.275,224.407 305.761,218.439 C311.043,214.227 307.173,205.978 301.027,210.877 C295.9,214.963 288.415,215.803 282.084,215.885 C276.668,215.955 272.51,226.873 279.332,226.785" id="Fill-31" fill="#AFB6BC" sketch:type="MSShapeGroup"></path>
                <path d="M197.042,216.885 C188.784,216.773 180.09,215.02 173.626,209.595 C169.212,205.892 161.935,215.43 166.403,219.178 C174.066,225.609 184.523,227.65 194.29,227.786 C199.713,227.859 203.884,216.98 197.042,216.885" id="Fill-32" fill="#AFB6BC" sketch:type="MSShapeGroup"></path>
                <path d="M208.585,240.358 C205.679,240.358 202.194,239.659 199.122,237.405 C196.216,235.27 192.751,230.957 192.751,222.548 C192.751,217.686 194.387,213.59 197.618,210.367 C206.092,201.916 223.313,201.967 235.882,201.995 L237.87,202 L239.862,201.995 C252.441,201.965 269.65,201.918 278.126,210.367 C281.355,213.59 282.993,217.686 282.993,222.548 C282.993,230.814 279.626,235.023 276.801,237.096 C271.795,240.773 265.448,240.182 262.483,239.256 C259.943,238.457 257.59,236.92 255.094,235.291 C250.625,232.373 246,229.295 237.999,229.227 C230.002,229.227 225.235,232.631 220.735,235.635 C218.213,237.315 215.834,238.903 213.261,239.709 C212.132,240.06 210.479,240.358 208.585,240.358 M233.573,209.992 C223.138,209.992 208.961,210.352 203.266,216.033 C201.548,217.746 200.75,219.815 200.75,222.548 C200.75,226.612 201.795,229.441 203.86,230.957 C206.249,232.711 209.612,232.468 210.867,232.072 C212.346,231.611 214.3,230.39 216.416,228.98 C221.281,225.735 228,221.299 237.999,221.227 C248.002,221.227 254.682,225.389 259.589,228.591 C261.695,229.967 263.453,231.157 264.938,231.62 C266.529,232.12 269.855,232.297 272.098,230.649 C274.039,229.223 275.009,226.498 275.009,222.548 C275.009,219.815 274.199,217.744 272.483,216.033 C266.36,209.926 250.422,209.969 239.889,209.996 L237.752,210 L235.86,209.996 C235.123,209.994 234.357,209.992 233.573,209.992" id="Fill-33" fill="#8F5EDD" sketch:type="MSShapeGroup"></path>
                <path d="M233.573,209.992 C223.138,209.992 208.961,210.352 203.266,216.033 C201.548,217.746 200.75,219.815 200.75,222.548 C200.75,226.612 201.795,229.441 203.86,230.957 C205.324,232.031 207.153,232.356 208.638,232.356 C209.577,232.356 210.381,232.227 210.867,232.072 C212.346,231.611 214.3,230.39 216.416,228.98 C221.281,225.735 228,221.299 237.999,221.227 C248.002,221.227 254.682,225.389 259.589,228.591 C261.695,229.967 263.453,231.157 264.938,231.62 C265.576,231.82 266.492,231.969 267.504,231.969 C269.019,231.969 270.753,231.637 272.098,230.649 C274.039,229.223 275.009,226.498 275.009,222.548 C275.009,219.815 274.199,217.744 272.483,216.033 C266.787,210.352 252.598,209.992 242.168,209.992 C241.385,209.992 240.623,209.994 239.889,209.996 L237.752,210 L235.86,209.996 C235.123,209.994 234.357,209.992 233.573,209.992" id="Fill-34" fill="#9CECF4" sketch:type="MSShapeGroup"></path>
                <path d="M208.638,232.356 C207.153,232.356 205.324,232.031 203.86,230.957 C201.795,229.441 200.75,226.612 200.75,222.548 C200.75,219.815 201.548,217.746 203.266,216.033 C208.961,210.352 223.138,209.992 233.573,209.992 C234.357,209.992 235.123,209.994 235.86,209.996 L237.752,210 L239.889,209.996 C240.623,209.994 241.385,209.992 242.168,209.992 C252.598,209.992 266.787,210.352 272.483,216.033 C274.199,217.744 275.009,219.815 275.009,222.548 C275.009,226.498 274.039,229.223 272.098,230.649 C270.753,231.637 269.019,231.969 267.504,231.969 C266.492,231.969 265.576,231.82 264.938,231.62 C263.453,231.157 261.695,229.967 259.589,228.591 C254.682,225.389 248.002,221.227 237.999,221.227 C228,221.299 221.281,225.735 216.416,228.98 C214.3,230.39 212.346,231.611 210.867,232.072 C210.381,232.227 209.577,232.356 208.638,232.356 M234.249,205.75 C228,205.75 205.5,207.5 199,214.751 C192.558,221.936 201.34,235.502 208.31,235.502 C208.373,235.502 208.437,235.502 208.499,235.499 C215.5,235.25 230.501,225.25 237.25,225.25 C243.999,225.25 257.75,234.25 264.249,235.75 C265.565,236.054 266.879,236.235 268.156,236.235 C273.185,236.235 277.604,233.424 278.999,224.25 C280.749,212.75 260.499,205.75 234.249,205.75" id="Fill-35" fill="#87CCF3" sketch:type="MSShapeGroup"></path>
            </g>
        </g>
    </g>
</svg>