<?xml version="1.0" encoding="UTF-8" standalone="no"?>
<svg width="262px" height="275px" viewBox="0 0 262 275" version="1.1" xmlns="http://www.w3.org/2000/svg" xmlns:xlink="http://www.w3.org/1999/xlink" xmlns:sketch="http://www.bohemiancoding.com/sketch/ns">
    <!-- Generator: Sketch 3.3.1 (12005) - http://www.bohemiancoding.com/sketch -->
    <title>Imported Layers</title>
    <desc>Created with Sketch.</desc>
    <defs></defs>
    <g id="App-Prototype" stroke="none" stroke-width="1" fill="none" fill-rule="evenodd" sketch:type="MSPage">
        <g id="End-of-Matches-Copy-2" sketch:type="MSArtboardGroup" transform="translate(-200.000000, -379.000000)">
            <g id="Imported-Layers" sketch:type="MSLayerGroup" transform="translate(199.500000, 379.000000)">
                <path d="M108.501,6.999 C88.112,9.146 57,21.999 46.999,42.5 C36.999,63 29.499,136.5 30,166.5 C30.501,196.5 44.499,244.5 83,250.5 C121.5,256.5 152.5,250.5 164.001,233 C175.5,215.5 185.999,174 182.5,154 C179.001,134 172.5,57.5 165,48 C157.5,38.5 145.5,26.5 140.999,22.5 C136.5,18.5 118,6 108.501,6.999" id="Fill-1" fill="#F9F8E1" sketch:type="MSShapeGroup"></path>
                <path d="M104.996,60.146 C89.311,60.146 83.602,67.465 87.88,76.261 C92.164,85.046 97.876,94.571 104.996,94.571 C112.127,94.571 117.84,85.046 122.1,76.261 C126.39,67.465 120.678,60.146 104.996,60.146" id="Fill-2" fill="#FF812C" sketch:type="MSShapeGroup"></path>
                <path d="M248.001,17.001 C247.399,17.001 246.791,17.181 246.263,17.558 C244.913,18.517 244.598,20.39 245.557,21.74 C245.7,21.941 259.756,42.152 255.043,69.49 C254.762,71.124 255.858,72.675 257.492,72.956 C257.663,72.986 257.833,73 258.005,73 C259.436,73 260.706,71.968 260.955,70.511 C266.109,40.619 251.084,19.155 250.442,18.256 C249.856,17.437 248.936,17.001 248.001,17.001" id="Fill-3" fill="#E8E8E9" sketch:type="MSShapeGroup"></path>
                <path d="M44.354,48.875 C44.307,48.875 44.25,48.916 44.184,49 C36.684,58.5 30.184,135 26.684,155 C23.184,175 33.683,216.5 45.184,234 C53.793,247.101 73.332,253.758 98.768,253.758 C105.166,253.758 111.938,253.336 119.002,252.49 C116.223,252.668 113.36,252.758 110.416,252.758 C101.879,252.758 92.675,252.008 83,250.5 C44.499,244.5 30.501,196.5 30,166.5 C29.543,139.101 35.758,75.423 44.457,48.966 C44.43,48.906 44.395,48.875 44.354,48.875" id="Fill-4" fill="#E8E8E9" sketch:type="MSShapeGroup"></path>
                <path d="M44.457,48.966 C35.758,75.423 29.543,139.101 30,166.5 C30.501,196.5 44.499,244.5 83,250.5 C92.675,252.008 101.879,252.758 110.416,252.758 C113.36,252.758 116.223,252.668 119.002,252.49 C121.364,252.207 123.76,251.877 126.185,251.5 C164.684,245.5 178.684,197.499 179.184,167.5 C179.198,166.649 178.979,166.256 178.539,166.256 C175.743,166.257 164.03,182.255 146.903,198.252 C129.775,214.25 107.238,230.246 82.786,230.246 C74.43,230.246 65.846,228.377 57.184,224 C16.61,203.496 46.394,53.197 44.457,48.966" id="Fill-5" fill="#E3E1CE" sketch:type="MSShapeGroup"></path>
                <path d="M100.815,93.469 C101.989,94.175 103.236,94.578 104.662,94.578 C104.772,94.578 104.883,94.576 104.996,94.571 C103.543,94.571 102.15,94.175 100.815,93.469" id="Fill-6" fill="#E3E1CE" sketch:type="MSShapeGroup"></path>
                <path d="M120.966,66.657 C118.092,66.657 112.746,72.206 105.17,90 C104.83,90.793 104.208,91.113 103.417,91.113 C101.744,91.113 99.323,89.683 97.253,88.254 C95.182,86.824 93.463,85.394 93.202,85.394 C93.034,85.394 93.456,85.973 94.75,87.5 C96.921,90.057 98.753,92.228 100.815,93.469 C102.15,94.175 103.543,94.571 104.996,94.571 C112.119,94.259 117.84,85.046 122.1,76.261 C124.217,71.921 123.764,66.658 120.966,66.657" id="Fill-7" fill="#E8772C" sketch:type="MSShapeGroup"></path>
                <path d="M139.849,57.56 C140.682,56.207 141.173,54.608 141.173,52.889 C141.173,48.034 137.333,44.113 132.622,44.113 C127.909,44.113 124.078,48.034 124.078,52.889 C124.078,54.504 124.51,56.012 125.252,57.31 C127.256,57.109 129.348,57 131.502,57 C134.42,57 137.223,57.199 139.849,57.56" id="Fill-8" fill="#3A3430" sketch:type="MSShapeGroup"></path>
                <path d="M84.694,57.414 C85.473,56.09 85.93,54.547 85.93,52.889 C85.93,48.034 82.09,44.113 77.388,44.113 C72.65,44.113 68.827,48.034 68.827,52.889 C68.827,54.559 69.289,56.112 70.077,57.441 C72.433,57.156 74.922,57 77.502,57 C79.995,57 82.407,57.146 84.694,57.414" id="Fill-9" fill="#3A3430" sketch:type="MSShapeGroup"></path>
                <path d="M187.451,239.938 C185.466,239.529 183.468,239.325 181.518,239.325 C174.961,239.325 169.556,241.515 163.838,243.841 C162.597,244.34 160.27,245.125 160.377,245.024 C147.108,251.474 130.359,255.673 105,257 C79.288,258.345 61,251.645 49.057,244.758 C49.256,244.946 47.111,244.34 45.869,243.841 C40.151,241.515 34.747,239.325 28.19,239.325 C26.239,239.325 24.241,239.529 22.255,239.938 C13.01,241.806 12.878,248.424 13.027,250.4 C13.965,261.092 32.841,274.45 53.532,274.802 C53.928,274.805 54.358,274.811 54.764,274.811 C71.221,274.811 86.7,269.33 96.078,265.082 C98.941,265.328 102,265.457 105,265.463 C107.988,265.457 110.913,265.328 113.776,265.082 C123.152,269.33 138.487,274.811 154.943,274.811 C155.35,274.811 155.78,274.805 156.176,274.802 C176.867,274.45 195.743,261.092 196.68,250.4 C196.828,248.424 196.698,241.806 187.451,239.938" id="Fill-10" fill="#FF812C" sketch:type="MSShapeGroup"></path>
                <path d="M234.067,33.688 C225.986,17.689 212.305,36.904 210.465,51.795 C209.003,63.668 216.061,116.38 210.373,110.681 C197.838,96.546 206.633,107.172 192.997,92.48 C192.952,92.431 187.495,85.536 182.736,76.348 C169.061,14.072 130.651,0.744 105,0.631 C79.787,0.74 43.212,13.224 28.512,70.462 L28.5,70.5 C27.585,73.667 17.178,96.133 15.5,101.75 C10.918,117.084 3.053,149.161 2.864,154.524 C-0.486,174.008 -0.271,189.332 5.471,194.24 C10.926,198.894 15.542,194.426 19.6,185.363 C25.1,211.552 35.04,231.421 49.057,244.758 C61,251.645 79.288,258.345 105,257 C130.359,255.673 147.108,251.474 160.377,245.024 L160.378,245.025 C174.88,231.365 185.063,210.779 190.51,183.467 C194.894,162.193 189.043,142.879 187.148,124.467 C187.746,125.52 188.374,126.489 189.036,127.347 C201.149,143.024 215.567,144.178 215.513,143.989 C238.748,156.129 242.412,50.217 234.067,33.688 L234.067,33.688 Z M174.744,189.458 C168.828,212.076 154.161,248.581 105,248.677 C56,248.581 41.027,212.076 35.109,189.458 C29.167,166.821 50.297,135.895 54.954,116.301 C59.612,96.711 43.049,76.243 44.217,60.132 C45.387,44.022 68.186,25.303 78.354,20.516 C88.494,15.746 91,26.9 105,27.008 C118.395,26.9 121.377,15.746 131.518,20.516 C141.686,25.303 164.358,44.022 165.527,60.132 C166.696,76.243 150.169,96.711 154.826,116.301 C159.483,135.895 180.689,166.821 174.744,189.458 L174.744,189.458 Z" id="Fill-11" fill="#1D1F28" sketch:type="MSShapeGroup"></path>
            </g>
        </g>
    </g>
</svg>