<?xml version="1.0" encoding="UTF-8" standalone="no"?>
<svg width="1505px" height="1819px" viewBox="0 0 1505 1819" version="1.1" xmlns="http://www.w3.org/2000/svg" xmlns:xlink="http://www.w3.org/1999/xlink" xmlns:sketch="http://www.bohemiancoding.com/sketch/ns">
    <!-- Generator: Sketch 3.3.3 (12072) - http://www.bohemiancoding.com/sketch -->
    <title>penguin-single-01-11@1x</title>
    <desc>Created with Sketch.</desc>
    <defs>
        <path id="path-1" d="M98.136,2.916 L97.278,3.564 C59.442,51.534 26.652,437.934 8.988,538.95 C-8.658,639.984 44.286,849.612 102.318,937.992 C145.746,1004.16 244.326,1037.766 372.636,1037.766 C404.91,1037.766 439.116,1035.648 474.744,1031.376 C460.728,1032.27 446.274,1032.72 431.394,1032.72 C388.326,1032.72 341.898,1028.952 293.1,1021.32 C98.874,991.032 28.26,748.56 25.728,597.054 C23.442,458.664 54.774,137.028 98.652,3.384 L98.136,2.916 L98.136,2.916 Z"></path>
    </defs>
    <g id="Page-1" stroke="none" stroke-width="1" fill="none" fill-rule="evenodd" sketch:type="MSPage">
        <g id="penguin-single-01-11" sketch:type="MSLayerGroup" transform="translate(0.000000, -5.000000)">
            <path d="M936.072,1052.736 C936.072,1052.736 1181.046,883.866 1256.508,699.012 C1331.964,514.164 1189.176,540.714 1077.168,652.71 C965.16,764.682 661.818,938.124 661.818,938.124 L936.072,1052.736" id="Fill-1" fill="#181A1E" sketch:type="MSShapeGroup"></path>
            <path d="M261.294,775.764 C212.988,757.776 175.644,796.53 165.06,829.962 L164.508,831.15 C134.652,925.134 101.97,1031.628 78.954,1129.962 C66.708,1171.2 57.846,1208.328 56.826,1237.002 C38.958,1341.108 40.104,1423.038 70.764,1449.258 C117.834,1489.482 153.192,1402.338 183.204,1289.916 C183.414,1290.942 247.782,1099.356 264.906,994.872 C282.036,890.382 309.612,793.752 261.294,775.764" id="Fill-2" fill="#181A1E" sketch:type="MSShapeGroup"></path>
            <path d="M904.758,592.506 C866.934,544.512 806.394,483.924 783.684,463.722 C760.986,443.526 667.668,380.37 619.74,385.428 C516.882,396.258 359.934,461.172 309.486,564.732 C259.032,668.28 221.208,1039.512 223.728,1191.054 C226.26,1342.56 296.874,1585.032 491.1,1615.32 C685.29,1645.62 841.704,1615.32 899.724,1526.934 C957.72,1438.542 1010.7,1228.92 993.036,1127.898 C975.402,1026.906 942.612,640.494 904.758,592.506" id="Fill-3" fill="#FBF8DD" sketch:type="MSShapeGroup"></path>
            <path d="M602.04,653.862 C522.918,653.862 494.136,690.828 515.724,735.258 C537.33,779.64 566.136,827.742 602.04,827.742 C638.028,827.742 666.834,779.64 688.338,735.258 C709.998,690.828 681.168,653.862 602.04,653.862" id="Fill-4" fill="#E77837" sketch:type="MSShapeGroup"></path>
            <g id="Group-7" transform="translate(198.000000, 594.000000)">
                <mask id="mask-2" sketch:name="Clip 6" fill="white">
                    <use xlink:href="#path-1"></use>
                </mask>
                <g id="Clip-6"></g>
                <path d="M-8.658,2.916 L474.744,2.916 L474.744,1037.766 L-8.658,1037.766 L-8.658,2.916 Z" id="Fill-5" fill="#E8E8E4" sketch:type="MSShapeGroup" mask="url(#mask-2)"></path>
            </g>
            <path d="M973.512,1189.812 C959.418,1189.836 900.324,1270.614 813.918,1351.416 C727.524,1432.224 613.824,1513.032 490.488,1513.032 C448.32,1513.032 405.024,1503.588 361.32,1481.472 C156.66,1377.936 306.846,618.966 297.108,597.384 C253.236,731.028 221.898,1052.664 224.184,1191.054 C226.716,1342.56 297.324,1585.032 491.556,1615.32 C540.354,1622.952 586.782,1626.72 629.85,1626.72 C644.736,1626.72 659.184,1626.27 673.2,1625.376 C685.104,1623.942 697.188,1622.286 709.41,1620.372 C903.624,1590.078 974.244,1347.636 976.77,1196.106 C976.842,1191.804 975.744,1189.812 973.512,1189.812" id="Fill-8" fill="#E1DFC8" sketch:type="MSShapeGroup"></path>
            <path d="M683.088,686.754 C668.58,686.73 641.604,714.78 603.402,804.636 C601.68,808.668 598.536,810.264 594.552,810.264 C586.104,810.264 573.906,803.052 563.442,795.828 C552.996,788.604 544.338,781.38 542.988,781.38 C542.172,781.38 544.302,784.32 550.824,792.03 C561.786,804.954 571.032,815.934 581.442,822.198 C588.192,825.732 595.2,827.742 602.502,827.742 C638.454,826.164 667.29,779.64 688.794,735.258 C699.486,713.34 697.2,686.754 683.088,686.754" id="Fill-9" fill="#DA6F32" sketch:type="MSShapeGroup"></path>
            <path d="M599.628,1606.128 C352.434,1605.624 276.906,1421.25 247.056,1307.01 C217.062,1192.656 323.676,1036.458 347.172,937.506 C370.668,838.548 287.094,735.156 293.004,653.796 C298.914,572.412 413.922,477.882 465.204,453.684 C516.348,429.612 529.014,485.94 599.628,486.474 C667.206,485.94 682.248,429.612 733.41,453.684 C784.71,477.882 899.07,572.412 904.968,653.796 C910.866,735.156 827.502,838.548 850.986,937.506 C874.482,1036.458 981.456,1192.656 951.468,1307.01 C921.636,1421.25 847.644,1605.624 599.628,1606.128 L599.628,1606.128 Z M610.5,1680.402 C769.926,1680.402 877.398,1589.232 877.398,1589.232 C951.414,1520.25 1003.338,1415.73 1030.998,1276.746 C1056.18,1154.436 1014.456,1044.954 1011.402,940.398 C1010.028,893.07 1011.87,846.48 1005.108,810.342 C952.14,431.502 738.696,353.862 599.628,353.256 C458.394,353.862 246.402,431.502 193.434,810.342 C186.648,846.48 187.746,893.07 186.378,940.398 C183.324,1044.954 141.612,1154.436 166.77,1276.746 C194.454,1415.73 246.366,1520.25 320.394,1589.232 C320.394,1589.232 451.08,1680.402 610.5,1680.402 L610.5,1680.402 Z" id="Fill-10" fill="#181A1E" sketch:type="MSShapeGroup"></path>
            <path d="M741.87,572.88 C718.104,572.88 698.778,592.68 698.778,617.196 C698.778,641.688 718.104,661.542 741.87,661.542 C765.648,661.542 785.016,641.688 785.016,617.196 C785.016,592.68 765.648,572.88 741.87,572.88" id="Fill-11" fill="#322F2A" sketch:type="MSShapeGroup"></path>
            <path d="M463.242,572.88 C439.338,572.88 420.06,592.68 420.06,617.196 C420.06,641.688 439.338,661.542 463.242,661.542 C486.966,661.542 506.346,641.688 506.346,617.196 C506.346,592.68 486.966,572.88 463.242,572.88" id="Fill-12" fill="#322F2A" sketch:type="MSShapeGroup"></path>
            <path d="M1018.494,1553.754 C1008.474,1551.486 998.37,1548.402 988.536,1548.402 L988.524,1548.402 C955.458,1548.402 928.428,1562.532 899.586,1575.456 C893.322,1578.24 886.782,1581.858 880.782,1584.612 L880.782,1584.402 L881.91,1584.402 L881.886,1584.402 C814.974,1614.402 730.47,1643.448 602.532,1650.822 C472.812,1658.286 380.58,1620.93 320.328,1582.626 C321.324,1583.676 322.29,1584.744 323.31,1585.788 C316.854,1583.076 310.488,1580.226 304.236,1577.46 C275.406,1564.536 248.148,1552.332 215.064,1552.332 C205.212,1552.332 195.144,1553.442 185.1,1555.722 C138.486,1566.114 137.802,1602.93 138.57,1613.904 C143.286,1673.376 238.524,1747.68 342.894,1749.63 C344.874,1749.654 347.07,1749.732 349.104,1749.732 C432.048,1749.732 510.048,1719.294 557.37,1695.66 L557.544,1695.582 C564.624,1696.254 571.962,1696.752 579.366,1697.118 L580.176,1697.496 C587.478,1697.844 594.828,1698.402 602.124,1698.402 L603.216,1698.402 C616.458,1698.402 629.406,1697.34 642.168,1696.278 C643.41,1696.182 644.664,1695.954 645.894,1695.834 L646.806,1694.046 C694.08,1717.626 771.366,1746.402 854.358,1746.402 L858.036,1746.402 L860.7,1747.998 C965.07,1746.054 1060.314,1671.588 1065.036,1612.104 C1065.774,1601.124 1065.12,1564.17 1018.494,1553.754" id="Fill-13" fill="#E77837" sketch:type="MSShapeGroup"></path>
            <path d="M1203.66,826.098 L1262.058,845.742 L1309.878,814.068 L1244.85,238.914 L1138.62,250.926 L1203.66,826.098" id="Fill-14" fill="#BFAC90" sketch:type="MSShapeGroup"></path>
            <path d="M1504.908,418.512 L925.224,484.05 L878.55,71.316 L1458.234,5.742 L1504.908,418.512" id="Fill-15" fill="#E57575" sketch:type="MSShapeGroup"></path>
            <path d="M1205.484,376.284 L1059.876,282.768 C1024.398,259.986 1014.102,212.742 1036.884,177.252 C1059.678,141.774 1106.916,131.472 1142.4,154.266 L1183.35,180.552 L1217.388,145.776 C1246.884,115.65 1295.238,115.128 1325.37,144.618 C1355.514,174.126 1356.03,222.468 1326.534,252.606 L1205.484,376.284" id="Fill-16" fill="#FFFFFF" sketch:type="MSShapeGroup"></path>
            <path d="M1031.352,1232.046 L114.636,1232.046 L9.006,924.012 L1137.006,924.012 L1031.352,1232.046" id="Fill-17" fill="#9B7550" sketch:type="MSShapeGroup"></path>
            <path d="M381.96,924 L764.04,924 L764.04,1764 L381.96,1764 L381.96,924 Z" id="Fill-18" fill="#9B7550" sketch:type="MSShapeGroup"></path>
            <path d="M1065.18,1824 L80.832,1824 L80.832,1653.888 L1065.18,1653.894 L1065.18,1824" id="Fill-19" fill="#9B7550" sketch:type="MSShapeGroup"></path>
            <path d="M0,911.688 L1140,911.688 L1140,972 L0,972 L0,911.688 Z" id="Fill-20" fill="#BB9568" sketch:type="MSShapeGroup"></path>
        </g>
    </g>
</svg>