<?xml version="1.0" encoding="UTF-8" standalone="no"?>
<svg width="190px" height="231px" viewBox="0 0 190 231" version="1.1" xmlns="http://www.w3.org/2000/svg" xmlns:xlink="http://www.w3.org/1999/xlink" xmlns:sketch="http://www.bohemiancoding.com/sketch/ns">
    <!-- Generator: Sketch 3.3.2 (12043) - http://www.bohemiancoding.com/sketch -->
    <title>penguinaut</title>
    <desc>Created with Sketch.</desc>
    <defs></defs>
    <g id="Page-2" stroke="none" stroke-width="1" fill="none" fill-rule="evenodd" sketch:type="MSPage">
        <g id="Hey-Landing-05" sketch:type="MSArtboardGroup" transform="translate(-443.000000, -6057.000000)">
            <g id="Imported-Layers-Copy-2-+-Rectangle-20-+-I’m-here-if-you-need-Copy" sketch:type="MSLayerGroup" transform="translate(425.000000, 6035.000000)">
                <g id="penguinaut" transform="translate(111.749847, 136.056238) rotate(-19.000000) translate(-111.749847, -136.056238) translate(34.530499, 18.856108)" sketch:type="MSShapeGroup">
                    <path d="M27.6968569,75.5682179 C24.8001018,75.8571034 10.7979451,76.9379579 9.03764184,73.0697106 C7.27733853,69.2000542 1.99642859,40.9583264 6.92527786,38.2512579 C11.8541271,35.5441895 74.1688644,31.674533 76.633289,32.0620623 C79.0977136,32.4495917 80.1538956,70.361233 80.1538956,70.361233 C80.1553039,70.361233 43.1875261,74.020919 27.6968569,75.5682179" id="Fill-1" fill="#BDCCD1"></path>
                    <path d="M36.2660135,41.4543639 C33.3692583,41.7432494 19.4924353,43.9641447 16.3154398,44.5066858 C10.7979451,45.4466205 4.34537733,43.6851236 5.52830115,40.3664634 C5.89444424,39.3419768 6.30987583,38.5894653 6.92527786,38.2512579 C11.8541271,35.5441895 74.1688644,31.674533 76.633289,32.0620623 C79.0977136,32.4495917 77.9260558,39.3405676 77.9260558,39.3405676 C77.927464,39.3405676 51.7580909,39.9056558 36.2660135,41.4543639" id="Fill-2" fill="#E2F6F8"></path>
                    <path d="M30.9175079,114.329605 C27.929217,114.487435 13.501771,114.928514 11.8639848,110.982761 C10.2276069,107.038417 6.05357566,78.5824914 11.2345004,76.1023037 C16.4168333,73.6221161 80.5890426,72.5962203 83.1027557,73.0964854 C85.6164689,73.5939321 85.025007,111.518256 85.025007,111.518256 C85.0264152,111.518256 46.895429,113.488314 30.9175079,114.329605" id="Fill-3" fill="#BDCCD1"></path>
                    <path d="M32.6257062,75.0397688 C29.7289511,75.3032887 22.0638863,77.1521559 20.303583,73.6319805 C18.5432797,70.1061682 13.2623698,44.3883132 18.1912191,41.9236267 C23.1200683,39.4561218 85.4348056,35.9345372 87.8992302,36.2868366 C90.3636548,36.6391359 91.4198368,71.1658848 91.4198368,71.1658848 C91.4198368,71.1658848 48.1163754,73.6319805 32.6257062,75.0397688" id="Fill-4" fill="#ABB1C6"></path>
                    <path d="M36.0913914,110.798156 C33.1861868,110.943304 25.4521182,112.476511 23.8382721,108.885875 C22.2216095,105.293831 17.9954733,79.3815064 23.0214913,77.1197444 C28.0461011,74.8565731 90.4551906,73.8842268 92.9027163,74.3379884 C95.3502421,74.7903408 94.9953649,109.331182 94.9953649,109.331182 C94.9953649,109.331182 51.625716,110.023098 36.0913914,110.798156" id="Fill-5" fill="#ABB1C6"></path>
                    <path d="M145.599156,203.497989 L145.418901,203.42612 C145.317508,203.7756 144.993612,204.098307 144.358495,204.370282 C140.88436,205.861213 137.41445,203.378207 136.17238,205.115747 C134.933126,206.853288 140.390067,208.093382 136.66949,210.576388 C132.947504,213.059394 130.467589,209.086866 127.738415,210.328369 C125.010649,211.569872 128.729818,214.051469 124.017838,215.540991 C119.30445,217.030513 110.870484,213.057985 106.155688,210.576388 C102.095724,208.438635 93.2702677,198.767312 90.1003135,193.898535 C89.3708438,193.912627 88.7357263,193.914036 88.2273507,193.911218 C88.1752458,194.20574 86.9064191,201.329234 85.4460715,206.368524 C85.39115,206.555947 85.3362286,206.733506 85.2813071,206.913883 C85.2334269,207.068895 85.1883631,207.230953 85.1404829,207.380328 C85.0362729,207.715717 84.9292465,208.038423 84.8236283,208.34281 C83.0858568,213.307413 74.4040409,220.257575 71.6748666,220.257575 C68.9442841,220.257575 68.449991,216.038437 65.4715578,214.796934 C62.4959411,213.555431 53.8127169,217.031922 48.851478,215.5424 C43.8874227,214.052878 48.1065177,210.328369 43.6409802,208.094791 C39.176851,205.861213 32.7256914,211.321853 29.0079308,205.861213 C28.8262675,205.593465 28.7558554,205.270759 28.7319153,204.924096 L28.695301,204.929733 C28.695301,204.929733 28.4474503,213.928869 29.0051144,215.046362 C29.5641867,216.162447 30.1204425,217.775978 32.1060647,218.023997 C34.0916868,218.273425 39.3007764,215.976433 40.7892889,219.823542 C42.2763931,223.672061 42.0905051,229.506138 48.230443,230.312199 C54.3689727,231.119669 58.7739557,227.520579 62.0593858,228.514063 C65.3462242,229.506138 65.8447421,233.354657 69.8737243,234.160718 C73.905523,234.966779 85.7516602,223.239437 87.5485778,212.502761 C87.7569977,211.255621 87.9245786,210.052166 88.0611781,208.888169 C92.5830453,212.55631 104.067264,220.894532 110.00019,223.109791 C117.318827,225.840816 123.644653,227.824966 125.010649,226.088834 C126.373828,224.351294 127.738415,222.860363 130.714031,223.109791 C133.692465,223.357809 135.303494,223.729838 136.66949,222.613753 C138.035485,221.49626 138.653704,218.269197 138.653704,218.269197 C138.653704,218.269197 141.008285,219.5107 143.367092,218.393207 C145.72449,217.277122 145.599156,203.497989 145.599156,203.497989" id="Fill-6" fill="#ABB1C6"></path>
                    <path d="M136.17238,205.115747 L136.131541,205.19889 L136.131541,206.14728 C136.808906,207.419785 139.619758,208.607739 136.66949,210.576388 C136.486418,210.698988 136.30898,210.793404 136.131541,210.885002 L136.131541,222.97028 C136.316021,222.873046 136.494868,222.756082 136.66949,222.613753 C138.035485,221.49626 138.653704,218.269197 138.653704,218.269197 C138.653704,218.269197 138.771996,218.326974 138.948026,218.398843 L138.948026,204.580252 C137.714406,204.405512 136.723003,204.344916 136.17238,205.115747" id="Fill-7" fill="#B2BBCC"></path>
                    <path d="M129.090328,210.097261 L129.090328,223.178841 C129.578988,223.095699 130.105671,223.05906 130.714031,223.109791 C131.727966,223.194343 132.57432,223.288759 133.315056,223.338081 L133.315056,211.334536 C131.782888,211.073835 130.435199,210.183222 129.090328,210.097261" id="Fill-8" fill="#B2BBCC"></path>
                    <path d="M99.5172321,205.032605 L99.5172321,217.222163 C100.940965,218.166326 102.368923,219.073849 103.74196,219.89823 L103.74196,208.898034 C102.456234,207.863683 101.005745,206.523536 99.5172321,205.032605" id="Fill-9" fill="#B2BBCC"></path>
                    <path d="M91.0677762,195.292231 L91.0677762,211.231665 C92.3337863,212.185691 93.7687856,213.239771 95.2925041,214.320626 L95.2925041,200.51049 C93.6659839,198.655986 92.192962,196.83953 91.0677762,195.292231" id="Fill-10" fill="#B2BBCC"></path>
                    <path d="M107.966688,211.505049 L107.966688,222.220587 C108.694749,222.574296 109.380564,222.877273 110.00019,223.109791 C110.745151,223.387403 111.473212,223.653741 112.191416,223.913033 L112.191416,213.444105 C110.691637,212.818421 109.251005,212.146234 107.966688,211.505049" id="Fill-11" fill="#B2BBCC"></path>
                    <path d="M124.017838,215.540991 C123.840399,215.597359 123.646062,215.631179 123.457357,215.672046 L123.457357,226.714518 C124.175561,226.656741 124.714918,226.463681 125.010649,226.088834 C125.416223,225.571659 125.826021,225.085486 126.273842,224.651453 L126.273842,214.158568 C125.938681,214.661651 125.292297,215.139369 124.017838,215.540991" id="Fill-12" fill="#B2BBCC"></path>
                    <path d="M116.416144,214.968857 L116.416144,225.350415 C117.98211,225.840816 119.408659,226.226936 120.640872,226.467908 L120.640872,215.812966 C119.312899,215.703048 117.879308,215.40148 116.416144,214.968857" id="Fill-13" fill="#B2BBCC"></path>
                    <path d="M144.358495,204.370282 C143.481159,204.746538 142.605232,204.869138 141.764512,204.870547 L141.764512,218.824421 C142.279928,218.77369 142.822102,218.65109 143.367092,218.393207 C143.879692,218.149415 144.275408,217.305306 144.580997,216.132854 L144.580997,204.257546 L144.358495,204.370282" id="Fill-14" fill="#B2BBCC"></path>
                    <path d="M54.4534673,215.760826 L54.4534673,229.831663 C56.0053507,229.442724 57.4065521,228.953733 58.6781952,228.643709 L58.6781952,215.132323 C57.3037504,215.364841 55.8631182,215.607223 54.4534673,215.760826" id="Fill-15" fill="#B2BBCC"></path>
                    <path d="M75.577107,218.497487 L75.577107,231.50438 C76.9529601,230.389705 78.3992253,228.97628 79.801835,227.358521 L79.801835,215.088638 C78.414716,216.400601 76.9318365,217.592782 75.577107,218.497487" id="Fill-16" fill="#B2BBCC"></path>
                    <path d="M33.3298275,208.355492 L33.3298275,217.974675 C34.1536495,217.871803 35.1436441,217.68438 36.1463128,217.606874 L36.1463128,208.170888 C35.1872996,208.321672 34.238144,208.416088 33.3298275,208.355492" id="Fill-17" fill="#B2BBCC"></path>
                    <path d="M40.3710408,207.553659 L40.3710408,219.045665 C40.5273557,219.273955 40.673813,219.524792 40.7892889,219.823542 C41.6384592,222.017663 41.9440478,224.854377 43.1875261,227.040043 L43.1875261,207.918641 C42.3045579,207.583252 41.3568106,207.4987 40.3710408,207.553659" id="Fill-18" fill="#B2BBCC"></path>
                    <path d="M71.6748666,220.257575 C70.2384591,220.257575 69.4216784,219.090759 68.5358938,217.804162 L68.5358938,233.73514 C68.9372429,233.915517 69.3780229,234.062074 69.8737243,234.160718 C70.6102352,234.308684 71.6114957,234.028253 72.7606217,233.422298 L72.7606217,220.010965 C72.3437819,220.161749 71.9691894,220.257575 71.6748666,220.257575" id="Fill-19" fill="#B2BBCC"></path>
                    <path d="M65.4715578,214.796934 C64.5787319,214.423497 63.1634481,214.479865 61.4946805,214.696881 L61.4946805,228.392872 C61.6862015,228.421056 61.8763143,228.457695 62.0593858,228.514063 C63.7197039,229.015738 64.6688595,230.243149 65.7194085,231.440967 L65.7194085,214.920944 L65.4715578,214.796934" id="Fill-20" fill="#B2BBCC"></path>
                    <path d="M29.0079308,205.861213 C28.8262675,205.593465 28.7558554,205.270759 28.7319153,204.924096 L28.695301,204.929733 C28.695301,204.929733 28.4474503,213.928869 29.0051144,215.046362 C29.3712575,215.777736 29.74585,216.717671 30.5133422,217.35181 L30.5133422,207.426831 C29.9753935,207.049166 29.4712427,206.540446 29.0079308,205.861213" id="Fill-21" fill="#B2BBCC"></path>
                    <path d="M48.851478,215.5424 C46.0279515,214.695472 46.1744087,213.124217 46.0040114,211.516323 L46.0040114,229.683697 C46.6391288,229.97681 47.3671903,230.198054 48.230443,230.312199 C48.9190737,230.403797 49.582356,230.431981 50.2287393,230.423526 L50.2287393,215.812966 C49.7471203,215.75237 49.280992,215.670637 48.851478,215.5424" id="Fill-22" fill="#B2BBCC"></path>
                    <path d="M84.8236283,208.34281 C84.4180544,209.503988 83.6195808,210.775085 82.6183203,212.040544 L82.6183203,223.705881 C83.673094,222.171265 84.6349237,220.54646 85.4348056,218.873743 L85.4348056,206.403754 C85.2334269,207.097079 85.0292317,207.753765 84.8236283,208.34281" id="Fill-23" fill="#B2BBCC"></path>
                    <path d="M140.390067,199.405679 C138.652295,198.909641 128.232708,195.43456 125.257091,193.447592 C122.792667,191.804467 116.604848,189.146721 114.540365,188.277246 C114.06297,188.616863 113.657397,188.857835 113.36589,189.014256 C113.06171,189.179132 112.870189,189.297505 112.870189,189.297505 C112.870189,189.297505 107.635751,191.719916 100.749444,193.023423 C96.8739606,193.757615 92.9731285,194.111324 90.283385,194.173328 C93.5941635,199.119612 102.168953,208.476683 106.155688,210.576388 C110.870484,213.057985 119.30445,217.030513 124.017838,215.540991 C128.729818,214.051469 125.010649,211.569872 127.738415,210.328369 C130.467589,209.086866 132.947504,213.059394 136.66949,210.576388 C140.390067,208.093382 134.933126,206.853288 136.17238,205.115747 C137.41445,203.378207 140.88436,205.861213 144.358495,204.370282 C144.993612,204.098307 145.317508,203.7756 145.418901,203.42612 C145.870947,201.873184 141.809575,199.811528 140.390067,199.405679" id="Fill-24" fill="#E2F6F8"></path>
                    <path d="M88.1414479,194.145145 L87.9428857,194.069048 L87.6161734,194.391754 L87.5668849,194.441076 C87.2922776,194.71446 86.6106882,194.955433 85.5502815,195.165404 C85.4305808,195.187951 85.2939813,195.210498 85.1658312,195.234454 C81.7663335,195.834772 75.0307089,196.168752 65.426494,196.304035 C54.3520738,196.459047 41.3638519,193.563146 37.4545703,192.623211 C36.0773089,193.935174 28.4826563,201.346144 28.7319153,204.957917 C28.7558554,205.305989 28.8262675,205.610376 29.0079308,205.878123 C32.7256914,211.338764 39.176851,205.861213 43.6409802,208.094791 C48.1065177,210.328369 43.8874227,214.052878 48.851478,215.5424 C53.8127169,217.031922 62.4959411,213.555431 65.4715578,214.796934 C68.449991,216.038437 68.9442841,220.257575 71.6748666,220.257575 C74.4040409,220.257575 83.0858568,213.307413 84.8236283,208.34281 C84.9292465,208.038423 85.0362729,207.715717 85.1404829,207.380328 C85.1883631,207.230953 85.2334269,207.068895 85.2813071,206.913883 C85.3362286,206.733506 85.39115,206.834968 85.4460715,206.648954 C86.9064191,201.608255 88.1752458,194.46926 88.2273507,194.46926 L88.1414479,194.145145" id="Fill-25" fill="#E2F6F8"></path>
                    <path d="M120.676078,79.8747255 C121.08306,84.1953252 122.073055,92.0811946 124.326243,99.9684732 C126.527326,107.68383 125.792223,124.595609 125.031772,135.267462 C126.065422,139.227307 127.466624,142.905313 129.72122,145.954816 C133.140434,151.543694 138.34389,153.672991 142.924903,153.672991 C147.729827,153.672991 151.855978,151.335133 152.541793,148.188394 C153.407862,144.217276 150.435062,130.455053 144.713372,119.631006 C143.395257,116.51668 141.180091,112.72312 138.55231,108.574443 C133.046081,99.0834972 126.603371,88.9936428 120.676078,79.8747255 M116.978033,75.127139 C117.007606,75.3991142 117.038587,75.6753169 117.065344,75.9501104 C117.138572,76.5546561 117.214617,77.1789307 117.296296,77.8172971 C117.908881,77.5847795 118.436972,77.3733999 118.876344,77.1916134 C118.320088,76.4503755 117.673705,75.7387308 116.978033,75.127139" id="Fill-26" fill="#FF66FF"></path>
                    <path d="M119.672001,76.6969851 C123.395394,79.1179865 123.581282,83.2131145 125.813347,86.7516095 C128.04682,90.2886953 130.278885,89.3572158 131.395621,90.6607235 C132.512357,91.962822 131.395621,95.3153029 132.698245,96.9908388 C133.999462,98.6663747 135.861158,98.4803606 136.790599,100.341911 C137.720039,102.20346 139.581735,106.113984 139.394439,106.85804 C139.209959,107.602096 142.55876,113.188155 142.55876,113.188155 C142.55876,113.188155 145.907561,113.000732 146.093449,114.863691 C146.277929,116.725241 145.907561,120.262327 147.024298,122.3113 C148.139626,124.358864 150.557579,126.593851 150.744875,128.453992 C150.929355,130.315542 152.420684,137.763151 153.164236,139.998138 C153.907788,142.231717 155.953964,155.451399 148.69729,155.823427 C141.440616,156.195455 133.441797,157.125525 128.232708,151.168847 C123.02221,145.21076 118.743969,135.157545 118.743969,130.315542 C118.743969,125.474949 110.18467,79.4900146 110.18467,79.4900146 L119.672001,76.6969851" id="Fill-27" fill="#BDCCD1"></path>
                    <path d="M139.394439,106.85804 L142.55876,113.188155 C142.55876,113.188155 140.140808,110.954577 133.443206,115.671161 C126.744195,120.386336 118.743969,130.315542 118.743969,130.315542 L115.333205,122.373305 C115.333205,122.373305 127.738415,107.231477 133.443206,106.734031 C139.149405,106.237993 139.394439,106.85804 139.394439,106.85804" id="Fill-28" fill="#6E99CE"></path>
                    <path d="M77.05717,8.27198954 C66.1559637,9.80801485 49.5203933,18.9959828 44.1732959,33.6516372 C38.8247904,48.3072915 34.8155235,100.853449 35.0816814,122.302845 C35.3506557,143.750831 42.8354654,178.06761 63.4211565,182.354389 C84.0068475,186.646804 100.58468,182.354389 106.734476,169.844942 C112.881455,157.332677 118.498935,127.663432 116.628788,113.367123 C114.754418,99.067996 111.281691,44.3770396 107.2682,37.5861167 C103.258933,30.7923754 96.841571,22.2131808 94.4348843,19.3525098 C92.0296059,16.4946572 82.1367013,7.55752639 77.05717,8.27198954" id="Fill-29" fill="#F9F8E1"></path>
                    <path d="M109.998782,41.8813508 C109.998782,41.8813508 113.905247,37.6002087 113.533471,33.3176573 C113.161695,29.0365152 107.582238,23.2630329 102.185852,22.7049907 C96.7894661,22.1469485 103.302588,28.6644871 104.974172,33.1316433 C106.651389,37.6002087 109.998782,41.8813508 109.998782,41.8813508" id="Fill-30" fill="#895F00"></path>
                    <path d="M109.172144,172.375861 C115.321939,162.659444 119.57624,148.791531 121.816754,130.897541 C123.63902,115.526014 118.811565,90.6409947 117.065344,75.9501104 C112.277319,30.9332951 95.4882498,10.9142349 80.4806079,10.1701786 C46.512387,8.48477836 34.7296207,25.6938987 28.7614884,75.4512545 C26.5406897,92.0417371 26.4336633,124.092526 27.2701594,141.238232 C28.260154,161.5955 33.5959854,175.464822 41.8102648,183.284459 C49.4387152,190.544645 66.2827055,193.217893 72.4170105,192.965646 C81.4410294,192.593618 86.0952714,192.533023 92.5084084,189.985193 C97.8005843,187.886898 109.666437,172.013697 109.172144,172.375861 M89.2863492,178.036608 C65.7475733,181.355268 54.5816174,156.475885 51.6285325,140.688645 C48.6388334,124.760485 63.4422801,102.192187 65.7194085,88.3637315 C67.9824544,74.6268739 55.5406306,60.2065555 56.1194183,48.824467 C56.6982061,37.4635165 67.828956,25.1175369 72.6592283,22.1948612 C77.4092307,19.3229166 80.1046071,27.69355 86.8050257,28.2896405 C89.1708733,28.4446523 90.5354604,27.1270526 91.6564216,25.8080437 C93.2054885,23.9845421 94.2827941,22.1610405 96.8852266,24.2381976 C101.321191,27.7809202 107.6442,40.8399538 108.138494,51.3751146 C108.62997,61.8919558 108.379303,73.0020692 110.370558,85.8793162 C112.347731,98.6832851 117.804671,120.466661 115.345879,135.291419 C112.881455,150.21623 111.295774,174.802499 89.2863492,178.036608" id="Fill-31" fill="#1D1F28"></path>
                    <path d="M124.510723,142.789759 C124.510723,142.789759 123.210915,148.561832 123.76717,152.842974 C124.324835,157.125525 124.698019,165.131176 122.650434,170.529812 C120.604257,175.929857 117.999009,180.212408 117.999009,181.515916 C117.999009,182.818015 120.974625,184.493551 118.743969,187.100566 C116.511904,189.707581 114.278432,190.637652 114.278432,190.637652 C114.278432,190.637652 109.043994,192.989603 102.157687,194.29311 C95.2756052,195.595209 88.2301672,195.292231 88.2301672,195.292231 C88.2301672,195.292231 71.6734584,181.515916 71.6734584,169.227714 C71.6734584,156.939511 98.4638666,147.817776 100.883227,147.258324 C103.302588,146.700282 124.510723,142.789759 124.510723,142.789759" id="Fill-32" fill="#BDCCD1"></path>
                    <path d="M120.539478,175.991862 L118.804523,180.212408 C118.804523,180.212408 112.353364,184.927583 101.190224,185.175602 C90.0284931,185.42503 87.3007271,184.680974 87.3007271,184.680974 L86.0572488,179.714962 C86.0572488,179.714962 94.2447716,182.694005 104.664359,180.707037 C115.082538,178.722887 120.539478,175.991862 120.539478,175.991862" id="Fill-33" fill="#6E99CE"></path>
                    <path d="M27.7630443,140.368757 C27.7630443,140.368757 29.3501338,145.470052 32.2328065,147.938967 C37.4418961,152.407532 77.7739656,158.699599 96.2332102,158.1176 C114.644575,157.537011 114.978328,155.566953 119.860705,150.235959 C123.953059,145.768802 124.233299,144.68372 124.233299,144.68372 C124.234707,144.68372 127.673636,111.697224 124.326243,99.9684732 C120.974625,88.2397221 120.418369,76.510971 120.418369,76.510971 C120.418369,76.510971 95.8586177,88.6117503 65.1617444,79.3025913 C34.4634629,69.9948416 27.7630443,140.368757 27.7630443,140.368757" id="Fill-34" fill="#CCE5E5"></path>
                    <path d="M97.3527631,38.3315822 C95.2784217,38.2005268 93.5843058,40.7187628 93.5843058,43.9711907 C93.5843058,47.219391 95.2784217,49.9306871 97.3527631,50.0251033 C99.4116139,50.1181104 101.083198,47.5914192 101.083198,44.379858 C101.083198,41.16266 99.4116139,38.4598192 97.3527631,38.3315822" id="Fill-35" fill="#3A3430"></path>
                    <path d="M72.2128153,36.7420074 C69.9666683,36.5982692 68.1458106,39.2109214 68.1458106,42.5859495 C68.1458106,45.95675 69.9666683,48.7737359 72.2128153,48.8766073 C74.4251645,48.9766604 76.2234904,46.3583713 76.2234904,43.0256192 C76.2234904,39.6886394 74.4251645,36.8815179 72.2128153,36.7420074" id="Fill-36" fill="#3A3430"></path>
                    <path d="M83.7533638,54.5246711 C82.4577806,61.6284358 85.3390451,64.7596728 89.714455,63.4012063 C94.0574753,62.0469675 98.8159272,60.1008657 99.3243028,56.8850769 C99.8340867,53.6932445 95.9614194,50.5098673 92.3394193,48.0381348 C88.7385428,45.5692207 85.019374,47.5702812 83.7533638,54.5246711" id="Fill-37" fill="#FF812C"></path>
                    <path d="M32.4722078,70.5796586 C31.9201766,70.8389509 31.4371494,71.1264272 31.0329838,71.4392691 C32.0173454,71.5308669 33.3185616,71.7267454 35.0422506,72.0860908 C34.0860538,71.588644 33.2256176,71.0855605 32.4722078,70.5796586" id="Fill-38" fill="#A50CA9"></path>
                    <path d="M107.394941,104.810476 L102.185852,101.085967 C102.185852,101.085967 95.4882498,101.831432 87.6739114,101.085967 C79.8581647,100.341911 77.440212,99.9684732 77.440212,99.9684732 L79.8581647,104.251025 C79.8595729,104.251025 90.6495281,107.975534 95.3009536,107.975534 C99.952379,107.975534 107.394941,104.810476 107.394941,104.810476" id="Fill-39" fill="#ABB1C6"></path>
                    <path d="M75.9531078,126.96588 L72.9760829,124.730892 L77.440212,99.9684732 L81.0199649,104.204521 L75.9531078,126.96588" id="Fill-40" fill="#BDCCD1"></path>
                    <path d="M109.336908,119.925529 C107.461129,119.088465 105.075566,120.744272 104.005301,123.630309 C102.933629,126.513527 103.596911,129.499617 105.486773,130.30145 C107.347061,131.090601 109.714317,129.422111 110.771907,126.572713 C111.830906,123.719088 111.184522,120.747091 109.336908,119.925529" id="Fill-41" fill="#6E99CE"></path>
                    <path d="M100.405833,133.329816 C98.530054,132.494162 96.1458992,134.148559 95.0742265,137.036005 C94.0025539,139.917814 94.6672444,142.905313 96.5585143,143.705737 C98.4159863,144.496297 100.786059,142.827807 101.842241,139.977 C102.901239,137.124785 102.256264,134.152787 100.405833,133.329816" id="Fill-42" fill="#6E99CE"></path>
                    <path d="M79.8581647,104.251025 C79.8595729,104.251025 90.4608236,105.574261 94.1870336,105.554532 C100.110102,105.52353 107.394941,104.810476 107.394941,104.810476 L105.347357,126.96588 C105.347357,126.96588 99.0229389,129.199458 90.8368244,129.013444 C84.5095902,128.868296 75.9531078,126.96588 75.9531078,126.96588 L79.8581647,104.251025" id="Fill-43" fill="#E2F6F8"></path>
                    <path d="M80.417237,123.241371 L82.0916375,114.863691 L85.9995109,115.049705 L84.3237021,124.17285 L80.417237,123.241371" id="Fill-44" fill="#8F5EDD"></path>
                    <path d="M91.7662645,108.50821 L99.2074187,108.50821 L96.603578,124.009383 L90.2791603,124.009383 L91.7662645,108.50821" id="Fill-45" fill="#8F5EDD"></path>
                    <path d="M69.9976496,82.2830441 L68.6950252,89.3572158 L72.0438262,89.9166672 L74.2772991,82.8410864 L69.9976496,82.2830441" id="Fill-46" fill="#ABB1C6"></path>
                    <path d="M103.302588,81.7235927 L104.602396,87.1236377 L107.766718,86.3781722 L106.465501,80.7935223 L103.302588,81.7235927" id="Fill-47" fill="#ABB1C6"></path>
                    <path d="M113.394055,35.4779572 C112.691342,38.9304911 109.998782,41.8813508 109.998782,41.8813508 C109.998782,41.8813508 109.884714,41.7362034 109.688969,41.4698651 C112.159026,48.3594318 114.224918,56.4538625 115.726105,65.8236169 C116.490781,64.7159876 116.886497,63.7704161 117.082243,63.1827807 C117.235741,61.8158591 118.660883,47.7210654 113.394055,35.4779572" id="Fill-48" fill="#898E8E"></path>
                    <path d="M87.8245933,63.7112298 C84.5560622,63.7112298 82.6549346,60.5433537 83.7533638,54.5246711 C84.6743545,49.4628335 86.8951532,47.026331 89.424357,47.026331 C90.3692878,47.026331 91.3592824,47.3673568 92.3394193,48.0381348 C95.9614194,50.5098673 99.8340867,53.6932445 99.3243028,56.8850769 C98.8159272,60.1008657 94.0574753,62.0469675 89.714455,63.4012063 C89.0455397,63.6083584 88.4132388,63.7112298 87.8245933,63.7112298 M97.4640143,50.0279217 C97.4274,50.0279217 97.3893774,50.0279217 97.3527631,50.0251033 C95.2784217,49.9306871 93.5843058,47.219391 93.5843058,43.9711907 C93.5843058,40.8004963 95.1967436,38.3259454 97.1978564,38.3259454 C97.2499614,38.3259454 97.3006581,38.3287638 97.3527631,38.3315822 C99.4116139,38.4598192 101.083198,41.16266 101.083198,44.379858 C101.083198,47.5336421 99.4707601,50.0279217 97.4640143,50.0279217 M72.3353324,48.8794257 C72.2944934,48.8794257 72.2550626,48.8794257 72.2128153,48.8766073 C69.9666683,48.7737359 68.1458106,45.95675 68.1458106,42.5859495 C68.1458106,39.2997009 69.8737243,36.7363706 72.0381932,36.7363706 C72.094523,36.7363706 72.1550774,36.7377798 72.2128153,36.7420074 C74.4251645,36.8815179 76.2234904,39.6886394 76.2234904,43.0256192 C76.2234904,46.2977758 74.4899437,48.8794257 72.3353324,48.8794257 M93.6392272,23.7027026 C92.9520048,24.1691469 92.3520935,24.9878907 91.6564216,25.8080437 C90.5974231,27.0551835 89.3187388,28.3009141 87.1810265,28.3009141 C87.0585093,28.3009141 86.9331758,28.2980957 86.8050257,28.2896405 C83.7350567,28.0162562 81.5044003,26.1110211 79.5328606,24.4016645 C71.3354802,26.2082558 64.1534427,32.7976635 59.297822,38.087791 C57.5375187,41.5459618 56.3010816,45.2352409 56.1194183,48.824467 C55.8180544,54.7614163 59.0584207,61.5255644 61.9072956,68.5884625 C67.9317577,71.6252832 77.3191032,74.8368443 90.0721486,74.8368443 C90.2622614,74.8368443 90.4580071,74.8354352 90.6495281,74.8354352 C99.1271489,74.7706121 104.922067,73.2867271 108.877821,71.3716276 C108.462389,64.3157755 108.435633,57.7362322 108.138494,51.3751146 C107.6442,40.8399538 101.321191,27.7809202 96.8852266,24.2381976 C96.8598782,24.2170597 96.8359381,24.1973309 96.8091815,24.1776021 C95.8036962,23.9831329 94.7475142,23.8224843 93.6392272,23.7027026" id="Fill-49" fill="#868A7F"></path>
                    <path d="M102.077417,25.6276664 C104.867146,29.9454476 107.44423,35.2116188 109.688969,41.4698651 C109.884714,41.7362034 109.998782,41.8813508 109.998782,41.8813508 C109.998782,41.8813508 112.691342,38.9304911 113.394055,35.4779572 C112.673035,33.8038305 111.826681,32.1635246 110.836686,30.5950877 C108.969357,29.0294692 106.093725,27.0890042 102.077417,25.6276664" id="Fill-50" fill="#4E3E0F"></path>
                    <path d="M59.297822,38.087791 C55.7321516,41.9715394 53.4198172,45.1563258 52.8832767,45.2338317 C52.8199058,45.2422869 52.7565349,45.2465145 52.6903475,45.2465145 C52.014391,45.2465145 51.1905691,44.7913437 50.5540434,44.3544924 L50.5582681,44.3883132 L50.5540434,44.379858 L53.8127169,63.2912889 C53.8127169,63.2912889 56.5095016,65.8687112 61.9072956,68.5884625 C59.0584207,61.5255644 55.8180544,54.7614163 56.1194183,48.824467 C56.3010816,45.2352409 57.5375187,41.5459618 59.297822,38.087791 M96.8091815,24.1776021 C96.8359381,24.1973309 96.8598782,24.2170597 96.8852266,24.2381976 C101.321191,27.7809202 107.6442,40.8399538 108.138494,51.3751146 C108.435633,57.7362322 108.462389,64.3157755 108.877821,71.3716276 C112.46884,69.6312687 114.540365,67.5357919 115.726105,65.8236169 C114.224918,56.4538625 112.159026,48.3594318 109.688969,41.4698651 C107.44423,35.2116188 104.867146,29.9454476 102.077417,25.6276664 C100.498777,25.0527138 98.7469233,24.5524487 96.8091815,24.1776021 M89.0737046,23.463139 C86.4825381,23.463139 83.6590116,23.6857922 80.603125,24.1945125 C80.2454314,24.2536988 79.8863295,24.3241587 79.5328606,24.4016645 C81.5044003,26.1110211 83.7350567,28.0162562 86.8050257,28.2896405 C86.9331758,28.2980957 87.0585093,28.3009141 87.1810265,28.3009141 C89.3187388,28.3009141 90.5974231,27.0551835 91.6564216,25.8080437 C92.3520935,24.9878907 92.9520048,24.1691469 93.6392272,23.7027026 C92.204228,23.5476908 90.6833259,23.463139 89.0737046,23.463139" id="Fill-51" fill="#181E23"></path>
                    <path d="M97.1978564,38.3259454 C95.1967436,38.3259454 93.5843058,40.8004963 93.5843058,43.9711907 C93.5843058,47.219391 95.2784217,49.9306871 97.3527631,50.0251033 C97.3893774,50.0279217 97.4274,50.0279217 97.4640143,50.0279217 C99.4707601,50.0279217 101.083198,47.5336421 101.083198,44.379858 C101.083198,41.16266 99.4116139,38.4598192 97.3527631,38.3315822 C97.3006581,38.3287638 97.2499614,38.3259454 97.1978564,38.3259454" id="Fill-52" fill="#272927"></path>
                    <path d="M72.0381932,36.7363706 C69.8737243,36.7363706 68.1458106,39.2997009 68.1458106,42.5859495 C68.1458106,45.95675 69.9666683,48.7737359 72.2128153,48.8766073 C72.2550626,48.8794257 72.2944934,48.8794257 72.3353324,48.8794257 C74.4899437,48.8794257 76.2234904,46.2977758 76.2234904,43.0256192 C76.2234904,39.6886394 74.4251645,36.8815179 72.2128153,36.7420074 C72.1550774,36.7377798 72.094523,36.7363706 72.0381932,36.7363706" id="Fill-53" fill="#272927"></path>
                    <path d="M89.424357,47.026331 C86.8951532,47.026331 84.6743545,49.4628335 83.7533638,54.5246711 C82.6549346,60.5433537 84.5560622,63.7112298 87.8245933,63.7112298 C88.4132388,63.7112298 89.0455397,63.6083584 89.714455,63.4012063 C94.0574753,62.0469675 98.8159272,60.1008657 99.3243028,56.8850769 C99.8340867,53.6932445 95.9614194,50.5098673 92.3394193,48.0381348 C91.3592824,47.3673568 90.3692878,47.026331 89.424357,47.026331" id="Fill-54" fill="#894F25"></path>
                    <path d="M80.2130418,8.73843392 C81.479052,9.18514954 82.8436391,9.8939759 84.2166757,10.7493588 C87.8076944,11.6836568 91.4339193,13.7199472 94.9150951,16.9315084 C97.7217227,18.6760949 100.581864,20.6179691 103.488476,22.7049907 C103.660282,22.8275909 103.827863,22.9530095 103.995444,23.078428 C108.763753,24.5369475 113.202534,29.5156424 113.533471,33.3176573 C113.533471,33.3176573 113.450385,28.7518573 111.4028,24.1226434 C111.339429,24.1705561 111.301407,24.1945125 111.301407,24.1945125 C111.301407,24.1945125 110.915548,23.4194539 110.038213,22.21459 L110.038213,22.2159992 C107.818822,19.1693141 102.471725,13.3775122 92.3464605,10.4759745 C92.3464605,10.4759745 92.3464605,10.4759745 92.3450523,10.4745653 C92.1324076,10.4139698 91.9211712,10.3547835 91.7028936,10.2970064 C91.6944441,10.294188 91.6888112,10.2927788 91.6803617,10.2899604 C91.6310732,10.2772776 91.5817847,10.2645949 91.5324962,10.2505029 C91.5212303,10.2490937 91.5141891,10.2448661 91.5043314,10.2434569 C91.3480165,10.2025902 91.194518,10.1617234 91.0367948,10.1236751 C91.0283454,10.1208567 91.0213042,10.1194475 91.0128547,10.1180383 C90.9663827,10.1053555 90.9170942,10.0926728 90.8678057,10.0813992 C90.8565398,10.0771716 90.8424573,10.0743532 90.8283749,10.0715348 C90.619955,10.0193945 90.4073104,9.97007257 90.1932575,9.92075065 C90.1749503,9.91652306 90.1580514,9.91229547 90.1411525,9.90806788 C90.0946805,9.89820349 90.0482085,9.88833911 90.0031447,9.87706553 C89.9890623,9.87424713 89.9749799,9.87001954 89.9594892,9.86720115 C89.8088072,9.83338041 89.6539005,9.80096886 89.5004021,9.76714812 C89.4835032,9.76432973 89.4666043,9.76010213 89.4511136,9.75587454 C89.4032334,9.74741936 89.3567613,9.73755497 89.3102893,9.72769059 C89.2891657,9.723463 89.2750833,9.7206446 89.2539596,9.71641701 C89.2088959,9.70655263 89.1610156,9.69668825 89.1159519,9.68823306 C89.1018694,9.68541467 89.0863788,9.68118707 89.0737046,9.67836868 C88.9863935,9.66004911 88.9004907,9.64454794 88.8117714,9.62622837 C88.7864231,9.62200078 88.762483,9.61777318 88.7385428,9.61213639 C88.6962955,9.60368121 88.6554565,9.59663522 88.6146175,9.58818004 C88.5892691,9.58395244 88.5625125,9.57831565 88.5357559,9.57408806 C88.4935086,9.56563287 88.4498531,9.55717769 88.409014,9.5501317 C88.3836657,9.54449491 88.3611338,9.54167652 88.3357854,9.53603973 C88.2456579,9.51912936 88.1583469,9.50362818 88.0668111,9.48671781 C88.0527287,9.48530862 88.037238,9.48249022 88.0231556,9.47967182 C87.9809083,9.47262584 87.9372528,9.46417065 87.8935972,9.45712466 C87.8696571,9.45289707 87.8414923,9.44866948 87.8175521,9.44303269 C87.7724884,9.4359867 87.7302411,9.42894071 87.6879938,9.42189473 C87.6612372,9.41766713 87.6358888,9.41343954 87.6105405,9.40780275 C87.5668849,9.40075676 87.5204129,9.39230158 87.4753492,9.38666479 C87.4584503,9.38243719 87.4429596,9.381028 87.4246524,9.3782096 C87.3387496,9.36411763 87.2528468,9.35002565 87.1641275,9.33593368 C87.1373709,9.33170608 87.1106143,9.32747849 87.0824495,9.3232509 C87.0416104,9.31620491 86.9965467,9.30915892 86.9557076,9.30352213 C86.9261345,9.29929454 86.8951532,9.29365775 86.8655801,9.28943016 C86.8247411,9.28379337 86.7824938,9.27674738 86.7416547,9.27111059 C86.7106734,9.266883 86.6811003,9.2626554 86.650119,9.25842781 C86.5797068,9.24715423 86.5078865,9.23728985 86.4360661,9.22601627 C86.40086,9.22178868 86.3670622,9.21615189 86.3346726,9.21192429 C86.2938336,9.2062875 86.2544028,9.20065071 86.2135638,9.19642312 C86.1811742,9.19219553 86.1473764,9.18655874 86.1135785,9.18233114 C86.0727395,9.17669435 86.0347169,9.17105756 85.9924697,9.16542077 C85.9572636,9.16119318 85.9220575,9.15696559 85.8854432,9.152738 C85.8488289,9.14710121 85.8122146,9.14287361 85.7756003,9.13723682 C85.72772,9.13160003 85.6770233,9.12596324 85.6305513,9.12032645 C85.5756298,9.11328047 85.5207084,9.10623448 85.4643787,9.09918849 C85.4249479,9.0949609 85.3855171,9.08932411 85.3460863,9.08509651 C85.3080637,9.08086892 85.2700412,9.07664133 85.2320186,9.07100454 C85.1954043,9.06818614 85.1601983,9.06395855 85.1221757,9.05973096 C85.0827449,9.05409417 85.0447224,9.04986658 85.0066998,9.04563898 C84.9644525,9.04141139 84.9236135,9.0371838 84.8827745,9.03295621 C84.8306695,9.02731942 84.7799727,9.02168263 84.729276,9.01604584 C84.6757628,9.01040905 84.6236578,9.00477226 84.5715528,8.99913547 C84.5335303,8.99631707 84.496916,8.99208948 84.4603017,8.98786188 C84.4194626,8.98504349 84.3814401,8.9808159 84.340601,8.9765883 C84.3011702,8.97236071 84.2659642,8.96954232 84.2279416,8.96531472 C84.1856943,8.96108713 84.1448553,8.95685954 84.1011998,8.95404114 C84.0659937,8.95122275 84.0293794,8.94699516 83.9941733,8.94417676 C83.9237612,8.93713077 83.8505326,8.93149398 83.7815287,8.924448 C83.7463226,8.9216296 83.7097083,8.91881121 83.6745023,8.91599281 C83.632255,8.91317442 83.5928242,8.90894682 83.5491687,8.90612843 C83.5097379,8.90190084 83.4717153,8.89908244 83.4322845,8.89626404 C83.3914455,8.89344565 83.3506064,8.88921806 83.3083592,8.88639966 C83.2703366,8.88358127 83.2337223,8.88076287 83.1942915,8.87794448 C83.1464113,8.87371688 83.0999393,8.87089849 83.0534673,8.8666709 C83.005587,8.8638525 82.9605232,8.86103411 82.9140512,8.85821571 C82.8563133,8.85398812 82.7971671,8.84976053 82.7394291,8.84553293 C82.7042231,8.84271454 82.6676088,8.84130534 82.6324027,8.83989614 C82.5859307,8.83566855 82.5408669,8.83285016 82.4943949,8.83003176 C82.4591889,8.82862256 82.4225745,8.82580417 82.3859602,8.82298577 C82.33808,8.82016738 82.291608,8.81734898 82.2437277,8.81593979 C82.2113381,8.81312139 82.1789486,8.81171219 82.1437425,8.8088938 C82.0705139,8.8060754 81.9916523,8.80184781 81.9170154,8.79762022 C81.8860341,8.79621102 81.8536445,8.79480182 81.8240714,8.79339262 C81.7719664,8.79057423 81.7226779,8.78775583 81.670573,8.78634664 C81.6339587,8.78352824 81.5973444,8.78211904 81.5593218,8.78070985 C81.5156663,8.77930065 81.4706025,8.77789145 81.4255387,8.77507306 C81.3889244,8.77366386 81.3509019,8.77225466 81.3128793,8.77084546 C81.2551414,8.76802707 81.1959952,8.76661787 81.1396655,8.76379948 C81.1030512,8.76239028 81.0692534,8.76239028 81.0340473,8.76098108 C80.9650434,8.75816269 80.9002642,8.75534429 80.8298521,8.75393509 C80.7974625,8.7525259 80.7678894,8.7511167 80.7340916,8.7511167 C80.6819866,8.7497075 80.6284734,8.7482983 80.5749602,8.74688911 C80.5411624,8.74547991 80.5087728,8.74547991 80.4763832,8.74407071 C80.4214617,8.74266151 80.365132,8.74125232 80.3102106,8.74125232 C80.2806375,8.73984312 80.2496561,8.73984312 80.220083,8.73843392 L80.2130418,8.73843392" id="Fill-55" fill="#FFC319"></path>
                    <path d="M79.1061631,8.72716034 C78.6794656,8.72716034 78.2485433,8.73279713 77.8105799,8.74266151 C77.5359726,8.7482983 77.259957,8.75957188 76.9881662,8.77507306 C78.6090534,9.16119318 80.2538809,9.67555028 81.9226484,10.301234 C82.6845077,10.3998778 83.4491834,10.5492528 84.2166757,10.7493588 C82.8436391,9.8939759 81.479052,9.18514954 80.2130418,8.73843392 C80.1341802,8.73702472 80.0553187,8.73561553 79.9750488,8.73420633 C79.9497005,8.73420633 79.9257603,8.73420633 79.900412,8.73279713 C79.8412658,8.73279713 79.7807113,8.73138793 79.7201569,8.73138793 C79.6877673,8.73138793 79.6539695,8.72997874 79.6201717,8.72997874 C79.5652502,8.72997874 79.5075123,8.72856954 79.4525908,8.72856954 L79.3624633,8.72856954 C79.2850099,8.72856954 79.2075566,8.72716034 79.1301032,8.72716034 L79.1061631,8.72716034" id="Fill-56" fill="#FEC216"></path>
                    <path d="M103.995444,23.078428 C106.81897,25.2105439 109.060893,27.7879662 110.836686,30.5950877 C112.675851,32.138159 113.533471,33.3176573 113.533471,33.3176573 C113.202534,29.5156424 108.763753,24.5369475 103.995444,23.078428" id="Fill-57" fill="#F3B300"></path>
                    <path d="M81.9226484,10.301234 C86.1079456,11.87108 90.4439247,14.1511617 94.9150951,16.9315084 C91.4339193,13.7199472 87.8076944,11.6836568 84.2166757,10.7493588 C83.4491834,10.5492528 82.6845077,10.3998778 81.9226484,10.301234" id="Fill-58" fill="#E9AD04"></path>
                    <path d="M94.9150951,16.9315084 C96.7655259,18.6380466 98.5737095,20.6757462 100.312889,23.0558809 C100.541024,22.8092713 100.949415,22.67117 101.587349,22.67117 C101.767604,22.67117 101.966166,22.6824435 102.185852,22.7049907 C102.78858,22.7669954 103.395532,22.8952324 103.995444,23.078428 C103.827863,22.9530095 103.660282,22.8275909 103.488476,22.7049907 C100.581864,20.6179691 97.7217227,18.6760949 94.9150951,16.9315084" id="Fill-59" fill="#F3B70E"></path>
                    <path d="M94.8108851,23.313764 C94.3799629,23.313764 93.9969209,23.4603206 93.6392272,23.7027026 C94.7475142,23.8224843 95.8036962,23.9831329 96.8091815,24.1776021 C96.0219738,23.5646012 95.3727739,23.313764 94.8108851,23.313764 M74.6223185,21.5959522 C73.998467,21.5959522 73.3492672,21.7763295 72.6592283,22.1948612 C69.355491,24.1945125 63.1043019,30.6007245 59.297822,38.087791 C64.1534427,32.7976635 71.3354802,26.2082558 79.5328606,24.4016645 C77.8302953,22.9262347 76.3164344,21.5959522 74.6223185,21.5959522 M76.9881662,8.77507306 C74.4998014,8.91881121 72.228306,9.45994306 70.1567811,10.30828 C72.0593169,10.1405855 74.050572,10.058852 76.1305464,10.058852 C77.538789,10.058852 78.9906872,10.0969003 80.4806079,10.1701786 C80.9594104,10.194135 81.4396212,10.2378201 81.9226484,10.301234 C80.2538809,9.67555028 78.6090534,9.16119318 76.9881662,8.77507306" id="Fill-60" fill="#F3B70C"></path>
                    <path d="M101.587349,22.67117 C100.949415,22.67117 100.541024,22.8092713 100.312889,23.0558809 C100.909984,23.8732155 101.497221,24.7285984 102.077417,25.6276664 C106.093725,27.0890042 108.969357,29.0294692 110.836686,30.5950877 C109.060893,27.7879662 106.81897,25.2105439 103.995444,23.078428 C103.395532,22.8952324 102.78858,22.7669954 102.185852,22.7049907 C101.966166,22.6824435 101.767604,22.67117 101.587349,22.67117" id="Fill-61" fill="#EEB001"></path>
                    <path d="M76.1305464,10.058852 C74.050572,10.058852 72.0593169,10.1405855 70.1567811,10.30828 C54.1366127,16.8666853 50.0921398,41.6953367 50.0921398,41.6953367 L50.5540434,44.3544924 C51.1905691,44.7913437 52.014391,45.2465145 52.6903475,45.2465145 C52.7565349,45.2465145 52.8199058,45.2422869 52.8832767,45.2338317 C53.4198172,45.1563258 55.7321516,41.9715394 59.297822,38.087791 C63.1043019,30.6007245 69.355491,24.1945125 72.6592283,22.1948612 C73.3492672,21.7763295 73.998467,21.5959522 74.6223185,21.5959522 C76.3164344,21.5959522 77.8302953,22.9262347 79.5328606,24.4016645 C79.8863295,24.3241587 80.2454314,24.2536988 80.603125,24.1945125 C83.6590116,23.6857922 86.4825381,23.463139 89.0737046,23.463139 C90.6833259,23.463139 92.204228,23.5476908 93.6392272,23.7027026 C93.9969209,23.4603206 94.3799629,23.313764 94.8108851,23.313764 C95.3727739,23.313764 96.0219738,23.5646012 96.8091815,24.1776021 C98.7469233,24.5524487 100.498777,25.0527138 102.077417,25.6276664 C101.497221,24.7285984 100.909984,23.8732155 100.312889,23.0558809 C98.5737095,20.6757462 96.7655259,18.6380466 94.9150951,16.9315084 C90.4439247,14.1511617 86.1079456,11.87108 81.9226484,10.301234 C81.4396212,10.2378201 80.9594104,10.194135 80.4806079,10.1701786 C78.9906872,10.0969003 77.538789,10.058852 76.1305464,10.058852" id="Fill-62" fill="#E8AD03"></path>
                    <path d="M118.559489,73.3459134 C118.559489,73.3459134 119.488929,70.924912 119.488929,68.3193057 C119.488929,65.7136995 117.255456,62.5472326 117.255456,62.5472326 C117.255456,62.5472326 115.20928,74.6494211 90.6495281,74.8354352 C66.0911845,75.02004 53.8127169,63.2912889 53.8127169,63.2912889 L50.0921398,41.6953367 C50.0921398,41.6953367 55.3772745,9.23447145 77.8105799,8.74266151 C103.302588,8.18461929 111.301407,24.1945125 111.301407,24.1945125 C111.301407,24.1945125 114.834687,21.9609344 111.301407,15.4433958 C109.228473,11.6244705 100.884636,-0.566497409 69.6286901,0.178968087 C44.4690269,0.776467842 22.7412511,26.8578958 28.3235249,48.7709175 C30.7414776,58.2660905 26.960346,58.5127001 29.1276315,66.8621955 C31.2991416,75.2088725 73.1704203,84.2826954 84.8827745,83.4005378 C112.046367,81.3501554 118.559489,73.3459134 118.559489,73.3459134" id="Fill-63" fill="#E2F6F8"></path>
                    <path d="M49.3161981,139.417549 C47.522097,142.448733 44.2324421,149.387622 42.14261,154.171847 C40.5470711,157.824487 35.2436293,162.377604 29.9655359,165.190363 C30.9315903,167.783286 31.7187979,170.083097 32.0426938,171.648715 C32.9735422,176.115871 29.5008158,188.466078 33.2228011,190.513642 C36.9433782,192.562616 37.6897468,193.739296 37.6897468,193.739296 C37.6897468,193.739296 53.6254206,197.899247 66.8333284,197.713233 C80.0440527,197.525809 87.8583912,196.967767 88.9751276,195.851683 C90.091864,194.73278 90.6495281,194.546766 90.4622318,190.07961 C90.2791603,185.611044 87.1148391,182.445987 86.928951,176.859928 C86.743063,171.275278 88.7892396,167.364755 88.7892396,167.364755 C88.7892396,167.364755 97.1358937,158.158467 103.641975,157.684977 C113.233515,156.984606 73.5816272,145.904085 49.3161981,139.417549" id="Fill-64" fill="#CCE5E5"></path>
                    <path d="M42.14261,154.171847 C44.2324421,149.387622 47.522097,142.448733 49.3161981,139.417549 C45.5421078,138.407154 42.1397936,137.509496 39.3528814,136.779531 C37.5390648,139.895267 34.336721,146.658006 32.2849115,151.354861 C31.4244752,153.32351 29.4853251,155.55427 27.0532901,157.635655 C28.0404681,160.186302 29.0797512,162.810228 29.9655359,165.190363 C35.2436293,162.377604 40.5470711,157.824487 42.14261,154.171847" id="Fill-65" fill="#CCE5E5"></path>
                    <path d="M58.8823904,85.0098414 C62.8339193,93.9075146 58.7964876,105.141637 57.90507,106.672026 C56.6010373,108.905604 54.1844929,109.277632 53.2508281,110.58114 C52.3213879,111.886057 53.8127169,116.725241 52.1383164,120.077722 C50.9779244,122.397261 49.9104765,122.753788 49.3598536,122.753788 C49.1162276,122.753788 48.9739951,122.683328 48.9739951,122.683328 L45.4378978,129.570077 C45.4378978,129.570077 45.8124904,134.226065 44.6943457,135.157545 C44.3746746,135.423883 43.778988,136.379319 43.0312112,137.746241 C44.9619118,138.25637 47.0728676,138.817231 49.3161981,139.417549 C49.7555698,138.674902 50.1076305,138.159136 50.3273163,137.97594 C51.4440527,137.043051 49.9639897,131.67119 49.9639897,131.67119 L52.2537923,125.59473 C52.2537923,125.59473 53.3944688,125.070509 55.0702776,121.718028 C56.7446781,118.368365 54.5802091,113.598232 55.5096493,112.296133 C56.4390894,110.992626 57.1122294,111.535167 58.4148539,109.301588 C59.4513204,107.52459 66.1799038,93.6904982 58.8823904,85.0098414" id="Fill-66" fill="#BAD1D2"></path>
                    <path d="M43.0312112,137.746241 C41.1709226,141.149453 38.3657033,147.104722 36.5096394,151.354861 C35.2886931,154.145072 31.9075025,157.465142 28.0249775,160.131344 C28.6981175,161.863247 29.3670327,163.582468 29.9655359,165.190363 C35.2436293,162.377604 40.5470711,157.824487 42.14261,154.171847 C44.2324421,149.387622 47.522097,142.448733 49.3161981,139.417549 C47.0728676,138.817231 44.9619118,138.25637 43.0312112,137.746241" id="Fill-67" fill="#BAD1D2"></path>
                    <path d="M28.0108951,71.9818101 C28.0108951,71.9818101 28.3235249,75.02004 26.0914603,78.558535 C23.8565792,82.0956209 21.8104027,80.9781272 20.5077782,83.4005378 C19.206562,85.8201299 20.8809625,89.7292439 20.5077782,91.962822 C20.1360022,94.1992185 15.4845767,94.1992185 14.5537283,96.4313874 C13.6242881,98.6663747 12.880736,102.948926 13.9974724,104.06642 C15.1128006,105.182504 12.50896,108.347562 12.50896,108.347562 L10.0910073,113.560183 C10.0910073,113.560183 7.67023822,113.374169 6.92809435,115.795171 C6.18313399,118.214763 7.11257414,121.378411 6.18313399,124.730892 C5.25369384,128.081964 -2.7479409,142.977182 1.71759655,152.286341 C6.18313399,161.594091 9.15875071,164.201106 15.2986887,164.945162 C21.4386266,165.689219 33.9043905,157.311539 36.5096394,151.354861 C39.1134801,145.396774 43.5776093,136.087615 44.6943457,135.157545 C45.8124904,134.226065 45.4378978,129.570077 45.4378978,129.570077 L48.9739951,122.683328 C48.9739951,122.683328 50.4625076,123.428794 52.1383164,120.077722 C53.8127169,116.725241 52.3213879,111.886057 53.2508281,110.58114 C54.1844929,109.277632 56.6010373,108.905604 57.90507,106.672026 C59.2076945,104.438448 67.2065127,81.5375786 47.2995946,75.3934774 C27.3912683,69.2507853 28.0108951,71.9818101 28.0108951,71.9818101" id="Fill-68" fill="#E2F6F8"></path>
                    <path d="M38.2375532,80.4694069 C33.2988462,78.337291 27.4461898,81.6009925 25.1592037,87.7775053 C22.8651764,93.9441537 25.0352783,100.609658 29.9993337,102.668496 C34.8873439,104.694922 40.6921201,101.400218 42.9537578,95.3040294 C45.218212,89.1979764 43.0988068,82.5662928 38.2375532,80.4694069" id="Fill-69" fill="#8F5EDD"></path>
                    <path d="M14.1199896,104.99649 C14.1199896,104.99649 22.5567713,106.237993 29.9993337,108.969018 C37.4418961,111.698633 48.9739951,122.683328 48.9739951,122.683328 L45.4393061,129.571486 C45.4393061,129.571486 34.9605725,120.882374 26.2773484,118.152758 C17.5941242,115.423143 10.0895991,113.560183 10.0895991,113.560183 L14.1199896,104.99649" id="Fill-70" fill="#6E99CE"></path>
                    <path d="M33.6114761,98.3859444 C33.7889146,98.3859444 33.964945,98.37608 34.1395671,98.3563512 C34.5761223,98.5000894 34.9549396,98.5353193 35.294326,98.5353193 C35.4731729,98.5353193 35.6407537,98.5254549 35.7998851,98.5155905 C35.9435259,98.5071354 36.0787172,98.4986802 36.2096838,98.4986802 C36.402613,98.4986802 36.5828681,98.5169997 36.7603066,98.5775952 L37.0109738,98.6917402 L37.1363074,98.8002484 C37.1363074,98.811522 37.1067343,98.8791635 36.9743595,98.9665338 C36.7053852,99.1483202 36.2392569,99.2807848 35.7224318,99.2807848 C35.439375,99.2807848 35.1422358,99.2413273 34.8535461,99.1497294 C34.295882,98.9721705 33.7917311,98.6790575 33.3805243,98.3803076 C33.4579776,98.383126 33.5368392,98.3859444 33.6114761,98.3859444 M28.6572784,94.8122194 C29.0065226,94.8108102 29.1543881,94.4909224 29.2515568,94.2795428 L29.2726805,94.2330392 C29.3782987,94.0160228 29.4275872,93.9638825 29.51349,93.9638825 L29.5698197,93.9695193 C29.6599472,94.0005216 29.7317676,94.1470782 29.8035879,94.2894071 C29.8993484,94.481058 30.0077831,94.702302 30.2387349,94.7798079 L30.4006828,94.8037642 C30.703455,94.802355 30.9020172,94.6036582 31.0639651,94.4430097 L31.2301378,94.2936347 C31.2864675,94.6515709 31.2667521,95.6112344 30.9977777,96.5314404 L30.9921447,96.5469416 C30.8710359,96.9556089 30.7203539,97.2825427 30.5513648,97.5051959 L30.2570421,97.7715342 L30.2063453,97.7997182 C29.9246968,97.9519115 29.8303446,98.0040518 29.4853251,98.005461 L29.4402613,98.005461 C29.2783134,98.005461 29.1684705,97.9899599 29.0614441,97.9547299 C28.9642753,97.9209092 28.8656983,97.8687689 28.7319153,97.7954906 L28.7065669,97.7828078 C28.4206937,97.6320237 28.16721,97.1994 27.9911797,96.5680796 C27.732063,95.643646 27.7292465,94.6698905 27.7954339,94.3119543 L27.9883632,94.4726028 C28.1136968,94.5867478 28.254521,94.7149848 28.4375926,94.7769895 L28.4502668,94.7812171 L28.6572784,94.8122194 M29.1276315,93.5326681 C29.0529946,92.9915362 29.0614441,92.4743607 29.0910172,92.0417371 C29.1966354,90.5522153 31.1076206,89.1148338 31.7892101,88.0241149 C32.4722078,86.9362144 31.8891953,85.3607315 32.287728,84.4095232 C32.6876689,83.4597241 34.4381145,82.7917644 35.1506853,82.7072126 C35.1872996,82.7043942 35.2225057,82.7015758 35.2548952,82.7015758 C35.8604396,82.7015758 35.8548066,83.3836274 36.6321566,83.6457381 C36.7941045,83.7006968 36.9405617,83.7218348 37.0743447,83.7218348 C37.2405174,83.7218348 37.3897911,83.6908325 37.5277989,83.6598301 C37.6643984,83.630237 37.7911403,83.5992346 37.9164738,83.5992346 C38.0713805,83.5992346 38.2206543,83.6457381 38.3797857,83.7993407 C38.8937942,84.2953782 39.8837888,85.8905898 39.6260804,86.8883017 C39.3669638,87.8860135 37.9502717,88.7864908 37.8319793,90.0660421 C37.7136869,91.3470027 38.3657033,93.6482223 37.546106,94.8967713 C36.8884567,95.9001199 35.7013082,97.3332738 33.7142778,97.3332738 C33.2284341,97.3332738 32.6961183,97.248722 32.1116976,97.0514343 C31.8877871,96.9753376 31.6779589,96.8893766 31.4836214,96.7963696 C31.7455546,95.9663522 31.8286409,95.0109163 31.7892101,94.4387821 C31.7694947,94.1231218 31.713165,93.7919604 31.4596813,93.7059994 L31.3512466,93.6876798 C31.0498827,93.689089 30.848504,93.8906042 30.6893726,94.0498436 L30.4175817,94.2513588 L30.2880234,94.031524 C30.1838135,93.8257811 30.0429892,93.5439416 29.74585,93.4438886 L29.5205312,93.4086587 C29.3585833,93.4100679 29.2318414,93.4593898 29.1276315,93.5326681 M35.9942226,81.875786 C34.8310142,81.875786 33.3523594,82.3070005 31.9905888,83.4611333 L31.9905888,83.4597241 L31.9821393,83.4681793 C31.2484449,84.0952722 30.5485483,84.9365631 29.9500452,86.0315096 C29.17692,87.0489502 28.3193002,88.2369037 27.6250366,89.337487 C27.4081672,89.6446921 27.2265039,89.9307592 27.1152527,90.1815963 C26.4702776,91.3174095 26.1027263,92.2714363 26.3463522,92.6984231 C26.4364798,92.8520256 26.5477309,92.9196671 26.6744728,92.9196671 C27.0814549,92.9196671 27.6644674,92.21225 28.2686035,91.3286831 C28.1404534,92.305257 28.1334122,93.1916423 28.2629705,93.9765653 C28.1587605,93.8863766 28.0432846,93.7990064 27.9066851,93.7510937 L27.6827745,93.7144545 C27.5475832,93.7158637 27.3701446,93.7905512 27.2828336,94.1343954 C27.0884961,94.9108632 27.2926913,97.663026 28.4502668,98.276027 L28.4727986,98.2887097 C28.6248888,98.3704432 28.747406,98.4324479 28.8840055,98.4803606 C29.0459534,98.5353193 29.212126,98.5592757 29.4374449,98.5592757 L29.4825086,98.5592757 C29.9584946,98.5578665 30.1443827,98.4564042 30.4556043,98.2873005 L30.5048928,98.2605258 C30.7062715,98.1491992 30.8823018,97.9786863 31.0301673,97.7658975 C31.2639356,97.8772241 31.5089698,97.9772771 31.7694947,98.0646473 C31.9553827,98.1280612 32.1356378,98.1802015 32.3187093,98.2252959 C32.7989201,98.6748299 33.6128843,99.3188331 34.6085119,99.652813 L34.6831487,99.6781785 C35.0239434,99.7866867 35.3760041,99.8345994 35.7153906,99.8345994 C36.6222989,99.8345994 37.4278137,99.4865276 37.6291923,99.0285384 C37.6784808,98.9143934 37.8052227,98.5099538 37.2827647,98.2083855 L36.9391535,98.0505554 C36.6941192,97.9688219 36.4561262,97.9448655 36.2181332,97.9448655 C36.071676,97.9448655 35.926627,97.9533207 35.7787615,97.9631851 L35.5196449,97.9758679 C36.6842615,97.448828 37.7277693,96.4088402 38.6191869,94.8573137 C38.5586325,96.0974076 38.6191869,97.1247126 39.1191131,97.1247126 C39.1810757,97.1247126 39.2444467,97.1106206 39.3176753,97.0796183 C39.76268,96.892195 40.0443285,95.9564878 40.2203588,94.7065296 C40.3133028,94.3767774 40.3499171,93.9216066 40.3583666,93.4072495 C40.4569436,92.2009764 40.4879249,90.8692847 40.4893332,89.6883772 C41.2047204,85.2268578 38.8332398,82.6127964 37.1701052,82.0505265 C36.8391682,81.9391999 36.4406356,81.875786 35.9942226,81.875786" id="Fill-71" fill="#E9DFF9"></path>
                    <path d="M37.8291628,85.0633909 C37.598211,85.0633909 37.3813416,85.2113566 37.3010718,85.4481018 C37.2024948,85.7398057 37.354585,86.0568751 37.6376418,86.1512914 C37.6953798,86.1710201 37.7531177,86.1794753 37.8108557,86.1794753 C38.0418074,86.1794753 38.2558603,86.0315096 38.3361302,85.7961736 C38.4347071,85.5030605 38.2812087,85.1874003 37.9981519,85.0915748 C37.9432305,85.0718461 37.8840843,85.0633909 37.8291628,85.0633909" id="Fill-72" fill="#E9DFF9"></path>
                    <path d="M34.487403,83.9346236 C34.2564512,83.9346236 34.0423983,84.0839986 33.964945,84.3207438 C33.8649597,84.6138569 34.0156417,84.9281079 34.301515,85.0239333 C34.3592529,85.0436621 34.4155826,85.0535265 34.4705041,85.0535265 C34.7000476,85.0535265 34.916917,84.9041515 34.9971868,84.6688156 C35.0957638,84.3771117 34.9450819,84.058633 34.6606168,83.9642168 C34.6028789,83.944488 34.5451409,83.9346236 34.487403,83.9346236" id="Fill-73" fill="#E9DFF9"></path>
                    <path d="M35.2886931,85.5241985 C34.7789092,85.5241985 34.5296503,85.8187207 34.5887965,86.2738916 C34.6662498,86.8911201 34.81834,87.5844453 35.2506705,87.7310018 C35.305592,87.7493214 35.3619217,87.7577766 35.4210679,87.7577766 C35.8167841,87.7577766 36.2744629,87.3589737 36.6560967,86.9714443 C37.0954684,86.5261379 36.8997227,85.9666865 35.9505671,85.649617 C35.6970834,85.563656 35.4745811,85.5241985 35.2886931,85.5241985" id="Fill-74" fill="#E9DFF9"></path>
                    <path d="M28.0108951,71.9804009 C28.0108951,71.9804009 60.5075024,86.376763 86.0572488,86.1301534 C111.609812,85.8807254 120.416961,76.510971 120.416961,76.510971 L118.897467,72.3214267 C118.897467,72.3214267 112.849065,80.420085 84.5701446,79.178582 C56.2898157,77.9370789 29.1290397,66.8607863 29.1290397,66.8607863 L28.0108951,71.9804009" id="Fill-75" fill="#767884"></path>
                    <path d="M31.6103633,182.321977 C31.6103633,182.321977 52.8184976,186.418514 64.2294878,186.169086 C75.6404779,185.921068 88.7906478,182.569996 88.7906478,182.569996 L90.4044939,188.776102 C90.4044939,188.774693 78.8639454,192.127174 64.7237809,192.127174 C50.5850247,192.127174 31.1160701,188.652093 31.1160701,188.652093 L31.6103633,182.321977" id="Fill-76" fill="#6E99CE"></path>
                    <path d="M50.5484104,44.3502649 L50.5540434,44.379858 L50.5582681,44.3883132 L50.5540434,44.3544924 C50.5512269,44.3530832 50.5512269,44.3516741 50.5484104,44.3502649" id="Fill-77" fill="#141E1F"></path>
                    <path d="M92.3464605,10.4759745 C102.471725,13.3775122 107.818822,19.1693141 110.038213,22.2159992 C110.038213,22.2159992 110.038213,22.2159992 110.038213,22.21459 C107.818822,19.1679049 102.471725,13.376103 92.3464605,10.4759745 M91.7028936,10.2970064 C91.9211712,10.3547835 92.1324076,10.4139698 92.3450523,10.4745653 C92.1338159,10.4139698 91.9211712,10.3547835 91.7028936,10.2970064 M91.5324962,10.2505029 C91.5817847,10.2645949 91.6310732,10.2772776 91.6803617,10.2899604 C91.6310732,10.2772776 91.5803765,10.2631857 91.5324962,10.2505029 M91.0367948,10.1236751 C91.194518,10.1617234 91.3480165,10.2025902 91.5043314,10.2434569 C91.3480165,10.2025902 91.1931098,10.1617234 91.0367948,10.1236751 M90.8678057,10.0813992 C90.9170942,10.0926728 90.9663827,10.1053555 91.0128547,10.1180383 C90.9663827,10.1053555 90.9170942,10.0926728 90.8678057,10.0813992 M90.1932575,9.92075065 C90.4073104,9.97007257 90.619955,10.0193945 90.8283749,10.0715348 C90.619955,10.0193945 90.4073104,9.97007257 90.1932575,9.92075065 M90.0031447,9.87706553 C90.0482085,9.88833911 90.0946805,9.89820349 90.1411525,9.90806788 C90.0946805,9.89820349 90.0482085,9.88833911 90.0031447,9.87706553 M89.5004021,9.76714812 C89.6539005,9.80096886 89.8088072,9.83338041 89.9594892,9.86720115 C89.8088072,9.83338041 89.6539005,9.79955967 89.5004021,9.76714812 M89.3102893,9.72769059 C89.3567613,9.73755497 89.4032334,9.74741936 89.4511136,9.75587454 C89.4032334,9.74741936 89.3553531,9.73614578 89.3102893,9.72769059 M89.1159519,9.68823306 C89.1610156,9.69668825 89.2088959,9.70655263 89.2539596,9.71641701 C89.2088959,9.70655263 89.1610156,9.69668825 89.1159519,9.68823306 M88.8117714,9.62622837 C88.9004907,9.64454794 88.9863935,9.66004911 89.0737046,9.67836868 C88.9863935,9.66145831 88.8990825,9.64454794 88.8117714,9.62622837 M88.6146175,9.58818004 C88.6554565,9.59663522 88.6962955,9.60368121 88.7385428,9.61213639 C88.6962955,9.60368121 88.6554565,9.59663522 88.6146175,9.58818004 M88.409014,9.5501317 C88.4498531,9.55717769 88.4935086,9.56563287 88.5357559,9.57408806 C88.4935086,9.56563287 88.4512613,9.55717769 88.409014,9.5501317 M88.0668111,9.48671781 C88.1583469,9.50362818 88.2456579,9.51912936 88.3357854,9.53603973 C88.2456579,9.51912936 88.1583469,9.50362818 88.0668111,9.48671781 M87.8935972,9.45712466 C87.9372528,9.46417065 87.9809083,9.47262584 88.0231556,9.47967182 C87.9795,9.47262584 87.9372528,9.46417065 87.8935972,9.45712466 M87.6879938,9.42189473 C87.7302411,9.42894071 87.7724884,9.4359867 87.8175521,9.44303269 C87.7724884,9.4359867 87.7316493,9.42894071 87.6879938,9.42189473 M87.4753492,9.38666479 C87.5204129,9.39230158 87.5668849,9.40075676 87.6105405,9.40780275 C87.5668849,9.40075676 87.5204129,9.39230158 87.4753492,9.38666479 M87.1641275,9.33593368 C87.2528468,9.35002565 87.3387496,9.36411763 87.4246524,9.3782096 C87.3387496,9.36411763 87.2528468,9.35002565 87.1641275,9.33593368 M86.9557076,9.30352213 C86.9965467,9.30915892 87.0416104,9.31620491 87.0824495,9.3232509 C87.0402022,9.31620491 86.9965467,9.30915892 86.9557076,9.30352213 M86.7416547,9.27111059 C86.7824938,9.27674738 86.8247411,9.28379337 86.8655801,9.28943016 C86.8247411,9.28379337 86.7824938,9.27674738 86.7416547,9.27111059 M86.4360661,9.22601627 C86.5078865,9.23728985 86.5797068,9.24715423 86.650119,9.25842781 C86.5811151,9.24715423 86.5078865,9.23728985 86.4360661,9.22601627 M86.2135638,9.19642312 C86.2544028,9.20065071 86.2938336,9.2062875 86.3346726,9.21192429 C86.2952418,9.2062875 86.2529946,9.20065071 86.2135638,9.19642312 M85.9924697,9.16542077 C86.0347169,9.17105756 86.0727395,9.17669435 86.1135785,9.18233114 C86.0727395,9.17669435 86.0333087,9.17105756 85.9924697,9.16542077 M85.7756003,9.13723682 C85.8122146,9.14287361 85.8488289,9.14710121 85.8854432,9.152738 C85.8474207,9.14710121 85.8122146,9.14287361 85.7756003,9.13723682 M85.4643787,9.09918849 C85.5207084,9.10623448 85.5756298,9.11328047 85.6305513,9.12032645 C85.5742216,9.11187127 85.5207084,9.10623448 85.4643787,9.09918849 M85.2320186,9.07100454 C85.2700412,9.07664133 85.3080637,9.08086892 85.3460863,9.08509651 C85.3080637,9.08086892 85.2700412,9.07664133 85.2320186,9.07100454 M85.0066998,9.04563898 C85.0447224,9.04986658 85.0827449,9.05409417 85.1221757,9.05973096 C85.0827449,9.05409417 85.0447224,9.04986658 85.0066998,9.04563898 M84.729276,9.01604584 C84.7799727,9.02168263 84.8306695,9.02731942 84.8827745,9.03295621 C84.8320777,9.02731942 84.7799727,9.02168263 84.729276,9.01604584 M84.4603017,8.98786188 C84.496916,8.99208948 84.5335303,8.99631707 84.5715528,8.99913547 C84.5335303,8.99631707 84.496916,8.99208948 84.4603017,8.98786188 M84.2279416,8.96531472 C84.2659642,8.96954232 84.3011702,8.97236071 84.340601,8.9765883 C84.3025785,8.97236071 84.2645559,8.96954232 84.2279416,8.96531472 M83.9941733,8.94417676 C84.0293794,8.94699516 84.0659937,8.95122275 84.1011998,8.95404114 C84.0659937,8.95122275 84.0293794,8.94699516 83.9941733,8.94417676 M83.6745023,8.91599281 C83.7097083,8.91881121 83.7463226,8.9216296 83.7815287,8.924448 C83.7463226,8.9216296 83.7097083,8.91881121 83.6745023,8.91599281 M83.4322845,8.89626404 C83.4717153,8.89908244 83.5097379,8.90190084 83.5491687,8.90612843 C83.5097379,8.90190084 83.4717153,8.89908244 83.4322845,8.89626404 M83.1942915,8.87794448 C83.2337223,8.88076287 83.2703366,8.88358127 83.3083592,8.88639966 C83.2703366,8.88358127 83.2323141,8.88076287 83.1942915,8.87794448 M82.9140512,8.85821571 C82.9605232,8.86103411 83.005587,8.8638525 83.0534673,8.8666709 C83.005587,8.8638525 82.9605232,8.86103411 82.9140512,8.85821571 M82.6324027,8.83989614 C82.6676088,8.84130534 82.7042231,8.84271454 82.7394291,8.84553293 C82.7042231,8.84271454 82.6676088,8.84130534 82.6324027,8.83989614 M82.3859602,8.82298577 C82.4225745,8.82580417 82.4591889,8.82862256 82.4943949,8.83003176 C82.4591889,8.82862256 82.4211663,8.82580417 82.3859602,8.82298577 M82.1437425,8.8088938 C82.1789486,8.81171219 82.2113381,8.81312139 82.2437277,8.81593979 C82.2099299,8.81312139 82.1789486,8.81171219 82.1437425,8.8088938 M81.8240714,8.79339262 C81.8536445,8.79480182 81.8860341,8.79621102 81.9170154,8.79762022 C81.8860341,8.79621102 81.8536445,8.79480182 81.8240714,8.79339262 M81.5593218,8.78070985 C81.5973444,8.78211904 81.6339587,8.78352824 81.670573,8.78634664 C81.6339587,8.78352824 81.5973444,8.78211904 81.5593218,8.78070985 M81.3128793,8.77084546 C81.3509019,8.77225466 81.3889244,8.77366386 81.4255387,8.77507306 C81.3875162,8.77366386 81.3509019,8.77225466 81.3128793,8.77084546 M81.0340473,8.76098108 C81.0692534,8.76239028 81.1030512,8.76239028 81.1396655,8.76379948 C81.1058677,8.76239028 81.0692534,8.76098108 81.0340473,8.76098108 M80.7340916,8.7511167 C80.7678894,8.7511167 80.7974625,8.7525259 80.8298521,8.75393509 C80.7974625,8.7525259 80.7650729,8.7511167 80.7340916,8.7511167 M80.4763832,8.74407071 C80.5087728,8.74547991 80.5411624,8.74547991 80.5749602,8.74688911 C80.5411624,8.74547991 80.5087728,8.74547991 80.4763832,8.74407071 M80.220083,8.73843392 C80.2496561,8.73984312 80.2806375,8.73984312 80.3102106,8.74125232 C80.2806375,8.73984312 80.2482479,8.73984312 80.220083,8.73843392" id="Fill-78" fill="#4E471C"></path>
                    <path d="M79.900412,8.73279713 C79.9257603,8.73420633 79.9497005,8.73420633 79.9750488,8.73420633 C79.9497005,8.73420633 79.9257603,8.73420633 79.900412,8.73279713 M79.6201717,8.72997874 C79.6539695,8.72997874 79.6877673,8.73138793 79.7201569,8.73138793 C79.6863591,8.73138793 79.6553777,8.72997874 79.6201717,8.72997874 M79.3624633,8.72856954 L79.4525908,8.72856954 L79.3624633,8.72856954 M79.1061631,8.72716034 C78.6794656,8.72716034 78.2485433,8.73279713 77.8105799,8.74266151 C78.2485433,8.73279713 78.6794656,8.72716034 79.1061631,8.72716034 L79.1301032,8.72716034 L79.1061631,8.72716034" id="Fill-79" fill="#4F471C"></path>
                    <path d="M50.0921398,41.6953367 L50.0921398,41.6953367 L50.5484104,44.3502649 C50.5512269,44.3516741 50.5512269,44.3530832 50.5540434,44.3544924 L50.0921398,41.6953367" id="Fill-80" fill="#494217"></path>
                    <path d="M80.2609221,5.45782206 C78.4597797,5.45782206 76.586817,5.58746823 74.6364009,5.87212613 C52.1059268,9.16119318 47.412254,39.692867 47.412254,39.692867 L50.5540434,44.379858 L50.5484104,44.3502649 L50.0921398,41.6953367 C50.0921398,41.6953367 55.3772745,9.23447145 77.8105799,8.74266151 C78.2485433,8.73279713 78.6794656,8.72716034 79.1061631,8.72716034 L79.1301032,8.72716034 C79.2061483,8.72716034 79.2850099,8.72856954 79.3624633,8.72856954 L79.4525908,8.72856954 C79.5089205,8.72856954 79.5652502,8.72997874 79.6201717,8.72997874 C79.6553777,8.72997874 79.6863591,8.73138793 79.7201569,8.73138793 C79.7807113,8.73138793 79.8412658,8.73279713 79.900412,8.73279713 C79.9257603,8.73420633 79.9497005,8.73420633 79.9750488,8.73420633 C80.0567269,8.73561553 80.138405,8.73702472 80.220083,8.73843392 C80.2482479,8.73984312 80.2806375,8.73984312 80.3102106,8.74125232 C80.365132,8.74125232 80.4214617,8.74266151 80.4763832,8.74407071 C80.5087728,8.74547991 80.5411624,8.74547991 80.5749602,8.74688911 C80.6284734,8.7482983 80.6819866,8.7497075 80.7340916,8.7511167 C80.7650729,8.7511167 80.7974625,8.7525259 80.8298521,8.75393509 C80.8974478,8.75534429 80.9664516,8.75816269 81.0340473,8.76098108 C81.0692534,8.76098108 81.1058677,8.76239028 81.1396655,8.76379948 C81.1959952,8.76661787 81.2551414,8.76802707 81.3128793,8.77084546 C81.3509019,8.77225466 81.3875162,8.77366386 81.4255387,8.77507306 C81.4706025,8.77789145 81.5156663,8.77930065 81.5593218,8.78070985 C81.5973444,8.78211904 81.6339587,8.78352824 81.670573,8.78634664 C81.7226779,8.78775583 81.7719664,8.79057423 81.8240714,8.79339262 C81.8536445,8.79480182 81.8860341,8.79621102 81.9170154,8.79762022 C81.9944688,8.80184781 82.0691056,8.8060754 82.1437425,8.8088938 C82.1789486,8.81171219 82.2099299,8.81312139 82.2437277,8.81593979 C82.291608,8.81734898 82.3394882,8.82016738 82.3859602,8.82298577 C82.4211663,8.82580417 82.4591889,8.82862256 82.4943949,8.83003176 C82.5408669,8.83285016 82.5873389,8.83566855 82.6324027,8.83989614 C82.6676088,8.84130534 82.7042231,8.84271454 82.7394291,8.84553293 C82.7971671,8.84976053 82.854905,8.85398812 82.9140512,8.85821571 C82.9605232,8.86103411 83.005587,8.8638525 83.0534673,8.8666709 C83.0999393,8.87089849 83.1478195,8.87371688 83.1942915,8.87794448 C83.2323141,8.88076287 83.2703366,8.88358127 83.3083592,8.88639966 C83.3491982,8.88921806 83.3914455,8.89344565 83.4322845,8.89626404 C83.4717153,8.89908244 83.5097379,8.90190084 83.5491687,8.90612843 C83.5900077,8.90894682 83.6336632,8.91317442 83.6745023,8.91599281 C83.7097083,8.91881121 83.7463226,8.9216296 83.7815287,8.924448 C83.8519408,8.93149398 83.922353,8.93713077 83.9941733,8.94417676 C84.0293794,8.94699516 84.0659937,8.95122275 84.1011998,8.95404114 C84.1448553,8.95826874 84.1842861,8.96108713 84.2279416,8.96531472 C84.2645559,8.96954232 84.3025785,8.97236071 84.340601,8.9765883 C84.3786236,8.9808159 84.4194626,8.98504349 84.4603017,8.98786188 C84.496916,8.99208948 84.5335303,8.99631707 84.5715528,8.99913547 C84.6236578,9.00477226 84.6757628,9.01040905 84.729276,9.01604584 C84.7799727,9.02168263 84.8320777,9.02731942 84.8827745,9.03295621 C84.9236135,9.0371838 84.9630443,9.04141139 85.0066998,9.04563898 C85.0447224,9.04986658 85.0827449,9.05409417 85.1221757,9.05973096 C85.1601983,9.06395855 85.1954043,9.06818614 85.2320186,9.07100454 C85.2700412,9.07664133 85.3080637,9.08086892 85.3460863,9.08509651 C85.3855171,9.08932411 85.4235396,9.0949609 85.4643787,9.09918849 C85.5207084,9.10623448 85.5742216,9.11187127 85.6305513,9.12032645 C85.6770233,9.12596324 85.7263118,9.13160003 85.7756003,9.13723682 C85.8122146,9.14287361 85.8474207,9.14710121 85.8854432,9.152738 C85.9220575,9.15696559 85.9572636,9.16119318 85.9924697,9.16542077 C86.0333087,9.17105756 86.0727395,9.17669435 86.1135785,9.18233114 C86.1473764,9.18655874 86.1811742,9.19219553 86.2135638,9.19642312 C86.2529946,9.20065071 86.2952418,9.2062875 86.3346726,9.21192429 C86.3670622,9.21615189 86.4022683,9.22178868 86.4360661,9.22601627 C86.5078865,9.23728985 86.5811151,9.24715423 86.650119,9.25842781 C86.6811003,9.2626554 86.7106734,9.266883 86.7416547,9.27111059 C86.7824938,9.27674738 86.8247411,9.28379337 86.8655801,9.28943016 C86.8951532,9.29365775 86.9261345,9.29929454 86.9557076,9.30352213 C86.9965467,9.30915892 87.0402022,9.31620491 87.0824495,9.3232509 C87.1106143,9.32747849 87.1373709,9.33170608 87.1641275,9.33593368 C87.2528468,9.35002565 87.3387496,9.36411763 87.4246524,9.3782096 C87.4415513,9.381028 87.4598585,9.38384639 87.4753492,9.38666479 C87.5204129,9.39230158 87.5668849,9.40075676 87.6105405,9.40780275 C87.6358888,9.41343954 87.6612372,9.41766713 87.6879938,9.42189473 C87.7316493,9.42894071 87.7724884,9.4359867 87.8175521,9.44303269 C87.8414923,9.44866948 87.8696571,9.45289707 87.8935972,9.45712466 C87.9372528,9.46417065 87.9795,9.47262584 88.0231556,9.47967182 C88.0386462,9.48249022 88.0527287,9.48389942 88.0668111,9.48671781 C88.1583469,9.50362818 88.2456579,9.51912936 88.3357854,9.53603973 C88.3611338,9.54167652 88.3836657,9.54449491 88.409014,9.5501317 C88.4512613,9.55717769 88.4935086,9.56563287 88.5357559,9.57408806 C88.5625125,9.57831565 88.5892691,9.58395244 88.6146175,9.58818004 C88.6554565,9.59663522 88.6962955,9.60368121 88.7385428,9.61213639 C88.762483,9.61636399 88.7878313,9.62200078 88.8117714,9.62622837 C88.8990825,9.64454794 88.9863935,9.66145831 89.0737046,9.67836868 C89.087787,9.68118707 89.1018694,9.68400547 89.1159519,9.68823306 C89.1610156,9.69668825 89.2088959,9.70655263 89.2539596,9.71641701 C89.273675,9.7206446 89.2905739,9.723463 89.3102893,9.72769059 C89.3553531,9.73614578 89.4032334,9.74741936 89.4511136,9.75587454 C89.4666043,9.76010213 89.4835032,9.76432973 89.5004021,9.76714812 C89.6539005,9.79955967 89.8088072,9.83338041 89.9594892,9.86720115 C89.9749799,9.87001954 89.9904705,9.87424713 90.0031447,9.87706553 C90.0482085,9.88833911 90.0946805,9.89820349 90.1411525,9.90806788 C90.1580514,9.91229547 90.1763586,9.91652306 90.1932575,9.92075065 C90.4073104,9.97007257 90.619955,10.0193945 90.8283749,10.0715348 C90.8424573,10.0743532 90.8565398,10.0771716 90.8678057,10.0813992 C90.9170942,10.0926728 90.9663827,10.1053555 91.0128547,10.1180383 C91.0213042,10.1194475 91.0297536,10.1208567 91.0367948,10.1236751 C91.1931098,10.1617234 91.3480165,10.2025902 91.5043314,10.2434569 C91.5141891,10.2448661 91.5240468,10.2490937 91.5324962,10.2505029 C91.5803765,10.2631857 91.6310732,10.2772776 91.6803617,10.2899604 C91.6888112,10.2927788 91.6944441,10.294188 91.7028936,10.2970064 C91.9211712,10.3547835 92.1338159,10.4139698 92.3450523,10.4745653 L92.3464605,10.4759745 C102.471725,13.376103 107.818822,19.1679049 110.038213,22.21459 C110.693046,20.8363948 110.079052,19.9641015 110.079052,19.9641015 C110.079052,19.9641015 99.3031792,5.45923125 80.2609221,5.45782206" id="Fill-81" fill="#485454"></path>
                </g>
            </g>
        </g>
    </g>
</svg>