<?xml version="1.0" encoding="UTF-8" standalone="no"?>
<svg width="946px" height="999px" viewBox="0 0 946 999" version="1.1" xmlns="http://www.w3.org/2000/svg" xmlns:xlink="http://www.w3.org/1999/xlink" xmlns:sketch="http://www.bohemiancoding.com/sketch/ns">
    <!-- Generator: Sketch 3.4 (15575) - http://www.bohemiancoding.com/sketch -->
    <title>penguin-single-01-19</title>
    <desc>Created with Sketch.</desc>
    <defs>
        <path id="path-1" d="M65.0385424,3.48790323 L64.4657288,3.9233871 C39.0239322,36.1612903 16.978678,295.834677 5.10288136,363.725806 C-6.76081356,431.625 28.8343051,572.5 67.8501695,631.899194 C97.0475254,676.362903 163.324475,698.951613 249.58939,698.951613 C271.287729,698.951613 294.284983,697.524194 318.234237,694.66129 C308.815085,695.258065 299.097424,695.560484 289.093356,695.560484 C260.138034,695.560484 228.923729,693.024194 196.116034,687.899194 C65.5347119,667.540323 18.0597627,504.592742 16.3574576,402.770161 C14.8205424,309.766129 35.8895932,93.6129032 65.3854576,3.80241935 L65.0385424,3.48790323 L65.0385424,3.48790323 Z"></path>
        <path id="path-3" d="M0.242033898,1.18145161 L949.418305,1.18145161 L949.418305,1000 L0.242033898,1000"></path>
    </defs>
    <g id="Page-1" stroke="none" stroke-width="1" fill="none" fill-rule="evenodd" sketch:type="MSPage">
        <g id="penguin-single-01-19" sketch:type="MSLayerGroup" transform="translate(0.000000, -1.000000)">
            <path d="M41.4886441,499.439516 C41.4886441,298.08871 185.07122,134.858871 362.191627,134.858871 C539.312034,134.858871 682.89461,298.08871 682.89461,499.439516 C682.89461,700.798387 762.886814,864.024194 362.191627,864.024194 C-38.5035593,864.024194 41.4886441,700.798387 41.4886441,499.439516" id="Fill-1" fill="#75AED3" sketch:type="MSShapeGroup"></path>
            <path d="M530.42939,488.21371 C530.42939,488.21371 584.064102,590.653226 687.408542,638.108871 C790.752983,685.560484 792.729593,607.673387 738.578542,543.209677 C684.423458,478.762097 617.077525,308.971774 617.077525,308.971774 L530.42939,488.21371" id="Fill-3" fill="#181A1E" sketch:type="MSShapeGroup"></path>
            <path d="M567.004746,222.298387 C541.571017,190.044355 500.873017,149.326613 485.600678,135.745968 C470.340441,122.173387 407.605254,79.733871 375.378441,83.1290323 C306.229356,90.4112903 200.70661,134.03629 166.789593,203.637097 C132.87661,273.217742 107.442881,522.705645 109.137119,624.544355 C110.839424,726.366935 158.314373,889.314516 288.895695,909.673387 C419.452814,930.03629 524.612508,909.673387 563.620305,850.270161 C602.611966,790.866935 638.231288,649.995968 626.355492,582.100806 C614.499864,514.229839 592.45461,254.548387 567.004746,222.298387" id="Fill-4" fill="#FBF8DD" sketch:type="MSShapeGroup"></path>
            <g id="Group-7" transform="translate(92.779661, 221.774194)">
                <mask id="mask-2" sketch:name="Clip 6" fill="white">
                    <use xlink:href="#path-1"></use>
                </mask>
                <g id="Clip-6"></g>
                <path d="M-6.76081356,3.48790323 L318.234237,3.48790323 L318.234237,698.951613 L-6.76081356,698.951613 L-6.76081356,3.48790323 Z" id="Fill-5" fill="#E8E8E4" sketch:type="MSShapeGroup" mask="url(#mask-2)"></path>
            </g>
            <path d="M612.079525,623.71371 C602.599864,623.725806 562.874034,678.016129 504.777831,732.318548 C446.697763,786.625 370.25539,840.927419 287.334576,840.927419 C258.984339,840.927419 229.875729,834.584677 200.492814,819.721774 C62.8925085,750.145161 163.869051,240.080645 157.318,225.576613 C127.822136,315.387097 106.753085,531.540323 108.29,624.544355 C109.992305,726.366935 157.467254,889.314516 288.05261,909.673387 C320.856271,914.798387 352.07461,917.334677 381.025898,917.334677 C391.034,917.334677 400.747627,917.032258 410.170814,916.435484 C418.174068,915.467742 426.298339,914.354839 434.51539,913.072581 C565.088644,892.709677 612.567627,729.778226 614.269932,627.939516 C614.314305,625.048387 613.576102,623.71371 612.079525,623.71371" id="Fill-8" fill="#E1DFC8" sketch:type="MSShapeGroup"></path>
            <path d="M360.707153,903.495968 C194.514576,903.157258 143.735864,779.25 123.671254,702.475806 C103.505797,625.620968 175.180102,520.653226 190.976847,454.153226 C206.773593,387.645161 150.589458,318.16129 154.562847,263.483871 C158.532203,208.790323 235.853966,145.266129 270.331695,129.004032 C304.716644,112.822581 313.232203,150.681452 360.707153,151.040323 C406.140949,150.681452 416.253932,112.822581 450.650983,129.004032 C485.140814,145.266129 562.030949,208.790323 565.992237,263.483871 C569.957559,318.16129 513.910576,387.645161 529.699254,454.153226 C545.496,520.653226 617.416373,625.620968 597.254949,702.475806 C577.198407,779.25 527.452373,903.157258 360.707153,903.495968 L360.707153,903.495968 Z M368.02061,953.407258 C475.201288,953.407258 547.456475,892.141129 547.456475,892.141129 C597.218644,845.782258 632.132034,775.53629 650.724271,682.137097 C667.654542,599.939516 639.602814,526.362903 637.549559,456.092742 C636.629831,424.28629 637.864203,392.983871 633.318,368.693548 C597.706746,114.092742 454.204847,61.9193548 360.707153,61.5080645 C265.75322,61.9193548 123.227525,114.092742 87.6162712,368.693548 C83.0539322,392.983871 83.7961695,424.28629 82.8724068,456.092742 C80.8231864,526.362903 52.7754915,599.939516 69.693661,682.137097 C88.3020339,775.53629 123.203322,845.782258 172.973559,892.141129 C172.973559,892.141129 260.835898,953.407258 368.02061,953.407258 L368.02061,953.407258 Z" id="Fill-9" fill="#181A1E" sketch:type="MSShapeGroup"></path>
            <path d="M456.33878,209.104839 C440.360508,209.104839 427.371356,222.415323 427.371356,238.895161 C427.371356,255.350806 440.360508,268.689516 456.33878,268.689516 C472.325119,268.689516 485.350576,255.350806 485.350576,238.895161 C485.350576,222.415323 472.325119,209.104839 456.33878,209.104839" id="Fill-10" fill="#322F2A" sketch:type="MSShapeGroup"></path>
            <path d="M269.016644,209.104839 C252.941559,209.104839 239.984678,222.415323 239.984678,238.895161 C239.984678,255.350806 252.941559,268.689516 269.016644,268.689516 C284.962644,268.689516 297.992136,255.350806 297.992136,238.895161 C297.992136,222.415323 284.962644,209.104839 269.016644,209.104839" id="Fill-11" fill="#322F2A" sketch:type="MSShapeGroup"></path>
            <path d="M642.317627,868.298387 C635.581017,866.774194 628.787932,864.697581 622.180407,864.697581 L622.172339,864.697581 C599.937492,864.697581 582.535254,874.193548 563.148339,882.883065 C558.940983,884.754032 555.310475,887.185484 551.276576,889.032258 L551.276576,888.891129 L550.473831,888.891129 C505.487797,909.052419 448.674373,928.576613 362.663593,933.532258 C275.450712,938.544355 213.437593,913.443548 172.93322,887.705645 C173.602847,888.407258 174.252305,889.125 174.938068,889.826613 C170.597593,888 166.317627,886.084677 162.110271,884.225806 C142.72739,875.540323 124.40139,867.342742 102.162508,867.342742 C95.5348136,867.342742 88.7659322,868.08871 82.0131864,869.620968 C50.6738305,876.604839 50.218,901.346774 50.734339,908.717742 C53.9049831,948.693548 117.935051,998.629032 188.100678,999.935484 C189.435898,999.947581 190.912305,1000 192.275763,1000 C248.044407,1000 300.485085,979.548387 332.296407,963.66129 L332.417424,963.612903 C337.17339,964.064516 342.106847,964.395161 347.084678,964.641129 L347.629254,964.899194 C352.538508,965.129032 357.484068,965.504032 362.385254,965.504032 L363.119424,965.504032 C372.022237,965.504032 380.72739,964.794355 389.307492,964.076613 C390.142508,964.020161 390.985593,963.862903 391.812542,963.782258 L392.429729,962.576613 C424.20878,978.431452 476.169424,997.762097 531.966305,997.762097 L534.443119,997.762097 L536.230136,998.83871 C606.403831,997.528226 670.437932,947.483871 673.61261,907.508065 C674.10878,900.133065 673.665051,875.298387 642.317627,868.298387" id="Fill-12" fill="#E77837" sketch:type="MSShapeGroup"></path>
            <path d="M337.810746,85.1935484 L337.657458,83.8387097 C337.613085,83.4072581 337.564678,82.9798387 337.427525,82.2137097 C337.193559,80.8427419 336.999932,79.5040323 336.911186,78.3427419 C336.669153,75.9354839 336.568305,73.4959677 336.584441,71.0725806 C336.620746,66.2217742 337.205661,61.4032258 338.282712,56.8145161 C340.452949,47.6048387 344.692576,39.516129 349.799492,32.9233871 C354.918508,26.2943548 360.876576,21.0080645 367.117017,16.6290323 C373.377627,12.2741935 379.932712,8.70967742 386.721763,6.10887097 C381.860915,11.4596774 377.835085,17.3629032 374.583763,23.4032258 C371.35261,29.4516129 368.99278,35.7298387 367.915729,41.7782258 C366.822542,47.8266129 367.060542,53.5564516 368.492576,58.4435484 C369.214644,60.8951613 370.190847,63.1572581 371.401017,65.2540323 C372.006102,66.3064516 372.647492,67.3185484 373.365525,68.2983871 C373.724542,68.8427419 374.06339,69.1814516 374.374,69.4879032 C374.495017,69.5685484 374.749153,69.9677419 375.007322,70.3629032 L375.753593,71.5 L337.810746,85.1935484" id="Fill-13" fill="#181A1E" sketch:type="MSShapeGroup"></path>
            <g id="Group-17">
                <mask id="mask-4" sketch:name="Clip 15" fill="white">
                    <use xlink:href="#path-3"></use>
                </mask>
                <g id="Clip-15"></g>
                <path d="M344.269017,94.1572581 L343.425932,93.0887097 C343.159695,92.75 342.893458,92.4072581 342.373085,91.8306452 C341.453356,90.7862903 340.582034,89.75 339.896271,88.8145161 C338.415831,86.891129 337.048339,84.8709677 335.785729,82.8024194 C333.252441,78.6653226 331.211288,74.2620968 329.710678,69.7943548 C326.697356,60.8225806 326.035797,51.7137097 326.895017,43.4233871 C327.754237,35.0927419 330.03339,27.4596774 333.022508,20.4475806 C336.047932,13.4516129 339.738949,6.96774194 344.139932,1.18145161 C342.828915,8.28629032 342.518305,15.4233871 342.941864,22.2741935 C343.381559,29.1169355 344.688542,35.6935484 346.963661,41.4032258 C349.222644,47.1209677 352.445729,51.8629032 356.241627,55.2580645 C358.145627,56.9677419 360.16661,58.3709677 362.300542,59.516129 C363.369525,60.0927419 364.45061,60.6129032 365.580102,61.0685484 C366.169051,61.3427419 366.636983,61.4516129 367.064576,61.5483871 C367.205763,61.5524194 367.633356,61.7580645 368.060949,61.9596774 L369.295322,62.5322581 L344.269017,94.1572581" id="Fill-14" fill="#181A1E" sketch:type="MSShapeGroup" mask="url(#mask-4)"></path>
                <path d="M145.317153,344.866935 C112.840237,332.774194 87.7332542,358.814516 80.6174576,381.290323 L80.2503729,382.084677 C60.173661,445.25 38.2010169,516.818548 22.7269831,582.903226 C14.4937966,610.608871 8.53572881,635.564516 7.8499661,654.834677 C-4.16298305,724.802419 -3.39250847,779.854839 17.2207119,797.483871 C48.8666441,824.516129 72.6384068,765.951613 92.8159661,690.399194 C92.9571525,691.084677 136.232814,562.334677 147.745559,492.112903 C159.262339,421.895161 177.798102,356.955645 145.317153,344.866935" id="Fill-16" fill="#181A1E" sketch:type="MSShapeGroup" mask="url(#mask-4)"></path>
            </g>
            <path d="M363.482475,263.532258 C310.287458,263.532258 290.936847,288.370968 305.450814,318.233871 C319.976881,348.060484 339.343627,380.391129 363.482475,380.391129 C387.677797,380.391129 407.044542,348.060484 421.502034,318.233871 C436.060373,288.370968 416.681525,263.532258 363.482475,263.532258" id="Fill-18" fill="#E77837" sketch:type="MSShapeGroup"></path>
            <path d="M416.818678,285.637097 C407.064712,285.625 388.928305,304.467742 363.244475,364.858871 C362.086746,367.568548 359.977017,368.641129 357.298508,368.641129 C351.614746,368.641129 343.413831,363.790323 336.378712,358.935484 C329.359729,354.084677 323.53478,349.233871 322.631186,349.233871 C322.078542,349.233871 323.51461,351.205645 327.899458,356.383065 C335.26939,365.072581 341.485627,372.447581 348.480407,376.66129 C353.018542,379.040323 357.730136,380.391129 362.63939,380.391129 C386.810508,379.322581 406.201458,348.060484 420.658949,318.233871 C427.843322,303.5 426.306407,285.637097 416.818678,285.637097" id="Fill-19" fill="#DA6F32" sketch:type="MSShapeGroup"></path>
            <path d="M550.623085,149.157258 L550.623085,246.576613 C550.619051,254.330645 547.47261,261.330645 542.317288,266.5 C537.145831,271.653226 530.142983,274.798387 522.385797,274.802419 L442.300814,274.802419 C434.543627,274.798387 427.54078,271.653226 422.369322,266.5 C417.214,261.330645 414.067559,254.330645 414.063525,246.576613 L414.063525,149.157258 L389.860136,149.157258 L389.860136,246.576613 C389.856102,261 395.785932,274.16129 405.253492,283.608871 C414.704915,293.068548 427.871559,299 442.300814,298.995968 L522.385797,298.995968 C536.815051,299 549.981695,293.068548 559.433119,283.608871 C568.900678,274.16129 574.830508,261 574.826475,246.576613 L574.826475,149.157258 L550.623085,149.157258" id="Fill-20" fill="#464643" sketch:type="MSShapeGroup"></path>
            <path d="M314.398,149.157258 L314.398,246.576613 C314.398,254.330645 311.251559,261.330645 306.096237,266.5 C300.920746,271.653226 293.921932,274.798387 286.164746,274.802419 L206.075729,274.802419 C198.318542,274.798387 191.315695,271.653226 186.144237,266.5 C180.988915,261.330645 177.842475,254.330645 177.838441,246.576613 L177.838441,149.157258 L153.635051,149.157258 L153.635051,246.576613 C153.631017,261 159.564881,274.16129 169.032441,283.608871 C178.479831,293.068548 191.646475,299 206.075729,298.995968 L286.164746,298.995968 C300.594,299 313.760644,293.068548 323.208034,283.608871 C332.675593,274.16129 338.605424,261 338.60139,246.576613 L338.605424,149.157258 L314.402034,149.157258" id="Fill-21" fill="#464643" sketch:type="MSShapeGroup"></path>
            <path d="M154.986407,165.28629 L568.376271,165.28629 C577.287153,165.28629 584.511864,158.064516 584.511864,149.157258 C584.511864,140.25 577.287153,133.028226 568.376271,133.028226 L154.986407,133.028226 C146.075525,133.028226 138.850814,140.25 138.850814,149.157258 C138.850814,158.064516 146.075525,165.28629 154.986407,165.28629" id="Fill-22" fill="#464643" sketch:type="MSShapeGroup"></path>
            <path d="M402.022339,715.504032 L363.700305,731.633065 L325.378271,715.504032 L349.581661,437.278226 L377.818949,437.278226 L402.022339,715.504032" id="Fill-23" fill="#E57575" sketch:type="MSShapeGroup"></path>
            <path d="M402.022339,715.504032 L398.892034,708.068548 L363.700305,722.879032 L333.926102,710.350806 L356.979831,445.33871 L370.42078,445.33871 L393.986814,716.201613 L402.022339,715.504032 L398.892034,708.068548 L402.022339,715.504032 L410.061898,714.806452 L385.858508,436.580645 C385.491424,432.407258 382.006136,429.21371 377.818949,429.21371 L349.581661,429.21371 C345.394475,429.21371 341.905153,432.407258 341.546136,436.580645 L317.342746,714.806452 C317.036169,718.298387 319.01278,721.572581 322.247966,722.935484 L360.57,739.064516 C362.582915,739.91129 364.813661,739.91129 366.83061,739.064516 L405.152644,722.935484 C408.387831,721.572581 410.364441,718.298387 410.061898,714.806452 L402.022339,715.504032" id="Fill-24" fill="#E57575" sketch:type="MSShapeGroup"></path>
            <path d="M325.378271,417.116935 L402.022339,417.116935 L393.954542,465.504032 L333.446068,465.504032 L325.378271,417.116935" id="Fill-25" fill="#E57575" sketch:type="MSShapeGroup"></path>
            <path d="M327.174923,418.439516 L392.498305,425.181452 L387.121119,457.439516 L340.279492,457.439516 L331.521094,419.145081 L325.378271,417.116935 L325.378271,425.181452 L325.378271,417.116935 L317.41939,418.439516 L325.487186,466.826613 C326.136644,470.717742 329.500915,473.568548 333.446068,473.568548 L393.954542,473.568548 C397.899695,473.568548 401.263966,470.717742 401.913424,466.826613 L409.98122,418.439516 C410.368475,416.108871 409.706915,413.705645 408.178068,411.903226 C406.64922,410.100806 404.386203,409.052419 402.022339,409.052419 L325.378271,409.052419 C323.014407,409.052419 320.75139,410.100806 319.222542,411.903226 C317.693695,413.705645 317.032136,416.108871 317.41939,418.439516 L325.378271,417.116935 L327.174923,418.439516 Z" id="Fill-26" fill="#E57575" sketch:type="MSShapeGroup"></path>
            <path d="M79.4274576,357.931452 C79.4274576,357.931452 147.745559,492.112903 93.8728475,636.201613 C210.254847,441.310484 92.9208475,301.766129 92.9208475,301.766129 L79.4274576,357.931452" id="Fill-27" fill="#E57575" sketch:type="MSShapeGroup"></path>
            <path d="M638.985627,357.931452 C638.985627,357.931452 609.142847,503.137097 660.845322,632.169355 C541.107119,519.556452 625.496271,301.766129 625.496271,301.766129 L638.985627,357.931452" id="Fill-28" fill="#E57575" sketch:type="MSShapeGroup"></path>
            <path d="M844.758814,792.895161 L670.877627,745.262097 L759.401525,422.5 L933.282712,470.133065 L844.758814,792.895161" id="Fill-29" fill="#FFFFFF" sketch:type="MSShapeGroup"></path>
            <path d="M849.547043,775.23025 L849.022644,777.33871 L686.182237,732.733871 L766.174441,441.080645 L917.974068,482.66129 L833.718034,789.870968 L837.858338,774.305873 L849.022644,777.33871 L844.758814,792.895161 L855.795559,795.919355 L944.323492,473.157258 C945.444915,469.060484 945.368271,464.729839 944.105661,461.270161 C942.843051,457.810484 940.454983,455.375 937.546542,454.576613 L763.66939,406.947581 C757.570136,405.274194 750.720576,410.887097 748.360746,419.475806 L659.836847,742.237903 C658.715424,746.334677 658.792068,750.665323 660.054678,754.125 C661.317288,757.584677 663.705356,760.020161 666.609763,760.818548 L840.490949,808.447581 C843.39939,809.245968 846.695085,808.366935 849.547051,806.032258 C852.399017,803.697581 854.674136,800.016129 855.795559,795.919355 L844.758814,792.895161" id="Fill-30" fill="#C7C7C2" sketch:type="MSShapeGroup"></path>
            <path d="M853.673729,619.741935 L748.792373,591.012097 C745.74678,590.173387 742.317966,592.979839 741.140068,597.274194 C739.962169,601.572581 741.478915,605.729839 744.528542,606.564516 L849.405864,635.294355 C852.455492,636.129032 855.880271,633.326613 857.058169,629.028226 C858.240102,624.733871 856.723356,620.576613 853.673729,619.741935" id="Fill-31" fill="#C7C7C2" sketch:type="MSShapeGroup"></path>
            <path d="M844.073051,654.737903 L739.195729,626.008065 C736.146102,625.173387 732.721322,627.979839 731.53939,632.274194 C730.361492,636.568548 731.878237,640.729839 734.927864,641.564516 L839.80922,670.294355 C842.854814,671.129032 846.283627,668.322581 847.461525,664.028226 C848.639424,659.733871 847.122678,655.572581 844.073051,654.737903" id="Fill-32" fill="#C7C7C2" sketch:type="MSShapeGroup"></path>
            <path d="M835.541356,685.846774 L730.66,657.116935 C727.614407,656.282258 724.185593,659.08871 723.007695,663.383065 C721.829797,667.677419 723.346542,671.83871 726.396169,672.673387 L831.273492,701.403226 C834.323119,702.237903 837.751932,699.431452 838.929831,695.137097 C840.107729,690.842742 838.590983,686.681452 835.541356,685.846774" id="Fill-33" fill="#C7C7C2" sketch:type="MSShapeGroup"></path>
            <path d="M825.940678,720.846774 L721.063356,692.116935 C718.013729,691.282258 714.588949,694.08871 713.411051,698.383065 C712.233153,702.677419 713.749898,706.834677 716.795492,707.673387 L821.676847,736.403226 C824.726475,737.237903 828.151254,734.431452 829.329153,730.137097 C830.507051,725.842742 828.990305,721.681452 825.940678,720.846774" id="Fill-34" fill="#C7C7C2" sketch:type="MSShapeGroup"></path>
            <path d="M805.811525,540.298387 L805.674373,540.802419 L828.663559,547.100806 L829.587322,547.084677 L829.728508,546.580645 L829.308983,513.21371 L828.949966,513.116935 C826.912847,515.120968 819.200034,524.181452 805.811525,540.298387 L805.811525,540.298387 Z M835.932644,493.689516 C837.836644,494.21371 838.683763,496.971774 838.465932,501.967742 L838.272305,502.673387 L836.707153,506.415323 C837.110542,532.697581 837.453424,546.907258 837.735797,549.044355 C840.817695,550.790323 841.87861,553.427419 840.910475,556.955645 C840.551458,558.262097 839.494576,559.870968 837.743864,561.774194 C837.292068,566.596774 837.300136,570.58871 837.764034,573.745968 L837.558305,574.504032 C836.158542,577.729839 834.508678,579.080645 832.600644,578.560484 C830.220644,577.907258 829.454203,575.278226 830.305356,570.673387 L830.05122,561.508065 L821.221017,558.818548 L812.640915,556.467742 L796.198746,552.504032 C795.609797,552.415323 792.778,555.540323 787.711424,561.875 C786.311661,563.048387 785.149898,563.504032 784.222102,563.25 C782.265661,562.71371 781.551661,560.604839 782.072034,556.919355 L781.894542,556.870968 C782.124475,556.032258 784.250339,553.419355 788.272136,549.032258 L788.522237,548.830645 L788.590814,548.580645 C788.316508,547.241935 788.320542,545.689516 788.598881,543.923387 C790.757017,539.318548 793.137017,537.370968 795.734847,538.080645 L797.094271,538.451613 C817.538068,515.024194 827.969729,502.540323 828.393288,500.995968 L828.546576,499.737903 C829.280746,497.052419 831.305763,495.096774 834.613559,493.870968 L835.932644,493.689516 L835.932644,493.689516 Z" id="Fill-35" fill="#E57575" sketch:type="MSShapeGroup"></path>
            <path d="M877.812576,516.157258 C880.115932,517.580645 880.971119,519.366935 880.382169,521.516129 C878.050576,527.774194 876.437017,532.532258 875.541492,535.790323 L875.723017,535.83871 L884.964678,537.883065 C886.703288,538.358871 887.893288,539.806452 888.538712,542.217742 L888.401559,542.721774 C887.340644,546.584677 883.330949,547.564516 876.372475,545.657258 L872.693559,544.919355 L872.459593,545.072581 L872.391017,545.322581 C869.034814,556.532258 866.973492,562.03629 866.211085,561.826613 C865.05739,563.423387 863.835119,564.048387 862.548305,563.693548 C861.390576,562.112903 861.180814,559.979839 861.919017,557.294355 L861.810102,556.991935 L865.815763,543.794355 C863.480136,543.153226 859.934339,542.616935 855.186441,542.181452 C853.516407,541.725806 853.028305,539.677419 853.718102,536.040323 C854.948441,532.584677 856.352237,531.072581 857.921424,531.504032 L862.467627,533.020161 L868.720169,534.46371 L871.358339,525.544355 L872.907356,519.197581 C873.439831,517.254032 875.073559,516.237903 877.812576,516.157258" id="Fill-36" fill="#E57575" sketch:type="MSShapeGroup"></path>
        </g>
    </g>
</svg>