<svg xmlns="http://www.w3.org/2000/svg" width="185" height="54" viewBox="0 0 185 54">
    <defs>
        <linearGradient id="a" x1="91.783%" x2="-38.942%" y1="4.96%" y2="71.909%">
            <stop offset="0%" stop-color="#00A0FF"/>
            <stop offset=".66%" stop-color="#00A1FF"/>
            <stop offset="26.01%" stop-color="#00BEFF"/>
            <stop offset="51.22%" stop-color="#00D2FF"/>
            <stop offset="76.04%" stop-color="#00DFFF"/>
            <stop offset="100%" stop-color="#00E3FF"/>
        </linearGradient>
        <linearGradient id="b" x1="107.586%" x2="-130.492%" y1="50.016%" y2="50.016%">
            <stop offset="0%" stop-color="#FFE000"/>
            <stop offset="40.87%" stop-color="#FFBD00"/>
            <stop offset="77.54%" stop-color="#FFA500"/>
            <stop offset="100%" stop-color="#FF9C00"/>
        </linearGradient>
        <linearGradient id="c" x1="86.238%" x2="-50.131%" y1="118.549%" y2="297.303%">
            <stop offset="0%" stop-color="#FF3A44"/>
            <stop offset="100%" stop-color="#C31162"/>
        </linearGradient>
        <linearGradient id="d" x1="-18.801%" x2="42.094%" y1="-162.522%" y2="-80.255%">
            <stop offset="0%" stop-color="#32A071"/>
            <stop offset="6.85%" stop-color="#2DA771"/>
            <stop offset="47.62%" stop-color="#15CF74"/>
            <stop offset="80.09%" stop-color="#06E775"/>
            <stop offset="100%" stop-color="#00F076"/>
        </linearGradient>
    </defs>
    <g fill="none" fill-rule="nonzero">
        <path fill="#000" d="M178.148 54H6.852C3.085 54 0 50.96 0 47.25V6.75C0 3.04 3.085 0 6.852 0h171.296C181.915 0 185 3.04 185 6.75v40.5c0 3.71-3.085 6.75-6.852 6.75z"/>
        <path fill="#FFF" stroke="#FFF" stroke-width=".672" d="M65.597 13.568c0 1.133-.352 2.04-1.044 2.716-.797.802-1.834 1.206-3.105 1.206-1.215 0-2.252-.41-3.103-1.22-.852-.82-1.278-1.827-1.278-3.033 0-1.205.426-2.212 1.278-3.026.851-.816 1.888-1.226 3.103-1.226.605 0 1.181.12 1.732.344.548.226.995.531 1.318.907l-.735.716c-.564-.643-1.332-.96-2.315-.96-.886 0-1.654.299-2.306.9-.646.604-.969 1.386-.969 2.345 0 .96.323 1.749.969 2.352.652.595 1.42.9 2.306.9.94 0 1.732-.305 2.356-.907.411-.398.645-.947.706-1.65h-3.062v-.98h4.086c.049.213.063.418.063.616zM72.006 10.17h-3.731v2.577h3.364v.98h-3.364v2.578h3.731v.998h-4.787V9.172h4.787zM75.818 17.303h-1.014V10.17h-2.197v-.998h5.41v.998h-2.2zM82.757 17.303V9.172h1.265v8.131zM88.144 17.303h-1.006V10.17h-2.205v-.998h5.416v.998h-2.205zM100.852 16.257c-.808.823-1.81 1.233-3.004 1.233-1.202 0-2.203-.41-3.012-1.233-.806-.82-1.208-1.828-1.208-3.02 0-1.191.402-2.199 1.208-3.02.809-.822 1.81-1.232 3.012-1.232 1.188 0 2.19.41 2.998 1.24.813.827 1.215 1.827 1.215 3.012 0 1.192-.402 2.2-1.209 3.02zm-5.235-.681c.609.608 1.349.913 2.23.913.876 0 1.623-.305 2.224-.913.607-.61.915-1.39.915-2.339 0-.947-.308-1.729-.915-2.338-.601-.608-1.348-.914-2.223-.914-.882 0-1.622.306-2.23.914-.607.61-.915 1.39-.915 2.338 0 .948.308 1.73.914 2.339zM103.505 17.303V9.172h1.368l4.25 6.324h.05l-.05-1.563V9.172h1.126v8.131h-1.174l-4.452-6.636h-.05l.05 1.57v5.066z"/>
        <path fill="#FFF" d="M93.957 28.89c-3.21 0-5.833 2.46-5.833 5.854 0 3.365 2.623 5.85 5.833 5.85 3.217 0 5.84-2.485 5.84-5.85 0-3.394-2.623-5.853-5.84-5.853zm0 9.4c-1.761 0-3.277-1.464-3.277-3.546 0-2.11 1.516-3.549 3.277-3.549 1.762 0 3.284 1.438 3.284 3.549 0 2.082-1.522 3.546-3.284 3.546zm-12.727-9.4c-3.217 0-5.833 2.46-5.833 5.854 0 3.365 2.616 5.85 5.833 5.85 3.216 0 5.833-2.485 5.833-5.85 0-3.394-2.617-5.853-5.833-5.853zm0 9.4c-1.763 0-3.284-1.464-3.284-3.546 0-2.11 1.521-3.549 3.284-3.549 1.762 0 3.277 1.438 3.277 3.549 0 2.082-1.515 3.546-3.277 3.546zm-15.144-7.606v2.487h5.9c-.173 1.39-.634 2.412-1.342 3.124-.86.86-2.202 1.814-4.558 1.814-3.63 0-6.474-2.95-6.474-6.604 0-3.655 2.843-6.605 6.474-6.605 1.963 0 3.391.773 4.445 1.774l1.741-1.753c-1.474-1.417-3.435-2.506-6.186-2.506-4.979 0-9.163 4.078-9.163 9.09s4.184 9.09 9.163 9.09c2.69 0 4.712-.888 6.301-2.553 1.628-1.639 2.136-3.943 2.136-5.804 0-.578-.048-1.11-.134-1.554h-8.303zm61.927 1.929c-.48-1.31-1.961-3.722-4.978-3.722-2.99 0-5.48 2.371-5.48 5.853 0 3.278 2.464 5.85 5.767 5.85 2.67 0 4.211-1.638 4.845-2.593l-1.982-1.33c-.661.974-1.562 1.619-2.863 1.619-1.294 0-2.222-.597-2.816-1.773l7.775-3.239-.268-.665zm-7.927 1.948c-.067-2.256 1.74-3.412 3.036-3.412 1.015 0 1.876.51 2.163 1.242l-5.2 2.17zm-6.32 5.678h2.556v-17.2h-2.556v17.2zm-4.186-10.045h-.086c-.574-.684-1.669-1.303-3.056-1.303-2.911 0-5.573 2.573-5.573 5.871 0 3.28 2.662 5.833 5.573 5.833 1.387 0 2.482-.625 3.056-1.33h.086v.84c0 2.237-1.188 3.44-3.103 3.44-1.561 0-2.53-1.136-2.93-2.09l-2.223.934c.641 1.55 2.338 3.46 5.153 3.46 2.997 0 5.526-1.775 5.526-6.094V29.247h-2.423v.947zm-2.923 8.096c-1.762 0-3.236-1.484-3.236-3.528 0-2.062 1.474-3.567 3.236-3.567 1.735 0 3.104 1.505 3.104 3.567 0 2.044-1.369 3.528-3.104 3.528zm33.323-15.25h-6.113v17.199h2.549v-6.517h3.564c2.83 0 5.607-2.062 5.607-5.342 0-3.278-2.783-5.34-5.607-5.34zm.066 8.29h-3.63v-5.898h3.63c1.904 0 2.99 1.59 2.99 2.948 0 1.331-1.086 2.95-2.99 2.95zm15.758-2.472c-1.842 0-3.757.819-4.545 2.633l2.262.955c.487-.955 1.383-1.264 2.33-1.264 1.322 0 2.663.8 2.683 2.211v.181c-.461-.268-1.449-.666-2.663-.666-2.437 0-4.92 1.35-4.92 3.87 0 2.305 1.996 3.79 4.24 3.79 1.715 0 2.662-.78 3.256-1.686h.087v1.33h2.462v-6.598c0-3.05-2.262-4.756-5.192-4.756zm-.307 9.425c-.834 0-1.996-.416-1.996-1.457 0-1.33 1.449-1.842 2.703-1.842 1.122 0 1.649.25 2.33.578-.2 1.593-1.561 2.721-3.037 2.721zm14.469-9.048l-2.93 7.455h-.087l-3.03-7.455h-2.748l4.551 10.419-2.597 5.798h2.664l7.013-16.217h-2.836zm-22.978 11.004h2.556v-17.2h-2.556v17.2z"/>
        <path fill="url(#a)" d="M1.047 34.534c-.407-.42-.642-1.075-.642-1.922V2.392c0-.846.235-1.5.642-1.92l.1-.093 17.17 16.927v.4L1.148 34.633l-.1-.1z" transform="matrix(1 0 0 -1 13.214 43.811)"/>
        <path fill="url(#b)" d="M6.189 0L.547 5.828v.413l5.649 5.828.126-.076 6.69-3.927c1.909-1.115 1.909-2.948 0-4.07L6.322.076 6.189 0z" transform="matrix(1 0 0 -1 31.511 32.604)"/>
        <path fill="url(#c)" d="M23.66 12.075l-5.836 5.805L.6.746c.64-.67 1.686-.751 2.874-.081l20.185 11.41" transform="matrix(1 0 0 -1 14.23 44.83)"/>
        <path fill="url(#d)" d="M23.66 5.893L3.475 17.474c-1.188.674-2.233.592-2.874-.088L17.824 0l5.836 5.893z" transform="matrix(1 0 0 -1 14.23 26.49)"/>
    </g>
</svg>
