<?xml version="1.0" encoding="UTF-8" standalone="no"?>
<svg
   xmlns:dc="http://purl.org/dc/elements/1.1/"
   xmlns:cc="http://creativecommons.org/ns#"
   xmlns:rdf="http://www.w3.org/1999/02/22-rdf-syntax-ns#"
   xmlns:svg="http://www.w3.org/2000/svg"
   xmlns="http://www.w3.org/2000/svg"
   viewBox="0 0 376.52625 349.16251"
   height="349.16251"
   width="376.52625"
   xml:space="preserve"
   version="1.1"
   id="svg3469"><metadata
     id="metadata3475"><rdf:RDF><cc:Work
         rdf:about=""><dc:format>image/svg+xml</dc:format><dc:type
           rdf:resource="http://purl.org/dc/dcmitype/StillImage" /><dc:title></dc:title></cc:Work></rdf:RDF></metadata><defs
     id="defs3473"><clipPath
       id="clipPath3483"
       clipPathUnits="userSpaceOnUse"><path
         id="path3485"
         d="m 0,279.33 301.221,0 L 301.221,0 0,0 0,279.33 Z" /></clipPath></defs><g
     transform="matrix(1.25,0,0,-1.25,0,349.1625)"
     id="g3477"><g
       id="g3479"><g
         clip-path="url(#clipPath3483)"
         id="g3481"><g
           transform="translate(275.2925,80.7393)"
           id="g3487"><path
             id="path3489"
             style="fill:#d83d3d;fill-opacity:1;fill-rule:evenodd;stroke:none"
             d="m 0,0 c -1.546,3.526 -5.442,8.14 -8.661,10.253 l -22.51,14.781 c -3.219,2.113 -8.952,3.285 -12.741,2.605 l -13.311,-2.39 c -3.789,-0.681 -9.179,-3.4 -11.978,-6.044 l -32.377,-30.588 c -2.799,-2.643 -4.741,-7.937 -4.317,-11.763 l 3.719,-33.654 c 0.425,-3.826 3.923,-7.144 7.773,-7.144 l 87.22,0 c 3.85,0 8.008,3.172 9.241,6.819 l 7.722,22.963 c 1.233,3.647 0.977,9.563 -0.569,13.09 L 0,0 Z" /></g><g
           transform="translate(233.7573,104.5713)"
           id="g3491"><path
             id="path3493"
             style="fill:#d83d3d;fill-opacity:1;fill-rule:nonzero;stroke:none"
             d="m 0,0 c -0.625,0 -1.188,-0.044 -1.67,-0.13 l -13.31,-2.391 c -3.045,-0.546 -7.69,-2.889 -9.939,-5.014 l -32.377,-30.587 c -1.871,-1.768 -3.372,-5.857 -3.088,-8.415 l 3.719,-33.655 c 0.205,-1.841 2.05,-3.584 3.797,-3.584 l 87.221,0 c 2.051,0 4.751,2.03 5.451,4.099 l 7.72,22.958 c 0.92,2.722 0.708,7.585 -0.441,10.208 l -9.213,21.076 c -1.242,2.833 -4.603,6.813 -7.191,8.512 L 8.169,-2.142 C 6.278,-0.9 2.843,0 0,0 m 34.353,-91.776 -87.221,0 c -5.822,0 -11.093,4.801 -11.748,10.703 l -3.719,33.655 c -0.565,5.094 1.818,11.591 5.545,15.111 l 32.377,30.587 c 3.34,3.155 9.497,6.262 14.018,7.074 l 13.311,2.39 C -2.136,7.914 -1.099,8 0,8 4.434,8 9.363,6.645 12.56,4.546 l 22.509,-14.781 c 3.837,-2.519 8.286,-7.786 10.129,-11.991 l 9.213,-21.076 c 1.928,-4.398 2.234,-11.416 0.693,-15.972 l -7.72,-22.958 c -1.809,-5.354 -7.532,-9.544 -13.031,-9.544" /></g><g
           transform="translate(273.3755,115.8975)"
           id="g3495"><path
             id="path3497"
             style="fill:#d83d3d;fill-opacity:1;fill-rule:evenodd;stroke:none"
             d="M 0,0 0,17.21 13.281,15.306 23.846,2.534 0,0 Z" /></g><g
           transform="translate(277.3755,128.4932)"
           id="g3499"><path
             id="path3501"
             style="fill:#d83d3d;fill-opacity:1;fill-rule:nonzero;stroke:none"
             d="M 0,0 0,-8.148 12.016,-6.871 7.184,-1.03 0,0 Z m -4,-16.596 c -0.982,0 -1.937,0.363 -2.675,1.026 -0.844,0.758 -1.325,1.84 -1.325,2.974 l 0,17.21 c 0,1.16 0.504,2.263 1.38,3.023 0.877,0.759 2.037,1.096 3.187,0.937 L 9.849,6.67 c 0.984,-0.142 1.88,-0.645 2.514,-1.41 L 22.928,-7.512 c 0.939,-1.135 1.177,-2.694 0.622,-4.059 -0.556,-1.365 -1.817,-2.313 -3.281,-2.468 L -3.577,-16.573 C -3.719,-16.588 -3.859,-16.596 -4,-16.596" /></g><g
           transform="translate(226.0366,107.4189)"
           id="g3503"><path
             id="path3505"
             style="fill:#d83d3d;fill-opacity:1;fill-rule:evenodd;stroke:none"
             d="M 0,0 12.462,-41.434 46.446,-20.269 47.219,8.479 0,0 Z" /></g><g
           transform="translate(231.1597,104.2744)"
           id="g3507"><path
             id="path3509"
             style="fill:#d83d3d;fill-opacity:1;fill-rule:nonzero;stroke:none"
             d="M 0,0 9.663,-32.129 37.383,-14.866 37.965,6.817 0,0 Z m 7.339,-42.289 c -0.477,0 -0.955,0.085 -1.412,0.258 -1.166,0.439 -2.06,1.397 -2.418,2.59 L -8.953,1.992 c -0.329,1.093 -0.176,2.273 0.421,3.245 0.596,0.972 1.58,1.643 2.702,1.845 l 47.219,8.479 c 1.184,0.211 2.401,-0.12 3.314,-0.905 0.912,-0.784 1.424,-1.937 1.392,-3.14 l -0.773,-28.747 c -0.036,-1.343 -0.744,-2.579 -1.884,-3.289 L 9.453,-41.685 c -0.642,-0.4 -1.376,-0.604 -2.114,-0.604" /></g><g
           transform="translate(276.5454,116.4316)"
           id="g3511"><path
             id="path3513"
             style="fill:#8c0c0c;fill-opacity:1;fill-rule:nonzero;stroke:none"
             d="m 0,0 c -0.583,0 -1.144,0.256 -1.526,0.708 -0.447,0.527 -0.589,1.247 -0.378,1.904 l 2.872,8.932 c 0.339,1.051 1.464,1.632 2.516,1.292 1.052,-0.339 1.63,-1.465 1.292,-2.517 L 2.887,4.442 5.454,4.817 C 6.536,4.982 7.563,4.222 7.722,3.128 7.882,2.035 7.125,1.02 6.032,0.86 L 0.289,0.021 C 0.192,0.007 0.096,0 0,0" /></g><g
           transform="translate(279.4194,107.8574)"
           id="g3515"><path
             id="path3517"
             style="fill:#ffffff;fill-opacity:1;fill-rule:nonzero;stroke:none"
             d="m 0,0 c -0.729,0 -1.431,0.398 -1.784,1.092 -4.231,8.301 -11.208,8.877 -11.279,8.882 -1.101,0.076 -1.932,1.031 -1.856,2.133 0.077,1.103 1.028,1.929 2.134,1.857 C -12.407,13.938 -3.468,13.204 1.78,2.908 2.281,1.924 1.891,0.72 0.906,0.218 0.615,0.07 0.306,0 0,0" /></g><g
           transform="translate(262.9097,66.8574)"
           id="g3519"><path
             id="path3521"
             style="fill:#ffffff;fill-opacity:1;fill-rule:nonzero;stroke:none"
             d="M 0,0 C -0.092,0 -0.184,0.006 -0.277,0.019 -1.371,0.17 -2.136,1.18 -1.984,2.274 l 6.758,48.897 c 0.138,0.991 0.986,1.767 1.981,1.767 l 0.054,0 c 1.017,0 1.853,-0.856 1.94,-1.872 L 12.758,3.985 C 12.852,2.885 12.035,1.906 10.935,1.813 9.824,1.718 8.865,2.529 8.771,3.63 L 6.283,32.846 1.979,1.727 C 1.84,0.726 0.982,0 0,0" /></g><g
           transform="translate(191.5132,242.938)"
           id="g3523"><path
             id="path3525"
             style="fill:#ffffff;fill-opacity:1;fill-rule:evenodd;stroke:none"
             d="M 0,0 C 0,7.312 5.928,13.24 13.24,13.24 20.553,13.24 26.48,7.312 26.48,0 26.48,-7.313 20.553,-13.24 13.24,-13.24 5.928,-13.24 0,-7.312 0,0" /></g><g
           transform="translate(85.3755,212.0703)"
           id="g3527"><path
             id="path3529"
             style="fill:#ff5050;fill-opacity:1;fill-rule:evenodd;stroke:none"
             d="m 0,0 -1.105,6.36 c 8.772,35.365 49.9,55.899 49.9,55.899 L 112.731,33.557 91.01,33.393 95.481,7.993 94.145,-3.107 0,0 Z" /></g><g
           transform="translate(89.6055,216.9336)"
           id="g3531"><path
             id="path3533"
             style="fill:#ff5050;fill-opacity:1;fill-rule:nonzero;stroke:none"
             d="m 0,0 85.499,-2.822 0.7,5.815 -4.343,24.67 c -0.256,1.449 0.141,2.936 1.082,4.067 0.728,0.873 1.724,1.465 2.817,1.694 L 44.771,51.822 C 36.736,47.295 7.246,29.045 -0.224,1.29 L 0,0 Z m 89.917,-12.97 c -0.056,0 -0.112,0.001 -0.167,0.003 L -4.395,-9.86 c -2.368,0.078 -4.355,1.807 -4.761,4.141 l -1.105,6.36 c -0.119,0.684 -0.094,1.385 0.073,2.059 9.222,37.177 50.756,58.288 52.52,59.169 1.341,0.671 2.912,0.702 4.281,0.088 l 63.936,-28.702 c 2.145,-0.963 3.329,-3.289 2.845,-5.59 -0.483,-2.3 -2.504,-3.953 -4.854,-3.971 L 92.729,23.575 96.175,3.997 c 0.086,-0.484 0.099,-0.977 0.04,-1.465 l -1.337,-11.1 c -0.302,-2.519 -2.441,-4.402 -4.961,-4.402" /></g><g
           transform="translate(82.3179,198.8345)"
           id="g3535"><path
             id="path3537"
             style="fill:#ffffff;fill-opacity:1;fill-rule:nonzero;stroke:none"
             d="m 0,0 c -1.964,0 -3.948,0.577 -5.686,1.781 -4.54,3.144 -5.67,9.374 -2.525,13.914 0.911,1.316 22.714,32.216 57.411,32.216 34.696,0 56.499,-30.901 57.41,-32.216 3.145,-4.54 2.014,-10.77 -2.526,-13.915 C 99.543,-1.364 93.315,-0.234 90.169,4.307 90.022,4.516 73.303,27.911 49.2,27.911 24.861,27.911 8.393,4.543 8.229,4.307 6.288,1.504 3.169,0 0,0" /></g><g
           transform="translate(180.5142,192.8691)"
           id="g3539"><path
             id="path3541"
             style="fill:#f9f7e1;fill-opacity:1;fill-rule:evenodd;stroke:none"
             d="m 0,0 c -6.305,7.999 -16.395,18.096 -20.18,21.465 -3.783,3.366 -19.336,13.891 -27.324,13.048 -17.143,-1.805 -43.301,-12.625 -51.709,-29.885 -8.408,-17.256 -14.713,-79.129 -14.293,-104.386 0.422,-25.252 12.191,-65.662 44.563,-70.711 32.365,-5.051 58.433,0 68.103,14.733 9.666,14.73 18.496,49.668 15.553,66.506 C 11.773,-72.399 6.309,-7.998 0,0" /></g><g
           transform="translate(131.394,182.6431)"
           id="g3543"><path
             id="path3545"
             style="fill:#ff812c;fill-opacity:1;fill-rule:evenodd;stroke:none"
             d="M 0,0 C -13.187,0 -17.984,-6.161 -14.386,-13.566 -10.785,-20.963 -5.984,-28.98 0,-28.98 c 5.999,0 10.799,8.017 14.383,15.414 C 17.993,-6.161 13.188,0 0,0" /></g><g
           transform="translate(144.8257,177.1611)"
           id="g3547"><path
             id="path3549"
             style="fill:#e8772c;fill-opacity:1;fill-rule:evenodd;stroke:none"
             d="m 0,0 c -2.417,0.003 -6.914,-4.67 -13.281,-19.647 -0.287,-0.672 -0.81,-0.938 -1.474,-0.938 -1.409,0 -3.442,1.202 -5.186,2.406 -1.741,1.203 -3.184,2.408 -3.408,2.408 -0.137,0 0.219,-0.49 1.306,-1.775 1.827,-2.154 3.368,-3.983 5.102,-5.028 1.125,-0.59 2.293,-0.925 3.509,-0.925 5.993,0.264 10.8,8.018 14.384,15.415 C 2.733,-4.43 2.353,0 0,0" /></g><g
           transform="translate(131.5181,23.9316)"
           id="g3551"><path
             id="path3553"
             style="fill:#1d1f28;fill-opacity:1;fill-rule:evenodd;stroke:none"
             d="m 0,0 c -41.199,0.084 -53.787,30.813 -58.762,49.854 -4.998,19.058 12.77,45.091 16.686,61.584 3.916,16.493 -10.013,33.725 -9.028,47.285 0.985,13.564 20.153,29.319 28.7,33.351 8.524,4.014 10.634,-5.376 22.404,-5.465 11.263,0.089 13.77,9.479 22.297,5.465 8.55,-4.032 27.611,-19.787 28.593,-33.351 0.983,-13.56 -12.911,-30.792 -8.997,-47.285 C 45.809,94.945 63.638,68.912 58.64,49.854 53.668,30.813 41.336,0.084 0,0 m 1.812,-12.377 c 26.571,0 44.483,15.193 44.483,15.193 12.336,11.497 20.99,28.918 25.6,52.081 4.197,20.386 -2.757,38.633 -3.266,56.06 -0.229,7.885 0.078,15.651 -1.049,21.675 -8.828,63.139 -44.402,76.079 -67.58,76.181 -23.539,-0.102 -58.871,-13.042 -67.699,-76.181 -1.131,-6.024 -0.947,-13.79 -1.176,-21.675 -0.508,-17.427 -7.461,-35.674 -3.268,-56.06 4.614,-23.163 13.266,-40.584 25.604,-52.081 0,0 21.781,-15.193 48.351,-15.193" /></g><g
           transform="translate(200.8433,32.6611)"
           id="g3555"><path
             id="path3557"
             style="fill:#ff812c;fill-opacity:1;fill-rule:evenodd;stroke:none"
             d="m 0,0 c -1.67,0.378 -3.354,0.894 -4.992,0.894 l -0.002,0 c -5.512,0 -9.825,-2.356 -14.632,-4.51 -1.043,-0.466 -1.942,-1.069 -2.942,-1.526 l 0,0.036 -0.196,0 -0.004,0 c -11.152,-5 -25.236,-9.843 -46.558,-11.072 -21.62,-1.243 -36.992,4.982 -47.034,11.365 0.166,-0.174 0.327,-0.353 0.497,-0.526 -1.076,0.451 -2.137,0.928 -3.18,1.389 -4.805,2.153 -9.348,4.187 -14.861,4.187 -1.643,0 -3.321,-0.185 -4.994,-0.565 -7.77,-1.732 -7.883,-7.868 -7.755,-9.696 0.786,-9.914 16.659,-22.297 34.053,-22.622 0.33,-0.003 0.697,-0.015 1.036,-0.015 13.824,0 26.824,5.07 34.71,9.01 l 0.03,0.013 c 1.179,-0.113 2.402,-0.195 3.636,-0.256 l 0.135,-0.064 c 1.217,-0.057 2.443,-0.148 3.658,-0.148 l 0.182,0 c 2.207,0 4.365,0.175 6.492,0.351 0.207,0.016 0.416,0.055 0.621,0.076 l 0.153,0.297 c 7.879,-3.931 20.759,-8.724 34.592,-8.724 l 0.613,0 0.443,-0.268 C -8.903,-32.05 6.971,-19.638 7.758,-9.724 7.881,-7.896 7.771,-1.737 0,0" /></g><g
           transform="translate(164.2739,189.52)"
           id="g3559"><path
             id="path3561"
             style="fill:#3a3430;fill-opacity:1;fill-rule:nonzero;stroke:none"
             d="m 0,0 c 0.783,0.909 1.245,1.984 1.245,3.138 0,3.263 -3.62,5.899 -8.065,5.899 -4.446,0 -8.059,-2.636 -8.059,-5.899 0,-1.083 0.408,-2.098 1.108,-2.97 1.888,0.135 3.863,0.209 5.896,0.209 C -5.124,0.377 -2.479,0.242 0,0" /></g><g
           transform="translate(112.2393,189.6177)"
           id="g3563"><path
             id="path3565"
             style="fill:#3a3430;fill-opacity:1;fill-rule:nonzero;stroke:none"
             d="m 0,0 c 0.735,0.89 1.165,1.928 1.165,3.041 0,3.263 -3.622,5.898 -8.059,5.898 -4.468,0 -8.075,-2.635 -8.075,-5.898 0,-1.121 0.437,-2.165 1.177,-3.059 2.224,0.192 4.572,0.298 7.008,0.298 C -4.433,0.28 -2.16,0.182 0,0" /></g><g
           transform="translate(71.7915,154.354)"
           id="g3567"><path
             id="path3569"
             style="fill:#1d1f28;fill-opacity:1;fill-rule:evenodd;stroke:none"
             d="m 0,0 c 0,0 -21.859,20.786 -51.359,23.807 -29.5,3.022 -23.43,-16.381 -4.637,-27.741 18.791,-11.361 49.703,-47.625 49.703,-47.625 L 0,0 Z" /></g><g
           transform="translate(190.9985,154.354)"
           id="g3571"><path
             id="path3573"
             style="fill:#1d1f28;fill-opacity:1;fill-rule:evenodd;stroke:none"
             d="M 0,0 C 0,0 21.859,20.786 51.359,23.807 80.859,26.829 74.789,7.426 55.998,-3.934 37.207,-15.295 6.293,-51.559 6.293,-51.559 L 0,0 Z" /></g><g
           transform="translate(182.3755,242.7949)"
           id="g3575"><path
             id="path3577"
             style="fill:#cc2929;fill-opacity:1;fill-rule:nonzero;stroke:none"
             d="m 0,0 c -0.041,0 -0.083,0.002 -0.125,0.008 -0.401,0.051 -0.733,0.338 -0.84,0.729 l -3,11 c -0.145,0.533 0.169,1.082 0.702,1.228 0.528,0.142 1.082,-0.168 1.228,-0.702 L 0.327,3.6 2.037,6.607 C 2.308,7.087 2.918,7.257 3.4,6.983 3.881,6.71 4.049,6.099 3.775,5.619 L 0.869,0.506 C 0.69,0.19 0.356,0 0,0" /></g><g
           transform="translate(206.3755,100.6699)"
           id="g3579"><path
             id="path3581"
             style="fill:#ff5050;fill-opacity:1;fill-rule:evenodd;stroke:none"
             d="M 0,0 26.985,29.734 10.41,75.625 -6.622,61.352 c 0,0 -20.356,-31.227 -68.356,-31.227 -48,0 -68.683,31.227 -68.683,31.227 L -160.648,75.625 -177.149,29.734 -150,0 l -0.962,-20 -9.53,-26.875 71.27,-18.619 L -72,-32.209 -54.767,-65.466 10.324,-46.875 0.965,-20 0,0 Z" /></g><g
           transform="translate(131.3755,126.7949)"
           id="g3583"><path
             id="path3585"
             style="fill:#ffffff;fill-opacity:1;fill-rule:nonzero;stroke:none"
             d="m 0,0 c -49.559,0 -72.088,32.604 -73.023,33.992 -1.234,1.832 -0.749,4.318 1.083,5.552 1.829,1.233 4.312,0.75 5.548,-1.077 C -66.126,38.079 -45.081,8 0,8 c 45.127,0 65.217,29.202 66.05,30.445 1.228,1.832 3.708,2.33 5.545,1.106 1.835,-1.224 2.336,-3.698 1.116,-5.535 C 71.79,32.626 49.576,0 0,0" /></g><g
           transform="translate(29.0479,126.4033)"
           id="g3587"><path
             id="path3589"
             style="fill:#ffffff;fill-opacity:1;fill-rule:nonzero;stroke:none"
             d="M 0,0 C -0.452,0 -0.911,0.077 -1.36,0.239 -3.438,0.99 -4.513,3.283 -3.762,5.361 l 16.59,45.89 c 0.752,2.078 3.045,3.154 5.122,2.402 2.077,-0.751 3.153,-3.044 2.402,-5.121 L 3.762,2.641 C 3.173,1.013 1.637,0 0,0" /></g><g
           transform="translate(233.3755,126.4033)"
           id="g3591"><path
             id="path3593"
             style="fill:#ffffff;fill-opacity:1;fill-rule:nonzero;stroke:none"
             d="m 0,0 c -1.637,0 -3.173,1.013 -3.762,2.641 l -16.59,45.891 c -0.751,2.077 0.325,4.37 2.402,5.121 2.078,0.75 4.371,-0.324 5.122,-2.402 L 3.762,5.361 C 4.513,3.283 3.438,0.99 1.36,0.239 0.911,0.077 0.451,0 0,0" /></g><g
           transform="translate(134.3755,70.7949)"
           id="g3595"><path
             id="path3597"
             style="fill:#ffffff;fill-opacity:1;fill-rule:nonzero;stroke:none"
             d="m 0,0 c -2.209,0 -4,1.791 -4,4 l 0,56 c 0,2.209 1.791,4 4,4 2.209,0 4,-1.791 4,-4 L 4,4 C 4,1.791 2.209,0 0,0" /></g><g
           transform="translate(149.562,30.46)"
           id="g3599"><path
             id="path3601"
             style="fill:#ffffff;fill-opacity:1;fill-rule:nonzero;stroke:none"
             d="m 0,0 -15.184,29.302 -15.14,-29.263 -74.538,19.425 c -2.138,0.557 -3.419,2.742 -2.862,4.88 0.557,2.138 2.74,3.419 4.88,2.862 L -34.492,9.393 -15.188,46.7 4.094,9.488 66.054,27.182 c 2.124,0.607 4.339,-0.624 4.945,-2.748 0.606,-2.125 -0.624,-4.338 -2.748,-4.946 L 0,0 Z" /></g><g
           transform="translate(134.1704,65.7949)"
           id="g3603"><path
             id="path3605"
             style="fill:#1a1a1a;fill-opacity:1;fill-rule:nonzero;stroke:none"
             d="m 0,0 c -34.857,0 -81.945,4.842 -83.932,5.048 l 1.856,17.904 C -81.598,22.902 -33.916,18 0,18 c 33.862,0 74.93,4.887 75.341,4.936 L 77.487,5.064 C 75.767,4.857 34.93,0 0,0" /></g><path
           id="path3607"
           style="fill:#c69c6d;fill-opacity:1;fill-rule:nonzero;stroke:none"
           d="m 123.375,65.795 22,0 0,18 -22,0 0,-18 z m 26,-4 -30,0 0,26 30,0 0,-26 z" /><path
           id="path3609"
           style="fill:#c69c6d;fill-opacity:1;fill-rule:nonzero;stroke:none"
           d="m 146.375,72.795 -12,0 0,4 12,0 0,-4 z" /></g></g></g></svg>