<?xml version="1.0" encoding="UTF-8" standalone="no"?>
<svg width="208px" height="137px" viewBox="0 0 208 137" version="1.1" xmlns="http://www.w3.org/2000/svg" xmlns:xlink="http://www.w3.org/1999/xlink" xmlns:sketch="http://www.bohemiancoding.com/sketch/ns">
    <!-- Generator: Sketch 3.3.2 (12043) - http://www.bohemiancoding.com/sketch -->
    <title>school</title>
    <desc>Created with Sketch.</desc>
    <defs>
        <path id="path-1" d="M70,119.24324 C108.451,119.24324 139.6216,108.07258 139.6216,69.62162 C139.6216,31.1707 108.451,0 70,0 C31.54904,0 0.37838,31.1707 0.37838,69.62162 C0.37838,108.07258 31.54904,119.24324 70,119.24324 L70,119.24324 Z"></path>
        <path id="path-3" d="M0,0 L194,0 L194,3 L0,3 L0,0 L0,0 Z"></path>
        <path id="path-5" d="M0,0 L208,0 L208,3 L0,3 L0,0 L0,0 Z"></path>
        <path id="path-7" d="M0,0 L59,0 L59,47 L0,47 L0,0 L0,0 Z"></path>
        <path id="path-9" d="M0,0 L59,0 L59,47 L0,47 L0,0 L0,0 Z"></path>
        <path id="path-11" d="M0,0 L87,0 L87,57 L0,57 L0,0 L0,0 Z"></path>
        <path id="path-13" d="M49,0 L98,23 L0,23 L49,0 L49,0 Z"></path>
        <path id="path-15" d="M0,4.00237 C0,1.79192 1.79536,0 4,0 L4,0 C6.20914,0 8,1.79182 8,4.00237 L8,11 L0,11 L0,4.00237 L0,4.00237 Z"></path>
        <path id="path-17" d="M0,4.00237 C0,1.79192 1.79536,0 4,0 L4,0 C6.20914,0 8,1.79182 8,4.00237 L8,11 L0,11 L0,4.00237 L0,4.00237 Z"></path>
        <path id="path-19" d="M0,4.00237 C0,1.79192 1.7954,0 4,0 L4,0 C6.2091,0 8,1.79182 8,4.00237 L8,11 L0,11 L0,4.00237 L0,4.00237 Z"></path>
        <path id="path-21" d="M0,4.00237 C0,1.79192 1.79536,0 4,0 L4,0 C6.20914,0 8,1.79182 8,4.00237 L8,11 L0,11 L0,4.00237 L0,4.00237 Z"></path>
        <path id="path-23" d="M0,4.00237 C0,1.79192 1.7954,0 4,0 L4,0 C6.2091,0 8,1.79182 8,4.00237 L8,11 L0,11 L0,4.00237 L0,4.00237 Z"></path>
        <path id="path-25" d="M0,4.00237 C0,1.79192 1.79536,0 4,0 L4,0 C6.20914,0 8,1.79182 8,4.00237 L8,11 L0,11 L0,4.00237 L0,4.00237 Z"></path>
        <path id="path-27" d="M0,4.00237 C0,1.79192 1.7954,0 4,0 L4,0 C6.2091,0 8,1.79182 8,4.00237 L8,11 L0,11 L0,4.00237 L0,4.00237 Z"></path>
        <path id="path-29" d="M0,4.00237 C0,1.79192 1.79536,0 4,0 L4,0 C6.20914,0 8,1.79182 8,4.00237 L8,11 L0,11 L0,4.00237 L0,4.00237 Z"></path>
        <path id="path-31" d="M0,4.00237 C0,1.79192 1.7954,0 4,0 L4,0 C6.2091,0 8,1.79182 8,4.00237 L8,11 L0,11 L0,4.00237 L0,4.00237 Z"></path>
        <path id="path-33" d="M0,4.00237 C0,1.79192 1.79536,0 4,0 L4,0 C6.20914,0 8,1.79182 8,4.00237 L8,11 L0,11 L0,4.00237 L0,4.00237 Z"></path>
        <path id="path-35" d="M0,4.00237 C0,1.79192 1.7954,0 4,0 L4,0 C6.2091,0 8,1.79182 8,4.00237 L8,11 L0,11 L0,4.00237 L0,4.00237 Z"></path>
        <path id="path-37" d="M0,4.00237 C0,1.79192 1.79536,0 4,0 L4,0 C6.20914,0 8,1.79182 8,4.00237 L8,11 L0,11 L0,4.00237 L0,4.00237 Z"></path>
        <path id="path-39" d="M0,4.00237 C0,1.79192 1.7954,0 4,0 L4,0 C6.2091,0 8,1.79182 8,4.00237 L8,11 L0,11 L0,4.00237 L0,4.00237 Z"></path>
        <path id="path-41" d="M0,4.00237 C0,1.79192 1.79536,0 4,0 L4,0 C6.20914,0 8,1.79182 8,4.00237 L8,11 L0,11 L0,4.00237 L0,4.00237 Z"></path>
        <path id="path-43" d="M0,4.00237 C0,1.79192 1.7954,0 4,0 L4,0 C6.2091,0 8,1.79182 8,4.00237 L8,11 L0,11 L0,4.00237 L0,4.00237 Z"></path>
        <path id="path-45" d="M0,6.9927 C0,3.13074 3.14187,0 7,0 L7,0 C10.866,0 14,3.14391 14,6.9927 L14,21 L0,21 L0,6.9927 L0,6.9927 Z"></path>
        <path id="path-47" d="M0,4.00237 C0,1.79192 1.7954,0 4,0 L4,0 C6.2091,0 8,1.79182 8,4.00237 L8,11 L0,11 L0,4.00237 L0,4.00237 Z"></path>
        <path id="path-49" d="M0,4.00237 C0,1.79192 1.7954,0 4,0 L4,0 C6.2091,0 8,1.79182 8,4.00237 L8,11 L0,11 L0,4.00237 L0,4.00237 Z"></path>
        <path id="path-51" d="M0,4.00237 C0,1.79192 1.79536,0 4,0 L4,0 C6.20914,0 8,1.79182 8,4.00237 L8,11 L0,11 L0,4.00237 L0,4.00237 Z"></path>
        <path id="path-53" d="M0,4.00237 C0,1.79192 1.79536,0 4,0 L4,0 C6.20914,0 8,1.79182 8,4.00237 L8,11 L0,11 L0,4.00237 L0,4.00237 Z"></path>
        <path id="path-55" d="M0,4.00237 C0,1.79192 1.7954,0 4,0 L4,0 C6.2091,0 8,1.79182 8,4.00237 L8,11 L0,11 L0,4.00237 L0,4.00237 Z"></path>
        <path id="path-57" d="M0,4.00237 C0,1.79192 1.7954,0 4,0 L4,0 C6.2091,0 8,1.79182 8,4.00237 L8,11 L0,11 L0,4.00237 L0,4.00237 Z"></path>
        <path id="path-59" d="M0,4.00237 C0,1.79192 1.7954,0 4,0 L4,0 C6.2091,0 8,1.79182 8,4.00237 L8,11 L0,11 L0,4.00237 L0,4.00237 Z"></path>
        <path d="M16.5,45 C16.5,45 33,26.25823 33,16.91586 C33,7.57349 25.6127,0 16.5,0 C7.3873,0 0,7.57349 0,16.91586 C0,26.25823 16.5,45 16.5,45 L16.5,45 Z M16.5,23.64407 C20.0208,23.64407 22.875,20.74151 22.875,17.16102 C22.875,13.58053 20.0208,10.67797 16.5,10.67797 C12.97918,10.67797 10.125,13.58053 10.125,17.16102 C10.125,20.74151 12.97918,23.64407 16.5,23.64407 L16.5,23.64407 Z" id="path-61"></path>
    </defs>
    <g id="Page-1" stroke="none" stroke-width="1" fill="none" fill-rule="evenodd" sketch:type="MSPage">
        <g id="school" sketch:type="MSLayerGroup">
            <g id="Group-3" transform="translate(33.000000, 0.000000)">
                <mask id="mask-2" sketch:name="Clip 2" fill="white">
                    <use xlink:href="#path-1"></use>
                </mask>
                <g id="Clip-2"></g>
                <path d="M-4.62162,-5 L144.6216,-5 L144.6216,124.24324 L-4.62162,124.24324 L-4.62162,-5 Z" id="Fill-1" fill="#EEEEEE" sketch:type="MSShapeGroup" mask="url(#mask-2)"></path>
            </g>
            <g id="Group-6" transform="translate(7.000000, 116.000000)">
                <mask id="mask-4" sketch:name="Clip 5" fill="white">
                    <use xlink:href="#path-3"></use>
                </mask>
                <g id="Clip-5"></g>
                <path d="M-5,-5 L199,-5 L199,8 L-5,8 L-5,-5 Z" id="Fill-4" fill="#9E69F4" sketch:type="MSShapeGroup" mask="url(#mask-4)"></path>
            </g>
            <g id="Group-9" transform="translate(0.000000, 119.000000)">
                <mask id="mask-6" sketch:name="Clip 8" fill="white">
                    <use xlink:href="#path-5"></use>
                </mask>
                <g id="Clip-8"></g>
                <path d="M-5,-5 L213,-5 L213,8 L-5,8 L-5,-5 Z" id="Fill-7" fill="#7A52B9" sketch:type="MSShapeGroup" mask="url(#mask-6)"></path>
            </g>
            <g id="Group-12" transform="translate(13.000000, 69.000000)">
                <mask id="mask-8" sketch:name="Clip 11" fill="white">
                    <use xlink:href="#path-7"></use>
                </mask>
                <g id="Clip-11"></g>
                <path d="M-5,-5 L64,-5 L64,52 L-5,52 L-5,-5 Z" id="Fill-10" fill="#8F5EDD" sketch:type="MSShapeGroup" mask="url(#mask-8)"></path>
            </g>
            <g id="Group-15" transform="translate(134.000000, 69.000000)">
                <mask id="mask-10" sketch:name="Clip 14" fill="white">
                    <use xlink:href="#path-9"></use>
                </mask>
                <g id="Clip-14"></g>
                <path d="M-5,-5 L64,-5 L64,52 L-5,52 L-5,-5 Z" id="Fill-13" fill="#8F5EDD" sketch:type="MSShapeGroup" mask="url(#mask-10)"></path>
            </g>
            <g id="Group-18" transform="translate(60.000000, 59.000000)">
                <mask id="mask-12" sketch:name="Clip 17" fill="white">
                    <use xlink:href="#path-11"></use>
                </mask>
                <g id="Clip-17"></g>
                <path d="M-5,-5 L92,-5 L92,62 L-5,62 L-5,-5 Z" id="Fill-16" fill="#9E69F4" sketch:type="MSShapeGroup" mask="url(#mask-12)"></path>
            </g>
            <g id="Group-21" transform="translate(54.000000, 37.000000)">
                <mask id="mask-14" sketch:name="Clip 20" fill="white">
                    <use xlink:href="#path-13"></use>
                </mask>
                <g id="Clip-20"></g>
                <path d="M-5,-5 L103,-5 L103,28 L-5,28 L-5,-5 Z" id="Fill-19" fill="#8F5EDD" sketch:type="MSShapeGroup" mask="url(#mask-14)"></path>
            </g>
            <g id="Group-24" transform="translate(72.000000, 69.000000)">
                <mask id="mask-16" sketch:name="Clip 23" fill="white">
                    <use xlink:href="#path-15"></use>
                </mask>
                <g id="Clip-23"></g>
                <path d="M-5,-5 L13,-5 L13,16 L-5,16 L-5,-5 Z" id="Fill-22" fill="#7A52B9" sketch:type="MSShapeGroup" mask="url(#mask-16)"></path>
            </g>
            <g id="Group-27" transform="translate(86.000000, 69.000000)">
                <mask id="mask-18" sketch:name="Clip 26" fill="white">
                    <use xlink:href="#path-17"></use>
                </mask>
                <g id="Clip-26"></g>
                <path d="M-5,-5 L13,-5 L13,16 L-5,16 L-5,-5 Z" id="Fill-25" fill="#7A52B9" sketch:type="MSShapeGroup" mask="url(#mask-18)"></path>
            </g>
            <g id="Group-30" transform="translate(99.000000, 69.000000)">
                <mask id="mask-20" sketch:name="Clip 29" fill="white">
                    <use xlink:href="#path-19"></use>
                </mask>
                <g id="Clip-29"></g>
                <path d="M-5,-5 L13,-5 L13,16 L-5,16 L-5,-5 Z" id="Fill-28" fill="#7A52B9" sketch:type="MSShapeGroup" mask="url(#mask-20)"></path>
            </g>
            <g id="Group-33" transform="translate(19.000000, 77.000000)">
                <mask id="mask-22" sketch:name="Clip 32" fill="white">
                    <use xlink:href="#path-21"></use>
                </mask>
                <g id="Clip-32"></g>
                <path d="M-5,-5 L13,-5 L13,16 L-5,16 L-5,-5 Z" id="Fill-31" fill="#7A52B9" sketch:type="MSShapeGroup" mask="url(#mask-22)"></path>
            </g>
            <g id="Group-36" transform="translate(152.000000, 77.000000)">
                <mask id="mask-24" sketch:name="Clip 35" fill="white">
                    <use xlink:href="#path-23"></use>
                </mask>
                <g id="Clip-35"></g>
                <path d="M-5,-5 L13,-5 L13,16 L-5,16 L-5,-5 Z" id="Fill-34" fill="#7A52B9" sketch:type="MSShapeGroup" mask="url(#mask-24)"></path>
            </g>
            <g id="Group-39" transform="translate(19.000000, 95.000000)">
                <mask id="mask-26" sketch:name="Clip 38" fill="white">
                    <use xlink:href="#path-25"></use>
                </mask>
                <g id="Clip-38"></g>
                <path d="M-5,-5 L13,-5 L13,16 L-5,16 L-5,-5 Z" id="Fill-37" fill="#7A52B9" sketch:type="MSShapeGroup" mask="url(#mask-26)"></path>
            </g>
            <g id="Group-42" transform="translate(152.000000, 95.000000)">
                <mask id="mask-28" sketch:name="Clip 41" fill="white">
                    <use xlink:href="#path-27"></use>
                </mask>
                <g id="Clip-41"></g>
                <path d="M-5,-5 L13,-5 L13,16 L-5,16 L-5,-5 Z" id="Fill-40" fill="#7A52B9" sketch:type="MSShapeGroup" mask="url(#mask-28)"></path>
            </g>
            <g id="Group-45" transform="translate(33.000000, 76.000000)">
                <mask id="mask-30" sketch:name="Clip 44" fill="white">
                    <use xlink:href="#path-29"></use>
                </mask>
                <g id="Clip-44"></g>
                <path d="M-5,-5 L13,-5 L13,16 L-5,16 L-5,-5 Z" id="Fill-43" fill="#7A52B9" sketch:type="MSShapeGroup" mask="url(#mask-30)"></path>
            </g>
            <g id="Group-48" transform="translate(166.000000, 76.000000)">
                <mask id="mask-32" sketch:name="Clip 47" fill="white">
                    <use xlink:href="#path-31"></use>
                </mask>
                <g id="Clip-47"></g>
                <path d="M-5,-5 L13,-5 L13,16 L-5,16 L-5,-5 Z" id="Fill-46" fill="#7A52B9" sketch:type="MSShapeGroup" mask="url(#mask-32)"></path>
            </g>
            <g id="Group-51" transform="translate(33.000000, 94.000000)">
                <mask id="mask-34" sketch:name="Clip 50" fill="white">
                    <use xlink:href="#path-33"></use>
                </mask>
                <g id="Clip-50"></g>
                <path d="M-5,-5 L13,-5 L13,16 L-5,16 L-5,-5 Z" id="Fill-49" fill="#7A52B9" sketch:type="MSShapeGroup" mask="url(#mask-34)"></path>
            </g>
            <g id="Group-54" transform="translate(166.000000, 94.000000)">
                <mask id="mask-36" sketch:name="Clip 53" fill="white">
                    <use xlink:href="#path-35"></use>
                </mask>
                <g id="Clip-53"></g>
                <path d="M-5,-5 L13,-5 L13,16 L-5,16 L-5,-5 Z" id="Fill-52" fill="#7A52B9" sketch:type="MSShapeGroup" mask="url(#mask-36)"></path>
            </g>
            <g id="Group-57" transform="translate(46.000000, 76.000000)">
                <mask id="mask-38" sketch:name="Clip 56" fill="white">
                    <use xlink:href="#path-37"></use>
                </mask>
                <g id="Clip-56"></g>
                <path d="M-5,-5 L13,-5 L13,16 L-5,16 L-5,-5 Z" id="Fill-55" fill="#7A52B9" sketch:type="MSShapeGroup" mask="url(#mask-38)"></path>
            </g>
            <g id="Group-60" transform="translate(179.000000, 76.000000)">
                <mask id="mask-40" sketch:name="Clip 59" fill="white">
                    <use xlink:href="#path-39"></use>
                </mask>
                <g id="Clip-59"></g>
                <path d="M-5,-5 L13,-5 L13,16 L-5,16 L-5,-5 Z" id="Fill-58" fill="#7A52B9" sketch:type="MSShapeGroup" mask="url(#mask-40)"></path>
            </g>
            <g id="Group-63" transform="translate(46.000000, 94.000000)">
                <mask id="mask-42" sketch:name="Clip 62" fill="white">
                    <use xlink:href="#path-41"></use>
                </mask>
                <g id="Clip-62"></g>
                <path d="M-5,-5 L13,-5 L13,16 L-5,16 L-5,-5 Z" id="Fill-61" fill="#7A52B9" sketch:type="MSShapeGroup" mask="url(#mask-42)"></path>
            </g>
            <g id="Group-66" transform="translate(179.000000, 94.000000)">
                <mask id="mask-44" sketch:name="Clip 65" fill="white">
                    <use xlink:href="#path-43"></use>
                </mask>
                <g id="Clip-65"></g>
                <path d="M-5,-5 L13,-5 L13,16 L-5,16 L-5,-5 Z" id="Fill-64" fill="#7A52B9" sketch:type="MSShapeGroup" mask="url(#mask-44)"></path>
            </g>
            <g id="Group-69" transform="translate(96.000000, 95.000000)">
                <mask id="mask-46" sketch:name="Clip 68" fill="white">
                    <use xlink:href="#path-45"></use>
                </mask>
                <g id="Clip-68"></g>
                <path d="M-5,-5 L19,-5 L19,26 L-5,26 L-5,-5 Z" id="Fill-67" fill="#7A52B9" sketch:type="MSShapeGroup" mask="url(#mask-46)"></path>
            </g>
            <g id="Group-72" transform="translate(113.000000, 69.000000)">
                <mask id="mask-48" sketch:name="Clip 71" fill="white">
                    <use xlink:href="#path-47"></use>
                </mask>
                <g id="Clip-71"></g>
                <path d="M-5,-5 L13,-5 L13,16 L-5,16 L-5,-5 Z" id="Fill-70" fill="#7A52B9" sketch:type="MSShapeGroup" mask="url(#mask-48)"></path>
            </g>
            <g id="Group-75" transform="translate(126.000000, 69.000000)">
                <mask id="mask-50" sketch:name="Clip 74" fill="white">
                    <use xlink:href="#path-49"></use>
                </mask>
                <g id="Clip-74"></g>
                <path d="M-5,-5 L13,-5 L13,16 L-5,16 L-5,-5 Z" id="Fill-73" fill="#7A52B9" sketch:type="MSShapeGroup" mask="url(#mask-50)"></path>
            </g>
            <g id="Group-78" transform="translate(72.000000, 85.000000)">
                <mask id="mask-52" sketch:name="Clip 77" fill="white">
                    <use xlink:href="#path-51"></use>
                </mask>
                <g id="Clip-77"></g>
                <path d="M-5,-5 L13,-5 L13,16 L-5,16 L-5,-5 Z" id="Fill-76" fill="#7A52B9" sketch:type="MSShapeGroup" mask="url(#mask-52)"></path>
            </g>
            <g id="Group-81" transform="translate(86.000000, 85.000000)">
                <mask id="mask-54" sketch:name="Clip 80" fill="white">
                    <use xlink:href="#path-53"></use>
                </mask>
                <g id="Clip-80"></g>
                <path d="M-5,-5 L13,-5 L13,16 L-5,16 L-5,-5 Z" id="Fill-79" fill="#7A52B9" sketch:type="MSShapeGroup" mask="url(#mask-54)"></path>
            </g>
            <g id="Group-84" transform="translate(99.000000, 85.000000)">
                <mask id="mask-56" sketch:name="Clip 83" fill="white">
                    <use xlink:href="#path-55"></use>
                </mask>
                <g id="Clip-83"></g>
                <path d="M-5,-5 L13,-5 L13,16 L-5,16 L-5,-5 Z" id="Fill-82" fill="#7A52B9" sketch:type="MSShapeGroup" mask="url(#mask-56)"></path>
            </g>
            <g id="Group-87" transform="translate(113.000000, 85.000000)">
                <mask id="mask-58" sketch:name="Clip 86" fill="white">
                    <use xlink:href="#path-57"></use>
                </mask>
                <g id="Clip-86"></g>
                <path d="M-5,-5 L13,-5 L13,16 L-5,16 L-5,-5 Z" id="Fill-85" fill="#7A52B9" sketch:type="MSShapeGroup" mask="url(#mask-58)"></path>
            </g>
            <g id="Group-90" transform="translate(126.000000, 85.000000)">
                <mask id="mask-60" sketch:name="Clip 89" fill="white">
                    <use xlink:href="#path-59"></use>
                </mask>
                <g id="Clip-89"></g>
                <path d="M-5,-5 L13,-5 L13,16 L-5,16 L-5,-5 Z" id="Fill-88" fill="#7A52B9" sketch:type="MSShapeGroup" mask="url(#mask-60)"></path>
            </g>
            <g id="Group-93" transform="translate(87.000000, 92.000000)">
                <mask id="mask-62" sketch:name="Clip 92" fill="white">
                    <use xlink:href="#path-61"></use>
                </mask>
                <g id="Clip-92"></g>
                <path d="M-5,-5 L38,-5 L38,50 L-5,50 L-5,-5 Z" id="Fill-91" fill="#FF7E7E" sketch:type="MSShapeGroup" mask="url(#mask-62)"></path>
            </g>
        </g>
    </g>
</svg>