<?xml version="1.0" encoding="UTF-8" standalone="no"?>
<svg width="502px" height="492px" viewBox="0 0 502 492" version="1.1" xmlns="http://www.w3.org/2000/svg" xmlns:xlink="http://www.w3.org/1999/xlink" xmlns:sketch="http://www.bohemiancoding.com/sketch/ns">
    <!-- Generator: Sketch 3.3.1 (12005) - http://www.bohemiancoding.com/sketch -->
    <title>Imported Layers</title>
    <desc>Created with Sketch.</desc>
    <defs></defs>
    <g id="App-Prototype" stroke="none" stroke-width="1" fill="none" fill-rule="evenodd" sketch:type="MSPage">
        <g id="No-Matches" sketch:type="MSArtboardGroup" transform="translate(-68.000000, -269.000000)">
            <g id="Imported-Layers" sketch:type="MSLayerGroup" transform="translate(68.000000, 269.000000)">
                <path d="M317.452,440.938 C315.465,440.529 313.469,440.326 311.518,440.326 C304.961,440.326 299.555,442.516 293.838,444.841 C292.598,445.34 290.27,446.124 290.377,446.025 C277.108,452.475 260.359,456.674 235,458 C209.288,459.346 190.999,452.645 179.056,445.758 C179.256,445.945 177.11,445.34 175.869,444.841 C170.151,442.516 164.746,440.326 158.19,440.326 C156.239,440.326 154.24,440.529 152.256,440.938 C143.01,442.807 142.877,449.423 143.027,451.4 C143.966,462.092 162.842,475.449 183.533,475.801 C183.928,475.805 184.358,475.811 184.764,475.811 C201.221,475.811 216.699,470.33 226.078,466.082 C228.941,466.328 232,466.457 235,466.463 C237.99,466.457 240.912,466.328 243.776,466.082 C253.153,470.33 268.486,475.811 284.944,475.811 C285.35,475.811 285.78,475.805 286.175,475.801 C306.865,475.449 325.741,462.092 326.68,451.4 C326.828,449.423 326.698,442.807 317.452,440.938" id="Fill-1" fill="#FF812C" sketch:type="MSShapeGroup"></path>
                <path d="M236.5,209 C216.112,211.147 185,224 175,244.5 C165,265 157.5,338.5 158,368.5 C158.5,398.5 172.5,446.5 211,452.5 C249.5,458.5 280.5,452.5 292,435 C303.5,417.5 314,376 310.499,356 C307,336.001 300.5,259.5 293,250 C285.5,240.5 273.5,228.5 269,224.5 C264.5,220.5 246,208.001 236.5,209" id="Fill-2" fill="#F9F8E1" sketch:type="MSShapeGroup"></path>
                <path d="M166.065,367.697 C164.02,375.69 163.274,383.468 165.11,390.458 C171.028,413.076 186,449.581 235,449.678 C284.16,449.581 298.826,413.076 304.744,390.458 C306.371,384.262 305.965,377.448 304.42,370.414 C299.056,375.857 289.427,387.555 276.902,399.252 C259.778,415.25 237.237,431.247 212.787,431.247 C204.43,431.247 195.848,429.377 187.184,425 C173,417.832 167.414,394.805 166.065,367.697" id="Fill-3" fill="#E3E1CE" sketch:type="MSShapeGroup"></path>
                <path d="M494.315,465.706 C498.582,461.318 500.145,455.916 497.804,453.641 C495.464,451.365 490.108,453.076 485.84,457.464 C481.573,461.852 480.012,467.254 482.352,469.53 C484.692,471.805 490.048,470.094 494.315,465.706" id="Fill-4" fill="#85E8F9" sketch:type="MSShapeGroup"></path>
                <path d="M466.315,483.706 C470.582,479.318 472.145,473.916 469.803,471.641 C467.464,469.365 462.108,471.076 457.84,475.464 C453.572,479.852 452.012,485.254 454.352,487.53 C456.691,489.805 462.048,488.094 466.315,483.706" id="Fill-5" fill="#85E8F9" sketch:type="MSShapeGroup"></path>
                <path d="M219.109,252.922 C217.51,249.463 214.557,244.863 207.389,244.863 C200.317,244.863 197.739,248.789 195.705,252.81 C194.832,254.535 195.524,256.641 197.248,257.513 C198.976,258.384 201.078,257.694 201.952,255.97 C203.699,252.516 204.562,251.864 207.389,251.864 C210.053,251.864 211.357,252.834 212.752,255.857 C213.345,257.137 214.611,257.891 215.933,257.891 C216.424,257.891 216.923,257.786 217.399,257.567 C219.152,256.756 219.918,254.677 219.109,252.922" id="Fill-6" fill="#3A3430" sketch:type="MSShapeGroup"></path>
                <path d="M234.996,295.57 C242.127,295.57 247.838,286.047 252.1,277.261 C256.391,268.467 250.678,261.146 234.996,261.146 C219.311,261.146 213.602,268.467 217.881,277.261 C222.163,286.047 227.874,295.57 234.996,295.57" id="Fill-7" fill="#FF812C" sketch:type="MSShapeGroup"></path>
                <path d="M257.252,255.857 C258.65,252.834 259.953,251.864 262.617,251.864 C265.444,251.864 266.307,252.516 268.055,255.97 C268.928,257.694 271.03,258.384 272.758,257.513 C274.483,256.641 275.174,254.535 274.301,252.81 C272.266,248.789 269.69,244.863 262.617,244.863 C255.45,244.863 252.496,249.463 250.898,252.922 C250.086,254.677 250.852,256.756 252.608,257.567 C253.084,257.786 253.582,257.891 254.073,257.891 C255.395,257.891 256.66,257.137 257.252,255.857" id="Fill-8" fill="#3A3430" sketch:type="MSShapeGroup"></path>
                <path d="M76.912,30.82 C76.957,29.828 76.995,29.307 77.024,29.256 L76.791,29.27 C76.319,30.236 75.778,31.144 75.178,31.998 L71.782,36.607 L76.846,36.277 L76.841,33.182 C76.84,32.601 76.862,31.813 76.912,30.82" id="Fill-9" fill="#915E3C" sketch:type="MSShapeGroup"></path>
                <path d="M101.678,39.82 C102.715,39.754 103.446,39.125 103.873,37.932 C104.297,36.738 104.507,34.673 104.502,31.734 C104.5,28.785 104.279,26.73 103.842,25.577 C103.406,24.422 102.678,23.877 101.655,23.942 C100.632,24.008 99.907,24.628 99.473,25.795 C99.041,26.966 98.827,29.068 98.832,32.103 C98.834,35.114 99.056,37.17 99.492,38.269 C99.926,39.371 100.657,39.888 101.678,39.82" id="Fill-10" fill="#915E3C" sketch:type="MSShapeGroup"></path>
                <path d="M127.252,29.915 C127.248,29.331 127.273,28.543 127.32,27.551 C127.367,26.558 127.408,26.035 127.434,25.987 L127.201,26.002 C126.727,26.967 126.19,27.877 125.59,28.727 L122.191,33.336 L127.255,33.01 L127.252,29.915" id="Fill-11" fill="#915E3C" sketch:type="MSShapeGroup"></path>
                <path d="M178,23 L154.465,5 L74.278,14.02 C74.186,12.347 74.092,10.674 74,9 C73.363,-2.541 55.359,-2.603 56,9 C56.129,11.344 56.259,13.688 56.389,16.031 L30,19 L36,59 L58.686,57.604 C59.257,67.94 59.828,78.275 60.398,88.61 L10.923,103 L0,135 L30,153 L62.663,129.592 C65.7,184.557 68.737,239.52 71.775,294.486 C74.531,344.368 77.288,394.252 80.043,444.135 C80.363,449.906 80.682,455.677 81,461.448 C81.637,472.989 99.641,473.052 99,461.448 C97.262,429.983 95.524,398.519 93.783,367.054 C90.265,303.358 86.745,239.66 83.226,175.963 C82.143,156.369 81.061,136.777 79.978,117.183 L90,110 L90,80 L78.114,83.457 C77.618,74.471 77.121,65.485 76.625,56.5 L166,51 L178,23" id="Fill-12" fill="#915E3C" sketch:type="MSShapeGroup"></path>
                <path d="M230.811,294.467 C231.984,295.173 233.234,295.577 234.66,295.577 C234.772,295.577 234.883,295.575 234.996,295.57 C233.543,295.57 232.147,295.173 230.811,294.467 M252.131,277.193 C252.121,277.217 252.111,277.238 252.1,277.261 C252.11,277.238 252.121,277.217 252.131,277.193" id="Fill-13" fill="#E3E1CE" sketch:type="MSShapeGroup"></path>
                <path d="M250.965,267.658 C248.092,267.658 242.745,273.206 235.168,290.999 C234.83,291.791 234.207,292.111 233.416,292.111 C231.744,292.111 229.322,290.684 227.252,289.255 C225.183,287.825 223.465,286.395 223.201,286.395 C223.034,286.395 223.455,286.975 224.75,288.5 C226.918,291.055 228.75,293.227 230.811,294.467 C232.147,295.173 233.543,295.57 234.996,295.57 C242.119,295.26 247.838,286.047 252.1,277.261 C252.111,277.238 252.121,277.217 252.131,277.193 C254.212,272.867 253.749,267.658 250.965,267.658" id="Fill-14" fill="#E8772C" sketch:type="MSShapeGroup"></path>
                <path d="M378.875,336.873 C378.989,336.635 379.104,336.399 379.247,336.187 C379.071,336.45 378.953,336.673 378.875,336.873" id="Fill-15" fill="#E8B974" sketch:type="MSShapeGroup"></path>
                <path d="M424.558,466.579 C421.198,466.711 419.726,467.606 417.541,469.637 C423.215,473.096 429.414,474.943 435.629,473.509 C436.094,473.401 436.555,473.281 437.01,473.152 C435.166,471.102 433.293,468.893 431.596,466.857 C429.247,466.676 426.895,466.486 424.558,466.579" id="Fill-16" fill="#753FC3" sketch:type="MSShapeGroup"></path>
                <path d="M500.061,453.13 C496.871,449.94 487.799,443.977 482.303,440.388 C481.754,440.029 481.23,439.687 480.762,439.381 C478.617,437.977 475.254,436.183 472.061,434.565 C467.586,432.297 463.443,430.379 463.443,430.379 C463.443,430.379 459.539,426.975 454.305,431.656 C449.073,436.341 450.068,439.795 450.068,439.795 C450.068,439.795 447.475,440.41 445.561,443.397 C443.643,446.384 444.522,449.236 444.522,449.236 L438.047,445.503 C438.047,445.503 432.778,441.534 426.94,447.381 C423.736,450.588 423.281,453.678 423.703,455.975 C428.709,455.084 434.034,456.138 439.045,456.218 C441.908,456.264 442.838,458.196 442.561,460.42 C442.173,463.512 439.447,467.169 436.291,467.118 C434.73,467.093 433.164,466.977 431.596,466.857 C433.293,468.893 435.166,471.102 437.01,473.152 C437.553,473.755 438.096,474.35 438.627,474.915 C438.627,474.915 450.098,486.529 456.369,490.301 C462.643,494.073 468.259,489.753 472.791,483.633 C477.323,477.513 474.244,471.883 473.694,471.271 C472.275,469.702 467.988,466.503 467.988,466.503 L468.945,465.773 C468.945,465.773 469.943,467.507 472.147,466.43 C474.098,465.476 474.231,464.617 474.231,464.617 C474.231,464.618 482.178,470.921 484.543,472.333 C486.91,473.746 491.967,474.52 496.597,469.437 C501.959,463.548 503.569,456.641 500.061,453.13 L500.061,453.13 Z M468.391,471.891 C469.57,474.84 469.004,477.538 465.863,481.7 C462.952,485.562 457.629,486.638 457.024,486.736 C456.176,483.662 458,478.16 462.918,474.302 C465.266,472.459 466.951,471.869 468.391,471.891 L468.391,471.891 Z M493.26,464.147 C489.844,468.333 485.791,468.563 485.236,468.576 C484.145,465.48 485.429,460.423 490.311,456.591 C492.31,455.022 493.977,454.256 495.316,454.075 C496.401,456.26 496.2,460.543 493.26,464.147 L493.26,464.147 Z" id="Fill-17" fill="#3A3430" sketch:type="MSShapeGroup"></path>
                <path d="M378.875,336.873 C378.989,336.635 379.104,336.399 379.247,336.187 C379.071,336.45 378.953,336.673 378.875,336.873" id="Fill-18" fill="#000000" sketch:type="MSShapeGroup"></path>
                <path d="M480.203,433.617 C477.479,431.568 474.565,432.527 472.061,434.565 C475.254,436.183 478.617,437.977 480.762,439.381 C481.23,439.687 481.754,440.029 482.303,440.388 C482.895,437.856 482.514,435.356 480.203,433.617" id="Fill-19" fill="#8F5EDD" sketch:type="MSShapeGroup"></path>
                <path d="M378.875,336.873 C378.793,337.076 378.773,337.245 378.776,337.402 L378.884,336.855 L378.875,336.873" id="Fill-20" fill="#AFB6BC" sketch:type="MSShapeGroup"></path>
                <path d="M439.045,456.218 C434.034,456.138 428.709,455.084 423.703,455.975 C423.203,456.065 422.705,456.166 422.211,456.297 C421.621,456.453 421.069,456.646 420.533,456.855 C418.106,454.826 415.861,452.598 413.914,450.679 C396.96,433.975 393.186,409.161 392.276,386.466 C391.838,375.561 391.852,364.623 392.314,353.722 C392.383,352.088 392.479,350.16 392.507,348.096 C389.483,351.051 386.037,353.75 382.371,355.963 C382.339,356.659 382.305,357.352 382.277,358.035 C382.055,363.27 382,368.481 382.014,373.723 C382.045,385.569 382.391,397.396 383.854,409.163 C385.637,423.489 389.875,437.61 397.91,449.706 C401.016,454.381 405.383,459.818 410.5,464.363 C409.756,465.01 408.983,465.645 408.15,466.244 C399.852,472.221 392.195,464.602 388.384,457.612 C380.556,443.25 380.045,424.913 378.992,408.95 C378.033,394.393 376.838,379.853 376.721,365.257 C376.703,363.127 376.731,360.996 376.779,358.867 C376.89,354.074 377.16,349.284 377.633,344.51 C377.856,342.25 377.815,339.068 378.875,336.873 L379.209,335.207 L378.83,331.803 C379.119,331.541 379.387,331.289 379.62,331.056 C381.11,329.56 382.576,328.157 384.01,326.864 C383.903,326.822 383.801,326.775 383.692,326.738 C376.098,324.135 371.698,329.352 369.237,337.93 C369.743,337.726 369.743,337.726 369.237,337.93 C367.338,344.551 366.594,353.173 366.433,361.755 C366.16,376.242 367.549,390.605 367.832,394.996 C369.254,416.948 368.91,441.288 377.846,461.795 C381.893,471.082 388.481,478.73 399.17,479.243 C406.069,479.574 412.203,474.761 416.866,470.272 C417.104,470.045 417.321,469.842 417.541,469.637 C419.726,467.606 421.198,466.711 424.558,466.579 C426.895,466.486 429.247,466.676 431.596,466.857 C433.164,466.977 434.73,467.093 436.291,467.118 C439.447,467.169 442.173,463.512 442.561,460.42 C442.838,458.196 441.908,456.264 439.045,456.218" id="Fill-21" fill="#8F5EDD" sketch:type="MSShapeGroup"></path>
                <path d="M379.247,336.187 C379.078,336.44 378.964,336.655 378.885,336.851 L378.884,336.855 C378.995,336.623 379.109,336.394 379.247,336.187" id="Fill-22" fill="#FFFFFF" sketch:type="MSShapeGroup"></path>
                <path d="M403.055,321.078 C400.201,315.248 392.764,318.959 384.01,326.864 C382.576,328.157 381.11,329.56 379.62,331.056 C379.387,331.289 379.119,331.541 378.83,331.803 L379.209,335.207 L378.885,336.851 C378.964,336.655 379.078,336.44 379.247,336.187 C379.109,336.394 378.995,336.623 378.884,336.855 C378.885,336.855 378.445,337.962 378.875,336.873 C377.815,339.068 377.856,342.25 377.633,344.51 C377.16,349.284 376.89,354.074 376.779,358.867 C378.681,358.036 380.553,357.06 382.371,355.963 C386.037,353.75 389.483,351.051 392.507,348.096 C401.416,339.392 406.664,328.453 403.055,321.078" id="Fill-23" fill="#1D1F28" sketch:type="MSShapeGroup"></path>
                <path d="M358.795,336.963 C347.225,322.027 335.5,309.5 322.868,293.937 C322.816,293.873 315.237,282.862 311.009,270.197 L310.996,270.166 C296.037,214.033 259.634,201.74 235,201.631 C219.791,201.697 200.448,206.268 184.264,222.443 C170.73,210.828 132.778,212.243 124.334,232.334 C124.259,232.514 116.334,254 122.389,284.551 C126.24,303.986 132.194,318.609 136.334,327.332 C140.766,336.67 148.995,345.168 148.364,355.334 C148.307,355.853 148.252,356.375 148.201,356.899 L148.192,356.971 C148.098,357.574 148.069,357.926 148.089,358.078 C147.321,366.57 147.315,375.338 149.196,384.468 C154.608,411.606 164.7,432.098 179.056,445.758 C190.999,452.645 209.288,459.346 235,458 C260.359,456.674 277.108,452.475 290.377,446.025 L290.379,446.025 C304.881,432.365 315.063,411.78 320.51,384.468 C324.535,364.935 319.933,347.06 317.686,330.012 C329.16,345.786 351.957,359.012 351.918,358.826 C356.342,361.525 361.334,362.326 366.434,361.755 C366.593,353.172 367.338,344.551 369.237,337.93 C365.332,339.505 361.327,339.863 358.795,336.963 M146.025,248.582 C145.438,240.553 160.004,235.67 164.871,237.934 C167,238.924 169.022,239.596 170.926,240.014 C165.166,249.982 160.352,262.391 157.023,277.758 C154.119,267.445 148,263.51 146.025,248.582 M304.744,390.458 C298.826,413.076 284.16,449.581 235,449.678 C186,449.581 171.028,413.076 165.11,390.458 C159.166,367.821 180.297,336.896 184.953,317.302 C189.612,297.711 173.049,277.242 174.217,261.133 C175.387,245.022 198.186,226.305 208.354,221.516 C218.494,216.746 221.001,227.901 235,228.009 C248.395,227.901 251.377,216.746 261.518,221.516 C271.687,226.305 294.358,245.022 295.527,261.133 C296.695,277.242 280.168,297.711 284.827,317.302 C289.483,336.896 310.69,367.821 304.744,390.458" id="Fill-24" fill="#1D1F28" sketch:type="MSShapeGroup"></path>
                <path d="M280.805,235.975 C280.809,236.039 280.813,236.106 280.816,236.173 C282.922,238.385 285.084,240.725 287.155,243.062 C285.215,240.593 283.054,238.209 280.805,235.975 M278.489,233.752 C278.586,233.852 278.682,233.951 278.781,234.053 C278.789,234.051 278.797,234.049 278.806,234.048 C278.7,233.949 278.594,233.85 278.489,233.752 M282.889,219 C282.889,219 282.772,219.24 282.569,219.666 C282.945,220.002 283.32,220.346 283.694,220.694 C283.2,219.641 282.889,219 282.889,219" id="Fill-25" fill="#8BE9F9" sketch:type="MSShapeGroup"></path>
                <path d="M277.048,232.446 C276.113,234.975 275.445,237.211 275.445,238.441 C275.445,242.551 278.779,245.883 282.889,245.883 C284.801,245.883 286.544,245.162 287.863,243.978 C287.63,243.67 287.395,243.365 287.155,243.062 C285.084,240.725 282.922,238.385 280.816,236.173 C280.874,237.197 280.863,238.404 281.227,239.354 C281.948,241.24 283.535,243.646 282.227,244.066 C282.173,244.084 282.115,244.092 282.054,244.092 C280.637,244.092 277.444,239.598 277.147,238.822 C275.93,235.637 277.423,234.328 278.781,234.053 C278.682,233.951 278.586,233.852 278.489,233.752 C278.01,233.309 277.53,232.873 277.048,232.446" id="Fill-26" fill="#8BE9F9" sketch:type="MSShapeGroup"></path>
                <path d="M282.569,219.666 C281.633,221.633 278.846,227.58 277.048,232.446 C277.53,232.873 278.01,233.309 278.489,233.752 C278.594,233.85 278.7,233.949 278.806,234.048 C278.99,234.012 279.17,233.995 279.341,233.995 C279.598,233.995 279.832,234.033 280.02,234.102 C280.596,234.313 280.742,235.053 280.805,235.975 C283.054,238.209 285.215,240.593 287.155,243.062 C287.395,243.365 287.63,243.67 287.863,243.978 C289.378,242.615 290.332,240.64 290.332,238.441 C290.332,235.172 285.619,224.797 283.694,220.694 C283.32,220.346 282.945,220.002 282.569,219.666" id="Fill-27" fill="#80DEEE" sketch:type="MSShapeGroup"></path>
                <path d="M278.806,234.048 C278.797,234.049 278.789,234.051 278.781,234.053 C279.45,234.742 280.13,235.451 280.816,236.173 C280.813,236.106 280.809,236.039 280.805,235.975 C280.145,235.319 279.478,234.676 278.806,234.048" id="Fill-28" fill="#ACEEF1" sketch:type="MSShapeGroup"></path>
                <path d="M278.781,234.053 C277.423,234.328 275.93,235.637 277.147,238.822 C277.444,239.598 280.637,244.092 282.054,244.092 C282.115,244.092 282.173,244.084 282.227,244.066 C283.535,243.646 281.948,241.24 281.227,239.354 C280.863,238.404 280.874,237.197 280.816,236.173 C280.13,235.451 279.45,234.742 278.781,234.053" id="Fill-29" fill="#ACEDF1" sketch:type="MSShapeGroup"></path>
                <path d="M279.341,233.995 C279.17,233.995 278.99,234.012 278.806,234.048 C279.478,234.676 280.145,235.319 280.805,235.975 C280.742,235.053 280.596,234.313 280.02,234.102 C279.832,234.033 279.598,233.995 279.341,233.995" id="Fill-30" fill="#A5E6EB" sketch:type="MSShapeGroup"></path>
                <path d="M96.873,37.393 L96.726,35.778 C96.615,34.552 96.79,33.513 97.254,32.659 C97.717,31.806 98.604,30.966 99.91,30.142 C100.948,29.486 101.685,28.897 102.117,28.377 C102.551,27.855 102.736,27.264 102.677,26.601 C102.629,26.075 102.334,25.663 101.791,25.365 C101.25,25.066 100.566,24.925 99.742,24.938 C97.698,24.973 95.37,25.682 92.76,27.067 L89.474,22.01 C92.68,20.177 96.117,19.229 99.783,19.168 C102.8,19.117 105.224,19.689 107.053,20.888 C108.883,22.086 109.896,23.741 110.088,25.856 C110.227,27.369 109.964,28.687 109.301,29.807 C108.637,30.928 107.512,31.996 105.925,33.012 C104.582,33.888 103.748,34.524 103.427,34.924 C103.104,35.325 102.968,35.793 103.017,36.331 L103.104,37.288 L96.873,37.393 L96.873,37.393 Z M96.6,43.977 C96.495,42.825 96.777,41.932 97.443,41.293 C98.109,40.656 99.146,40.325 100.553,40.302 C101.905,40.278 102.974,40.578 103.755,41.197 C104.535,41.817 104.98,42.697 105.084,43.836 C105.187,44.973 104.892,45.862 104.199,46.5 C103.505,47.139 102.508,47.468 101.209,47.49 C99.87,47.512 98.794,47.22 97.98,46.612 C97.166,46.006 96.705,45.128 96.6,43.977 L96.6,43.977 Z" id="Fill-31" fill="#F9F8E1" sketch:type="MSShapeGroup"></path>
            </g>
        </g>
    </g>
</svg>