<?xml version="1.0" encoding="UTF-8" standalone="no"?>
<svg width="341px" height="349px" viewBox="0 0 341 349" version="1.1" xmlns="http://www.w3.org/2000/svg" xmlns:xlink="http://www.w3.org/1999/xlink" xmlns:sketch="http://www.bohemiancoding.com/sketch/ns">
    <!-- Generator: Sketch 3.3.2 (12043) - http://www.bohemiancoding.com/sketch -->
    <title>superpenguin</title>
    <desc>Created with Sketch.</desc>
    <defs></defs>
    <g id="Page-2" stroke="none" stroke-width="1" fill="none" fill-rule="evenodd" sketch:type="MSPage">
        <g id="Hey-Landing-05" sketch:type="MSArtboardGroup" transform="translate(-91.000000, -198.000000)">
            <g id="superpenguin" sketch:type="MSLayerGroup" transform="translate(91.000000, 198.000000)">
                <path d="M84.351804,144.358913 C67.8069164,170.265076 57.9778617,185.417737 35.2124265,199.102056 C12.4469914,212.790286 1.3089683,217.514006 1.3089683,217.514006 C1.3089683,217.514006 -0.982708934,222.568151 3.43751585,227.942947 C7.85970605,233.319697 22.2740807,240.487395 22.2740807,240.487395 L12.610121,246.030336 C12.610121,246.030336 9.82905476,250.427541 18.0169856,256.946118 C26.2049164,263.462739 26.6982363,259.876936 32.2662651,264.113815 C37.8342939,268.350695 38.3256484,275.193832 49.1354467,276.333703 C59.945245,277.473574 71.9008818,272.585619 76.323072,271.119232 C78.5597176,270.378218 83.1941729,272.978611 87.7303573,275.577048 C92.1564784,278.110964 96.4941556,280.646835 98.4340231,280.081787 C102.364859,278.939961 112.492657,273.271888 116.614138,270.139686 C121.586646,266.36423 130.657049,257.714504 134.957383,253.196078 C140.855602,247.005972 174.42887,228.594022 183.438346,225.497014 C189.808265,223.30721 250.376548,172.865468 277.450179,135.885154 C288.658957,120.572168 283.020173,96.7815126 283.020173,96.7815126 L166.238974,102.971619 L128.40468,90.5874958 L112.522138,93.1976639 C112.522138,93.1976639 100.892761,118.452751 84.351804,144.358913 Z" id="Fill-1" fill="#B895EE" sketch:type="MSShapeGroup"></path>
                <path d="M96.7417983,147.97991 C80.4190029,173.389457 65.7530548,189.314415 43.2391931,202.85014 C20.4717925,216.536415 -0.982708934,222.568151 3.43751585,227.942947 C7.85970605,233.319697 22.2740807,240.487395 22.2740807,240.487395 C22.2740807,240.487395 73.764098,202.259675 88.443804,188.186275 C95.0652968,181.837798 106.15615,168.927731 116.31736,156.692202 C113.852726,154.3147 108.736744,151.735815 99.2536023,148.959457 C98.5342594,148.750252 97.6753718,148.417871 96.7417983,147.97991 M124.068968,119.966062 C121.793014,121.913423 119.257625,123.811905 116.451009,125.620448 C109.914029,129.833866 117.300069,128.555176 122.390501,131.151658 C122.987988,127.374246 123.591372,123.65158 124.068968,119.966062" id="Fill-2" fill="#835CBD" sketch:type="MSShapeGroup"></path>
                <path d="M209.743499,269.629384 C213.375591,280.580359 219.525383,291.627137 224.401585,297.465311 C227.094207,300.669854 230.075746,303.880263 233.493608,302.830331 C233.959412,302.685647 234.27781,302.50186 234.670893,302.218359 C237.911867,299.856499 238.46415,296.180756 238.951573,293.210835 C239.26211,291.372964 239.307314,289.269188 240.307712,288.944627 C240.916991,288.745199 242.471637,289.814683 243.403245,290.307389 C246.119452,291.71512 249.814438,293.64293 253.800305,292.418986 C254.761395,292.123754 255.685141,291.652555 256.532236,291.036672 C258.271631,289.769714 259.246478,288.250538 259.788934,286.670751 C260.57117,284.756627 257.438294,275.428454 259.183585,273.588627 C260.732334,271.95214 262.967014,274.575994 265.687153,275.201653 C267.456029,275.612241 270.82279,275.997412 273.983182,273.492824 C275.392386,272.376415 276.789798,270.256997 275.032715,265.88521 C271.072398,256.052599 247.442179,228.085675 230.158294,230.470997 C230.158294,230.470997 225.726277,231.079059 223.865026,231.651927 C221.559591,232.363613 219.442836,233.493709 216.80721,235.423473 C211.667643,239.167647 208.086651,246.587563 208.086651,246.587563 C206.76196,249.316997 207.060703,252.255636 207.101977,255.722174 C207.463614,259.92777 208.261573,264.981916 209.743499,269.629384" id="Fill-3" fill="#FF812C" sketch:type="MSShapeGroup"></path>
                <path d="M243.983043,233.655989 C235.36272,236.5653 225.152375,238.680807 212.341781,239.881289 C209.710086,243.220739 208.086651,246.587563 208.086651,246.587563 C207.725014,247.334443 207.481303,248.096964 207.324069,248.882947 C209.287522,253.720067 209.574473,259.788952 208.809925,266.199994 C208.994674,266.948829 209.195147,267.693754 209.409378,268.432812 C217.308392,267.949882 225.800963,266.561703 234.48811,264.178336 C246.105695,260.989434 256.514548,256.451457 264.973706,251.221345 C259.150173,244.532667 251.581349,237.617188 243.983043,233.655989" id="Fill-4" fill="#E8772C" sketch:type="MSShapeGroup"></path>
                <path d="M156.183896,244.915882 C147.109562,253.997703 139.206617,265.609529 135.849683,273.346185 C134.013983,277.606527 132.315862,282.156235 135.081205,284.997115 C135.456599,285.382286 135.804478,285.605176 136.282075,285.849574 C140.260081,287.855591 144.196813,286.551485 147.394548,285.53479 C149.381585,284.918908 151.49834,283.906123 152.323816,284.725345 C152.830893,285.229782 152.545908,287.298364 152.526254,288.461697 C152.490876,291.846118 152.427983,296.454482 155.649303,299.764605 C156.427608,300.564275 157.361182,301.234902 158.398922,301.760846 C160.537297,302.836196 162.536127,303.031714 164.38362,302.77363 C166.681193,302.582022 174.389562,294.808218 177.099873,295.600067 C179.505545,296.301978 178.015758,299.821305 178.760651,302.814689 C179.244144,304.764006 180.549182,308.271602 184.63332,310.12707 C186.453297,310.954112 189.263844,311.264986 192.730841,307.33507 C200.525689,298.491782 216.482916,261.15758 205.417614,245.334291 C205.417614,245.334291 202.581516,241.277289 201.077971,239.730739 C199.210824,237.816616 197.021349,236.303305 193.774478,234.672683 C187.469418,231.495513 178.283055,231.698852 178.283055,231.698852 C174.898605,231.769238 172.12147,233.534768 168.695746,235.321804 C164.690225,237.793154 160.061666,241.122829 156.183896,244.915882" id="Fill-5" fill="#FF812C" sketch:type="MSShapeGroup"></path>
                <path d="M205.582709,5.98285714 C186.351095,7.9947395 156.999545,20.0601681 147.563573,39.2991597 C138.127602,58.5361961 131.054063,127.51502 131.525764,155.671597 C131.997464,183.826218 145.205072,228.871658 181.524029,234.504538 C217.846916,240.137417 247.092334,234.504538 257.941441,218.081008 C268.790548,201.657479 278.696254,162.710252 275.396317,143.942459 C272.090484,125.170756 265.960346,53.3745154 258.882876,44.4608403 C251.809337,35.5432549 240.486565,24.2833613 236.241262,20.5274566 C231.997925,16.7774174 214.545014,5.04436975 205.582709,5.98285714" id="Fill-6" fill="#F9F8E1" sketch:type="MSShapeGroup"></path>
                <path d="M202.276876,55.8595518 C187.479245,55.8595518 182.092035,62.7300616 186.130968,70.9828852 C190.169902,79.227888 195.559078,88.1669804 202.276876,88.1669804 C209.004501,88.1669804 214.391712,79.227888 218.412957,70.9828852 C222.459752,62.7300616 217.070576,55.8595518 202.276876,55.8595518" id="Fill-7" fill="#FF812C" sketch:type="MSShapeGroup"></path>
                <path d="M137.247095,155.853429 C135.31902,163.353507 134.613435,170.658067 136.344968,177.217703 C141.92872,198.44316 156.054179,232.703815 202.280807,232.793754 C248.658772,232.703815 262.495314,198.44316 268.077101,177.217703 C269.612092,171.402992 269.228836,165.009546 267.770496,158.406896 C262.709545,163.515787 253.625383,174.492179 241.811256,185.470527 C225.653556,200.48437 204.391666,215.496258 181.325522,215.496258 C173.440265,215.496258 165.342744,213.740504 157.172501,209.632667 C143.789971,202.90684 138.520686,181.294258 137.247095,155.853429" id="Fill-8" fill="#E3E1CE" sketch:type="MSShapeGroup"></path>
                <path d="M198.336213,87.1346443 C199.444709,87.7954958 200.618063,88.1748011 201.962409,88.1748011 C202.066576,88.1748011 202.168778,88.1708908 202.276876,88.1669804 C200.908945,88.1669804 199.596046,87.7954958 198.336213,87.1346443 M218.442438,70.9203193 C218.432611,70.9398711 218.422784,70.9613782 218.412957,70.9828852 C218.422784,70.9613782 218.432611,70.9398711 218.442438,70.9203193" id="Fill-9" fill="#E3E1CE" sketch:type="MSShapeGroup"></path>
                <path d="M217.341804,61.971451 C214.629527,61.9694958 209.588231,67.1761457 202.43804,83.8792661 C202.119643,84.6222353 201.531983,84.9233333 200.785124,84.9233333 C199.210824,84.9233333 196.925043,83.5801232 194.971418,82.2388683 C193.017793,80.8976134 191.398288,79.5563585 191.14868,79.5563585 C190.991447,79.5563585 191.390427,80.0998992 192.610951,81.5310924 C194.658916,83.932056 196.39045,85.9732661 198.336213,87.1346443 C199.596046,87.7954958 200.908945,88.1669804 202.276876,88.1669804 C208.99664,87.8737031 214.391712,79.227888 218.412957,70.9828852 C218.422784,70.9613782 218.432611,70.9398711 218.442438,70.9203193 C220.403925,66.8613613 219.967602,61.971451 217.341804,61.971451" id="Fill-10" fill="#E8772C" sketch:type="MSShapeGroup"></path>
                <path d="M235.158317,53.4331709 C235.942519,52.5240112 236.404392,51.4486611 236.404392,50.2951036 C236.404392,47.0319048 232.784092,44.3963193 228.338317,44.3963193 C223.892542,44.3963193 220.280104,47.0319048 220.280104,50.2951036 C220.280104,51.3782745 220.686945,52.393014 221.386634,53.2650252 C223.275401,53.1301176 225.250646,53.0558207 227.282888,53.0558207 C230.034473,53.0558207 232.679925,53.1907283 235.158317,53.4331709" id="Fill-11" fill="#3A3430" sketch:type="MSShapeGroup"></path>
                <path d="M183.123879,53.3354118 C183.858945,52.4458039 184.289372,51.4076022 184.289372,50.2951036 C184.289372,47.0319048 180.667107,44.3963193 176.231159,44.3963193 C171.761798,44.3963193 168.155256,47.0319048 168.155256,50.2951036 C168.155256,51.415423 168.591579,52.4594902 169.332542,53.3530084 C171.555429,53.1614006 173.904104,53.0558207 176.339256,53.0558207 C178.691862,53.0558207 180.963885,53.1535798 183.123879,53.3354118" id="Fill-12" fill="#3A3430" sketch:type="MSShapeGroup"></path>
                <path d="M149.501476,229.114101 C160.771182,235.577933 178.02362,241.867754 202.280807,240.604706 C226.203873,239.3573 242.003867,235.419563 254.523579,229.364364 L254.523579,229.366319 C268.206818,216.54619 277.811816,197.227036 282.951383,171.594599 C287.656594,148.867563 279.853885,128.523894 279.285879,109.09916 C279.028409,100.306706 279.374323,91.6491597 278.106628,84.9331092 C268.200922,14.5445994 228.289182,0.119266106 202.280807,0.00586554622 C175.867556,0.119266106 136.225078,14.5445994 126.317406,84.9331092 C125.049712,91.6491597 125.256081,100.306706 125.000576,109.09916 C124.430605,128.523894 116.627896,148.867563 121.333107,171.594599 C126.437297,197.064756 135.959746,216.293972 149.501476,229.114101 M144.937775,55.8458655 C146.04234,40.7264426 167.549908,23.1610868 177.141147,18.6661232 C186.708801,14.1907115 189.071233,24.6587563 202.280807,24.7604258 C214.918444,24.6587563 217.730957,14.1907115 227.298611,18.6661232 C236.88985,23.1610868 258.279493,40.7264426 259.382092,55.8458655 C260.482726,70.9652885 244.891066,90.1749524 249.285741,108.559529 C253.67845,126.949972 273.684438,155.972695 268.077101,177.217703 C262.495314,198.44316 248.658772,232.703815 202.280807,232.793754 C156.054179,232.703815 141.92872,198.44316 136.344968,177.217703 C130.739597,155.972695 150.672865,126.949972 155.069504,108.559529 C159.460248,90.1749524 143.837141,70.9652885 144.937775,55.8458655" id="Fill-13" fill="#1D1F28" sketch:type="MSShapeGroup"></path>
                <path d="M201.443539,123.645714 L201.443539,123.645714 C202.172709,123.645714 202.876329,123.65158 203.552432,123.663311 C212.559942,123.839277 225.889406,125.350633 232.117816,126.111199 L232.955084,128.256034 L203.18883,152.32628 L172.917464,127.542392 L173.807798,125.039759 C180.014588,124.547053 192.593262,123.645714 201.443539,123.645714 M201.443539,117.780168 C188.925793,117.780168 169.517291,119.510504 169.517291,119.510504 L165.981504,129.462381 L203.165245,159.902611 L240.007003,130.111501 L236.341499,120.732493 C236.341499,120.732493 216.195965,118.044118 203.666427,117.79972 C202.954945,117.786034 202.213983,117.780168 201.443539,117.780168" id="Fill-14" fill="#8F5EDD" sketch:type="MSShapeGroup"></path>
                <path d="M327.358035,103.350924 C326.791994,103.350924 326.220058,103.51907 325.722807,103.872958 C324.447251,104.774297 324.148507,106.53005 325.054565,107.798964 C325.188213,107.986661 338.450853,126.955838 334.007043,152.611737 C333.739746,154.144599 334.773556,155.60121 336.312478,155.86516 L336.795971,155.906218 C338.148179,155.906218 339.345118,154.938403 339.580968,153.567821 C344.445378,125.518779 330.268818,105.372583 329.665435,104.529899 C329.111187,103.761513 328.240507,103.350924 327.358035,103.350924" id="Fill-15" fill="#B895EE" sketch:type="MSShapeGroup"></path>
                <path d="M76.562853,97.1862353 C75.9791239,97.1862353 75.391464,97.366112 74.8863516,97.7375966 C51.8654121,114.642101 48.087879,138.943059 47.9385072,139.969529 C47.7144496,141.508258 48.7816715,142.933585 50.3304207,143.158431 C50.468,143.177983 50.6055793,143.187759 50.7431585,143.187759 C52.1209164,143.187759 53.3316138,142.182796 53.5379827,140.782885 C53.5733602,140.552174 57.1916945,117.729333 78.2452507,102.267754 C79.5050836,101.344908 79.7723804,99.5813333 78.8427378,98.3300168 L78.5223746,97.9683081 C77.987781,97.4560504 77.2782651,97.1862353 76.562853,97.1862353" id="Fill-16" fill="#B895EE" sketch:type="MSShapeGroup"></path>
                <path d="M136.769499,81.4783025 C144.953499,84.9546162 142.247118,108.999445 116.451009,125.620448 C109.015833,130.410644 119.587816,128.103529 124.31268,132.46163 C141.388231,148.226263 120.649141,179.002784 112.520173,172.056022 C107.203718,167.500448 135.983331,159.712958 99.2536023,148.959457 C94.5248069,147.575188 83.7346628,140.911927 85.9870317,133.929972 C90.2716427,117.295283 114.568138,105.679546 119.994657,89.9598824 L120.090963,89.7643641 C122.00528,84.1881849 128.538329,77.9785266 136.769499,81.4783025" id="Fill-17" fill="#1D1F28" sketch:type="MSShapeGroup"></path>
                <path d="M268.643141,81.4783025 C260.459141,84.9526611 263.165522,109.001401 288.961631,125.620448 C296.398772,130.410644 285.82679,128.101574 281.101925,132.463585 C264.026375,148.226263 284.765464,179.002784 292.894432,172.056022 C298.212853,167.500448 269.431274,159.712958 306.161003,148.959457 C310.889798,147.575188 321.679942,140.913882 319.427573,133.929972 C315.142963,117.295283 290.846467,105.681501 285.417983,89.9598824 L285.325608,89.7643641 C283.40736,84.1881849 276.874311,77.9804818 268.643141,81.4783025" id="Fill-18" fill="#1D1F28" sketch:type="MSShapeGroup"></path>
                <path d="M204.077199,99.5520056 C204.29536,101.992073 192.121562,105.091036 163.294778,104.764521 C134.467994,104.438006 139.540738,96.0932885 128.489193,95.3151261 C118.078375,94.5819328 117.925072,94.7657199 117.925072,94.7657199 L115.037873,98.6448011 C115.039839,98.6448011 110.586202,96.5058319 113.042974,91.8622745 C115.499746,87.2206723 120.014311,78.4516807 133.402738,80.4068627 C146.79313,82.3620448 153.426415,90.5483922 162.270795,91.8935574 C171.115176,93.2367675 203.546536,93.6434454 204.077199,99.5520056" id="Fill-19" fill="#835CBD" sketch:type="MSShapeGroup"></path>
                <path d="M203.422715,99.3897255 C203.228138,95.3581401 215.828432,95.5595238 220.250622,95.0707283 C224.672813,94.5819328 248.462231,88.9607843 256.978386,81.2612773 C267.399032,71.8412101 274.667147,66.8418095 274.667147,66.8418095 C274.667147,66.8418095 279.981637,66.4976975 280.72653,67.942577 C281.607037,69.6533613 281.302398,71.6887059 281.874334,72.9928123 C282.448236,74.2969188 284.166012,73.7279608 284.985591,76.414381 C285.807135,79.1027563 285.722622,78.6960784 285.846444,79.3060952 C285.9683,79.9180672 289.162104,80.0392885 288.794571,83.2184146 C288.425072,86.3955854 287.320507,94.2143585 287.320507,94.2143585 C287.320507,94.2143585 283.480081,85.5392157 276.510709,87.4943978 C270.919095,89.0624538 271.473343,94.7031541 251.819164,97.6359272 C232.164986,100.5687 203.792213,106.964101 203.422715,99.3897255" id="Fill-20" fill="#835CBD" sketch:type="MSShapeGroup"></path>
                <path d="M202.280807,325.973821 C176.457182,325.981641 138.013608,326.798908 127.044611,331.76507 C118.475389,331.849143 109.068899,333.094594 104.053153,333.808235 C96.270098,334.361552 57.9778617,339.409832 35.2124265,340.434347 C12.4469914,341.458863 -0.982708934,342.188146 3.43751585,342.587003 C7.85970605,342.991725 9.82905476,344.268459 18.0169856,344.757255 C26.2049164,345.244095 38.3256484,346.121972 49.1354467,346.206045 C50.2557349,346.215821 51.3917464,346.219731 52.5277579,346.219731 C62.3450202,346.219731 72.3607896,345.914723 76.323072,345.816964 C76.5825072,345.811098 76.873389,345.807188 77.1917867,345.807188 C79.6348012,345.807188 83.7209049,345.979244 87.7342882,346.1513 C91.735879,346.321401 95.6647493,346.493457 97.8149164,346.493457 C98.0429049,346.493457 98.2473084,346.491501 98.4340231,346.487591 C102.364859,346.401563 112.492657,345.979244 116.614138,345.742667 C116.90502,345.727025 117.286311,345.719204 117.744254,345.719204 C125.106709,345.719204 152.616663,347.725221 155.649303,347.957888 C156.427608,348.018499 178.015758,347.963754 178.760651,348.186644 C179.244144,348.333283 180.549182,348.595277 184.63332,348.73214 C185.276012,348.755602 186.042524,348.773199 186.919101,348.773199 C188.520916,348.773199 190.4883,348.714543 192.730841,348.522936 C197.866478,348.088885 209.004501,345.703563 209.715983,345.703563 C209.727775,345.703563 209.737602,345.703563 209.743499,345.705518 C213.375591,346.524739 219.525383,347.349826 224.401585,347.785832 C224.733741,347.81516 225.211337,347.828846 225.797032,347.828846 C229.940133,347.828846 239.431135,347.171905 240.307712,347.150398 C240.360778,347.148443 240.421706,347.148443 240.486565,347.148443 C241.186254,347.148443 242.552219,347.218829 243.403245,347.252067 C245.512138,347.334185 248.214588,347.439765 251.184334,347.439765 C252.03536,347.439765 252.909971,347.429989 253.800305,347.408482 C254.761395,347.386975 251.262951,342.811849 254.523579,342.694538 C268.206818,341.736499 290.408179,338.569104 292.894432,338.406824 C298.212853,338.068577 269.431274,337.485933 306.161003,336.680398 C310.889798,336.578728 321.679942,336.080157 319.427573,335.558123 C315.53015,334.426073 288.446692,331.987961 288.794571,331.76507 C289.162104,331.528493 225.891372,325.981641 202.280807,325.973821" id="Fill-21" fill-opacity="0.1" fill="#000000" sketch:type="MSShapeGroup"></path>
                <path d="M202.43804,129.409591 L202.43804,125.804235 L182.783862,126.598039 L182.783862,130.019608 L198.426622,144.194678 L202.43804,145.721675 L202.43804,131.97479 L195.313401,131.97479 L195.274092,135.885154 L198.507205,135.885154 L198.507205,139.795518 L187.573585,130.019608 L202.43804,129.409591" id="Fill-22" fill="#8F5EDD" sketch:type="MSShapeGroup"></path>
                <path d="M204.403458,126.109244 L204.464386,145.477277 L207.721084,144.315899 L210.177856,137.840336 L211.343349,143.277697 L216.441643,139.55112 L223.135856,126.414252 L218.161383,126.109244 L213.37166,135.456969 L213.186911,130.385227 L210.484461,130.508403 L208.027689,135.456969 L207.842939,126.048633 L204.403458,126.109244" id="Fill-23" fill="#8F5EDD" sketch:type="MSShapeGroup"></path>
                <path d="M205.700634,245.756611 C205.70653,245.764431 205.710461,245.770297 205.714392,245.778118 C205.710461,245.770297 205.70653,245.764431 205.700634,245.756611 M205.608259,245.617793 C205.614156,245.625613 205.620052,245.633434 205.623983,245.641255 C205.620052,245.633434 205.614156,245.625613 205.608259,245.617793 M205.502127,245.457468 C205.511954,245.471154 205.521781,245.48484 205.527677,245.496571 C205.521781,245.48484 205.511954,245.471154 205.502127,245.457468" id="Fill-24" fill="#E8E8E9" sketch:type="MSShapeGroup"></path>
                <path d="M166.749983,236.559434 C163.241712,238.860683 159.444524,241.72307 156.183896,244.915882 C155.010542,246.090947 153.854876,247.31098 152.726726,248.556431 C161.148542,251.768796 171.753937,253.684874 183.275216,253.684874 C192.245383,253.684874 200.631821,252.505899 207.892075,250.47251 C207.351585,248.771501 206.638138,247.193669 205.714392,245.778118 C205.710461,245.770297 205.70653,245.764431 205.700634,245.756611 C205.675084,245.717507 205.651499,245.680359 205.623983,245.641255 C205.620052,245.633434 205.614156,245.625613 205.608259,245.617793 C205.582709,245.576734 205.555193,245.53763 205.527677,245.496571 C205.521781,245.48484 205.511954,245.471154 205.502127,245.457468 C205.474611,245.416409 205.44513,245.37535 205.417614,245.334291 C205.417614,245.334291 203.405026,242.456263 201.872,240.624258 C199.89479,240.720062 197.96868,240.766986 196.083844,240.766986 C184.643147,240.766986 174.904501,239.064022 166.749983,236.559434" id="Fill-25" fill="#E8772C" sketch:type="MSShapeGroup"></path>
                <path d="M178.623072,231.694941 C178.402945,231.694941 178.283055,231.698852 178.283055,231.698852 C174.898605,231.769238 172.12147,233.534768 168.695746,235.321804 C168.060916,235.71284 167.410363,236.125384 166.749983,236.559434 C174.904501,239.064022 184.643147,240.766986 196.083844,240.766986 C197.96868,240.766986 199.89479,240.720062 201.872,240.624258 C201.585049,240.282101 201.315787,239.975137 201.077971,239.730739 C199.210824,237.816616 197.021349,236.303305 193.774478,234.672683 C188.18483,231.855266 180.334951,231.694941 178.623072,231.694941" id="Fill-26" fill="#1D1F28" sketch:type="MSShapeGroup"></path>
                <path d="M76.323072,271.119232 C76.252317,271.142695 76.181562,271.166157 76.1088415,271.191574 C76.1009798,271.195485 76.0931182,271.19744 76.0832911,271.20135 C76.1481499,271.177888 76.228732,271.150515 76.323072,271.119232 M135.000622,253.15502 C134.984899,253.168706 134.973107,253.182392 134.957383,253.196078 C134.973107,253.182392 134.984899,253.168706 135.000622,253.15502 M135.041896,253.112006 C135.032069,253.119826 135.022242,253.129602 135.012415,253.139378 C135.022242,253.129602 135.032069,253.119826 135.041896,253.112006 M135.08317,253.068992 C135.075308,253.076812 135.065481,253.084633 135.05762,253.094409 C135.065481,253.084633 135.075308,253.076812 135.08317,253.068992 M135.142133,253.008381 C135.13034,253.022067 135.116582,253.033798 135.10479,253.045529 C135.118548,253.033798 135.13034,253.022067 135.142133,253.008381 M135.183406,252.967322 C135.175545,252.975143 135.169648,252.982964 135.161787,252.990784 C135.169648,252.982964 135.175545,252.975143 135.183406,252.967322 M135.228611,252.922353 C135.222715,252.930174 135.214853,252.937994 135.206991,252.94386 C135.214853,252.936039 135.222715,252.930174 135.228611,252.922353 M135.260058,252.89107 C135.260058,252.893025 135.256127,252.896936 135.254161,252.898891 C135.256127,252.89498 135.260058,252.893025 135.260058,252.89107 M135.34064,252.814818 C135.332778,252.822639 135.326882,252.830459 135.317055,252.83828 C135.324916,252.830459 135.332778,252.822639 135.34064,252.814818 M135.38781,252.771804 C135.379948,252.779625 135.372086,252.78549 135.364225,252.793311 C135.372086,252.78549 135.379948,252.777669 135.38781,252.771804 M135.548974,252.621255 L135.545043,252.62321 L135.548974,252.621255" id="Fill-27" fill="#E8E8E9" sketch:type="MSShapeGroup"></path>
                <path d="M127.60672,194.198459 C101.818473,257.657804 78.6894352,270.02042 76.1088415,271.191574 C76.181562,271.166157 76.252317,271.142695 76.323072,271.119232 C76.586438,271.033204 76.8832161,270.992146 77.2094755,270.992146 C79.6505245,270.992146 83.7287666,273.283619 87.7303573,275.577048 C91.7339135,277.868521 95.6647493,280.16195 97.8149164,280.16195 C98.0409395,280.16195 98.2473084,280.136532 98.4340231,280.081787 C102.364859,278.939961 112.492657,273.271888 116.614138,270.139686 C121.586646,266.36423 130.657049,257.714504 134.957383,253.196078 C134.973107,253.182392 134.984899,253.168706 135.000622,253.15502 C135.002588,253.149154 135.008484,253.145244 135.012415,253.139378 C135.022242,253.129602 135.032069,253.119826 135.041896,253.112006 C135.045827,253.10614 135.051723,253.100275 135.05762,253.094409 C135.065481,253.084633 135.075308,253.076812 135.08317,253.068992 C135.091032,253.061171 135.098893,253.05335 135.10479,253.045529 C135.116582,253.033798 135.13034,253.022067 135.142133,253.008381 C135.148029,253.002515 135.153925,252.99665 135.161787,252.990784 C135.169648,252.982964 135.175545,252.975143 135.183406,252.967322 C135.191268,252.959501 135.19913,252.951681 135.206991,252.94386 C135.214853,252.937994 135.222715,252.930174 135.228611,252.922353 C135.238438,252.914532 135.244334,252.906711 135.254161,252.898891 C135.256127,252.896936 135.260058,252.893025 135.260058,252.89107 C135.279712,252.873473 135.299366,252.855877 135.317055,252.83828 C135.326882,252.830459 135.332778,252.822639 135.34064,252.814818 C135.348501,252.806997 135.356363,252.799176 135.364225,252.793311 C135.372086,252.78549 135.379948,252.779625 135.38781,252.771804 C135.436945,252.722924 135.491977,252.674045 135.545043,252.62321 L135.548974,252.621255 C139.686179,248.80865 151.838357,241.500179 163.137545,235.364818 C157.87219,233.495664 153.339937,231.315636 149.501476,229.114101 C140.309216,220.411585 132.96838,208.756745 127.60672,194.198459" id="Fill-28" fill="#835CBD" sketch:type="MSShapeGroup"></path>
                <path d="M132.49668,182.780196 C132.211695,182.780196 131.944398,183.096936 131.682997,183.787115 C130.318997,187.400291 128.956963,190.872695 127.60672,194.198459 C132.96838,208.756745 140.309216,220.411585 149.501476,229.114101 C153.339937,231.315636 157.87219,233.495664 163.137545,235.364818 C164.454375,234.651176 165.759412,233.951221 167.038899,233.276683 C170.674922,231.354739 155.057712,224.92219 145.440922,211.159664 C137.626421,199.974067 134.595746,182.780196 132.49668,182.780196" id="Fill-29" fill="#1D1F28" sketch:type="MSShapeGroup"></path>
                <path d="M76.0832911,271.20135 C75.9339193,271.256095 75.8631643,271.289333 75.8631643,271.289333 C75.8769222,271.289333 75.9496427,271.261961 76.0832911,271.20135" id="Fill-30" fill="#E8E8E9" sketch:type="MSShapeGroup"></path>
                <path d="M121.077602,170.290493 C120.01038,171.227025 118.933331,171.952398 117.885764,172.427507 C105.52132,195.230796 69.1198156,241.789546 69.1198156,241.789546 C69.1198156,241.789546 76.3289683,239.183289 95.6529568,220.609059 C110.189187,206.639283 120.092928,190.456241 124.108277,183.294409 C123.072501,179.55219 122.148755,175.653557 121.333107,171.594599 C121.244663,171.156639 121.158184,170.724543 121.077602,170.290493" id="Fill-31" fill="#835CBD" sketch:type="MSShapeGroup"></path>
                <path d="M123.194357,168.141748 C122.50253,168.943373 121.793014,169.66288 121.077602,170.290493 C121.158184,170.724543 121.244663,171.156639 121.333107,171.594599 C122.148755,175.653557 123.072501,179.55219 124.108277,183.294409 C125.431003,180.932549 126.116934,179.55219 126.116934,179.55219 L123.194357,168.141748" id="Fill-32" fill="#1D1F28" sketch:type="MSShapeGroup"></path>
                <path d="M121.857873,162.931188 C121.513925,165.089709 120.077205,168.386146 117.885764,172.427507 C118.933331,171.952398 120.01038,171.227025 121.077602,170.290493 C121.793014,169.66288 122.50253,168.943373 123.194357,168.141748 L121.857873,162.931188" id="Fill-33" fill="#1D1F28" sketch:type="MSShapeGroup"></path>
                <path d="M246.520398,91.6765322 C243.676438,91.6765322 237.617055,93.5495966 232.65634,95.5595238 C226.023055,98.2478992 206.860231,100.445524 206.860231,100.445524 C232.65634,99.7142857 248.379683,94.3355798 248.134006,92.3803978 C248.073078,91.8896471 247.479522,91.6765322 246.520398,91.6765322" id="Fill-34" fill="#B895EE" sketch:type="MSShapeGroup"></path>
                <path d="M158.870622,96.6192325 C158.615118,99.6888683 170.26415,100.748577 178.929677,100.748577 C181.305867,100.748577 183.456035,100.668415 185.077504,100.529597 C192.610951,99.8765658 201.455331,98.8989748 201.455331,98.8989748 L201.127107,97.1060728 C201.127107,97.1060728 196.588957,97.7278207 190.794905,97.7278207 C188.72532,97.7278207 186.498501,97.6476583 184.257925,97.4325882 C178.491389,96.8812269 169.037729,94.9084482 163.436288,94.9084482 C160.769216,94.9084482 158.976755,95.3561849 158.870622,96.6192325 Z" id="Fill-35" fill="#B895EE" sketch:type="MSShapeGroup"></path>
                <path d="M213.247839,103.345059 C213.247839,100.652773 209.603954,96.9007787 205.032392,94.9338655 C200.378282,92.9317591 196.541787,93.5359104 196.541787,96.3200896 C196.541787,99.1023137 200.378282,102.934471 205.032392,104.846639 C209.603954,106.723613 213.247839,106.037345 213.247839,103.345059" id="Fill-36" fill="#835CBD" sketch:type="MSShapeGroup"></path>
            </g>
        </g>
    </g>
</svg>