<?xml version="1.0" encoding="UTF-8" standalone="no"?>
<svg width="103px" height="95px" viewBox="0 0 103 95" version="1.1" xmlns="http://www.w3.org/2000/svg" xmlns:xlink="http://www.w3.org/1999/xlink" xmlns:sketch="http://www.bohemiancoding.com/sketch/ns">
    <!-- Generator: Sketch 3.3.2 (12043) - http://www.bohemiancoding.com/sketch -->
    <title>Group Copy 6</title>
    <desc>Created with Sketch.</desc>
    <defs></defs>
    <g id="Welcome" stroke="none" stroke-width="1" fill="none" fill-rule="evenodd" sketch:type="MSPage">
        <g id="Desktop-HD-Copy-8" sketch:type="MSArtboardGroup" transform="translate(-481.000000, -641.000000)">
            <g id="Group-Copy" sketch:type="MSLayerGroup" transform="translate(385.000000, 567.000000)">
                <g id="uni-icon-copy-4" transform="translate(96.000000, 74.000000)" sketch:type="MSShapeGroup">
                    <g id="Group-Copy-6">
                        <path d="M102.056409,52.8089855 C101.467443,52.4269203 100.725013,52.370471 100.08351,52.6534058 C100.05655,52.6657971 97.2271611,53.8519203 91.9395973,53.8519203 C86.6617114,53.8519203 83.8108926,52.6602899 83.7956846,52.6534058 C83.1548725,52.3690942 82.412443,52.4269203 81.8227852,52.8089855 C81.2338188,53.1903623 80.8791946,53.8415942 80.8791946,54.5410145 L80.8791946,66.243913 C80.8791946,67.0603623 81.3617047,67.7997101 82.1103557,68.1308333 C82.2541409,68.1948551 85.6953087,69.685942 91.9395973,69.685942 C98.1838859,69.685942 101.625054,68.1948551 101.768839,68.1308333 C102.51749,67.7997101 103,67.0596739 103,66.243913 L103,54.5410145 C103,53.8415942 102.644685,53.1903623 102.056409,52.8089855 L102.056409,52.8089855 Z" id="Shape" fill="#BBBBBB"></path>
                        <path d="M20.4119732,52.7456522 C19.7725436,52.3759783 18.999698,52.3642754 18.3575034,52.7305072 C18.3360738,52.7422101 16.1578658,53.8526087 11.0597114,53.8526087 C5.97538255,53.8526087 3.79510067,52.7484058 3.79302685,52.7484058 C3.15221477,52.3835507 2.3634698,52.3849275 1.72334899,52.7552899 C1.08391946,53.1249638 0.690583893,53.8051087 0.690583893,54.5417029 L0.690583893,66.2446014 C0.690583893,66.9853261 1.08944966,67.6696014 1.73579195,68.0372101 C2.03234899,68.2058696 4.81404027,69.6866304 11.0597114,69.6866304 C17.3053826,69.6866304 20.0877651,68.206558 20.3836309,68.0372101 C21.0299732,67.6696014 21.4288389,66.9853261 21.4288389,66.2446014 L21.4288389,54.5417029 C21.4295302,53.8044203 21.0514027,53.1153261 20.4119732,52.7456522 L20.4119732,52.7456522 Z" id="Shape" fill="#BBBBBB"></path>
                        <path d="M92.2741745,60.2031522 L83.9788725,55.4992754 C83.3366779,55.1364855 82.5486242,55.1392391 81.9105772,55.508913 C81.2718389,55.878587 80.8791946,56.5587319 80.8791946,57.2946377 L80.8791946,68.9975362 C80.8791946,69.6542754 81.1923423,70.2717754 81.7239329,70.6607246 L90.0192349,76.741413 C90.3821544,77.0078261 90.8142013,77.143442 91.2483221,77.143442 C91.5676913,77.143442 91.888443,77.070471 92.1843087,76.921087 C92.8824966,76.57 93.3221477,75.8575 93.3221477,75.0782246 L93.3221477,61.9985145 C93.3221477,61.2557246 92.9225906,60.5707609 92.2741745,60.2031522 L92.2741745,60.2031522 Z" id="Shape" fill="#666666"></path>
                        <path d="M20.3089732,55.4600362 C19.6204631,55.1055072 18.7909329,55.1619565 18.1591074,55.6073551 L10.5550805,60.9576449 C10.0048255,61.3452174 9.67785235,61.9737319 9.67785235,62.6442391 L9.67785235,75.7239493 C9.67785235,76.5417754 10.161745,77.2818116 10.9124698,77.6122464 C11.1820671,77.7313406 11.4675638,77.7891667 11.7509866,77.7891667 C12.257,77.7891667 12.7567919,77.6039855 13.1466711,77.2522101 L20.750698,70.3681522 C21.182745,69.9771377 21.4295302,69.4222826 21.4295302,68.8398913 L21.4295302,57.2939493 C21.4295302,56.5222464 20.9974832,55.8152536 20.3089732,55.4600362 L20.3089732,55.4600362 Z" id="Shape" fill="#666666"></path>
                        <path d="M93.5233087,2.13162821e-14 L10.6193691,2.13162821e-14 C9.47392617,2.13162821e-14 8.54554362,0.924528986 8.54554362,2.06521739 C8.54554362,40.6971739 20.0518188,63.6555072 29.7034027,76.1122101 C40.2888993,89.7722464 50.8502013,94.1271014 51.2946913,94.306087 C51.5435503,94.4065942 51.8076174,94.4561594 52.0709933,94.4561594 C52.3343691,94.4561594 52.5984362,94.4065942 52.8472953,94.306087 C53.2917852,94.1271014 63.8537785,89.7722464 74.4385839,76.1122101 C84.0901678,63.6555072 95.5957517,40.6978623 95.5957517,2.06521739 C95.5971342,0.924528986 94.6687517,2.13162821e-14 93.5233087,2.13162821e-14 L93.5233087,2.13162821e-14 Z" id="Shape" fill="#999999"></path>
                        <path d="M92.9371074,60.3188043 C92.280396,59.9525725 91.4646913,59.9801087 90.8238792,60.3718116 C90.7450738,60.42 82.578349,65.2106159 51.4654362,65.2106159 C20.5135906,65.2106159 13.0097987,60.4668116 12.9752349,60.445471 C12.3447919,59.9869928 11.508349,59.9188406 10.8122349,60.2713043 C10.1161208,60.6230797 9.67716107,61.3348913 9.67716107,62.1127899 L9.67716107,75.1925 C9.67716107,75.8513043 9.99307383,76.4701812 10.5267383,76.8598188 C11.3078792,77.428442 19.0964765,82.4207609 51.4654362,82.4207609 C84.3362617,82.4207609 92.740094,77.1406884 93.0815839,76.9155797 C93.6629463,76.5328261 94.0127315,75.886413 94.0127315,75.1925 L94.0127315,62.1127899 C94.0134228,61.3651812 93.5938188,60.682971 92.9371074,60.3188043 L92.9371074,60.3188043 Z" id="Shape" fill="#BBBBBB"></path>
                        <path d="M75.3489933,15.1449275 L58.7583893,15.1449275 L58.7583893,23.4057971 L62.9060403,23.4057971 L62.9060403,48.2028623 L58.1894698,53.6956522 L45.5094094,53.6956522 L39.4026846,47.9488406 L39.4026846,23.4057971 L43.5503356,23.4057971 L43.5503356,15.1449275 L26.9597315,15.1449275 L26.9597315,23.4057971 L31.1073826,23.4057971 L31.1073826,51.5078986 L42.2106443,61.9565217 L62.0101477,61.9565217 L71.2013423,51.2538768 L71.2013423,23.4057971 L75.3489933,23.4057971 L75.3489933,15.1449275 Z" id="Shape" fill="#FFFFFF"></path>
                    </g>
                </g>
            </g>
        </g>
    </g>
</svg>