<svg width="44" height="26" version="1.1" xmlns="http://www.w3.org/2000/svg"><g id="Page-1" stroke="none" stroke-width="1" fill="none" fill-rule="evenodd"><g id="jcb-card-icon" fill-rule="nonzero"><g id="Shape"><path d="M38.333 24H1.667C.75 24 0 23.28 0 22.4V1.6C0 .72.75 0 1.667 0h36.666C39.25 0 40 .72 40 1.6v20.8c0 .88-.75 1.6-1.667 1.6z" fill="#FFF" transform="translate(2 1)"/><path d="M33.273 2.01h.013v17.062a3.454 3.454 0 0 1-1.372 2.746c-.63.47-1.366.67-2.14.67-.437 0-4.833.026-4.855 0-.01-.01 0-.07 0-.082v-6.82c0-.04.004-.064.033-.064h5.253c.867 0 1.344-.257 1.692-.61.44-.448.574-1.162.294-1.732-.24-.488-.736-.78-1.244-.913a3.146 3.146 0 0 0-.483-.083c-.01 0-.064 0-.07-.006-.03-.034.023-.04.038-.046.102-.033.215-.042.32-.073.532-.164.993-.547 1.137-1.105a1.477 1.477 0 0 0-.524-1.552c-.34-.257-.768-.376-1.187-.413-.43-.038-4.774-.022-5.21-.022-.072 0-.05-.02-.05-.09V5.63c0-.31.01-.616.073-.92.126-.592.41-1.144.815-1.59a3.398 3.398 0 0 1 2.16-1.093c.478-.048 4.89-.017 5.305-.017h.002zm-4.06 8.616a.853.853 0 0 1-.204.77.903.903 0 0 1-.648.253c-.195.003-1.725 0-1.788 0l.003-1.645c.012-.027.02-.018.06-.018.097 0 1.713-.004 1.823.005.232.02.45.12.598.306a.814.814 0 0 1 .155.328l.001.001zm-2.636 2.038h1.944c.242.002.47.063.652.228a.92.92 0 0 1 .283.815.89.89 0 0 1-.422.634c-.187.112-.39.125-.6.125h-1.857v-1.802z" fill="#53B230" transform="translate(2 1)"/><path d="M6.574 13.89c-.06-.03-.06-.018-.07-.06-.006-.026-.005-8.365.003-8.558.04-.95.487-1.857 1.21-2.47a3.397 3.397 0 0 1 1.83-.778c.396-.04.803-.018 1.2-.018.69 0 4.11-.013 4.12 0 .008.008.002 16.758 0 17.074a3.449 3.449 0 0 1-1.105 2.523c-.506.465-1.15.77-1.83.86-.41.056-5.02.032-5.363.032-.066 0-.054.013-.066-.024-.01-.025 0-7 0-7.17.66.178 1.35.28 2.03.348.662.067 1.33.093 1.993.062.93-.044 1.947-.192 2.712-.762.32-.238.574-.553.73-.922.148-.353.2-.736.2-1.117 0-.348.006-3.93-.016-3.942-.023-.014-2.885-.015-2.9.012-.012.022 0 3.87 0 3.95-.003.47-.16.933-.514 1.252-.468.42-1.11.47-1.707.423-.687-.055-1.357-.245-1.993-.508a10.18 10.18 0 0 1-.466-.208l.002.001z" fill="#006CB9" transform="translate(2 1)"/><path d="M15.95 9.835c-.025.02-.05.04-.072.06V6.05c0-.295-.012-.594.01-.888.12-1.593 1.373-2.923 2.944-3.126.382-.05 5.397-.042 5.41-.026.01.01 0 .062 0 .074v16.957c0 1.304-.725 2.52-1.89 3.1-.504.25-1.045.35-1.605.35-.322 0-4.757.015-4.834 0-.05-.01-.023.01-.035-.02-.007-.022 0-6.548 0-7.44v-.422c.554.48 1.256.75 1.96.908a8.96 8.96 0 0 0 1.63.196c.537.02 1.076.01 1.61-.037a15.346 15.346 0 0 0 2.035-.334c.033-.006.17-.017.187-.044.013-.02 0-.097 0-.12v-1.324a7.226 7.226 0 0 1-1.83.652c-.778.155-1.64.198-2.385-.123-.752-.326-1.2-1.024-1.274-1.837-.076-.837.173-1.716.883-2.212.736-.513 1.7-.517 2.553-.38.634.1 1.245.305 1.825.58.078.037.154.075.23.113V9.322c0-.02.013-.1 0-.118-.02-.028-.152-.038-.188-.046-.066-.016-.133-.03-.2-.045A16.144 16.144 0 0 0 21.3 8.85a12.094 12.094 0 0 0-1.603-.066 9.786 9.786 0 0 0-1.62.154c-.662.125-1.32.337-1.883.716a3.15 3.15 0 0 0-.245.18l.001.001z" fill="#E20138" transform="translate(2 1)"/></g></g></g></svg>