<svg width="53" height="15" version="1.1" xmlns="http://www.w3.org/2000/svg"><g id="new-checkout-page-UN-43" stroke="none" stroke-width="1" fill="none" fill-rule="evenodd"><g id="new-checkout-page-UN-43-D-Copy" transform="translate(-389 -671)" fill="#174195"><path d="M430.244 678.832c-.153.733-.733 1.053-1.437 1.084-.612.032-1.163-.51-.765-1.148.306-.543 1.163-.67 1.683-.67h.673c-.062.255-.093.479-.154.734m-.183-5.615c1.927-.032 4.038.542 3.549 2.87l-1.194 5.488h-2.753l.184-.83c-1.499 1.5-5.262 1.596-4.65-1.85.428-2.01 2.509-2.648 5.599-2.648.213-.893-.398-1.116-1.439-1.084-1.04.032-2.294.382-2.692.574l.246-2.01c.795-.16 1.835-.51 3.15-.51zm5.904-2.17h2.825l-2.306 10.528h-2.797l2.278-10.528zm-12.94 3.605c-.185.798-.982 1.436-1.749 1.436h-1.38l.614-2.871h1.472c.767 0 1.226.638 1.043 1.435zm.091-3.573c1.472 0 3.25 1.117 2.73 3.573-.461 2.17-2.178 3.446-4.263 3.446h-2.115l-.767 3.477h-2.974l2.27-10.496h5.119zm-19.657 7.753c-.151.733-.756 1.053-1.45 1.084-.605.032-1.119-.51-.726-1.148.302-.543 1.148-.67 1.632-.67h.695c-.06.255-.12.479-.151.734zm-.212-5.615c1.904-.032 4.02.542 3.536 2.87l-1.179 5.488h-2.75l.181-.83c-1.45 1.5-5.167 1.596-4.562-1.85.423-2.01 2.478-2.648 5.53-2.648.181-.893-.423-1.116-1.451-1.084-1.027.032-2.266.382-2.629.574l.242-2.01c.755-.16 1.783-.51 3.082-.51zm4.734.15h2.75l.443 4.889 2.69-4.889h2.838l-6.533 11.7h-3.075l2.01-3.44-1.123-8.26zm-11.665 1.285c-.185.798-.953 1.436-1.722 1.436h-1.414l.646-2.871h1.475c.738 0 1.23.638 1.015 1.435zm.092-3.573c1.506 0 3.258 1.117 2.736 3.573-.461 2.17-2.183 3.446-4.242 3.446h-2.152l-.738 3.477H389l2.275-10.496h5.133zm42.986 1.329v-1.242h-.461V671h1.11v.166h-.464v1.242h-.185zm.832 0V671h.277l.332.996c.031.093.053.162.067.209a8.08 8.08 0 0 1 .075-.226l.336-.979h.25v1.408h-.179v-1.179l-.408 1.179h-.167l-.405-1.198v1.198h-.178z" id="Paypal-Logo"/></g></g></svg>