<svg width="44" height="26" version="1.1" xmlns="http://www.w3.org/2000/svg"><g id="Page-1" stroke="none" stroke-width="1" fill="none" fill-rule="evenodd"><g id="diners-club-icon" fill-rule="nonzero"><g id="Shape"><path d="M38.333 24H1.667C.75 24 0 23.28 0 22.4V1.6C0 .72.75 0 1.667 0h36.666C39.25 0 40 .72 40 1.6v20.8c0 .88-.75 1.6-1.667 1.6z" fill="#FFF" transform="translate(2 1)"/><path d="M9.02 11.83c0-5.456 4.54-9.88 10.14-9.88 5.6 0 10.139 4.424 10.139 9.88-.002 5.456-4.54 9.88-10.14 9.88-5.6 0-10.14-4.424-10.14-9.88h.001z" fill="#FEFEFE" transform="translate(2 1)"/><path fill="#FFF" d="M32.522 22H8.5V1.5h24.022" transform="translate(2 1)"/><path d="M25.02 11.732c-.003-2.534-1.607-4.695-3.868-5.55v11.102c2.26-.857 3.865-3.017 3.87-5.552h-.002zm-8.182 5.55V6.18c-2.26.86-3.86 3.017-3.867 5.55.007 2.533 1.61 4.69 3.868 5.55l-.001.002zm2.158-14.934c-5.25.002-9.503 4.202-9.504 9.384 0 5.182 4.254 9.38 9.504 9.382 5.25 0 9.504-4.2 9.505-9.382 0-5.182-4.254-9.382-9.504-9.384h-.001zM18.973 22C13.228 22.027 8.5 17.432 8.5 11.84 8.5 5.726 13.228 1.5 18.973 1.5h2.692c5.677 0 10.857 4.225 10.857 10.34 0 5.59-5.18 10.16-10.857 10.16h-2.692z" fill="#004A97" transform="translate(2 1)"/></g></g></g></svg>