<<<<<<< HEAD
<svg xmlns="http://www.w3.org/2000/svg"><defs><font id="ae-icons-website" horiz-adv-x="512"><font-face units-per-em="512" ascent="480" descent="-32"/><glyph horiz-adv-x="256"/><glyph unicode="" d="M365.714 210.286q0 4-2.572 6.572t-6.572 2.571h-64v100.572q0 3.714-2.714 6.428t-6.428 2.714h-54.857q-3.714 0-6.429-2.714t-2.714-6.428V219.429h-64q-3.714 0-6.428-2.714t-2.714-6.428q0-4 2.571-6.572l100.571-100.572q2.571-2.572 6.572-2.572t6.572 2.572l100.286 100.286q2.857 3.428 2.857 6.857zm182.858-64q0-45.428-32.143-77.572t-77.572-32.143H128q-52.857 0-90.428 37.572T0 164.571q0 37.143 20 68.572t53.715 47.143q-.572 8.572-.572 12.286Q73.143 353.144 116 396t103.428 42.857Q264 438.857 301 414t53.857-66q20.286 17.715 47.428 17.715 30.286 0 51.714-21.428t21.428-51.714q0-21.714-11.714-39.428 37.143-8.857 61-38.714t23.857-68.143z" horiz-adv-x="549"/><glyph unicode="" d="M411.428 347.429q0 11.428-8 19.428t-19.428 8-19.428-8-8-19.428 8-19.428 19.428-8 19.428 8 8 19.428zm64 82.285q0-71.143-21.572-123t-72.428-103q-23.143-22.857-55.714-50.286L320 45.142q-.572-4.572-4.572-7.428l-109.714-64q-2-1.143-4.572-1.143-3.429 0-6.572 2.572L176.284-6.571q-3.714 4-2.286 9.143l24.286 78.857-80.285 80.286-78.857-24.286q-.857-.286-2.572-.286-4 0-6.572 2.572l-18.285 18.286q-4.857 5.428-1.428 11.143l64 109.714q2.857 4 7.428 4.572l108.285 5.714q27.428 32.572 50.286 55.714 53.714 53.428 102.286 73.714t123.143 20.286q4 0 6.857-2.714t2.857-6.429z" horiz-adv-x="476"/><glyph unicode="" d="M475.428 292.572q15.143 0 25.857-10.714t10.714-25.857-10.714-25.857-25.857-10.714V109.716q0-14.857-10.857-25.714t-25.714-10.857q-119.143 99.143-232 108.572-16.572-5.428-26-18.857T172 134.146t11.429-26.428q-5.714-9.428-6.572-18.714t1.714-16.572 9.572-15.714 13.714-14.286 17.572-14.428q-8.286-16.572-31.857-23.714t-48.143-3.286-37.715 15.857q-2 6.572-8.428 25t-9.143 27-6.572 25.428-4.285 28.857 1 28.143 6.285 31.572H45.714q-18.857 0-32.285 13.428T.001 228.575v54.857q0 18.857 13.428 32.286t32.285 13.428h137.143q124.286 0 256 109.714 14.857 0 25.714-10.857t10.857-25.714V292.575zM438.857 120v272.572q-112.572-86.286-219.429-98v-77.143q107.715-12 219.429-97.428z"/><glyph unicode="" d="M392.992 45.696C392.992 20.704 372.288 0 347.296 0H164.544c-24.992 0-45.696 20.672-45.696 45.696V411.2c0 24.992 20.704 45.696 45.696 45.696h182.752c24.96 0 45.696-20.704 45.696-45.696V45.696zM358.72 354.08c0 6.048-5.344 11.424-11.392 11.424H164.544c-6.048 0-11.424-5.344-11.424-11.424V102.816c0-6.048 5.344-11.424 11.424-11.424h182.752c6.048 0 11.392 5.376 11.392 11.424V354.08zm-74.24 57.12h-57.12c-3.232 0-5.728-2.496-5.728-5.728 0-3.2 2.496-5.696 5.728-5.696h57.12c3.232 0 5.728 2.496 5.728 5.696-.032 3.232-2.528 5.728-5.728 5.728zM255.936 74.272c-15.712 0-28.544-12.864-28.544-28.576s12.832-28.576 28.544-28.576 28.544 12.864 28.544 28.576-12.864 28.576-28.544 28.576zm-81.184 110.304v70.304l71.168-37.92v-70.304l-71.168 37.92zm88.64 32.384l71.168 37.952v-70.304l-71.168-37.952v70.304zm-85.024 54.336l77.792 41.472 74.912-41.44-76.416-40.736-76.288 40.704z"/><glyph unicode="" d="M270.432 336.512l19.968 94.784H188.816l20.752-94.784h60.864zm-61.296-17.744l-67.2-214.128 101.6-84.4 93.776 84.4-65.664 214.128h-62.512zm92.208-29.712l46.912-128.96h28.128v28.928l-75.04 100.032z"/><glyph unicode="" d="M96 416l320-192L96 32z"/><glyph unicode="" d="M351.232 184.613c2.816 0 5.632-.512 8.448-1.536 2.56-1.024 4.864-2.56 6.656-4.608s3.328-4.352 4.608-6.656c1.28-2.56 1.792-5.12 1.792-8.192 0-2.816-.512-5.632-1.792-8.448-1.28-2.56-2.816-4.864-4.608-6.656s-4.096-3.328-6.656-4.608c-2.56-1.28-5.376-1.792-8.448-1.792h-42.24c-2.816 0-5.632.512-8.448 1.792-2.56 1.28-4.864 2.816-6.656 4.608s-3.328 4.096-4.608 6.656c-1.28 2.56-1.792 5.376-1.792 8.448 0 2.816.512 5.632 1.792 8.192s2.816 4.864 4.608 6.656c1.792 2.048 4.096 3.584 6.656 4.608s5.376 1.536 8.448 1.536h42.24zm66.048-68.352c0-2.304-1.024-4.608-1.792-6.912-1.024-2.304-2.56-4.352-4.096-5.888-1.792-1.536-3.84-2.304-5.888-3.328-2.304-1.024-4.608-1.024-7.424-1.024H161.536l-50.432-43.52H424.96c4.352 0 8.704 1.28 12.544 3.072 4.096 1.792 7.68 4.352 10.752 7.168 3.072 3.072 5.632 6.656 7.424 10.752s2.56 8.448 2.56 13.056v255.488l-40.96-34.816V116.261zM99.84 328.741c0 2.56 1.024 5.12 1.792 7.168 1.024 2.304 2.56 4.096 4.096 5.888 1.792 1.792 3.84 3.072 5.888 4.096 2.304 1.024 4.864 1.536 7.424 1.536H192v-15.104c0-2.56.512-5.12 1.536-7.168 1.024-2.304 2.304-4.096 3.84-5.888s3.584-2.816 5.888-3.84 4.608-1.28 6.912-1.28h96.512c2.304 0 4.608.512 6.912 1.28 2.304 1.024 4.352 2.304 5.888 3.84 1.536 1.792 1.536 3.584 2.56 5.888s.256 4.608.256 7.168v15.104h34.048l50.432 40.96H322.56v15.36c0 2.56.768 5.12-.256 7.168-1.024 2.304-1.792 4.096-3.328 5.888s-3.072 2.816-5.632 3.84c-2.304 1.024-4.352 1.28-6.656 1.28h-96.256c-2.304 0-4.608-.256-6.912-1.28s-4.352-2.048-5.888-3.84c-1.536-1.792-2.816-3.584-3.84-5.888-1.28-2.304-1.792-4.608-1.792-7.168v-15.36H92.416c-4.352 0-8.704-.512-12.544-2.304-4.096-1.792-7.68-4.096-10.752-7.168s-6.912-6.656-8.704-10.752c-1.792-3.84-4.096-7.936-4.096-12.544V98.597l43.52 34.816v195.328zm133.888-81.408c0 4.608-1.024 8.96-2.816 13.056-2.048 4.096-4.608 7.424-7.68 10.496-3.328 3.072-7.168 5.376-11.776 7.168s-9.728 2.816-14.848 2.816c-5.376 0-10.496-1.024-15.104-2.816s-8.448-4.352-11.776-7.168c-3.328-3.072-5.888-6.4-7.68-10.496s-2.816-8.448-2.816-13.056c0-2.816.256-5.888 1.024-9.216s1.536-6.4 2.816-9.728c1.28-3.328 2.56-6.4 4.352-9.472s3.84-5.632 5.888-7.936c2.048-1.792 3.584-3.328 4.608-4.352 1.024-1.28 2.048-2.304 3.072-3.584.512-.768 1.024-1.28 1.28-1.536l51.712 43.008c-.256 1.024-.256 2.048-.256 2.816zm12.032-114.944c1.792 0 3.584-.256 5.12.512s2.816 1.28 4.096 2.304c1.28 1.024 2.048 2.304 2.816 3.84s1.024 3.072 1.024 4.864v15.616c0 1.792-1.024 11.776-5.632 15.36l-51.2-42.496h43.776zm67.072 92.16h41.216c2.816 0 5.632-.512 8.192.768s4.864 2.048 6.656 4.096c1.792 1.792 3.328 3.84 4.352 6.4 1.28 2.56 1.792 5.12 1.792 7.936s-.512 5.376-1.792 7.936c-1.28 2.56-2.56 4.608-4.352 6.656s-4.096 3.328-6.656 4.352c-.768.256-1.28.512-2.048.768l-48.896-39.68c.512-.256 1.024.768 1.536.768zM43.776 26.405c-4.864 0-9.472 2.048-12.8 5.888-5.888 7.168-4.864 17.408 2.048 23.296l432.64 360.192c7.168 5.888 17.408 4.864 23.296-2.048 5.888-7.168 4.864-17.408-2.048-23.296L54.272 30.245c-2.816-2.56-6.656-3.84-10.496-3.84z"/><glyph unicode="" d="M288 128c-17.664 0-32 14.336-32 32v32c0 17.68 14.336 32 32 32h192v-96H288zm24 70.672c-13.248 0-24-10.752-24-24 0-13.264 10.752-24 24-24 13.264 0 24 10.736 24 24 0 13.248-10.736 24-24 24zM240 192v-32c0-26.496 21.504-48 48-48h160V48c0-26.496-21.488-48-48-48H64C37.504 0 16 21.504 16 48v304c0 26.512 21.504 48 48 48h154.112l-37.584-15.664H56.016c-13.248 0-24-10.752-24-24 0-13.264 10.752-24 24-24H448V240H288c-26.496 0-48-21.488-48-48zM80.016 304h-32v-32h16v16h16v16zm0-48h-32v-32h16.656l-.656 16 16-.336V256zm0-48h-32v-32h16.336l-.336 16h16v16zm0-48h-32v-32h16.336l-.336 16 16-.336V160zm0-48h-32V80h16v16h16v16zm0-48h-32V32h16.336l-.336 15.664h16V64zm64 288.992l188 79.008 36-79.008h-224zM362.336 400H400c14.016 0 26.496-6.096 35.28-15.664h-65.296L362.336 400z"/><glyph unicode="" d="M288 400V240l160 160V48L288 208V48L112 224z"/><glyph unicode="" d="M256 48v160L96 48v352l160-160v160l176-176z"/><glyph unicode="" d="M64 32v384h64V240l160 160V240l160 160V48L288 208V48L128 208V32z"/><glyph unicode="" d="M448 352v64H0V64c0-17.673 14.327-32 32-32h432c26.511 0 48 21.489 48 48v272h-64zM416 64H32v320h384V64zM64 320h320v-32H64zm192-64h128v-32H256zm0-64h128v-32H256zm0-64h96V96h-96zM64 256h160V96H64z"/><glyph unicode="" d="M367.497 77.313c-9.476 1.494-9.692 27.327-9.692 27.327s27.844 27.328 33.912 64.076c16.326 0 26.407 39.069 10.082 52.814C402.48 236 422.783 335.118 320 335.118S237.521 236 238.201 221.53c-16.327-13.745-6.244-52.814 10.081-52.814 6.067-36.748 33.913-64.076 33.913-64.076s-.216-25.833-9.692-27.327C241.979 72.497 128 22.655 128-32h384c0 54.655-113.979 104.497-144.503 109.313zm-195.47-8.718c22.047 13.575 48.813 26.154 70.769 33.712-7.876 11.216-16.647 26.468-22.165 44.531-7.703 6.283-13.972 15.266-17.999 26.301-4.033 11.052-5.561 23.426-4.304 34.842.902 8.196 3.239 15.833 6.825 22.544-2.175 23.293-3.707 69.017 26.224 102.366 11.607 12.933 26.278 22.23 43.85 27.843-3.137 32.38-19.58 70.385-83.227 70.385-102.782 0-82.479-99.118-81.799-113.588-16.327-13.745-6.244-52.814 10.081-52.814 6.067-36.748 33.913-64.076 33.913-64.076s-.216-25.833-9.692-27.327C113.979 168.497 0 118.655 0 64h164.798a325.934 325.934 0 0 0 7.229 4.595z"/><glyph unicode="" d="M448 416V32h-64v176L224 48v160L64 48v352l160-160v160l160-160v176z"/><glyph unicode="" d="M96 224c0 6.09.352 12.098 1.015 18.011l-92.49 30.052A257.296 257.296 0 0 1 0 224C0 150.385 31.083 84.039 80.827 37.338l57.142 78.648C111.907 144.449 96 182.365 96 224zm320 0c0-41.634-15.906-79.551-41.969-108.014l57.142-78.648C480.917 84.039 512 150.385 512 224c0 16.431-1.566 32.493-4.524 48.063l-92.49-30.052A161.819 161.819 0 0 0 416 224zM288 380.796c45.967-9.331 84.772-38.371 107.225-77.913l92.489 30.051c-36.598 77.71-111.12 134.03-199.714 145.078v-97.216zm-171.225-77.912c22.453 39.542 61.258 68.582 107.225 77.913v97.215c-88.594-11.048-163.115-67.368-199.713-145.077l92.488-30.051zM322.278 78.336C302.083 69.132 279.642 64 256 64s-46.083 5.132-66.277 14.335L132.577-.32C169.18-20.503 211.245-32 256-32S342.82-20.503 379.424-.32l-57.146 78.656z"/><glyph unicode="" d="M128 32v384h64V240l160 160V48L192 208V32z"/><glyph unicode="" d="M384 416V32h-64v176L160 48v352l160-160v176z"/><glyph unicode="" d="M.285 194l57.428 235.714q1.143 4 4.572 6.571t8 2.572H164q5.428 0 9.143-3.572t3.714-8.428q0-2.285-1.429-5.143l-48.857-132.286 113.143 28q2.286.571 3.429.571 5.429 0 9.714-4.286 5.143-5.714 2-12.571L100.571-29.43q-3.715-7.143-12-7.143-1.143 0-4 .572-4.857 1.428-7.285 5.428t-1.285 8.572l56.286 230.857-116-28.857q-1.143-.286-3.428-.286-5.143 0-8.857 3.143-5.143 4.286-3.715 11.143z" horiz-adv-x="256"/><glyph unicode="" d="M170.667 85.333V53.226c0-14.933 6.187-28.491 16.107-38.187l31.36-31.36c20.907-20.907 54.827-20.907 75.733 0l31.36 31.36c9.92 9.696 16.107 23.253 16.107 38.187l-.001 21.441H246.4c-12.373 0-22.4 9.6-22.4 21.333s10.016 21.333 22.4 21.333h97.707c14.613 82.24 82.56 116.374 82.56 196.587C426.667 405.643 350.293 480 256 480S85.333 405.643 85.333 313.92c0-90.571 85.334-122.571 85.334-228.587zM284.267 384c-10.027 1.813-17.6 10.56-17.6 21.013 0 11.723 9.6 21.654 21.333 21.654 16.96 0 37.547-12.053 54.827-29.12 17.6-17.494 30.506-40.864 30.506-56.214 0-11.733-9.6-21.333-21.333-21.333-10.453 0-19.2 7.573-21.024 17.6-5.333 21.44-23.659 41.067-46.709 46.4z"/><glyph unicode="" d="M163.599 432.763L31.551 346.545l91.303-73.118 133.142 82.217zM31.551 200.306l132.048-86.218 92.397 77.126-133.142 82.212zm224.444-9.092l92.406-77.126 132.048 86.218-91.303 73.121zm224.454 155.331l-132.048 86.218-92.406-77.119 133.15-82.217zM256.271 174.62l-92.672-76.899-39.656 25.892V94.589l132.328-79.351L388.6 94.589v29.024l-39.656-25.892z"/><glyph unicode="" d="M128 448h256v-64H128zm352-96H32c-17.6 0-32-14.4-32-32V160c0-17.6 14.398-32 32-32h96V0h256v128h96c17.6 0 32 14.4 32 32v160c0 17.6-14.4 32-32 32zM352 32H160v160h192V32zm135.2 272c0-12.813-10.387-23.2-23.199-23.2S440.8 291.187 440.8 304s10.388 23.2 23.201 23.2S487.2 316.813 487.2 304z"/><glyph unicode="" d="M316.288 330.688c23.04-5.333 41.376-24.96 46.709-46.4 1.824-10.027 10.56-17.6 21.024-17.6 11.733 0 21.333 9.6 21.333 21.333 0 15.36-12.907 38.72-30.507 56.213-17.28 17.067-37.867 29.12-54.827 29.12-11.733 0-21.333-9.92-21.333-21.653.001-10.442 7.574-19.2 17.601-21.013zM23.061 51.008c-16.533-16.523-16.533-43.413 0-59.936 16.533-16.544 43.413-16.544 59.84 0L205.45 113.525c28.597-17.835 62.293-28.171 98.56-28.171 103.147 0 186.667 83.52 186.667 186.667s-83.52 186.667-186.667 186.667-186.667-83.52-186.667-186.667c0-36.16 10.357-69.973 28.171-98.56L23.061 51.008zm147.627 221.013c0 73.6 59.744 133.333 133.333 133.333 73.6 0 133.333-59.733 133.333-133.333s-59.733-133.333-133.333-133.333c-73.589.011-133.333 59.744-133.333 133.333z"/><glyph unicode="" d="M329.143 237.714q0 52.857-37.572 90.428t-90.428 37.571-90.428-37.571-37.572-90.428 37.572-90.428 90.428-37.572 90.428 37.572 37.572 90.428zM475.428 0q0-14.857-10.857-25.714t-25.714-10.857q-15.428 0-25.714 10.857l-98 97.714q-51.143-35.428-114-35.428-40.857 0-78.143 15.857T58.715 95.286t-42.857 64.286T.001 237.715t15.857 78.143 42.857 64.285T123 423t78.143 15.857T279.286 423t64.286-42.857 42.857-64.285 15.857-78.143q0-62.857-35.428-114l98-98Q475.43 15.143 475.43.001z" horiz-adv-x="476"/><glyph unicode="" d="M128 384l-64 64H32v-32l64-64zm32 96h32v-64h-32zm128-160h64v-32h-64zm32 96v32h-32l-64-64 32-32zM0 320h64v-32H0zm160-128h32v-64h-32zm-128 0v-32h32l64 64-32 32zM505 39L186.941 357.059c-9.334 9.334-24.607 9.334-33.941 0L122.941 327c-9.334-9.334-9.334-24.607 0-33.941L441-25c9.334-9.334 24.607-9.334 33.941 0L505 5.059c9.334 9.334 9.334 24.607 0 33.941zM240 208l-96 96 32 32 96-96-32-32z"/><glyph unicode="" d="M198.717 21.152L-.217 216.952l98.689 97.135 100.245-98.666 214.81 211.426 98.689-97.135-313.499-308.56zm-144.761 195.8L198.718 74.471l259.328 255.241-44.518 43.816-214.81-211.426-100.245 98.667-44.517-43.817z"/><glyph unicode="" d="M432 416L192 176 80 288 0 208 192 16l320 320z"/><glyph unicode="" d="M464 192c36.5 0 16-96-16-96 16 0 0-80-32-80 0-32-32-48-64-48-135.176 0-87.632 33.825-224 48v256c120.461 36.134 240 126.712 240 208 26.5 0 96-32 0-192h96c48 0 32-96 0-96zM96 272V16h32V0H64C46.4 0 32 21.6 32 48v192c0 26.4 14.4 48 32 48h64v-16H96z"/><glyph unicode="" d="M48 256c-36.5 0-16 96 16 96-16 0 0 80 32 80 0 32 32 48 64 48 135.176 0 87.632-33.825 224-48V176C263.539 139.866 144 49.288 144-32c-26.5 0-96 32 0 192H48c-48 0-32 96 0 96zm368-80v256h-32v16h64c17.6 0 32-21.6 32-48V208c0-26.4-14.4-48-32-48h-64v16h32z"/><glyph unicode="" d="M32 480h192v-32H32zm256 0h192v-32H288zm188-160h-28v128H320V320H192v128H64V320H36c-19.8 0-36-16.2-36-36V4c0-19.8 16.2-36 36-36h152c19.8 0 36 16.2 36 36v188h64V4c0-19.8 16.2-36 36-36h152c19.8 0 36 16.2 36 36v280c0 19.8-16.2 36-36 36zM174 0H50c-9.9 0-18 7.2-18 16s8.1 16 18 16h124c9.9 0 18-7.2 18-16s-8.1-16-18-16zm98 224h-32c-8.8 0-16 7.2-16 16s7.2 16 16 16h32c8.8 0 16-7.2 16-16s-7.2-16-16-16zM462 0H338c-9.9 0-18 7.2-18 16s8.1 16 18 16h124c9.9 0 18-7.2 18-16s-8.1-16-18-16z"/><glyph unicode="" d="M96.928 370.64l10.976-10.976-44.928-44.928 35.008-35.008 45.136 45.136 10.256-10.256-45.136-45.152 34.56-34.544 102.656 102.656-124.992 124.256L18.176 359.536 52 325.696l44.928 44.944zm272.656-157.184L266.928 110.784l34.544-34.544 45.152 45.136 10.256-10.256-45.136-45.136 35.008-35.008 44.912 44.928 10.976-10.976L357.728 20l33.808-33.824L493.84 88.48 369.584 213.456zm107.568 131.328c12.496 12.512 12.592 32.72.192 45.136l-56.192 56.176c-12.4 12.4-32.624 12.336-45.12-.192l-34.72-34.72 101.12-101.12 34.72 34.72zM54.368 64.928L96.336 22.96l84.544 30.032-96.48 96.48-30.032-84.544zM330.4 400.912L92.24 162.736 194.144 60.832 432.32 299.008 330.4 400.912zM138.512 162.944L330.208 354.64l11.168-11.168L149.664 151.76l-11.152 11.184zm22.336-22.352l191.68 191.696 11.168-11.168L172 129.44l-11.152 11.152zm22.336-22.32L374.88 309.968l11.152-11.168-191.68-191.696-11.168 11.168zM31.264-.16L80.32 17.712 49.136 48.896 31.264-.16z"/><glyph unicode="" d="M456 48c-13.248 0-24 10.752-24 24v288c0 13.248 10.752 24 24 24s24-10.752 24-24V72c0-13.248-10.752-24-24-24zM336 80c0-17.664-14.336-32-32-32H160c-17.664 0-32 14.336-32 32v63.344l-63.856 14.208v115.664l352.384 77.648V79.12L336 97.024V80zm-16 20.592l-176 39.184V80c0-8.832 7.168-16 16-16h144c8.848 0 16 7.168 16 16v20.592zM32 144c-8.832 0-16 7.168-16 16v112c0 8.848 7.168 16 16 16s16-7.152 16-16V160c0-8.832-7.168-16-16-16z"/><glyph unicode="" d="M449.2 190.064V63.728c0-8.832-4.992-15.984-15.968-15.984-2.656 0-9.232 5.664-17.312 14.192V401.04c8.08 8.528 14.656 14.192 17.312 14.192 11.968 0 15.968-7.152 15.968-15.968V269.728c21.648-.608 41.808-18.16 41.808-39.824 0-21.68-20.16-39.232-41.808-39.84zm-256.96-30.8c.992 0 0 144.464 0 144.464 109.712 0 174.752 48.16 209.024 81.184V78.08c-34.272 33.008-99.312 81.184-209.024 81.184zM128.336 32.768L96.384 159.6H64.416s-9.504 21.568-13.824 47.936H32.448c-8.816 0-15.968 7.152-15.968 15.984v15.968c0 8.832 7.152 15.984 15.968 15.984h18.144c4.336 26.368 13.824 47.92 13.824 47.92h111.84V159.6h-31.952l4.032-15.968h15.952l7.984-31.968h-15.904l19.888-78.896h-47.92z"/><glyph unicode="" d="M248 424c-114.88 0-208-93.12-208-208S133.12 8 248 8s208 93.12 208 208-93.12 208-208 208zm0-326c-13.264 0-24 10.752-24 24s10.736 24 24 24c13.248 0 24-10.752 24-24s-10.752-24-24-24zm24 104c0-13.248-10.752-24-24-24-13.264 0-24 10.752-24 24v112c0 13.264 10.736 24 24 24 13.248 0 24-10.736 24-24V202z"/><glyph unicode="" d="M488.88 76.496L288.576 419.472c-16.704 16.704-43.808 16.704-60.512 0L27.744 76.496C11.04 59.808 11.04 32.72 27.744 16h461.12c16.736 16.72 16.736 43.808.016 60.496zM239.872 296.352c0 13.264 10.752 24 24 24s24-10.736 24-24v-112c0-13.248-10.752-24-24-24s-24 10.752-24 24v112zm24.144-216.128c-13.248 0-24 10.72-24 24 0 13.248 10.752 24 24 24s24-10.752 24-24c0-13.28-10.752-24-24-24z"/><glyph unicode="" d="M443.728 165.84l-21.056-78.624-.592-.16-23.008-85.872-148.736 39.84-1.776-.464L91.952 82.512l-.272 1.024L50 94.72l7.888 29.456.512-.144 77.264 288.352-.512.144 8.144 30.352 273.68-73.344.256.896 75.376-20.192-49.152-183.36.272-1.04zm10.384 162.192l-288.368 77.264-56.928-212.48 288.336-77.248 56.96 212.464zm-258.368-62.304l19.104-32.72 49.712 46.8 25.328-44.256 66.96 59.024L373.6 157.632l-221.152 59.296 43.296 48.8zm14.288 32.192c-12.56 3.376-20.032 16.304-16.656 28.864 3.36 12.576 16.288 20.048 28.864 16.672 12.56-3.376 20.032-16.304 16.656-28.864-3.36-12.576-16.288-20.048-28.864-16.672zM346.24 408.336l-6.624-1.776-60.72 16.272 89.568 24 13.856-51.696-35.04 9.392-1.04 3.808zm-288.368-77.28l19.872-74.16-16.272-60.704-42.08 157.088 90.688 24.304-9.392-35.04-42.816-11.488zM112.928 4.224L96.64 64.992l121.552-32.576L112.928 4.224z"/><glyph unicode="" d="M313.136 306.288l-50.304-75.712-36.56 36.848-36.576-59.152-27.424 27.152L132.576 176h233.152l-52.592 130.288zM64 400V32h368v368H64zm336-256H96v224h304V144zM167.856 270.864c13.264 0 24 10.736 24 24s-10.736 24-24 24c-13.248 0-24-10.736-24-24s10.752-24 24-24z"/><glyph unicode="" d="M438.32 222.208l-195.6 194.256H64.464l-.416-178.032L257.296 41.168c12.704-12.704 33.136-12.88 45.648-.368l135.744 135.76c12.496 12.496 12.336 32.944-.368 45.648zM111.712 335.936c0 17.664 14.336 32 32 32s32-14.336 32-32c0-17.68-14.336-32-32-32s-32 14.32-32 32zm174.096-223.168L161.36 237.216l11.312 11.312L297.12 124.08l-11.312-11.312zm33.936 33.936L195.296 271.152l11.328 11.312 124.432-124.448-11.312-11.312zm33.936 33.952L229.248 305.104l11.312 11.312 124.432-124.448-11.312-11.312z"/><glyph unicode="" d="M432-16H80C62.336-16 48-1.664 48 16v352c0 17.68 14.336 32 32 32h32v-16c0-26.512 21.488-48 48-48 26.496 0 48 21.488 48 48v16h96v-16c0-26.512 21.504-48 48-48s48 21.488 48 48v16h32c17.664 0 32-14.32 32-32V16c0-17.664-14.336-32-32-32zm0 304H80V16h352v272zm-272-80h-48v48h48v-48zm0-80h-48v48h48v-48zm0-80h-48v48h48V48zm80 160h-48v48h48v-48zm0-80h-48v48h48v-48zm0-80h-48v48h48V48zm80 160h-48v48h48v-48zm0-80h-48v48h48v-48zm0-80h-48v48h48V48zm80 160h-48v48h48v-48zm0-80h-48v48h48v-48zm0-80h-48v48h48V48zm-48.496 304C334.096 352 320 366.112 320 383.504v32.992C320 433.904 334.096 448 351.504 448s31.504-14.096 31.504-31.504v-32.992c0-17.392-14.096-31.504-31.504-31.504zm-192 0C142.096 352 128 366.112 128 383.504v32.992C128 433.904 142.096 448 159.504 448s31.504-14.096 31.504-31.504v-32.992c0-17.392-14.112-31.504-31.504-31.504z"/><glyph unicode="" d="M313.392 223.984l97.536-97.536c6.336-6.336 6.336-16.624 0-22.96l-34.416-34.416c-6.336-6.336-16.608-6.336-22.96 0L256 166.608l-97.552-97.536c-6.336-6.336-16.608-6.336-22.944 0l-34.432 34.416c-6.336 6.336-6.336 16.608 0 22.96l97.552 97.536-97.552 97.552c-6.336 6.336-6.336 16.624 0 22.96l34.448 34.416c6.336 6.336 16.608 6.336 22.944 0L256 281.36l97.552 97.552c6.336 6.336 16.608 6.336 22.96 0l34.416-34.432c6.336-6.336 6.336-16.608 0-22.96l-97.536-97.536z"/><glyph unicode="" d="M117.333 469.333c-8.64 5.333-20.693 10.667-32 10.667C38.187 480 0 441.493 0 393.92c0-68.8 73.28-93.333 117.333-127.253v-16c0-64.533 45.76-118.293 106.667-130.667V42.667c0-11.733-9.6-21.333-21.333-21.333H144c-14.72 0-26.667-11.947-26.667-26.667S129.28-32 144-32h213.333C372.053-32 384-20.053 384-5.333s-11.947 26.666-26.667 26.666h-58.666c-11.733 0-21.333 9.6-21.333 21.333v77.333c60.907 12.373 106.667 66.133 106.667 130.667L384 266.667c44.053 33.92 117.333 58.453 117.333 127.253 0 47.573-38.186 86.08-85.333 86.08-11.317 0-23.349-5.333-32-10.667H117.333zm96-74.666v-128c0-11.733-9.6-21.333-21.333-21.333s-21.333 9.6-21.333 21.333v128c0 11.733 9.6 21.333 21.333 21.333s21.333-9.6 21.333-21.333zm-160-.747c0 17.813 14.294 32.32 32 32.32s32-14.507 32-32.32v-65.6c-30.72 19.413-64 32.331-64 65.6zm394.667 0c0-33.269-33.28-46.187-64-65.6v65.6c0 17.813 14.293 32.32 32 32.32s32-14.507 32-32.32z"/><glyph unicode="" d="M181.333 273.387L8.32 36.053C3.093 28.907 0 20.16 0 10.667 0-12.906 19.093-32 42.667-32h426.667c23.573 0 42.667 19.093 42.667 42.667 0 9.493-3.093 18.24-8.309 25.387L330.667 273.387v153.28H336c14.72 0 26.667 11.946 26.667 26.666S350.72 480 336 480H176c-14.72 0-26.667-11.947-26.667-26.667S161.28 426.667 176 426.667h5.333v-153.28zm53.334 153.28h42.667v-160L352.001 160H160l74.667 106.667v160z"/><glyph unicode="" d="M19.093 127.147C72.64-3.733 222.08-66.357 352.853-12.906c130.88 53.557 193.504 202.976 140.053 333.76-53.557 130.879-202.986 193.493-333.759 140.053C28.267 407.349-34.347 257.92 19.093 127.147zm51.094 20.906L138.667 176c13.227-32.427 38.4-56.32 68.267-68.907l-28.587-68.16c-47.36 19.84-87.147 57.803-108.16 109.12zM332.053 38.187L304 106.667c32.427 13.227 56.309 38.4 68.907 68.373l68.16-28.693c-19.84-47.371-57.814-87.147-109.014-108.16zm109.76 261.866L373.333 272c-13.227 32.427-38.4 56.309-68.267 68.907l28.587 68.16c47.371-19.84 87.147-57.814 108.16-109.014zm-261.76 109.76L208 341.333c-32.427-13.227-56.32-38.4-68.907-68.373l-68.16 28.683c19.84 47.37 57.814 87.157 109.12 108.17zm7.467-213.76c-15.467 37.76 2.667 80.96 40.533 96.427 37.76 15.467 80.971-2.667 96.427-40.427 15.467-37.867-2.667-81.077-40.427-96.533-37.866-15.467-81.066 2.667-96.533 40.533z"/><glyph unicode="" d="M224 314.667c0 14.72 11.947 26.667 26.667 26.667s26.667-11.947 26.667-26.667S265.387 288 250.667 288 224 299.947 224 314.667zM250.667 384c-38.293 0-69.333-31.04-69.333-69.333s31.04-69.333 69.333-69.333S320 276.374 320 314.667 288.96 384 250.667 384zM85.333 317.653C85.333 208.853 213.653 125.12 224 0v-5.333C224-20.053 235.947-32 250.667-32s26.667 11.947 26.667 26.667L277.333 0C288.309 125.12 416 208.853 416 317.653 416 407.36 341.984 480 250.667 480c-91.307 0-165.334-72.64-165.334-162.347zm165.334 109.014c61.866 0 112-50.134 112-112s-50.134-112-112-112-112 50.133-112 112 50.133 112 112 112z"/><glyph unicode="" d="M0 74.667C0 51.094 19.093 32 42.667 32h426.667c23.573 0 42.667 19.093 42.667 42.667l-.001 288c0 23.573-19.093 42.667-42.667 42.667l-426.666-.001C19.094 405.333 0 386.24 0 362.666V74.667zm157.013 143.68l-97.6 98.24c-8.096 8.107-8.096 21.227 0 29.333 8.117 8.107 21.237 8.107 29.333 0L244.48 189.984c6.293-6.187 16.651-6.187 22.837 0L423.253 345.92c8.107 8.107 21.227 8.107 29.333 0s8.107-21.227 0-29.333l-97.707-98.24 97.707-97.589c8.107-8.107 8.107-21.227 0-29.333s-21.227-8.107-29.333 0l-97.6 97.493s-30.496-31.04-36.043-36.587A48.143 48.143 0 0 0 256 138.667c-13.227 0-25.173 5.333-33.813 13.984-5.653 5.547-35.947 36.256-35.947 36.256L88.736 91.414c-8.096-8.107-21.216-8.107-29.333 0-8.096 8.107-8.096 21.227 0 29.333l97.61 97.6z"/><glyph unicode="" d="M512 256.107c0 14.933-6.187 28.48-16.107 38.187L293.867 464.32c-20.907 20.907-54.827 20.907-75.733 0L16.107 294.293C6.187 284.587 0 271.04 0 256.107V10.667C0-12.906 19.093-32 42.667-32h426.667c23.573 0 42.667 19.093 42.667 42.667L512 256.107zm-403.2 42.56h294.4a23.4 23.4 0 0 0 23.467-23.467v-40.533c-.107-5.12-2.133-10.133-6.08-14.08l-65.707-66.24 97.707-97.589c8.107-8.107 8.107-21.227 0-29.333s-21.227-8.107-29.333 0L322.667 128H189.12L88.747 27.413c-8.107-8.107-21.227-8.107-29.333 0-8.107 8.107-8.107 21.227 0 29.333l97.6 97.589-65.6 66.24c-4.267 4.267-6.293 9.813-6.08 15.467l-.001 39.158a23.4 23.4 0 0 0 23.467 23.467z"/><glyph unicode="" d="M256.832.864c43.723-43.84 114.56-43.84 158.283 0 27.211 27.2 37.547 64.853 30.837 100.053 11.52 5.867 21.856 12.693 30.496 19.093.96.747 5.227 3.733 6.293 4.587 4.811 3.947 7.893 9.92 7.893 16.651 0 6.4-2.773 12.16-7.253 16l-88 72.533a21.07 21.07 0 0 1-13.44 4.8c-5.771 0-10.997-2.24-14.837-5.867-1.504-1.493-14.709-15.04-14.709-15.04-9.184-9.173-24-9.173-33.184 0l-89.803 89.92c-9.173 9.173-9.173 24.107 0 33.28l14.613 14.613c3.84 3.84 6.08 9.173 6.08 14.923 0 5.76-2.24 10.891-5.867 14.72l-75.413 91.093c-3.947 4.693-9.92 7.787-16.533 7.787-7.04 0-13.227-3.413-17.173-8.64l-1.28-1.707c-16.427-22.187-37.867-57.387-37.867-90.453 0-91.093 203.104-293.867 293.333-293.867 1.707 0 3.413.107 5.024.107 1.6-16.747-4.064-34.016-16.853-46.933-22.933-22.923-60.064-22.923-82.997 0l-147.296 151.36c-31.253 31.253-81.813 31.253-113.067 0s-31.253-81.813 0-113.067l48.32-47.68c10.453-10.357 27.307-10.357 37.76 0 10.347 10.443 10.347 27.307 0 37.749l-48.427 47.584c-10.347 10.443-10.347 27.307 0 37.749 10.453 10.357 27.307 10.357 37.76 0L256.832.864z"/><glyph unicode="" d="M96 53.333c0-23.573 19.093-42.667 42.667-42.667h330.667c23.573 0 42.667 19.093 42.667 42.667L512 298.667c0 23.573-19.093 42.667-42.667 42.667l-128-.001c-11.733 0-21.333 9.6-21.333 21.333s9.6 21.333 21.333 21.333h144C500.053 384 512 395.947 512 410.667s-11.947 26.666-26.667 26.666h-176c-19.947 0-37.984-13.547-42.667-32l-21.227-64h-43.627c-14.293 0-26.987-5.653-36.16-14.72l-53.973-54.187C101.973 262.827 96 249.387 96 234.667v-32H53.333V208c0 14.72-11.946 26.667-26.666 26.667S0 222.72 0 208V69.333c0-14.72 11.947-26.666 26.667-26.666s26.666 11.946 26.666 26.666v5.334H96V53.333zm140.8 117.334h198.4a23.4 23.4 0 0 0 23.467-23.467V87.467A23.4 23.4 0 0 0 435.2 64H236.8a23.4 23.4 0 0 0-23.467 23.467V147.2a23.4 23.4 0 0 0 23.467 23.467zm-23.467 90.666C213.333 276.053 225.28 288 240 288s26.667-11.947 26.667-26.667S254.72 234.667 240 234.667s-26.667 11.946-26.667 26.666z"/><glyph unicode="" d="M266.667 80c0 9.387-1.6 18.347-4.597 26.667h62.411A81.307 81.307 0 0 1 320 80c0-44.171 35.829-80 80-80 44.16 0 80 35.829 80 80 0 44.16-35.84 80-80 80H224c-11.733 0-21.333 9.6-21.333 21.333s9.6 21.333 21.333 21.333h183.467a47.808 47.808 0 0 1 43.509 27.733c2.891 6.188 58.144 132.161 58.144 132.161 1.493 3.424 2.88 6.827 2.88 10.773 0 11.733-9.6 21.333-21.333 21.333l-333.024.001-8.96 27.627C144.533 437.12 132.907 448 117.333 448H26.667C11.947 448 0 436.053 0 421.333s11.947-26.666 26.667-26.666h56c9.493 0 17.493-6.187 20.267-14.613l45.013-230.069c-24.63-13.558-41.28-39.905-41.28-69.985 0-44.171 35.829-80 80-80 44.16 0 80 35.829 80 80zm-53.334 0c0-14.72-11.947-26.667-26.667-26.667S160 65.28 160 80s11.947 26.667 26.667 26.667S213.333 94.72 213.333 80zm213.334 0c0-14.72-11.947-26.667-26.667-26.667S373.333 65.28 373.333 80 385.28 106.667 400 106.667 426.667 94.72 426.667 80z"/><glyph unicode="" d="M379.392 116.531c-63.104 22.989-83.277 42.394-83.277 83.942 0 24.935 19.277 16.793 27.725 62.464 3.507 18.944 20.531.307 23.808 43.545 0 17.229-9.293 21.529-9.293 21.529s4.736 25.523 6.579 45.133c2.253 24.474-14.131 87.654-101.734 87.654-87.578 0-104.013-63.181-101.709-87.654 1.843-19.61 6.579-45.133 6.579-45.133s-9.319-4.275-9.319-21.529c3.251-43.238 20.275-24.601 23.782-43.545 8.474-45.671 27.75-37.53 27.75-62.464 0-41.549-20.173-60.954-83.277-83.942C43.672 93.491 2.558 69.964 2.558 53.913V.025h481.28v53.888c0 16.025-41.139 39.552-104.448 62.618z"/><glyph unicode="" d="M168.474 168.986c-6.938-6.861-18.125-6.861-25.063 0a17.437 17.437 0 0 0 0 24.832l100.045 97.997c6.938 6.861 18.151 6.861 25.063 0l100.045-98.023c6.938-6.887 6.938-17.971 0-24.832s-18.125-6.861-25.063 0l-87.526 80.41-87.501-80.384z"/><glyph unicode="" d="M266.666 352c-5.888 0-10.666-4.778-10.666-10.666s4.779-10.667 10.666-10.667c23.104 0 41.899-18.794 41.899-41.899 0-5.888 4.779-10.666 10.666-10.666s10.666 4.779 10.666 10.666c0 34.859-28.373 63.232-63.232 63.232zm0 96c-88.234 0-160-71.766-160-160 0-31.702 9.386-62.336 27.178-88.853a19.706 19.706 0 0 1 1.707-2.88c38.934-55.594 45.781-73.173 45.781-89.6v-64c0-11.776 9.558-21.334 21.334-21.334h42.666c0-5.546 2.346-11.094 6.186-15.147 4.054-3.84 9.6-6.187 15.146-6.187s11.094 2.346 15.147 6.187c3.84 4.053 6.187 9.6 6.187 15.147h42.666c11.776 0 21.334 9.558 21.334 21.334v64c0 16.683 6.805 34.346 45.483 89.579 19.094 27.2 29.184 58.923 29.184 91.755 0 88.235-71.766 160-160 160zm42.668-384H224v21.334h85.334V64zm53.226 156.736c-31.274-44.651-45.718-70.166-50.88-92.736H288v42.666c0 11.776-9.558 21.334-21.334 21.334s-21.334-9.558-21.334-21.334V128h-23.744c-5.12 21.974-19.157 46.933-49.195 90.026a22.859 22.859 0 0 1-1.643 2.752c-14.016 19.926-21.418 43.178-21.418 67.221 0 64.704 52.63 117.334 117.334 117.334S384 352.704 384 287.999c0-24.021-7.402-47.274-21.44-67.264z"/><glyph unicode="" d="M495.024 120.432c0-21.904-17.92-39.856-39.824-39.856H319.76c0-21.168 15.904-39.088 15.904-47.808s-7.216-15.936-15.904-15.936H192.256c-8.72 0-15.936 7.216-15.936 15.936 0 9.232 15.936 26.16 15.936 47.808H56.816c-21.904 0-39.84 17.952-39.84 39.856v270.896c0 21.904 17.936 39.84 39.84 39.84H455.2c21.904 0 39.824-17.936 39.824-39.84V120.432zm-31.872 270.896c0 4.224-3.728 7.968-7.952 7.968H56.816c-4.224 0-7.968-3.744-7.968-7.968V184.192c0-4.224 3.744-7.984 7.968-7.984H455.2c4.224 0 7.952 3.76 7.952 7.984v207.136zM368 384h80v-16h-80v16zm0-32h80v-16h-80v16zm0-32h80v-16h-80v16zm0-32h80v-16h-80v16zm0-32h80v-16h-80v16zm0-32h80v-16h-80v16zm-96 160h16V192h-16v192zm32 0h48v-32h-48v32zm0-64h48v-32h-48v32zm0-64h48v-32h-48v32z"/><glyph unicode="" d="M399.952 32.064c0-26.256-21.76-47.984-47.984-47.984H160.032c-26.24 0-47.984 21.728-47.984 47.984v383.872c0 26.24 21.744 47.984 47.984 47.984h191.952c26.224 0 47.984-21.744 47.984-47.984V32.064h-.016zm-36 323.888c0 6.368-5.616 12-11.984 12H160.032c-6.368 0-12-5.632-12-12V92.064c0-6.368 5.632-12.016 12-12.016h191.952c6.368 0 11.984 5.648 11.984 12.016v263.888h-.016zm-77.984 59.984H226c-3.376 0-6-2.624-6-6 0-3.36 2.624-5.984 6-5.984h59.968c3.376 0 6 2.624 6 5.984.016 3.376-2.608 6-6 6zM255.984 62.064c-16.496 0-29.984-13.52-29.984-30s13.488-30 29.984-30 29.984 13.52 29.984 30-13.488 30-29.984 30zM240 352h112v-16H240v16zm0-32h112v-16H240v16zm-80 32h64v-64h-64v64zm80-96h112v-16H240v16zm0-32h112v-16H240v16zm-80 32h64v-64h-64v64zm80-96h112v-16H240v16zm0-32h112v-16H240v16zm-80 32h64V96h-64v64z"/><glyph unicode="" d="M495.264 121.936c0-21.936-17.936-39.92-39.872-39.92H319.76c0-21.2 15.92-39.136 15.92-47.872s-7.216-15.952-15.92-15.952H192.08c-8.736 0-15.952 7.216-15.952 15.952 0 9.232 15.952 26.208 15.952 47.872H56.416c-21.936 0-39.888 17.968-39.888 39.92V393.2c0 21.936 17.952 39.888 39.888 39.888h398.96c21.936 0 39.872-17.952 39.872-39.888V121.936h.016zM463.344 393.2c0 4.24-3.728 7.984-7.968 7.984H56.416c-4.24 0-7.984-3.744-7.984-7.984V185.76c0-4.24 3.744-8 7.984-8h398.96c4.24 0 7.968 3.76 7.968 8V393.2zM160 384h272v-16H160v16zm0-32h272v-16H160v16zm0-32h112v-16H160v16zm-80 64h64v-64H80v64zm80-112h272v-16H160v16zm0-32h272v-16H160v16zm0-32h112v-16H160v16zm-80 64h64v-64H80v64z"/><glyph unicode="" d="M480 416H32c-17.6 0-32-14.4-32-32V64c0-17.6 14.4-32 32-32h448c17.6 0 32 14.4 32 32v320c0 17.6-14.4 32-32 32zM374.4 283.2c35.2 0 65.6-24 73.6-57.6h-28.8v-38.4H448c-8-33.6-38.4-57.6-73.6-57.6-41.6 0-76.8 35.2-76.8 76.8s33.6 76.8 76.8 76.8zM32 368c0 9.6 6.4 16 16 16h416c9.6 0 16-6.4 16-16v-48H32v48zM464 64H48c-9.6 0-16 6.4-16 16v144h235.2c-1.6-6.4-1.6-11.2-1.6-17.6 0-59.2 48-108.8 108.8-108.8 51.2 0 94.4 36.8 105.6 84.8V80c0-9.6-6.4-16-16-16zM323.2 227.2h32v-38.4h-32v38.4zm48 0h32v-38.4h-32v38.4z"/><glyph unicode="" d="M512 300.8c0 81.6-65.6 147.2-147.2 147.2-43.2 0-81.6-19.2-108.8-48-27.2 30.4-65.6 48-108.8 48C65.6 448 0 382.4 0 300.8c0-43.2 19.2-81.6 48-108.8L208 32c16-16 32-32 48-32s32 16 48 32l160 160c28.8 27.2 48 65.6 48 108.8zM420.8 240L259.2 76.8l-3.2-3.2-3.2 3.2L91.2 240C73.6 256 64 276.8 64 300.8c0 46.4 36.8 83.2 83.2 83.2 24 0 44.8-9.6 60.8-27.2l48-52.8 48 52.8c16 17.6 36.8 27.2 60.8 27.2 46.4 0 83.2-36.8 83.2-83.2 0-24-9.6-44.8-27.2-60.8zm-64 96L241.6 220.8l-54.4 54.4-38.4-38.4 92.8-92.8 153.6 153.6-38.4 38.4z"/><glyph unicode="" d="M512 300.8c0 81.6-65.6 147.2-147.2 147.2-43.2 0-81.6-19.2-108.8-48-27.2 30.4-65.6 48-108.8 48C65.6 448 0 382.4 0 300.8c0-43.2 19.2-81.6 48-108.8L208 32c16-16 32-32 48-32s32 16 48 32l160 160c28.8 27.2 48 65.6 48 108.8zM235.2 126.4L126.4 235.2l44.8 44.8 64-64 136 136 44.8-44.8-180.8-180.8z"/><glyph unicode="" d="M406 252.6v-43.133c-10.933 3.534-15.4 5.534-23.334 5.534-9.067 0-17.534-2.6-24.666-7.134-17.4 3.933-37.6 1.8-48.2 1.8h-55.6c1.6 6.4 3.6 8.466 5.8 12.866 5.4 10.466 11.267 22.066 11.267 38.534 0 15.466 0 51.4-45 51.4-3.4 0-6.6-1.4-9.066-3.8-8.667-8.466-11.066-20.866-13.267-32.733-2.4-11.667-4.6-23.667-12.466-31.534-6.2-6.2-13.066-14.867-20.267-24.066-8.867-11.666-28.133-35.534-35.534-36.134-6.6-.6-12.267-6.2-12.267-12.866V42.601c0-7 6-12.666 12.867-12.866 7-.2 19.066-4.4 31.733-8.866 21.666-7.4 48.8-16.866 77.534-16.866H271.4c17.666.2 30.933 5.4 39.534 15.666 7.6 9.067 11.067 21.267 9.866 36.334 5 4.8 8.866 11.466 10.866 18.866 2.2 8 2.2 16.067 0 23.466 6 8 9.067 17.466 8.666 27.534 0 2.8-.8 8.866-3 15.267 2.267.4 4.933.6 7.8.733 8.4-11.733 22.134-19.334 37.6-19.334 7.933 0 23.334 5.534 23.334 5.534 0-33.334 33.933-78.2 79.334-78.2h49.333c45.4 0 85.067 39.534 85.067 84.933v117.8H406zm0-89.734c-5.466-9.733-12.466-16.933-23-16.933-2.134 0-4.2.267-6.2.8 7.2 3.866 12.267 10.933 12.267 24.267 0 8.466-1.933 15.2-5.134 20.4 9.866-.6 16.8-7.534 22.067-16.866v-11.666zM508.466 275.4c2.6-2.4 5.933-3.6 9.266-3.6 3.734 0 7.4 1.466 10.067 4.4 5.134 5.6 4.734 14.266-.8 19.333-21.866 20.134-14.4 39.067-.466 68.334 11.067 23.2 24.866 52.133.866 76.066-5.333 5.334-14 5.334-19.4 0-5.334-5.333-5.334-14 0-19.4 9.333-9.333 5.534-20.333-6.267-44.933-13.067-27.466-31.134-65.334 6.733-100.2zm51.8 0c2.6-2.4 5.933-3.6 9.266-3.6 3.734 0 7.4 1.466 10.067 4.4 5.134 5.6 4.734 14.266-.8 19.333-15.734 14.466-10.4 27.866.266 50.334 8.6 18.067 20.466 42.867.134 63.2-5.333 5.334-14 5.334-19.4 0-5.333-5.333-5.333-14 0-19.4 5.734-5.733 3.734-12.666-5.466-32-10.067-21.2-25.466-53.4 5.933-82.267zm-111.732 0c2.6-2.4 5.933-3.6 9.267-3.6 3.733 0 7.4 1.466 10.067 4.4 5.134 5.6 4.733 14.266-.8 19.333-6.334 5.8-6.134 9.6 1.334 25.267 5.666 11.934 14.334 30-.933 45.2-5.334 5.334-14 5.334-19.4 0-5.334-5.333-5.334-14 0-19.4.4-.4.466-.6.466-.6.534-2-3-9.466-4.933-13.466-6.466-13.534-17.466-36.534 4.933-57.133zM97.666 183.866H39.799c-7 0-12.867-5.8-12.867-12.866V42.466c0-7 5.8-12.866 12.867-12.866h57.8c7 0 12.867 5.8 12.867 12.866V171c.067 7.067-5.8 12.866-12.8 12.866zM65.534 55.334c-7.2 0-12.867 5.6-12.867 12.866 0 7 5.6 12.866 12.867 12.866 7 0 12.867-5.8 12.867-12.866 0-7.2-5.867-12.866-12.867-12.866z" horiz-adv-x="647"/><glyph unicode="" d="M225.333 244.6v-48.533c-12.333 3.933-17.333 6.2-26.267 6.2-28.733 0-52-23.267-52-52s23.267-52 52-52c8.934 0 13.934 2.267 26.267 6.2 0-41.8 38.133-87.933 89.2-87.933h55.466c51.067 0 95.733 44.466 95.733 95.534v132.534h-240.4zm0-100.934c-6.133-10.933-14-19.067-25.867-19.067-14.133 0-26.867 11.466-26.867 25.6s12.267 25.6 26.4 25.6c11.867 0 20.133-8.067 26.267-19.067v-13.067z" horiz-adv-x="647"/><glyph unicode="" d="M225.333 244.6v-48.533c-12.333 3.933-17.333 6.2-26.267 6.2-28.733 0-52-23.267-52-52s23.267-52 52-52c8.934 0 13.934 2.267 26.267 6.2 0-41.8 38.133-87.933 89.2-87.933h55.466c51.067 0 95.733 44.466 95.733 95.534v132.534h-240.4zm0-100.934c-6.133-10.933-14-19.067-25.867-19.067-14.133 0-26.867 11.466-26.867 25.6s12.267 25.6 26.4 25.6c11.867 0 20.133-8.067 26.267-19.067v-13.067zm115.333 126.601c2.933-2.733 6.666-4.066 10.4-4.066 4.134 0 8.334 1.666 11.334 5 5.733 6.266 5.334 16-.933 21.8-24.6 22.6-16.267 43.934-.534 76.867 12.466 26.133 28 58.6 1 85.6-6 6-15.8 6-21.8 0s-6-15.8 0-21.8c10.534-10.534 6.2-22.867-7-50.534-14.8-31.067-35.133-73.666 7.534-112.866zm58.267 0c2.933-2.733 6.666-4.066 10.4-4.066 4.134 0 8.334 1.666 11.334 5 5.733 6.266 5.334 16-.933 21.8-17.666 16.267-11.733 31.334.334 56.6 9.733 20.334 23 48.2.134 71.067-6 6-15.8 6-21.8 0s-6-15.8 0-21.8c6.4-6.4 4.2-14.2-6.134-36-11.4-23.934-28.666-60.133 6.666-92.6zm-125.733 0c2.933-2.733 6.666-4.066 10.4-4.066 4.134 0 8.334 1.666 11.334 5 5.733 6.266 5.334 16-.933 21.8-7.134 6.534-6.933 10.8 1.534 28.466 6.4 13.4 16.067 33.734-1.067 50.867-6 6-15.8 6-21.8 0s-6-15.8 0-21.8c.466-.466.534-.667.534-.667.6-2.266-3.4-10.6-5.534-15.133-7.267-15.466-19.6-41.334 5.534-64.466z" horiz-adv-x="647"/><glyph unicode="" d="M495.334 16.933H382.067c46 6.134 84.067 47.666 84.067 94.8V244.4H225.6v-48.533c-12.334 3.933-17.4 6.2-26.334 6.2-28.733 0-52.066-23.334-52.066-52.067s23.333-52.067 52.066-52.067c8.934 0 13.934 2.267 26.334 6.2 0-40.466 32.534-81.067 77.666-87.2H172.732c-3.4 0-5 .134-3.6-2.933L176.799.067c1.4-3.067 5.4-12 8.8-12h296.866c3.4 0 7.334 8.933 8.8 12L498.931 14c1.4 3.067-.2 2.933-3.6 2.933zM225.6 143.4c-6.2-10.933-14-19.067-25.867-19.067-14.133 0-26.867 11.466-26.867 25.666 0 14.134 12.267 25.666 26.466 25.666 11.867 0 20.133-8.134 26.333-19.067v-13.2zM341 270.134c2.933-2.734 6.666-4.067 10.4-4.067 4.134 0 8.334 1.667 11.334 5 5.733 6.267 5.334 16-.933 21.8-24.6 22.666-16.267 44-.534 76.933 12.466 26.134 28 58.666 1 85.666-6 6-15.8 6-21.8 0s-6-15.8 0-21.8c10.534-10.534 6.2-22.867-7-50.534-14.8-31.2-35.134-73.8 7.534-113zm58.267 0c2.933-2.734 6.666-4.067 10.4-4.067 4.2 0 8.334 1.667 11.334 5 5.733 6.267 5.334 16-.933 21.8-17.666 16.267-11.733 31.334.334 56.666 9.733 20.334 23 48.267.134 71.134-6 6-15.8 6-21.8 0s-6-15.8 0-21.8c6.466-6.466 4.2-14.267-6.2-36-11.334-24.067-28.6-60.267 6.733-92.733zm-125.801 0c2.933-2.734 6.733-4.067 10.4-4.067 4.134 0 8.334 1.667 11.334 5 5.733 6.267 5.334 16-.933 21.8-7.134 6.534-6.933 10.8 1.534 28.466 6.4 13.466 16.134 33.733-1.067 50.867-6 6-15.8 6-21.8 0s-6-15.8 0-21.8c.466-.466.534-.666.534-.666.6-2.267-3.4-10.666-5.534-15.133-7.334-15.466-19.666-41.334 5.534-64.466z" horiz-adv-x="647"/><glyph unicode="" d="M173.267 435.067V345.2c-22.8 7.267-32.066 11.466-48.6 11.466-53.2 0-96.266-43.066-96.266-96.267s43.067-96.2 96.266-96.2c16.534 0 25.8 4.2 48.6 11.466 0-77.4 70.6-162.8 165.133-162.8h102.666c94.533 0 177.2 82.334 177.2 176.866v245.333h-445zM125.4 212.933c-26.133 0-49.733 21.2-49.733 47.4 0 26.134 22.733 47.4 48.867 47.4 21.934 0 37.267-14.934 48.6-35.267v-24.2h.133c-11.334-20.267-25.934-35.334-47.867-35.334zm235.266-86L247.933 239.666l46.4 46.4 66.267-66.267 140.934 140.867 46.4-46.4-187.267-187.334z" horiz-adv-x="647"/><glyph unicode="" d="M24.576 337.664q0 29.696 12.8 52.224t28.672 33.28 35.328 17.408 28.672 7.68 13.312 1.024h117.76v-2.048q0-11.264-39.936-18.432-14.336 0-19.456-3.072 20.48-10.24 27.648-28.672t7.168-49.152q0-52.224-34.816-80.896-19.456-19.456-19.456-27.648 0-9.216 25.6-32.768 53.248-46.08 53.248-91.136 0-71.68-59.392-99.328-34.816-17.408-76.8-17.408h-2.048l-2.048 1.024q-1.024-1.024-2.048-1.024-12.288 0-27.648 2.56t-38.4 10.752-37.888 29.184T0 93.952q0 30.72 16.384 51.712t42.496 29.184 45.056 11.264 36.352 3.072h1.024q-8.192 11.264-12.288 24.064t-4.096 19.968l1.024 7.168h-7.168q-32.768 0-56.32 15.36-37.888 22.528-37.888 81.92zm189.44-231.424q-2.048 26.624-22.016 43.008t-52.736 16.384h-8.192q-32.768-1.024-58.368-23.552Q49.152 120.576 51.2 93.952t27.136-40.96 60.928-12.288q34.816 2.048 55.808 20.48t18.944 45.056zm-30.72 256q-15.36 55.296-62.464 55.296-6.144 0-10.24-1.024-20.48-6.144-29.696-31.744-8.192-25.6-1.024-54.272 7.168-26.624 24.064-43.52t36.352-16.896q6.144 0 9.216 1.024 21.504 6.144 32.256 33.28t1.536 57.856zm198.656-89.088h76.8v-48.128h-76.8v-76.8h-48.128v76.8h-76.8v48.128h76.8v76.8h48.128v-76.8z" horiz-adv-x="459"/><glyph unicode="" d="M256 374.528h-72.704q-7.168 0-12.8-7.68t-5.632-18.944V295.68H256v-75.776h-91.136V-6.4h-87.04v226.304H0v75.776h77.824v44.032q0 48.128 30.208 81.408t75.264 33.28H256v-79.872z" horiz-adv-x="256"/><glyph unicode="" d="M163.84 142.08q-13.312-66.56-29.696-108.032T84.992-32Q81.92 5.888 81.408 29.44t5.632 56.32 11.264 53.248 13.312 50.688 12.288 50.688q-12.288 26.624-9.728 59.392t24.576 54.272 50.688 10.24q20.48-8.192 22.528-30.208t-6.656-48.64-16.384-52.736-2.048-46.08 32.256-25.088q34.816-7.168 61.952 19.456t37.888 67.072 5.632 83.456-27.648 65.536q-31.744 32.768-77.312 35.84T136.192 416t-61.44-59.904-16.384-87.04q2.048-11.264 11.264-26.624t10.752-24.064-8.704-34.304Q-3.072 201.472 0 301.824q2.048 70.656 53.76 119.808t119.296 57.344q83.968 9.216 148.48-29.184t73.728-112.128q13.312-90.112-33.792-162.304t-129.024-66.048q-11.264 1.024-21.504 4.608t-15.36 6.656-15.872 10.752-15.872 10.752z" horiz-adv-x="399"/><glyph unicode="" d="M277.504 124.672V64.256q0-18.944-11.264-18.944-6.656 0-12.8 6.144v86.016q6.144 6.144 12.8 6.144 11.264 0 11.264-18.944zm96.768-.512v-13.312h-25.6v13.312q0 19.456 12.8 19.456t12.8-19.456zM98.304 186.624h30.72v26.624H39.936v-26.624h30.208V23.808h28.672v162.816zm82.432-162.816h25.6V165.12h-25.6V57.088q-8.704-11.776-16.384-11.776-5.12 0-6.144 6.144-.512 1.024-.512 10.24v103.936h-25.6V54.016q0-13.824 2.048-20.992 3.584-10.752 16.384-10.752 13.824 0 29.184 17.408V24.32zm122.368 42.496v56.32q0 20.992-2.56 28.16-4.608 15.872-20.48 15.872-14.336 0-26.624-15.36v61.952h-25.6V23.808h25.6v13.824q12.8-15.872 26.624-15.872 15.36 0 20.48 15.872 2.56 7.68 2.56 28.672zm96.768 3.072v3.584H373.76q0-14.336-.512-17.408-2.048-10.24-11.264-10.24-13.312 0-13.312 19.968v25.088h51.2v29.184q0 22.528-7.68 33.28-11.264 14.336-30.208 14.336-19.456 0-30.72-14.336-8.192-10.752-8.192-33.28V69.888q0-22.528 8.192-33.28 11.264-14.336 30.72-14.336 20.48 0 30.72 15.36 5.12 7.68 6.144 15.36.512 2.56.512 16.384zM226.304 329.984v59.904q0 19.968-12.288 19.968t-12.288-19.968v-59.904q0-19.968 12.288-19.968t12.288 19.968zm205.312-214.528q0-67.072-7.68-99.84-4.096-16.896-16.384-28.16t-29.184-13.312Q325.632-32 219.648-32t-158.72 6.144Q44.544-24.32 31.744-12.544T15.36 15.616q-7.68 31.744-7.68 99.84 0 67.072 7.68 99.84 4.096 16.896 16.384 28.16t29.184 13.312q52.224 5.632 158.208 5.632t158.72-5.632q16.384-2.048 29.184-13.312t16.384-28.16q7.68-31.744 7.68-99.84zM146.432 480h29.184L140.8 365.824v-77.312h-28.672v77.312q-4.096 20.992-17.408 60.416-10.752 29.184-18.432 53.248h30.208l20.48-75.264zm105.472-95.232v-50.176q0-23.04-8.192-33.792-10.752-14.336-30.208-14.336-18.944 0-30.208 14.336-8.192 10.752-8.192 33.792v50.176q0 23.04 8.192 33.28 10.752 14.336 30.208 14.336 19.968 0 30.208-14.336 8.192-10.752 8.192-33.28zm95.744 46.08V288.512h-26.112v15.872q-15.36-17.92-29.184-17.92-13.312 0-16.896 10.752-2.048 6.656-2.048 21.504v112.64h26.112V326.4q0-9.216.512-10.24 1.024-6.144 6.144-6.144 7.68 0 16.384 12.288V431.36h26.112z" horiz-adv-x="439"/><glyph unicode="" d="M0 418.56q160.768 0 274.944-114.176T389.12 29.44h-60.416q0 136.192-96.256 231.936T0 357.12v61.44zm0-121.856q111.616 0 189.952-78.336T268.288 29.44h-60.416q0 84.992-60.928 145.92T0 236.288v60.416zm58.368-151.552q23.552 0 40.96-16.896t17.408-41.472q0-23.552-17.408-40.448T58.368 29.44t-40.96 16.896T0 86.784q0 24.576 17.408 41.472t40.96 16.896z" horiz-adv-x="389"/><glyph unicode="" d="M104.448 402.176q0-20.48-14.848-34.816t-38.4-14.336q-22.528 0-36.864 14.336T0 402.176q0 21.504 14.336 35.328t37.888 13.824T89.6 437.504t14.848-35.328zM3.072-2.304v316.416h98.304V-2.304H3.072zm156.672 215.04q0 44.032-2.048 101.376h84.992l5.12-44.032h2.048q30.72 51.2 97.28 51.2 51.2 0 82.432-34.304T460.8 185.088V-2.304h-98.304V172.8q0 68.608-50.176 68.608-35.84 0-50.176-36.864-3.072-6.144-3.072-24.576V-2.304h-99.328v215.04z" horiz-adv-x="461"/><glyph unicode="" d="M286.72 15.104q-24.576-13.312-54.272-20.48-24.576-6.144-52.224-6.144-29.696 0-56.32 8.192Q96.256 6.912 81.92 20.224 63.488 36.608 58.368 52.992 51.2 68.352 51.2 102.144v164.864H0v66.56q27.648 9.216 47.104 25.6t31.744 40.96q12.288 26.624 15.36 59.392h66.56V340.736H271.36v-73.728H160.768V146.176q0-43.008 4.096-52.224 5.12-12.288 16.384-18.432 14.336-10.24 34.816-10.24 34.816 0 70.656 23.552V15.104z" horiz-adv-x="287"/><glyph unicode="" d="M282.624 274.176v30.72q0 11.264-7.68 18.944T256 331.52q-10.24 0-18.432-7.68t-8.192-18.944V144.128q0-47.104-33.792-80.896T114.688 29.44 33.792 63.232 0 144.128v67.584h88.064v-67.584q0-10.24 8.192-18.432t18.432-8.192 18.432 8.192 8.192 18.432v160.768q0 47.104 33.792 80.384T256 418.56t80.896-33.28 33.792-80.384v-30.72l-52.224-17.408zm142.336-62.464H512v-67.584q0-47.104-33.792-80.896T397.312 29.44t-80.896 33.792-33.792 80.896v68.608l35.84-16.384 52.224 16.384v-68.608q0-10.24 8.192-18.432t18.432-8.192q11.264 0 19.456 7.68t8.192 18.944v67.584z"/><glyph unicode="" d="M353.28 224q0 13.312-3.072 25.6h90.112V73.472q0-28.672-19.968-49.152t-48.64-20.48H68.608q-28.672 0-48.64 20.48T0 73.472V249.6h89.088Q87.04 233.216 87.04 224q0-54.272 38.912-93.696T220.16 90.88q54.272 0 93.696 39.424T353.28 224zm18.432 220.16q28.672 0 48.64-19.968t19.968-48.64V300.8H328.704q-39.936 56.32-108.544 56.32-70.656 0-108.544-56.32H0v74.752q0 28.672 19.968 48.64t48.64 19.968h303.104zm32.768-84.992v36.864q0 12.288-12.288 12.288h-36.864q-12.288 0-12.288-12.288v-36.864q0-4.096 3.584-8.192t8.704-4.096h36.864q12.288 0 12.288 12.288zM302.08 224q0-33.792-24.064-57.856T220.16 142.08t-57.856 24.064T138.24 224q0 34.816 24.064 58.368t57.856 23.552 57.856-23.552T302.08 224z" horiz-adv-x="441"/><glyph unicode="" d="M100.352 121.6q-40.96 0-70.656 30.208T0 224q0 43.008 29.184 72.704t71.168 29.696 71.168-29.696T200.704 224q0-41.984-29.696-72.192T100.352 121.6zm260.096 0q-40.96 0-70.656 30.208T260.096 224q0 43.008 29.184 72.704t71.168 29.696 71.168-29.696T460.8 224q0-41.984-29.696-72.192T360.448 121.6z" horiz-adv-x="461"/><glyph unicode="" d="M317.44 191.232q13.312 0 23.04-13.312t9.728-32.768-9.728-32.768-23.04-13.312q-14.336 0-24.064 13.312t-9.728 32.768 9.728 32.768 24.064 13.312zM433.152 311.04q37.888-40.96 37.888-99.328 0-37.888-8.704-68.096T440.32 94.464t-32.768-33.28-35.84-20.992-37.376-10.24-31.744-4.096-23.04-.512q-3.072 0-18.432-.512t-25.6-.512-25.6.512-18.432.512q-12.288 0-23.04.512t-31.744 4.096-37.376 10.24-35.84 20.992-32.768 33.28-22.016 49.152T0 211.712q0 58.368 37.888 99.328-4.096 2.048-.512 40.96t16.896 71.68q47.104-5.12 116.736-53.248 23.552 6.144 64.512 6.144 43.008 0 64.512-6.144 31.744 21.504 60.928 34.816t42.496 15.36l13.312 3.072q13.312-32.768 16.896-71.68t-.512-40.96zM236.544 47.872q84.992 0 128.512 20.48t43.52 83.968q0 36.864-27.648 61.44-14.336 13.312-33.28 16.384t-57.856 0-53.248-3.072h-2.048q-16.384 0-42.496 2.048t-40.96 2.56-32.256-3.584-28.672-14.336q-26.624-23.552-26.624-61.44 0-63.488 43.008-83.968t128-20.48h2.048zm-81.92 143.36q13.312 0 23.04-13.312t9.728-32.768-9.728-32.768-23.04-13.312q-14.336 0-24.064 13.312t-9.728 32.768 9.728 32.768 24.064 13.312z" horiz-adv-x="471"/><glyph unicode="" d="M471.04 370.432q-18.432-27.648-48.128-50.176v-12.288q0-66.56-30.72-128T296.96 76.032 148.48 33.536Q66.56 33.536 0 76.544q7.168-1.024 23.552-1.024 67.584 0 119.808 40.96-31.744 1.024-56.32 19.456t-33.792 48.128q5.12-2.048 17.408-2.048 13.312 0 25.6 3.072-33.792 7.168-55.296 33.792t-21.504 61.44v1.024q18.432-10.24 43.008-12.288-43.008 29.696-43.008 80.896 0 24.576 13.312 48.128 78.848-96.256 199.68-100.352-3.072 9.216-3.072 21.504 0 39.936 28.16 68.096t69.12 28.16q41.984 0 69.632-29.696 30.72 6.144 61.44 22.528-10.24-33.792-41.984-53.248 28.672 4.096 55.296 15.36z" horiz-adv-x="471"/><glyph unicode="" d="M458.752 330.496q-16.384-95.232-87.552-179.712T245.76 29.44q-21.504-14.336-41.472-8.704t-33.792 19.456-22.016 31.232q-8.192 16.384-39.936 122.368T70.656 307.968q-8.192 6.144-19.456 2.56t-22.528-10.752l-10.24-7.168L0 318.208q9.216 10.24 23.552 26.624t51.2 45.568 63.488 34.304q15.36 3.072 27.136-3.584t18.432-17.92 11.776-30.72 7.68-35.84 6.144-38.4 6.656-34.304q7.168-27.648 10.752-40.96t8.704-27.648 9.216-19.968 9.216-5.632q20.48 0 64.512 84.992 21.504 38.912 3.072 63.488t-57.344 1.024q11.264 64.512 71.68 96.256 53.248 27.648 93.184 4.096 40.96-23.552 29.696-89.088z" horiz-adv-x="462"/><glyph unicode="" d="M256 224L65.024 300.288 76.8 19.2H25.6l12.288 292.096L0 326.4l256 102.4 256-102.4zm0 128q-10.496 0-18.048-3.712T230.4 339.2t7.552-9.088T256 326.4t18.048 3.712 7.552 9.088-7.552 9.088T256 352zm0-153.6l142.592 57.088q28.672-38.144 34.816-84.48-13.312 1.792-23.808 1.792-48.128 0-88.96-23.68T256 85.504q-23.808 39.936-64.64 63.616T102.4 172.8q-10.24 0-23.808-1.792 6.144 46.336 34.816 84.48z"/><glyph unicode="" d="M218.624 153.856q0 33.28-18.432 56.832-12.8 16.128-34.944 20.992t-40.832.768q-6.4 36.608 19.968 77.696t67.584 61.824l-41.728 58.368q-25.088-12.032-48.256-29.184T78.592 360.96t-34.176-49.28-20.352-58.112-2.304-64.64q6.656-54.016 35.712-86.272T130.048 70.4q38.656 0 63.488 22.528 25.088 22.528 25.088 60.928zm241.408 0q0 33.28-18.432 56.832-12.8 16.128-34.944 20.992t-40.832.768q-6.4 36.608 19.968 77.696t67.584 61.824l-41.728 58.368q-25.088-12.032-48.256-29.184T320 360.96t-34.176-49.28-20.352-58.112-2.304-64.64q6.656-54.016 35.712-86.272T371.456 70.4q38.656 0 63.488 22.528 25.088 22.528 25.088 60.928z"/><glyph unicode="" d="M25.6 454.4h460.8V147.2L332.8-6.4H25.6v460.8zm76.8-76.8V352h307.2v25.6H102.4zm0-102.4v-25.6h307.2v25.6H102.4zm153.6-128v25.6H102.4v-25.6H256zm51.2-102.4l128 128h-128v-128z"/><glyph unicode="" d="M281.6 326.4h-20.992q-20.736 0-38.272-18.176t-17.536-37.12V224L128 147.2V224H76.8q-20.992 0-36.096 15.104T25.6 275.2v128q0 20.992 15.104 36.096T76.8 454.4h153.6q20.992 0 36.096-15.104T281.6 403.2v-76.8zm0-25.6h153.6q20.992 0 36.096-15.104T486.4 249.6v-128q0-20.992-15.104-36.096T435.2 70.4H384V-6.4l-76.8 76.8h-25.6q-20.992 0-36.096 15.104T230.4 121.6v128q0 20.992 15.104 36.096T281.6 300.8z"/><glyph unicode="" d="M435.2 224q0 48.64-24.064 89.984t-65.28 65.28T256 403.2q-36.608 0-69.76-14.208t-57.088-38.144-38.144-57.088T76.8 224t14.208-69.76 38.144-57.088 57.088-38.144T256 44.8q48.64 0 89.856 23.936t65.28 65.28T435.2 224zm-161.28-37.888h-39.936v11.008q0 14.336 6.144 25.088 5.632 9.984 22.528 22.784 15.616 11.008 20.736 18.176 5.12 6.656 5.12 15.872 0 9.472-7.168 14.848-7.168 4.864-20.224 4.864-22.528 0-51.2-14.592l-16.384 32.768q33.536 18.944 70.912 18.944 30.72 0 49.152-14.848 18.176-14.848 18.176-39.68 0-16.896-7.424-28.416-6.912-11.52-28.416-27.136-14.08-10.24-18.176-16.128-3.84-5.632-3.84-14.592v-8.96zm-37.632-70.144q-6.912 6.656-6.912 18.688 0 12.8 6.656 19.2t19.712 6.4q12.032 0 19.2-6.656 6.912-6.656 6.912-18.944 0-12.032-6.912-18.432-6.912-6.912-19.2-6.912t-19.456 6.656z"/><glyph unicode="" d="M96.256 70.4h319.488q45.056 56.064 45.056 128 0 41.728-16.256 79.616t-43.648 65.28-65.28 43.648T256 403.2t-79.616-16.256-65.28-43.648-43.648-65.28T51.2 198.4q0-71.936 45.056-128zM256 377.6q10.496 0 18.048-7.552T281.6 352t-7.552-18.048T256 326.4t-18.048 7.552T230.4 352t7.552 18.048T256 377.6zm-102.4-51.2q10.496 0 18.048-7.552T179.2 300.8t-7.552-18.048T153.6 275.2t-18.048 7.552T128 300.8t7.552 18.048T153.6 326.4zm204.8 0q10.496 0 18.048-7.552T384 300.8t-7.552-18.048T358.4 275.2t-18.048 7.552T332.8 300.8t7.552 18.048T358.4 326.4zM220.928 184.32L307.2 300.8V147.2q0-20.992-15.104-36.096T256 96t-36.096 15.104T204.8 147.2q0 21.76 16.128 37.12zM102.4 224q10.496 0 18.048-7.552T128 198.4t-7.552-18.048T102.4 172.8t-18.048 7.552T76.8 198.4t7.552 18.048T102.4 224zm307.2 0q10.496 0 18.048-7.552T435.2 198.4t-7.552-18.048T409.6 172.8t-18.048 7.552T384 198.4t7.552 18.048T409.6 224zm-128-76.8q0 10.496-7.552 18.048T256 172.8t-18.048-7.552T230.4 147.2t7.552-18.048T256 121.6t18.048 7.552T281.6 147.2z"/><glyph unicode="" d="M460.8 19.2l.256 314.368q11.52 6.912 18.432 18.56T486.4 377.6q0 20.992-15.104 36.096T435.2 428.8t-36.096-15.104T384 377.6q0-15.104 8.064-27.52t21.12-18.56L307.456 163.072q-13.312 9.728-29.696 9.728-15.872 0-28.672-8.704t-18.688-23.04l-54.784 39.168q3.584 8.704 3.584 18.176 0 21.248-14.976 36.224T128 249.6t-36.224-14.976T76.8 198.4q0-13.824 6.784-25.344t18.304-18.432L25.6 19.2h435.2zm-25.6 384q10.496 0 18.048-7.552T460.8 377.6t-7.552-18.048T435.2 352t-18.048 7.552T409.6 377.6t7.552 18.048T435.2 403.2zM128 224q10.496 0 18.048-7.552T153.6 198.4t-7.552-18.048T128 172.8t-18.048 7.552T102.4 198.4t7.552 18.048T128 224zm149.76-76.8q10.496 0 18.048-7.552t7.552-18.048-7.552-18.048T277.76 96t-18.048 7.552-7.552 18.048 7.552 18.048 18.048 7.552z"/><glyph unicode="" d="M128 300.8h332.8v-256H51.2v332.8h179.2l51.2-51.2H102.4V96H128v204.8z"/><glyph unicode="" d="M281.6 428.8h179.2V249.6l-256-256L25.6 172.8zm76.8-153.6q20.992 0 36.096 15.104T409.6 326.4t-15.104 36.096T358.4 377.6t-36.096-15.104T307.2 326.4t15.104-36.096T358.4 275.2z"/><glyph unicode="" d="M128 44.8h332.8V-6.4H128q-31.744 0-54.272 22.528T51.2 70.4v307.2q0 31.744 22.528 54.272T128 454.4h332.8V96H128q-10.496 0-18.048-7.552T102.4 70.4t7.552-18.048T128 44.8zm51.2 89.6V416q0 5.376-3.712 9.088T166.4 428.8t-9.088-3.712T153.6 416V134.4q0-5.376 3.712-9.088t9.088-3.712 9.088 3.712 3.712 9.088z"/><glyph unicode="" d="M435.2 300.8V352H76.8v-51.2h358.4zm0-102.4v51.2H76.8v-51.2h358.4zm0-102.4v51.2H76.8V96h358.4z"/><glyph unicode="" d="M460.8 19.2H51.2v409.6h409.6V19.2zM206.08 287.232q4.864 2.816 8.448 6.144 3.584 4.096 6.144 8.704 3.328 6.656 4.352 9.472 1.28 3.328 2.56 8.704l1.536 6.144q0 .512.128 1.28t.128 1.024q1.792 11.52-1.024 23.04-3.072 11.008-11.776 18.432-8.96 7.424-22.016 7.424-7.424 0-14.336-2.816-6.656-3.072-10.496-7.68-4.352-5.12-6.912-11.264t-3.072-13.056q-.256-4.608.256-14.08l.512-2.304q.512-2.816 1.536-6.4 2.304-7.68 2.56-8.448 1.536-4.608 4.352-9.472 3.328-5.12 6.4-8.448 3.84-4.352 8.704-6.4 4.864-2.304 11.008-2.304t11.008 2.304zM409.6 352v25.6h-128V352h128zm0-51.2v25.6h-128v-25.6h128zm-214.528-46.848l-35.328 22.528q-15.616 0-29.184-8.192-13.568-8.448-20.736-21.76-7.424-13.312-7.424-27.392v-32l5.12-1.28q6.656-2.048 14.08-3.584 10.496-2.56 20.48-4.352 8.704-1.792 25.6-3.584 14.336-1.536 27.392-1.536 12.8 0 27.392 1.536 12.288 1.28 25.088 3.584 13.824 2.56 20.992 4.352 4.096.768 8.704 2.048t5.12 1.28q3.328 1.024 5.376 1.536v32q0 14.08-7.936 27.392-8.192 13.568-21.504 22.016-13.568 8.448-28.416 8.448zM409.6 249.6v25.6h-76.8v-25.6h76.8zm0-51.2V224h-76.8v-25.6h76.8zm0-76.8v25.6H102.4v-25.6h307.2zm0-51.2V96H102.4V70.4h307.2z"/><glyph unicode="" d="M186.88 326.4l-.768 4.864q-1.536 14.08-.768 27.648.768 14.336 6.4 26.624 5.632 12.8 13.312 22.016 8.448 9.984 21.248 15.36 13.312 5.888 28.928 5.888 26.368 0 43.776-15.104 17.664-15.36 23.296-36.864 5.632-21.76 2.304-45.568l-.768-4.864q-.256-2.56-2.816-12.288-1.792-8.448-5.12-17.664-3.328-8.704-8.704-18.432-4.608-8.96-12.032-17.664-6.4-6.656-17.152-12.288Q268.032 243.2 256 243.2q-11.776 0-22.272 4.864-10.752 5.376-17.152 12.8-6.4 7.168-12.544 16.896-5.632 9.216-8.704 18.688-3.584 9.984-5.376 17.152-2.304 8.448-3.072 12.8zM422.4 166.656q12.8-21.76 12.8-54.784V48.128q0-1.024-7.424-3.328-1.792-.512-9.472-2.688t-15.36-4.224q-28.16-6.144-42.24-8.704-21.76-3.84-49.92-6.912-28.672-3.072-54.528-3.072t-54.784 3.072q-23.04 2.048-50.688 6.912-11.264 2.048-39.936 8.704-11.008 2.56-27.136 7.424L76.8 48.128v63.744q0 34.304 11.776 55.04 16.64 29.44 38.4 43.008 12.032 7.424 34.816 10.752T204.8 224l42.752-42.752L230.4 147.2V70.4l26.112-27.648L281.6 70.4v76.8l-17.408 34.048L306.432 224q53.504 0 74.24-13.312 24.576-15.616 41.728-44.032z"/><glyph unicode="" d="M256 19.2V96l102.4 102.4H51.2v51.2h307.2L256 352v76.8L460.8 224z"/><glyph unicode="" d="M153.6 96l128 128-128 128v76.8L358.4 224 153.6 19.2V96z"/><glyph unicode="" d="M256 428.8q41.728 0 79.616-16.256t65.28-43.648 43.648-65.28T460.8 224t-16.256-79.616-43.648-65.28-65.28-43.648T256 19.2t-79.616 16.256-65.28 43.648-43.648 65.28T51.2 224t16.256 79.616 43.648 65.28 65.28 43.648T256 428.8zm0-358.4q41.728 0 77.056 20.608t55.936 55.936T409.6 224t-20.608 77.056-55.936 55.936T256 377.6t-77.056-20.608-55.936-55.936T102.4 224t20.608-77.056 55.936-55.936T256 70.4zm-18.176 135.424q3.584-2.56 5.888-3.84l-.512-.512L358.4 147.2l-77.568 81.664L256 352l-24.832-123.136h.256q0-.256-.512-2.304T230.4 224q0-10.752 7.424-18.176z"/></font></defs></svg>
=======
<?xml version="1.0" standalone="no"?>
<!DOCTYPE svg PUBLIC "-//W3C//DTD SVG 1.1//EN" "http://www.w3.org/Graphics/SVG/1.1/DTD/svg11.dtd" >
<svg xmlns="http://www.w3.org/2000/svg">
<metadata>Generated by IcoMoon</metadata>
<defs>
<font id="ae-icons-website" horiz-adv-x="512">
<font-face units-per-em="512" ascent="480" descent="-32" />
<missing-glyph horiz-adv-x="512" />
<glyph unicode="&#x20;" horiz-adv-x="256" d="" />
<glyph unicode="&#xe600;" glyph-name="cloud-download" horiz-adv-x="549" d="M365.714 210.286q0 4-2.572 6.572t-6.572 2.571h-64v100.572q0 3.714-2.714 6.428t-6.428 2.714h-54.857q-3.714 0-6.429-2.714t-2.714-6.428v-100.572h-64q-3.714 0-6.428-2.714t-2.714-6.428q0-4 2.571-6.572l100.571-100.572q2.571-2.572 6.572-2.572t6.572 2.572l100.286 100.286q2.857 3.428 2.857 6.857zM548.572 146.286q0-45.428-32.143-77.572t-77.572-32.143h-310.857q-52.857 0-90.428 37.572t-37.572 90.428q0 37.143 20 68.572t53.715 47.143q-0.572 8.572-0.572 12.286 0 60.572 42.857 103.428t103.428 42.857q44.572 0 81.572-24.857t53.857-66q20.286 17.715 47.428 17.715 30.286 0 51.714-21.428t21.428-51.714q0-21.714-11.714-39.428 37.143-8.857 61-38.714t23.857-68.143z" />
<glyph unicode="&#xe601;" glyph-name="rocket" horiz-adv-x="476" d="M411.428 347.429q0 11.428-8 19.428t-19.428 8-19.428-8-8-19.428 8-19.428 19.428-8 19.428 8 8 19.428zM475.428 429.714q0-71.143-21.572-123t-72.428-103q-23.143-22.857-55.714-50.286l-5.714-108.286q-0.572-4.572-4.572-7.428l-109.714-64q-2-1.143-4.572-1.143-3.429 0-6.572 2.572l-18.286 18.286q-3.714 4-2.286 9.143l24.286 78.857-80.285 80.286-78.857-24.286q-0.857-0.286-2.572-0.286-4 0-6.572 2.572l-18.285 18.286q-4.857 5.428-1.428 11.143l64 109.714q2.857 4 7.428 4.572l108.285 5.714q27.428 32.572 50.286 55.714 53.714 53.428 102.286 73.714t123.143 20.286q4 0 6.857-2.714t2.857-6.429z" />
<glyph unicode="&#xe602;" glyph-name="bullhorn2" d="M475.428 292.572q15.143 0 25.857-10.714t10.714-25.857-10.714-25.857-25.857-10.714v-109.714q0-14.857-10.857-25.714t-25.714-10.857q-119.143 99.143-232 108.572-16.572-5.428-26-18.857t-8.857-28.714 11.429-26.428q-5.714-9.428-6.572-18.714t1.714-16.572 9.572-15.714 13.714-14.286 17.572-14.428q-8.286-16.572-31.857-23.714t-48.143-3.286-37.715 15.857q-2 6.572-8.428 25t-9.143 27-6.572 25.428-4.285 28.857 1 28.143 6.285 31.572h-34.857q-18.857 0-32.285 13.428t-13.428 32.286v54.857q0 18.857 13.428 32.286t32.285 13.428h137.143q124.286 0 256 109.714 14.857 0 25.714-10.857t10.857-25.714v-109.714zM438.857 120v272.572q-112.572-86.286-219.429-98v-77.143q107.715-12 219.429-97.428z" />
<glyph unicode="&#xe603;" glyph-name="ae-mobile-app" d="M392.992 45.696c0-24.992-20.704-45.696-45.696-45.696h-182.752c-24.992 0-45.696 20.672-45.696 45.696v365.504c0 24.992 20.704 45.696 45.696 45.696h182.752c24.96 0 45.696-20.704 45.696-45.696v-365.504zM358.72 354.080c0 6.048-5.344 11.424-11.392 11.424h-182.784c-6.048 0-11.424-5.344-11.424-11.424v-251.264c0-6.048 5.344-11.424 11.424-11.424h182.752c6.048 0 11.392 5.376 11.392 11.424v251.264zM284.48 411.2h-57.12c-3.232 0-5.728-2.496-5.728-5.728 0-3.2 2.496-5.696 5.728-5.696h57.12c3.232 0 5.728 2.496 5.728 5.696-0.032 3.232-2.528 5.728-5.728 5.728zM255.936 74.272c-15.712 0-28.544-12.864-28.544-28.576s12.832-28.576 28.544-28.576 28.544 12.864 28.544 28.576-12.864 28.576-28.544 28.576zM174.752 184.576v70.304l71.168-37.92v-70.304l-71.168 37.92zM263.392 216.96l71.168 37.952v-70.304l-71.168-37.952v70.304zM178.368 271.296l77.792 41.472 74.912-41.44-76.416-40.736-76.288 40.704z" />
<glyph unicode="&#xe604;" glyph-name="tie" d="M270.432 336.512l19.968 94.784h-101.584l20.752-94.784h60.864zM209.136 318.768l-67.2-214.128 101.6-84.4 93.776 84.4-65.664 214.128h-62.512zM301.344 289.056l46.912-128.96h28.128v28.928l-75.040 100.032z" />
<glyph unicode="&#xe605;" glyph-name="play" d="M96 416l320-192-320-192z" />
<glyph unicode="&#xe606;" glyph-name="cancel-profile" d="M351.232 184.613c2.816 0 5.632-0.512 8.448-1.536 2.56-1.024 4.864-2.56 6.656-4.608s3.328-4.352 4.608-6.656c1.28-2.56 1.792-5.12 1.792-8.192 0-2.816-0.512-5.632-1.792-8.448-1.28-2.56-2.816-4.864-4.608-6.656s-4.096-3.328-6.656-4.608c-2.56-1.28-5.376-1.792-8.448-1.792h-42.24c-2.816 0-5.632 0.512-8.448 1.792-2.56 1.28-4.864 2.816-6.656 4.608s-3.328 4.096-4.608 6.656c-1.28 2.56-1.792 5.376-1.792 8.448 0 2.816 0.512 5.632 1.792 8.192s2.816 4.864 4.608 6.656c1.792 2.048 4.096 3.584 6.656 4.608s5.376 1.536 8.448 1.536h42.24zM417.28 116.261c0-2.304-1.024-4.608-1.792-6.912-1.024-2.304-2.56-4.352-4.096-5.888-1.792-1.536-3.84-2.304-5.888-3.328-2.304-1.024-4.608-1.024-7.424-1.024h-236.544l-50.432-43.52h313.856c4.352 0 8.704 1.28 12.544 3.072 4.096 1.792 7.68 4.352 10.752 7.168 3.072 3.072 5.632 6.656 7.424 10.752s2.56 8.448 2.56 13.056v255.488l-40.96-34.816v-194.048zM99.84 328.741c0 2.56 1.024 5.12 1.792 7.168 1.024 2.304 2.56 4.096 4.096 5.888 1.792 1.792 3.84 3.072 5.888 4.096 2.304 1.024 4.864 1.536 7.424 1.536h72.96v-15.104c0-2.56 0.512-5.12 1.536-7.168 1.024-2.304 2.304-4.096 3.84-5.888s3.584-2.816 5.888-3.84c2.304-1.024 4.608-1.28 6.912-1.28h96.512c2.304 0 4.608 0.512 6.912 1.28 2.304 1.024 4.352 2.304 5.888 3.84 1.536 1.792 1.536 3.584 2.56 5.888s0.256 4.608 0.256 7.168v15.104h34.048l50.432 40.96h-84.224v15.36c0 2.56 0.768 5.12-0.256 7.168-1.024 2.304-1.792 4.096-3.328 5.888s-3.072 2.816-5.632 3.84c-2.304 1.024-4.352 1.28-6.656 1.28h-96.256c-2.304 0-4.608-0.256-6.912-1.28s-4.352-2.048-5.888-3.84c-1.536-1.792-2.816-3.584-3.84-5.888-1.28-2.304-1.792-4.608-1.792-7.168v-15.36h-99.584c-4.352 0-8.704-0.512-12.544-2.304-4.096-1.792-7.68-4.096-10.752-7.168s-6.912-6.656-8.704-10.752c-1.792-3.84-4.096-7.936-4.096-12.544v-257.024l43.52 34.816v195.328zM233.728 247.333c0 4.608-1.024 8.96-2.816 13.056-2.048 4.096-4.608 7.424-7.68 10.496-3.328 3.072-7.168 5.376-11.776 7.168s-9.728 2.816-14.848 2.816c-5.376 0-10.496-1.024-15.104-2.816s-8.448-4.352-11.776-7.168c-3.328-3.072-5.888-6.4-7.68-10.496s-2.816-8.448-2.816-13.056c0-2.816 0.256-5.888 1.024-9.216s1.536-6.4 2.816-9.728c1.28-3.328 2.56-6.4 4.352-9.472s3.84-5.632 5.888-7.936c2.048-1.792 3.584-3.328 4.608-4.352 1.024-1.28 2.048-2.304 3.072-3.584 0.512-0.768 1.024-1.28 1.28-1.536l51.712 43.008c-0.256 1.024-0.256 2.048-0.256 2.816zM245.76 132.389c1.792 0 3.584-0.256 5.12 0.512s2.816 1.28 4.096 2.304c1.28 1.024 2.048 2.304 2.816 3.84s1.024 3.072 1.024 4.864v15.616c0 1.792-1.024 11.776-5.632 15.36l-51.2-42.496h43.776zM312.832 224.549h41.216c2.816 0 5.632-0.512 8.192 0.768s4.864 2.048 6.656 4.096c1.792 1.792 3.328 3.84 4.352 6.4 1.28 2.56 1.792 5.12 1.792 7.936s-0.512 5.376-1.792 7.936c-1.28 2.56-2.56 4.608-4.352 6.656s-4.096 3.328-6.656 4.352c-0.768 0.256-1.28 0.512-2.048 0.768l-48.896-39.68c0.512-0.256 1.024 0.768 1.536 0.768zM43.776 26.405c-4.864 0-9.472 2.048-12.8 5.888-5.888 7.168-4.864 17.408 2.048 23.296l432.64 360.192c7.168 5.888 17.408 4.864 23.296-2.048 5.888-7.168 4.864-17.408-2.048-23.296l-432.64-360.192c-2.816-2.56-6.656-3.84-10.496-3.84z" />
<glyph unicode="&#xe607;" glyph-name="money" d="M288 128c-17.664 0-32 14.336-32 32v32c0 17.68 14.336 32 32 32h192v-96h-192zM312 198.672c-13.248 0-24-10.752-24-24 0-13.264 10.752-24 24-24 13.264 0 24 10.736 24 24 0 13.248-10.736 24-24 24zM240 192v-32c0-26.496 21.504-48 48-48h160v-64c0-26.496-21.488-48-48-48h-336c-26.496 0-48 21.504-48 48v304c0 26.512 21.504 48 48 48h154.112l-37.584-15.664h-124.512c-13.248 0-24-10.752-24-24 0-13.264 10.752-24 24-24h391.984v-96.336h-160c-26.496 0-48-21.488-48-48zM80.016 304h-32v-32h16v16h16v16zM80.016 256h-32v-32h16.656l-0.656 16 16-0.336v16.336zM80.016 208h-32v-32h16.336l-0.336 16h16v16zM80.016 160h-32v-32h16.336l-0.336 16 16-0.336v16.336zM80.016 112h-32v-32h16v16h16v16zM80.016 64h-32v-32h16.336l-0.336 15.664h16v16.336zM144.016 352.992l188 79.008 36-79.008h-224zM362.336 400h37.664c14.016 0 26.496-6.096 35.28-15.664h-65.296l-7.648 15.664z" />
<glyph unicode="&#xe608;" glyph-name="backward" d="M288 400v-160l160 160v-352l-160 160v-160l-176 176z" />
<glyph unicode="&#xe609;" glyph-name="forward" d="M256 48v160l-160-160v352l160-160v160l176-176z" />
<glyph unicode="&#xe60a;" glyph-name="first" d="M64 32v384h64v-176l160 160v-160l160 160v-352l-160 160v-160l-160 160v-176z" />
<glyph unicode="&#xe60b;" glyph-name="newspaper" d="M448 352v64h-448v-352c0-17.673 14.327-32 32-32h432c26.511 0 48 21.489 48 48v272h-64zM416 64h-384v320h384v-320zM64 320h320v-32h-320zM256 256h128v-32h-128zM256 192h128v-32h-128zM256 128h96v-32h-96zM64 256h160v-160h-160z" />
<glyph unicode="&#xe60c;" glyph-name="users" d="M367.497 77.313c-9.476 1.494-9.692 27.327-9.692 27.327s27.844 27.328 33.912 64.076c16.326 0 26.407 39.069 10.082 52.814 0.681 14.47 20.984 113.588-81.799 113.588s-82.479-99.118-81.799-113.588c-16.327-13.745-6.244-52.814 10.081-52.814 6.067-36.748 33.913-64.076 33.913-64.076s-0.216-25.833-9.692-27.327c-30.524-4.816-144.503-54.658-144.503-109.313h384c0 54.655-113.979 104.497-144.503 109.313zM172.027 68.595c22.047 13.575 48.813 26.154 70.769 33.712-7.876 11.216-16.647 26.468-22.165 44.531-7.703 6.283-13.972 15.266-17.999 26.301-4.033 11.052-5.561 23.426-4.304 34.842 0.902 8.196 3.239 15.833 6.825 22.544-2.175 23.293-3.707 69.017 26.224 102.366 11.607 12.933 26.278 22.23 43.85 27.843-3.137 32.38-19.58 70.385-83.227 70.385-102.782 0-82.479-99.118-81.799-113.588-16.327-13.745-6.244-52.814 10.081-52.814 6.067-36.748 33.913-64.076 33.913-64.076s-0.216-25.833-9.692-27.327c-30.524-4.817-144.503-54.659-144.503-109.314h164.798c2.355 1.537 4.753 3.070 7.229 4.595z" />
<glyph unicode="&#xe60d;" glyph-name="last" d="M448 416v-384h-64v176l-160-160v160l-160-160v352l160-160v160l160-160v176z" />
<glyph unicode="&#xe60e;" glyph-name="spinner" d="M96 224c0 6.090 0.352 12.098 1.015 18.011l-92.49 30.052c-2.958-15.57-4.525-31.632-4.525-48.063 0-73.615 31.083-139.961 80.827-186.662l57.142 78.648c-26.062 28.463-41.969 66.379-41.969 108.014zM416 224c0-41.634-15.906-79.551-41.969-108.014l57.142-78.648c49.744 46.701 80.827 113.047 80.827 186.662 0 16.431-1.566 32.493-4.524 48.063l-92.49-30.052c0.662-5.914 1.014-11.921 1.014-18.011zM288 380.796c45.967-9.331 84.772-38.371 107.225-77.913l92.489 30.051c-36.598 77.71-111.12 134.030-199.714 145.078v-97.216zM116.775 302.884c22.453 39.542 61.258 68.582 107.225 77.913v97.215c-88.594-11.048-163.115-67.368-199.713-145.077l92.488-30.051zM322.278 78.336c-20.195-9.204-42.636-14.336-66.278-14.336s-46.083 5.132-66.277 14.335l-57.146-78.655c36.603-20.183 78.668-31.68 123.423-31.68s86.82 11.497 123.424 31.68l-57.146 78.656z" />
<glyph unicode="&#xe60f;" glyph-name="previous" d="M128 32v384h64v-176l160 160v-352l-160 160v-176z" />
<glyph unicode="&#xe610;" glyph-name="next" d="M384 416v-384h-64v176l-160-160v352l160-160v176z" />
<glyph unicode="&#xe611;" glyph-name="flash" horiz-adv-x="256" d="M0.285 194l57.428 235.714q1.143 4 4.572 6.571t8 2.572h93.715q5.428 0 9.143-3.572t3.714-8.428q0-2.285-1.429-5.143l-48.857-132.286 113.143 28q2.286 0.571 3.429 0.571 5.429 0 9.714-4.286 5.143-5.714 2-12.571l-154.286-330.572q-3.715-7.143-12-7.143-1.143 0-4 0.572-4.857 1.428-7.285 5.428t-1.285 8.572l56.286 230.857-116-28.857q-1.143-0.286-3.428-0.286-5.143 0-8.857 3.143-5.143 4.286-3.715 11.143z" />
<glyph unicode="&#xe612;" glyph-name="lamp2" d="M170.667 85.333v-32.107c0-14.933 6.187-28.491 16.107-38.187l31.36-31.36c20.907-20.907 54.827-20.907 75.733 0l31.36 31.36c9.92 9.696 16.107 23.253 16.107 38.187l-0.001 21.441h-94.933c-12.373 0-22.4 9.6-22.4 21.333s10.016 21.333 22.4 21.333h97.707c14.613 82.24 82.56 116.374 82.56 196.587 0 91.723-76.374 166.080-170.667 166.080s-170.667-74.357-170.667-166.080c0-90.571 85.334-122.571 85.334-228.587zM284.267 384c-10.027 1.813-17.6 10.56-17.6 21.013 0 11.723 9.6 21.654 21.333 21.654 16.96 0 37.547-12.053 54.827-29.12 17.6-17.494 30.506-40.864 30.506-56.214 0-11.733-9.6-21.333-21.333-21.333-10.453 0-19.2 7.573-21.024 17.6-5.333 21.44-23.659 41.067-46.709 46.4z" />
<glyph unicode="&#xe613;" glyph-name="dropbox-logos_dropbox-glyph_dropbox-glyph" d="M163.599 432.763l-132.048-86.218 91.303-73.118 133.142 82.217zM31.551 200.306l132.048-86.218 92.397 77.126-133.142 82.212zM255.995 191.214l92.406-77.126 132.048 86.218-91.303 73.121zM480.449 346.545l-132.048 86.218-92.406-77.119 133.15-82.217zM256.271 174.62l-92.672-76.899-39.656 25.892v-29.024l132.328-79.351 132.329 79.351v29.024l-39.656-25.892z" />
<glyph unicode="&#xe614;" glyph-name="print" d="M128 448h256v-64h-256zM480 352h-448c-17.6 0-32-14.4-32-32v-160c0-17.6 14.398-32 32-32h96v-128h256v128h96c17.6 0 32 14.4 32 32v160c0 17.6-14.4 32-32 32zM352 32h-192v160h192v-160zM487.2 304c0-12.813-10.387-23.2-23.199-23.2s-23.201 10.387-23.201 23.2 10.388 23.2 23.201 23.2c12.813 0 23.199-10.387 23.199-23.2z" />
<glyph unicode="&#xe615;" glyph-name="search" d="M316.288 330.688c23.040-5.333 41.376-24.96 46.709-46.4 1.824-10.027 10.56-17.6 21.024-17.6 11.733 0 21.333 9.6 21.333 21.333 0 15.36-12.907 38.72-30.507 56.213-17.28 17.067-37.867 29.12-54.827 29.12-11.733 0-21.333-9.92-21.333-21.653 0.001-10.442 7.574-19.2 17.601-21.013zM23.061 51.008c-16.533-16.523-16.533-43.413 0-59.936 16.533-16.544 43.413-16.544 59.84 0l122.549 122.453c28.597-17.835 62.293-28.171 98.56-28.171 103.147 0 186.667 83.52 186.667 186.667s-83.52 186.667-186.667 186.667-186.667-83.52-186.667-186.667c0-36.16 10.357-69.973 28.171-98.56l-122.453-122.453zM170.688 272.021c0 73.6 59.744 133.333 133.333 133.333 73.6 0 133.333-59.733 133.333-133.333s-59.733-133.333-133.333-133.333c-73.589 0.011-133.333 59.744-133.333 133.333z" />
<glyph unicode="&#xe616;" glyph-name="search2" horiz-adv-x="476" d="M329.143 237.714q0 52.857-37.572 90.428t-90.428 37.571-90.428-37.571-37.572-90.428 37.572-90.428 90.428-37.572 90.428 37.572 37.572 90.428zM475.428 0q0-14.857-10.857-25.714t-25.714-10.857q-15.428 0-25.714 10.857l-98 97.714q-51.143-35.428-114-35.428-40.857 0-78.143 15.857t-64.285 42.857-42.857 64.286-15.857 78.143 15.857 78.143 42.857 64.285 64.285 42.857 78.143 15.857 78.143-15.857 64.286-42.857 42.857-64.285 15.857-78.143q0-62.857-35.428-114l98-98q10.572-10.572 10.572-25.714z" />
<glyph unicode="&#xe624;" glyph-name="wand" d="M128 384l-64 64h-32v-32l64-64zM160 480h32v-64h-32zM288 320h64v-32h-64zM320 416v32h-32l-64-64 32-32zM0 320h64v-32h-64zM160 192h32v-64h-32zM32 192v-32h32l64 64-32 32zM505 39l-318.059 318.059c-9.334 9.334-24.607 9.334-33.941 0l-30.059-30.059c-9.334-9.334-9.334-24.607 0-33.941l318.059-318.059c9.334-9.334 24.607-9.334 33.941 0l30.059 30.059c9.334 9.334 9.334 24.607 0 33.941zM240 208l-96 96 32 32 96-96-32-32z" />
<glyph unicode="&#xe631;" glyph-name="checkmark" d="M198.717 21.152l-198.934 195.8 98.689 97.135 100.245-98.666 214.81 211.426 98.689-97.135-313.499-308.56zM53.956 216.952l144.762-142.481 259.328 255.241-44.518 43.816-214.81-211.426-100.245 98.667-44.517-43.817z" />
<glyph unicode="&#xe632;" glyph-name="checkmark2" d="M432 416l-240-240-112 112-80-80 192-192 320 320z" />
<glyph unicode="&#xe64a;" glyph-name="thumbs-up" d="M464 192c36.5 0 16-96-16-96 16 0 0-80-32-80 0-32-32-48-64-48-135.176 0-87.632 33.825-224 48v256c120.461 36.134 240 126.712 240 208 26.5 0 96-32 0-192 0 0 80 0 96 0 48 0 32-96 0-96zM96 272v-256h32v-16h-64c-17.6 0-32 21.6-32 48v192c0 26.4 14.4 48 32 48h64v-16h-32z" />
<glyph unicode="&#xe64b;" glyph-name="thumbs-up2" d="M48 256c-36.5 0-16 96 16 96-16 0 0 80 32 80 0 32 32 48 64 48 135.176 0 87.632-33.825 224-48v-256c-120.461-36.134-240-126.712-240-208-26.5 0-96 32 0 192 0 0-80 0-96 0-48 0-32 96 0 96zM416 176v256h-32v16h64c17.6 0 32-21.6 32-48v-192c0-26.4-14.4-48-32-48h-64v16h32z" />
<glyph unicode="&#xe670;" glyph-name="binoculars" d="M32 480h192v-32h-192zM288 480h192v-32h-192zM476 320h-28v128h-128v-128h-128v128h-128v-128h-28c-19.8 0-36-16.2-36-36v-280c0-19.8 16.2-36 36-36h152c19.8 0 36 16.2 36 36v188h64v-188c0-19.8 16.2-36 36-36h152c19.8 0 36 16.2 36 36v280c0 19.8-16.2 36-36 36zM174 0h-124c-9.9 0-18 7.2-18 16s8.1 16 18 16h124c9.9 0 18-7.2 18-16s-8.1-16-18-16zM272 224h-32c-8.8 0-16 7.2-16 16s7.2 16 16 16h32c8.8 0 16-7.2 16-16s-7.2-16-16-16zM462 0h-124c-9.9 0-18 7.2-18 16s8.1 16 18 16h124c9.9 0 18-7.2 18-16s-8.1-16-18-16z" />
<glyph unicode="&#xe6a2;" glyph-name="ruler" d="M96.928 370.64l10.976-10.976-44.928-44.928 35.008-35.008 45.136 45.136 10.256-10.256-45.136-45.152 34.56-34.544 102.656 102.656-124.992 124.256-102.288-102.288 33.824-33.84 44.928 44.944zM369.584 213.456l-102.656-102.672 34.544-34.544 45.152 45.136 10.256-10.256-45.136-45.136 35.008-35.008 44.912 44.928 10.976-10.976-44.912-44.928 33.808-33.824 102.304 102.304-124.256 124.976zM477.152 344.784c12.496 12.512 12.592 32.72 0.192 45.136l-56.192 56.176c-12.4 12.4-32.624 12.336-45.12-0.192l-34.72-34.72 101.12-101.12 34.72 34.72zM54.368 64.928l41.968-41.968 84.544 30.032-96.48 96.48-30.032-84.544zM330.4 400.912l-238.16-238.176 101.904-101.904 238.176 238.176-101.92 101.904zM138.512 162.944l191.696 191.696 11.168-11.168-191.712-191.712-11.152 11.184zM160.848 140.592l191.68 191.696 11.168-11.168-191.696-191.68-11.152 11.152zM183.184 118.272l191.696 191.696 11.152-11.168-191.68-191.696-11.168 11.168zM31.264-0.16l49.056 17.872-31.184 31.184-17.872-49.056z" />
<glyph unicode="&#xe6aa;" glyph-name="megaphone2" d="M456 48c-13.248 0-24 10.752-24 24v288c0 13.248 10.752 24 24 24s24-10.752 24-24v-288c0-13.248-10.752-24-24-24zM336 80c0-17.664-14.336-32-32-32h-144c-17.664 0-32 14.336-32 32v63.344l-63.856 14.208v115.664l352.384 77.648v-271.744l-80.528 17.904v-17.024zM320 100.592l-176 39.184v-59.776c0-8.832 7.168-16 16-16h144c8.848 0 16 7.168 16 16v20.592zM32 144c-8.832 0-16 7.168-16 16v112c0 8.848 7.168 16 16 16s16-7.152 16-16v-112c0-8.832-7.168-16-16-16z" />
<glyph unicode="&#xe6ab;" glyph-name="megaphone3" d="M449.2 190.064v-126.336c0-8.832-4.992-15.984-15.968-15.984-2.656 0-9.232 5.664-17.312 14.192v339.104c8.080 8.528 14.656 14.192 17.312 14.192 11.968 0 15.968-7.152 15.968-15.968v-129.536c21.648-0.608 41.808-18.16 41.808-39.824 0-21.68-20.16-39.232-41.808-39.84zM192.24 159.264c0.992 0 0 144.464 0 144.464 109.712 0 174.752 48.16 209.024 81.184v-306.832c-34.272 33.008-99.312 81.184-209.024 81.184zM128.336 32.768l-31.952 126.832h-31.968c0 0-9.504 21.568-13.824 47.936-8.144 0-15.264 0-18.144 0-8.816 0-15.968 7.152-15.968 15.984v15.968c0 8.832 7.152 15.984 15.968 15.984 2.88 0 10 0 18.144 0 4.336 26.368 13.824 47.92 13.824 47.92h111.84v-143.792h-31.952l4.032-15.968h15.952l7.984-31.968h-15.904l19.888-78.896h-47.92z" />
<glyph unicode="&#xe6bd;" glyph-name="notice2" d="M248 424c-114.88 0-208-93.12-208-208s93.12-208 208-208 208 93.12 208 208-93.12 208-208 208zM248 98c-13.264 0-24 10.752-24 24s10.736 24 24 24c13.248 0 24-10.752 24-24s-10.752-24-24-24zM272 202c0-13.248-10.752-24-24-24-13.264 0-24 10.752-24 24v112c0 13.264 10.736 24 24 24 13.248 0 24-10.736 24-24v-112z" />
<glyph unicode="&#xe6be;" glyph-name="warning" d="M488.88 76.496l-200.304 342.976c-16.704 16.704-43.808 16.704-60.512 0l-200.32-342.976c-16.704-16.688-16.704-43.776 0-60.496h461.12c16.736 16.72 16.736 43.808 0.016 60.496zM239.872 296.352c0 13.264 10.752 24 24 24s24-10.736 24-24v-112c0-13.248-10.752-24-24-24s-24 10.752-24 24v112zM264.016 80.224c-13.248 0-24 10.72-24 24 0 13.248 10.752 24 24 24s24-10.752 24-24c0-13.28-10.752-24-24-24z" />
<glyph unicode="&#xe6c0;" glyph-name="pictures3" d="M443.728 165.84l-21.056-78.624-0.592-0.16-23.008-85.872-148.736 39.84-1.776-0.464-156.608 41.952-0.272 1.024-41.68 11.184 7.888 29.456 0.512-0.144 77.264 288.352-0.512 0.144 8.144 30.352 273.68-73.344 0.256 0.896 75.376-20.192-49.152-183.36 0.272-1.040zM454.112 328.032l-288.368 77.264-56.928-212.48 288.336-77.248 56.96 212.464zM195.744 265.728l19.104-32.72 49.712 46.8 25.328-44.256 66.96 59.024 16.752-136.944-221.152 59.296 43.296 48.8zM210.032 297.92c-12.56 3.376-20.032 16.304-16.656 28.864 3.36 12.576 16.288 20.048 28.864 16.672 12.56-3.376 20.032-16.304 16.656-28.864-3.36-12.576-16.288-20.048-28.864-16.672zM346.24 408.336l-6.624-1.776-60.72 16.272 89.568 24 13.856-51.696-35.040 9.392-1.040 3.808zM57.872 331.056l19.872-74.16-16.272-60.704-42.080 157.088 90.688 24.304-9.392-35.040-42.816-11.488zM112.928 4.224l-16.288 60.768 121.552-32.576-105.264-28.192z" />
<glyph unicode="&#xe6c1;" glyph-name="picture" d="M313.136 306.288l-50.304-75.712-36.56 36.848-36.576-59.152-27.424 27.152-29.696-59.424h233.152l-52.592 130.288zM64 400v-368h368v368h-368zM400 144h-304v224h304v-224zM167.856 270.864c13.264 0 24 10.736 24 24s-10.736 24-24 24c-13.248 0-24-10.736-24-24s10.752-24 24-24z" />
<glyph unicode="&#xe6c2;" glyph-name="tag" d="M438.32 222.208l-195.6 194.256h-178.256l-0.416-178.032 193.248-197.264c12.704-12.704 33.136-12.88 45.648-0.368l135.744 135.76c12.496 12.496 12.336 32.944-0.368 45.648zM111.712 335.936c0 17.664 14.336 32 32 32s32-14.336 32-32c0-17.68-14.336-32-32-32s-32 14.32-32 32zM285.808 112.768l-124.448 124.448 11.312 11.312 124.448-124.448-11.312-11.312zM319.744 146.704l-124.448 124.448 11.328 11.312 124.432-124.448-11.312-11.312zM353.68 180.656l-124.432 124.448 11.312 11.312 124.432-124.448-11.312-11.312z" />
<glyph unicode="&#xe6c4;" glyph-name="calendar3" d="M432-16h-352c-17.664 0-32 14.336-32 32v352c0 17.68 14.336 32 32 32h32v-16c0-26.512 21.488-48 48-48 26.496 0 48 21.488 48 48v16h96v-16c0-26.512 21.504-48 48-48s48 21.488 48 48v16h32c17.664 0 32-14.32 32-32v-352c0-17.664-14.336-32-32-32zM432 288h-352v-272h352v272zM160 208h-48v48h48v-48zM160 128h-48v48h48v-48zM160 48h-48v48h48v-48zM240 208h-48v48h48v-48zM240 128h-48v48h48v-48zM240 48h-48v48h48v-48zM320 208h-48v48h48v-48zM320 128h-48v48h48v-48zM320 48h-48v48h48v-48zM400 208h-48v48h48v-48zM400 128h-48v48h48v-48zM400 48h-48v48h48v-48zM351.504 352c-17.408 0-31.504 14.112-31.504 31.504v32.992c0 17.408 14.096 31.504 31.504 31.504s31.504-14.096 31.504-31.504v-32.992c0-17.392-14.096-31.504-31.504-31.504zM159.504 352c-17.408 0-31.504 14.112-31.504 31.504v32.992c0 17.408 14.096 31.504 31.504 31.504s31.504-14.096 31.504-31.504v-32.992c0-17.392-14.112-31.504-31.504-31.504z" />
<glyph unicode="&#xe6c7;" glyph-name="cancel4" d="M313.392 223.984l97.536-97.536c6.336-6.336 6.336-16.624 0-22.96l-34.416-34.416c-6.336-6.336-16.608-6.336-22.96 0l-97.552 97.536-97.552-97.536c-6.336-6.336-16.608-6.336-22.944 0l-34.432 34.416c-6.336 6.336-6.336 16.608 0 22.96l97.552 97.536-97.552 97.552c-6.336 6.336-6.336 16.624 0 22.96l34.448 34.416c6.336 6.336 16.608 6.336 22.944 0l97.536-97.552 97.552 97.552c6.336 6.336 16.608 6.336 22.96 0l34.416-34.432c6.336-6.336 6.336-16.608 0-22.96l-97.536-97.536z" />
<glyph unicode="&#xe6cc;" glyph-name="cup" d="M117.333 469.333c-8.64 5.333-20.693 10.667-32 10.667-47.146 0-85.333-38.507-85.333-86.080 0-68.8 73.28-93.333 117.333-127.253v-16c0-64.533 45.76-118.293 106.667-130.667v-77.333c0-11.733-9.6-21.333-21.333-21.333h-58.667c-14.72 0-26.667-11.947-26.667-26.667s11.947-26.667 26.667-26.667h213.333c14.72 0 26.667 11.947 26.667 26.667s-11.947 26.666-26.667 26.666h-58.666c-11.733 0-21.333 9.6-21.333 21.333v77.333c60.907 12.373 106.667 66.133 106.667 130.667l-0.001 16.001c44.053 33.92 117.333 58.453 117.333 127.253 0 47.573-38.186 86.080-85.333 86.080-11.317 0-23.349-5.333-32-10.667h-266.667zM213.333 394.667v-128c0-11.733-9.6-21.333-21.333-21.333s-21.333 9.6-21.333 21.333v128c0 11.733 9.6 21.333 21.333 21.333s21.333-9.6 21.333-21.333zM53.333 393.92c0 17.813 14.294 32.32 32 32.32s32-14.507 32-32.32v-65.6c-30.72 19.413-64 32.331-64 65.6zM448 393.92c0-33.269-33.28-46.187-64-65.6v65.6c0 17.813 14.293 32.32 32 32.32s32-14.507 32-32.32z" />
<glyph unicode="&#xe6cd;" glyph-name="lab3" d="M181.333 273.387l-173.013-237.334c-5.227-7.146-8.32-15.893-8.32-25.386 0-23.573 19.093-42.667 42.667-42.667h426.667c23.573 0 42.667 19.093 42.667 42.667 0 9.493-3.093 18.24-8.309 25.387l-173.025 237.333v153.28h5.333c14.72 0 26.667 11.946 26.667 26.666s-11.947 26.667-26.667 26.667h-160c-14.72 0-26.667-11.947-26.667-26.667s11.947-26.666 26.667-26.666h5.333v-153.28zM234.667 426.667h42.667v-160l74.667-106.667h-192.001l74.667 106.667v160z" />
<glyph unicode="&#xe6ce;" glyph-name="support2" d="M19.093 127.147c53.547-130.88 202.987-193.504 333.76-140.053 130.88 53.557 193.504 202.976 140.053 333.76-53.557 130.879-202.986 193.493-333.759 140.053-130.88-53.558-193.494-202.987-140.054-333.76zM70.187 148.053l68.48 27.947c13.227-32.427 38.4-56.32 68.267-68.907l-28.587-68.16c-47.36 19.84-87.147 57.803-108.16 109.12zM332.053 38.187l-28.053 68.48c32.427 13.227 56.309 38.4 68.907 68.373l68.16-28.693c-19.84-47.371-57.814-87.147-109.014-108.16zM441.813 300.053l-68.48-28.053c-13.227 32.427-38.4 56.309-68.267 68.907l28.587 68.16c47.371-19.84 87.147-57.814 108.16-109.014zM180.053 409.813l27.947-68.48c-32.427-13.227-56.32-38.4-68.907-68.373l-68.16 28.683c19.84 47.37 57.814 87.157 109.12 108.17zM187.52 196.053c-15.467 37.76 2.667 80.96 40.533 96.427 37.76 15.467 80.971-2.667 96.427-40.427 15.467-37.867-2.667-81.077-40.427-96.533-37.866-15.467-81.066 2.667-96.533 40.533z" />
<glyph unicode="&#xe6d2;" glyph-name="location" d="M224 314.667c0 14.72 11.947 26.667 26.667 26.667s26.667-11.947 26.667-26.667-11.947-26.667-26.667-26.667-26.667 11.947-26.667 26.667zM250.667 384c-38.293 0-69.333-31.040-69.333-69.333s31.040-69.333 69.333-69.333c38.293 0 69.333 31.040 69.333 69.333s-31.040 69.333-69.333 69.333zM85.333 317.653c0-108.8 128.32-192.533 138.667-317.653v-5.333c0-14.72 11.947-26.667 26.667-26.667s26.667 11.947 26.667 26.667l-0.001 5.333c10.976 125.12 138.667 208.853 138.667 317.653 0 89.707-74.016 162.347-165.333 162.347-91.307 0-165.334-72.64-165.334-162.347zM250.667 426.667c61.866 0 112-50.134 112-112s-50.134-112-112-112-112 50.133-112 112 50.133 112 112 112z" />
<glyph unicode="&#xe6e3;" glyph-name="envelope" d="M0 74.667c0-23.573 19.093-42.667 42.667-42.667h426.667c23.573 0 42.667 19.093 42.667 42.667l-0.001 288c0 23.573-19.093 42.667-42.667 42.667l-426.666-0.001c-23.573 0-42.667-19.093-42.667-42.667v-287.999zM157.013 218.347l-97.6 98.24c-8.096 8.107-8.096 21.227 0 29.333 8.117 8.107 21.237 8.107 29.333 0l155.734-155.936c6.293-6.187 16.651-6.187 22.837 0l155.936 155.936c8.107 8.107 21.227 8.107 29.333 0s8.107-21.227 0-29.333l-97.707-98.24 97.707-97.589c8.107-8.107 8.107-21.227 0-29.333s-21.227-8.107-29.333 0l-97.6 97.493c0 0-30.496-31.040-36.043-36.587-8.65-8.438-20.597-13.664-33.61-13.664-13.227 0-25.173 5.333-33.813 13.984-5.653 5.547-35.947 36.256-35.947 36.256l-97.504-97.493c-8.096-8.107-21.216-8.107-29.333 0-8.096 8.107-8.096 21.227 0 29.333l97.61 97.6z" />
<glyph unicode="&#xe6e4;" glyph-name="envelope2" d="M512 256.107c0 14.933-6.187 28.48-16.107 38.187l-202.026 170.026c-20.907 20.907-54.827 20.907-75.733 0l-202.027-170.027c-9.92-9.706-16.107-23.253-16.107-38.186v-245.44c0-23.573 19.093-42.667 42.667-42.667h426.667c23.573 0 42.667 19.093 42.667 42.667l-0.001 245.44zM108.8 298.667h294.4c13.013 0 23.467-10.453 23.467-23.467v-40.533c-0.107-5.12-2.133-10.133-6.080-14.080l-65.707-66.24 97.707-97.589c8.107-8.107 8.107-21.227 0-29.333s-21.227-8.107-29.333 0l-100.587 100.575h-133.547l-100.373-100.587c-8.107-8.107-21.227-8.107-29.333 0-8.107 8.107-8.107 21.227 0 29.333l97.6 97.589-65.6 66.24c-4.267 4.267-6.293 9.813-6.080 15.467l-0.001 39.158c0 13.013 10.454 23.467 23.467 23.467z" />
<glyph unicode="&#xe6e5;" glyph-name="phone" d="M256.832 0.864c43.723-43.84 114.56-43.84 158.283 0 27.211 27.2 37.547 64.853 30.837 100.053 11.52 5.867 21.856 12.693 30.496 19.093 0.96 0.747 5.227 3.733 6.293 4.587 4.811 3.947 7.893 9.92 7.893 16.651 0 6.4-2.773 12.16-7.253 16l-88 72.533c-3.627 2.987-8.309 4.8-13.44 4.8-5.771 0-10.997-2.24-14.837-5.867-1.504-1.493-14.709-15.040-14.709-15.040-9.184-9.173-24-9.173-33.184 0l-89.803 89.92c-9.173 9.173-9.173 24.107 0 33.28l14.613 14.613c3.84 3.84 6.080 9.173 6.080 14.923 0 5.76-2.24 10.891-5.867 14.72l-75.413 91.093c-3.947 4.693-9.92 7.787-16.533 7.787-7.040 0-13.227-3.413-17.173-8.64l-1.28-1.707c-16.427-22.187-37.867-57.387-37.867-90.453 0-91.093 203.104-293.867 293.333-293.867 1.707 0 3.413 0.107 5.024 0.107 1.6-16.747-4.064-34.016-16.853-46.933-22.933-22.923-60.064-22.923-82.997 0l-147.296 151.36c-31.253 31.253-81.813 31.253-113.067 0s-31.253-81.813 0-113.067l48.32-47.68c10.453-10.357 27.307-10.357 37.76 0 10.347 10.443 10.347 27.307 0 37.749l-48.427 47.584c-10.347 10.443-10.347 27.307 0 37.749 10.453 10.357 27.307 10.357 37.76 0l147.307-151.348z" />
<glyph unicode="&#xe6ee;" glyph-name="camera" d="M96 53.333c0-23.573 19.093-42.667 42.667-42.667h330.667c23.573 0 42.667 19.093 42.667 42.667l-0.001 245.334c0 23.573-19.093 42.667-42.667 42.667l-128-0.001c-11.733 0-21.333 9.6-21.333 21.333s9.6 21.333 21.333 21.333h144c14.72 0.001 26.667 11.948 26.667 26.668s-11.947 26.666-26.667 26.666h-176c-19.947 0-37.984-13.547-42.667-32l-21.227-64h-43.627c-14.293 0-26.987-5.653-36.16-14.72l-53.973-54.187c-9.706-9.599-15.679-23.039-15.679-37.759v-32h-42.667v5.333c0 14.72-11.946 26.667-26.666 26.667s-26.667-11.947-26.667-26.667v-138.667c0-14.72 11.947-26.666 26.667-26.666s26.666 11.946 26.666 26.666v5.334h42.667v-21.334zM236.8 170.667h198.4c13.013 0 23.467-10.453 23.467-23.467v-59.733c0-13.013-10.453-23.467-23.467-23.467h-198.4c-13.013 0-23.467 10.453-23.467 23.467v59.733c0 13.013 10.454 23.467 23.467 23.467zM213.333 261.333c0 14.72 11.947 26.667 26.667 26.667s26.667-11.947 26.667-26.667-11.947-26.666-26.667-26.666-26.667 11.946-26.667 26.666z" />
<glyph unicode="&#xe6f5;" glyph-name="cart" d="M266.667 80c0 9.387-1.6 18.347-4.597 26.667h62.411c-2.881-8.32-4.481-17.28-4.481-26.667 0-44.171 35.829-80 80-80 44.16 0 80 35.829 80 80 0 44.16-35.84 80-80 80h-176c-11.733 0-21.333 9.6-21.333 21.333s9.6 21.333 21.333 21.333h183.467c19.307 0 35.936 11.317 43.509 27.733 2.891 6.188 58.144 132.161 58.144 132.161 1.493 3.424 2.88 6.827 2.88 10.773 0 11.733-9.6 21.333-21.333 21.333l-333.024 0.001-8.96 27.627c-4.15 14.826-15.776 25.706-31.35 25.706h-90.666c-14.72 0-26.667-11.947-26.667-26.667s11.947-26.666 26.667-26.666h56c9.493 0 17.493-6.187 20.267-14.613l45.013-230.069c-24.63-13.558-41.28-39.905-41.28-69.985 0-44.171 35.829-80 80-80 44.16 0 80 35.829 80 80zM213.333 80c0-14.72-11.947-26.667-26.667-26.667s-26.666 11.947-26.666 26.667 11.947 26.667 26.667 26.667 26.666-11.947 26.666-26.667zM426.667 80c0-14.72-11.947-26.667-26.667-26.667s-26.667 11.947-26.667 26.667 11.947 26.667 26.667 26.667 26.667-11.947 26.667-26.667z" />
<glyph unicode="&#xe6fa;" glyph-name="user3" d="M379.392 116.531c-63.104 22.989-83.277 42.394-83.277 83.942 0 24.935 19.277 16.793 27.725 62.464 3.507 18.944 20.531 0.307 23.808 43.545 0 17.229-9.293 21.529-9.293 21.529s4.736 25.523 6.579 45.133c2.253 24.474-14.131 87.654-101.734 87.654-87.578 0-104.013-63.181-101.709-87.654 1.843-19.61 6.579-45.133 6.579-45.133s-9.319-4.275-9.319-21.529c3.251-43.238 20.275-24.601 23.782-43.545 8.474-45.671 27.75-37.53 27.75-62.464 0-41.549-20.173-60.954-83.277-83.942-63.334-23.040-104.448-46.567-104.448-62.618 0-16.026 0-53.888 0-53.888h481.28c0 0 0 37.863 0 53.888s-41.139 39.552-104.448 62.618z" />
<glyph unicode="&#xe703;" glyph-name="arrow-up" d="M168.474 168.986c-6.938-6.861-18.125-6.861-25.063 0-6.912 6.861-6.938 17.945 0 24.832l100.045 97.997c6.938 6.861 18.151 6.861 25.063 0l100.045-98.023c6.938-6.887 6.938-17.971 0-24.832s-18.125-6.861-25.063 0l-87.526 80.41-87.501-80.384z" />
<glyph unicode="&#xe707;" glyph-name="lightbulb2" d="M266.666 352c-5.888 0-10.666-4.778-10.666-10.666s4.779-10.667 10.666-10.667c23.104 0 41.899-18.794 41.899-41.899 0-5.888 4.779-10.666 10.666-10.666s10.666 4.779 10.666 10.666c0 34.859-28.373 63.232-63.232 63.232zM266.666 448c-88.234 0-160-71.766-160-160 0-31.702 9.386-62.336 27.178-88.853 0.49-1.002 1.046-1.962 1.707-2.88 38.934-55.594 45.781-73.173 45.781-89.6v-64c0-11.776 9.558-21.334 21.334-21.334h42.666c0-5.546 2.346-11.094 6.186-15.147 4.054-3.84 9.6-6.187 15.146-6.187s11.094 2.346 15.147 6.187c3.84 4.053 6.187 9.6 6.187 15.147h42.666c11.776 0 21.334 9.558 21.334 21.334v64c0 16.683 6.805 34.346 45.483 89.579 19.094 27.2 29.184 58.923 29.184 91.755 0 88.235-71.766 160-160 160zM309.334 64h-85.334v21.334h85.334v-21.334zM362.56 220.736c-31.274-44.651-45.718-70.166-50.88-92.736h-23.68v42.666c0 11.776-9.558 21.334-21.334 21.334s-21.334-9.558-21.334-21.334v-42.666h-23.744c-5.12 21.974-19.157 46.933-49.195 90.026-0.47 0.939-1.024 1.856-1.643 2.752-14.016 19.926-21.418 43.178-21.418 67.221 0 64.704 52.63 117.334 117.334 117.334s117.334-52.629 117.334-117.334c0-24.021-7.402-47.274-21.44-67.264z" />
<glyph unicode="&#xe709;" glyph-name="ae-sidebar-desktop2" d="M495.024 120.432c0-21.904-17.92-39.856-39.824-39.856h-135.44c0-21.168 15.904-39.088 15.904-47.808s-7.216-15.936-15.904-15.936h-127.504c-8.72 0-15.936 7.216-15.936 15.936 0 9.232 15.936 26.16 15.936 47.808h-135.44c-21.904 0-39.84 17.952-39.84 39.856v270.896c0 21.904 17.936 39.84 39.84 39.84h398.384c21.904 0 39.824-17.936 39.824-39.84 0 0 0-270.896 0-270.896zM463.152 391.328c0 4.224-3.728 7.968-7.952 7.968h-398.384c-4.224 0-7.968-3.744-7.968-7.968v-207.136c0-4.224 3.744-7.984 7.968-7.984h398.384c4.224 0 7.952 3.76 7.952 7.984v207.136zM368 384h80v-16h-80v16zM368 352h80v-16h-80v16zM368 320h80v-16h-80v16zM368 288h80v-16h-80v16zM368 256h80v-16h-80v16zM368 224h80v-16h-80v16zM272 384h16v-192h-16v192zM304 384h48v-32h-48v32zM304 320h48v-32h-48v32zM304 256h48v-32h-48v32z" />
<glyph unicode="&#xe70a;" glyph-name="ae-newsfeed-mobile2" d="M399.952 32.064c0-26.256-21.76-47.984-47.984-47.984h-191.936c-26.24 0-47.984 21.728-47.984 47.984v383.872c0 26.24 21.744 47.984 47.984 47.984h191.952c26.224 0 47.984-21.744 47.984-47.984v-383.872h-0.016zM363.952 355.952c0 6.368-5.616 12-11.984 12h-191.936c-6.368 0-12-5.632-12-12v-263.888c0-6.368 5.632-12.016 12-12.016h191.952c6.368 0 11.984 5.648 11.984 12.016v263.888h-0.016zM285.968 415.936h-59.968c-3.376 0-6-2.624-6-6 0-3.36 2.624-5.984 6-5.984h59.968c3.376 0 6 2.624 6 5.984 0.016 3.376-2.608 6-6 6zM255.984 62.064c-16.496 0-29.984-13.52-29.984-30s13.488-30 29.984-30 29.984 13.52 29.984 30-13.488 30-29.984 30zM240 352h112v-16h-112v16zM240 320h112v-16h-112v16zM160 352h64v-64h-64v64zM240 256h112v-16h-112v16zM240 224h112v-16h-112v16zM160 256h64v-64h-64v64zM240 160h112v-16h-112v16zM240 128h112v-16h-112v16zM160 160h64v-64h-64v64z" />
<glyph unicode="&#xe70b;" glyph-name="ae-newsfeed-desktop2" d="M495.264 121.936c0-21.936-17.936-39.92-39.872-39.92h-135.632c0-21.2 15.92-39.136 15.92-47.872s-7.216-15.952-15.92-15.952h-127.68c-8.736 0-15.952 7.216-15.952 15.952 0 9.232 15.952 26.208 15.952 47.872h-135.664c-21.936 0-39.888 17.968-39.888 39.92v271.264c0 21.936 17.952 39.888 39.888 39.888h398.96c21.936 0 39.872-17.952 39.872-39.888v-271.264h0.016zM463.344 393.2c0 4.24-3.728 7.984-7.968 7.984h-398.96c-4.24 0-7.984-3.744-7.984-7.984v-207.44c0-4.24 3.744-8 7.984-8h398.96c4.24 0 7.968 3.76 7.968 8 0 0 0 207.44 0 207.44zM160 384h272v-16h-272v16zM160 352h272v-16h-272v16zM160 320h112v-16h-112v16zM80 384h64v-64h-64v64zM160 272h272v-16h-272v16zM160 240h272v-16h-272v16zM160 208h112v-16h-112v16zM80 272h64v-64h-64v64z" />
<glyph unicode="&#xe711;" glyph-name="credit_card_cvv" d="M480 416h-448c-17.6 0-32-14.4-32-32v-320c0-17.6 14.4-32 32-32h448c17.6 0 32 14.4 32 32v320c0 17.6-14.4 32-32 32zM374.4 283.2c35.2 0 65.6-24 73.6-57.6h-28.8v-38.4h28.8c-8-33.6-38.4-57.6-73.6-57.6-41.6 0-76.8 35.2-76.8 76.8s33.6 76.8 76.8 76.8zM32 368c0 9.6 6.4 16 16 16h416c9.6 0 16-6.4 16-16v-48h-448v48zM464 64h-416c-9.6 0-16 6.4-16 16v144h235.2c-1.6-6.4-1.6-11.2-1.6-17.6 0-59.2 48-108.8 108.8-108.8 51.2 0 94.4 36.8 105.6 84.8v-102.4c0-9.6-6.4-16-16-16zM323.2 227.2h32v-38.4h-32v38.4zM371.2 227.2h32v-38.4h-32v38.4z" />
<glyph unicode="&#xe712;" glyph-name="ae-hear-check2" d="M512 300.8c0 81.6-65.6 147.2-147.2 147.2-43.2 0-81.6-19.2-108.8-48-27.2 30.4-65.6 48-108.8 48-81.6 0-147.2-65.6-147.2-147.2 0-43.2 19.2-81.6 48-108.8v0l160-160c16-16 32-32 48-32s32 16 48 32l160 160c28.8 27.2 48 65.6 48 108.8zM420.8 240l-161.6-163.2c-1.6-1.6-1.6-1.6-3.2-3.2-1.6 1.6-1.6 1.6-3.2 3.2l-161.6 163.2c-17.6 16-27.2 36.8-27.2 60.8 0 46.4 36.8 83.2 83.2 83.2 24 0 44.8-9.6 60.8-27.2l48-52.8 48 52.8c16 17.6 36.8 27.2 60.8 27.2 46.4 0 83.2-36.8 83.2-83.2 0-24-9.6-44.8-27.2-60.8zM356.8 336l-115.2-115.2-54.4 54.4-38.4-38.4 92.8-92.8 153.6 153.6-38.4 38.4z" />
<glyph unicode="&#xe713;" glyph-name="ae-hear-check" d="M512 300.8c0 81.6-65.6 147.2-147.2 147.2-43.2 0-81.6-19.2-108.8-48-27.2 30.4-65.6 48-108.8 48-81.6 0-147.2-65.6-147.2-147.2 0-43.2 19.2-81.6 48-108.8l160-160c16-16 32-32 48-32s32 16 48 32l160 160c28.8 27.2 48 65.6 48 108.8zM235.2 126.4l-108.8 108.8 44.8 44.8 64-64 136 136 44.8-44.8-180.8-180.8z" />
<glyph unicode="&#xe714;" glyph-name="ae-hand-cup" horiz-adv-x="647" d="M406 252.6v-43.133c-10.933 3.534-15.4 5.534-23.334 5.534-9.067 0-17.534-2.6-24.666-7.134-17.4 3.933-37.6 1.8-48.2 1.8h-55.6c1.6 6.4 3.6 8.466 5.8 12.866 5.4 10.466 11.267 22.066 11.267 38.534 0 15.466 0 51.4-45 51.4-3.4 0-6.6-1.4-9.066-3.8-8.667-8.466-11.066-20.866-13.267-32.733-2.4-11.667-4.6-23.667-12.466-31.534-6.2-6.2-13.066-14.867-20.267-24.066-8.867-11.666-28.133-35.534-35.534-36.134-6.6-0.6-12.267-6.2-12.267-12.866v-128.733c0-7 6-12.666 12.867-12.866 7-0.2 19.066-4.4 31.733-8.866 21.666-7.4 48.8-16.866 77.534-16.866h18.666c3.6 0 6.4 0 7.2 0 17.666 0.2 30.933 5.4 39.534 15.666 7.6 9.067 11.067 21.267 9.866 36.334 5 4.8 8.866 11.466 10.866 18.866 2.2 8 2.2 16.067 0 23.466 6 8 9.067 17.466 8.666 27.534 0 2.8-0.8 8.866-3 15.267 2.267 0.4 4.933 0.6 7.8 0.733 8.4-11.733 22.134-19.334 37.6-19.334 7.933 0 23.334 5.534 23.334 5.534 0-33.334 33.933-78.2 79.334-78.2h49.333c45.4 0 85.067 39.534 85.067 84.933v117.8h-213.8zM406 162.866c-5.466-9.733-12.466-16.933-23-16.933-2.134 0-4.2 0.267-6.2 0.8 7.2 3.866 12.267 10.933 12.267 24.267 0 8.466-1.933 15.2-5.134 20.4 9.866-0.6 16.8-7.534 22.067-16.866v-11.666zM508.466 275.4c2.6-2.4 5.933-3.6 9.266-3.6 3.734 0 7.4 1.466 10.067 4.4 5.134 5.6 4.734 14.266-0.8 19.333-21.866 20.134-14.4 39.067-0.466 68.334 11.067 23.2 24.866 52.133 0.866 76.066-5.333 5.334-14 5.334-19.4 0-5.334-5.333-5.334-14 0-19.4 9.333-9.333 5.534-20.333-6.267-44.933-13.067-27.466-31.134-65.334 6.733-100.2zM560.266 275.4c2.6-2.4 5.933-3.6 9.266-3.6 3.734 0 7.4 1.466 10.067 4.4 5.134 5.6 4.734 14.266-0.8 19.333-15.734 14.466-10.4 27.866 0.266 50.334 8.6 18.067 20.466 42.867 0.134 63.2-5.333 5.334-14 5.334-19.4 0-5.333-5.333-5.333-14 0-19.4 5.734-5.733 3.734-12.666-5.466-32-10.067-21.2-25.466-53.4 5.933-82.267zM448.534 275.4c2.6-2.4 5.933-3.6 9.267-3.6 3.733 0 7.4 1.466 10.067 4.4 5.134 5.6 4.733 14.266-0.8 19.333-6.334 5.8-6.134 9.6 1.334 25.267 5.666 11.934 14.334 30-0.933 45.2-5.334 5.334-14 5.334-19.4 0-5.334-5.333-5.334-14 0-19.4 0.4-0.4 0.466-0.6 0.466-0.6 0.534-2-3-9.466-4.933-13.466-6.466-13.534-17.466-36.534 4.933-57.133zM97.666 183.866h-57.867c-7 0-12.867-5.8-12.867-12.866v-128.534c0-7 5.8-12.866 12.867-12.866h57.8c7 0 12.867 5.8 12.867 12.866v128.534c0.067 7.067-5.8 12.866-12.8 12.866zM65.534 55.334c-7.2 0-12.867 5.6-12.867 12.866 0 7 5.6 12.866 12.867 12.866 7 0 12.867-5.8 12.867-12.866 0-7.2-5.867-12.866-12.867-12.866z" />
<glyph unicode="&#xe715;" glyph-name="ae-cup6" horiz-adv-x="647" d="M225.333 244.6v-48.533c-12.333 3.933-17.333 6.2-26.267 6.2-28.733 0-52-23.267-52-52s23.267-52 52-52c8.934 0 13.934 2.267 26.267 6.2 0-41.8 38.133-87.933 89.2-87.933h55.466c51.067 0 95.733 44.466 95.733 95.534v132.534h-240.4zM225.333 143.666c-6.133-10.933-14-19.067-25.867-19.067-14.133 0-26.867 11.466-26.867 25.6s12.267 25.6 26.4 25.6c11.867 0 20.133-8.067 26.267-19.067v-13.067z" />
<glyph unicode="&#xe716;" glyph-name="ae-cup5" horiz-adv-x="647" d="M225.333 244.6v-48.533c-12.333 3.933-17.333 6.2-26.267 6.2-28.733 0-52-23.267-52-52s23.267-52 52-52c8.934 0 13.934 2.267 26.267 6.2 0-41.8 38.133-87.933 89.2-87.933h55.466c51.067 0 95.733 44.466 95.733 95.534v132.534h-240.4zM225.333 143.666c-6.133-10.933-14-19.067-25.867-19.067-14.133 0-26.867 11.466-26.867 25.6s12.267 25.6 26.4 25.6c11.867 0 20.133-8.067 26.267-19.067v-13.067zM340.666 270.267c2.933-2.733 6.666-4.066 10.4-4.066 4.134 0 8.334 1.666 11.334 5 5.733 6.266 5.334 16-0.933 21.8-24.6 22.6-16.267 43.934-0.534 76.867 12.466 26.133 28 58.6 1 85.6-6 6-15.8 6-21.8 0s-6-15.8 0-21.8c10.534-10.534 6.2-22.867-7-50.534-14.8-31.067-35.133-73.666 7.534-112.866zM398.933 270.267c2.933-2.733 6.666-4.066 10.4-4.066 4.134 0 8.334 1.666 11.334 5 5.733 6.266 5.334 16-0.933 21.8-17.666 16.267-11.733 31.334 0.334 56.6 9.733 20.334 23 48.2 0.134 71.067-6 6-15.8 6-21.8 0s-6-15.8 0-21.8c6.4-6.4 4.2-14.2-6.134-36-11.4-23.934-28.666-60.133 6.666-92.6zM273.2 270.267c2.933-2.733 6.666-4.066 10.4-4.066 4.134 0 8.334 1.666 11.334 5 5.733 6.266 5.334 16-0.933 21.8-7.134 6.534-6.933 10.8 1.534 28.466 6.4 13.4 16.067 33.734-1.067 50.867-6 6-15.8 6-21.8 0s-6-15.8 0-21.8c0.466-0.466 0.534-0.667 0.534-0.667 0.6-2.266-3.4-10.6-5.534-15.133-7.267-15.466-19.6-41.334 5.534-64.466z" />
<glyph unicode="&#xe717;" glyph-name="ae-cup4" horiz-adv-x="647" d="M495.334 16.933h-113.267c46 6.134 84.067 47.666 84.067 94.8v132.667h-240.534v-48.533c-12.334 3.933-17.4 6.2-26.334 6.2-28.733 0-52.066-23.334-52.066-52.067s23.333-52.067 52.066-52.067c8.934 0 13.934 2.267 26.334 6.2v0c0-40.466 32.534-81.067 77.666-87.2h-130.534c-3.4 0-5 0.134-3.6-2.933l7.667-13.933c1.4-3.067 5.4-12 8.8-12h296.866c3.4 0 7.334 8.933 8.8 12l7.666 13.933c1.4 3.067-0.2 2.933-3.6 2.933zM225.6 143.4c-6.2-10.933-14-19.067-25.867-19.067-14.133 0-26.867 11.466-26.867 25.666 0 14.134 12.267 25.666 26.466 25.666 11.867 0 20.133-8.134 26.333-19.067v-13.2zM341 270.134c2.933-2.734 6.666-4.067 10.4-4.067 4.134 0 8.334 1.667 11.334 5 5.733 6.267 5.334 16-0.933 21.8-24.6 22.666-16.267 44-0.534 76.933 12.466 26.134 28 58.666 1 85.666-6 6-15.8 6-21.8 0s-6-15.8 0-21.8c10.534-10.534 6.2-22.867-7-50.534-14.8-31.2-35.134-73.8 7.534-113zM399.267 270.134c2.933-2.734 6.666-4.067 10.4-4.067 4.2 0 8.334 1.667 11.334 5 5.733 6.267 5.334 16-0.933 21.8-17.666 16.267-11.733 31.334 0.334 56.666 9.733 20.334 23 48.267 0.134 71.134-6 6-15.8 6-21.8 0s-6-15.8 0-21.8c6.466-6.466 4.2-14.267-6.2-36-11.334-24.067-28.6-60.267 6.733-92.733zM273.466 270.134c2.933-2.734 6.733-4.067 10.4-4.067 4.134 0 8.334 1.667 11.334 5 5.733 6.267 5.334 16-0.933 21.8-7.134 6.534-6.933 10.8 1.534 28.466 6.4 13.466 16.134 33.733-1.067 50.867-6 6-15.8 6-21.8 0s-6-15.8 0-21.8c0.466-0.466 0.534-0.666 0.534-0.666 0.6-2.267-3.4-10.666-5.534-15.133-7.334-15.466-19.666-41.334 5.534-64.466z" />
<glyph unicode="&#xe718;" glyph-name="ae-cup-select" horiz-adv-x="647" d="M173.267 435.067v-89.867c-22.8 7.267-32.066 11.466-48.6 11.466-53.2 0-96.266-43.066-96.266-96.267s43.067-96.2 96.266-96.2c16.534 0 25.8 4.2 48.6 11.466 0-77.4 70.6-162.8 165.133-162.8h102.666c94.533 0 177.2 82.334 177.2 176.866v245.333h-445zM125.4 212.933c-26.133 0-49.733 21.2-49.733 47.4 0 26.134 22.733 47.4 48.867 47.4 21.934 0 37.267-14.934 48.6-35.267v-24.2h0.133c-11.334-20.267-25.934-35.334-47.867-35.334zM360.666 126.933l-112.733 112.733 46.4 46.4 66.267-66.267 140.934 140.867 46.4-46.4-187.267-187.334z" />
<glyph unicode="&#xe801;" glyph-name="gplus" horiz-adv-x="459" d="M24.576 337.664q0 29.696 12.8 52.224t28.672 33.28 35.328 17.408 28.672 7.68 13.312 1.024h117.76v-2.048q0-11.264-39.936-18.432-14.336 0-19.456-3.072 20.48-10.24 27.648-28.672t7.168-49.152q0-52.224-34.816-80.896-19.456-19.456-19.456-27.648 0-9.216 25.6-32.768 53.248-46.080 53.248-91.136 0-71.68-59.392-99.328-34.816-17.408-76.8-17.408h-2.048l-2.048 1.024q-1.024-1.024-2.048-1.024-12.288 0-27.648 2.56t-38.4 10.752-37.888 29.184-14.848 52.736q0 30.72 16.384 51.712t42.496 29.184 45.056 11.264 36.352 3.072h1.024q-8.192 11.264-12.288 24.064t-4.096 19.968l1.024 7.168h-7.168q-32.768 0-56.32 15.36-37.888 22.528-37.888 81.92zM214.016 106.24q-2.048 26.624-22.016 43.008t-52.736 16.384h-8.192q-32.768-1.024-58.368-23.552-23.552-21.504-21.504-48.128t27.136-40.96 60.928-12.288q34.816 2.048 55.808 20.48t18.944 45.056zM183.296 362.24q-15.36 55.296-62.464 55.296-6.144 0-10.24-1.024-20.48-6.144-29.696-31.744-8.192-25.6-1.024-54.272 7.168-26.624 24.064-43.52t36.352-16.896q6.144 0 9.216 1.024 21.504 6.144 32.256 33.28t1.536 57.856zM381.952 273.152h76.8v-48.128h-76.8v-76.8h-48.128v76.8h-76.8v48.128h76.8v76.8h48.128v-76.8z" />
</font>
</defs>
</svg>
