<svg width="256" height="256" viewBox="0 0 256 256" fill="none" xmlns="http://www.w3.org/2000/svg">
<path d="M218.152 39.7377C194.971 19.5476 164.679 8.46119 128.251 8.53356C92.5253 8.60592 60.2404 19.8081 37.3314 40.085C12.8453 61.7658 -0.057154 92.3766 0.000190317 128.603C0.0718708 164.829 13.089 195.397 37.6468 216.991C60.6275 237.181 92.9554 248.281 128.667 248.209C165.095 248.137 195.344 236.935 218.454 216.672C243.083 195.064 256.071 164.438 256 128.14C255.942 91.8266 242.854 61.2738 218.152 39.7377ZM128.007 166.045C107.392 166.045 90.6903 149.169 90.6903 128.371C90.6903 107.573 107.406 90.6977 128.007 90.6977C148.622 90.6977 165.324 107.573 165.324 128.371C165.324 149.169 148.622 166.045 128.007 166.045Z" fill="#2D00FB"/>
</svg>
