<?xml version="1.0" encoding="utf-8"?>
<!-- Generator: Adobe Illustrator 24.0.3, SVG Export Plug-In . SVG Version: 6.00 Build 0)  -->
<svg version="1.1" id="Layer_1" xmlns="http://www.w3.org/2000/svg" xmlns:xlink="http://www.w3.org/1999/xlink" x="0px" y="0px"
	 viewBox="0 0 357 770.2" style="enable-background:new 0 0 357 770.2;" xml:space="preserve">
<style type="text/css">
	.st0{opacity:4.000000e-02;enable-background:new    ;}
	.st1{fill:#11AEA1;}
	.st2{fill:#FFFFFF;}
	.st3{fill:#12E3A3;}
	.st4{fill:#F16848;}
	.st5{fill:#108D81;}
	.st6{fill:#DEE2EA;}
	.st7{fill:#F6F7F7;}
	.st8{fill:#AAA9AA;}
	.st9{opacity:0.2;}
	.st10{fill:#CACAC9;}
	.st11{fill:none;stroke:#11AEA1;stroke-width:3;stroke-linecap:round;stroke-miterlimit:10;}
</style>
<title>Asset 1</title>
<g id="Layer_2_1_">
	<g id="nose">
		<ellipse class="st0" cx="185.1" cy="754.7" rx="171.9" ry="15.5"/>
		<path class="st1" d="M113.7,616.2l10.9,120.1c0,0-29.6,7.8-28.1,14s70.2,0,70.2,0l6.2-134.2L113.7,616.2z"/>
		<path class="st1" d="M263.4,616.2l-10.9,120.1c0,0,29.6,7.8,28.1,14s-70.2,0-70.2,0l-6.2-134.2L263.4,616.2z"/>
		<path class="st2" d="M145.5,672.9h0.2c1.9-0.1,3.6-0.9,4.9-2.3c0.2-0.2,0.1-0.5-0.1-0.6c-0.2-0.1-0.4-0.1-0.6,0
			c-2.3,2.5-6.1,2.6-8.5,0.3c-0.1-0.1-0.2-0.2-0.4-0.4c-0.2-0.2-0.5-0.2-0.6,0c-1.2,1.2-2.7,1.9-4.3,2c-1.6-0.1-3.2-0.8-4.3-2
			c-0.1-0.1-0.2-0.1-0.4-0.1c-0.1,0-0.3,0.1-0.3,0.2c-0.7,0.9-1.7,1.6-2.9,1.8c-1.3,0.2-2.7-0.5-4.2-1.8c-0.2-0.2-0.5-0.2-0.6,0
			c-0.2,0.2-0.2,0.5,0,0.6l0,0c1.7,1.6,3.3,2.3,4.9,2.1c1.2-0.2,2.4-0.8,3.2-1.7c1.2,1.2,2.8,1.9,4.6,1.9c1.7-0.1,3.4-0.8,4.6-2
			C142.1,672.1,143.7,672.8,145.5,672.9z"/>
		<path class="st2" d="M140.7,676.1c0.1,0,0.1,0,0.2,0c1.9-0.1,3.6-0.9,4.9-2.3c0.2-0.2,0.2-0.5,0-0.6c-0.2-0.2-0.5-0.2-0.6,0l0,0
			c-2.3,2.5-6.1,2.6-8.6,0.3c-0.1-0.1-0.2-0.2-0.4-0.4c-0.2-0.2-0.5-0.2-0.6,0c-1.2,1.2-2.7,1.9-4.3,2c-1.6-0.1-3.2-0.8-4.3-2
			c-0.2-0.2-0.5-0.2-0.6,0c-0.2,0.2-0.2,0.4,0,0.6c1.3,1.4,3,2.2,4.9,2.3c1.7-0.1,3.4-0.8,4.6-2C137.3,675.4,139,676.1,140.7,676.1z
			"/>
		<path class="st2" d="M136.6,680h0.2c1.9-0.1,3.6-0.9,4.9-2.3c0.2-0.2,0.2-0.5,0-0.6c-0.2-0.2-0.5-0.2-0.6,0
			c-2.3,2.5-6.1,2.6-8.6,0.3c-0.1-0.1-0.2-0.2-0.4-0.4c-0.2-0.2-0.5-0.2-0.6,0s-0.2,0.5,0,0.6C132.9,679.1,134.7,679.9,136.6,680z"
			/>
		<path class="st3" d="M232.3,165.4c-17.3-14.4-43.7-12.5-43.7-12.5s-26.4-1.9-43.7,12.5c-37.4,31.2-87.4,491.4-87.4,491.4
			l28.1-23.4l26.5,25l28.1-25l21.8,25l26.5-25l26.5,25l21.8-25l28.1,25l26.5-25l28.1,23.4C319.7,656.8,269.7,196.6,232.3,165.4z"/>
		<path class="st1" d="M149.4,318.5c-8.2-34.6-18-75.7-27.1-113.9c-1.6-6.6-11.3-20.7-29.3-16c-16.8,4.4-18.3,24.9-17,33.3
			c11.3,62.2,24,130.2,24,130.2l0,0C124.2,369,156.2,347.1,149.4,318.5z"/>
		<path class="st1" d="M102,231.2c14.7-3.9,19.2-13.9,20.1-21.6c0.3-2.6,0.1-5.1-0.5-7.6c-8.7-36.5-16.7-70.2-22.1-92.6
			c-2.9-11.9-14.8-19.3-26.8-16.5c-1.2,0.3-2.3,0.6-3.4,1.1c-0.3,0.1-0.5,0.2-0.8,0.3c-8.5,3.6-8.5,24.3-9.1,30.4
			c-0.2,1.9-0.1,3.9,0.2,5.8c2.4,15.1,8.3,47.6,14.8,83.2c2.1,12,13.6,20.1,25.6,17.9c0.3-0.1,0.6-0.1,0.9-0.2
			C101.3,231.4,101.6,231.3,102,231.2z"/>
		<path class="st4" d="M48.4,46.7c-6.6-5.4-23.7-20.7-25-20.9s-7,1.6-6.7,8c0,0,23.4,23,25.3,24.2C48.4,62.2,60.4,56.4,48.4,46.7z"
			/>
		<path class="st5" d="M69.8,118.7C86.2,108.3,52,64,49.2,60.8s-14.7-9.2-14.7-9.2c-17.8,0.5-21.1,20.6-21.2,22.1
			s16.4,24.2,23.2,32.6s16.5,10.4,23.7,11.8S69.8,118.7,69.8,118.7z"/>
		<path class="st1" d="M83.3,127.4c13.4-5.3,13.4-22.2,12.8-32.6c-2.1-8.7-3.3-13.7-3.3-13.7c-3.6-4.2-19.1,0.2-26.7,7.4
			c-8.8,8.3-9,19.6-7.6,34c0.1,0.8,0.3,2.1,0.5,3.8C60.5,127.1,70.4,132.5,83.3,127.4z"/>
		<path class="st6" d="M71,95.6L57.2,34.9l0.5-0.1c0.2,0,0.3-0.2,0.3-0.4l-1.2-5.3c0-0.2-0.2-0.3-0.4-0.3c0,0,0,0,0,0L55.8,29
			l-0.5-2.2l0.5-0.1c0.2,0,0.3-0.2,0.3-0.4l-1.3-5.6c0-0.2-0.2-0.3-0.4-0.3l-0.5,0.1L53,16.9l0.5-0.1c0.2,0,0.3-0.2,0.3-0.4
			l-0.7-3.1c0-0.2-0.2-0.3-0.4-0.3l-0.5,0.1l-1.4-6.2c-0.9-4.1-5-6.7-9.1-5.7c0,0,0,0,0,0L5.9,9.4c-4.1,0.9-6.7,5-5.7,9.1
			c0,0,0,0,0,0l3.6,15.3c-0.3,0.1-0.7,1.2-0.7,1.4l2,8.7c0,0.2,0.2,0.3,0.4,0.3l0.5-0.1l14.4,63c0.9,4.1,5,6.7,9.1,5.7c0,0,0,0,0,0
			l35.7-8.2C69.4,103.8,72,99.7,71,95.6z"/>
		<path class="st7" d="M71.6,94.6L57.7,33.9l0.5-0.1c0.2,0,0.3-0.2,0.3-0.4l-1.2-5.3c0-0.2-0.2-0.3-0.4-0.3L56.4,28l-0.5-2.2
			l0.5-0.1c0.2,0,0.3-0.2,0.3-0.4l-1.3-5.6c0-0.2-0.2-0.3-0.4-0.3c0,0,0,0,0,0l-0.5,0.1l-0.8-3.6l0.5-0.1c0.2,0,0.3-0.2,0.3-0.4
			c0,0,0,0,0,0l-0.7-3.1c0-0.2-0.2-0.3-0.4-0.3l-0.5,0.1l-1.4-6.2c-0.9-4.1-5-6.7-9.1-5.7L6.5,8.4c-4.1,0.9-6.7,5-5.7,9.1
			c0,0,0,0,0,0l3.7,16.2l-0.5,0.1c-0.2,0-0.3,0.2-0.3,0.4l2,8.7c0,0.2,0.2,0.3,0.4,0.3l0.5-0.1l14.4,63c0.9,4.1,5,6.7,9.1,5.7
			c0,0,0,0,0,0l35.7-8.2C70,102.8,72.5,98.7,71.6,94.6z"/>
		<path class="st8" d="M68.6,91.2l-19.2-84c-0.7-3.1-3.8-5-6.8-4.3l-4,0.9c-0.5,0.1-0.7,0.6-0.6,1c0,0,0,0,0,0
			c0.4,1.6-0.7,3.3-2.3,3.6L16,12.9c-1.6,0.4-3.3-0.6-3.6-2.3c-0.1-0.5-0.6-0.7-1-0.6l-4,0.9c-3.1,0.7-5,3.8-4.3,6.8l19.2,84
			c0.7,3.1,3.8,5,6.8,4.3L64.3,98C67.4,97.3,69.3,94.3,68.6,91.2C68.6,91.2,68.6,91.2,68.6,91.2z"/>
		<g class="st9">
			<path class="st7" d="M68.6,91.2l-19.2-84c-0.7-3.1-3.8-5-6.8-4.3l-4,0.9c-0.5,0.1-0.7,0.6-0.6,1c0,0,0,0,0,0
				c0.4,1.6-0.6,3.3-2.3,3.6c0,0,0,0,0,0l-18.9,4.1L64.3,98C67.4,97.3,69.3,94.3,68.6,91.2C68.6,91.2,68.6,91.2,68.6,91.2z"/>
		</g>
		
			<rect x="35.2" y="104.3" transform="matrix(0.9748 -0.223 0.223 0.9748 -22.1534 13.1843)" class="st10" width="24.2" height="0.9"/>
		<path class="st1" d="M70.9,90.9c0,0,18.4,12.4,23,8.1c2.8-2.6,5.8-30.3-0.9-42.4S67.5,33.1,50.4,42.8S51.1,63.3,64.8,64L70.9,90.9
			z"/>
		<path class="st2" d="M44.1,50.1c0,0-3.1,1.1-3.1,2s3.1,1.3,3.7,1.1S44.4,50.4,44.1,50.1z"/>
		<path class="st1" d="M7.4,51.6c0,0,12.3,1.8,12.4-8.8S6.4,30.1,3.3,33.5S-3.2,46.8,7.4,51.6z"/>
		<path class="st2" d="M19.2,40.6c0,0,2.3,0.6,2.5,1.2s-2.1,1.2-2.5,1S18.8,40.4,19.2,40.6z"/>
		<path class="st1" d="M10.9,71c0,0,12.3,1.8,12.4-8.8S9.9,49.6,6.9,53S0.3,66.2,10.9,71z"/>
		<path class="st2" d="M22.7,60c0,0,2.3,0.6,2.5,1.2s-2.1,1.2-2.5,1S22.4,59.8,22.7,60z"/>
		<path class="st1" d="M18.5,89.6c0,0,12.1-2.7,8.5-12.6S10,69.9,8.3,74.2S6.9,88.9,18.5,89.6z"/>
		<path class="st2" d="M25.7,75.2c0,0,2.4-0.3,2.7,0.2s-1.6,1.9-2,1.8S25.2,75.1,25.7,75.2z"/>
		<path class="st2" d="M65.1,113.9c2,1.1,3.8,1.3,5.3,0.7c1.1-0.5,2.1-1.4,2.6-2.5c1.5,0.9,3.3,1.1,4.9,0.6c1.6-0.6,3-1.7,3.9-3.1
			c1.6,0.8,3.4,1.1,5.1,0.6c0.1,0,0.1,0,0.2-0.1c1.8-0.6,3.2-1.9,4.2-3.5c0.1-0.2,0-0.5-0.2-0.6s-0.5,0-0.6,0.2
			c-1.5,3-5.2,4.1-8.1,2.6c-0.2-0.1-0.3-0.2-0.4-0.3c-0.2-0.1-0.5,0-0.6,0.2c-0.8,1.4-2.1,2.5-3.6,3.1c-1.6,0.4-3.3,0.1-4.6-0.8
			c-0.1-0.1-0.3-0.1-0.4,0c-0.1,0-0.2,0.1-0.3,0.3c-0.4,1.1-1.2,2-2.3,2.5c-1.2,0.5-2.8,0.3-4.6-0.7c-0.2-0.1-0.5,0-0.6,0.2
			C64.8,113.5,64.9,113.7,65.1,113.9L65.1,113.9z"/>
		<path class="st2" d="M68.9,116.2c1.6,1,3.5,1.3,5.3,0.9c1.6-0.6,3-1.7,3.9-3.1c1.6,0.8,3.4,1.1,5.1,0.6c0.1,0,0.1,0,0.2-0.1
			c1.8-0.6,3.2-1.9,4.2-3.5c0.1-0.2,0-0.5-0.2-0.6c-0.2-0.1-0.5,0-0.6,0.2l0,0c-1.5,3-5.2,4.1-8.1,2.6c-0.2-0.1-0.3-0.2-0.4-0.3
			c-0.2-0.1-0.5,0-0.6,0.2c-0.8,1.4-2.1,2.5-3.6,3.1c-1.6,0.4-3.3,0.1-4.6-0.8c-0.2-0.1-0.5-0.1-0.6,0.2
			C68.6,115.8,68.6,116.1,68.9,116.2C68.9,116.2,68.9,116.2,68.9,116.2L68.9,116.2z"/>
		<path class="st2" d="M74.8,118.6c1.6,1,3.6,1.3,5.4,0.8l0.2-0.1c1.8-0.6,3.2-1.9,4.2-3.5c0.1-0.2,0-0.5-0.2-0.6
			c-0.2-0.1-0.5,0-0.6,0.2l0,0c-1.5,3-5.2,4.1-8.2,2.6c-0.1-0.1-0.3-0.2-0.4-0.3c-0.2-0.1-0.5,0-0.6,0.2S74.6,118.5,74.8,118.6
			L74.8,118.6z"/>
		<path class="st2" d="M75.6,56.5c1.8-0.4,3.3-1.5,4.3-3c0.9-1.6,1.2-3.5,0.9-5.4c-0.1-0.2-0.3-0.4-0.5-0.3
			c-0.2,0.1-0.4,0.3-0.3,0.5c0.8,3.2-1.2,6.5-4.4,7.3c-0.2,0-0.3,0.1-0.5,0.1c-0.2,0.1-0.4,0.3-0.3,0.5c0.1,0.2,0.3,0.4,0.5,0.3
			C75.3,56.6,75.4,56.5,75.6,56.5z"/>
		<path class="st1" d="M57.1,118.6c0,0,0.1-0.1,0.1-0.1C57.4,118.1,57.3,118.2,57.1,118.6z"/>
		<path class="st1" d="M60.2,121.7c-0.3-2.4-0.7-8.9-2.3-8.6c0,0-1.8,5.1-3.5,6.8c-1.6,1.7,1.7,0.2,2.6-1.2c0.2-0.4,0.3-0.5,0.1-0.1
			c0,0-0.1,0.1-0.1,0.1c-0.6,1.1-2.4,4.4-2,5.7c0.5,1.7,1-2.1,2.8-3.3c0.3,1.6,0.4,3.3,0.1,4.9C57.5,127.7,60.5,124.1,60.2,121.7z"
			/>
		<path class="st1" d="M215.1,191.9c7.2-3.1,64,4.7,65.5,10.9s-51.5,32.8-60.8,34.3S193.3,201.2,215.1,191.9z"/>
	</g>
	<ellipse class="st11" cx="234" cy="265.8" rx="8.4" ry="12.2"/>
</g>
</svg>
