<?xml version="1.0" encoding="utf-8"?>
<!-- Generator: Adobe Illustrator 23.0.4, SVG Export Plug-In . SVG Version: 6.00 Build 0)  -->
<svg version="1.1" id="Layer_1" xmlns="http://www.w3.org/2000/svg" xmlns:xlink="http://www.w3.org/1999/xlink" x="0px" y="0px"
	 viewBox="0 0 108 36" style="enable-background:new 0 0 108 36;" xml:space="preserve">
<style type="text/css">
	.st0{fill:#0098D1;}
	.st1{fill:none;}
</style>
<title>Asset 3A</title>
<g>
	<g id="Arrows">
		<path class="st0" d="M31.3,36c-1,0-2-0.4-2.7-1.2L1.1,6.4C-0.4,4.9-0.3,2.5,1.2,1l0,0c0.7-0.6,1.6-1,2.7-1c1,0,2,0.4,2.7,1.2
			l24.7,25.6L56,1.2c1.5-1.5,3.9-1.5,5.4-0.1c0.7,0.7,1.1,1.7,1.2,2.7c0,1-0.4,2-1.1,2.7L34,34.8C33.3,35.6,32.3,36,31.3,36z"/>
		<rect class="st1" width="108" height="36"/>
	</g>
</g>
</svg>
