<?xml version="1.0" encoding="UTF-8" standalone="no"?>
<svg width="21px" height="21px" viewBox="0 0 21 21" version="1.1" xmlns="http://www.w3.org/2000/svg" xmlns:xlink="http://www.w3.org/1999/xlink" xmlns:sketch="http://www.bohemiancoding.com/sketch/ns">
    <!-- Generator: Sketch 3.4.4 (17248) - http://www.bohemiancoding.com/sketch -->
    <title>Oval 1 + Shape</title>
    <desc>Created with Sketch.</desc>
    <defs></defs>
    <g id="Page-1" stroke="none" stroke-width="1" fill="none" fill-rule="evenodd" sketch:type="MSPage">
        <g id="Oval-1-+-Shape" sketch:type="MSLayerGroup" transform="translate(1.000000, 1.000000)">
            <circle id="Oval-1" stroke="#0683AA" stroke-width="1.5" sketch:type="MSShapeGroup" cx="9.5" cy="9.5" r="9.5"></circle>
            <path d="M14.1425289,10.8662396 C14.1425289,10.8662396 11.111788,13.8969805 10.302817,14.7059515 C10.1942993,14.8144683 10.0183579,14.8144683 9.90983982,14.7059515 C9.64840012,14.4445118 9.18883234,13.984944 8.92739264,13.7235043 C8.81887577,13.6149866 8.81887577,13.4390452 8.92739269,13.3305271 L11.3916802,10.8662396 L4.27787615,10.8662396 C4.12440994,10.8662385 4.00000139,10.7418295 4,10.5883634 C4,10.2186321 4,9.56870429 4,9.19897571 C4.00000062,9.0455095 4.12440925,8.92110095 4.27787615,8.92109956 L11.3916802,8.92109956 L8.92739269,6.45681203 C8.81887582,6.34829432 8.81887582,6.17235295 8.92739266,6.06383482 C9.18883236,5.80239513 9.64840013,5.34282735 9.90983983,5.08138765 C10.0183575,4.97287077 10.1942989,4.97287077 10.302817,5.0813877 L14.0035902,8.78216084 C14.0035902,8.78216084 14.5993888,9.37772605 14.9185728,9.69678366 C15.0271121,9.80528011 15.0271468,9.98122189 14.9186504,10.0897622 L14.1425287,10.8661882 L14.1425287,10.8662428 L14.1425289,10.8662396 Z" id="Shape" fill="#0683AA" sketch:type="MSShapeGroup"></path>
        </g>
    </g>
</svg>