<svg xmlns="http://www.w3.org/2000/svg" viewBox="0 0 600 600"><defs><style>.cls-1{opacity:0.05;}</style></defs><title>Asset 3</title><g id="Layer_2" data-name="Layer 2"><g id="Layer_1-2" data-name="Layer 1"><g class="cls-1"><path d="M327.341,289.2l-.046.053a2.976,2.976,0,0,0-.758,2.322q.739,10.4,1.477,20.79c.3,4.161,6.758,3.7,6.464-.458q-.627-8.783-1.255-17.561,8.782-.622,17.561-1.246c4.161-.3,3.7-6.753-.464-6.463q-10.391.745-20.785,1.482A2.992,2.992,0,0,0,327.341,289.2Z"/><path d="M273.555,267.356q8.565,2.019,17.134,4.033-2.025,8.565-4.043,17.136c-.956,4.062,5.346,5.544,6.309,1.484q2.382-10.137,4.781-20.283a2.989,2.989,0,0,0-.381-2.416l-.036-.056a2.954,2.954,0,0,0-1.994-1.419q-10.144-2.4-20.283-4.788C270.977,260.091,269.49,266.388,273.555,267.356Z"/><path d="M417.881,168.4c-3.727-1.892-6.657,3.886-2.94,5.773q9.293,4.722,18.58,9.442a3,3,0,0,0,2.442.2l.063-.019a2.969,2.969,0,0,0,1.848-1.6q4.725-9.29,9.447-18.575c1.89-3.721-3.886-6.656-5.778-2.935q-3.986,7.842-7.974,15.688Q425.727,172.381,417.881,168.4Z"/><path d="M308.445,186.289q-7.768,6.938-15.553,13.876a2.978,2.978,0,0,0-1.071,2.194l-.005.067a2.976,2.976,0,0,0,.818,2.308q6.933,7.776,13.871,15.552c2.778,3.116,7.612-1.2,4.837-4.315q-5.865-6.567-11.721-13.13,6.572-5.858,13.135-11.72C315.874,188.345,311.559,183.509,308.445,186.289Z"/><path d="M351.643,206.351q8.747,1.02,17.486,2.037-1.028,8.746-2.046,17.488c-.486,4.147,5.949,4.9,6.436.753q1.2-10.347,2.414-20.7a2.966,2.966,0,0,0-.652-2.356l-.043-.053a3,3,0,0,0-2.144-1.18q-10.35-1.214-20.7-2.421C348.249,199.433,347.5,205.863,351.643,206.351Z"/><path d="M374.021,185.961q1.426-8.69,2.858-17.368,8.682,1.427,17.363,2.86c4.125.669,5.175-5.72,1.057-6.4q-10.281-1.687-20.568-3.379a2.987,2.987,0,0,0-2.385.545l-.053.044a2.954,2.954,0,0,0-1.281,2.08q-1.69,10.289-3.384,20.566C366.95,189.031,373.341,190.078,374.021,185.961Z"/><path d="M409.312,75.715a2.988,2.988,0,0,0-1.371-2.028Q399.268,67.9,390.6,62.126c-3.471-2.312-7.065,3.073-3.6,5.39l14.65,9.763q-4.887,7.323-9.77,14.645c-2.312,3.475,3.078,7.067,5.392,3.6q5.778-8.675,11.561-17.339a2.988,2.988,0,0,0,.485-2.4Z"/><path d="M379.293,106.584l-.068-.01a2.983,2.983,0,0,0-2.353.671q-8.19,6.448-16.388,12.874c-3.28,2.583.719,7.68,4,5.1q6.923-5.44,13.839-10.878,5.438,6.915,10.876,13.844c2.578,3.28,7.67-.724,5.092-4.006q-6.436-8.19-12.874-16.386A3,3,0,0,0,379.293,106.584Z"/><path d="M362.649,509.387a2.987,2.987,0,0,0,2.206,1.062l.067,0a2.984,2.984,0,0,0,2.3-.83q7.747-6.972,15.485-13.945c3.1-2.8-1.233-7.61-4.337-4.818q-6.541,5.893-13.074,11.783-5.89-6.538-11.783-13.081c-2.8-3.094-7.608,1.24-4.815,4.344Q355.68,501.638,362.649,509.387Z"/><path d="M304.941,464.422q9.992-2.946,19.989-5.887a2.993,2.993,0,0,0,1.914-1.523l.031-.062a2.988,2.988,0,0,0,.249-2.433q-2.945-10-5.877-19.994c-1.183-4-7.4-2.177-6.22,1.829q2.487,8.451,4.97,16.886-8.444,2.477-16.886,4.967C299.105,459.383,300.934,465.6,304.941,464.422Z"/><path d="M303.6,318.812a2.965,2.965,0,0,0,2.4-.5l.05-.039a2.966,2.966,0,0,0,1.316-2.066q1.86-10.25,3.724-20.506c.738-4.1-5.631-5.261-6.382-1.153q-1.563,8.667-3.135,17.319-8.656-1.57-17.317-3.142c-4.111-.739-5.267,5.628-1.159,6.376Q293.339,316.954,303.6,318.812Z"/><path d="M348.013,444.708a2.963,2.963,0,0,0,2.245-.96q7.32-7.426,14.64-14.834c2.928-2.974-1.68-7.521-4.617-4.557q-6.18,6.27-12.36,12.536-6.262-6.183-12.531-12.362c-2.971-2.925-7.521,1.68-4.552,4.615q7.429,7.313,14.844,14.631a2.95,2.95,0,0,0,2.258.931Z"/><path d="M241.7,312.793a3,3,0,0,0,1.931,1.506l.063.019a2.982,2.982,0,0,0,2.423-.323q9.043-5.184,18.087-10.359c3.62-2.083.4-7.7-3.225-5.628q-7.638,4.38-15.268,8.756-4.373-7.632-8.754-15.273c-2.075-3.62-7.692-.4-5.621,3.22Q236.517,303.755,241.7,312.793Z"/><path d="M240.972,238.094q10.165,2.3,20.334,4.583a3.011,3.011,0,0,0,2.414-.4l.055-.039a2.975,2.975,0,0,0,1.4-2q2.287-10.173,4.583-20.329c.915-4.075-5.4-5.5-6.323-1.429q-1.933,8.591-3.864,17.172-8.588-1.939-17.17-3.871C238.327,230.86,236.9,237.177,240.972,238.094Z"/><path d="M233.743,173.966q-.289,8.8-.574,17.594-8.8-.3-17.6-.581c-4.166-.138-4.383,6.335-.208,6.475q10.405.341,20.829.681a3.008,3.008,0,0,0,2.293-.845l.048-.053a2.961,2.961,0,0,0,1-2.23q.34-10.413.686-20.829C240.354,170.007,233.883,169.8,233.743,173.966Z"/><path d="M281.245,185.671q-10.329-1.353-20.665-2.713a2.981,2.981,0,0,0-2.366.618l-.053.044a2.969,2.969,0,0,0-1.214,2.124q-1.358,10.329-2.72,20.662c-.541,4.139,5.88,4.984,6.427.843q1.149-8.726,2.289-17.455,8.727,1.158,17.454,2.3C284.537,192.637,285.381,186.217,281.245,185.671Z"/><path d="M250.086,254.279q-4.175,9.54-8.359,19.091a2.974,2.974,0,0,0-.062,2.447l.026.063a2.958,2.958,0,0,0,1.7,1.752q9.543,4.186,19.084,8.366c3.826,1.675,6.422-4.26,2.6-5.938q-8.07-3.533-16.125-7.057,3.54-8.065,7.067-16.122C257.693,253.053,251.76,250.456,250.086,254.279Z"/><path d="M332.839,252.271q-.9,8.757-1.793,17.513-8.754-.906-17.513-1.8c-4.151-.42-4.808,6.019-.661,6.444q10.365,1.065,20.732,2.124a3,3,0,0,0,2.351-.685l.048-.044a2.956,2.956,0,0,0,1.154-2.162q1.064-10.362,2.129-20.73C339.71,248.776,333.266,248.119,332.839,252.271Z"/><path d="M405.892,351.8q7.553-4.522,15.1-9.051,4.518,7.555,9.046,15.1c2.148,3.582,7.7.251,5.559-3.33q-5.358-8.928-10.717-17.875a2.99,2.99,0,0,0-1.957-1.468l-.063-.014a2.963,2.963,0,0,0-2.42.372q-8.94,5.358-17.878,10.711C398.98,348.393,402.308,353.944,405.892,351.8Z"/><path d="M424.484,387.5a2.986,2.986,0,0,0,2.211,1.048h.067a2.965,2.965,0,0,0,2.3-.845q7.692-7.023,15.386-14.052c3.082-2.819-1.282-7.6-4.369-4.783q-6.5,5.944-12.994,11.87-5.937-6.5-11.87-13c-2.816-3.08-7.6,1.284-4.786,4.373Q417.46,379.8,424.484,387.5Z"/><path d="M441.939,415.258a3.01,3.01,0,0,0,1.424,1.994l.058.033a2.984,2.984,0,0,0,2.418.382q10.142-2.412,20.284-4.8c4.059-.966,2.563-7.265-1.5-6.307q-8.572,2.035-17.131,4.057-2.02-8.565-4.05-17.129c-.966-4.057-7.267-2.568-6.309,1.494Q439.544,405.113,441.939,415.258Z"/><path d="M479.9,404.238c.572,4.137,6.987,3.256,6.422-.879q-1.422-10.324-2.838-20.645a2.987,2.987,0,0,0-1.224-2.124l-.055-.039a2.974,2.974,0,0,0-2.37-.608q-10.326,1.419-20.646,2.831c-4.134.574-3.258,6.982.879,6.418q8.724-1.188,17.442-2.395Q478.695,395.522,479.9,404.238Z"/><path d="M477.061,363.1q-8.572-1.983-17.146-3.96,1.984-8.577,3.97-17.149c.939-4.069-5.37-5.527-6.316-1.462q-2.339,10.148-4.694,20.3a2.974,2.974,0,0,0,.391,2.413l.036.058a2.962,2.962,0,0,0,2,1.414q10.152,2.346,20.3,4.7C479.672,370.356,481.128,364.047,477.061,363.1Z"/><path d="M333.976,407.882a3.01,3.01,0,0,0,2.177,1.125q10.383.923,20.756,1.858c4.161.372,4.736-6.077.577-6.451q-8.772-.786-17.532-1.569.789-8.764,1.574-17.534c.369-4.156-6.08-4.736-6.452-.58q-.927,10.383-1.858,20.759a2.974,2.974,0,0,0,.719,2.339Z"/><path d="M343.505,330.909q10.383-.858,20.77-1.713a2.953,2.953,0,0,0,2.177-1.108l.049-.051a2.98,2.98,0,0,0,.733-2.331q-.853-10.391-1.708-20.771c-.348-4.161-6.8-3.63-6.461.53q.723,8.776,1.45,17.545-8.775.713-17.541,1.445C338.812,324.8,339.346,331.252,343.505,330.909Z"/><path d="M375.964,395.477l.07-.01a2.985,2.985,0,0,0,2.141-1.183q6.52-8.131,13.05-16.243c2.612-3.263-2.435-7.313-5.054-4.06q-5.51,6.858-11.02,13.719l-13.719-11.025c-3.258-2.612-7.313,2.438-4.062,5.054q8.128,6.523,16.251,13.05A2.982,2.982,0,0,0,375.964,395.477Z"/><path d="M438.574,143.014q10.421-.008,20.844-.005a2.994,2.994,0,0,0,2.264-.926l.043-.049a2.963,2.963,0,0,0,.927-2.269V118.929c0-4.175-6.48-4.175-6.48,0q0,8.8.007,17.6-8.808-.007-17.6,0C434.4,136.539,434.4,143.014,438.574,143.014Z"/><path d="M485.175,325.932l.068-.009a2.969,2.969,0,0,0,2.1-1.246q6.291-8.312,12.579-16.615c2.517-3.33-2.645-7.24-5.165-3.914q-5.311,7.023-10.624,14.037-7.01-5.315-14.033-10.624c-3.33-2.515-7.24,2.65-3.91,5.169q8.308,6.285,16.618,12.575A2.978,2.978,0,0,0,485.175,325.932Z"/><path d="M505.579,123.942q-8.174,3.273-16.339,6.546-3.273-8.167-6.541-16.34c-1.559-3.876-7.569-1.465-6.02,2.409q3.878,9.669,7.755,19.347a2.975,2.975,0,0,0,1.7,1.757l.063.029a2.992,2.992,0,0,0,2.447.014q9.673-3.873,19.347-7.747C511.862,128.4,509.455,122.388,505.579,123.942Z"/><path d="M468.831,91.142q-10.13-2.4-20.274-4.822a3.021,3.021,0,0,0-2.419.374l-.058.038a2.985,2.985,0,0,0-1.424,1.987Q442.246,98.864,439.834,109c-.965,4.06,5.332,5.557,6.3,1.5q2.041-8.574,4.074-17.129,8.557,2.046,17.126,4.074C471.394,98.417,472.9,92.112,468.831,91.142Z"/><path d="M464.7,159.962q8.62-1.81,17.224-3.62,1.8,8.624,3.61,17.233c.859,4.083,7.2,2.756,6.348-1.333q-2.143-10.194-4.282-20.394a2.987,2.987,0,0,0-1.366-2.028l-.058-.038a2.991,2.991,0,0,0-2.408-.44q-10.2,2.143-20.4,4.273C459.287,154.474,460.615,160.817,464.7,159.962Z"/><path d="M522.449,207.929c.464,4.151,6.9,3.432,6.444-.714q-1.158-10.355-2.307-20.713a2.984,2.984,0,0,0-1.168-2.148l-.053-.044a3,3,0,0,0-2.351-.671q-10.365,1.158-20.718,2.3c-4.149.463-3.43,6.9.717,6.439q8.75-.97,17.5-1.945Q521.478,199.183,522.449,207.929Z"/><path d="M517.322,289.309l.043-.048a2.982,2.982,0,0,0,.691-2.348Q517,276.54,515.951,266.175c-.425-4.153-6.867-3.492-6.446.659q.894,8.762,1.781,17.511-8.758.886-17.515,1.774c-4.152.424-3.5,6.873.658,6.453q10.365-1.063,20.73-2.109A2.986,2.986,0,0,0,517.322,289.309Z"/><path d="M501.187,209.343q-5.235,7.082-10.47,14.153-7.074-5.235-14.148-10.47c-3.36-2.481-7.207,2.728-3.857,5.214q8.38,6.188,16.757,12.391a3,3,0,0,0,2.368.6l.069-.009a2.992,2.992,0,0,0,2.088-1.27q6.205-8.378,12.4-16.755C508.876,209.845,503.668,205.993,501.187,209.343Z"/><path d="M394.7,330.118q4.706-7.445,9.4-14.882,7.443,4.706,14.882,9.4c3.529,2.228,6.987-3.249,3.461-5.481q-8.812-5.558-17.621-11.124a2.976,2.976,0,0,0-2.407-.43l-.067.014a2.971,2.971,0,0,0-1.989,1.42q-5.575,8.818-11.136,17.619C387,330.185,392.468,333.646,394.7,330.118Z"/><path d="M522.069,137.477q8.391-2.664,16.779-5.324,2.657,8.385,5.324,16.777c1.265,3.975,7.439,2.015,6.176-1.963q-3.156-9.926-6.311-19.863a2.97,2.97,0,0,0-1.564-1.878l-.06-.029a2.977,2.977,0,0,0-2.44-.2q-9.931,3.15-19.864,6.3C516.131,132.568,518.091,138.742,522.069,137.477Z"/><path d="M444.027,53.684q-5.058,7.207-10.1,14.416-7.2-5.058-14.414-10.106c-3.422-2.394-7.139,2.911-3.722,5.305q8.538,5.98,17.069,11.962a3.011,3.011,0,0,0,2.387.543l.065-.012a2.988,2.988,0,0,0,2.057-1.323q5.986-8.536,11.966-17.068C451.723,53.983,446.423,50.266,444.027,53.684Z"/><path d="M353.627,85.074l.024.063a2.98,2.98,0,0,0,1.636,1.82q9.378,4.539,18.754,9.087c3.755,1.817,6.581-4.009,2.824-5.834q-7.922-3.837-15.843-7.675,3.844-7.914,7.68-15.837c1.815-3.756-4.009-6.58-5.836-2.829q-4.536,9.384-9.085,18.763A3,3,0,0,0,353.627,85.074Z"/><path d="M364.924,27.118q8.044,3.578,16.086,7.15-3.584,8.035-7.156,16.083c-1.694,3.816,4.229,6.445,5.923,2.631q4.228-9.522,8.467-19.043a2.989,2.989,0,0,0,.072-2.447l-.024-.058a2.984,2.984,0,0,0-1.694-1.772q-9.522-4.228-19.041-8.466C363.741,19.506,361.111,25.419,364.924,27.118Z"/><path d="M380.2,13.624,377.335,0h-6.614q1.567,7.478,3.134,14.956C374.714,19.035,381.05,17.708,380.2,13.624Z"/><path d="M506.8,148.211c-1.917-3.705-7.671-.732-5.754,2.98q4.793,9.246,9.577,18.507a2.989,2.989,0,0,0,1.863,1.588l.065.022a2.974,2.974,0,0,0,2.435-.224q9.261-4.786,18.512-9.568c3.708-1.926.734-7.68-2.978-5.763q-7.819,4.052-15.63,8.1Q510.85,156.024,506.8,148.211Z"/><path d="M509.1,86.981a2.966,2.966,0,0,0-1.356-2.039l-.053-.039a2.979,2.979,0,0,0-2.4-.458q-10.219,2.052-20.435,4.1c-4.091.826-2.815,7.173,1.274,6.353q8.639-1.731,17.262-3.461,1.727,8.623,3.461,17.254c.825,4.091,7.173,2.817,6.354-1.277Q511.156,97.2,509.1,86.981Z"/><path d="M499.686,64.8q-8.551-5.941-17.113-11.9a3.021,3.021,0,0,0-2.384-.536l-.068.017a2.96,2.96,0,0,0-2.051,1.33q-5.952,8.557-11.9,17.107c-2.38,3.432,2.94,7.127,5.319,3.7q5.032-7.226,10.051-14.452,7.226,5.032,14.452,10.055C499.415,72.505,503.113,67.185,499.686,64.8Z"/><path d="M432.344,28.864q-9.492-4.287-19-8.578a3,3,0,0,0-2.444-.092l-.061.024a2.973,2.973,0,0,0-1.776,1.685q-4.29,9.492-8.583,18.99c-1.721,3.8,4.181,6.473,5.906,2.669q3.624-8.029,7.243-16.045,8.016,3.635,16.043,7.25C433.483,36.486,436.148,30.582,432.344,28.864Z"/><path d="M172.485,199.578q10.25,1.875,20.5,3.77a2.976,2.976,0,0,0,2.394-.5l.058-.039a3,3,0,0,0,1.32-2.061q1.887-10.253,3.775-20.5c.755-4.1-5.614-5.276-6.374-1.173q-1.593,8.667-3.184,17.315-8.656-1.593-17.312-3.191C169.555,192.453,168.382,198.82,172.485,199.578Z"/><path d="M114.174,273.191q-10.4.747-20.788,1.487a2.97,2.97,0,0,0-2.194,1.082l-.046.05a2.965,2.965,0,0,0-.761,2.324q.739,10.4,1.478,20.791c.3,4.161,6.758,3.7,6.463-.459q-.622-8.79-1.25-17.561,8.777-.622,17.559-1.25C118.8,279.356,118.337,272.9,114.174,273.191Z"/><path d="M42.752,269.214q-10.329-1.36-20.663-2.722a3,3,0,0,0-2.365.622l-.055.039a2.964,2.964,0,0,0-1.212,2.124q-1.365,10.332-2.732,20.664c-.541,4.137,5.879,4.987,6.427.845q1.155-8.724,2.3-17.454,8.725,1.165,17.45,2.307C46.044,276.184,46.889,269.759,42.752,269.214Z"/><path d="M321.843,212.674q7.976,3.736,15.939,7.47-3.739,7.968-7.477,15.937c-1.769,3.782,4.091,6.536,5.867,2.756q4.418-9.442,8.846-18.874a2.954,2.954,0,0,0,.123-2.438l-.024-.067a2.957,2.957,0,0,0-1.656-1.8q-9.435-4.431-18.869-8.853C320.812,205.038,318.063,210.9,321.843,212.674Z"/><path d="M29.873,336.663q5.944-8.552,11.9-17.112a2.989,2.989,0,0,0,.531-2.385l-.012-.067a2.972,2.972,0,0,0-1.33-2.056q-8.559-5.952-17.108-11.9c-3.427-2.38-7.124,2.934-3.7,5.319q7.229,5.025,14.45,10.05-5.026,7.22-10.05,14.448C22.174,336.388,27.483,340.09,29.873,336.663Z"/><path d="M218.632,114.221c-3.852-1.6-6.348,4.368-2.5,5.98q8.124,3.393,16.241,6.787-3.4,8.117-6.794,16.239c-1.6,3.852,4.371,6.347,5.981,2.5q4.018-9.612,8.034-19.231a2.965,2.965,0,0,0,.022-2.443l-.024-.067a2.958,2.958,0,0,0-1.733-1.724Q228.248,118.244,218.632,114.221Z"/><path d="M301.76,153.1l-.068.014a2.977,2.977,0,0,0-2.027,1.367q-5.786,8.673-11.566,17.343c-2.31,3.476,3.075,7.067,5.392,3.6q4.887-7.328,9.765-14.648,7.32,4.884,14.645,9.767c3.476,2.31,7.068-3.075,3.594-5.391l-17.341-11.561A2.989,2.989,0,0,0,301.76,153.1Z"/><path d="M268.436,98.243q-6.484,5.952-12.959,11.908-5.951-6.477-11.908-12.961c-2.831-3.07-7.593,1.309-4.774,4.388q7.052,7.668,14.105,15.341a2.965,2.965,0,0,0,2.215,1.038l.068.009a3,3,0,0,0,2.293-.852q7.676-7.056,15.345-14.1C275.894,100.188,271.513,95.419,268.436,98.243Z"/><path d="M591.337,279.529q-6.607-5.821-13.212-11.634,5.822-6.6,11.638-13.207c2.756-3.132-2.1-7.414-4.861-4.286q-6.885,7.82-13.776,15.64a2.99,2.99,0,0,0-.8,2.312l0,.068a2.986,2.986,0,0,0,1.088,2.2q7.821,6.877,15.64,13.776C590.188,287.151,594.465,282.292,591.337,279.529Z"/><path d="M483.372,447.658c.611,4.127,7.012,3.186,6.408-.947q-1.519-10.3-3.036-20.616a3,3,0,0,0-1.245-2.105l-.056-.043a2.948,2.948,0,0,0-2.372-.584q-10.311,1.517-20.607,3.026c-4.128.613-3.186,7.019.943,6.416l17.4-2.564Q482.095,438.948,483.372,447.658Z"/><path d="M434.1,464.214q9.381,4.533,18.756,9.073a2.99,2.99,0,0,0,2.438.152l.067-.024a2.987,2.987,0,0,0,1.82-1.636q4.529-9.376,9.063-18.763c1.812-3.756-4.014-6.57-5.829-2.819q-3.837,7.928-7.656,15.852-7.92-3.838-15.837-7.67C433.158,456.568,430.344,462.4,434.1,464.214Z"/><path d="M498.73,353.915l.06-.029a2.976,2.976,0,0,0,1.726-1.728q4-9.63,8.022-19.241c1.6-3.852-4.373-6.343-5.985-2.495q-3.389,8.13-6.773,16.253-8.116-3.39-16.243-6.775c-3.857-1.61-6.348,4.371-2.5,5.978q9.623,4,19.235,8.018A3.011,3.011,0,0,0,498.73,353.915Z"/><path d="M422.889,452.422q.963-8.754,1.918-17.5l17.5,1.926c4.147.453,4.856-5.991.7-6.442q-10.35-1.14-20.713-2.271a3,3,0,0,0-2.35.671l-.053.043A2.976,2.976,0,0,0,418.725,431q-1.137,10.362-2.278,20.718C416,455.866,422.432,456.568,422.889,452.422Z"/><path d="M420.864,407.607l.005-.072a2.978,2.978,0,0,0-.867-2.284q-7.1-7.623-14.2-15.253c-2.848-3.056-7.588,1.354-4.745,4.407q6,6.459,12,12.888L400.17,419.284c-3.053,2.848,1.356,7.586,4.417,4.745q7.617-7.1,15.246-14.2A2.968,2.968,0,0,0,420.864,407.607Z"/><path d="M522.552,251.88q-3.838-7.791-7.676-15.563,7.893-3.983,15.785-7.964c3.736-1.893.915-7.613-2.829-5.725q-9.336,4.713-18.683,9.432a3.044,3.044,0,0,0-1.624,1.844l-.022.062a2.966,2.966,0,0,0,.157,2.424q4.544,9.2,9.08,18.42C518.564,258.5,524.371,255.573,522.552,251.88Z"/><path d="M388.561,458.345q-9.8-3.542-19.6-7.089a3,3,0,0,0-2.448.1l-.063.029a2.985,2.985,0,0,0-1.638,1.815q-3.545,9.8-7.094,19.6c-1.419,3.93,4.668,6.128,6.1,2.2q2.991-8.28,5.986-16.55,8.275,3,16.552,5.99C390.282,465.861,392.485,459.769,388.561,458.345Z"/><path d="M401.712,435.047q-8.787-.576-17.566-1.147.576-8.782,1.152-17.563c.27-4.163-6.194-4.588-6.466-.422q-.678,10.4-1.357,20.795a2.983,2.983,0,0,0,.775,2.322l.043.053a2.987,2.987,0,0,0,2.2,1.066q10.4.681,20.8,1.364C405.456,441.783,405.876,435.32,401.712,435.047Z"/><path d="M537.54,378.705q7.776-6.94,15.553-13.876a3.01,3.01,0,0,0,1.076-2.2v-.067a2.972,2.972,0,0,0-.816-2.308q-6.936-7.773-13.868-15.553c-2.783-3.113-7.612,1.2-4.839,4.316q5.861,6.575,11.722,13.134-6.582,5.85-13.141,11.72C530.116,376.646,534.424,381.478,537.54,378.705Z"/><path d="M569.378,206.594l-15.765,7.835q-3.911-7.878-7.83-15.761c-1.86-3.741-7.66-.854-5.8,2.884q4.641,9.33,9.278,18.66a2.95,2.95,0,0,0,1.839,1.612l.063.024a2.953,2.953,0,0,0,2.44-.179q9.33-4.633,18.662-9.272C576,210.533,573.115,204.736,569.378,206.594Z"/><path d="M582.565,222.658q-4.224,7.719-8.45,15.442-7.719-4.228-15.437-8.454c-3.664-2-6.772,3.673-3.111,5.683q9.141,5,18.283,10.007a3.034,3.034,0,0,0,2.433.275l.06-.019a2.98,2.98,0,0,0,1.9-1.545q5-9.144,10.012-18.275C590.252,222.1,584.576,219,582.565,222.658Z"/><path d="M561.661,155.372q-8.544,5.958-17.091,11.927a2.978,2.978,0,0,0-1.325,2.057l-.012.062a2.98,2.98,0,0,0,.534,2.387q5.966,8.548,11.922,17.1c2.395,3.417,7.705-.285,5.32-3.708q-5.04-7.226-10.074-14.438,7.22-5.031,14.433-10.069C568.79,158.3,565.088,152.984,561.661,155.372Z"/><path d="M408.859,519.707l.053-.036a2.974,2.974,0,0,0,1.226-2.117q1.44-10.324,2.882-20.641c.574-4.134-5.839-5.03-6.416-.9q-1.216,8.724-2.432,17.433-8.718-1.213-17.431-2.436c-4.137-.574-5.03,5.841-.9,6.42q10.321,1.442,20.648,2.877A2.98,2.98,0,0,0,408.859,519.707Z"/><path d="M549.9,104.146q-8.736,1.129-17.455,2.259-1.13-8.731-2.254-17.459c-.531-4.142-6.956-3.312-6.425.825q1.339,10.332,2.667,20.675a2.98,2.98,0,0,0,1.207,2.124l.055.043a2.961,2.961,0,0,0,2.361.623q10.34-1.334,20.674-2.66C554.862,110.035,554.036,103.615,549.9,104.146Z"/><path d="M524.545,336.678q7.763-6.945,15.543-13.883a2.973,2.973,0,0,0,1.072-2.2l.007-.073a2.96,2.96,0,0,0-.823-2.3q-6.928-7.777-13.873-15.549c-2.78-3.115-7.61,1.193-4.837,4.316q5.865,6.572,11.728,13.125-6.571,5.865-13.137,11.72C517.114,334.621,521.427,339.453,524.545,336.678Z"/><path d="M555.476,254.438l-20.395,4.286a2.977,2.977,0,0,0-2.028,1.366l-.038.058a2.963,2.963,0,0,0-.434,2.409q2.131,10.194,4.274,20.4c.859,4.079,7.195,2.752,6.34-1.332q-1.81-8.624-3.618-17.233,8.62-1.8,17.231-3.608C560.891,259.921,559.562,253.583,555.476,254.438Z"/><path d="M558.325,312q7.066-7.662,14.134-15.322a2.988,2.988,0,0,0,.854-2.293l0-.067a2.971,2.971,0,0,0-1.036-2.216q-7.663-7.067-15.314-14.134c-3.072-2.828-7.463,1.931-4.4,4.76q6.472,5.973,12.941,11.937-5.973,6.47-11.94,12.937C550.737,310.674,555.494,315.067,558.325,312Z"/><path d="M211.333,149.024l-.06-.034a2.992,2.992,0,0,0-2.428-.3q-10.06,2.73-20.112,5.459c-4.026,1.1-2.332,7.347,1.7,6.256q8.5-2.31,16.985-4.615,2.3,8.495,4.612,16.987c1.1,4.026,7.349,2.327,6.256-1.7q-2.737-10.058-5.467-20.115A3,3,0,0,0,211.333,149.024Z"/><path d="M230.642,398.638c2.964,2.935,7.523-1.655,4.566-4.6q-7.4-7.335-14.795-14.679a2.982,2.982,0,0,0-2.259-.941h-.065a2.986,2.986,0,0,0-2.252.955q-7.342,7.4-14.689,14.791c-2.935,2.964,1.658,7.525,4.6,4.566q6.206-6.252,12.4-12.5Z"/><path d="M224.429,443.183q-1.593,8.66-3.181,17.31-8.652-1.6-17.314-3.186c-4.1-.753-5.277,5.614-1.169,6.372q10.242,1.883,20.492,3.77a2.98,2.98,0,0,0,2.394-.5l.058-.034a2.99,2.99,0,0,0,1.32-2.066q1.886-10.239,3.775-20.491C231.559,440.248,225.187,439.077,224.429,443.183Z"/><path d="M393.808,592.783c4.083-.862,2.754-7.2-1.332-6.345l-20.395,4.286a2.977,2.977,0,0,0-2.028,1.366l-.038.058a2.963,2.963,0,0,0-.434,2.409q.568,2.719,1.14,5.443h6.614q-.378-1.8-.758-3.609Q385.2,594.588,393.808,592.783Z"/><path d="M27.332,127.873q5.949-8.552,11.9-17.107a2.985,2.985,0,0,0,.538-2.389l-.014-.063a2.97,2.97,0,0,0-1.333-2.057q-8.557-5.952-17.107-11.9c-3.422-2.378-7.125,2.939-3.7,5.324q7.228,5.025,14.452,10.05-5.032,7.223-10.055,14.447C19.633,127.605,24.945,131.305,27.332,127.873Z"/><path d="M110.085,433.842h.068a2.965,2.965,0,0,0,2.244-.96q7.324-7.422,14.641-14.839c2.93-2.968-1.68-7.515-4.615-4.552q-6.18,6.279-12.357,12.536-6.264-6.183-12.531-12.362c-2.974-2.928-7.521,1.68-4.55,4.615q7.418,7.305,14.836,14.631A2.969,2.969,0,0,0,110.085,433.842Z"/><path d="M306.664,479.806q-10.39.709-20.79,1.415a2.988,2.988,0,0,0-2.2,1.076l-.043.048a3,3,0,0,0-.773,2.329q.707,10.395,1.412,20.793c.285,4.161,6.744,3.722,6.463-.444q-.592-8.779-1.192-17.561,8.776-.589,17.561-1.187C311.264,485.985,310.827,479.526,306.664,479.806Z"/><path d="M279.019,467.941q.276-10.408.553-20.834a2.993,2.993,0,0,0-.862-2.288l-.048-.048a2.981,2.981,0,0,0-2.24-.982q-10.419-.286-20.834-.563c-4.17-.108-4.344,6.363-.173,6.473q8.8.247,17.6.473-.243,8.8-.473,17.595C272.433,471.943,278.9,472.114,279.019,467.941Z"/><path d="M226.524,483.279q-10.361,1.111-20.727,2.2a2.988,2.988,0,0,0-2.153,1.156l-.041.055a2.983,2.983,0,0,0-.683,2.351q1.1,10.365,2.2,20.725c.444,4.149,6.884,3.469,6.444-.687q-.927-8.754-1.858-17.5,8.754-.923,17.506-1.853C231.356,489.284,230.673,482.845,226.524,483.279Z"/><path d="M83.5,447.923q-9.9,3.258-19.791,6.522a2.98,2.98,0,0,0-1.861,1.592l-.031.058a2.959,2.959,0,0,0-.17,2.44q3.263,9.9,6.522,19.794c1.308,3.968,7.458,1.94,6.154-2.027q-2.758-8.364-5.512-16.717,8.355-2.751,16.719-5.507C89.49,452.765,87.465,446.615,83.5,447.923Z"/><path d="M168.705,149.019q-6.665,8.008-13.342,16.016a2.974,2.974,0,0,0-.741,2.327l.008.068a2.965,2.965,0,0,0,1.148,2.162q8.006,6.677,16,13.347c3.207,2.67,7.354-2.3,4.151-4.977q-6.766-5.643-13.526-11.276,5.645-6.756,11.277-13.52C176.356,149.965,171.38,145.819,168.705,149.019Z"/><path d="M275.375,148.43q8.949-5.329,17.916-10.644a2.963,2.963,0,0,0,1.474-1.95l.017-.067a2.976,2.976,0,0,0-.36-2.419q-5.321-8.956-10.636-17.923c-2.138-3.586-7.7-.285-5.578,3.307q4.5,7.576,8.993,15.142-7.569,4.482-15.138,8.981C268.477,144.988,271.778,150.559,275.375,148.43Z"/><path d="M94.877,92.943q5.253-7.06,10.5-14.129,7.059,5.256,14.129,10.5c3.35,2.491,7.211-2.708,3.864-5.2Q115,77.9,106.636,71.684a2.961,2.961,0,0,0-2.368-.6l-.065.007a2.976,2.976,0,0,0-2.1,1.267q-6.213,8.362-12.433,16.726C87.185,92.431,92.384,96.292,94.877,92.943Z"/><path d="M379.848,253.7q-8.6,1.911-17.18,3.833-1.911-8.6-3.83-17.185c-.91-4.074-7.229-2.669-6.326,1.414q2.274,10.159,4.54,20.337a2.971,2.971,0,0,0,1.4,2.011l.053.036a2.978,2.978,0,0,0,2.411.41q10.175-2.266,20.347-4.533C385.336,259.106,383.927,252.787,379.848,253.7Z"/><path d="M60.033,97.287l.067.007a2.982,2.982,0,0,0,2.324-.77q7.919-6.766,15.853-13.53c3.174-2.708-1.031-7.637-4.209-4.924Q67.374,83.791,60.68,89.5q-5.706-6.7-11.426-13.39c-2.711-3.172-7.637,1.033-4.929,4.209q6.766,7.922,13.533,15.847A2.989,2.989,0,0,0,60.033,97.287Z"/><path d="M86.76,163.31,102.888,150.1a2.97,2.97,0,0,0,1.163-2.146l.01-.067a2.979,2.979,0,0,0-.719-2.339q-6.6-8.066-13.2-16.132c-2.645-3.224-7.653.874-5.015,4.1q5.578,6.817,11.15,13.627-6.813,5.568-13.622,11.146C79.426,160.937,83.526,165.95,86.76,163.31Z"/><path d="M321.223,114.686l-13.116,16.2a2.988,2.988,0,0,0-.7,2.341l0,.065a2.978,2.978,0,0,0,1.178,2.146q8.1,6.559,16.193,13.115c3.248,2.631,7.322-2.4,4.079-5.035q-6.84-5.542-13.678-11.078,5.54-6.828,11.078-13.675C328.883,115.519,323.851,111.445,321.223,114.686Z"/><path d="M53.381,179.126a2.988,2.988,0,0,0,2,1.414q10.152,2.354,20.3,4.707c4.069.941,5.53-5.371,1.465-6.319L60,174.96q1.992-8.573,3.976-17.146c.941-4.064-5.366-5.527-6.314-1.463q-2.346,10.152-4.7,20.3a2.967,2.967,0,0,0,.386,2.414Z"/><path d="M72.8,107.9Q64.345,114,55.881,120.081a2.958,2.958,0,0,0-1.3,2.07l-.012.068a2.966,2.966,0,0,0,.572,2.38q6.085,8.457,12.172,16.919c2.437,3.384,7.694-.4,5.259-3.789q-5.145-7.148-10.287-14.284,7.15-5.14,14.291-10.282C79.969,110.723,76.184,105.464,72.8,107.9Z"/><path d="M540.185,488.705q-8.928,5.368-17.87,10.728a2.989,2.989,0,0,0-1.467,1.96l-.015.065a2.969,2.969,0,0,0,.374,2.416q5.358,8.936,10.721,17.87c2.151,3.577,7.7.246,5.554-3.333q-4.525-7.555-9.058-15.092,7.548-4.526,15.1-9.056C547.1,492.11,543.767,486.559,540.185,488.705Z"/><path d="M489.947,549.6l-20.8,1.391a2.983,2.983,0,0,0-2.191,1.071l-.049.056a2.973,2.973,0,0,0-.772,2.319q.7,10.406,1.39,20.795c.283,4.169,6.744,3.732,6.464-.434q-.581-8.777-1.173-17.561l17.566-1.173C494.544,555.775,494.11,549.316,489.947,549.6Z"/><path d="M570.7,503.873q3.921-9.658,7.851-19.308a2.986,2.986,0,0,0,0-2.448l-.024-.062a2.968,2.968,0,0,0-1.752-1.709q-9.651-3.931-19.3-7.859c-3.869-1.568-6.307,4.427-2.445,6q8.16,3.316,16.306,6.633-3.324,8.153-6.637,16.3C563.122,505.292,569.122,507.73,570.7,503.873Z"/><path d="M149.226,534.044q3.036-9.965,6.079-19.932a2.987,2.987,0,0,0-.227-2.437l-.031-.058a2.958,2.958,0,0,0-1.9-1.545q-9.97-3.048-19.936-6.087c-3.992-1.216-5.879,4.982-1.887,6.2q8.421,2.571,16.837,5.136-2.571,8.414-5.141,16.84C141.814,536.148,148.007,538.036,149.226,534.044Z"/><path d="M265.547,502.291q-10.413.123-20.839.241a2.981,2.981,0,0,0-2.257.946l-.045.048a2.965,2.965,0,0,0-.9,2.274q.115,10.426.227,20.839c.051,4.18,6.524,4.108,6.48-.073q-.1-8.8-.2-17.6,8.8-.094,17.6-.193C269.792,508.721,269.722,502.247,265.547,502.291Z"/><path d="M93.765,572.8q1.332-10.332,2.679-20.669a2.986,2.986,0,0,0-.628-2.361l-.041-.058a3,3,0,0,0-2.131-1.207q-10.332-1.34-20.665-2.683c-4.142-.536-4.972,5.889-.833,6.429L89.6,554.51q-1.13,8.728-2.266,17.455C86.8,576.107,93.224,576.937,93.765,572.8Z"/><path d="M268.976.882a3.01,3.01,0,0,0,2.177,1.125q10.383.922,20.756,1.858A3.161,3.161,0,0,0,295.273,0h-26.84a2.757,2.757,0,0,0,.5.829Z"/><path d="M499.2,460.623q3.427,9.837,6.847,19.685a2.994,2.994,0,0,0,1.619,1.832l.058.026a2.977,2.977,0,0,0,2.445.136q9.844-3.426,19.687-6.845c3.94-1.371,1.813-7.487-2.126-6.116q-8.323,2.889-16.629,5.778-2.881-8.316-5.778-16.625C503.948,454.551,497.832,456.679,499.2,460.623Z"/><path d="M61.609,596.583q5.926-8.557,11.862-17.136A2.968,2.968,0,0,0,74,577.063L73.99,577a2.975,2.975,0,0,0-1.339-2.049q-8.567-5.937-17.132-11.869c-3.434-2.375-7.117,2.949-3.69,5.329q7.245,5.01,14.479,10.016Q61.29,585.657,56.277,592.9C53.905,596.332,59.231,600.011,61.609,596.583Z"/><path d="M263.375,53.442q8.414-6.14,16.837-12.275a2.987,2.987,0,0,0,1.286-2.085l.009-.068a2.977,2.977,0,0,0-.586-2.375q-6.14-8.421-12.275-16.837c-2.462-3.372-7.695.44-5.238,3.818q5.188,7.119,10.376,14.221-7.118,5.176-14.228,10.369C256.187,50.672,260,55.9,263.375,53.442Z"/><path d="M592.8,352.9q-8.451,6.093-16.915,12.177a2.958,2.958,0,0,0-1.3,2.07l-.012.068a2.962,2.962,0,0,0,.572,2.38q6.086,8.457,12.172,16.919c2.437,3.384,7.694-.4,5.259-3.789q-5.145-7.147-10.287-14.284,7.151-5.141,14.291-10.282C599.969,355.723,596.184,350.464,592.8,352.9Z"/><path d="M527.815,413.163q-10.089-2.574-20.194-5.148a2.951,2.951,0,0,0-2.423.335l-.058.034a2.977,2.977,0,0,0-1.458,1.963q-2.577,10.1-5.155,20.189c-1.028,4.047,5.242,5.655,6.28,1.607q2.176-8.529,4.352-17.059,8.526,2.187,17.054,4.359C530.258,420.471,531.861,414.2,527.815,413.163Z"/><path d="M115.153,515.956q-8.445,6.1-16.9,12.194a3,3,0,0,0-1.3,2.078l-.009.065a2.99,2.99,0,0,0,.576,2.38q6.093,8.45,12.191,16.9c2.443,3.384,7.69-.4,5.252-3.794q-5.148-7.14-10.3-14.274,7.143-5.14,14.284-10.3C122.331,518.77,118.542,513.514,115.153,515.956Z"/><path d="M143.971,150q7.621-7.1,15.254-14.206a2.994,2.994,0,0,0,1.026-2.216l0-.068a2.97,2.97,0,0,0-.871-2.288l-14.2-15.258c-2.846-3.051-7.589,1.359-4.745,4.417q6,6.447,12,12.883-6.447,5.988-12.886,12C136.5,148.107,140.916,152.842,143.971,150Z"/><path d="M27.775,495.072q-10.411.274-20.831.555a2.985,2.985,0,0,0-2.243.989l-.045.044a2.984,2.984,0,0,0-.867,2.288q.282,10.419.555,20.834c.116,4.173,6.584,4,6.481-.169q-.236-8.805-.476-17.6,8.8-.231,17.6-.468C32.119,501.434,31.95,494.961,27.775,495.072Z"/><path d="M53.28,47.493q8.414-6.137,16.837-12.28A2.982,2.982,0,0,0,71.4,33.13l.014-.068a2.978,2.978,0,0,0-.589-2.37q-6.139-8.428-12.275-16.846c-2.462-3.37-7.692.444-5.238,3.818Q58.5,24.781,63.687,31.887q-7.11,5.187-14.226,10.366C46.092,44.72,49.905,49.948,53.28,47.493Z"/><path d="M296.283,77.4q-5.94,8.551-11.894,17.112a2.961,2.961,0,0,0-.535,2.387l.009.066a3.01,3.01,0,0,0,1.33,2.056q8.559,5.945,17.112,11.9c3.427,2.38,7.125-2.935,3.7-5.32q-7.23-5.033-14.455-10.045,5.03-7.233,10.055-14.452C303.985,77.67,298.67,73.972,296.283,77.4Z"/><path d="M421.472,154.4c2.582,3.278,7.67-.721,5.1-4.009Q420.13,142.2,413.69,134a3,3,0,0,0-2.126-1.212l-.07-.007a2.978,2.978,0,0,0-2.35.676l-16.391,12.876c-3.28,2.578.719,7.67,4,5.093q6.923-5.445,13.842-10.876Q416.029,147.475,421.472,154.4Z"/><path d="M396.313,189.147q-3.027,9.978-6.051,19.941c-1.209,3.994,4.984,5.874,6.2,1.882q2.553-8.429,5.105-16.847l16.846,5.113c3.992,1.209,5.875-4.987,1.878-6.2q-9.971-3.023-19.941-6.05a3,3,0,0,0-2.437.229l-.058.034A2.964,2.964,0,0,0,396.313,189.147Z"/><path d="M480.667,269.32l-20.194,5.134a3.006,3.006,0,0,0-1.969,1.45l-.034.063a2.953,2.953,0,0,0-.338,2.421q2.564,10.1,5.126,20.2c1.029,4.045,7.3,2.447,6.28-1.6q-2.168-8.537-4.337-17.059,8.53-2.164,17.064-4.33C486.312,274.572,484.715,268.3,480.667,269.32Z"/><path d="M284.319,225.541q-.17,10.409-.342,20.836a2.989,2.989,0,0,0,.888,2.278l.043.049a2.98,2.98,0,0,0,2.255.96q10.414.178,20.836.353c4.173.062,4.279-6.408.106-6.483q-8.808-.145-17.6-.287.151-8.8.294-17.6C290.863,221.474,284.392,221.368,284.319,225.541Z"/><path d="M445.294,336.2q4.044-9.606,8.1-19.207a2.957,2.957,0,0,0,.029-2.445l-.022-.061a2.99,2.99,0,0,0-1.73-1.733q-9.6-4.047-19.2-8.109c-3.847-1.617-6.362,4.349-2.52,5.971q8.116,3.425,16.217,6.845-3.418,8.109-6.843,16.214C437.7,337.522,443.667,340.042,445.294,336.2Z"/><path d="M420.9,92.4q-6.885,7.819-13.776,15.64a2.99,2.99,0,0,0-.8,2.312l0,.068a2.986,2.986,0,0,0,1.088,2.2q7.821,6.878,15.64,13.776c3.133,2.757,7.41-2.1,4.282-4.865q-6.607-5.821-13.212-11.634,5.821-6.6,11.638-13.207C428.519,93.556,423.659,89.274,420.9,92.4Z"/><path d="M303.884,353.872q1.252-8.711,2.5-17.426,8.71,1.26,17.423,2.51c4.135.591,5.057-5.817.925-6.415q-10.314-1.485-20.631-2.964a2.976,2.976,0,0,0-2.37.594l-.058.043a2.994,2.994,0,0,0-1.238,2.109q-1.481,10.311-2.967,20.627C296.875,357.087,303.288,358,303.884,353.872Z"/><path d="M295.214,372.582q-.507,10.4-1.028,20.814a2.992,2.992,0,0,0,.813,2.31l.046.051a2.986,2.986,0,0,0,2.216,1.032q10.4.522,20.814,1.034c4.169.2,4.494-6.264.319-6.474l-17.581-.869q.44-8.79.874-17.58C301.89,368.734,295.424,368.411,295.214,372.582Z"/><path d="M342.187,370.3l.043-.05a2.977,2.977,0,0,0,.683-2.349q-1.089-10.361-2.174-20.727c-.435-4.147-6.879-3.476-6.445.68q.924,8.754,1.84,17.506-8.755.912-17.506,1.832c-4.154.439-3.473,6.876.673,6.446q10.365-1.089,20.728-2.177A2.991,2.991,0,0,0,342.187,370.3Z"/><path d="M369.74,283.71a2.969,2.969,0,0,0-.956,2.254l0,.068a2.991,2.991,0,0,0,.941,2.254q7.339,7.407,14.665,14.807c2.942,2.966,7.545-1.6,4.605-4.564q-6.2-6.249-12.4-12.5,6.264-6.192,12.51-12.392c2.961-2.939-1.6-7.539-4.564-4.6Q377.143,276.375,369.74,283.71Z"/><path d="M435.137,204.429l-.065.015a2.979,2.979,0,0,0-2,1.414q-5.594,8.782-11.2,17.576c-2.24,3.519,3.222,7,5.465,3.48q4.736-7.429,9.456-14.848,7.422,4.736,14.848,9.456c3.519,2.24,7-3.215,3.48-5.464l-17.58-11.194A2.988,2.988,0,0,0,435.137,204.429Z"/><path d="M388.2,234.671q8.8-.477,17.576-.97.477,8.79.968,17.575c.234,4.171,6.7,3.814,6.471-.354q-.573-10.4-1.149-20.81a2.979,2.979,0,0,0-1.048-2.211l-.048-.043a2.982,2.982,0,0,0-2.317-.8q-10.406.571-20.81,1.139C383.68,228.43,384.038,234.9,388.2,234.671Z"/><path d="M371.5,340.008l-.071.01a2.968,2.968,0,0,0-2.094,1.267q-6.213,8.363-12.435,16.724c-2.486,3.352,2.71,7.216,5.2,3.866q5.257-7.067,10.5-14.129,7.061,5.25,14.129,10.5c3.353,2.491,7.212-2.708,3.867-5.2q-8.372-6.212-16.731-12.429A2.983,2.983,0,0,0,371.5,340.008Z"/><path d="M481.9,193.955q-7.031-7.691-14.066-15.379a2.986,2.986,0,0,0-2.211-1.048l-.067,0a2.983,2.983,0,0,0-2.3.848l-15.379,14.061c-3.08,2.819,1.291,7.6,4.373,4.779q6.5-5.937,12.988-11.88,5.937,6.5,11.877,13C479.94,201.405,484.717,197.034,481.9,193.955Z"/><path d="M410.739,270.749c-.51-4.142-6.934-3.36-6.437.78q1.267,10.342,2.517,20.691a2.976,2.976,0,0,0,1.19,2.134l.053.043a3,3,0,0,0,2.36.647q10.349-1.26,20.694-2.51c4.142-.507,3.36-6.932-.782-6.43q-8.747,1.058-17.479,2.119Q411.8,279.492,410.739,270.749Z"/><path d="M491.146,248.732q-8.637,1.7-17.269,3.413-1.7-8.634-3.405-17.271c-.814-4.093-7.166-2.843-6.357,1.255q2.019,10.224,4.037,20.447a2.992,2.992,0,0,0,1.345,2.043l.055.038a2.994,2.994,0,0,0,2.4.468q10.224-2.019,20.447-4.035C496.5,254.279,495.245,247.924,491.146,248.732Z"/><path d="M428.732,268.4q9.988-2.946,19.989-5.889a3.007,3.007,0,0,0,1.916-1.525l.032-.061a2.98,2.98,0,0,0,.248-2.43q-2.943-10-5.881-19.994c-1.181-4-7.393-2.179-6.218,1.83q2.487,8.442,4.97,16.885-8.444,2.483-16.886,4.967C422.9,263.363,424.725,269.571,428.732,268.4Z"/><path d="M253.358,136.121q-4.286,9.5-8.577,19a2.98,2.98,0,0,0-.087,2.447l.019.058A3,3,0,0,0,246.4,159.4q9.5,4.294,18.994,8.583c3.8,1.713,6.471-4.185,2.67-5.909q-8.031-3.619-16.046-7.245,3.632-8.016,7.251-16.041C260.985,134.987,255.082,132.32,253.358,136.121Z"/><path d="M594.066,243.88,600,248.453v-8.181q-.99-.762-1.978-1.526C594.715,236.2,590.762,241.329,594.066,243.88Z"/><path d="M594.371,139.705q2.814-2.513,5.629-5.022V126q-4.973,4.428-9.942,8.866C586.947,137.646,591.255,142.478,594.371,139.705Z"/><path d="M587.341,62.2l-.046.053a2.976,2.976,0,0,0-.758,2.322q.739,10.4,1.477,20.79c.3,4.161,6.758,3.7,6.464-.458q-.627-8.782-1.255-17.561L600,66.868V60.376l-10.465.746A2.992,2.992,0,0,0,587.341,62.2Z"/><path d="M336.705,192.241q7.9-6.77,15.826-13.555a2.975,2.975,0,0,0,1.12-2.172l.007-.067a2.958,2.958,0,0,0-.77-2.32q-6.777-7.922-13.552-15.835c-2.72-3.167-7.636,1.038-4.926,4.219q5.728,6.683,11.45,13.364-6.683,5.722-13.371,11.447C329.32,190.035,333.532,194.959,336.705,192.241Z"/><path d="M459.854,7.017q-6.393,8.217-12.8,16.45a2.953,2.953,0,0,0-.661,2.349l.009.065a2.971,2.971,0,0,0,1.217,2.124q8.224,6.4,16.443,12.806c3.3,2.558,7.275-2.549,3.98-5.117q-6.946-5.408-13.888-10.807,5.409-6.945,10.813-13.89C467.529,7.7,462.422,3.722,459.854,7.017Z"/><path d="M591.477,110.016q4.261,4.779,8.523,9.549v-9.733q-1.842-2.065-3.684-4.132C593.533,102.587,588.7,106.9,591.477,110.016Z"/><path d="M342.587,125.69q-.029,10.419-.067,20.841a2.985,2.985,0,0,0,.917,2.271l.048.05a2.987,2.987,0,0,0,2.259.93q10.426.036,20.844.077c4.173.01,4.194-6.463.019-6.478q-8.805-.036-17.6-.06.036-8.8.063-17.605C349.08,121.541,342.607,121.519,342.587,125.69Z"/><path d="M388.015,541.043a2.96,2.96,0,0,0-1.149-2.163q-8.012-6.662-16.021-13.325c-3.21-2.667-7.351,2.31-4.142,4.984q6.771,5.626,13.536,11.252-5.637,6.763-11.26,13.53c-2.667,3.215,2.31,7.352,4.98,4.147q6.661-8.016,13.327-16.026a2.978,2.978,0,0,0,.739-2.332Z"/><path d="M599.5,183.99l-.056-.043a2.948,2.948,0,0,0-2.372-.584q-10.311,1.517-20.607,3.026c-4.128.613-3.186,7.019.943,6.416l17.4-2.564q1.286,8.707,2.563,17.417A2.955,2.955,0,0,0,600,210.279V184.445A2.788,2.788,0,0,0,599.5,183.99Z"/><path d="M217.435,239.865q-5.945,8.559-11.9,17.112a3,3,0,0,0-.534,2.39l.015.062a2.954,2.954,0,0,0,1.332,2.052q8.552,5.952,17.1,11.906c3.429,2.385,7.13-2.937,3.7-5.322q-7.227-5.028-14.453-10.045,5.032-7.227,10.055-14.452C225.134,240.14,219.82,236.443,217.435,239.865Z"/><path d="M231.207,217.641q-9.406-4.482-18.807-8.973a2.981,2.981,0,0,0-2.445-.14l-.062.024a2.973,2.973,0,0,0-1.813,1.646Q203.59,219.6,199.1,229c-1.8,3.765,4.048,6.56,5.851,2.79q3.789-7.95,7.578-15.888l15.884,7.586C232.187,225.285,234.977,219.442,231.207,217.641Z"/><path d="M282.017,340.4q-5.517-8.834-11.03-17.677A3.006,3.006,0,0,0,269,321.289l-.062-.015a3,3,0,0,0-2.416.418q-8.841,5.517-17.682,11.023c-3.541,2.215-.113,7.708,3.427,5.5q7.476-4.649,14.935-9.312,4.656,7.473,9.317,14.935C278.73,347.379,284.223,343.947,282.017,340.4Z"/><path d="M313.239,410.9q-10.231,1.984-20.46,3.973a3.017,3.017,0,0,0-2.049,1.337l-.039.058a3,3,0,0,0-.475,2.4q1.987,10.232,3.97,20.462c.8,4.1,7.154,2.862,6.362-1.231q-1.683-8.652-3.36-17.286l17.286-3.345C318.57,416.47,317.337,410.112,313.239,410.9Z"/><path d="M343.22,465.378l-19.794,6.531a2.986,2.986,0,0,0-1.861,1.583l-.031.063a2.988,2.988,0,0,0-.171,2.438q3.266,9.9,6.526,19.8c1.31,3.963,7.458,1.935,6.154-2.028q-2.759-8.363-5.512-16.716,8.355-2.758,16.716-5.513C349.21,470.224,347.185,464.075,343.22,465.378Z"/><path d="M381.728,577.222q8.446-2.5,16.88-4.991,2.495,8.435,4.989,16.875c1.19,4,7.4,2.163,6.22-1.839q-2.966-9.986-5.921-19.984a2.993,2.993,0,0,0-1.53-1.912l-.058-.029a2.967,2.967,0,0,0-2.437-.241q-9.993,2.948-19.985,5.909C375.885,572.2,377.724,578.409,381.728,577.222Z"/><path d="M256.926,387.661q10.556-1.3,21.118-2.616a3.167,3.167,0,0,0,2.213-1.221l.046-.053a3.145,3.145,0,0,0,.739-2.414q-.913-10.568-1.815-21.123c-.37-4.233-6.935-3.422-6.572.811q.771,8.924,1.542,17.841-8.913,1.107-17.836,2.206C252.132,381.618,252.7,388.183,256.926,387.661Z"/><path d="M12.032,482.34q9.225-4.844,18.454-9.683a2.992,2.992,0,0,0,1.578-1.87l.017-.066a2.951,2.951,0,0,0-.234-2.435q-4.836-9.228-9.673-18.459c-1.943-3.695-7.68-.687-5.744,3.015q4.093,7.794,8.181,15.582L9.022,476.6C5.327,478.546,8.334,484.278,12.032,482.34Z"/><path d="M142.284,461.744q6.382-6.06,12.758-12.121,6.06,6.379,12.12,12.763c2.88,3.022,7.574-1.439,4.7-4.465q-7.175-7.545-14.356-15.109a2.98,2.98,0,0,0-2.225-1h-.067a2.98,2.98,0,0,0-2.281.888q-7.555,7.176-15.116,14.351C134.794,459.924,139.252,464.616,142.284,461.744Z"/><path d="M201.52,533.237q10.268,1.774,20.534,3.577a2.987,2.987,0,0,0,2.392-.526l.056-.039a2.968,2.968,0,0,0,1.3-2.07q1.789-10.264,3.587-20.53c.712-4.113-5.667-5.223-6.386-1.11q-1.514,8.675-3.022,17.336-8.675-1.516-17.344-3.024C198.525,526.137,197.412,532.516,201.52,533.237Z"/><path d="M201.817,441.435q-6.764-5.632-13.523-11.266,5.64-6.756,11.273-13.521c2.667-3.205-2.3-7.356-4.979-4.151q-6.667,8.012-13.339,16.011a2.975,2.975,0,0,0-.746,2.332l.007.068a2.992,2.992,0,0,0,1.151,2.162q8,6.669,16,13.347C200.873,449.086,205.02,444.115,201.817,441.435Z"/><path d="M218.724,569.339a3,3,0,0,0,2.259.942h.067a2.993,2.993,0,0,0,2.25-.959q7.345-7.4,14.686-14.792c2.938-2.964-1.658-7.526-4.6-4.567q-6.2,6.257-12.4,12.5-6.242-6.2-12.493-12.4c-2.966-2.94-7.525,1.656-4.566,4.605Q211.329,561.988,218.724,569.339Z"/><path d="M39.933,489.357a2.977,2.977,0,0,0,2.017,1.386q10.18,2.216,20.361,4.433c4.079.886,5.455-5.438,1.378-6.335q-8.605-1.869-17.2-3.739,1.883-8.59,3.751-17.2c.881-4.081-5.445-5.457-6.338-1.378q-2.205,10.181-4.427,20.361a2.99,2.99,0,0,0,.42,2.413Z"/><path d="M244.167,434.557q-2.736-10.05-5.466-20.115a2.994,2.994,0,0,0-1.485-1.945l-.06-.034a3,3,0,0,0-2.428-.3q-10.058,2.734-20.112,5.462c-4.031,1.1-2.332,7.347,1.7,6.256q8.5-2.3,16.986-4.617,2.307,8.49,4.613,16.984C239.01,440.282,245.258,438.583,244.167,434.557Z"/><path d="M83.594,436.073l.029-.061a2.978,2.978,0,0,0,.246-2.435q-2.94-10-5.877-19.994c-1.18-4-7.393-2.177-6.22,1.83q2.487,8.449,4.972,16.885-8.442,2.482-16.887,4.967c-4,1.178-2.175,7.39,1.829,6.217q9.991-2.948,19.991-5.884A3.022,3.022,0,0,0,83.594,436.073Z"/><path d="M73.7,503.821q8.987,5.271,17.974,10.547a3,3,0,0,0,2.423.353l.065-.015a3,3,0,0,0,1.946-1.487q5.274-8.985,10.552-17.966c2.111-3.606-3.471-6.884-5.585-3.287q-4.461,7.594-8.911,15.181-7.588-4.454-15.181-8.911C73.384,496.122,70.107,501.709,73.7,503.821Z"/><path d="M126.992,494.611l.068,0a2.986,2.986,0,0,0,2.3-.836q7.742-6.972,15.486-13.945c3.1-2.795-1.236-7.608-4.34-4.813q-6.541,5.9-13.076,11.783-5.887-6.545-11.783-13.081c-2.8-3.094-7.608,1.238-4.813,4.34q6.977,7.74,13.955,15.485A3,3,0,0,0,126.992,494.611Z"/><path d="M511.309,570.131q2.108-8.552,4.209-17.093,8.548,2.115,17.093,4.219c4.052.994,5.6-5.291,1.55-6.295q-10.116-2.482-20.235-4.986a2.985,2.985,0,0,0-2.421.357l-.056.034a2.967,2.967,0,0,0-1.441,1.979q-2.5,10.122-5,20.233C504.018,572.631,510.305,574.186,511.309,570.131Z"/><path d="M449.355,598.441c3.927,1.42,6.13-4.672,2.206-6.1q-9.8-3.542-19.6-7.089a3,3,0,0,0-2.448.1l-.063.029a2.985,2.985,0,0,0-1.638,1.815q-2.316,6.4-4.633,12.8h6.891q1.366-3.774,2.731-7.549Q441.078,595.448,449.355,598.441Z"/><path d="M512.839,530l.039-.055a2.97,2.97,0,0,0,.372-2.416q-2.408-10.137-4.808-20.279c-.968-4.064-7.265-2.563-6.309,1.5q2.034,8.572,4.069,17.128-8.562,2.031-17.124,4.062c-4.065.966-2.568,7.265,1.494,6.309q10.137-2.418,20.279-4.817A2.991,2.991,0,0,0,512.839,530Z"/><path d="M543.221,448.114q-8.529,2.213-17.039,4.426-2.205-8.519-4.422-17.042c-1.052-4.04-7.318-2.411-6.275,1.632q2.628,10.086,5.247,20.172a2.972,2.972,0,0,0,1.457,1.96l.063.034a2.994,2.994,0,0,0,2.423.328q10.088-2.628,20.173-5.242C548.888,453.334,547.261,447.064,543.221,448.114Z"/><path d="M254.309,570.326q4.38-7.635,8.761-15.265,7.632,4.38,15.264,8.766c3.625,2.073,6.844-3.543,3.229-5.624q-9.036-5.184-18.078-10.373a2.98,2.98,0,0,0-2.423-.328l-.067.019a2.966,2.966,0,0,0-1.926,1.506q-5.192,9.043-10.383,18.072C246.61,570.72,252.226,573.944,254.309,570.326Z"/><path d="M298.545,524.734c2.9-3-1.764-7.5-4.663-4.5q-6.118,6.339-12.222,12.668-6.333-6.111-12.667-12.227c-3-2.9-7.5,1.762-4.5,4.661l15,14.474a2.98,2.98,0,0,0,2.269.907h.072a2.964,2.964,0,0,0,2.235-.987Z"/><path d="M328.033,598.519q-6.112-6.35-12.218-12.678,6.344-6.093,12.676-12.213c3-2.894-1.489-7.557-4.5-4.665q-7.489,7.233-15,14.467a2.992,2.992,0,0,0-.99,2.239v.063a2.99,2.99,0,0,0,.9,2.274q5.781,6,11.559,11.994h8.389A3.141,3.141,0,0,0,328.033,598.519Z"/><path d="M564.564,446.538c3.423,2.4,7.137-2.906,3.724-5.305q-7.215-5.055-14.423-10.1,5.053-7.2,10.108-14.408c2.394-3.423-2.906-7.14-5.3-3.727l-11.962,17.074a2.966,2.966,0,0,0-.54,2.384l.009.068a2.988,2.988,0,0,0,1.323,2.056Q556.035,440.557,564.564,446.538Z"/><path d="M300.447,573.191q2.41-8.465,4.829-16.931,8.464,2.423,16.926,4.839c4.017,1.14,5.791-5.083,1.777-6.234q-10.014-2.856-20.037-5.718a3.013,3.013,0,0,0-2.433.266l-.058.034a2.952,2.952,0,0,0-1.511,1.923q-2.868,10.019-5.727,20.04C293.068,575.421,299.3,577.2,300.447,573.191Z"/><path d="M190.273,114.944a2.993,2.993,0,0,0-2.254.956q-7.343,7.4-14.687,14.791c-2.935,2.968,1.658,7.525,4.6,4.571q6.206-6.256,12.4-12.5,6.242,6.2,12.492,12.4c2.964,2.94,7.521-1.655,4.564-4.6q-7.4-7.335-14.793-14.679a3.011,3.011,0,0,0-2.259-.942Z"/><path d="M173.948,93.84q-6.5,5.939-13,11.87-5.929-6.495-11.87-13c-2.817-3.08-7.6,1.289-4.784,4.373q7.032,7.69,14.057,15.389a3,3,0,0,0,2.211,1.047h.068a2.938,2.938,0,0,0,2.292-.839q7.7-7.038,15.394-14.057C181.4,95.805,177.034,91.026,173.948,93.84Z"/><path d="M208.949,80.923h-.07a2.943,2.943,0,0,0-2.283.879q-7.6,7.121-15.206,14.254c-3.038,2.858,1.391,7.579,4.434,4.726q6.426-6.024,12.84-12.049,6.017,6.426,12.039,12.845c2.858,3.036,7.583-1.388,4.725-4.436q-7.123-7.591-14.256-15.2A3.009,3.009,0,0,0,208.949,80.923Z"/><path d="M125.894,142.087c.953-4.059-5.346-5.548-6.309-1.489q-2.392,10.142-4.794,20.284a2.968,2.968,0,0,0,.382,2.416l.031.057a2.992,2.992,0,0,0,1.994,1.42q10.147,2.4,20.281,4.8c4.062.956,5.551-5.349,1.494-6.314q-8.577-2.028-17.134-4.045Q123.87,150.653,125.894,142.087Z"/><path d="M50.33,420.908l.068-.012a2.986,2.986,0,0,0,2.034-1.356q5.844-8.631,11.689-17.257c2.339-3.456-3.022-7.086-5.368-3.635q-4.93,7.3-9.866,14.578-7.284-4.938-14.573-9.877c-3.461-2.336-7.089,3.03-3.635,5.373q8.623,5.837,17.259,11.684A2.983,2.983,0,0,0,50.33,420.908Z"/><path d="M221.026,49.523l-.041.053a2.973,2.973,0,0,0-.649,2.355q1.245,10.347,2.484,20.7c.5,4.141,6.934,3.371,6.437-.775q-1.05-8.739-2.105-17.479,8.744-1.042,17.476-2.095c4.144-.5,3.372-6.929-.77-6.432q-10.345,1.242-20.691,2.488A2.984,2.984,0,0,0,221.026,49.523Z"/><path d="M257.239,64.238a2.955,2.955,0,0,0-2.322.775Q247,71.79,239.087,78.563c-3.169,2.722,1.045,7.641,4.219,4.928q6.687-5.727,13.368-11.455Q262.4,78.72,268.122,85.4c2.715,3.171,7.634-1.043,4.921-4.214q-6.777-7.908-13.561-15.824a2.972,2.972,0,0,0-2.178-1.12Z"/><path d="M122.785,103.367q-5.517,6.867-11.025,13.726-6.857-5.519-13.724-11.026c-3.253-2.611-7.308,2.433-4.059,5.054q8.131,6.517,16.253,13.048a2.976,2.976,0,0,0,2.346.7l.067-.005a2.991,2.991,0,0,0,2.139-1.187q6.526-8.127,13.055-16.248C130.448,104.17,125.4,100.116,122.785,103.367Z"/><path d="M247.411,1.213Q239.7,8.23,231.991,15.236a3,3,0,0,0-1.055,2.211v.067a2.978,2.978,0,0,0,.838,2.3q7.01,7.7,14.02,15.418c2.81,3.087,7.6-1.265,4.793-4.359q-5.922-6.513-11.84-13.024,6.513-5.916,13.023-11.836C254.855,3.2,250.5-1.591,247.411,1.213Z"/><path d="M136.634,45.951l-15.6,8.157q-4.077-7.8-8.156-15.6c-1.935-3.693-7.675-.7-5.744,3q4.833,9.236,9.662,18.468a2.963,2.963,0,0,0,1.867,1.579l.066.019a2.978,2.978,0,0,0,2.435-.227q9.232-4.825,18.468-9.654C143.334,49.759,140.334,44.022,136.634,45.951Z"/><path d="M16.034,150q9.4,4.481,18.806,8.971a3.007,3.007,0,0,0,2.443.145l.062-.025a2.99,2.99,0,0,0,1.813-1.646q4.49-9.413,8.976-18.811c1.8-3.765-4.045-6.555-5.851-2.79q-3.786,7.947-7.573,15.891-7.944-3.795-15.886-7.584C15.054,142.353,12.264,148.194,16.034,150Z"/><path d="M4.435,581.865Q2.22,585.054,0,588.242v11.346q4.881-7.011,9.754-14.02C12.134,582.14,6.82,578.443,4.435,581.865Z"/><path d="M9.249,25.145Q7.736,33.824,6.23,42.489L0,41.4v6.574l8.306,1.447A3.024,3.024,0,0,0,10.7,48.9l.053-.043a2.963,2.963,0,0,0,1.3-2.071q1.793-10.267,3.584-20.53C16.35,22.148,9.973,21.033,9.249,25.145Z"/><path d="M102.813,6.837q-4.935,7.284-9.864,14.573-7.291-4.938-14.573-9.872c-3.461-2.336-7.094,3.027-3.635,5.368Q83.368,22.75,92,28.588a2.979,2.979,0,0,0,2.394.5l.068-.01a2.959,2.959,0,0,0,2.034-1.356q5.84-8.631,11.684-17.257C110.519,7.008,105.156,3.376,102.813,6.837Z"/><path d="M71.852,63.106,83.717,50.092q6.5,5.945,13,11.87c3.084,2.814,7.448-1.974,4.368-4.788q-7.7-7.017-15.4-14.047a2.966,2.966,0,0,0-2.3-.84h-.067a3,3,0,0,0-2.211,1.052q-7.02,7.7-14.045,15.4C64.254,61.822,69.038,66.181,71.852,63.106Z"/><path d="M26.986,54.374a3.006,3.006,0,0,0-2.365.62l-.053.046a2.965,2.965,0,0,0-1.216,2.119Q21.99,67.5,20.624,77.824c-.543,4.137,5.875,4.986,6.425.845q1.151-8.725,2.3-17.45,8.731,1.158,17.455,2.307c4.139.541,4.986-5.879.847-6.425Q37.32,55.741,26.986,54.374Z"/><path d="M175.034,504.456l.063-.017a2.989,2.989,0,0,0,1.964-1.468q5.383-8.916,10.774-17.836c2.155-3.572-3.389-6.922-5.551-3.35q-4.551,7.537-9.094,15.07-7.53-4.554-15.068-9.1c-3.574-2.157-6.92,3.389-3.348,5.547q8.917,5.379,17.839,10.769A3.019,3.019,0,0,0,175.034,504.456Z"/><path d="M234.2,597.1c4.017,1.14,5.791-5.083,1.777-6.234q-10.014-2.856-20.037-5.718a3.013,3.013,0,0,0-2.433.266l-.058.034a2.952,2.952,0,0,0-1.511,1.923q-1.807,6.313-3.61,12.63h6.738q1.105-3.87,2.208-7.74Q225.741,594.683,234.2,597.1Z"/><path d="M292.486,597.414q-8.772-.786-17.532-1.569.789-8.765,1.574-17.534c.369-4.156-6.08-4.736-6.452-.58q-.927,10.383-1.858,20.759a3.188,3.188,0,0,0,.215,1.51h26.84A2.963,2.963,0,0,0,292.486,597.414Z"/><path d="M513.024,596.606q-8.8.231-17.6.473-.232-8.79-.464-17.6c-.115-4.17-6.589-4-6.478.174q.27,10.176.543,20.347h27.2A3.085,3.085,0,0,0,513.024,596.606Z"/><path d="M559.09,535.161l-.05-.046a2.966,2.966,0,0,0-2.293-.852q-10.413.326-20.829.649c-4.171.138-3.968,6.609.2,6.483q8.8-.282,17.6-.56.271,8.8.551,17.595c.135,4.171,6.608,3.97,6.477-.2q-.333-10.412-.656-20.829A2.974,2.974,0,0,0,559.09,535.161Z"/><path d="M554.767,584.377l-.014-.063a2.97,2.97,0,0,0-1.333-2.057q-8.557-5.952-17.107-11.9c-3.422-2.378-7.125,2.939-3.7,5.324q7.228,5.025,14.452,10.05Q542.1,592.864,537.135,600h7.891l9.2-13.234A2.985,2.985,0,0,0,554.767,584.377Z"/><path d="M284.59,68.305q5.966-6.465,11.932-12.937,6.459,5.974,12.935,11.938c3.069,2.828,7.462-1.929,4.395-4.764q-7.66-7.061-15.322-14.13a2.974,2.974,0,0,0-2.288-.854l-.067,0a2.965,2.965,0,0,0-2.216,1.037q-7.067,7.658-14.134,15.317C276.992,66.982,281.754,71.373,284.59,68.305Z"/><path d="M181.381,513.963q-7.489,7.233-15,14.467a2.992,2.992,0,0,0-.99,2.239v.063a2.99,2.99,0,0,0,.905,2.274q7.234,7.5,14.462,15.007c2.9,3.007,7.559-1.492,4.666-4.494q-6.112-6.35-12.218-12.678,6.343-6.093,12.676-12.213C188.883,515.734,184.391,511.071,181.381,513.963Z"/><path d="M169.709,571.227q8.233-3.143,16.441-6.29,3.144,8.219,6.285,16.441c1.494,3.895,7.545,1.583,6.054-2.317q-3.721-9.728-7.446-19.463a2.992,2.992,0,0,0-1.673-1.786l-.063-.029a3.01,3.01,0,0,0-2.447-.053q-9.732,3.729-19.465,7.443C163.5,566.67,165.809,572.713,169.709,571.227Z"/><path d="M577.951,578.054q8.726-5.685,17.46-11.378a2.973,2.973,0,0,0,1.4-2.008l.015-.067a2.981,2.981,0,0,0-.464-2.4q-5.683-8.733-11.37-17.465c-2.276-3.5-7.7.039-5.431,3.534q4.807,7.382,9.609,14.751-7.379,4.8-14.757,9.6C570.916,574.907,574.452,580.332,577.951,578.054Z"/><path d="M168.833,588.828a2.968,2.968,0,0,0,1.031-2.221l0-.072a2.978,2.978,0,0,0-.867-2.284q-7.1-7.623-14.2-15.253c-2.848-3.056-7.588,1.354-4.745,4.407q6,6.459,12,12.888L149.17,598.284a3.1,3.1,0,0,0-.982,1.716h8.651Z"/><path d="M580.933,532.249l.067,0a3,3,0,0,0,2.11-1.231q6.372-8.255,12.731-16.5c2.546-3.307-2.585-7.26-5.133-3.956q-5.38,6.973-10.745,13.943-6.97-5.386-13.941-10.75c-3.307-2.546-7.26,2.583-3.956,5.134q8.247,6.354,16.506,12.722A3,3,0,0,0,580.933,532.249Z"/><path d="M30.779,596.976l-.063.031a2.984,2.984,0,0,0-1.641,1.811q-.215.591-.428,1.182h13.21q-4.317-1.563-8.633-3.125A3.006,3.006,0,0,0,30.779,596.976Z"/><path d="M563.244,600h11.035l-6.647-2.779A3.178,3.178,0,0,0,563.244,600Z"/><path d="M580.844,426.592c-1.714,3.8,4.185,6.468,5.9,2.665q4.287-9.493,8.578-18.99a2.982,2.982,0,0,0,.1-2.443l-.029-.062a2.959,2.959,0,0,0-1.68-1.782q-9.5-4.293-18.99-8.582c-3.806-1.714-6.473,4.19-2.67,5.9q8.024,3.629,16.041,7.248Q584.467,418.568,580.844,426.592Z"/><path d="M151.18,561.447c3.334,2.51,7.234-2.66,3.9-5.175q-8.319-6.27-16.644-12.541a2.974,2.974,0,0,0-2.365-.627l-.067.01a2.958,2.958,0,0,0-2.1,1.255q-6.277,8.319-12.546,16.644c-2.512,3.335,2.66,7.23,5.175,3.895q5.3-7.03,10.593-14.062Q144.144,556.155,151.18,561.447Z"/><path d="M600,599.588V588.242q-3.732,5.367-7.466,10.735a3.349,3.349,0,0,0-.476,1.023h7.655Z"/><path d="M212.447,9.191Q213.755,4.6,215.068,0H208.33q-1.058,3.705-2.117,7.41C205.068,11.421,211.3,13.2,212.447,9.191Z"/><path d="M153.587,3.029,156.839,0h-8.651C147.706,2.627,151.093,5.344,153.587,3.029Z"/><path d="M98.394,593.818q5.025-7.235,10.05-14.46,7.218,5.036,14.447,10.057c3.428,2.38,7.125-2.935,3.7-5.319q-8.557-5.944-17.107-11.9a2.97,2.97,0,0,0-2.392-.531l-.067.01A3,3,0,0,0,104.973,573q-5.944,8.559-11.9,17.112C90.69,593.542,96,597.24,98.394,593.818Z"/><path d="M198.474,18.547l-.063.02a2.985,2.985,0,0,0-1.776,1.682q-4.287,9.5-8.583,18.994c-1.718,3.807,4.181,6.471,5.906,2.668q3.624-8.024,7.243-16.041,8.024,3.627,16.046,7.25c3.8,1.714,6.468-4.185,2.664-5.906q-9.492-4.29-18.994-8.58A2.959,2.959,0,0,0,198.474,18.547Z"/><path d="M173.948,61.06q8.322,6.27,16.643,12.545a3,3,0,0,0,2.368.625l.065-.012a2.992,2.992,0,0,0,2.1-1.25q6.267-8.326,12.543-16.639c2.513-3.338-2.662-7.236-5.177-3.905q-5.3,7.03-10.591,14.061-7.026-5.3-14.056-10.595C174.512,53.375,170.617,58.545,173.948,61.06Z"/><path d="M489.043.487a2.989,2.989,0,0,0,.984,2.24l.049.048a2.978,2.978,0,0,0,2.29.861L513.2,3.084A3.031,3.031,0,0,0,516.229,0h-27.2Z"/><path d="M592.058,0A2.835,2.835,0,0,0,592,1.367l.015.062a2.954,2.954,0,0,0,1.332,2.052L600,8.112V.229L599.7.02l.014-.02Z"/><path d="M579.522,470.343l.051.046a2.967,2.967,0,0,0,2.312.794l18.115-1V463.7q-7.623.422-15.24.844-.489-8.791-.968-17.576c-.234-4.166-6.7-3.808-6.473.357q.579,10.4,1.153,20.81A2.988,2.988,0,0,0,579.522,470.343Z"/><path d="M565.136,3.2q8.124,3.393,16.241,6.787-3.4,8.116-6.794,16.239c-1.6,3.852,4.371,6.347,5.981,2.5Q584.583,19.115,588.6,9.5a2.965,2.965,0,0,0,.022-2.443l-.024-.067a2.958,2.958,0,0,0-1.733-1.724Q580.571,2.633,574.279,0H563.244A2.956,2.956,0,0,0,565.136,3.2Z"/><path d="M177.022,24.6a2.974,2.974,0,0,0-1.689-1.761l-19.048-8.472c-3.811-1.694-6.446,4.224-2.63,5.92q8.043,3.581,16.083,7.152-3.573,8.037-7.154,16.079c-1.689,3.823,4.224,6.449,5.926,2.635q4.229-9.521,8.462-19.038a3,3,0,0,0,.079-2.452Z"/><path d="M328.853,0h-8.389q1.45,1.507,2.9,3.013C325.813,5.551,329.5,2.743,328.853,0Z"/><path d="M41.107,549.344q-2.433-10.13-4.865-20.264a2.987,2.987,0,0,0-1.429-1.984l-.058-.039a3,3,0,0,0-2.419-.367l-20.264,4.866c-4.057.975-2.544,7.27,1.514,6.3q8.562-2.057,17.114-4.117,2.049,8.557,4.113,17.116C35.788,554.914,42.087,553.4,41.107,549.344Z"/><path d="M139.132,76.656q7.555-4.533,15.1-9.051,4.518,7.545,9.051,15.094c2.148,3.577,7.7.249,5.56-3.33q-5.364-8.935-10.718-17.875a3,3,0,0,0-1.962-1.468l-.063-.014a2.976,2.976,0,0,0-2.419.367Q144.74,65.745,135.8,71.1C132.222,73.243,135.553,78.794,139.132,76.656Z"/><path d="M41.4,577.879q-8.421-2.594-16.827-5.17,2.587-8.415,5.174-16.828c1.222-3.992-4.967-5.889-6.2-1.9q-3.051,9.963-6.12,19.927a2.99,2.99,0,0,0,.217,2.433l.034.057a2.98,2.98,0,0,0,1.892,1.55l19.921,6.123C43.485,585.3,45.387,579.105,41.4,577.879Z"/><path d="M61.548,535.366c-.246,4.166,6.213,4.557,6.469.391q.626-10.39,1.255-20.8a2.978,2.978,0,0,0-.782-2.317l-.044-.048a2.978,2.978,0,0,0-2.206-1.062q-10.4-.622-20.8-1.265c-4.166-.246-4.557,6.218-.391,6.471q8.79.533,17.57,1.059Q62.08,526.586,61.548,535.366Z"/><path d="M143.749,26.763q-8.539-2.151-17.068-4.311Q128.838,13.923,131,5.389c1.023-4.045-5.254-5.636-6.28-1.589q-2.549,10.093-5.107,20.2a2.971,2.971,0,0,0,.342,2.421l.037.058a2.981,2.981,0,0,0,1.967,1.458q10.1,2.549,20.2,5.107C146.206,34.071,147.794,27.791,143.749,26.763Z"/><path d="M14.152,10.065Q7.077,5.141,0,.229V8.112q5.228,3.638,10.452,7.275C13.881,17.772,17.582,12.45,14.152,10.065Z"/><path d="M28.076,20.622q3-8.284,5.987-16.552,8.28,3,16.553,5.99c3.924,1.419,6.128-4.668,2.2-6.092Q47.339,1.988,41.857,0H28.647q-3.328,9.212-6.663,18.416C20.562,22.345,26.652,24.546,28.076,20.622Z"/><path d="M87.18,264.4q3.006-8.276,6.015-16.545,8.273,3.017,16.542,6.022c3.925,1.429,6.138-4.653,2.216-6.082q-9.793-3.562-19.583-7.13a2.985,2.985,0,0,0-2.448.1l-.058.024a2.971,2.971,0,0,0-1.641,1.815q-3.57,9.789-7.134,19.584C79.665,266.11,85.747,268.326,87.18,264.4Z"/><path d="M36.138,200.857q8.784-.543,17.566-1.095.548,8.782,1.094,17.568c.263,4.168,6.726,3.763,6.47-.4q-.659-10.4-1.3-20.8a2.966,2.966,0,0,0-1.064-2.2l-.049-.049a3.008,3.008,0,0,0-2.319-.782q-10.4.653-20.8,1.294C31.567,194.65,31.968,201.118,36.138,200.857Z"/><path d="M75.113,207.451q4.426,9.427,8.853,18.869a2.992,2.992,0,0,0,1.8,1.661l.068.024a2.975,2.975,0,0,0,2.442-.13q9.435-4.425,18.87-8.844c3.779-1.773,1.028-7.636-2.752-5.869q-7.972,3.743-15.934,7.477-3.736-7.972-7.473-15.942C79.208,200.92,73.341,203.671,75.113,207.451Z"/><path d="M35.168,172.426q-10.408-.337-20.831-.681a2.971,2.971,0,0,0-2.291.85l-.053.048a2.977,2.977,0,0,0-.994,2.23q-.348,10.419-.693,20.834c-.128,4.171,6.341,4.38,6.48.212q.291-8.808.575-17.6,8.8.3,17.6.586C39.127,179.034,39.339,172.566,35.168,172.426Z"/><path d="M10.447,59.64Q5.224,60.015,0,60.385v6.492q5.454-.385,10.91-.774C15.071,65.807,14.612,59.35,10.447,59.64Z"/><path d="M141.862,183.214H141.8a2.99,2.99,0,0,0-2.281.888q-7.555,7.183-15.111,14.351c-3.025,2.873,1.436,7.574,4.462,4.7q6.387-6.067,12.763-12.13,6.06,6.386,12.121,12.767c2.877,3.022,7.571-1.433,4.7-4.465q-7.176-7.548-14.356-15.109A2.987,2.987,0,0,0,141.862,183.214Z"/><path d="M2.338,463.568,0,463.7v6.49l2.7-.148C6.863,469.8,6.506,463.339,2.338,463.568Z"/><path d="M184.538,220.282q-10.361,1.107-20.723,2.2a3,3,0,0,0-2.157,1.158l-.041.058a2.973,2.973,0,0,0-.679,2.351q1.106,10.354,2.2,20.723c.442,4.149,6.878,3.466,6.442-.686q-.932-8.757-1.861-17.5,8.761-.927,17.508-1.858C189.375,226.286,188.69,219.847,184.538,220.282Z"/><path d="M118.45,180.226q-9.8-3.548-19.6-7.091a2.985,2.985,0,0,0-2.447.1l-.063.027a2.981,2.981,0,0,0-1.636,1.82q-3.548,9.8-7.1,19.593c-1.419,3.924,4.67,6.13,6.094,2.2q3-8.279,5.988-16.549,8.272,3,16.552,5.99C120.169,187.737,122.375,181.646,118.45,180.226Z"/><path d="M114.06,232.991l19.95,6.02a2.994,2.994,0,0,0,2.436-.227l.058-.032a2.972,2.972,0,0,0,1.54-1.9q3.015-9.971,6.029-19.948c1.206-4-5-5.872-6.206-1.875q-2.546,8.434-5.085,16.851-8.424-2.549-16.851-5.092C111.934,225.587,110.063,231.78,114.06,232.991Z"/><path d="M55.14,384.6a3,3,0,0,0,2.216,1.033q10.416.514,20.817,1.033c4.166.2,4.489-6.261.321-6.473q-8.8-.435-17.583-.864.435-8.8.872-17.585c.2-4.166-6.264-4.487-6.471-.319q-.514,10.406-1.028,20.817a2.98,2.98,0,0,0,.815,2.305Z"/><path d="M98.076,473.622q3-8.285,5.987-16.552,8.28,3,16.553,5.99c3.924,1.419,6.128-4.668,2.2-6.092q-9.8-3.54-19.595-7.093a3.006,3.006,0,0,0-2.445.1l-.063.031a2.984,2.984,0,0,0-1.641,1.811q-3.541,9.8-7.091,19.6C90.562,475.345,96.652,477.546,98.076,473.622Z"/><path d="M100.2,355.663l.041-.053a2.978,2.978,0,0,0,.685-2.351q-1.086-10.37-2.172-20.728c-.44-4.151-6.879-3.471-6.444.676q.919,8.762,1.836,17.508-8.749.917-17.5,1.834c-4.151.439-3.476,6.879.676,6.449q10.36-1.094,20.727-2.182A2.984,2.984,0,0,0,100.2,355.663Z"/><path d="M163.173,424.763q-8.562-2.031-17.129-4.05,2.031-8.567,4.053-17.132c.958-4.064-5.344-5.551-6.309-1.491Q141.4,412.233,139,422.368a2.979,2.979,0,0,0,.377,2.419l.036.058a2.968,2.968,0,0,0,1.994,1.424q10.14,2.4,20.278,4.8C165.749,432.023,167.238,425.723,163.173,424.763Z"/><path d="M65.671,300.383l.05-.037a2.97,2.97,0,0,0,1.316-2.063q1.854-10.26,3.717-20.506c.746-4.11-5.629-5.266-6.372-1.158q-1.578,8.667-3.138,17.324-8.66-1.578-17.324-3.147c-4.1-.741-5.259,5.633-1.154,6.381q10.253,1.851,20.506,3.712A2.978,2.978,0,0,0,65.671,300.383Z"/><path d="M30.708,382.878q-10.411-.34-20.831-.686a3.016,3.016,0,0,0-2.293.855l-.046.043a2.976,2.976,0,0,0-1,2.235q-.345,10.412-.691,20.829c-.135,4.176,6.338,4.383,6.478.213q.3-8.8.575-17.593,8.8.286,17.6.582C34.671,389.488,34.883,383.013,30.708,382.878Z"/><path d="M30.48,367.228q4.485-9.406,8.98-18.807c1.8-3.772-4.052-6.56-5.85-2.8q-3.791,7.944-7.578,15.891-7.944-3.8-15.886-7.586c-3.773-1.793-6.558,4.053-2.8,5.851q9.413,4.478,18.816,8.971a3,3,0,0,0,2.442.145l.063-.024A2.973,2.973,0,0,0,30.48,367.228Z"/><path d="M8.909,434.793q7.983-3.721,15.953-7.438,3.716,7.978,7.437,15.953c1.764,3.785,7.636,1.053,5.872-2.732q-4.4-9.441-8.8-18.893a2.981,2.981,0,0,0-1.8-1.66L27.508,420a2.965,2.965,0,0,0-2.443.121q-9.449,4.4-18.888,8.8C2.392,430.685,5.124,436.555,8.909,434.793Z"/><path d="M137.824,387.261l.065-.005a2.971,2.971,0,0,0,2.139-1.187q6.53-8.126,13.057-16.244c2.611-3.258-2.438-7.308-5.054-4.059q-5.517,6.864-11.02,13.723-6.858-5.51-13.724-11.03c-3.258-2.606-7.313,2.443-4.057,5.059q8.121,6.516,16.248,13.048A2.99,2.99,0,0,0,137.824,387.261Z"/><path d="M15.173,324.763Q7.589,322.963,0,321.175v6.654q6.843,1.618,13.684,3.238C17.749,332.023,19.238,325.723,15.173,324.763Z"/><path d="M11.126,123.561a2.972,2.972,0,0,0-.816-2.308Q5.153,115.475,0,109.69v9.734q1.664,1.863,3.326,3.726Q1.659,124.631,0,126.116v8.679l10.05-8.966a3.007,3.007,0,0,0,1.076-2.2Z"/><path d="M9.574,164.113Q4.789,159.079,0,154.037v9.4l4.877,5.137C7.754,171.6,12.448,167.144,9.574,164.113Z"/><path d="M66.105,259.159l.053-.039a2.975,2.975,0,0,0,1.349-2.041q2.028-10.224,4.053-20.443c.816-4.1-5.542-5.358-6.357-1.26q-1.706,8.638-3.416,17.271-8.634-1.722-17.264-3.427c-4.1-.811-5.358,5.542-1.264,6.358q10.22,2.019,20.442,4.049A3.016,3.016,0,0,0,66.105,259.159Z"/><path d="M185.571,275.9l.053-.043a2.963,2.963,0,0,0,1.3-2.071q1.792-10.268,3.584-20.53c.715-4.112-5.662-5.227-6.386-1.115q-1.513,8.679-3.019,17.344-8.675-1.519-17.344-3.031c-4.11-.715-5.223,5.667-1.113,6.386q10.267,1.785,20.532,3.577A3.026,3.026,0,0,0,185.571,275.9Z"/><path d="M60.129,315.943l-.058.041a3,3,0,0,0-1.235,2.109q-1.485,10.318-2.969,20.631c-.594,4.132,5.819,5.054,6.418.917q1.248-8.709,2.5-17.418,8.713,1.255,17.423,2.5c4.132.591,5.054-5.819.922-6.413q-10.314-1.476-20.628-2.963A2.978,2.978,0,0,0,60.129,315.943Z"/><path d="M15.744,226.769q8.222-3.138,16.441-6.289,3.135,8.217,6.285,16.441c1.492,3.9,7.543,1.588,6.053-2.317q-3.729-9.725-7.45-19.458a2.985,2.985,0,0,0-1.673-1.791l-.063-.024a2.955,2.955,0,0,0-2.442-.053q-9.74,3.721-19.468,7.443C9.527,222.213,11.844,228.261,15.744,226.769Z"/><path d="M3.906,206.711Q2.387,196.409.87,186.1A3.084,3.084,0,0,0,0,184.309v25.957A3.2,3.2,0,0,0,3.906,206.711Z"/><path d="M0,299.9v12.547q1.047-4.431,2.1-8.864A3.015,3.015,0,0,0,0,299.9Z"/><path d="M184.519,339.8c2.148,3.577,7.7.246,5.561-3.336q-5.358-8.928-10.716-17.874a2.969,2.969,0,0,0-1.96-1.468l-.063-.019a2.987,2.987,0,0,0-2.418.374q-8.939,5.358-17.878,10.714c-3.584,2.145-.248,7.7,3.331,5.555q7.556-4.524,15.1-9.053Q180,332.25,184.519,339.8Z"/><path d="M313.564,11.509Q308.626,18.8,303.7,26.092q-7.291-4.945-14.578-9.874c-3.456-2.339-7.086,3.024-3.635,5.365q8.631,5.844,17.26,11.682a2.963,2.963,0,0,0,2.394.507l.068-.015a2.969,2.969,0,0,0,2.037-1.356q5.843-8.624,11.684-17.255C321.266,11.688,315.908,8.058,313.564,11.509Z"/><path d="M0,248.453q5.286,4.074,10.572,8.149a3,3,0,0,0,2.361.647l.067,0a3,3,0,0,0,2.11-1.231q6.372-8.254,12.731-16.5c2.547-3.307-2.585-7.26-5.133-3.956q-5.38,6.974-10.745,13.943Q5.983,244.873,0,240.272Z"/><path d="M177.206,303.646c3.528,2.23,6.99-3.244,3.461-5.477q-8.808-5.563-17.619-11.128a2.975,2.975,0,0,0-2.409-.43l-.062.017a2.984,2.984,0,0,0-2,1.421q-5.564,8.813-11.133,17.619c-2.226,3.524,3.246,6.985,5.479,3.459q4.706-7.443,9.4-14.884Q169.766,298.948,177.206,303.646Z"/><path d="M108.272,321.023q10.388-.861,20.769-1.713a3.006,3.006,0,0,0,2.187-1.111l.041-.053a2.954,2.954,0,0,0,.736-2.331q-.855-10.383-1.709-20.771c-.348-4.159-6.8-3.625-6.459.536q.724,8.775,1.448,17.541-8.767.725-17.541,1.444C103.583,314.907,104.114,321.361,108.272,321.023Z"/><path d="M131.855,332.068l-.067.009a2.977,2.977,0,0,0-2.093,1.265q-6.219,8.37-12.437,16.726c-2.486,3.355,2.708,7.212,5.2,3.867q5.248-7.068,10.5-14.13,7.059,5.257,14.123,10.5c3.355,2.486,7.217-2.708,3.867-5.2l-16.731-12.43A2.977,2.977,0,0,0,131.855,332.068Z"/><path d="M146.385,252.488Q137.1,257.2,127.8,261.93a2.991,2.991,0,0,0-1.6,1.851l-.02.065a2.964,2.964,0,0,0,.2,2.433q4.72,9.3,9.442,18.585c1.892,3.716,7.666.786,5.778-2.94q-3.99-7.85-7.977-15.693,7.845-3.975,15.691-7.965C153.036,256.369,150.1,250.6,146.385,252.488Z"/><path d="M95.439,373.248Q94.514,383.616,93.581,394a2.992,2.992,0,0,0,.719,2.339l.046.051a2.965,2.965,0,0,0,2.172,1.124q10.38.927,20.757,1.861c4.158.374,4.738-6.079.582-6.451q-8.776-.789-17.537-1.574.789-8.762,1.573-17.527C102.265,369.668,95.816,369.092,95.439,373.248Z"/><path d="M579.76,106.425q-9.228,4.829-18.466,9.659a2.975,2.975,0,0,0-1.579,1.868l-.024.062a3.008,3.008,0,0,0,.232,2.438q4.83,9.233,9.654,18.471c1.941,3.695,7.675.7,5.744-3q-4.076-7.8-8.157-15.6,7.8-4.077,15.6-8.153C586.462,110.226,583.46,104.489,579.76,106.425Z"/><path d="M579.867,167.941q6.387-6.068,12.763-12.131l7.37,7.763v-9.4q-2.454-2.584-4.908-5.166a2.984,2.984,0,0,0-2.23-1H592.8a2.99,2.99,0,0,0-2.281.888q-7.555,7.183-15.111,14.351C572.38,166.111,576.841,170.813,579.867,167.941Z"/><path d="M568.839,72.394a3.015,3.015,0,0,0-2.052-1.335l-.067-.012a2.983,2.983,0,0,0-2.39.538q-8.555,5.952-17.107,11.9c-3.427,2.382.272,7.7,3.7,5.322q7.23-5.033,14.45-10.06,5.017,7.226,10.05,14.453c2.384,3.427,7.7-.271,5.319-3.7Q574.787,80.952,568.839,72.394Z"/><path d="M562.814,35.4q-10.1,2.541-20.211,5.083a3,3,0,0,0-1.974,1.448l-.031.06a2.977,2.977,0,0,0-.348,2.421q2.538,10.108,5.076,20.211c1.018,4.05,7.3,2.471,6.285-1.579q-2.144-8.537-4.292-17.068,8.537-2.136,17.074-4.287C568.443,40.67,566.864,34.387,562.814,35.4Z"/><path d="M570.364,349.868q-4.083-7.806-8.16-15.6,7.8-4.08,15.6-8.153c3.7-1.94.7-7.68-3-5.746q-9.228,4.84-18.47,9.656a3.024,3.024,0,0,0-1.579,1.873l-.017.068a2.964,2.964,0,0,0,.229,2.43q4.83,9.243,9.655,18.471C566.558,356.568,572.295,353.57,570.364,349.868Z"/><path d="M542.332,3.873,545.026,0h-7.891l-.122.175C534.633,3.605,539.946,7.305,542.332,3.873Z"/><path d="M587.647,45.844Q593.824,46.918,600,48V41.422q-5.619-.981-11.24-1.964C584.65,38.743,583.537,45.125,587.647,45.844Z"/><path d="M600,327.829v-6.654q-.978-.231-1.956-.462.981-4.134,1.956-8.268V299.9a3.1,3.1,0,0,0-4.212,2.192Q593.4,312.233,591,322.368a2.979,2.979,0,0,0,.377,2.419l.036.058a2.968,2.968,0,0,0,1.994,1.424Q596.7,327.048,600,327.829Z"/><path d="M420.72,6.8c-1.419,3.93,4.668,6.128,6.1,2.2q1.626-4.5,3.255-9h-6.891Q421.95,3.4,420.72,6.8Z"/><path d="M172.033,413.479q7.625-7.1,15.252-14.2a3,3,0,0,0,1.03-2.225v-.068a2.978,2.978,0,0,0-.866-2.285q-7.1-7.627-14.2-15.256c-2.845-3.053-7.586,1.361-4.743,4.417q6,6.444,12,12.878-6.444,6-12.884,11.993C164.564,411.58,168.973,416.325,172.033,413.479Z"/><path d="M353.251,0h-5.765C348.638,2.347,352.121,2.044,353.251,0Z"/><path d="M535.737,31.378a2.954,2.954,0,0,0,2.271.908h.07a2.951,2.951,0,0,0,2.235-.99l14.481-14.988c2.9-3.007-1.762-7.5-4.668-4.5L537.9,24.476q-6.329-6.126-12.662-12.232c-3-2.9-7.5,1.757-4.5,4.663Q528.241,24.14,535.737,31.378Z"/><path d="M316.8,91.683q8.649-1.665,17.286-3.331Q335.74,97,337.4,105.638c.787,4.1,7.149,2.882,6.365-1.217q-1.974-10.23-3.937-20.467A3,3,0,0,0,338.5,81.9l-.058-.032a2.975,2.975,0,0,0-2.4-.482q-10.231,1.965-20.464,3.929C311.472,86.107,312.7,92.465,316.8,91.683Z"/><path d="M330.773,29.828a2.977,2.977,0,0,0,1.967,1.451q10.1,2.551,20.206,5.112c4.05,1.02,5.634-5.26,1.588-6.285Q346,27.952,337.466,25.8q2.16-8.536,4.32-17.068C342.8,4.681,336.529,3.1,335.5,7.141q-2.548,10.1-5.107,20.206a2.989,2.989,0,0,0,.345,2.423Z"/><path d="M504.841,52.694q8.7,1.369,17.392,2.737-1.372,8.689-2.742,17.383c-.642,4.127,5.754,5.133,6.4,1.009q1.615-10.29,3.237-20.586a3,3,0,0,0-.562-2.382l-.041-.058a2.987,2.987,0,0,0-2.1-1.265q-10.293-1.614-20.59-3.243C501.727,45.647,500.721,52.047,504.841,52.694Z"/><path d="M543.651,407.875l.065-.012a2.976,2.976,0,0,0,2.025-1.373q5.781-8.664,11.566-17.337c2.312-3.475-3.075-7.067-5.395-3.6q-4.884,7.327-9.765,14.648-7.312-4.884-14.64-9.768c-3.474-2.317-7.072,3.075-3.6,5.387q8.674,5.778,17.344,11.566A2.989,2.989,0,0,0,543.651,407.875Z"/><path d="M498.059,12.856q-1.449,8.682-2.909,17.358-8.677-1.462-17.36-2.915c-4.113-.693-5.185,5.7-1.07,6.391q10.272,1.716,20.552,3.446a2.976,2.976,0,0,0,2.387-.54l.055-.034A2.98,2.98,0,0,0,501,34.477q1.728-10.275,3.457-20.549C505.143,9.81,498.759,8.739,498.059,12.856Z"/><path d="M321.083,48.948q4.829,9.233,9.656,18.469A3,3,0,0,0,332.605,69l.067.015a2.968,2.968,0,0,0,2.433-.222l18.474-9.657c3.695-1.938.695-7.672-3-5.744q-7.8,4.08-15.6,8.16-4.077-7.8-8.153-15.606C324.886,42.248,319.145,45.251,321.083,48.948Z"/><path d="M242.319,462.322q.579,10.4,1.153,20.81a2.988,2.988,0,0,0,1.05,2.211l.051.046a2.967,2.967,0,0,0,2.312.794l20.81-1.144c4.168-.237,3.811-6.7-.357-6.471q-8.795.485-17.578.973-.489-8.791-.968-17.576C248.558,457.8,242.092,458.157,242.319,462.322Z"/><path d="M343.241,561.35c2.445,3.384,7.7-.4,5.259-3.789q-5.148-7.143-10.3-14.279,7.14-5.148,14.279-10.291c3.384-2.447-.405-7.7-3.794-5.259q-8.439,6.093-16.9,12.191a3,3,0,0,0-1.3,2.08l-.012.068a3,3,0,0,0,.575,2.38Q337.147,552.9,343.241,561.35Z"/><path d="M278.251,402.012q-5.73,6.684-11.461,13.362-6.68-5.738-13.357-11.469c-3.169-2.718-7.388,2.2-4.221,4.919q7.907,6.78,15.818,13.573a3,3,0,0,0,2.317.777l.068-.009a2.971,2.971,0,0,0,2.177-1.12q6.792-7.906,13.578-15.809C285.888,403.065,280.972,398.851,278.251,402.012Z"/><path d="M320.885,527.271a2.977,2.977,0,0,0,2.225,1.009h.07a2.962,2.962,0,0,0,2.281-.879q7.581-7.156,15.152-14.3c3.036-2.869-1.412-7.576-4.446-4.713q-6.4,6.045-12.8,12.087-6.047-6.4-12.088-12.8c-2.867-3.036-7.573,1.41-4.711,4.446Z"/><path d="M250.346,367.88c2.858,3.041,7.579-1.39,4.728-4.436q-7.128-7.6-14.264-15.2a2.967,2.967,0,0,0-2.22-1.013l-.068,0a2.977,2.977,0,0,0-2.285.873q-7.6,7.137-15.2,14.255c-3.043,2.86,1.385,7.583,4.431,4.731q6.43-6.033,12.838-12.047Q244.326,361.46,250.346,367.88Z"/><path d="M192.291,378.369c.8,4.1,7.153,2.863,6.362-1.233q-1.995-10.227-3.985-20.465a2.992,2.992,0,0,0-1.34-2.041l-.057-.034a2.957,2.957,0,0,0-2.4-.478q-10.23,1.99-20.457,3.977c-4.1.8-2.857,7.157,1.236,6.363q8.645-1.687,17.281-3.365Q190.611,369.724,192.291,378.369Z"/><path d="M218.818,303.781q-8.6-1.926-17.177-3.843,1.926-8.593,3.847-17.179c.912-4.074-5.411-5.489-6.324-1.414q-2.272,10.165-4.549,20.336a3,3,0,0,0,.4,2.414l.041.053a2.966,2.966,0,0,0,2.006,1.4q10.173,2.269,20.336,4.554C221.475,311.014,222.9,304.7,218.818,303.781Z"/><path d="M200.772,332.439q8.327,6.267,16.644,12.541a2.971,2.971,0,0,0,2.365.628l.068-.01a2.988,2.988,0,0,0,2.1-1.25q6.274-8.319,12.548-16.644c2.51-3.335-2.662-7.231-5.175-3.9q-5.3,7.031-10.595,14.059-7.025-5.3-14.054-10.6C201.337,324.755,197.441,329.929,200.772,332.439Z"/><path d="M507.81,390.28q-2.31-8.5-4.625-16.984,8.493-2.31,16.992-4.615c4.021-1.1,2.324-7.351-1.7-6.261q-10.051,2.745-20.11,5.479a3.007,3.007,0,0,0-1.946,1.482l-.028.063a2.962,2.962,0,0,0-.3,2.423q2.738,10.057,5.469,20.115C502.656,396.008,508.9,394.311,507.81,390.28Z"/><path d="M473.375,531.413l.061-.029a2.979,2.979,0,0,0,1.675-1.789q3.725-9.727,7.457-19.46c1.487-3.9-4.556-6.215-6.053-2.317q-3.149,8.219-6.294,16.441-8.218-3.153-16.437-6.3c-3.9-1.486-6.217,4.557-2.316,6.054q9.727,3.721,19.462,7.448A2.988,2.988,0,0,0,473.375,531.413Z"/><path d="M435.167,571.845l18.56-9.476a2.991,2.991,0,0,0,1.6-1.849l.02-.067a2.968,2.968,0,0,0-.206-2.438q-4.738-9.282-9.473-18.56c-1.9-3.72-7.665-.778-5.77,2.939q4,7.849,8,15.684-7.84,3.988-15.678,8C428.505,567.973,431.445,573.742,435.167,571.845Z"/><path d="M353.548,597.9q-1.683-8.652-3.36-17.286l17.286-3.345c4.1-.8,2.863-7.159-1.235-6.367q-10.231,1.985-20.46,3.973a3.017,3.017,0,0,0-2.049,1.337l-.039.058a3,3,0,0,0-.475,2.4q1.987,10.231,3.97,20.462a3.392,3.392,0,0,0,.3.867h5.765A3.032,3.032,0,0,0,353.548,597.9Z"/><path d="M496.439,487.066q-8.07-6.592-16.134-13.188a3.022,3.022,0,0,0-2.341-.724l-.068.015a2.961,2.961,0,0,0-2.148,1.163q-6.6,8.07-13.2,16.132c-2.636,3.234,2.374,7.328,5.02,4.106q5.575-6.825,11.141-13.634,6.813,5.582,13.624,11.15C495.57,494.727,499.671,489.707,496.439,487.066Z"/><path d="M415.361,528.8q-7.6,7.122-15.215,14.24a3,3,0,0,0-1.024,2.225l0,.068A3,3,0,0,0,400,547.62q7.118,7.613,14.23,15.217c2.858,3.046,7.584-1.375,4.738-4.426q-6.017-6.43-12.031-12.85,6.429-6.014,12.859-12.029C422.838,530.679,418.411,525.953,415.361,528.8Z"/><path d="M430.214,478.966q-7.183-7.551-14.356-15.109a3,3,0,0,0-2.23-1h-.068a2.95,2.95,0,0,0-2.278.889q-7.56,7.174-15.114,14.35c-3.024,2.877,1.436,7.574,4.465,4.7q6.38-6.067,12.761-12.13,6.057,6.39,12.118,12.767C428.391,486.456,433.086,481.993,430.214,478.966Z"/><path d="M434.9,517.245q-.492-8.79-.985-17.573,8.787-.489,17.576-.977c4.168-.239,3.8-6.7-.362-6.473q-10.406.585-20.812,1.165a2.989,2.989,0,0,0-2.209,1.055l-.043.043a2.984,2.984,0,0,0-.8,2.313q.581,10.414,1.159,20.814C428.667,521.778,435.128,521.416,434.9,517.245Z"/></g></g></g></svg>