<?xml version="1.0" encoding="utf-8"?>
<!-- Generator: Adobe Illustrator 15.0.2, SVG Export Plug-In . SVG Version: 6.00 Build 0)  -->
<!DOCTYPE svg PUBLIC "-//W3C//DTD SVG 1.1//EN" "http://www.w3.org/Graphics/SVG/1.1/DTD/svg11.dtd">
<svg version="1.1" id="Layer_1" xmlns="http://www.w3.org/2000/svg" xmlns:xlink="http://www.w3.org/1999/xlink" x="0px" y="0px"
	 width="47.2px" height="41px" viewBox="0 0 47.2 41" enable-background="new 0 0 47.2 41" xml:space="preserve">
<g>
	<defs>
		<rect id="SVGID_1_" width="47.2" height="41"/>
	</defs>
	<clipPath id="SVGID_2_">
		<use xlink:href="#SVGID_1_"  overflow="visible"/>
	</clipPath>
	
		<path clip-path="url(#SVGID_2_)" fill="none" stroke="#333333" stroke-width="2.2778" stroke-linecap="round" stroke-linejoin="round" d="
		M42.1,21.4l0.6-0.6c2.1-2.1,3.3-4.9,3.3-8.1c0-6.4-5.1-11.5-11.5-11.5c-5.1,0-9.5,3.4-11,8c-1.5-4.6-5.8-8-11-8
		C6.3,1.1,1.1,6.3,1.1,12.6c0,3.1,1.3,6,3.3,8.1l19.1,19.1l4.7-4.7"/>
	
		<path clip-path="url(#SVGID_2_)" fill="none" stroke="#333333" stroke-width="2.2778" stroke-linecap="round" stroke-linejoin="round" d="
		M42.5,25.7h-4.8v-4.8c0-0.8-0.6-1.4-1.4-1.4h-2.3c-0.8,0-1.4,0.6-1.4,1.4v4.8h-4.8c-0.8,0-1.4,0.6-1.4,1.4v2.3
		c0,0.8,0.6,1.4,1.4,1.4h4.8v4.8c0,0.8,0.6,1.4,1.4,1.4h2.3c0.8,0,1.4-0.6,1.4-1.4v-4.8h4.8c0.8,0,1.4-0.6,1.4-1.4v-2.3
		C43.9,26.3,43.3,25.7,42.5,25.7z"/>
</g>
</svg>
