<?xml version="1.0" encoding="utf-8"?>
<!-- Generator: Adobe Illustrator 15.0.2, SVG Export Plug-In . SVG Version: 6.00 Build 0)  -->
<!DOCTYPE svg PUBLIC "-//W3C//DTD SVG 1.1//EN" "http://www.w3.org/Graphics/SVG/1.1/DTD/svg11.dtd">
<svg version="1.1" id="Layer_1" xmlns="http://www.w3.org/2000/svg" xmlns:xlink="http://www.w3.org/1999/xlink" x="0px" y="0px"
	 width="42.4px" height="41px" viewBox="0 0 42.4 41" enable-background="new 0 0 42.4 41" xml:space="preserve">
<g>
	<defs>
		<rect id="SVGID_1_" width="42.4" height="41"/>
	</defs>
	<clipPath id="SVGID_2_">
		<use xlink:href="#SVGID_1_"  overflow="visible"/>
	</clipPath>
	<path clip-path="url(#SVGID_2_)" fill="none" stroke="#333333" stroke-width="2.2778" d="M41.3,35.3c0,2.5-2,4.5-4.5,4.5H5.7
		c-2.5,0-4.5-2-4.5-4.5V13.6c0-2.5,2-4.5,4.5-4.5h31.1c2.5,0,4.5,2,4.5,4.5V35.3z"/>
	<path clip-path="url(#SVGID_2_)" fill="none" stroke="#333333" stroke-width="2.2778" d="M11,9.1V2.5c0-0.8,0.6-1.4,1.4-1.4h17.8
		c0.8,0,1.4,0.6,1.4,1.4v6.6"/>
	<polyline clip-path="url(#SVGID_2_)" fill="none" stroke="#333333" stroke-width="1.8222" stroke-linejoin="round" points="14.2,9 
		14.2,4.7 28.2,4.7 28.2,9 	"/>
	<path clip-path="url(#SVGID_2_)" fill="none" stroke="#333333" stroke-width="1.8222" stroke-linejoin="round" d="M29.6,21.6h-5.5
		v-5.5c0-0.5-0.4-0.9-0.9-0.9h-3.9c-0.5,0-0.9,0.4-0.9,0.9v5.5h-5.5c-0.5,0-0.9,0.4-0.9,0.9v3.9c0,0.5,0.4,0.9,0.9,0.9h5.5v5.5
		c0,0.5,0.4,0.9,0.9,0.9h3.9c0.5,0,0.9-0.4,0.9-0.9v-5.5h5.5c0.5,0,0.9-0.4,0.9-0.9v-3.9C30.5,22,30.1,21.6,29.6,21.6z"/>
</g>
</svg>
