<svg xmlns="http://www.w3.org/2000/svg" viewBox="0 0 108.65 75.25"><defs><style>.cls-1{fill:#00b5de;opacity:0.5;}.cls-2{stroke:#000;stroke-miterlimit:10;stroke-width:0.564px;}.cls-3{fill:#00aa9d;}.cls-4{fill:#f1613a;}.cls-5{fill:#0095c2;}.cls-6{opacity:0.4;}.cls-7{fill:#6441e2;}</style></defs><title>Asset 1</title><g id="Layer_2" data-name="Layer 2"><g id="Layer_1-2" data-name="Layer 1"><polygon class="cls-1" points="77.056 0 45.463 54.721 108.65 54.721 77.056 0"/><path class="cls-2" d="M76.431,74.968H.282V5.22H76.431ZM2.219,73.03H74.493V7.157H2.219Z"/><rect class="cls-2" x="22.472" y="9.077" width="49.679" height="1.938"/><path class="cls-2" d="M20.026,14.871H.282V5.22H20.026ZM2.219,12.934H18.088V7.157H2.219Z"/><rect class="cls-3" x="5.154" y="9.116" width="1.713" height="1.859"/><rect class="cls-4" x="9.3" y="9.116" width="1.713" height="1.859"/><rect class="cls-5" x="13.442" y="9.116" width="1.714" height="1.859"/><rect x="7.703" y="21.123" width="5.059" height="2.502"/><rect x="7.703" y="26.075" width="5.059" height="2.502"/><rect x="7.703" y="31.025" width="5.059" height="2.502"/><rect x="7.703" y="35.976" width="5.059" height="2.502"/><rect x="7.703" y="40.927" width="5.059" height="2.502"/><rect x="7.705" y="45.88" width="5.057" height="2.502"/><rect x="7.703" y="50.829" width="5.059" height="2.502"/><rect x="7.703" y="55.78" width="5.059" height="2.502"/><rect x="7.703" y="60.731" width="5.059" height="2.502"/><rect x="7.703" y="65.682" width="5.059" height="2.502"/><rect x="17.015" y="21.123" width="9.879" height="2.502"/><g class="cls-6"><rect class="cls-7" x="17.336" y="26.109" width="16.084" height="2.502"/></g><rect x="16.758" y="30.92" width="16.085" height="2.502"/><rect x="35.492" y="30.92" width="16.087" height="2.502"/><rect x="17.336" y="50.829" width="16.084" height="2.502"/><g class="cls-6"><rect class="cls-7" x="16.758" y="55.64" width="16.085" height="2.502"/></g><g class="cls-6"><rect class="cls-7" x="35.492" y="55.64" width="16.087" height="2.502"/></g><g class="cls-6"><rect class="cls-7" x="36.099" y="36.121" width="16.086" height="2.502"/></g><rect x="24.643" y="36.121" width="8.806" height="2.502"/><rect x="35.751" y="40.927" width="10.412" height="2.502"/><rect x="24.298" y="40.927" width="8.806" height="2.502"/><rect x="35.751" y="45.88" width="16.085" height="2.502"/><rect x="24.298" y="45.88" width="8.806" height="2.502"/><rect x="35.751" y="60.731" width="10.412" height="2.502"/><rect x="24.298" y="60.731" width="8.806" height="2.502"/><rect x="35.751" y="65.682" width="16.085" height="2.502"/><rect x="24.298" y="65.682" width="8.806" height="2.502"/></g></g></svg>