<svg xmlns="http://www.w3.org/2000/svg" viewBox="0 0 78 156"><title>Asset 10</title><g id="Layer_2" data-name="Layer 2"><g id="Layer_1-2" data-name="Layer 1"><circle cx="39" cy="117" r="39" style="fill:#bdecf7"/><path d="M48.84,107.976a10.139,10.139,0,0,0-3.624-2.688,9.785,9.785,0,0,0-3.528-.672,11.77,11.77,0,0,0-4.775.936,10.908,10.908,0,0,0-3.672,2.592,11.75,11.75,0,0,0-2.376,3.864,13.231,13.231,0,0,0-.84,4.752,14.588,14.588,0,0,0,.84,5.04,11.8,11.8,0,0,0,2.376,3.984,11.007,11.007,0,0,0,3.672,2.64,11.515,11.515,0,0,0,4.775.96A8.765,8.765,0,0,0,45.7,128.4a10.938,10.938,0,0,0,3.624-3.144l4.991,3.552a13.59,13.59,0,0,1-5.615,4.608,17.508,17.508,0,0,1-7.057,1.44,19.853,19.853,0,0,1-7.223-1.272,16.187,16.187,0,0,1-9.384-9.192,18.844,18.844,0,0,1-1.345-7.248,19.668,19.668,0,0,1,1.345-7.416,16.623,16.623,0,0,1,3.719-5.688,16.329,16.329,0,0,1,5.665-3.624,19.874,19.874,0,0,1,7.223-1.272,16.558,16.558,0,0,1,6.408,1.224,14.95,14.95,0,0,1,5.5,4.152Z" style="fill:#0e8fbf"/><circle cx="39" cy="39" r="39" style="fill:none"/><path d="M48.84,29.976a10.139,10.139,0,0,0-3.624-2.688,9.785,9.785,0,0,0-3.528-.672,11.77,11.77,0,0,0-4.775.936,10.908,10.908,0,0,0-3.672,2.592,11.75,11.75,0,0,0-2.376,3.864,13.231,13.231,0,0,0-.84,4.752,14.588,14.588,0,0,0,.84,5.04,11.8,11.8,0,0,0,2.376,3.984,11.007,11.007,0,0,0,3.672,2.64,11.515,11.515,0,0,0,4.775.96A8.765,8.765,0,0,0,45.7,50.4a10.938,10.938,0,0,0,3.624-3.144l4.991,3.552A13.59,13.59,0,0,1,48.7,55.416a17.508,17.508,0,0,1-7.057,1.44,19.853,19.853,0,0,1-7.223-1.272,16.187,16.187,0,0,1-9.384-9.192,18.844,18.844,0,0,1-1.345-7.248,19.668,19.668,0,0,1,1.345-7.416,16.623,16.623,0,0,1,3.719-5.688,16.329,16.329,0,0,1,5.665-3.624,19.874,19.874,0,0,1,7.223-1.272,16.558,16.558,0,0,1,6.408,1.224,14.95,14.95,0,0,1,5.5,4.152Z" style="fill:#fff"/></g></g></svg>