<svg xmlns="http://www.w3.org/2000/svg" viewBox="0 0 61.001 45"><defs><style>.cls-1{fill:none;stroke:#000;stroke-linecap:round;stroke-linejoin:round;stroke-width:3px;}</style></defs><title>Asset 1</title><g id="Layer_2" data-name="Layer 2"><g id="Devices_Technology" data-name="Devices / Technology"><path class="cls-1" d="M5.5,35.5V3.445A1.941,1.941,0,0,1,7.423,1.5H53.577A1.941,1.941,0,0,1,55.5,3.445V35.5"/><line class="cls-1" x1="1.5" y1="35.5" x2="22.501" y2="35.5"/><line class="cls-1" x1="38.501" y1="35.5" x2="59.501" y2="35.5"/><path class="cls-1" d="M59.5,35.5v6a1.974,1.974,0,0,1-1.934,2H3.434a1.973,1.973,0,0,1-1.934-2v-6"/><polyline class="cls-1" points="38.501 35.5 38.501 37.5 22.501 37.5 22.501 35.5"/></g><g id="Web_Programing" data-name="Web / Programing"><circle class="cls-1" cx="30.001" cy="17" r="8.5"/><line class="cls-1" x1="36.501" y1="23.5" x2="44.501" y2="30.5"/></g></g></svg>