<svg xmlns="http://www.w3.org/2000/svg" viewBox="0 0 78 156"><title>Asset 20</title><g id="Layer_2" data-name="Layer 2"><g id="Layer_1-2" data-name="Layer 1"><circle cx="39" cy="117" r="39" style="fill:#bdecf7"/><path d="M46.176,107.3a5.582,5.582,0,0,0-2.569-2.04,8.967,8.967,0,0,0-3.383-.648,8.573,8.573,0,0,0-2.04.24,5.551,5.551,0,0,0-1.776.768,4.02,4.02,0,0,0-1.272,1.368,3.938,3.938,0,0,0-.48,1.992,3.115,3.115,0,0,0,1.2,2.64,11.788,11.788,0,0,0,2.977,1.584q1.776.673,3.888,1.3a15.822,15.822,0,0,1,3.887,1.728,9.64,9.64,0,0,1,2.977,2.928,8.709,8.709,0,0,1,1.2,4.848,10.646,10.646,0,0,1-1.009,4.776,9.712,9.712,0,0,1-2.712,3.384,11.721,11.721,0,0,1-3.959,2.016,16.56,16.56,0,0,1-4.752.672,17.827,17.827,0,0,1-6.1-1.056,11.722,11.722,0,0,1-5.04-3.552l4.559-4.416a7.621,7.621,0,0,0,2.905,2.616,8.153,8.153,0,0,0,3.816.936,7.994,7.994,0,0,0,2.111-.288,6.51,6.51,0,0,0,1.92-.864,4.5,4.5,0,0,0,1.393-1.464,3.924,3.924,0,0,0,.528-2.04,3.554,3.554,0,0,0-1.2-2.88,10.621,10.621,0,0,0-2.977-1.7q-1.775-.695-3.887-1.32a16.332,16.332,0,0,1-3.888-1.7,9.445,9.445,0,0,1-2.976-2.88,8.579,8.579,0,0,1-1.2-4.824,9.168,9.168,0,0,1,1.08-4.56,9.9,9.9,0,0,1,2.832-3.192,12.4,12.4,0,0,1,4.009-1.9,17.236,17.236,0,0,1,4.608-.624,16.83,16.83,0,0,1,5.208.816,12.093,12.093,0,0,1,4.536,2.688Z" style="fill:#0e8fbf"/><circle cx="39" cy="39" r="39" style="fill:none"/><path d="M46.176,29.3a5.582,5.582,0,0,0-2.569-2.04,8.967,8.967,0,0,0-3.383-.648,8.573,8.573,0,0,0-2.04.24,5.551,5.551,0,0,0-1.776.768,4.02,4.02,0,0,0-1.272,1.368,3.938,3.938,0,0,0-.48,1.992,3.115,3.115,0,0,0,1.2,2.64,11.788,11.788,0,0,0,2.977,1.584q1.776.673,3.888,1.3a15.822,15.822,0,0,1,3.887,1.728,9.64,9.64,0,0,1,2.977,2.928,8.709,8.709,0,0,1,1.2,4.848,10.646,10.646,0,0,1-1.009,4.776,9.712,9.712,0,0,1-2.712,3.384A11.721,11.721,0,0,1,43.1,56.184a16.56,16.56,0,0,1-4.752.672,17.827,17.827,0,0,1-6.1-1.056,11.722,11.722,0,0,1-5.04-3.552l4.559-4.416a7.621,7.621,0,0,0,2.905,2.616,8.153,8.153,0,0,0,3.816.936,7.994,7.994,0,0,0,2.111-.288,6.51,6.51,0,0,0,1.92-.864,4.5,4.5,0,0,0,1.393-1.464,3.924,3.924,0,0,0,.528-2.04,3.554,3.554,0,0,0-1.2-2.88,10.621,10.621,0,0,0-2.977-1.7q-1.775-.694-3.887-1.32a16.332,16.332,0,0,1-3.888-1.7,9.445,9.445,0,0,1-2.976-2.88,8.579,8.579,0,0,1-1.2-4.824,9.168,9.168,0,0,1,1.08-4.56,9.9,9.9,0,0,1,2.832-3.192,12.4,12.4,0,0,1,4.009-1.9,17.236,17.236,0,0,1,4.608-.624,16.83,16.83,0,0,1,5.208.816,12.093,12.093,0,0,1,4.536,2.688Z" style="fill:#fff"/></g></g></svg>