<svg xmlns="http://www.w3.org/2000/svg" viewBox="0 0 43.54 35.625"><title>Asset 1</title><path d="M18.3,32.461A2.234,2.234,0,0,1,16.082,34.7H3.139A2.233,2.233,0,0,1,.925,32.461V3.357A2.233,2.233,0,0,1,3.139,1.118H16.082A2.233,2.233,0,0,1,18.3,3.357Z" style="fill:none;stroke:#000;stroke-linecap:round;stroke-linejoin:round;stroke-width:1.85000002384186px"/><line x1="7.294" y1="4.592" x2="11.926" y2="4.592" style="fill:none;stroke:#000;stroke-linecap:round;stroke-linejoin:round;stroke-width:1.85000002384186px"/><line x1="5.495" y1="31.792" x2="13.341" y2="31.792" style="fill:none;stroke:#000;stroke-linecap:round;stroke-linejoin:round;stroke-width:1.85000002384186px"/><line x1="9.581" y1="13.571" x2="5.686" y2="22.132" style="fill:none;stroke:#000;stroke-linecap:round;stroke-linejoin:round;stroke-width:1.85000002384186px"/><line x1="9.581" y1="13.571" x2="13.534" y2="22.132" style="fill:none;stroke:#000;stroke-linecap:round;stroke-linejoin:round;stroke-width:1.85000002384186px"/><line x1="7.054" y1="19.278" x2="12.108" y2="19.278" style="fill:none;stroke:#000;stroke-linecap:round;stroke-linejoin:round;stroke-width:1.85000002384186px"/><path d="M42.615,32.268A2.234,2.234,0,0,1,40.4,34.507H27.458a2.233,2.233,0,0,1-2.214-2.239V3.164A2.233,2.233,0,0,1,27.458.925H40.4a2.234,2.234,0,0,1,2.214,2.239Z" style="fill:none;stroke:#000;stroke-linecap:round;stroke-linejoin:round;stroke-width:1.85000002384186px"/><line x1="31.613" y1="4.399" x2="36.245" y2="4.399" style="fill:none;stroke:#000;stroke-linecap:round;stroke-linejoin:round;stroke-width:1.85000002384186px"/><line x1="29.814" y1="31.6" x2="37.66" y2="31.6" style="fill:none;stroke:#000;stroke-linecap:round;stroke-linejoin:round;stroke-width:1.85000002384186px"/><path d="M33.929,13.6c1.574,0,2.854.371,2.854,2.142,0,2.183-2.571,2.137-2.571,2.137s2.571-.088,2.571,2.157c0,1.694-1.28,2.121-2.854,2.121H31.076V13.6Z" style="fill:none;stroke:#000;stroke-linecap:round;stroke-linejoin:round;stroke-width:1.85000002384186px"/></svg>