<svg xmlns="http://www.w3.org/2000/svg" viewBox="0 0 74 74"><defs><style>.cls-1{fill:none;stroke:#000;stroke-linecap:round;stroke-linejoin:round;stroke-width:4px;}</style></defs><title>Asset 1</title><g id="Layer_2" data-name="Layer 2"><g id="Users"><circle class="cls-1" cx="37" cy="9" r="7"/><polyline class="cls-1" points="44 48.667 41.667 72 32.333 72 30 48.667"/><polyline class="cls-1" points="23 34.813 23 48.667 30 48.667"/><polyline class="cls-1" points="51 34.813 51 48.667 44 48.667"/><path class="cls-1" d="M51,34.667a14,14,0,0,0-28,0"/><circle class="cls-1" cx="60.333" cy="13.667" r="7"/><polyline class="cls-1" points="53.333 58 55.667 67.333 65 67.333 67.333 48.667"/><polyline class="cls-1" points="72 39.479 72 48.667 67.333 48.667"/><path class="cls-1" d="M72,39.333c0-7.729-3.938-14-11.667-14"/><circle class="cls-1" cx="13.667" cy="13.667" r="7"/><polyline class="cls-1" points="6.667 48.667 9 67.333 18.333 67.333 20.667 58"/><polyline class="cls-1" points="2 39.479 2 48.667 6.667 48.667"/><path class="cls-1" d="M2,39.333c0-7.729,3.933-14,11.667-14"/></g></g></svg>