<svg xmlns="http://www.w3.org/2000/svg" viewBox="0 0 78 156"><title>Asset 22</title><g id="Layer_2" data-name="Layer 2"><g id="Layer_1-2" data-name="Layer 1"><circle cx="39" cy="117" r="39" style="fill:#bdecf7"/><path d="M58.152,134.424H38.376a21.506,21.506,0,0,1-7.368-1.224,17.093,17.093,0,0,1-5.856-3.5,16.139,16.139,0,0,1-3.888-5.568,18.569,18.569,0,0,1-1.416-7.416,16.566,16.566,0,0,1,5.28-12.312,17.835,17.835,0,0,1,5.688-3.552,19.286,19.286,0,0,1,13.776,0A17.835,17.835,0,0,1,50.28,104.4a16.566,16.566,0,0,1,5.28,12.312,15.634,15.634,0,0,1-.648,4.728,13.842,13.842,0,0,1-1.7,3.6,12.4,12.4,0,0,1-2.328,2.616,20.06,20.06,0,0,1-2.472,1.776v.1h9.744ZM37.56,105.048a11.469,11.469,0,0,0-4.536.888,10.723,10.723,0,0,0-3.6,2.472,11.593,11.593,0,0,0-2.376,3.744,12.551,12.551,0,0,0-.864,4.7,13.248,13.248,0,0,0,.864,4.824,11.493,11.493,0,0,0,2.4,3.84,11.084,11.084,0,0,0,3.624,2.52,11.329,11.329,0,0,0,4.584.912,11.672,11.672,0,0,0,4.632-.912,10.956,10.956,0,0,0,3.672-2.52,11.493,11.493,0,0,0,2.4-3.84,13.248,13.248,0,0,0,.864-4.824,12.551,12.551,0,0,0-.864-4.7,11.388,11.388,0,0,0-2.4-3.744,10.864,10.864,0,0,0-3.672-2.472A12.2,12.2,0,0,0,37.56,105.048Z" style="fill:#0e8fbf"/><circle cx="39" cy="39" r="39" style="fill:none"/><path d="M58.152,56.424H38.376A21.506,21.506,0,0,1,31.008,55.2a17.093,17.093,0,0,1-5.856-3.5,16.139,16.139,0,0,1-3.888-5.568,18.569,18.569,0,0,1-1.416-7.416A16.566,16.566,0,0,1,25.128,26.4a17.835,17.835,0,0,1,5.688-3.552,19.286,19.286,0,0,1,13.776,0A17.835,17.835,0,0,1,50.28,26.4a16.566,16.566,0,0,1,5.28,12.312,15.634,15.634,0,0,1-.648,4.728,13.842,13.842,0,0,1-1.7,3.6,12.4,12.4,0,0,1-2.328,2.616,20.06,20.06,0,0,1-2.472,1.776v.1h9.744ZM37.56,27.048a11.469,11.469,0,0,0-4.536.888,10.723,10.723,0,0,0-3.6,2.472,11.593,11.593,0,0,0-2.376,3.744,12.551,12.551,0,0,0-.864,4.7,13.248,13.248,0,0,0,.864,4.824,11.493,11.493,0,0,0,2.4,3.84,11.084,11.084,0,0,0,3.624,2.52,11.329,11.329,0,0,0,4.584.912,11.672,11.672,0,0,0,4.632-.912,10.956,10.956,0,0,0,3.672-2.52,11.493,11.493,0,0,0,2.4-3.84,13.248,13.248,0,0,0,.864-4.824,12.551,12.551,0,0,0-.864-4.7,11.388,11.388,0,0,0-2.4-3.744,10.864,10.864,0,0,0-3.672-2.472A12.2,12.2,0,0,0,37.56,27.048Z" style="fill:#fff"/></g></g></svg>