<?xml version="1.0" encoding="utf-8"?>
<!-- Generator: Adobe Illustrator 23.0.4, SVG Export Plug-In . SVG Version: 6.00 Build 0)  -->
<svg version="1.1" id="Layer_1" xmlns="http://www.w3.org/2000/svg" xmlns:xlink="http://www.w3.org/1999/xlink" x="0px" y="0px"
	 viewBox="0 0 53.1 80.4" style="enable-background:new 0 0 53.1 80.4;" xml:space="preserve">
<style type="text/css">
	.st0{opacity:0.5;fill:#00B6E0;enable-background:new    ;}
	.st1{fill:none;stroke:#000000;stroke-width:1.9;stroke-linecap:round;stroke-linejoin:round;}
	.st2{opacity:0.93;}
	.st3{fill:#FC326C;}
</style>
<title>Asset 1</title>
<g>
	<g id="Layer_1-2">
		<polygon class="st0" points="16.1,49 0,76.9 32.2,76.9 		"/>
		<path class="st1" d="M15.6,73.4h-2.4c-2,0-3.6-1.7-3.6-3.7V25.1c0-2,1.6-3.7,3.6-3.7H35c2,0,3.6,1.7,3.6,3.7v23.3"/>
		<line class="st1" x1="20.6" y1="26.4" x2="27.6" y2="26.4"/>
		<path class="st1" d="M38.6,75.4v-27c0,0,11,9.3,11,17v14"/>
		<path class="st1" d="M26.6,79.4L21,71.5c-1.7-2.1-1.8-4.8,0-6.7l0,0c1.8-1.8,4.8-1.9,6.6,0c0,0,0,0,0,0l14,14.6"/>
		<g class="st2">
			<path class="st3" d="M43.1,13.8l-7-6.4c-0.8-0.8-1.3-1.9-1.3-3.1c-0.1-2.3,1.7-4.2,4-4.2c2.3-0.1,4.2,1.7,4.2,4
				c0,0.1,0,0.1,0,0.2c0-0.1,0-0.1,0-0.2c0.1-2.3,2-4.1,4.2-4c2.3,0.1,4.1,2,4,4.2c0,1.2-0.5,2.3-1.3,3.1L43.1,13.8z"/>
		</g>
		<g class="st2">
			<path class="st3" d="M27.8,11.1C27.8,11,27.8,11,27.8,11.1c0-1.3-1-2.2-2.2-2.2c-1.2,0-2.1,1-2.1,2.2c0,0.6,0.3,1.2,0.7,1.6
				l3.5,3.3l3.5-3.3c0.4-0.4,0.7-1,0.7-1.6c0-1.2-0.9-2.1-2.1-2.2C28.8,8.9,27.8,9.8,27.8,11.1C27.8,11,27.8,11,27.8,11.1z"/>
		</g>
		<g class="st2">
			<path class="st3" d="M48.9,27l-3.5-3.3c-0.4-0.4-0.7-1-0.7-1.6c0-1.2,0.9-2.1,2.1-2.2c1.2,0,2.1,0.9,2.2,2.1c0,0,0,0.1,0,0.1h0
				c0,0,0-0.1,0-0.1c0-1.2,1-2.1,2.2-2.1c1.2,0,2.1,1,2.1,2.2c0,0.6-0.3,1.2-0.7,1.6L48.9,27z"/>
		</g>
	</g>
</g>
</svg>
