<svg xmlns="http://www.w3.org/2000/svg" viewBox="0 0 53.33333 64"><g id="Layer_2" data-name="Layer 2"><g id="Layer_1-2" data-name="Layer 1"><g id="Layer_2-2" data-name="Layer 2"><g id="E-Commerce_Shopping" data-name="E-Commerce Shopping"><rect x="36.66667" y="38.66667" width="3.33333" height="3.33333" style="fill:#fff"/><line x1="16.66667" y1="37" x2="13.33333" y2="45.33333" style="fill:none;stroke:#fff;stroke-linecap:round;stroke-linejoin:round;stroke-width:3.333333333333334px"/><line x1="23.33333" y1="37" x2="20" y2="45.33333" style="fill:none;stroke:#fff;stroke-linecap:round;stroke-linejoin:round;stroke-width:3.333333333333334px"/><line x1="33.33333" y1="53.66667" x2="33.33333" y2="27" style="fill:none;stroke:#fff;stroke-linecap:round;stroke-linejoin:round;stroke-width:3.333333333333334px"/><line x1="48.33333" y1="10.33333" x2="51.66667" y2="23.66667" style="fill:none;stroke:#fff;stroke-linecap:round;stroke-linejoin:round;stroke-width:3.333333333333334px"/><path d="M5,28.66667V52a1.67157,1.67157,0,0,0,1.66667,1.66667h40A1.67157,1.67157,0,0,0,48.33333,52V28.66667" style="fill:none;stroke:#fff;stroke-linecap:round;stroke-linejoin:round;stroke-width:3.333333333333334px"/><line x1="1.66667" y1="23.66667" x2="5" y2="10.33333" style="fill:none;stroke:#fff;stroke-linecap:round;stroke-linejoin:round;stroke-width:3.333333333333334px"/><path d="M11.66667,23.66667a5,5,0,0,1-10,0" style="fill:none;stroke:#fff;stroke-linecap:round;stroke-linejoin:round;stroke-width:3.333333333333334px"/><path d="M21.66667,23.66667a5,5,0,0,1-10,0" style="fill:none;stroke:#fff;stroke-linecap:round;stroke-linejoin:round;stroke-width:3.333333333333334px"/><path d="M31.66667,23.66667a5,5,0,0,1-10,0" style="fill:none;stroke:#fff;stroke-linecap:round;stroke-linejoin:round;stroke-width:3.333333333333334px"/><path d="M41.66667,23.66667a5,5,0,1,1-10,0" style="fill:none;stroke:#fff;stroke-linecap:round;stroke-linejoin:round;stroke-width:3.333333333333334px"/><path d="M51.66667,23.66667a5,5,0,1,1-10,0" style="fill:none;stroke:#fff;stroke-linecap:round;stroke-linejoin:round;stroke-width:3.333333333333334px"/><line x1="5" y1="10.33333" x2="48.33333" y2="10.33333" style="fill:none;stroke:#fff;stroke-linecap:round;stroke-linejoin:round;stroke-width:3.333333333333334px"/></g></g><rect x="1.66667" width="50" height="64" style="fill:none"/></g></g></svg>