<svg xmlns="http://www.w3.org/2000/svg" viewBox="0 0 90.259 85.821"><defs><style>.cls-1{fill:#12e3a3;opacity:0.5;}.cls-2,.cls-3{fill:none;stroke:#000;stroke-linecap:round;stroke-linejoin:round;}.cls-2{stroke-width:2.5px;}.cls-3{stroke-width:2px;}</style></defs><title>Asset 1</title><g id="Layer_2" data-name="Layer 2"><g id="Layer_1-2" data-name="Layer 1"><circle class="cls-1" cx="77.425" cy="12.834" r="12.834"/><line class="cls-2" x1="53.302" y1="60.231" x2="53.302" y2="45.231"/><polyline class="cls-2" points="61.302 45.231 54.302 53.231 61.302 60.231"/><path class="cls-2" d="M41.3,60.231H36.557v-16H41.3c2.521,0,5.262,2.043,5.262,4.564v6.948C46.557,58.362,43.818,60.231,41.3,60.231Z"/><path class="cls-2" d="M26.557,52.231s4,1.031,4,4.656c0,2-1.791,3.344-4,3.344h0a6.237,6.237,0,0,1-4-2"/><path class="cls-2" d="M26.557,52.231s-4-1.25-4-4.5a3.731,3.731,0,0,1,4-3.5h0a6.237,6.237,0,0,1,4,2"/><rect class="cls-2" x="16.557" y="27.884" width="50" height="50"/><polyline class="cls-2" points="11.557 69.884 8.557 69.884 8.557 19.884 58.557 19.884 58.557 22.884"/><polyline class="cls-3" points="72.567 14.647 75.341 17.36 82.409 9.95"/><line class="cls-3" x1="1" y1="76.603" x2="9.218" y2="84.821"/><line class="cls-3" x1="9.218" y1="76.603" x2="1" y2="84.821"/></g></g></svg>