<svg xmlns="http://www.w3.org/2000/svg" viewBox="0 0 128.178 139.496"><defs><style>.cls-1{fill:none;opacity:0.44;}.cls-2{fill:#00b5df;opacity:0.5;}.cls-3{opacity:0.4;}.cls-4{fill:#6441e2;}</style></defs><title>Asset 1</title><g id="Layer_2" data-name="Layer 2"><g id="Layer_1-2" data-name="Layer 1"><polyline class="cls-1" points="15.252 91.042 19.337 85.206 27.218 64.779 38.015 69.059 48.813 62.443 55.525 50.478 65.35 50.478 68.999 40.264 79.456 43.181 88.504 33.842 95.506 35.594 98.425 24.505 110.101 14.972 122.747 14.972"/><circle class="cls-2" cx="81.074" cy="9.978" r="7.978"/><g class="cls-3"><polygon class="cls-4" points="64.089 28.491 0 139.496 128.178 139.496 64.089 28.491"/></g><polygon points="16.891 92.188 13.614 89.896 17.559 84.259 26.079 62.176 37.822 66.832 47.324 61.01 54.354 48.478 63.94 48.478 67.742 37.837 78.848 40.935 87.87 31.622 94.075 33.174 96.656 23.368 109.388 12.972 122.747 12.972 122.747 16.972 110.813 16.972 100.193 25.643 96.937 38.014 89.138 36.063 80.065 45.427 70.256 42.69 66.759 52.478 56.697 52.478 50.302 63.876 38.207 71.287 28.357 67.383 21.116 86.153 16.891 92.188"/><polygon points="16.948 102.899 13.557 100.78 21.438 88.168 31.274 88.168 37.695 76.202 50.043 76.202 61.34 65.211 68.312 69.197 72.261 69.197 78.389 53.731 93.878 53.731 102.648 46.023 106.838 37.646 112.184 40.075 112.184 31.551 123.018 33.029 122.477 36.992 116.184 36.134 116.184 46.287 108.691 42.882 105.875 48.511 95.386 57.731 81.106 57.731 74.978 73.197 67.25 73.197 61.97 70.179 51.668 80.202 40.088 80.202 33.667 92.168 23.655 92.168 16.948 102.899"/><polygon points="16.055 113.305 14.45 109.641 18.694 107.782 28.625 96.048 38.616 96.048 44.567 89.783 55.513 94.969 68.395 78.342 80.75 84.091 87.702 79.535 93.08 63.457 103.715 67.06 108.303 67.06 112.972 58.109 116.756 58.109 121.591 54.683 123.904 57.946 118.03 62.109 115.396 62.109 110.727 71.06 103.056 71.06 95.6 68.533 91.055 82.121 81.08 88.657 69.602 83.314 56.705 99.959 45.473 94.639 40.332 100.048 30.479 100.048 21.148 111.073 16.055 113.305"/><polygon points="124.503 130.819 1.119 130.819 1.119 14.432 5.119 14.432 5.119 126.819 124.503 126.819 124.503 130.819"/><line x1="3.133" y1="111.789" x2="7.746" y2="111.789"/><rect x="3.133" y="109.789" width="4.613" height="4"/><line x1="3.133" y1="88.826" x2="7.746" y2="88.826"/><rect x="3.133" y="86.826" width="4.613" height="4"/><line x1="3.133" y1="65.863" x2="7.746" y2="65.863"/><rect x="3.133" y="63.863" width="4.613" height="4"/><line x1="3.133" y1="42.9" x2="7.746" y2="42.9"/><rect x="3.133" y="40.9" width="4.613" height="4"/><line x1="3.133" y1="19.937" x2="7.746" y2="19.937"/><rect x="3.133" y="17.937" width="4.613" height="4"/><line x1="112.015" y1="128.819" x2="112.015" y2="124.205"/><rect x="110.015" y="124.205" width="4" height="4.614"/><line x1="89.051" y1="128.819" x2="89.051" y2="124.205"/><rect x="87.051" y="124.205" width="4" height="4.614"/><line x1="66.089" y1="128.819" x2="66.089" y2="124.205"/><rect x="64.089" y="124.205" width="4" height="4.614"/><line x1="43.126" y1="128.819" x2="43.126" y2="124.205"/><rect x="41.126" y="124.205" width="4" height="4.614"/><line x1="20.162" y1="128.819" x2="20.162" y2="124.205"/><rect x="18.162" y="124.205" width="4" height="4.614"/><path d="M43.129,36.181A18.091,18.091,0,1,1,43.126,0h.006A18.091,18.091,0,0,1,55.921,30.882,17.973,17.973,0,0,1,43.129,36.181ZM43.126,4a14.092,14.092,0,1,0,.006,0h-.006Z"/><path d="M42.4,26.907v-2.29a6.5,6.5,0,0,1-3.445-1L39.5,22.1a5.879,5.879,0,0,0,3.218.974c1.632,0,2.72-.929,2.72-2.221,0-1.246-.884-2.017-2.561-2.7-2.312-.906-3.74-1.971-3.74-3.943a3.715,3.715,0,0,1,3.4-3.649V8.3h1.427v2.2a6.047,6.047,0,0,1,2.947.793l-.567,1.5a5.437,5.437,0,0,0-2.855-.793c-1.746,0-2.4,1.042-2.4,1.971,0,1.156.839,1.746,2.811,2.584,2.334.952,3.512,2.108,3.512,4.125a3.946,3.946,0,0,1-3.58,3.875v2.358Z"/><path d="M44.33,27.407H41.9V25.092a6.852,6.852,0,0,1-3.236-1.065l-.307-.22.89-2.485.535.367a5.372,5.372,0,0,0,2.935.887c1.328,0,2.22-.692,2.22-1.721,0-.939-.651-1.586-2.249-2.233-2-.785-4.052-1.923-4.052-4.407a4.128,4.128,0,0,1,3.4-4.058V7.8h2.427v2.229a6.345,6.345,0,0,1,2.7.832l.364.213-.924,2.439-.508-.291a4.909,4.909,0,0,0-2.607-.727c-1.4,0-1.9.76-1.9,1.471,0,.821.562,1.3,2.506,2.124,2.674,1.09,3.818,2.462,3.818,4.585a4.4,4.4,0,0,1-3.581,4.284Zm-1.428-1h.428V24.125l.418-.069a3.453,3.453,0,0,0,3.163-3.382c0-1.7-.9-2.722-3.2-3.662-1.771-.753-3.121-1.454-3.121-3.047,0-1.23.9-2.471,2.9-2.471a5.814,5.814,0,0,1,2.59.584l.209-.552A5.789,5.789,0,0,0,43.949,11l-.484-.016V8.8h-.427V10.99l-.419.069a3.238,3.238,0,0,0-2.981,3.156c0,1.537.96,2.513,3.422,3.478,1.343.544,2.879,1.393,2.879,3.162,0,1.6-1.324,2.721-3.22,2.721a6.509,6.509,0,0,1-2.952-.733l-.2.569a6.361,6.361,0,0,0,2.847.705l.492.008Z"/></g></g></svg>