<svg xmlns="http://www.w3.org/2000/svg" viewBox="0 0 78 156"><title>Asset 3</title><g id="Layer_2" data-name="Layer 2"><g id="Layer_1-2" data-name="Layer 1"><circle cx="39" cy="117" r="39" style="fill:#bdecf7"/><path d="M49.1,124.152a11.8,11.8,0,0,1-.648,3.888,9.53,9.53,0,0,1-1.92,3.288,9.156,9.156,0,0,1-3.192,2.256,11.058,11.058,0,0,1-4.464.84,10.924,10.924,0,0,1-6.6-1.872A9.235,9.235,0,0,1,28.9,126.6l5.664-1.344a4.62,4.62,0,0,0,1.368,2.688,3.757,3.757,0,0,0,2.664,1.008A3.629,3.629,0,0,0,42.12,127.2a10.333,10.333,0,0,0,.936-4.824v-22.8H49.1Z" style="fill:#0e8fbf"/><circle cx="39" cy="39" r="39" style="fill:none"/><path d="M49.1,46.152a11.8,11.8,0,0,1-.648,3.888,9.53,9.53,0,0,1-1.92,3.288,9.156,9.156,0,0,1-3.192,2.256,11.058,11.058,0,0,1-4.464.84,10.924,10.924,0,0,1-6.6-1.872A9.235,9.235,0,0,1,28.9,48.6l5.664-1.344a4.62,4.62,0,0,0,1.368,2.688,3.757,3.757,0,0,0,2.664,1.008A3.629,3.629,0,0,0,42.12,49.2a10.333,10.333,0,0,0,.936-4.824v-22.8H49.1Z" style="fill:#fff"/></g></g></svg>