<svg xmlns="http://www.w3.org/2000/svg" viewBox="0 0 78 156"><title>Asset 21</title><g id="Layer_2" data-name="Layer 2"><g id="Layer_1-2" data-name="Layer 1"><circle cx="39" cy="117" r="39" style="fill:#bdecf7"/><path d="M26.184,100.008H37.992a24.056,24.056,0,0,1,4.728.456,12.107,12.107,0,0,1,4.056,1.56A8.168,8.168,0,0,1,49.608,105a9.583,9.583,0,0,1,1.056,4.752,9.46,9.46,0,0,1-2.04,6.192,8.75,8.75,0,0,1-5.832,3.024l9.024,15.024h-7.3l-7.872-14.4H32.232v14.4H26.184Zm10.752,14.4q1.3,0,2.592-.12a7.96,7.96,0,0,0,2.376-.576,4.055,4.055,0,0,0,1.752-1.392,4.424,4.424,0,0,0,.672-2.616,4.176,4.176,0,0,0-.624-2.4,3.885,3.885,0,0,0-1.632-1.368,7.513,7.513,0,0,0-2.232-.6,20.338,20.338,0,0,0-2.376-.144H32.232v9.216Z" style="fill:#0e8fbf"/><circle cx="39" cy="39" r="39" style="fill:none"/><path d="M26.184,22.008H37.992a24.056,24.056,0,0,1,4.728.456,12.107,12.107,0,0,1,4.056,1.56A8.168,8.168,0,0,1,49.608,27a9.583,9.583,0,0,1,1.056,4.752,9.46,9.46,0,0,1-2.04,6.192,8.75,8.75,0,0,1-5.832,3.024l9.024,15.024h-7.3l-7.872-14.4H32.232v14.4H26.184Zm10.752,14.4q1.3,0,2.592-.12a7.96,7.96,0,0,0,2.376-.576,4.055,4.055,0,0,0,1.752-1.392,4.424,4.424,0,0,0,.672-2.616,4.176,4.176,0,0,0-.624-2.4,3.885,3.885,0,0,0-1.632-1.368,7.513,7.513,0,0,0-2.232-.6,20.338,20.338,0,0,0-2.376-.144H32.232v9.216Z" style="fill:#fff"/></g></g></svg>