<svg xmlns="http://www.w3.org/2000/svg" viewBox="0 0 54.45 48.218"><defs><style>.cls-1{opacity:0.7;}.cls-2{fill:#6441e2;}.cls-3{fill:#ff5b3b;opacity:0.5;}.cls-4{fill:none;stroke:#000;stroke-linecap:round;stroke-linejoin:round;stroke-width:1.5px;}</style></defs><title>Asset 1</title><g id="Layer_2" data-name="Layer 2"><g id="Layer_1-2" data-name="Layer 1"><g class="cls-1"><circle class="cls-2" cx="8.069" cy="43.84" r="4.378"/></g><polygon class="cls-3" points="43.733 10.114 33.017 28.676 54.45 28.676 43.733 10.114"/><line class="cls-4" x1="30.534" y1="40.86" x2="43.626" y2="22.448"/><line class="cls-4" x1="19.691" y1="33.997" x2="28.076" y2="40.969"/><line class="cls-4" x1="8.358" y1="43.537" x2="17.042" y2="34.087"/><circle class="cls-4" cx="18.353" cy="32.94" r="1.639"/><circle class="cls-4" cx="29.496" cy="42.117" r="1.639"/><polyline class="cls-4" points="9.75 18.75 0.75 18.75 0.75 0.75 30.75 0.75 30.75 14.75"/><path class="cls-4" d="M11.834,10.773A6.213,6.213,0,0,1,11.75,9.75c0-2.761,1.791-5,4-5s4,2.239,4,5a6.183,6.183,0,0,1-.1,1.1"/><line class="cls-4" x1="25.75" y1="4.75" x2="26.75" y2="4.75"/><line class="cls-4" x1="4.75" y1="14.75" x2="5.75" y2="14.75"/><rect class="cls-4" x="17.75" y="18.75" width="13" height="4"/><rect class="cls-4" x="15.75" y="22.75" width="13" height="4"/><rect class="cls-4" x="13.75" y="14.75" width="13" height="4"/></g></g></svg>