<svg xmlns="http://www.w3.org/2000/svg" viewBox="0 0 37.278 34.4"><title>Asset 1</title><path d="M18.7,23.179V6.7c0-1.656.844-3,2.5-3s2.5,1.344,2.5,3l-.021,10.958" style="fill:none;stroke:#fff;stroke-linecap:round;stroke-linejoin:round;stroke-width:1.39999997615814px"/><path d="M23.7,17.7a2.827,2.827,0,0,1,2.312-.938,2.666,2.666,0,0,1,2.208,1.813,2.683,2.683,0,0,1,2.584-.73,2.507,2.507,0,0,1,1.916,1.813,2.416,2.416,0,0,1,2.5-.625,2.235,2.235,0,0,1,1.313,2.584C36.367,22.554,33.7,32.7,33.7,32.7" style="fill:none;stroke:#fff;stroke-linecap:round;stroke-linejoin:round;stroke-width:1.39999997615814px"/><path d="M9.7,19.7a4.494,4.494,0,0,1,5.65,0l3.35,3.479" style="fill:none;stroke:#fff;stroke-linecap:round;stroke-linejoin:round;stroke-width:1.39999997615814px"/><path d="M33.7,32.7a26.754,26.754,0,0,1-7.344,1,30.724,30.724,0,0,1-7.656-1" style="fill:none;stroke:#fff;stroke-linecap:round;stroke-linejoin:round;stroke-width:1.39999997615814px"/><path d="M18.7,32.7a50.912,50.912,0,0,1-4.313-6.094C12.2,23,9.7,19.7,9.7,19.7" style="fill:none;stroke:#fff;stroke-linecap:round;stroke-linejoin:round;stroke-width:1.39999997615814px"/><path d="M13.7,3.7h-3a7,7,0,0,0-7,7v3" style="fill:none;stroke:#fff;stroke-linecap:round;stroke-linejoin:round;stroke-width:1.39999997615814px"/><polyline points="10.7 0.7 13.7 3.7 10.7 6.7" style="fill:none;stroke:#fff;stroke-linecap:round;stroke-linejoin:round;stroke-width:1.39999997615814px"/><polyline points="6.7 10.7 3.7 13.7 0.7 10.7" style="fill:none;stroke:#fff;stroke-linecap:round;stroke-linejoin:round;stroke-width:1.39999997615814px"/></svg>