<svg xmlns="http://www.w3.org/2000/svg" viewBox="0 0 58 58"><defs><style>.cls-1{fill:none;stroke:#000;stroke-miterlimit:10;stroke-width:3px;}</style></defs><title>Asset 1</title><g id="Layer_2" data-name="Layer 2"><g id="Layer_1-2" data-name="Layer 1"><circle class="cls-1" cx="29" cy="29.033" r="9.167"/><path class="cls-1" d="M49.177,33.624l7.323-.957V25.333l-7.349-.962a20.459,20.459,0,0,0-2.7-6.409l4.47-5.936-5.09-5.058L39.88,11.5a20.621,20.621,0,0,0-6.308-2.585L32.667,1.5H25.333l-.965,7.419a20.61,20.61,0,0,0-6.42,2.665l-5.921-4.5L6.97,12.171l4.54,5.807a20.515,20.515,0,0,0-2.7,6.427L1.5,25.333v7.334l7.276.905a20.527,20.527,0,0,0,2.662,6.435L7.08,45.976l5.094,5.054,5.891-4.444a20.58,20.58,0,0,0,6.323,2.6l.945,7.315h7.334l.975-7.331A20.618,20.618,0,0,0,40,46.526l5.972,4.394,5.056-5.091-4.476-5.867A20.459,20.459,0,0,0,49.177,33.624Z"/></g></g></svg>