<svg xmlns="http://www.w3.org/2000/svg" viewBox="0 0 73.5 73.5"><defs><style>.cls-1{fill:none;stroke:#000;stroke-linecap:round;stroke-linejoin:round;stroke-width:3.5px;}</style></defs><title>Asset 1</title><g id="Layer_2" data-name="Layer 2"><g id="Network_Transfers" data-name="Network / Transfers"><path class="cls-1" d="M43.622,71.073A35,35,0,1,1,71.75,36.75a35.435,35.435,0,0,1-.283,4.457"/><path class="cls-1" d="M42.178,69.255q-1.173,1.2-2.429,2.315"/><path class="cls-1" d="M39.758,1.937A46.406,46.406,0,0,1,55.417,36.75q0,1.173-.06,2.333"/><path class="cls-1" d="M33.742,71.57a46.53,46.53,0,0,1,.005-69.633"/><line class="cls-1" x1="36.75" y1="1.75" x2="36.75" y2="71.75"/><line class="cls-1" x1="4.083" y1="48.417" x2="41.414" y2="48.417"/><line class="cls-1" x1="4.083" y1="25.083" x2="69.417" y2="25.083"/><circle class="cls-1" cx="57.75" cy="57.75" r="9.333"/><line class="cls-1" x1="64.75" y1="64.75" x2="71.75" y2="71.75"/></g></g></svg>