<svg xmlns="http://www.w3.org/2000/svg" viewBox="0 0 102.399 55.555"><g id="Layer_2" data-name="Layer 2"><g id="Isolation_Mode" data-name="Isolation Mode"><circle cx="16.34" cy="39.216" r="16.34" style="fill:#00b6e0;opacity:0.5"/><circle cx="90.16" cy="17.834" r="8.392" style="fill:none;stroke:#000;stroke-miterlimit:10;stroke-width:2.09999990463257px"/><circle cx="60.789" cy="12.239" r="11.189" style="fill:none;stroke:#000;stroke-miterlimit:10;stroke-width:2.09999990463257px"/><path d="M78.971,41.61v-2.8A11.19,11.19,0,0,1,90.16,27.624h0a11.189,11.189,0,0,1,11.189,11.189h0v2.8Z" style="fill:none;stroke:#000;stroke-linecap:round;stroke-linejoin:round;stroke-width:2.09999990463257px"/><circle cx="31.418" cy="17.834" r="8.392" style="fill:none;stroke:#000;stroke-miterlimit:10;stroke-width:2.09999990463257px"/><path d="M20.229,41.61v-2.8A11.19,11.19,0,0,1,31.418,27.624h0A11.19,11.19,0,0,1,42.607,38.813h0v2.8Z" style="fill:none;stroke:#000;stroke-linecap:round;stroke-linejoin:round;stroke-width:2.09999990463257px"/><path d="M44.006,41.61a16.784,16.784,0,0,1,33.567,0v2.8H44.006Z" style="fill:none;stroke:#000;stroke-linecap:round;stroke-linejoin:round;stroke-width:2.09999990463257px"/></g></g></svg>