<?xml version="1.0" encoding="utf-8"?>
<!-- Generator: Adobe Illustrator 23.0.4, SVG Export Plug-In . SVG Version: 6.00 Build 0)  -->
<svg version="1.1" id="Layer_1" xmlns="http://www.w3.org/2000/svg" xmlns:xlink="http://www.w3.org/1999/xlink" x="0px" y="0px"
	 viewBox="0 0 48 36" style="enable-background:new 0 0 48 36;" xml:space="preserve">
<title>Asset 1</title>
<g>
	<g id="Layer_1-2">
		<path d="M25.9,31.3c-0.3-1.7-1.7-2.9-3.4-2.9c0,0-0.1,0-0.1,0c0-0.2,0-0.4,0-0.6c-0.3-1.7-1.7-2.9-3.4-2.9c0,0-0.1,0-0.1,0
			c0-0.2,0-0.4,0-0.6c-0.3-1.7-1.7-2.9-3.4-2.9c0,0-0.1,0-0.1,0c0-0.2,0-0.4,0-0.6c-0.3-1.9-2.1-3.1-4-2.8c-0.9,0.2-1.7,0.7-2.2,1.4
			l-2.4,3.4c-1.1,1.6-0.7,3.7,0.9,4.8c0.6,0.4,1.3,0.6,2,0.6c0,0,0.1,0,0.1,0c-0.1,1.9,1.4,3.4,3.3,3.5c0.5,0,0.9-0.1,1.4-0.3
			c0.5,1.8,2.4,2.8,4.2,2.3c0.1,0,0.2-0.1,0.3-0.1C19.2,35,20.5,36,22,36c1.1,0,2.2-0.5,2.8-1.5l0.5-0.7
			C25.9,33.1,26.1,32.2,25.9,31.3z M8.6,25.9c-0.7-0.5-0.8-1.4-0.4-2c0,0,0,0,0,0l2.4-3.4c0.3-0.4,0.7-0.6,1.2-0.6
			c0.7,0,1.3,0.5,1.4,1.2c0.1,0.4,0,0.8-0.2,1.1l-2.4,3.4C10.2,26.2,9.3,26.4,8.6,25.9z M12.2,29.4c-0.7-0.5-0.8-1.4-0.4-2
			c0,0,0,0,0,0l2.4-3.4c0.5-0.7,1.4-0.8,2-0.4c0.3,0.2,0.5,0.6,0.6,0.9c0.1,0.4,0,0.8-0.2,1.1l-0.5,0.7l0,0l-1.4,2l0,0l-0.5,0.7
			C13.7,29.7,12.8,29.9,12.2,29.4z M16.7,31.6c-0.7-0.5-0.8-1.4-0.4-2l1.4-2c0.3-0.4,0.7-0.6,1.2-0.6c0.8,0,1.5,0.7,1.5,1.5
			c0,0.3-0.1,0.6-0.3,0.8l-0.5,0.7l0,0l-0.5,0.7l0,0l-0.5,0.7C18.3,31.9,17.4,32,16.7,31.6z M23.7,32.7l-0.5,0.7
			c-0.5,0.6-1.4,0.8-2,0.4c-0.7-0.5-0.8-1.4-0.4-2c0,0,0,0,0,0l0.5-0.7c0.5-0.7,1.4-0.8,2-0.4c0.3,0.2,0.5,0.6,0.6,0.9
			C24,32,23.9,32.4,23.7,32.7z"/>
		<path d="M16,7.5c-0.2,0-0.4,0-0.5-0.1l-2.9-1.7c-0.5-0.3-0.6-0.9-0.4-1.4c0.3-0.5,0.9-0.6,1.4-0.4l2.7,1.6l4.4,0l0,0
			c0.6,0,1,0.4,1,1s-0.4,1-1,1L16,7.5L16,7.5z"/>
		<path d="M8.4,22.8c-0.4,0-0.8-0.3-0.9-0.7l-1.4-3.8c-0.2-0.5,0.1-1.1,0.6-1.3s1.1,0.1,1.3,0.6l1.4,3.8c0.2,0.5-0.1,1.1-0.6,1.3
			c0,0,0,0,0,0C8.6,22.8,8.5,22.8,8.4,22.8z"/>
		<path d="M41.9,18l-1.4,1.2c-0.5-0.3-11-7.9-13-9.3c-2.7-1.9-5.9,2.2-6.3,2.7c-0.6,0.7-1.6,0.8-2.4,0.4c-0.2-0.2-0.4-0.5-0.4-0.8
			c-0.1-0.6,0-1.2,0.3-1.7c1.4-1.3,3.6-3.3,4-3.7c0.9-0.7,2.1-1,3.3-0.9l9,0.8c0.6,0.1,1-0.4,1.1-0.9c0.1-0.6-0.4-1-0.9-1.1L26.2,4
			c-1.7-0.3-3.5,0.2-4.8,1.3c-0.7,0.5-3.7,3.3-4.3,3.9c0,0-0.1,0.1-0.1,0.1c-0.6,1-0.9,2.1-0.7,3.2c0.1,0.8,0.6,1.6,1.2,2.1
			c1.7,1.1,3.9,0.7,5.2-0.9c0.8-1.1,2.7-2.8,3.6-2.2c2,1.4,12.9,9.2,13,9.3h0l0,0c0.7,0.5,0.8,1.4,0.4,2c0,0,0,0,0,0
			c-0.5,0.7-1.4,0.8-2,0.4l-5.4-3.7c-0.4-0.3-1.1-0.2-1.4,0.2c-0.3,0.4-0.2,1.1,0.2,1.4c0,0,0,0,0,0l4.7,3.3l0,0
			c0.7,0.5,0.8,1.4,0.4,2c0,0,0,0,0,0c-0.5,0.7-1.4,0.8-2,0.4l-4.7-3.3c-0.5-0.3-1.1-0.2-1.4,0.3s-0.2,1.1,0.3,1.4l4,2.8l0,0
			c0.7,0.5,0.8,1.4,0.4,2c0,0,0,0,0,0c-0.5,0.7-1.4,0.8-2,0.4l0,0l-2.7-1.9c-0.5-0.3-1.1-0.2-1.4,0.2s-0.2,1.1,0.2,1.4l1.8,1.2
			c0.4,0.3,0.7,0.7,0.8,1.2c0.1,0.3,0,0.6-0.2,0.9c-0.5,0.7-1.4,0.8-2,0.4l-1.7-1.2c-0.5-0.3-1.1-0.2-1.4,0.2s-0.2,1.1,0.2,1.4l0,0
			l1.7,1.2c1.6,1.1,3.7,0.7,4.8-0.8c0.4-0.6,0.6-1.2,0.5-1.9c0,0,0.1,0,0.1,0c1.1,0,2.2-0.6,2.8-1.5c0.4-0.6,0.6-1.3,0.6-2.1
			c0,0,0,0,0,0c1.1,0,2.2-0.5,2.8-1.5c0.4-0.6,0.6-1.3,0.6-2.1c0,0,0,0,0,0c1.1,0,2.2-0.5,2.8-1.5c0.5-0.7,0.7-1.7,0.6-2.6
			c0-0.2-0.1-0.5-0.2-0.7l1.4-1.2C43.6,19.2,42.3,17.6,41.9,18z"/>
		<path d="M5,21c-0.2,0-0.3,0-0.4-0.1l-4-2c-0.5-0.2-0.7-0.8-0.4-1.3c0,0,0,0,0,0l9-17c0.3-0.5,0.8-0.7,1.3-0.4l4,2
			c0.5,0.2,0.7,0.8,0.4,1.3c0,0,0,0,0,0l-9,17C5.7,20.8,5.4,21,5,21z M2.4,17.6l2.2,1.1l8.1-15.2l-2.2-1.1L2.4,17.6z"/>
		<path d="M43,21c-0.4,0-0.7-0.2-0.9-0.5l-9-17C32.9,3,33,2.4,33.5,2.1c0,0,0,0,0,0l4-2c0.5-0.2,1.1-0.1,1.3,0.4l9,17
			c0.3,0.5,0.1,1.1-0.4,1.4c0,0,0,0,0,0l-4,2C43.3,21,43.2,21,43,21z M35.4,3.4l8.1,15.2l2.2-1.1L37.6,2.3L35.4,3.4z"/>
	</g>
</g>
</svg>
