<svg xmlns="http://www.w3.org/2000/svg" viewBox="0 0 78 156"><title>Asset 18</title><g id="Layer_2" data-name="Layer 2"><g id="Layer_1-2" data-name="Layer 1"><circle cx="39" cy="117" r="39" style="fill:#bdecf7"/><path d="M52.68,121.08a13.994,13.994,0,0,1-1.056,5.544,12.429,12.429,0,0,1-2.88,4.2,12.668,12.668,0,0,1-4.32,2.664,16.184,16.184,0,0,1-10.848,0,12.93,12.93,0,0,1-4.344-2.664,11.99,11.99,0,0,1-2.88-4.2,14.261,14.261,0,0,1-1.032-5.544v-21.5h6.048v21.312a9.672,9.672,0,0,0,.384,2.616,7.331,7.331,0,0,0,1.272,2.52,6.786,6.786,0,0,0,2.352,1.9,7.933,7.933,0,0,0,3.624.744,7.933,7.933,0,0,0,3.624-.744,6.786,6.786,0,0,0,2.352-1.9,7.366,7.366,0,0,0,1.272-2.52,9.672,9.672,0,0,0,.384-2.616V99.576H52.68Z" style="fill:#0e8fbf"/><circle cx="39" cy="39" r="39" style="fill:none"/><path d="M52.68,43.08a13.994,13.994,0,0,1-1.056,5.544,12.429,12.429,0,0,1-2.88,4.2,12.668,12.668,0,0,1-4.32,2.664,16.184,16.184,0,0,1-10.848,0,12.93,12.93,0,0,1-4.344-2.664,11.99,11.99,0,0,1-2.88-4.2A14.261,14.261,0,0,1,25.32,43.08v-21.5h6.048V42.888a9.672,9.672,0,0,0,.384,2.616,7.331,7.331,0,0,0,1.272,2.52,6.786,6.786,0,0,0,2.352,1.9A7.933,7.933,0,0,0,39,50.664a7.933,7.933,0,0,0,3.624-.744,6.786,6.786,0,0,0,2.352-1.9,7.366,7.366,0,0,0,1.272-2.52,9.672,9.672,0,0,0,.384-2.616V21.576H52.68Z" style="fill:#fff"/></g></g></svg>