<svg xmlns="http://www.w3.org/2000/svg" viewBox="0 0 73.5 73.5"><title>Asset 1</title><circle cx="36.75" cy="8.75" r="7" style="fill:none;stroke:#000;stroke-linecap:round;stroke-linejoin:round;stroke-width:3.5px"/><polyline points="43.75 48.417 41.417 71.75 32.083 71.75 29.75 48.417" style="fill:none;stroke:#000;stroke-linecap:round;stroke-linejoin:round;stroke-width:3.5px"/><polyline points="22.75 34.563 22.75 48.417 29.75 48.417" style="fill:none;stroke:#000;stroke-linecap:round;stroke-linejoin:round;stroke-width:3.5px"/><polyline points="50.75 34.563 50.75 48.417 43.75 48.417" style="fill:none;stroke:#000;stroke-linecap:round;stroke-linejoin:round;stroke-width:3.5px"/><path d="M50.75,34.417a14,14,0,0,0-28,0" style="fill:none;stroke:#000;stroke-linecap:round;stroke-linejoin:round;stroke-width:3.5px"/><circle cx="60.083" cy="13.417" r="7" style="fill:none;stroke:#000;stroke-linecap:round;stroke-linejoin:round;stroke-width:3.5px"/><polyline points="53.083 57.75 55.417 67.083 64.75 67.083 67.083 48.417" style="fill:none;stroke:#000;stroke-linecap:round;stroke-linejoin:round;stroke-width:3.5px"/><polyline points="71.75 39.229 71.75 48.417 67.083 48.417" style="fill:none;stroke:#000;stroke-linecap:round;stroke-linejoin:round;stroke-width:3.5px"/><path d="M71.75,39.083c0-7.729-3.938-14-11.667-14" style="fill:none;stroke:#000;stroke-linecap:round;stroke-linejoin:round;stroke-width:3.5px"/><circle cx="13.417" cy="13.417" r="7" style="fill:none;stroke:#000;stroke-linecap:round;stroke-linejoin:round;stroke-width:3.5px"/><polyline points="6.417 48.417 8.75 67.083 18.083 67.083 20.417 57.75" style="fill:none;stroke:#000;stroke-linecap:round;stroke-linejoin:round;stroke-width:3.5px"/><polyline points="1.75 39.229 1.75 48.417 6.417 48.417" style="fill:none;stroke:#000;stroke-linecap:round;stroke-linejoin:round;stroke-width:3.5px"/><path d="M1.75,39.083c0-7.729,3.933-14,11.667-14" style="fill:none;stroke:#000;stroke-linecap:round;stroke-linejoin:round;stroke-width:3.5px"/></svg>