<svg xmlns="http://www.w3.org/2000/svg" viewBox="0 0 49.299 60"><defs><style>.cls-1{opacity:0.44;}.cls-2{fill:#00b6e0;}.cls-3{fill:#fc326c;}.cls-4{fill:none;stroke:#000;stroke-linecap:round;stroke-linejoin:round;stroke-width:2px;}</style></defs><title>Asset 1</title><g id="Layer_2" data-name="Layer 2"><g id="Layer_1-2" data-name="Layer 1"><g class="cls-1"><path class="cls-2" d="M14.974,22.547a4.391,4.391,0,0,0-3.316-1.916c-1.48-.146-2.475.706-3.886.706-.75,0-1.6-.728-2.826-.706A5.164,5.164,0,0,0,.8,23.078C-.88,25.913.367,30.114,2,32.415c.8,1.125,1.749,2.392,3,2.346"/><path class="cls-2" d="M5,34.761c1.206-.047,1.674-.706,3.128-.706s1.851.73,3.123.706c1.294-.023,2.115-1.172,2.906-2.3a10.144,10.144,0,0,0,1.317-2.636c-.029-.013-3.107-.738-3.107-3.541a4.3,4.3,0,0,1,2.61-3.736"/><path class="cls-2" d="M8.554,15.823a4.75,4.75,0,0,0-.982,3.348,3.731,3.731,0,0,0,2.9-1.628,4.617,4.617,0,0,0,1.109-3.271,4.623,4.623,0,0,0-3.027,1.551"/></g><path class="cls-3" d="M44.394,23.835l1.662-2.327a.354.354,0,0,0-.576-.412L43.77,23.49a11.944,11.944,0,0,0-10.136,0L31.925,21.1a.354.354,0,0,0-.575.412l1.661,2.326a10.9,10.9,0,0,0-4.9,8.018.352.352,0,0,0,.35.4H48.946a.352.352,0,0,0,.35-.4A10.9,10.9,0,0,0,44.394,23.835ZM34.287,29.074a1.237,1.237,0,1,1,1.236-1.236A1.237,1.237,0,0,1,34.287,29.074Zm8.478,0A1.237,1.237,0,1,1,44,27.838,1.236,1.236,0,0,1,42.765,29.074Z"/><path class="cls-4" d="M37.808,55.133A3.822,3.822,0,0,1,34.058,59h-22.5a3.821,3.821,0,0,1-3.75-3.867V4.867A3.821,3.821,0,0,1,11.558,1h22.5a3.822,3.822,0,0,1,3.75,3.867Z"/><line class="cls-4" x1="19.808" y1="7" x2="25.808" y2="7"/><circle class="cls-4" cx="22.907" cy="54" r="1"/></g></g></svg>