<?xml version="1.0" encoding="utf-8"?>
<!-- Generator: Adobe Illustrator 23.0.4, SVG Export Plug-In . SVG Version: 6.00 Build 0)  -->
<svg version="1.1" id="Layer_1" xmlns="http://www.w3.org/2000/svg" xmlns:xlink="http://www.w3.org/1999/xlink" x="0px" y="0px"
	 viewBox="0 0 81.4 60" style="enable-background:new 0 0 81.4 60;" xml:space="preserve">
<style type="text/css">
	.st0{opacity:0.5;fill:#00B6E0;enable-background:new    ;}
	.st1{fill:none;stroke:#000000;stroke-width:2;stroke-linecap:round;stroke-linejoin:round;}
	.st2{opacity:0.93;}
	.st3{fill:#FC326C;}
</style>
<title>Asset 1</title>
<g>
	<g id="Layer_1-2">
		<polygon class="st0" points="35.2,33.1 47,26.3 35.2,19.6 		"/>
		<path class="st1" d="M31.5,53h-2.4c-2,0-3.6-1.7-3.6-3.7V4.7c0-2,1.6-3.7,3.6-3.7h21.8c2,0,3.6,1.7,3.6,3.7V28"/>
		<line class="st1" x1="36.5" y1="6" x2="43.5" y2="6"/>
		<path class="st1" d="M54.5,55V28c0,0,11,9.3,11,17v14"/>
		<path class="st1" d="M42.5,59l-5.6-7.9c-1.7-2.1-1.8-4.8,0-6.7l0,0c1.8-1.8,4.8-1.9,6.6,0c0,0,0,0,0,0l14,14.6"/>
		<g class="st2">
			<path class="st3" d="M8.3,15.6l-7-6.4C0.5,8.3,0,7.2,0,6c0-2.3,1.8-4.2,4.1-4.3c2.3,0,4.2,1.9,4.1,4.3c0-0.1,0-0.1,0-0.2
				c0.1-2.3,2-4.1,4.2-4c2.3,0.1,4.1,2,4,4.2c0,1.2-0.5,2.3-1.3,3.1L8.3,15.6z"/>
		</g>
		<g class="st2">
			<path class="st3" d="M75.7,36.3l-4.8-4.5c-0.6-0.6-0.9-1.3-0.9-2.2c0-1.6,1.2-2.9,2.8-2.9s2.9,1.2,2.9,2.8c0,0.1,0,0.1,0,0.2h0
				c0-0.1,0-0.1,0-0.2c0.1-1.6,1.4-2.8,3-2.8c1.6,0.1,2.8,1.4,2.8,3c0,0.8-0.3,1.6-0.9,2.2L75.7,36.3z"/>
		</g>
	</g>
</g>
</svg>
