<svg xmlns="http://www.w3.org/2000/svg" viewBox="0 0 78 156"><title>Asset 23</title><g id="Layer_2" data-name="Layer 2"><g id="Layer_1-2" data-name="Layer 1"><circle cx="39" cy="117" r="39" style="fill:#bdecf7"/><path d="M27.024,100.008H38.448a22.886,22.886,0,0,1,4.728.48,11.646,11.646,0,0,1,4.008,1.608,8.259,8.259,0,0,1,2.76,3.024,9.8,9.8,0,0,1,1.032,4.728,10.575,10.575,0,0,1-1.1,5.184A7.918,7.918,0,0,1,46.9,118.08a12.433,12.433,0,0,1-4.344,1.464,33.466,33.466,0,0,1-5.16.384h-4.32v14.064H27.024Zm9.7,14.736q1.3,0,2.688-.1a8.262,8.262,0,0,0,2.568-.576,4.549,4.549,0,0,0,1.92-1.44,4.3,4.3,0,0,0,.744-2.688,4.239,4.239,0,0,0-.672-2.52,4.451,4.451,0,0,0-1.728-1.44,7.29,7.29,0,0,0-2.352-.648,22.617,22.617,0,0,0-2.5-.144h-4.32v9.552Z" style="fill:#0e8fbf"/><circle cx="39" cy="39" r="39" style="fill:none"/><path d="M27.024,22.008H38.448a22.886,22.886,0,0,1,4.728.48A11.646,11.646,0,0,1,47.184,24.1a8.259,8.259,0,0,1,2.76,3.024,9.8,9.8,0,0,1,1.032,4.728,10.575,10.575,0,0,1-1.1,5.184A7.918,7.918,0,0,1,46.9,40.08a12.433,12.433,0,0,1-4.344,1.464,33.466,33.466,0,0,1-5.16.384h-4.32V55.992H27.024Zm9.7,14.736q1.3,0,2.688-.1a8.262,8.262,0,0,0,2.568-.576,4.549,4.549,0,0,0,1.92-1.44,4.3,4.3,0,0,0,.744-2.688,4.239,4.239,0,0,0-.672-2.52,4.451,4.451,0,0,0-1.728-1.44,7.29,7.29,0,0,0-2.352-.648,22.617,22.617,0,0,0-2.5-.144h-4.32v9.552Z" style="fill:#fff"/></g></g></svg>