<svg xmlns="http://www.w3.org/2000/svg" viewBox="0 0 42.502 60.5"><title>Asset 1</title><path d="M7.252,53.25H4.875A3.681,3.681,0,0,1,1.25,49.535V4.963A3.682,3.682,0,0,1,4.875,1.25H26.627a3.682,3.682,0,0,1,3.625,3.713V28.25" style="fill:none;stroke:#000;stroke-linecap:round;stroke-linejoin:round;stroke-width:2.5px"/><line x1="12.252" y1="6.25" x2="19.252" y2="6.25" style="fill:none;stroke:#000;stroke-linecap:round;stroke-linejoin:round;stroke-width:2.5px"/><path d="M30.252,55.25v-27s11,9.26,11,17v14" style="fill:none;stroke:#000;stroke-linecap:round;stroke-linejoin:round;stroke-width:2.5px"/><path d="M18.252,59.25l-5.626-7.92c-1.686-2.1-1.832-4.846,0-6.693h0a4.657,4.657,0,0,1,6.633,0L33.252,59.25" style="fill:none;stroke:#000;stroke-linecap:round;stroke-linejoin:round;stroke-width:2.5px"/><g style="opacity:0.93"><rect x="7.687" y="31.502" width="16.185" height="6.667"/></g></svg>