<svg xmlns="http://www.w3.org/2000/svg" viewBox="0 0 78 156"><title>Asset 6</title><g id="Layer_2" data-name="Layer 2"><g id="Layer_1-2" data-name="Layer 1"><circle cx="39" cy="117" r="39" style="fill:#bdecf7"/><path d="M55.008,131.5a29.366,29.366,0,0,1-14.064,3.36,19.862,19.862,0,0,1-7.224-1.272,16.194,16.194,0,0,1-9.384-9.192,18.862,18.862,0,0,1-1.344-7.248,19.687,19.687,0,0,1,1.344-7.416,16.64,16.64,0,0,1,3.72-5.688,16.334,16.334,0,0,1,5.664-3.624,19.883,19.883,0,0,1,7.224-1.272,27.45,27.45,0,0,1,7.3.936,15.023,15.023,0,0,1,6.1,3.336l-4.463,4.512a11.211,11.211,0,0,0-3.96-2.448,14.035,14.035,0,0,0-4.921-.864,11.778,11.778,0,0,0-4.776.936,10.928,10.928,0,0,0-3.672,2.592,11.783,11.783,0,0,0-2.376,3.864,13.252,13.252,0,0,0-.839,4.752,14.612,14.612,0,0,0,.839,5.04,11.828,11.828,0,0,0,2.376,3.984,11.028,11.028,0,0,0,3.672,2.64,11.523,11.523,0,0,0,4.776.96,20.939,20.939,0,0,0,4.344-.432,12.336,12.336,0,0,0,3.624-1.344v-8.016H42V114.12H55.008Z" style="fill:#0e8fbf"/><circle cx="39" cy="39" r="39" style="fill:none"/><path d="M55.008,53.5a29.366,29.366,0,0,1-14.064,3.36,19.862,19.862,0,0,1-7.224-1.272,16.194,16.194,0,0,1-9.384-9.192,18.862,18.862,0,0,1-1.344-7.248,19.687,19.687,0,0,1,1.344-7.416,16.64,16.64,0,0,1,3.72-5.688,16.334,16.334,0,0,1,5.664-3.624,19.883,19.883,0,0,1,7.224-1.272,27.45,27.45,0,0,1,7.3.936,15.023,15.023,0,0,1,6.1,3.336l-4.463,4.512a11.211,11.211,0,0,0-3.96-2.448,14.035,14.035,0,0,0-4.921-.864,11.778,11.778,0,0,0-4.776.936,10.928,10.928,0,0,0-3.672,2.592,11.783,11.783,0,0,0-2.376,3.864,13.252,13.252,0,0,0-.839,4.752,14.612,14.612,0,0,0,.839,5.04,11.828,11.828,0,0,0,2.376,3.984,11.028,11.028,0,0,0,3.672,2.64,11.523,11.523,0,0,0,4.776.96,20.939,20.939,0,0,0,4.344-.432,12.336,12.336,0,0,0,3.624-1.344V41.592H42V36.12H55.008Z" style="fill:#fff"/></g></g></svg>