<svg xmlns="http://www.w3.org/2000/svg" viewBox="0 0 78.587 63.209"><defs><style>.cls-1{fill:#00b6e0;opacity:0.44;}.cls-2{fill:none;stroke:#000;stroke-linecap:round;stroke-linejoin:round;stroke-width:2px;}</style></defs><title>Asset 1</title><g id="Layer_2" data-name="Layer 2"><g id="Layer_1-2" data-name="Layer 1"><rect class="cls-1" x="56.46" y="49.348" width="22.127" height="5.305"/><rect class="cls-1" x="56.46" y="57.904" width="22.127" height="5.305"/><polyline class="cls-2" points="1 56.885 25.005 38.023 38.722 53.455 69.586 24.306"/><polyline class="cls-2" points="69.586 38.023 69.586 24.306 55.869 24.306"/><rect class="cls-2" x="7.104" y="1" width="30" height="26" rx="1"/><line class="cls-2" x1="7.104" y1="7" x2="37.104" y2="7"/><line class="cls-2" x1="23.104" y1="21" x2="29.104" y2="21"/><polyline class="cls-2" points="15.103 13 19.104 17 15.103 21"/><polygon class="cls-2" points="10.104 4 10.104 4 10.104 4 10.104 4 10.104 4"/><polygon class="cls-2" points="13.104 4 13.104 4 13.104 4 13.104 4 13.104 4"/><polygon class="cls-2" points="16.104 4 16.104 4 16.104 4 16.104 4 16.104 4"/></g></g></svg>