<?xml version="1.0" encoding="utf-8"?>
<!-- Generator: Adobe Illustrator 23.0.4, SVG Export Plug-In . SVG Version: 6.00 Build 0)  -->
<svg version="1.1" id="Layer_1" xmlns="http://www.w3.org/2000/svg" xmlns:xlink="http://www.w3.org/1999/xlink" x="0px" y="0px"
	 viewBox="0 0 61 57" style="enable-background:new 0 0 61 57;" xml:space="preserve">
<style type="text/css">
	.st0{fill:none;stroke:#000000;stroke-width:3;stroke-linecap:round;stroke-linejoin:round;}
</style>
<title>Asset 1</title>
<g>
	<g id="Design">
		<path class="st0" d="M52.6,13.5h5c1.1,0,1.9,0.8,1.9,1.9v38.2c0,1.1-0.9,1.9-1.9,1.9H3.4c-1.1,0-1.9-0.8-1.9-1.9V15.4
			c0-1.1,0.9-1.9,1.9-1.9h22.2"/>
		<line class="st0" x1="11.5" y1="55.5" x2="11.5" y2="13.5"/>
		<line class="st0" x1="1.5" y1="34.5" x2="11.5" y2="34.5"/>
		<line class="st0" x1="24.7" y1="23.1" x2="45" y2="2.7"/>
		<line class="st0" x1="50.3" y1="8" x2="29.9" y2="28.3"/>
		<path class="st0" d="M45.1,2.6c1.5-1.5,3.8-1.5,5.3,0c1.5,1.5,1.5,3.8,0,5.3"/>
		<polyline class="st0" points="29.9,28.3 21.5,31.5 24.7,23.1 		"/>
	</g>
</g>
</svg>
