<svg xmlns="http://www.w3.org/2000/svg" viewBox="0 0 67.248 57.72"><defs><style>.cls-1{fill:#ff9e1d;opacity:0.5;}.cls-2{fill:none;stroke:#000;stroke-linecap:round;stroke-linejoin:round;stroke-width:2px;}</style></defs><title>Asset 1</title><g id="Layer_2" data-name="Layer 2"><g id="Layer_1-2" data-name="Layer 1"><polygon class="cls-1" points="43.102 15.898 18.957 57.72 67.248 57.72 43.102 15.898"/><path class="cls-2" d="M31.448,15.813a4,4,0,0,0,1.646-3.292c0-3.636-3.687-4.938-8.229-4.938s-8.229,1.3-8.229,4.938a3.843,3.843,0,0,0,1.645,3.292"/><path class="cls-2" d="M29.677,8.258A5.757,5.757,0,0,0,29.8,6.932C29.8,3.657,27.591,1,24.865,1s-4.938,2.657-4.938,5.932a7.1,7.1,0,0,0,.1,1.2"/><path class="cls-2" d="M40.226,26.52A17.868,17.868,0,0,0,32.9,14.213"/><path class="cls-2" d="M16.891,14.167c-4.722,3.2-7.662,9.066-7.662,15.983,0,10.26,11.676,18.58,15.636,18.58a10.567,10.567,0,0,0,4.963-1.971"/><polyline class="cls-2" points="12.728 17.304 4.182 15.319 1 6.76"/><polyline class="cls-2" points="9.848 34.687 4.182 36.002 1 42.969"/><line class="cls-2" x1="9.848" y1="24.865" x2="1" y2="26.511"/><polyline class="cls-2" points="37.003 17.304 45.549 15.319 48.73 6.76"/><line class="cls-2" x1="39.883" y1="24.865" x2="48.73" y2="26.511"/><circle class="cls-2" cx="38.855" cy="38.855" r="6.583"/><line class="cls-2" x1="43.958" y1="43.958" x2="48.73" y2="48.73"/></g></g></svg>