<?xml version="1.0" encoding="utf-8"?>
<!-- Generator: Adobe Illustrator 23.0.4, SVG Export Plug-In . SVG Version: 6.00 Build 0)  -->
<svg version="1.1" id="Layer_1" xmlns="http://www.w3.org/2000/svg" xmlns:xlink="http://www.w3.org/1999/xlink" x="0px" y="0px"
	 viewBox="0 0 42.5 60.5" style="enable-background:new 0 0 42.5 60.5;" xml:space="preserve">
<style type="text/css">
	.st0{fill:none;stroke:#000000;stroke-width:2.5;stroke-linecap:round;stroke-linejoin:round;}
</style>
<title>Asset 1</title>
<g>
	<g id="Devices_Technology">
		<path class="st0" d="M7.3,53.2H4.9c-2,0-3.6-1.7-3.6-3.7V5c0-2,1.6-3.7,3.6-3.7h21.8c2,0,3.6,1.7,3.6,3.7v23.3"/>
		<line class="st0" x1="12.3" y1="6.2" x2="19.3" y2="6.2"/>
		<path class="st0" d="M30.3,55.2v-27c0,0,11,9.3,11,17v14"/>
		<path class="st0" d="M18.3,59.2l-5.6-7.9c-1.7-2.1-1.8-4.8,0-6.7l0,0c1.8-1.8,4.8-1.9,6.6,0c0,0,0,0,0,0l14,14.6"/>
	</g>
</g>
</svg>
