<svg xmlns="http://www.w3.org/2000/svg" viewBox="0 0 154.632 158.621"><defs><style>.cls-1{fill:#00b6df;opacity:0.5;}.cls-2{opacity:0.4;}.cls-3{fill:#6441e2;}.cls-4{stroke:#000;stroke-miterlimit:10;stroke-width:0.6px;}</style></defs><title>Asset 1</title><g id="Layer_2" data-name="Layer 2"><g id="Layer_1-2" data-name="Layer 1"><polygon class="cls-1" points="124.733 106.835 94.834 158.621 154.632 158.621 124.733 106.835"/><g class="cls-2"><circle class="cls-3" cx="71.684" cy="71.684" r="71.684"/></g><path class="cls-4" d="M72.778,102.247a37.035,37.035,0,0,1-16.3-4.084,62.188,62.188,0,0,1-13.125-8.878A81.934,81.934,0,0,1,31.305,76.411a1.286,1.286,0,0,1,0-1.5A81.934,81.934,0,0,1,43.351,62.041a62.144,62.144,0,0,1,13.125-8.877,37.037,37.037,0,0,1,16.3-4.085,37.04,37.04,0,0,1,16.3,4.085,62.144,62.144,0,0,1,13.125,8.877,82.05,82.05,0,0,1,12.046,12.874,1.286,1.286,0,0,1,0,1.5,82.05,82.05,0,0,1-12.046,12.874A62.188,62.188,0,0,1,89.08,98.163,37.038,37.038,0,0,1,72.778,102.247ZM33.959,75.663A83.332,83.332,0,0,0,45.076,87.377c6.5,5.61,16.582,12.3,27.7,12.3s21.2-6.688,27.7-12.3A83.308,83.308,0,0,0,111.6,75.663a83.359,83.359,0,0,0-11.118-11.714c-6.5-5.61-16.582-12.3-27.7-12.3-11.138,0-21.236,6.709-27.745,12.336A83.185,83.185,0,0,0,33.959,75.663Z"/><path class="cls-4" d="M71.572,93.127A17.464,17.464,0,1,1,89.035,75.663,17.484,17.484,0,0,1,71.572,93.127Zm0-32.355A14.892,14.892,0,1,0,86.463,75.663,14.908,14.908,0,0,0,71.572,60.772Z"/><path class="cls-4" d="M71.572,82.669a7.006,7.006,0,1,1,7.006-7.006A7.014,7.014,0,0,1,71.572,82.669Zm0-11.44a4.434,4.434,0,1,0,4.434,4.434A4.439,4.439,0,0,0,71.572,71.229Z"/><path class="cls-4" d="M71.572,39.991a1.286,1.286,0,0,1-1.286-1.286V31.839a1.286,1.286,0,1,1,2.572,0v6.866A1.286,1.286,0,0,1,71.572,39.991Z"/><path class="cls-4" d="M36.806,56.488a1.281,1.281,0,0,1-.909-.376l-5.3-5.3A1.286,1.286,0,0,1,32.419,49l5.3,5.3a1.286,1.286,0,0,1-.91,2.2Z"/><path class="cls-4" d="M52.4,45.162a1.287,1.287,0,0,1-1.16-.731L47.867,37.4a1.286,1.286,0,1,1,2.319-1.113l3.376,7.036A1.287,1.287,0,0,1,52.4,45.162Z"/><path class="cls-4" d="M106.336,56.488a1.286,1.286,0,0,1-.909-2.2l5.3-5.3a1.286,1.286,0,0,1,1.819,1.819l-5.3,5.3A1.283,1.283,0,0,1,106.336,56.488Z"/><path class="cls-4" d="M90.739,45.162a1.287,1.287,0,0,1-1.158-1.843l3.375-7.036A1.286,1.286,0,0,1,95.275,37.4L91.9,44.431A1.287,1.287,0,0,1,90.739,45.162Z"/></g></g></svg>