<svg xmlns="http://www.w3.org/2000/svg" viewBox="0 0 78 156"><title>Asset 11</title><g id="Layer_2" data-name="Layer 2"><g id="Layer_1-2" data-name="Layer 1"><circle cx="39" cy="117" r="39" style="fill:#bdecf7"/><path d="M26.448,100.008H39.7a15.972,15.972,0,0,1,3.792.456,9.729,9.729,0,0,1,3.336,1.488,7.681,7.681,0,0,1,3.288,6.6A6.969,6.969,0,0,1,48.48,113.3a9.075,9.075,0,0,1-4.272,2.688v.1a8.788,8.788,0,0,1,2.952.888,7.835,7.835,0,0,1,2.328,1.776,8.2,8.2,0,0,1,1.512,2.5,8.339,8.339,0,0,1,.552,3.048,8.9,8.9,0,0,1-1.1,4.632,8.753,8.753,0,0,1-2.9,2.976,12.4,12.4,0,0,1-4.128,1.608,23.352,23.352,0,0,1-4.728.48H26.448ZM32.5,113.832h5.52a7.31,7.31,0,0,0,4.536-1.176,4.084,4.084,0,0,0-.048-6.384,9.011,9.011,0,0,0-5.016-1.08H32.5Zm0,14.976h5.568a22.869,22.869,0,0,0,2.472-.144,7.453,7.453,0,0,0,2.424-.672,4.782,4.782,0,0,0,1.824-1.512,4.421,4.421,0,0,0,.72-2.664,4.009,4.009,0,0,0-1.752-3.744,10.872,10.872,0,0,0-5.448-1.056H32.5Z" style="fill:#0e8fbf"/><circle cx="39" cy="39" r="39" style="fill:none"/><path d="M26.448,22.008H39.7a15.972,15.972,0,0,1,3.792.456,9.729,9.729,0,0,1,3.336,1.488,7.681,7.681,0,0,1,3.288,6.6A6.969,6.969,0,0,1,48.48,35.3a9.075,9.075,0,0,1-4.272,2.688v.1a8.788,8.788,0,0,1,2.952.888,7.835,7.835,0,0,1,2.328,1.776A8.2,8.2,0,0,1,51,43.248a8.339,8.339,0,0,1,.552,3.048,8.9,8.9,0,0,1-1.1,4.632,8.753,8.753,0,0,1-2.9,2.976,12.4,12.4,0,0,1-4.128,1.608,23.352,23.352,0,0,1-4.728.48H26.448ZM32.5,35.832h5.52a7.31,7.31,0,0,0,4.536-1.176,3.733,3.733,0,0,0,1.512-3.1,3.729,3.729,0,0,0-1.56-3.288,9.011,9.011,0,0,0-5.016-1.08H32.5Zm0,14.976h5.568a22.869,22.869,0,0,0,2.472-.144,7.453,7.453,0,0,0,2.424-.672,4.782,4.782,0,0,0,1.824-1.512,4.421,4.421,0,0,0,.72-2.664,4.009,4.009,0,0,0-1.752-3.744A10.872,10.872,0,0,0,38.3,41.016H32.5Z" style="fill:#fff"/></g></g></svg>