<svg xmlns="http://www.w3.org/2000/svg" viewBox="0 0 78 156"><title>Asset 24</title><g id="Layer_2" data-name="Layer 2"><g id="Layer_1-2" data-name="Layer 1"><circle cx="39" cy="117" r="39" style="fill:#bdecf7"/><path d="M20.976,117.145a19.687,19.687,0,0,1,1.344-7.416,16.64,16.64,0,0,1,3.72-5.688,16.334,16.334,0,0,1,5.664-3.624,19.883,19.883,0,0,1,7.224-1.272,20.211,20.211,0,0,1,7.3,1.176,15.959,15.959,0,0,1,5.713,3.576,16.527,16.527,0,0,1,3.743,5.664,19.519,19.519,0,0,1,1.344,7.392A18.881,18.881,0,0,1,55.68,124.2a16.635,16.635,0,0,1-3.743,5.616,17.117,17.117,0,0,1-5.713,3.672,20.207,20.207,0,0,1-7.3,1.368,19.862,19.862,0,0,1-7.224-1.272,16.194,16.194,0,0,1-9.384-9.192A18.862,18.862,0,0,1,20.976,117.145Zm6.336-.384a14.612,14.612,0,0,0,.84,5.04,11.838,11.838,0,0,0,2.376,3.984,11.017,11.017,0,0,0,3.672,2.64,11.523,11.523,0,0,0,4.776.96,11.694,11.694,0,0,0,4.8-.96,10.974,10.974,0,0,0,3.7-2.64,11.838,11.838,0,0,0,2.376-3.984,14.635,14.635,0,0,0,.84-5.04,13.274,13.274,0,0,0-.84-4.752,11.773,11.773,0,0,0-2.376-3.864,10.878,10.878,0,0,0-3.7-2.592,11.952,11.952,0,0,0-4.8-.936,11.778,11.778,0,0,0-4.776.936,10.918,10.918,0,0,0-3.672,2.592,11.773,11.773,0,0,0-2.376,3.864A13.253,13.253,0,0,0,27.312,116.761Z" style="fill:#0e8fbf"/><circle cx="39" cy="39" r="39" style="fill:none"/><path d="M20.976,39.145a19.687,19.687,0,0,1,1.344-7.416,16.64,16.64,0,0,1,3.72-5.688A16.334,16.334,0,0,1,31.7,22.417a19.883,19.883,0,0,1,7.224-1.272,20.211,20.211,0,0,1,7.3,1.176A15.959,15.959,0,0,1,51.937,25.9a16.527,16.527,0,0,1,3.743,5.664,19.519,19.519,0,0,1,1.344,7.392A18.881,18.881,0,0,1,55.68,46.2a16.635,16.635,0,0,1-3.743,5.616,17.117,17.117,0,0,1-5.713,3.672,20.207,20.207,0,0,1-7.3,1.368A19.862,19.862,0,0,1,31.7,55.585a16.194,16.194,0,0,1-9.384-9.192A18.862,18.862,0,0,1,20.976,39.145Zm6.336-.384a14.612,14.612,0,0,0,.84,5.04,11.838,11.838,0,0,0,2.376,3.984,11.017,11.017,0,0,0,3.672,2.64,11.523,11.523,0,0,0,4.776.96,11.694,11.694,0,0,0,4.8-.96,10.974,10.974,0,0,0,3.7-2.64A11.838,11.838,0,0,0,49.848,43.8a14.635,14.635,0,0,0,.84-5.04,13.274,13.274,0,0,0-.84-4.752,11.773,11.773,0,0,0-2.376-3.864,10.878,10.878,0,0,0-3.7-2.592,11.952,11.952,0,0,0-4.8-.936,11.778,11.778,0,0,0-4.776.936,10.918,10.918,0,0,0-3.672,2.592,11.773,11.773,0,0,0-2.376,3.864A13.253,13.253,0,0,0,27.312,38.761Z" style="fill:#fff"/></g></g></svg>