<svg xmlns="http://www.w3.org/2000/svg" viewBox="0 0 78 156"><title>Asset 9</title><g id="Layer_2" data-name="Layer 2"><g id="Layer_1-2" data-name="Layer 1"><circle cx="39" cy="117" r="39" style="fill:#bdecf7"/><path d="M23.664,100.008H37.057a20.5,20.5,0,0,1,6.479,1.032,15.758,15.758,0,0,1,5.521,3.144,15.37,15.37,0,0,1,3.839,5.3A18.134,18.134,0,0,1,54.336,117a15.773,15.773,0,0,1-5.928,12.84,18.214,18.214,0,0,1-5.807,3.12,20.272,20.272,0,0,1-6.265,1.032H23.664ZM34.225,128.52a21.418,21.418,0,0,0,5.351-.648,12.738,12.738,0,0,0,4.393-2.016A9.57,9.57,0,0,0,46.92,122.3,11.86,11.86,0,0,0,48,117a13.188,13.188,0,0,0-.96-5.28,9.192,9.192,0,0,0-2.664-3.576,11.119,11.119,0,0,0-4.031-2.016,19.037,19.037,0,0,0-5.113-.648h-5.52v23.04Z" style="fill:#0e8fbf"/><circle cx="39" cy="39" r="39" style="fill:none"/><path d="M23.664,22.008H37.057a20.5,20.5,0,0,1,6.479,1.032,15.758,15.758,0,0,1,5.521,3.144,15.37,15.37,0,0,1,3.839,5.3A18.134,18.134,0,0,1,54.336,39a15.773,15.773,0,0,1-5.928,12.84A18.214,18.214,0,0,1,42.6,54.96a20.272,20.272,0,0,1-6.265,1.032H23.664ZM34.225,50.52a21.418,21.418,0,0,0,5.351-.648,12.738,12.738,0,0,0,4.393-2.016A9.57,9.57,0,0,0,46.92,44.3,11.86,11.86,0,0,0,48,39a13.188,13.188,0,0,0-.96-5.28,9.192,9.192,0,0,0-2.664-3.576,11.119,11.119,0,0,0-4.031-2.016,19.037,19.037,0,0,0-5.113-.648h-5.52V50.52Z" style="fill:#fff"/></g></g></svg>