<svg xmlns="http://www.w3.org/2000/svg" viewBox="0 0 68.499 68.499"><defs><style>.cls-1{fill:none;stroke:#000;stroke-linecap:round;stroke-linejoin:round;stroke-width:3.699px;}</style></defs><title>Asset 1</title><g id="Layer_2" data-name="Layer 2"><g id="E-Commerce_Shopping" data-name="E-Commerce / Shopping"><path class="cls-1" d="M66.649,27.934a6.014,6.014,0,0,1-1.527,3.687l-33.5,34.4a2.166,2.166,0,0,1-3.054,0L2.479,39.928a2.166,2.166,0,0,1,0-3.054l34.4-33.5a6.023,6.023,0,0,1,3.687-1.527H64.489a2.166,2.166,0,0,1,2.16,2.16Z"/><circle class="cls-1" cx="53.689" cy="14.81" r="4.32"/><path class="cls-1" d="M32.614,35.887a4.32,4.32,0,1,1,6.109-6.111l3.056,3.054"/><path class="cls-1" d="M32.614,35.887A4.319,4.319,0,1,1,26.505,42l-3.054-3.054"/><line class="cls-1" x1="41.779" y1="26.721" x2="38.723" y2="29.776"/><line class="cls-1" x1="26.505" y1="41.995" x2="23.451" y2="45.05"/></g></g></svg>