<svg xmlns="http://www.w3.org/2000/svg" viewBox="0 0 91.006 73.488"><defs><style>.cls-1{opacity:0.7;}.cls-2{fill:#6441e2;}.cls-3{fill:#00b6e0;opacity:0.5;}.cls-4{fill:none;stroke:#000;stroke-linecap:round;stroke-linejoin:round;stroke-width:2px;}</style></defs><title>Asset 1</title><g id="Layer_2" data-name="Layer 2"><g id="Layer_1-2" data-name="Layer 1"><g class="cls-1"><polygon class="cls-2" points="75.811 25.788 60.616 52.106 91.006 52.106 75.811 25.788"/></g><circle class="cls-3" cx="12.834" cy="60.654" r="12.834"/><rect x="18.273" y="18.241" width="1.057" height="2.088"/><rect x="18.273" y="18.241" width="1.057" height="2.088"/><rect x="15.426" y="19.554" width="1.057" height="2.09" transform="translate(-9.893 17.315) rotate(-45)"/><rect x="13.825" y="23.016" width="2.089" height="1.057"/><rect x="15.14" y="25.863" width="2.088" height="1.057" transform="translate(-13.924 19.184) rotate(-45.02)"/><rect x="18.599" y="26.432" width="1.057" height="2.088"/><rect x="21.448" y="25.118" width="1.057" height="2.088" transform="translate(-12.063 23.203) rotate(-45)"/><rect x="22.017" y="22.689" width="2.088" height="1.057"/><rect x="20.702" y="19.841" width="2.087" height="1.057" transform="translate(-8.034 21.343) rotate(-45)"/><line class="cls-4" x1="76.773" y1="9.2" x2="71.244" y2="14.981"/><line class="cls-4" x1="85.54" y1="21.736" x2="77.811" y2="24.03"/><line class="cls-4" x1="63.86" y1="1" x2="61.912" y2="8.823"/><polygon class="cls-4" points="64.366 43.217 41.307 20.006 48.992 12.32 72.051 35.531 64.366 43.217"/><line class="cls-4" x1="39.522" y1="31.414" x2="41.307" y2="20.006"/><line class="cls-4" x1="64.366" y1="43.217" x2="53.108" y2="45"/><path class="cls-4" d="M53.108,45,26.959,69.418a4.018,4.018,0,0,1-5.527-.1L15.2,63.09a4.02,4.02,0,0,1-.093-5.527L39.522,31.414"/><circle class="cls-4" cx="43.051" cy="41.32" r="2"/></g></g></svg>