<svg xmlns="http://www.w3.org/2000/svg" viewBox="0 0 89.417 52.143"><g id="Layer_2" data-name="Layer 2"><g id="Layer_1-2" data-name="Layer 1"><path d="M39.179,46.271H37.248a2.989,2.989,0,0,1-2.943-3.017V7.058a2.99,2.99,0,0,1,2.943-3.015H54.912a2.99,2.99,0,0,1,2.944,3.015V25.969" style="fill:none;stroke:#000;stroke-linecap:round;stroke-linejoin:round;stroke-width:2px"/><line x1="43.239" y1="8.104" x2="48.924" y2="8.104" style="fill:none;stroke:#000;stroke-linecap:round;stroke-linejoin:round;stroke-width:2px"/><path d="M57.856,47.9V25.969s8.933,7.519,8.933,13.805V51.143" style="fill:none;stroke:#000;stroke-linecap:round;stroke-linejoin:round;stroke-width:2px"/><path d="M48.111,51.143l-4.568-6.432a3.979,3.979,0,0,1,0-5.435h0a3.782,3.782,0,0,1,5.386,0L60.292,51.143" style="fill:none;stroke:#000;stroke-linecap:round;stroke-linejoin:round;stroke-width:2px"/><path d="M21.6,38.362h1.44a2.23,2.23,0,0,0,2.2-2.251v-27a2.23,2.23,0,0,0-2.2-2.249H9.86a2.23,2.23,0,0,0-2.2,2.249V23.217" style="fill:none;stroke:#000;stroke-linecap:round;stroke-linejoin:round;stroke-width:2px"/><line x1="18.568" y1="9.889" x2="14.328" y2="9.889" style="fill:none;stroke:#000;stroke-linecap:round;stroke-linejoin:round;stroke-width:2px"/><path d="M7.664,39.574V23.217S1,28.826,1,33.516V42" style="fill:none;stroke:#000;stroke-linecap:round;stroke-linejoin:round;stroke-width:2px"/><path d="M14.933,42l3.409-4.8a2.97,2.97,0,0,0,0-4.055h0a2.822,2.822,0,0,0-4.018,0L5.846,42" style="fill:none;stroke:#000;stroke-linecap:round;stroke-linejoin:round;stroke-width:2px"/><path d="M70.417,28.53H69.158a1.949,1.949,0,0,1-1.919-1.967V2.966A1.949,1.949,0,0,1,69.158,1H80.674a1.949,1.949,0,0,1,1.92,1.966V15.294" style="fill:none;stroke:#000;stroke-linecap:round;stroke-linejoin:round;stroke-width:2px"/><line x1="73.064" y1="3.647" x2="76.77" y2="3.647" style="fill:none;stroke:#000;stroke-linecap:round;stroke-linejoin:round;stroke-width:2px"/><path d="M82.594,29.589V15.294s5.823,4.9,5.823,9v7.412" style="fill:none;stroke:#000;stroke-linecap:round;stroke-linejoin:round;stroke-width:2px"/><path d="M76.241,31.706l-2.979-4.193a2.594,2.594,0,0,1,0-3.543h0a2.467,2.467,0,0,1,3.512,0l7.408,7.736" style="fill:none;stroke:#000;stroke-linecap:round;stroke-linejoin:round;stroke-width:2px"/><rect x="39.599" y="29.173" width="13.037" height="5.37" style="fill:#00b6e0;opacity:0.5"/><g style="opacity:0.53"><rect x="11.745" y="25.424" width="9.89" height="4.074" style="fill:#6441e2"/></g><g style="opacity:0.53"><rect x="69.944" y="16.865" width="9.89" height="4.074" style="fill:#6441e2"/></g></g></g></svg>