<svg xmlns="http://www.w3.org/2000/svg" viewBox="0 0 84.442 58.104"><defs><style>.cls-1{fill:#ff9e1d;opacity:0.44;}.cls-2{fill:none;stroke:#000;stroke-linecap:round;stroke-linejoin:round;stroke-width:1.7px;}.cls-3{opacity:0.93;}.cls-4{fill:#fc326c;}</style></defs><title>Asset 1</title><g id="Layer_2" data-name="Layer 2"><g id="Layer_1-2" data-name="Layer 1"><circle class="cls-1" cx="30.697" cy="14.578" r="14.578"/><path class="cls-2" d="M36.987,52.642H35.16a2.829,2.829,0,0,1-2.786-2.856V15.526a2.829,2.829,0,0,1,2.786-2.853H51.879a2.83,2.83,0,0,1,2.787,2.853v17.9"/><line class="cls-2" x1="40.83" y1="16.516" x2="46.211" y2="16.516"/><path class="cls-2" d="M54.666,54.179V33.426s8.455,7.117,8.455,13.067V57.254"/><path class="cls-2" d="M45.442,57.254l-4.324-6.088a3.766,3.766,0,0,1,0-5.145h0a3.581,3.581,0,0,1,5.1,0L56.972,57.254"/><path class="cls-2" d="M20.346,45.156h1.363a2.11,2.11,0,0,0,2.078-2.13V17.468a2.11,2.11,0,0,0-2.078-2.129H9.236a2.111,2.111,0,0,0-2.079,2.129V30.821"/><line class="cls-2" x1="17.479" y1="18.206" x2="13.465" y2="18.206"/><path class="cls-2" d="M7.157,46.3V30.821S.85,36.13.85,40.569V48.6"/><path class="cls-2" d="M14.038,48.6l3.226-4.541a2.81,2.81,0,0,0,0-3.838h0a2.67,2.67,0,0,0-3.8,0L5.437,48.6"/><path class="cls-2" d="M66.555,35.85H65.364a1.845,1.845,0,0,1-1.817-1.862V11.653a1.845,1.845,0,0,1,1.817-1.861h10.9a1.845,1.845,0,0,1,1.816,1.861V23.322"/><line class="cls-2" x1="69.06" y1="12.298" x2="72.568" y2="12.298"/><path class="cls-2" d="M78.08,36.852V23.322s5.512,4.64,5.512,8.519v7.015"/><path class="cls-2" d="M72.067,38.856l-2.819-3.968a2.457,2.457,0,0,1,0-3.355h0a2.335,2.335,0,0,1,3.323,0l7.013,7.323"/><g class="cls-3"><rect class="cls-4" x="37.385" y="36.458" width="12.34" height="5.083"/></g><g class="cls-3"><rect class="cls-4" x="11.02" y="32.91" width="9.361" height="3.856"/></g><g class="cls-3"><rect class="cls-4" x="66.107" y="24.809" width="9.361" height="3.856"/></g></g></g></svg>