<svg xmlns="http://www.w3.org/2000/svg" viewBox="0 0 28.378 38.5"><title>Asset 1</title><path d="M9.75,27.229V10.75c0-1.656.844-3,2.5-3s2.5,1.344,2.5,3l-.021,10.958" style="fill:none;stroke:#fff;stroke-linecap:round;stroke-linejoin:round;stroke-width:1.5px"/><path d="M14.75,21.75a2.83,2.83,0,0,1,2.312-.938,2.666,2.666,0,0,1,2.208,1.813,2.683,2.683,0,0,1,2.584-.73,2.507,2.507,0,0,1,1.916,1.813,2.416,2.416,0,0,1,2.5-.625,2.235,2.235,0,0,1,1.313,2.584C27.417,26.6,24.75,36.75,24.75,36.75" style="fill:none;stroke:#fff;stroke-linecap:round;stroke-linejoin:round;stroke-width:1.5px"/><path d="M.75,23.75a4.494,4.494,0,0,1,5.65,0l3.35,3.479" style="fill:none;stroke:#fff;stroke-linecap:round;stroke-linejoin:round;stroke-width:1.5px"/><path d="M24.75,36.75a26.754,26.754,0,0,1-7.344,1,30.724,30.724,0,0,1-7.656-1" style="fill:none;stroke:#fff;stroke-linecap:round;stroke-linejoin:round;stroke-width:1.5px"/><path d="M9.75,36.75a50.912,50.912,0,0,1-4.313-6.094C3.253,27.051.75,23.75.75,23.75" style="fill:none;stroke:#fff;stroke-linecap:round;stroke-linejoin:round;stroke-width:1.5px"/><line x1="21.75" y1="9.75" x2="18.75" y2="9.75" style="fill:none;stroke:#fff;stroke-linecap:round;stroke-linejoin:round;stroke-width:1.5px"/><line x1="18.75" y1="2.75" x2="16.75" y2="4.75" style="fill:none;stroke:#fff;stroke-linecap:round;stroke-linejoin:round;stroke-width:1.5px"/><line x1="12.25" y1="0.75" x2="12.25" y2="3.75" style="fill:none;stroke:#fff;stroke-linecap:round;stroke-linejoin:round;stroke-width:1.5px"/><line x1="5.75" y1="2.75" x2="7.75" y2="4.75" style="fill:none;stroke:#fff;stroke-linecap:round;stroke-linejoin:round;stroke-width:1.5px"/><line x1="2.75" y1="9.75" x2="5.75" y2="9.75" style="fill:none;stroke:#fff;stroke-linecap:round;stroke-linejoin:round;stroke-width:1.5px"/></svg>