<svg xmlns="http://www.w3.org/2000/svg" viewBox="0 0 68.797 49.64"><defs><style>.cls-1{opacity:0.7;}.cls-2{fill:#6441e2;}.cls-3{fill:#ff9e1d;opacity:0.44;}.cls-4{fill:none;stroke:#000;stroke-linecap:round;stroke-linejoin:round;stroke-width:2px;}</style></defs><title>Asset 1</title><g id="Layer_2" data-name="Layer 2"><g id="Layer_1-2" data-name="Layer 1"><g class="cls-1"><circle class="cls-2" cx="55.963" cy="36.807" r="12.834"/></g><rect x="36.992" y="27.92" width="13.492" height="3"/><rect x="37.219" y="23.404" width="13.145" height="3"/><rect class="cls-3" x="10.403" y="8.154" width="15.237" height="5.658"/><path class="cls-4" d="M5,35V2.945A1.941,1.941,0,0,1,6.923,1H53.077A1.941,1.941,0,0,1,55,2.945V35"/><line class="cls-4" x1="1" y1="35" x2="22.001" y2="35"/><line class="cls-4" x1="38.001" y1="35" x2="59.001" y2="35"/><path class="cls-4" d="M59,35v6a1.974,1.974,0,0,1-1.934,2H2.934A1.973,1.973,0,0,1,1,41V35"/><polyline class="cls-4" points="38.001 35 38.001 37 22.001 37 22.001 35"/><polyline class="cls-4" points="9.521 26.919 23.521 15.919 31.521 24.919 49.521 7.919"/><polyline class="cls-4" points="49.521 15.919 49.521 7.919 41.521 7.919"/></g></g></svg>