<svg xmlns="http://www.w3.org/2000/svg" viewBox="0 0 69.176 64.745"><defs><style>.cls-1{opacity:0.4;}.cls-2{fill:#6441e2;}.cls-3{fill:#00b5df;opacity:0.5;}</style></defs><title>Asset 1</title><g id="Layer_2" data-name="Layer 2"><g id="Layer_1-2" data-name="Layer 1"><g class="cls-1"><circle class="cls-2" cx="56.342" cy="51.912" r="12.834"/></g><path d="M57.822,46.928V6.058a6.058,6.058,0,1,0-12.116,0V7.494H0V52.985H51.763a6.06,6.06,0,0,0,6.04-5.693Zm-6.059,3.807H2.25V9.744H45.706v37.2h2.269a3.79,3.79,0,1,1,3.788,3.8Zm3.809-8.175L55,42.194a6.15,6.15,0,0,0-6.465,0l-.576.366V6.058a3.808,3.808,0,1,1,7.616,0Z"/><rect x="7.322" y="32.868" width="15.237" height="3"/><rect x="27.333" y="32.868" width="14.845" height="3"/><rect x="7.322" y="37.578" width="15.237" height="3"/><rect x="27.333" y="37.578" width="14.845" height="3"/><rect x="7.322" y="42.775" width="15.237" height="3"/><rect x="27.333" y="42.775" width="14.845" height="3"/><rect class="cls-3" x="7.322" y="14.833" width="15.237" height="15.237"/><g class="cls-1"><rect class="cls-2" x="27.138" y="14.833" width="15.237" height="15.237"/></g></g></g></svg>