<svg xmlns="http://www.w3.org/2000/svg" viewBox="0 0 511.004 422.367"><title>Asset 2</title><g id="Layer_2" data-name="Layer 2"><g id="Layer_1-2" data-name="Layer 1"><path d="M12.7,281.282A151.8,151.8,0,0,0,3.556,303.9C-3.2,326.943.033,348.037,10.188,365.817c13.213,23.134,38.142,40.658,68.03,49.568q3.66,1.092,7.428,2.022a175.617,175.617,0,0,0,68.967,2.8q5.493-.866,10.993-2.092a126.994,126.994,0,0,0,20.223-6.373c30.994-12.606,54.975-35.214,85.835-49.912q.518-.246,1.036-.489c48.091-22.513,93.581-5.312,140.14-6.84,28.71-.942,64.351-15.5,83.816-36.417,13.2-14.185,18.962-31.294,10.079-49.063-6.332-12.66-18.979-18.378-32.239-23.8-10.044-4.1-20.44-8.036-28.71-14.684-17.433-14.014-20.209-35.387-17.309-57.691,2.07-15.924,7.034-32.323,11.622-46.857,11.473-36.344-2.639-68.949-28.5-92.175A136.85,136.85,0,0,0,380.693,13.1C340.62-6.644,297.709-.969,253.227,9.882c-11.849,2.89-23.809,6.147-35.857,9.389-16.335,4.4-32.871,8.765-49.364,12.134q-4.641.948-9.276,1.784C121.077,39.956,84.178,46.923,52.4,71.008c-47.371,35.9-39.112,72.551-24.292,118.21,1.688,5.2,3.461,10.518,5.247,15.965C41.367,229.619,24.991,255.731,12.7,281.282Z" style="fill:#444"/></g></g></svg>