<?xml version="1.0" encoding="UTF-8"?> <svg xmlns="http://www.w3.org/2000/svg" viewBox="0 0 191.40484 191.48431"><g id="Layer_2" data-name="Layer 2"><g id="Layer_1-2" data-name="Layer 1"><path d="M47.63928,111.41505a65.02658,65.02658,0,0,1,59.09831-64.75171V0A102.02972,102.02972,0,0,0,53.3777,14.29776,106.71976,106.71976,0,0,0,14.31556,160.07968L53.156,137.65513A64.79158,64.79158,0,0,1,47.63928,111.41505Z" style="fill:#1d1a29;opacity:0.5"></path><circle cx="108.40484" cy="108.48431" r="83" style="fill:#1c1a28"></circle><path d="M66.82687,121.3154h4.32031v1.98047h.06006a3.644,3.644,0,0,1,.59961-.84082,4.40577,4.40577,0,0,1,.93018-.75,5.34474,5.34474,0,0,1,1.23-.54,5.1419,5.1419,0,0,1,1.5-.21,5.68459,5.68459,0,0,1,2.71484.63086A3.98735,3.98735,0,0,1,79.967,123.5654a4.86925,4.86925,0,0,1,1.89013-2.00976,5.67442,5.67442,0,0,1,2.73-.60059,5.5714,5.5714,0,0,1,2.4751.49512,4.05259,4.05259,0,0,1,1.58984,1.35058,5.68663,5.68663,0,0,1,.83985,2.00977,11.50116,11.50116,0,0,1,.25537,2.47461v8.61035h-4.5v-8.49023a3.39,3.39,0,0,0-.43506-1.75489,1.64741,1.64741,0,0,0-1.54541-.73535,2.97379,2.97379,0,0,0-1.30469.25586,2.14614,2.14614,0,0,0-.84033.70508,2.92382,2.92382,0,0,0-.44971,1.0498,5.73916,5.73916,0,0,0-.13525,1.25977v7.71h-4.5v-7.71q0-.38966-.02979-.96a3.82951,3.82951,0,0,0-.21-1.08008,2.06971,2.06971,0,0,0-.585-.87012,1.73034,1.73034,0,0,0-1.18506-.36035,2.77835,2.77835,0,0,0-1.41015.31543,2.1454,2.1454,0,0,0-.82471.83985,3.42991,3.42991,0,0,0-.375,1.18554,10.18834,10.18834,0,0,0-.09033,1.37989v7.25976h-4.5Z" style="fill:#fff"></path><path d="M91.94259,116.72556a2.61234,2.61234,0,1,1,.76465,1.84473A2.51441,2.51441,0,0,1,91.94259,116.72556Zm.36035,4.58984h4.5v14.58008h-4.5Z" style="fill:#fff"></path><path d="M99.46408,113.21579h4.5v22.67969h-4.5Z" style="fill:#fff"></path><path d="M106.61837,113.21579h4.5v22.67969h-4.5Z" style="fill:#fff"></path><path d="M113.4338,116.72556a2.61234,2.61234,0,1,1,.76465,1.84473A2.51445,2.51445,0,0,1,113.4338,116.72556Zm.36035,4.58984h4.5v14.58008h-4.5Z" style="fill:#fff"></path><path d="M120.15353,128.60544a7.64558,7.64558,0,0,1,.62988-3.15039,7.25965,7.25965,0,0,1,1.72559-2.415,7.6335,7.6335,0,0,1,2.58008-1.54492,9.54475,9.54475,0,0,1,6.33007,0,7.63872,7.63872,0,0,1,2.57911,1.54492,7.25977,7.25977,0,0,1,1.72558,2.415,8.19339,8.19339,0,0,1,0,6.30078,7.24,7.24,0,0,1-1.72558,2.415,7.623,7.623,0,0,1-2.57911,1.54492,9.54475,9.54475,0,0,1-6.33007,0,7.61778,7.61778,0,0,1-2.58008-1.54492,7.23985,7.23985,0,0,1-1.72559-2.415A7.64232,7.64232,0,0,1,120.15353,128.60544Zm4.5,0a3.77131,3.77131,0,0,0,.94531,2.66992,3.96337,3.96337,0,0,0,5.30957,0,4.2431,4.2431,0,0,0,0-5.33984,3.96337,3.96337,0,0,0-5.30957,0A3.773,3.773,0,0,0,124.65353,128.60544Z" style="fill:#fff"></path><path d="M138.24923,121.3154h4.32031v1.98047h.05958a3.62087,3.62087,0,0,1,.60058-.84082,4.39041,4.39041,0,0,1,.92969-.75,5.3489,5.3489,0,0,1,1.23047-.54,5.13713,5.13713,0,0,1,1.5-.21,6.20312,6.20312,0,0,1,2.75976.52539,3.99648,3.99648,0,0,1,1.63477,1.45508,5.88242,5.88242,0,0,1,.79492,2.19043,16.66694,16.66694,0,0,1,.21,2.72949v8.04h-4.5v-7.13965q0-.62988-.04492-1.30566a4.15476,4.15476,0,0,0-.26953-1.24512,1.93748,1.93748,0,0,0-2.02539-1.29,2.77961,2.77961,0,0,0-1.41016.31543,2.15,2.15,0,0,0-.82519.83985,3.44012,3.44012,0,0,0-.375,1.18554,10.27,10.27,0,0,0-.08985,1.37989v7.25976h-4.5Z" style="fill:#fff"></path><path d="M82.17648,96.01218H66.72677v-6.2998l14.44971-22h8.20019v22H93.926v6.2998H89.37667v7.1001H82.17648Zm0-18.5h-.1001l-7.84961,12.2002h7.94971Z" style="fill:#fff"></path><path d="M95.16134,85.41208a36.74518,36.74518,0,0,1,.57422-6.3999,18.71822,18.71822,0,0,1,2.05078-5.8999,12.20219,12.20219,0,0,1,4.02442-4.3252,13.45085,13.45085,0,0,1,13,0,12.21377,12.21377,0,0,1,4.02539,4.3252,18.79024,18.79024,0,0,1,2.0498,5.8999,35.89422,35.89422,0,0,1,0,12.80029,18.78872,18.78872,0,0,1-2.0498,5.90039,12.20261,12.20261,0,0,1-4.02539,4.32422,13.45078,13.45078,0,0,1-13,0,12.191,12.191,0,0,1-4.02442-4.32422,18.71672,18.71672,0,0,1-2.05078-5.90039A36.738,36.738,0,0,1,95.16134,85.41208Zm7.5,0q0,1.4004.125,3.3501a16.2684,16.2684,0,0,0,.67481,3.75,7.95553,7.95553,0,0,0,1.6748,3.05029,4.62577,4.62577,0,0,0,6.3252,0,7.7973,7.7973,0,0,0,1.70019-3.05029,16.42654,16.42654,0,0,0,.67481-3.75q.1245-1.9497.125-3.3501,0-1.39891-.125-3.34961a16.42654,16.42654,0,0,0-.67481-3.75,7.80091,7.80091,0,0,0-1.70019-3.05029,4.62577,4.62577,0,0,0-6.3252,0,7.95929,7.95929,0,0,0-1.6748,3.05029,16.2684,16.2684,0,0,0-.67481,3.75Q102.66037,84.01218,102.66134,85.41208Z" style="fill:#fff"></path><path d="M123.74044,84.81247h10.54981V74.26218h6.2998V84.81247h10.54981v6.29981H140.59005v10.5498h-6.2998V91.11228H123.74044Z" style="fill:#fff"></path><path d="M74.93185,147.57029H78.614a7.24369,7.24369,0,0,1,1.45605.14062,3.3056,3.3056,0,0,1,1.19678.48242,2.4508,2.4508,0,0,1,.812.92383,3.1656,3.1656,0,0,1,.30127,1.46387,3.37389,3.37389,0,0,1-.28027,1.45605,2.389,2.389,0,0,1-.77.9375,3.11472,3.11472,0,0,1-1.16162.49707,6.83517,6.83517,0,0,1-1.45606.14746H77.11593v3.86329H74.93185Zm2.18408,4.20019H78.572a2.82577,2.82577,0,0,0,.56689-.05566,1.50416,1.50416,0,0,0,.49024-.18946,1.00835,1.00835,0,0,0,.35009-.36328,1.1547,1.1547,0,0,0,.13282-.58105.98746.98746,0,0,0-.17481-.60938,1.16557,1.16557,0,0,0-.44824-.35742,1.91962,1.91962,0,0,0-.60889-.16015,6.20064,6.20064,0,0,0-.644-.03516H77.11593Z" style="fill:#fff"></path><path d="M84.97384,147.57029h2.18408v7.89648h4.04639v2.01563H84.97384Z" style="fill:#fff"></path><path d="M97.43869,147.57029h1.80664l4.31152,9.91211H101.093l-.85351-2.09961H96.38888l-.82617,2.09961H93.15548Zm.84082,2.88476-1.20411,3.0791h2.42188Z" style="fill:#fff"></path><path d="M107.19747,153.25486l-3.7246-5.68457h2.71582l2.10058,3.71,2.22559-3.71h2.58984l-3.72363,5.68457v4.22754h-2.1836Z" style="fill:#fff"></path><path d="M115.37814,147.57029h6.73437v2.0166h-4.5498v1.84765h4.29785v2.01563h-4.29785v2.0166h4.80176v2.01563h-6.98633Z" style="fill:#fff"></path><path d="M125.48947,147.57029h3.83593a6.79938,6.79938,0,0,1,1.43555.14746,3.40368,3.40368,0,0,1,1.18945.49023,2.44143,2.44143,0,0,1,.8125.92383,3.13579,3.13579,0,0,1,.30079,1.44922,2.9051,2.9051,0,0,1-.5459,1.78418,2.46041,2.46041,0,0,1-1.59571.93164l2.51954,4.18555h-2.61817l-2.07226-3.96192H127.674v3.96192h-2.18457Zm2.18457,4.10254h1.28808c.19532,0,.40332-.00684.62207-.02149a1.9371,1.9371,0,0,0,.59571-.126,1.02248,1.02248,0,0,0,.44043-.3291.99492.99492,0,0,0,.17578-.62988,1.0457,1.0457,0,0,0-.1543-.60156,1.02048,1.02048,0,0,0-.39258-.34278,1.70082,1.70082,0,0,0-.5459-.16113,4.38982,4.38982,0,0,0-.60156-.042H127.674Z" style="fill:#fff"></path><path d="M140.91427,149.99216a1.55938,1.55938,0,0,0-.72168-.49609,2.57658,2.57658,0,0,0-.86035-.16114,2.26718,2.26718,0,0,0-.49023.05567,1.863,1.863,0,0,0-.47559.1748,1.03957,1.03957,0,0,0-.36426.31543.87328.87328,0,0,0,.19629,1.16211,3.165,3.165,0,0,0,.84668.40528q.51123.16845,1.09863.33593a4.54888,4.54888,0,0,1,1.09961.47657,2.59937,2.59937,0,0,1,.84668.82617,2.51953,2.51953,0,0,1,.33594,1.38574,3.19253,3.19253,0,0,1-.30762,1.44238,2.93986,2.93986,0,0,1-.833,1.02149,3.53391,3.53391,0,0,1-1.21875.60156,5.58231,5.58231,0,0,1-3.25489-.09766,4.50272,4.50272,0,0,1-1.54-.95215l1.55469-1.708a2.26045,2.26045,0,0,0,.84668.69336,2.4228,2.4228,0,0,0,1.05664.24511,2.38834,2.38834,0,0,0,.53906-.06347,1.74824,1.74824,0,0,0,.49024-.18848,1.04777,1.04777,0,0,0,.34961-.32227.80113.80113,0,0,0,.13379-.46191.83683.83683,0,0,0-.34375-.707,3.17937,3.17937,0,0,0-.86036-.44141q-.51855-.18164-1.12011-.36328a5.01874,5.01874,0,0,1-1.12012-.49023,2.69134,2.69134,0,0,1-.86133-.81153,2.32646,2.32646,0,0,1-.34277-1.33007,2.97914,2.97914,0,0,1,.31543-1.40039,3.02685,3.02685,0,0,1,.83984-1.00782,3.66214,3.66214,0,0,1,1.21094-.60937,4.97573,4.97573,0,0,1,1.41406-.20313,5.58178,5.58178,0,0,1,1.624.23828,3.75725,3.75725,0,0,1,1.41406.79786Z" style="fill:#fff"></path></g></g></svg> 