<?xml version="1.0" encoding="utf-8"?>
<!-- Generator: Adobe Illustrator 24.1.0, SVG Export Plug-In . SVG Version: 6.00 Build 0)  -->
<!DOCTYPE svg PUBLIC "-//W3C//DTD SVG 1.1//EN" "http://www.w3.org/Graphics/SVG/1.1/DTD/svg11.dtd" [
	<!ENTITY ns_extend "http://ns.adobe.com/Extensibility/1.0/">
	<!ENTITY ns_ai "http://ns.adobe.com/AdobeIllustrator/10.0/">
	<!ENTITY ns_graphs "http://ns.adobe.com/Graphs/1.0/">
	<!ENTITY ns_vars "http://ns.adobe.com/Variables/1.0/">
	<!ENTITY ns_imrep "http://ns.adobe.com/ImageReplacement/1.0/">
	<!ENTITY ns_sfw "http://ns.adobe.com/SaveForWeb/1.0/">
	<!ENTITY ns_custom "http://ns.adobe.com/GenericCustomNamespace/1.0/">
	<!ENTITY ns_adobe_xpath "http://ns.adobe.com/XPath/1.0/">
]>
<svg version="1.1" id="Layer_1" xmlns:x="&ns_extend;" xmlns:i="&ns_ai;" xmlns:graph="&ns_graphs;"
	 xmlns="http://www.w3.org/2000/svg" xmlns:xlink="http://www.w3.org/1999/xlink" x="0px" y="0px" viewBox="0 0 225.85 399.77"
	 style="enable-background:new 0 0 225.85 399.77;" xml:space="preserve">
<style type="text/css">
	.st0{fill:#FC326C;}
	.st1{fill:#FF5B3B;}
	.st2{fill:#FF9E1D;}
	.st3{opacity:0.6;fill:#FFFFFF;enable-background:new    ;}
	.st4{fill:url(#SVGID_1_);}
	.st5{fill:url(#SVGID_2_);}
	.st6{fill:url(#SVGID_3_);}
	.st7{fill:url(#SVGID_4_);}
	.st8{fill:url(#SVGID_5_);}
	.st9{fill:#FFFFFF;}
</style>
<metadata>
	<sfw  xmlns="&ns_sfw;">
		<slices></slices>
		<sliceSourceBounds  bottomLeftOrigin="true" height="391.3" width="223.41" x="2.44" y="8.47"></sliceSourceBounds>
	</sfw>
</metadata>
<g>
	<g id="Layer_2_1_">
		<g id="Layer_1-2">
			<circle class="st0" cx="176.17" cy="49.69" r="49.69"/>
			<circle class="st1" cx="176.17" cy="49.69" r="33.07"/>
			<circle class="st2" cx="176.17" cy="49.69" r="16.46"/>
			<path class="st3" d="M225.85,49.69c0.01-10.38-3.24-20.49-9.29-28.92L178.7,45.62c-3.45,2.26-3.45,5.96,0,8.22l37.81,24.82
				C222.6,70.23,225.86,60.09,225.85,49.69z"/>
			
				<linearGradient id="SVGID_1_" gradientUnits="userSpaceOnUse" x1="9.519" y1="214.0065" x2="107.768" y2="214.0065" gradientTransform="matrix(1 0 0 -1 0 402)">
				<stop  offset="0" style="stop-color:#590DA1"/>
				<stop  offset="1" style="stop-color:#6441E2"/>
			</linearGradient>
			<polygon class="st4" points="83.21,138.94 58.64,171.64 34.08,138.94 9.52,171.64 9.52,237.05 34.08,204.35 58.64,237.05 
				83.21,204.35 107.77,237.05 107.77,171.64 			"/>
			
				<linearGradient id="SVGID_2_" gradientUnits="userSpaceOnUse" x1="9.519" y1="214.0065" x2="34.081" y2="214.0065" gradientTransform="matrix(1 0 0 -1 0 402)">
				<stop  offset="0" style="stop-color:#17B6D5"/>
				<stop  offset="0.7" style="stop-color:#6478E2"/>
			</linearGradient>
			<polygon class="st5" points="34.08,138.94 9.52,171.64 9.52,237.05 34.08,204.35 			"/>
			
				<linearGradient id="SVGID_3_" gradientUnits="userSpaceOnUse" x1="34.081" y1="214.0065" x2="58.644" y2="214.0065" gradientTransform="matrix(1 0 0 -1 0 402)">
				<stop  offset="0" style="stop-color:#590DA1"/>
				<stop  offset="1" style="stop-color:#6441E2"/>
			</linearGradient>
			<polygon class="st6" points="34.08,138.94 58.64,171.64 58.64,237.05 34.08,204.35 			"/>
			
				<linearGradient id="SVGID_4_" gradientUnits="userSpaceOnUse" x1="58.644" y1="214.0065" x2="83.206" y2="214.0065" gradientTransform="matrix(1 0 0 -1 0 402)">
				<stop  offset="0" style="stop-color:#17B6D5"/>
				<stop  offset="0.7" style="stop-color:#6478E2"/>
			</linearGradient>
			<polygon class="st7" points="83.21,138.94 58.64,171.64 58.64,237.05 83.21,204.35 			"/>
			
				<linearGradient id="SVGID_5_" gradientUnits="userSpaceOnUse" x1="83.206" y1="214.0065" x2="107.768" y2="214.0065" gradientTransform="matrix(1 0 0 -1 0 402)">
				<stop  offset="0" style="stop-color:#590DA1"/>
				<stop  offset="1" style="stop-color:#6441E2"/>
			</linearGradient>
			<polygon class="st8" points="83.21,138.94 107.77,171.64 107.77,237.05 83.21,204.35 			"/>
		</g>
	</g>
</g>
<g id="Layer_2_2_">
	<g id="Layer_1-2_1_">
		<path d="M94.68,381.37c1.17-0.91,1.83-2.33,1.78-3.81c0-3.4-2.52-5.46-6.34-5.46h-7.57v19.2h8.09c3.89,0,6.45-2.22,6.45-5.62
			C97.15,383.9,96.22,382.25,94.68,381.37z M87.76,387.07c0,0.31-0.25,0.57-0.57,0.57c-0.31,0-0.57-0.25-0.57-0.57c0,0,0,0,0,0
			v-10.75c0-0.31,0.25-0.57,0.57-0.57c0.31,0,0.57,0.25,0.57,0.57c0,0,0,0,0,0V387.07z"/>
		<rect x="38.58" y="372.1" width="5.47" height="19.2"/>
		<rect x="45.19" y="385.79" width="6.05" height="5.51"/>
		<path d="M69.34,372.1h-5.98l-6.34,19.2h4.41l3.29-9.92c0.1-0.3,0.42-0.46,0.72-0.36c0.3,0.1,0.46,0.42,0.36,0.72c0,0,0,0,0,0
			l-3.17,9.56h13.04L69.34,372.1z"/>
		<path d="M18.57,344.29c-0.35,2.27-0.49,4.56-0.43,6.86c0.17,6.89,1.42,13.99,5.68,19.58c1.33,1.73,2.85,3.31,4.53,4.7
			c0.64,0.53,2.64,2.48,3.61,1.68c0.72-0.59,0.19-2.54,0.1-3.28c-0.17-1.38-0.56-3-0.16-4.37c0.72-2.5,4.11-2.4,6.23-2.38
			c17.44,0.19,34.66-2.61,51.94-4.43c4.31-0.46,8.62-0.91,12.93-1.36c6.22-0.66,12.12-0.9,17.9-3.61c1.28-0.6,2.56-1.3,3.5-2.36
			c2.33-2.61,2.82-7.3,3.24-10.63c0.5-3.97,0.74-7.97,0.72-11.97c-0.02-3.8,0.16-8.43-1.02-12.07c-1.92-5.94-8.64-8.18-14.19-9.01
			c-6.21-0.94-12.46-0.2-18.65,0.52c-8.29,0.96-16.57,1.93-24.85,2.9c-6.87,0.82-13.87,1.25-20.64,2.7
			c-7.19,1.57-13.97,4.64-19.89,9.01c-1.94,1.4-3.7,3.04-5.22,4.89C20.95,335.33,19.29,339.72,18.57,344.29z"/>
		<path d="M21.23,318.04c0.96,0.56,2.33-0.98,2.72-0.87c0.18,0.07,0.33,0.2,0.42,0.37c0.82,1.19,1.03,2.82,2.19,3.68
			c0.18,0.16,0.41,0.24,0.65,0.22c0.31-0.05,0.5-0.36,0.62-0.66c0.32-0.82-0.02-7.03-0.31-7.61c-0.18-0.36-0.51-0.75-0.9-0.66
			c-0.47,0.1-1.65,1.35-2.14,0.97c-0.49-0.39,0.14-3.98-0.44-4.39c-1.16-0.98-3.1-0.63-3.76-0.02
			C19.62,309.66,19.62,316.78,21.23,318.04z"/>
		<path d="M4.1,334.55c1.64,1.18,5.94,3.75,6.58,2.75c0.63-1,0.35-2.39,0.24-3.11c-0.11-0.72,1.17-0.29,1.17-0.29
			c0.95,0.12,1.9,0.15,2.85,0.08c0.9-0.14,1.77-0.74,0.98-1.65c-1.02-1.17-6.35-3.49-7.51-3.17c-1.16,0.32-0.77,2.13-0.72,2.36
			c0.07,0.3-0.14,0.46-0.4,0.29l-1.49-0.99c-0.6-0.4-1.35-0.81-1.98-0.48c-0.73,0.37-1.39,1.68-1.37,2.49
			c0.02,0.55,0.57,0.88,0.95,1.19C3.62,334.2,3.85,334.38,4.1,334.55z"/>
		<path d="M10.99,324.02c0.57-0.03,0.77-0.84,0.94-1.26c0.62-1.48,2.12,0.5,2.57,1.11c0.71,0.96,1.29,2.08,2.42,2.63
			c1.58,0.77,1.45-1.52,1.29-2.44c-0.26-1.53-2.98-5.77-3.47-6.58c-0.33-0.55-0.83-1.85-1.7-1.49c-0.69,0.28-0.74,1.54-1.14,1.91
			c-0.39,0.37-2.02-2.73-2.76-3.44c-0.38-0.36-0.98-0.6-1.46-0.29c-0.45,0.28-2.46,2.55-2.23,3.99S9.56,323.9,10.99,324.02z"/>
		<path d="M112.74,379.87l-1.11,0.63c-0.26,0.15-0.6,0.06-0.75-0.2c-0.15-0.26-0.06-0.6,0.2-0.75c0,0,0,0,0,0l6.23-3.58
			c-1.36-2.38-3.58-3.99-6.41-3.99c-4.3,0-7.73,2.85-7.73,7.27c0.2,3.36,3.34,5.41,5.85,3.98l1.37-0.82
			c0.26-0.15,0.59-0.07,0.75,0.19c0.15,0.26,0.07,0.59-0.19,0.75c0,0,0,0,0,0c0,0-6.73,4-6.74,4c1.28,2.35,2.92,3.9,6.12,3.96
			c4.16,0.08,8.01-2.59,8.01-6.38C118.35,380.05,114.67,378.81,112.74,379.87z"/>
		<path class="st9" d="M41.06,338.92c-0.95-0.44-1.61-0.69-2.59-0.58c-0.81,0.09-1.42,0.55-1.36,1.09c0.23,2,6.65,0.84,7.3,6.63
			c0.34,3-1.78,6.75-6.46,7.29c-2.25,0.28-4.52-0.25-6.42-1.49c-0.25-0.15-0.33-0.47-0.18-0.72c0.01-0.02,0.03-0.04,0.04-0.06
			l2.07-3.22c0.14-0.29,0.5-0.41,0.79-0.27c0.02,0.01,0.04,0.02,0.06,0.03c1.04,0.68,2.27,1.01,3.51,0.94
			c1.27-0.14,1.72-0.83,1.65-1.39c-0.27-2.38-6.67-1.27-7.31-6.93c-0.38-3.36,2.23-6.23,6.47-6.71c1.83-0.25,3.7,0.07,5.34,0.93
			c0.26,0.14,0.35,0.47,0.2,0.72c-0.01,0.02-0.02,0.04-0.03,0.05l-2.27,3.46C41.72,338.97,41.36,339.07,41.06,338.92z"/>
		<path class="st9" d="M47.26,351.46l0.81-18.19c-0.02-0.32,0.23-0.59,0.54-0.61c0.01,0,0.01,0,0.02,0l6.63-0.75
			c3.3-0.38,6.11,1.44,6.54,5.21c0.45,4.01-2.75,7.44-6.43,7.86l-2.9,0.33l-0.24,5.59c0.02,0.32-0.23,0.59-0.55,0.61
			c0,0-0.01,0-0.01,0l-3.9,0.44C47.4,351.99,47.24,351.79,47.26,351.46z M56.83,337.98c-0.11-0.97-0.87-1.6-2.36-1.43l-1.62,0.18
			l-0.17,4.02l1.65-0.19C55.98,340.38,56.98,339.33,56.83,337.98z"/>
		<path class="st9" d="M61.6,349.83l6.14-18.79c0.05-0.34,0.33-0.59,0.67-0.62l5.17-0.59c0.35-0.04,0.53,0.1,0.6,0.48l4.55,17.58
			c0.1,0.21,0.01,0.45-0.2,0.55c-0.05,0.02-0.11,0.04-0.17,0.04l-4.09,0.46c-0.35,0.04-0.63-0.04-0.74-0.46l-0.61-2.67l-5.33,0.61
			l-0.8,2.83c-0.08,0.37-0.4,0.64-0.78,0.64l-4.09,0.46C61.61,350.37,61.51,350.17,61.6,349.83z M68.89,341.6l3.22-0.37l-1.38-5.35
			L68.89,341.6z"/>
		<path class="st9" d="M95.85,346.48c0,0-3.87,0.44-4.3,0.49c-0.37,0.08-0.74-0.11-0.9-0.45l-3.03-5.22l-0.7,0.08l-0.27,5.6
			c0.02,0.32-0.23,0.59-0.55,0.61c0,0-0.01,0-0.01,0l-3.9,0.44c-0.35,0.04-0.54-0.13-0.52-0.49l0.81-18.19
			c-0.01-0.32,0.24-0.59,0.56-0.61l6.98-0.79c3.33-0.38,5.84,1.97,6.19,5.05c0.4,3.55-2.16,6.06-3.49,6.89l3.45,6
			C96.34,346.21,96.25,346.44,95.85,346.48z M87.08,336.82l1.68-0.19c1.65-0.19,2.65-1.29,2.5-2.59c-0.11-0.97-0.81-1.58-2.19-1.42
			l-1.81,0.21C87.25,333.26,87.08,336.82,87.08,336.82z"/>
		<path class="st9" d="M110.54,344.27l-4.22-6.48l-1.73,2.17l-0.23,5.01c0.02,0.32-0.23,0.59-0.55,0.61c0,0-0.01,0-0.01,0l-3.9,0.44
			c-0.35,0.04-0.54-0.13-0.52-0.49l0.81-18.19c-0.02-0.32,0.23-0.59,0.55-0.61c0,0,0.01,0,0.01,0l3.9-0.44
			c0.35-0.04,0.54,0.13,0.52,0.49l-0.3,6.31l5.49-6.9c0.24-0.37,0.64-0.62,1.08-0.67l5.06-0.57c0.32-0.04,0.38,0.2,0.14,0.53
			l-6.66,8.46l6.25,9.68c0.2,0.28,0.06,0.54-0.29,0.58l-4.47,0.51C111.11,344.78,110.73,344.61,110.54,344.27z"/>
	</g>
</g>
</svg>
