<?xml version="1.0" encoding="utf-8"?>
<!-- Generator: Adobe Illustrator 15.0.2, SVG Export Plug-In . SVG Version: 6.00 Build 0)  -->
<!DOCTYPE svg PUBLIC "-//W3C//DTD SVG 1.1//EN" "http://www.w3.org/Graphics/SVG/1.1/DTD/svg11.dtd">
<svg version="1.1" id="Layer_1" xmlns="http://www.w3.org/2000/svg" xmlns:xlink="http://www.w3.org/1999/xlink" x="0px" y="0px"
	 width="82px" height="41px" viewBox="0 0 82 41" enable-background="new 0 0 82 41" xml:space="preserve">
<g>
	<defs>
		<rect id="SVGID_1_" x="42.7" width="39.3" height="41"/>
	</defs>
	<clipPath id="SVGID_2_">
		<use xlink:href="#SVGID_1_"  overflow="visible"/>
	</clipPath>
	
		<path clip-path="url(#SVGID_2_)" fill="none" stroke="#333333" stroke-width="2.2778" stroke-linecap="round" stroke-linejoin="round" d="
		M62.4,20.5c4.6,0,7.7-4.4,8.3-9.7c0.6-5.3-2.4-9.7-8.3-9.7c-5.9,0.1-8.9,4.4-8.3,9.7C54.7,16.1,57.8,20.5,62.4,20.5z"/>
	
		<path clip-path="url(#SVGID_2_)" fill="none" stroke="#333333" stroke-width="2.2778" stroke-linecap="round" stroke-linejoin="round" d="
		M68,39.9h12.9c0-9.6,0.6-14.8-11.6-16.7c-2,1.5-4.4,2.3-6.9,2.3s-4.9-0.8-6.9-2.3c-12.2,1.9-11.6,7.1-11.6,16.7h12.9"/>
	
		<polyline clip-path="url(#SVGID_2_)" fill="none" stroke="#333333" stroke-width="2.2778" stroke-linecap="round" stroke-linejoin="round" points="
		63.8,25.4 65.2,36.4 62.4,39.7 59.5,36.4 60.9,25.4 	"/>
</g>
<g>
	<defs>
		<rect id="SVGID_3_" width="35.9" height="41"/>
	</defs>
	<clipPath id="SVGID_4_">
		<use xlink:href="#SVGID_3_"  overflow="visible"/>
	</clipPath>
	
		<path clip-path="url(#SVGID_4_)" fill="none" stroke="#333333" stroke-width="2.2778" stroke-linecap="round" stroke-linejoin="round" d="
		M17.9,1.1c5,0,7.6,3.6,7.7,8.1c0.1,5.1,2.6,7,5.7,6.7c-2.3,3-5.2,3.9-8.9,2.6c-1.2,1.3-2.7,2.1-4.5,2.1c-1.8,0-3.3-0.8-4.5-2.1
		c-3.7,1.3-6.6,0.4-8.9-2.6c3.1,0.4,5.6-1.6,5.7-6.7C10.3,4.7,13.1,1.1,17.9,1.1z"/>
	<polyline clip-path="url(#SVGID_4_)" fill="none" stroke="#333333" stroke-width="2.2778" stroke-linejoin="round" points="
		22.3,24.1 17.9,33.1 13.5,24.1 	"/>
	
		<path clip-path="url(#SVGID_4_)" fill="none" stroke="#333333" stroke-width="2.2778" stroke-linecap="round" stroke-linejoin="round" d="
		M13.5,24.1C6.2,26.5,2.9,25,1.1,39.9l33.6,0C32.9,25,29.6,26.5,22.3,24.1c-1.2,0.9-2.7,1.5-4.4,1.5C16.2,25.6,14.7,25,13.5,24.1z"
		/>
</g>
</svg>
