<svg xmlns="http://www.w3.org/2000/svg" viewBox="0 0 260 260"><title>Asset 9</title><rect width="260" height="260" style="fill:none"/><path d="M208.9,201.6l-15.8-15.8a4.226,4.226,0,0,0-5.9,0A79.94,79.94,0,0,1,50.9,136.2H68.3a6.957,6.957,0,0,0,7-7,7.873,7.873,0,0,0-1-3.7l-30-48.6a6.976,6.976,0,0,0-9.6-2.3,8.392,8.392,0,0,0-2.3,2.3l-30,48.6a6.976,6.976,0,0,0,2.3,9.6,6.863,6.863,0,0,0,3.7,1H20.1a110.662,110.662,0,0,0,188.8,71.3A3.934,3.934,0,0,0,208.9,201.6Z" style="fill:#00b6e0"/><path d="M51.1,58.4,66.9,74.2a4.226,4.226,0,0,0,5.9,0,79.94,79.94,0,0,1,136.3,49.6H191.7a6.957,6.957,0,0,0-7,7,7.873,7.873,0,0,0,1,3.7l30,48.6a6.976,6.976,0,0,0,9.6,2.3,8.392,8.392,0,0,0,2.3-2.3l30-48.6a6.976,6.976,0,0,0-2.3-9.6,6.863,6.863,0,0,0-3.7-1H239.9A110.662,110.662,0,0,0,51.1,52.6,3.934,3.934,0,0,0,51.1,58.4Z" style="fill:#00b6e0"/></svg>