<svg xmlns="http://www.w3.org/2000/svg" viewBox="0 0 273.507 44.539"><defs><style>.cls-1{fill:#fc326c;}.cls-2{fill:#ff5b3b;}.cls-3{fill:#ff9e1d;}.cls-4{fill:#fff;opacity:0.6;}</style></defs><title>Asset 1</title><g id="Layer_2" data-name="Layer 2"><g id="Layer_1-2" data-name="Layer 1"><circle class="cls-1" cx="22.269" cy="22.269" r="22.269"/><circle class="cls-2" cx="22.269" cy="22.269" r="14.824"/><circle class="cls-3" cx="22.269" cy="22.269" r="7.379"/><path class="cls-4" d="M44.539,22.269a22.158,22.158,0,0,0-4.166-12.96L23.405,20.448a2.046,2.046,0,0,0,0,3.687L40.352,35.26A22.161,22.161,0,0,0,44.539,22.269Z"/><path d="M81.9,27.115H73.6l-1.118,3.513H66.893l7.6-22.354h6.514l7.6,22.354H83.019Zm-1.532-4.79L77.75,14.118l-2.618,8.207Z"/><path d="M107.545,22.644c0,4.758-3.449,8.431-7.633,8.431a6,6,0,0,1-4.758-1.948v7.887H90.365V14.661h4.789v1.5a6,6,0,0,1,4.758-1.948C104.1,14.214,107.545,17.886,107.545,22.644Zm-4.79,0a3.8,3.8,0,1,0-7.6,0,3.8,3.8,0,1,0,7.6,0Z"/><path d="M127.439,22.644c0,4.758-3.448,8.431-7.632,8.431a6,6,0,0,1-4.758-1.948v7.887h-4.79V14.661h4.79v1.5a6,6,0,0,1,4.758-1.948C123.991,14.214,127.439,17.886,127.439,22.644Zm-4.79,0a3.8,3.8,0,1,0-7.6,0,3.8,3.8,0,1,0,7.6,0Z"/><path d="M150.112,19.451a10.824,10.824,0,0,1-10.857,11.177h-8.942V8.274h8.942A10.824,10.824,0,0,1,150.112,19.451Zm-4.918,0c0-3.832-2.427-6.259-5.939-6.259h-3.832V25.71h3.832C142.767,25.71,145.194,23.283,145.194,19.451Z"/><path d="M152.348,10.382a2.874,2.874,0,1,1,2.874,2.874A2.9,2.9,0,0,1,152.348,10.382Zm.479,4.279h4.79V30.628h-4.79Z"/><path d="M173.361,25.838c0,3.672-3.194,5.237-6.642,5.237-3.194,0-5.621-1.214-6.866-3.8L164,24.911a2.622,2.622,0,0,0,2.715,1.884c1.149,0,1.724-.351,1.724-.99,0-1.756-7.856-.83-7.856-6.354,0-3.481,2.938-5.237,6.259-5.237a6.986,6.986,0,0,1,6.227,3.417l-4.087,2.2a2.319,2.319,0,0,0-2.14-1.405c-.83,0-1.341.319-1.341.894C165.505,21.143,173.361,19.93,173.361,25.838Z"/><path d="M174.8,22.644A8.445,8.445,0,0,1,190.477,18.3l-4.183,2.427a3.307,3.307,0,0,0-3.1-1.788,3.514,3.514,0,0,0-3.609,3.7,3.514,3.514,0,0,0,3.609,3.7,3.272,3.272,0,0,0,3.1-1.788l4.183,2.395a8.151,8.151,0,0,1-7.217,4.12A8.272,8.272,0,0,1,174.8,22.644Z"/><path d="M191.276,22.644a8.463,8.463,0,1,1,8.462,8.431A8.369,8.369,0,0,1,191.276,22.644Zm12.135,0a3.674,3.674,0,1,0-7.345,0,3.674,3.674,0,1,0,7.345,0Z"/><path d="M225.765,14.661l-5.908,15.967h-5.428l-5.908-15.967h5.3l3.321,10.123,3.321-10.123Z"/><path d="M234.994,26.8a4.167,4.167,0,0,0,3.066-1.213l3.832,2.2a8.1,8.1,0,0,1-6.961,3.29c-5.461,0-8.846-3.673-8.846-8.431a8.186,8.186,0,0,1,8.494-8.43,8.061,8.061,0,0,1,8.111,8.43,9.264,9.264,0,0,1-.191,1.916H231.163C231.769,26.221,233.238,26.8,234.994,26.8Zm2.938-5.811a3.6,3.6,0,0,0-6.865,0Z"/><path d="M254.985,14.342V19.77c-1.98-.319-4.79.479-4.79,3.641v7.217h-4.79V14.661h4.79V17.5A4.8,4.8,0,0,1,254.985,14.342Z"/><path d="M273.507,14.661l-5.461,15.488c-1.788,5.077-4.63,7.089-9.1,6.865V32.543c2.235,0,3.289-.7,3.992-2.65l-6.355-15.232h5.269l3.545,9.772,3-9.772Z"/></g></g></svg>