<svg xmlns="http://www.w3.org/2000/svg" viewBox="0 0 49.45395 63.32368"><g id="Layer_2" data-name="Layer 2"><g id="Isolation_Mode" data-name="Isolation Mode"><path d="M45.02013,14.49657a25.81565,25.81565,0,0,0-6.61579-4.694,4.27945,4.27945,0,0,1-1.67175-3.08609A13.81683,13.81683,0,0,1,37.38954,2.6l-7.0887,2.99182c-.24566-.1616-.4858-.3252-.7127-.492A25.187,25.187,0,0,1,24.72765,0h-.00134a25.18734,25.18734,0,0,1-4.86049,5.09979c-.22708.167-.46755.3309-.71355.49266L12.06224,2.6a13.8225,13.8225,0,0,1,.65694,4.11648,4.28022,4.28022,0,0,1-1.67476,3.08844l-.001.001a25.79994,25.79994,0,0,0-6.6096,4.69069c-3.9892,4.31156-5.77783,12.18781-3.29291,17.62.09881.21585.92237,1.6014.92237,1.6014,1.71494-2.78249,3.174-2.95313,3.176-2.954C3.1958,34.78051,2.79557,42.0859,6.897,47.00165a54.9434,54.9434,0,0,0,8.58578,7.63411,107.33278,107.33278,0,0,1,9.24272,8.68792s5.86156-6.02885,9.24573-8.68792A54.93572,54.93572,0,0,0,42.557,47.00165c4.1014-4.91575,3.70134-12.22114,1.65767-16.23764.00218.00084,1.46108.17148,3.17619,2.954,0,0,.8234-1.38555.9222-1.6014C50.798,26.68438,49.00933,18.80813,45.02013,14.49657Z" style="fill:#ef1f30"/><path d="M42.16814,22.95279c-.6062-2.62525-3.51513-4.19535-6.49707-3.50676a5.965,5.965,0,0,0-3.27013,1.98757l-.02026-.0226s.15892-2.99567,4.80322-5.3689c-6.04543-1.25443-8.83328-.3463-10.54036.76328l-1.9179-3.31853H24.7253l-1.9179,3.31853c-1.70708-1.10958-4.4951-2.01771-10.54053-.76328,4.64447,2.37323,4.80322,5.3689,4.80322,5.3689l-.02026.0226a5.96458,5.96458,0,0,0-3.27-1.98757c-2.9821-.68859-5.89086.88151-6.49706,3.50676a5.089,5.089,0,0,0,3.30044,5.67685A8.42973,8.42973,0,0,0,8.8199,33.69778c0,3.03251,2.05757,6.69466,2.05757,6.69466l2.31311-2.36384s-.91684,3.89157,2.7711,7.97974a16.74317,16.74317,0,0,0,8.76379,4.931,16.74372,16.74372,0,0,0,8.76378-4.931c3.688-4.08817,2.77094-7.97974,2.77094-7.97974l2.31328,2.36384S40.631,36.73029,40.631,33.69778a8.42973,8.42973,0,0,0-1.76334-5.06814A5.08934,5.08934,0,0,0,42.16814,22.95279Z" style="fill:#fff"/><path d="M36.83943,25.836c-.00921-.4297-.37242-.85689-.79476-.76127l-6.96578,1.86566a.81578.81578,0,0,0-.5995.37309.84017.84017,0,0,0-.14083.65644l.354,8.82977c-1.376-.26258-2.58707.423-3.9604.42132-1.3735-.00184-2.58959-.68892-3.97-.429L21.1159,27.97a.83953.83953,0,0,0-.14084-.65644.81571.81571,0,0,0-.59933-.37309l-6.966-1.86566c-.42233-.09562-.78555.33157-.79476.76127a.7756.7756,0,0,0,.21451.55295h-.00016s3.14454,3.59986,6.3147,3.54141c.073-.00134.14117-.00552.20614-.01172l-.14334,7.58672-.00386.00251c-.00083.74971,2.44423,2.81431,4.07143,4.10542v2.42229l-6.54295,2.9605,1.13537,2.509,6.85777-3.103,6.85425,3.1015,1.13537-2.509-6.68579-3.02531V41.69505c1.64294-1.28089,4.21846-3.4108,4.2193-4.17592l-.00067-.00033.00067-.00218-.14352-7.59794c.065.0062.13313.01038.20614.01172,3.17017.05845,6.31487-3.54141,6.31487-3.54141h-.00033A.77556.77556,0,0,0,36.83943,25.836Z" style="fill:#ef1f30"/></g></g></svg>