<svg xmlns="http://www.w3.org/2000/svg" xmlns:xlink="http://www.w3.org/1999/xlink" viewBox="0 0 321 98.115"><defs><style>.cls-1{fill:url(#linear-gradient);}.cls-2{fill:url(#linear-gradient-2);}.cls-3{fill:url(#linear-gradient-3);}.cls-4{fill:url(#linear-gradient-4);}.cls-5{fill:url(#linear-gradient-5);}</style><linearGradient id="linear-gradient" y1="49.058" x2="98.249" y2="49.058" gradientUnits="userSpaceOnUse"><stop offset="0" stop-color="#590da1"/><stop offset="1" stop-color="#6441e2"/></linearGradient><linearGradient id="linear-gradient-2" y1="49.058" x2="24.562" y2="49.058" gradientUnits="userSpaceOnUse"><stop offset="0" stop-color="#17b6d5"/><stop offset="0.7" stop-color="#6478e2"/></linearGradient><linearGradient id="linear-gradient-3" x1="24.562" y1="49.058" x2="49.125" y2="49.058" xlink:href="#linear-gradient"/><linearGradient id="linear-gradient-4" x1="49.125" y1="49.058" x2="73.687" y2="49.058" xlink:href="#linear-gradient-2"/><linearGradient id="linear-gradient-5" x1="73.687" y1="49.058" x2="98.249" y2="49.058" xlink:href="#linear-gradient"/></defs><title>Asset 1</title><g id="Layer_2" data-name="Layer 2"><g id="Isolation_Mode" data-name="Isolation Mode"><polygon class="cls-1" points="73.687 0 49.125 32.705 24.562 0 0 32.705 0 98.115 24.562 65.41 49.125 98.115 73.687 65.41 98.249 98.115 98.249 32.705 73.687 0"/><polygon class="cls-2" points="24.562 0 0 32.705 0 98.115 24.562 65.41 24.562 0"/><polygon class="cls-3" points="24.562 0 49.125 32.705 49.125 98.115 24.562 65.41 24.562 0"/><polygon class="cls-4" points="73.687 0 49.125 32.705 49.125 98.115 73.687 65.41 73.687 0"/><polygon class="cls-5" points="73.687 0 98.249 32.705 98.249 98.115 73.687 65.41 73.687 0"/><path d="M188.416,44.528h-.3L178.064,73.321H171.4L161.347,44.528h-.3l-2.32,29.091h-12.2l4.6-49.079h12.715l10.887,28.317L185.62,24.54h12.909l4.4,49.079h-12.2Z"/><path d="M247.757,65.9H229.512l-2.457,7.719h-12.28l16.7-49.122h14.315l16.7,49.122H250.213Zm-3.368-10.527-5.755-18.034L232.88,55.373Z"/><polygon points="321 73.59 302.896 47.959 319.439 24.537 305.667 24.537 296.01 38.21 286.353 24.537 271.801 24.537 288.734 48.511 271.02 73.59 284.792 73.59 295.62 58.26 306.448 73.59 321 73.59"/></g></g></svg>