<?xml version="1.0" encoding="UTF-8"?> <svg xmlns="http://www.w3.org/2000/svg" viewBox="0 0 341.5892 224.70864"><g id="Layer_2" data-name="Layer 2"><g id="Layer_1-2" data-name="Layer 1"><path d="M250.2243,197.77a12.58675,12.58675,0,0,0,4.836-10.34267c0-9.22684-6.84486-14.80644-17.18742-14.80644H217.33726V224.7043h21.94936c10.5656,0,17.48548-6.02669,17.48548-15.25353A13.05214,13.05214,0,0,0,250.2243,197.77Zm-18.78145,15.47217a1.5467,1.5467,0,1,1-3.0934,0V184.0824a1.5467,1.5467,0,1,1,3.0934,0Z"></path><rect x="98.02074" y="172.62085" width="14.84169" height="52.08345"></rect><rect x="115.95583" y="209.76835" width="16.41155" height="14.93596"></rect><path d="M181.47917,172.62085H165.25894L148.071,224.7043h11.95068l8.92173-26.91206a1.54662,1.54662,0,1,1,2.93631.97273l-8.599,25.93933h35.38582Z"></path><path d="M43.73711,97.20351a103.39151,103.39151,0,0,0-1.17042,18.60214c.45212,18.70317,3.86214,37.94977,15.42,53.1233a78.36391,78.36391,0,0,0,12.27974,12.75041c1.73909,1.44472,7.14966,6.73465,9.80124,4.56713,1.943-1.58832.51223-6.89662.26372-8.886-.46657-3.735-1.513-8.12947-.43919-11.84756,1.95879-6.78234,11.15191-6.50866,16.906-6.44608,47.30634.51452,94.01451-7.073,140.90773-12.02705q17.53872-1.85288,35.07816-3.69879c16.86859-1.80258,32.8701-2.44344,48.548-9.794,3.48039-1.63177,6.93154-3.53729,9.49644-6.40056,6.333-7.06978,7.657-19.79986,8.7907-28.83793A249.12543,249.12543,0,0,0,341.585,65.82937c-.0615-10.31145.42372-22.871-2.77186-32.73257-5.21753-16.10128-23.42522-22.17925-38.48188-24.449-16.84251-2.53894-33.80681-.53033-50.59442,1.4093q-33.71557,3.89547-67.41939,7.87973c-18.63313,2.22545-37.62213,3.39985-55.98811,7.321A141.9691,141.9691,0,0,0,72.38126,49.70461,75.46171,75.46171,0,0,0,58.23,62.963C50.19559,72.88832,45.69853,84.79789,43.73711,97.20351Z"></path><path d="M50.9655,25.97138c2.61633,1.51809,6.31773-2.65973,7.369-2.36369a2.27437,2.27437,0,0,1,1.15154.99551c2.223,3.21521,2.80644,7.64287,5.94014,9.97937a2.38317,2.38317,0,0,0,1.7558.59146c.84041-.1451,1.36205-.98694,1.67312-1.781.8694-2.21935-.05094-19.08361-.83209-20.631-.49293-.97642-1.38261-2.02378-2.45318-1.79964-1.28026.268-4.4743,3.6693-5.8062,2.618S60.144,2.7936,58.56147,1.66618c-3.14442-2.67094-8.41727-1.705-10.19425-.063S46.59025,22.56335,50.9655,25.97138Z"></path><path d="M4.48692,70.77736c4.44968,3.2051,16.12577,10.17753,17.84517,7.45515s.96291-6.4886.66056-8.43831,3.17334-.7844,3.17334-.7844a40.28393,40.28393,0,0,0,7.73119.23047c2.43845-.36823,4.80488-2.00473,2.6549-4.468-2.77121-3.17506-17.22894-9.465-20.38117-8.60532s-2.08985,5.77245-1.943,6.41508c.186.81368-.39053,1.26025-1.09671.78763L9.10133,60.67254c-1.61478-1.08071-3.65384-2.19726-5.38447-1.31339-1.98224,1.01256-3.783,4.55575-3.715,6.75809.046,1.49,1.538,2.39514,2.58047,3.22048Q3.50467,70.068,4.48692,70.77736Z"></path><path d="M23.191,42.20679c1.53748-.07671,2.088-2.28843,2.563-3.41289,1.69439-4.01064,5.74211,1.3641,6.968,3.02234,1.92768,2.60749,3.508,5.64148,6.55951,7.12682,4.29565,2.0907,3.9293-4.13175,3.50121-6.62095C42.0679,38.16537,34.695,26.67774,33.375,24.46265c-.89206-1.49692-2.25748-5.01933-4.61792-4.04608-1.86178.76765-2.01934,4.17652-3.08035,5.19155s-5.482-7.405-7.49466-9.32645c-1.03618-.98928-2.6605-1.62317-3.97074-.79918-1.20759.75943-6.67341,6.92232-6.05494,10.81842S19.3032,41.88447,23.191,42.20679Z"></path><path d="M299.21564,193.69656l-3.00876,1.71487a1.48282,1.48282,0,1,1-1.46913-2.57617l16.90329-9.71545c-3.67642-6.45678-9.71773-10.83565-17.38773-10.83573-11.65661-.00011-20.98172,7.72692-20.98172,19.70788.53627,9.11656,9.04953,14.68035,15.86579,10.78432l3.72376-2.21347a1.4828,1.4828,0,1,1,1.51548,2.54913s-18.25769,10.85313-18.276,10.86109c3.47216,6.37413,7.90935,10.57115,16.61075,10.73127,11.27126.20742,21.71889-7.03848,21.71889-17.29462C314.43022,194.20406,304.43522,190.83475,299.21564,193.69656Z"></path><path d="M104.76668,82.61935c-2.58978-1.19354-4.379-1.88235-7.02054-1.58242-2.204.25029-3.84847,1.48-3.682,2.9466.61746,5.434,18.02918,2.2671,19.81328,17.9754.92669,8.15-4.832,18.32188-17.53274,19.76467a25.94843,25.94843,0,0,1-17.41483-4.045,1.4263,1.4263,0,0,1-.38784-2.112l5.62429-8.74361a1.6018,1.6018,0,0,1,2.30743-.635,15.6853,15.6853,0,0,0,9.5131,2.56289c3.44822-.392,4.65313-2.23813,4.47834-3.77917-.73433-6.46-18.09124-3.44719-19.834-18.7935-1.03426-9.10147,6.037-16.8946,17.56376-18.204a24.1162,24.1162,0,0,1,14.48892,2.51738,1.44036,1.44036,0,0,1,.46231,2.10575l-6.14659,9.39727A1.68767,1.68767,0,0,1,104.76668,82.61935Z" style="fill:#fff"></path><path d="M121.57441,116.62884l2.204-49.331a1.56892,1.56892,0,0,1,1.52243-1.65791l17.98574-2.04369c8.95563-1.01771,16.58122,3.9157,17.74062,14.11968,1.23387,10.86591-7.44873,20.18147-17.43345,21.315l-7.85519.89256-.65675,15.1705a1.57868,1.57868,0,0,1-1.52139,1.65894l-10.57218,1.20078C121.96122,118.0706,121.52683,117.52451,121.57441,116.62884Zm25.96193-36.561c-.29993-2.64356-2.3519-4.34388-6.38964-3.8857l-4.40491.50058-.47058,10.91038,4.47833-.50885C145.22788,86.57642,147.95418,83.73738,147.53634,80.06783Z" style="fill:#fff"></path><path d="M160.48835,112.20843l16.666-50.97443a2.01224,2.01224,0,0,1,1.81616-1.691L192.993,57.95023c.95359-.10859,1.44382.28029,1.63516,1.299l12.33042,47.68031a1.12522,1.12522,0,0,1-1.00736,1.6L194.865,109.78826c-.95462.1086-1.721-.10135-2.00129-1.25765l-1.6424-7.25222-14.461,1.64344-2.17608,7.68453a2.1579,2.1579,0,0,1-2.10885,1.72514l-11.08518,1.25973C160.508,113.69155,160.22048,113.12892,160.48835,112.20843ZM180.26025,89.884l8.73741-.99288L185.265,74.368Z" style="fill:#fff"></path><path d="M253.38227,103.14109s-10.49771,1.1925-11.67366,1.32592a2.21568,2.21568,0,0,1-2.44189-1.208l-8.22648-14.16105-1.90821.21616-.73018,15.17876a1.5789,1.5789,0,0,1-1.52243,1.659l-10.57115,1.20078c-.95462.10859-1.4521-.35475-1.41383-1.32489l2.204-49.331a1.62941,1.62941,0,0,1,1.5214-1.65791l18.94139-2.15126c9.02907-1.026,15.849,5.33781,16.79945,13.707,1.09218,9.61653-5.86631,16.43022-9.47587,18.69834l9.358,16.26474C254.71026,102.39539,254.48376,103.01594,253.38227,103.14109ZM229.58194,76.91852l4.55176-.51713c4.4773-.50885,7.18809-3.49269,6.78784-7.01744-.29994-2.64356-2.1978-4.286-5.94181-3.86088l-4.9179.5585C230.04839,67.273,229.58194,76.91852,229.58194,76.91852Z" style="fill:#fff"></path><path d="M293.23119,97.129l-11.442-17.58859-4.68518,5.886-.61125,13.60359a1.5789,1.5789,0,0,1-1.52243,1.659l-10.57114,1.20078c-.95462.10859-1.4521-.35475-1.41383-1.32489l2.204-49.331a1.57778,1.57778,0,0,1,1.52139-1.65791l10.57218-1.20077c.95359-.1086,1.4521.35475,1.41383,1.32488l-.80568,17.1211,14.90055-18.72213a4.0304,4.0304,0,0,1,2.91764-1.81719l13.7277-1.55966c.88119-.10033,1.02909.55126.38681,1.44175L291.7584,69.11194l16.96183,26.25774c.53366.756.16652,1.46657-.78707,1.57517l-12.11323,1.37556A2.40814,2.40814,0,0,1,293.23119,97.129Z" style="fill:#fff"></path></g></g></svg> 