<?xml version="1.0" encoding="utf-8"?>
<!-- Generator: Adobe Illustrator 15.0.2, SVG Export Plug-In . SVG Version: 6.00 Build 0)  -->
<!DOCTYPE svg PUBLIC "-//W3C//DTD SVG 1.1//EN" "http://www.w3.org/Graphics/SVG/1.1/DTD/svg11.dtd">
<svg version="1.1" id="Layer_1" xmlns="http://www.w3.org/2000/svg" xmlns:xlink="http://www.w3.org/1999/xlink" x="0px" y="0px"
	 width="41.1px" height="41px" viewBox="0 0 41.1 41" enable-background="new 0 0 41.1 41" xml:space="preserve">
<g>
	<defs>
		<rect id="SVGID_1_" width="41.1" height="41"/>
	</defs>
	<clipPath id="SVGID_2_">
		<use xlink:href="#SVGID_1_"  overflow="visible"/>
	</clipPath>
	<path clip-path="url(#SVGID_2_)" fill="none" stroke="#333333" stroke-width="2.2778" stroke-linejoin="round" d="M19.7,17.6
		c3-3,5.6-5.6,6.7-6.7"/>
	<path clip-path="url(#SVGID_2_)" fill="none" stroke="#333333" stroke-width="2.2778" stroke-linejoin="round" d="M16.4,28.7
		C12,33.2,7.8,37.3,5.6,39.5c-0.5,0.5-1.2,0.5-1.7,0c-0.7-0.7-1.5-1.5-2.2-2.2c-0.5-0.5-0.5-1.2,0-1.7c1.5-1.5,6-6,10.9-10.9"/>
	<path clip-path="url(#SVGID_2_)" fill="none" stroke="#333333" stroke-width="2.2778" stroke-linejoin="round" d="M30.3,14.8
		c-1.7,1.7-4,4-6.7,6.7"/>
	
		<line clip-path="url(#SVGID_2_)" fill="none" stroke="#333333" stroke-width="2.2778" stroke-linecap="round" stroke-linejoin="round" x1="32.2" y1="1.3" x2="28.2" y2="5.3"/>
	
		<line clip-path="url(#SVGID_2_)" fill="none" stroke="#333333" stroke-width="2.2778" stroke-linecap="round" stroke-linejoin="round" x1="36.1" y1="5.1" x2="28.8" y2="12.4"/>
	
		<line clip-path="url(#SVGID_2_)" fill="none" stroke="#333333" stroke-width="2.2778" stroke-linecap="round" stroke-linejoin="round" x1="39.9" y1="9" x2="35.9" y2="13"/>
	<path clip-path="url(#SVGID_2_)" fill="none" stroke="#333333" stroke-width="2.2778" stroke-linejoin="round" d="M35.9,13
		l-2.1,2.1c-0.8,0.8-2.1,0.8-2.9,0l-4.8-4.8c-0.8-0.8-0.8-2.1,0-2.9l2.1-2.1"/>
	<path clip-path="url(#SVGID_2_)" fill="none" stroke="#333333" stroke-width="2.2778" stroke-linejoin="round" d="M33.8,39.5
		c-3.3-3.3-10.6-10.6-14.1-14.1c-0.4,0.4-2.9,2.9-3.3,3.3C3.1,15.3-0.9,7,2.1,1.6C2.4,1,3.1,1,3.6,1.5C9.4,7.3,33,30.9,37.7,35.6
		c0.5,0.5,0.5,1.2,0,1.7c-0.7,0.7-1.5,1.5-2.2,2.2C35,40,34.3,40,33.8,39.5z"/>
</g>
</svg>
