<svg xmlns="http://www.w3.org/2000/svg" viewBox="0 0 804.489 824.028"><defs><style>.cls-1{opacity:0.25;}.cls-2,.cls-9{fill:#e2e4e8;}.cls-3,.cls-7,.cls-8{fill:#fff;}.cls-4,.cls-5,.cls-6,.cls-7,.cls-8{stroke:#000;}.cls-4,.cls-5,.cls-7,.cls-8{stroke-miterlimit:10;}.cls-4,.cls-8{stroke-width:2px;}.cls-5,.cls-6{stroke-width:3px;}.cls-6{stroke-linecap:round;stroke-linejoin:round;}.cls-7{stroke-width:4px;}.cls-9{opacity:0.11;}</style></defs><title>Asset 1A</title><g id="Layer_2" data-name="Layer 2"><g id="Layer_1-2" data-name="Layer 1"><circle cx="140.407" cy="324.864" r="41"/><g id="Illustration"><g id="Shadow" class="cls-1"><path class="cls-2" d="M273.918,818.667,790.473,520.434a28.03,28.03,0,0,0,0-48.551L558.6,338.012a40.017,40.017,0,0,0-40.016,0L20.008,625.866c-26.677,15.4-26.677,53.908,0,69.31L233.9,818.667A40.012,40.012,0,0,0,273.918,818.667Z"/></g><g id="Phone"><path class="cls-3" d="M252.634,765.879a41.859,41.859,0,0,0,20.9-5.6L751.03,484.6a41.8,41.8,0,0,0,0-72.405L552.436,297.534a41.985,41.985,0,0,0-41.985,0L33.048,573.162a41.8,41.8,0,0,0,0,72.406L231.733,760.279A41.86,41.86,0,0,0,252.634,765.879Z"/><path class="cls-4" d="M10.405,609.365a43.1,43.1,0,0,0,21.772,37.711L230.863,761.787a43.545,43.545,0,0,0,43.545,0L751.9,486.106a43.544,43.544,0,0,0,0-75.422L553.306,296.025a43.727,43.727,0,0,0-43.726,0L32.177,571.654A43.1,43.1,0,0,0,10.405,609.365ZM742.5,409.278h0l7.214,4.165a21.772,21.772,0,0,1,0,37.711L272.666,726.576a40.062,40.062,0,0,1-40.061,0L33.06,611.369a20.909,20.909,0,0,1-2.507-34.507c.083-.059.164-.12.248-.179.451-.342.945-.649,1.433-.962.555-.356,1.1-.715,1.685-1.05L45.293,568.1l11.355-6.556h0L511.322,299.042a40.245,40.245,0,0,1,40.242,0ZM22.744,584.185a22.726,22.726,0,0,0-1.876,9.083,22.413,22.413,0,0,0,11.321,19.61L231.734,728.085a41.806,41.806,0,0,0,41.8,0L750.583,452.662a23.577,23.577,0,0,0,9-31.46c16.766,18.023,13.636,48.572-9.426,61.887L272.666,758.77a40.062,40.062,0,0,1-40.061,0L33.919,644.059C11.7,631.229,7.983,602.394,22.744,584.185Z"/><path class="cls-5" d="M294.643,699.012,70.352,569.517a3.554,3.554,0,0,1,0-6.154L480.515,326.554a8.951,8.951,0,0,1,8.92,0l224.292,129.5a3.555,3.555,0,0,1,0,6.156L303.563,699.012a8.933,8.933,0,0,1-8.92,0ZM712.856,460.7a1.813,1.813,0,0,0,0-3.138L488.564,328.063a7.2,7.2,0,0,0-7.178,0L71.222,564.87a1.815,1.815,0,0,0,0,3.14l224.292,129.5a7.208,7.208,0,0,0,7.178,0Z"/></g></g><line class="cls-6" x1="239.788" y1="181.069" x2="239.788" y2="285.069"/><line class="cls-6" x1="349.788" y1="273.069" x2="349.788" y2="337.069"/><line class="cls-6" x1="42.788" y1="457.784" x2="42.788" y2="512.783"/><circle class="cls-7" cx="134.407" cy="325.864" r="41"/><circle class="cls-8" cx="134.407" cy="325.864" r="32.381"/><circle class="cls-9" cx="496.124" cy="85.447" r="54.378"/><circle class="cls-9" cx="292.719" cy="31.069" r="31.069"/><polygon class="cls-3" points="260.043 384.646 266.374 396.859 277.472 400.743 283.021 399.633 289.402 394.639 293.009 386.316 282.466 385.761 272.478 382.154 265.542 382.709 260.043 384.646"/><polygon class="cls-3" points="229.752 498.68 230.307 443.469 234.746 428.21 241.127 416.557 252.502 407.956 264.155 402.962 277.472 400.743 291.344 402.962 308.546 412.95 319.089 426.545 324.083 444.024 322.973 457.896 324.083 485.918 323.528 500.622 326.857 503.119 331.296 508.946 330.741 515.604 327.967 520.321 322.418 521.986 277.472 521.986 229.752 521.986 223.093 517.546 222.538 508.946 225.313 504.784 228.365 502.01 229.752 498.68"/><path d="M277.581,465.562a4.307,4.307,0,1,1,4.308-4.306,2.081,2.081,0,1,0,4.161,0,8.461,8.461,0,0,0-6.388-8.18v-4.958a2.081,2.081,0,1,0-4.162,0v4.958a8.452,8.452,0,0,0,2.081,16.648,4.308,4.308,0,1,1-4.307,4.308,2.081,2.081,0,1,0-4.161,0,8.463,8.463,0,0,0,6.387,8.18v4.958a2.081,2.081,0,1,0,4.162,0v-4.957a8.454,8.454,0,0,0-2.081-16.651Z"/><path d="M292,414.324a2.08,2.08,0,0,0-3.164,2.7l7.709,9.027a2.08,2.08,0,1,0,3.163-2.7Z"/><path d="M325.729,500.056l0-52.6a48.961,48.961,0,0,0-38.578-47.777,18.461,18.461,0,0,0,7.975-15.1c0-.009,0-.016,0-.024a16.976,16.976,0,0,0-.173-.808c0-.008,0-.016,0-.024a1.976,1.976,0,0,0-.165-.228,2.085,2.085,0,0,0-.295-.41,2,2,0,0,0-.325-.22,2.075,2.075,0,0,0-.342-.212,2.037,2.037,0,0,0-.516-.1,1.8,1.8,0,0,0-.255-.052c-.007,0-.013,0-.02,0a15.542,15.542,0,0,0-.812.174c-.008,0-.016,0-.023,0a16.775,16.775,0,0,1-13.415.144l-.372-.16h0l0,0-.367-.156a20.943,20.943,0,0,0-16.7.152l-.023.009c-.012.006-.024.009-.036.014a1.912,1.912,0,0,0-.231.167,2.088,2.088,0,0,0-.408.292,10.674,10.674,0,0,0-.432.669,2.024,2.024,0,0,0-.1.486,1.932,1.932,0,0,0-.058.284c0,.013,0,.026,0,.039v.024a18.459,18.459,0,0,0,7.647,14.805,48.953,48.953,0,0,0-39.751,48.007v52.595a12.782,12.782,0,0,0,5.561,24.3h86.663a12.781,12.781,0,0,0,5.566-24.3ZM264.346,386.027a16.69,16.69,0,0,1,12.051.315l.364.154h0l.376.161a20.619,20.619,0,0,0,13.47.955c-1.368,6.176-6.767,10.951-13.026,10.951C270.8,398.563,265.072,392.949,264.346,386.027Zm55.817,134.164H233.5a8.64,8.64,0,0,1-2.8-16.811c.024-.008.039-.028.063-.037a2.035,2.035,0,0,0,.38-.223,2.115,2.115,0,0,0,.3-.206,1.951,1.951,0,0,0,.238-.316,2.046,2.046,0,0,0,.222-.327,2.227,2.227,0,0,0,.093-.348,2.036,2.036,0,0,0,.089-.443c0-.024.014-.044.014-.069V447.458a44.775,44.775,0,0,1,40.8-44.534l-17.442,20.427a2.08,2.08,0,1,0,3.163,2.7L275.5,406.284v22.971a2.081,2.081,0,0,0,4.162,0v-22.97l5.324,6.233a2.08,2.08,0,0,0,3.163-2.7l-5.724-6.7a44.773,44.773,0,0,1,39.139,44.345l0,53.955c0,.025.014.046.015.071a1.964,1.964,0,0,0,.088.435,2.155,2.155,0,0,0,.094.353,7.488,7.488,0,0,0,.46.644,2.148,2.148,0,0,0,.293.2,2.06,2.06,0,0,0,.4.231c.022.009.036.027.059.035a8.64,8.64,0,0,1-2.809,16.811Z"/><path d="M313.9,448.948a2.081,2.081,0,0,0-2.081,2.081v46.357a2.081,2.081,0,1,0,4.161,0V451.029A2.081,2.081,0,0,0,313.9,448.948Z"/><path class="cls-3" d="M479.562,415.4a2.807,2.807,0,0,0,0,3.969l4.155,4.153c1.884,1.875,4.526,2.215,7.971.419l2.757-1.653a44.528,44.528,0,0,0,7.668,3.179l.781,3.127c.84,3.287,3.116,5.329,5.936,5.329H521.7c1.585,0,4.458-.671,5.94-5.344l.777-3.112a44.418,44.418,0,0,0,7.673-3.182L539,424.03c3.1,1.6,5.932,1.374,7.822-.509l9.1-9.1c1.991-2,2.155-5.045.421-7.975l-1.638-2.728a44.372,44.372,0,0,0,3.2-7.706l3.248-.815c4.5-1.439,5.168-4.307,5.168-5.89V376.44c0-2.825-2.043-5.1-5.341-5.94l-3.077-.77a44.376,44.376,0,0,0-3.2-7.706l1.731-2.886c2.153-4.2.605-6.7-.514-7.818l-9.093-9.093c-2.187-2.195-6.222-1.476-7.98-.428l-2.757,1.654a44.4,44.4,0,0,0-7.672-3.18l-.823-3.283c-1.434-4.5-4.307-5.173-5.892-5.173H508.832c-2.824,0-5.1,2.044-5.94,5.342l-.779,3.116a44.531,44.531,0,0,0-8.166,3.445,2.808,2.808,0,0,0,2.689,4.93"/><path class="cls-3" d="M561.45,273.325l-.008,0-2.412-.6a38.407,38.407,0,0,0-2.6-6.245l1.373-2.291c2.042-3.963.322-6.331-.511-7.165l-7.78-7.78c-2.013-2.022-5.715-1.388-7.322-.427l-2.165,1.3a38.293,38.293,0,0,0-6.212-2.575l-.658-2.618c-1.359-4.245-4.248-4.7-5.427-4.7H516.724c-2.569,0-4.718,1.91-5.477,4.879l-.61,2.443a38.648,38.648,0,0,0-6.21,2.575l-2.171-1.3c-1.594-.951-5.307-1.585-7.311.428l-7.789,7.787c-.833.833-2.55,3.2-.419,7.32l1.283,2.137a38.419,38.419,0,0,0-2.592,6.241l-2.421.606c-2.956.75-4.868,2.9-4.868,5.473v11.008c0,1.18.458,4.068,4.879,5.478l2.41.6a38.345,38.345,0,0,0,2.592,6.241l-1.294,2.153c-1.55,2.623-1.382,5.489.432,7.307l7.787,7.785c1.735,1.736,4.164,2.076,7.317.423l2.165-1.3a38.341,38.341,0,0,0,6.21,2.574l.614,2.458c.755,2.954,2.9,4.864,5.473,4.864h11.009c1.179,0,4.068-.458,5.477-4.879l.61-2.443a38.485,38.485,0,0,0,6.213-2.574l2.313,1.383c2.829,1.465,5.439,1.226,7.166-.508l7.785-7.785c1.818-1.818,1.987-4.687.423-7.32l-1.283-2.14a38.483,38.483,0,0,0,2.6-6.243l2.583-.649c4.245-1.36,4.7-4.248,4.7-5.428V278.8C566.318,276.224,564.406,274.075,561.45,273.325Z"/><path class="cls-3" d="M472.755,314.3a2.806,2.806,0,0,0,2.807-2.807V298.51c0-2.84-2.054-5.125-5.37-5.967l-3.116-.781a44.849,44.849,0,0,0-3.241-7.8l1.749-2.921c2.171-4.221.613-6.735-.51-7.857l-9.175-9.173c-2.2-2.206-6.237-1.487-8.019-.428l-2.794,1.675a44.882,44.882,0,0,0-7.759-3.219l-.835-3.326c-1.445-4.522-4.329-5.2-5.919-5.2H417.594c-2.838,0-5.123,2.052-5.969,5.372l-.788,3.154a44.846,44.846,0,0,0-7.758,3.216l-2.8-1.679c-1.763-1.048-5.818-1.767-8.009.427l-9.177,9.178c-1.125,1.125-2.686,3.64-.421,8.019l1.658,2.761a44.782,44.782,0,0,0-3.239,7.793l-3.124.783c-3.308.84-5.362,3.125-5.362,5.965v12.979c0,1.59.675,4.472,5.372,5.969l3.114.777a44.676,44.676,0,0,0,4.053,9.256,2.8,2.8,0,0,0,3.835,1.019"/><path class="cls-3" d="M502.969,346.939l0,0-4.8-1.02a59.547,59.547,0,0,0-5.139-11.207l2.46-4.467c2.463-5.239.524-8.167-.851-9.447L481.79,308.843a6.372,6.372,0,0,0-4.756-1.728,9.87,9.87,0,0,0-4.886,1.655l-4.158,2.7a59.589,59.589,0,0,0-11.5-4.289l-1.428-4.932c-1.958-5.449-5.438-6.131-7.284-6.081l-17.537.632c-3.357.12-5.989,2.708-6.87,6.767l-1.029,4.846a59.762,59.762,0,0,0-11.159,5.107l-4.351-2.4a9.683,9.683,0,0,0-4.984-1.292,6.48,6.48,0,0,0-4.618,2.066l-11.954,12.85c-1.278,1.375-3,4.437-.072,9.64l2.682,4.123a59.274,59.274,0,0,0-4.316,11.545l-4.717,1.364c-3.971,1.162-6.363,3.974-6.245,7.337l.634,17.534c.068,1.882,1.015,5.27,6.767,6.871l4.791,1.015a59.219,59.219,0,0,0,5.141,11.208l-2.386,4.32c-1.978,3.631-1.682,7.308.776,9.6l12.853,11.957a6.4,6.4,0,0,0,4.648,1.7,10.932,10.932,0,0,0,4.985-1.625l4.162-2.7a59.727,59.727,0,0,0,11.5,4.287l1.378,4.774c1.138,3.873,3.841,6.243,7.091,6.243.081,0,.162,0,.244,0l17.536-.633c1.879-.068,5.263-1.016,6.87-6.765l1.026-4.849a59.563,59.563,0,0,0,11.16-5.1l4.5,2.479a10.807,10.807,0,0,0,4.921,1.18,6.354,6.354,0,0,0,4.528-2.03l11.955-12.851c2.285-2.458,2.316-6.146.071-9.64l-2.682-4.122a59.235,59.235,0,0,0,4.318-11.548l4.881-1.414c5.447-1.963,6.147-5.408,6.079-7.285l-.632-17.534C509.607,350.441,507.017,347.81,502.969,346.939Z"/><path d="M560.977,370.5l-3.077-.77a44.376,44.376,0,0,0-3.2-7.706l1.731-2.886c2.153-4.2.605-6.7-.514-7.818l-9.093-9.093c-2.187-2.195-6.222-1.476-7.98-.428l-2.757,1.654a44.4,44.4,0,0,0-7.672-3.18l-.823-3.283c-1.434-4.5-4.307-5.173-5.892-5.173H508.832c-2.824,0-5.1,2.044-5.94,5.342l-.779,3.116a44.531,44.531,0,0,0-8.166,3.445,2.808,2.808,0,0,0,2.689,4.93,38.8,38.8,0,0,1,8.537-3.417,2.8,2.8,0,0,0,2-2.028l1.167-4.671a3.117,3.117,0,0,1,.5-1.1l12.743-.042a2.413,2.413,0,0,1,.616,1.132l1.169,4.681a2.813,2.813,0,0,0,2,2.034,38.791,38.791,0,0,1,9.381,3.885,2.8,2.8,0,0,0,2.846-.022l4.136-2.48a3.21,3.21,0,0,1,1.127-.427l9.039,8.979a2.444,2.444,0,0,1-.361,1.239l-2.472,4.114a2.806,2.806,0,0,0-.022,2.853,38.91,38.91,0,0,1,3.91,9.409,2.8,2.8,0,0,0,2.029,2l4.631,1.158a3.06,3.06,0,0,1,1.1.5l.041,12.743a2.424,2.424,0,0,1-1.131.616l-4.643,1.16a2.808,2.808,0,0,0-2.03,2,38.783,38.783,0,0,1-3.91,9.408,2.811,2.811,0,0,0,.02,2.853l2.465,4.1a3.153,3.153,0,0,1,.429,1.133l-9.027,9.044a2.856,2.856,0,0,1-1.191-.368l-4.143-2.485a2.8,2.8,0,0,0-2.846-.022,38.834,38.834,0,0,1-9.381,3.886,2.811,2.811,0,0,0-2,2.032l-1.12,4.511a5.883,5.883,0,0,1-.566,1.261l-12.767.024a2.153,2.153,0,0,1-.57-1.114l-1.169-4.682a2.808,2.808,0,0,0-2-2.03,38.94,38.94,0,0,1-9.379-3.888,2.8,2.8,0,0,0-2.846.022l-3.989,2.4a9.26,9.26,0,0,1-1.274.509l-4.151-4.149a2.807,2.807,0,0,0-3.969,3.969l4.155,4.153c1.884,1.875,4.526,2.215,7.971.419l2.757-1.653a44.528,44.528,0,0,0,7.668,3.179l.781,3.127c.84,3.287,3.116,5.329,5.936,5.329H521.7c1.585,0,4.458-.671,5.94-5.344l.777-3.112a44.418,44.418,0,0,0,7.673-3.182L539,424.03c3.1,1.6,5.932,1.374,7.822-.509l9.1-9.1c1.991-2,2.155-5.045.421-7.975l-1.638-2.728a44.372,44.372,0,0,0,3.2-7.706l3.248-.815c4.5-1.439,5.168-4.307,5.168-5.89V376.44C566.318,373.615,564.275,371.339,560.977,370.5Z"/><path d="M470.192,292.543l-3.116-.781a44.849,44.849,0,0,0-3.241-7.8l1.749-2.921c2.171-4.221.613-6.735-.51-7.857l-9.175-9.173c-2.2-2.206-6.237-1.487-8.019-.428l-2.794,1.675a44.882,44.882,0,0,0-7.759-3.219l-.835-3.326c-1.445-4.522-4.329-5.2-5.919-5.2H417.594c-2.838,0-5.123,2.052-5.969,5.372l-.788,3.154a44.846,44.846,0,0,0-7.758,3.216l-2.8-1.679c-1.763-1.048-5.818-1.767-8.009.427l-9.177,9.178c-1.125,1.125-2.686,3.64-.421,8.019l1.658,2.761a44.782,44.782,0,0,0-3.239,7.793l-3.124.783c-3.308.84-5.362,3.125-5.362,5.965v12.979c0,1.59.675,4.472,5.372,5.969l3.114.777a44.676,44.676,0,0,0,4.053,9.256A2.806,2.806,0,0,0,390,324.675a38.993,38.993,0,0,1-3.945-9.5,2.812,2.812,0,0,0-2.033-2l-4.509-1.118a5.113,5.113,0,0,1-1.291-.592h0l-.019-12.9a2.168,2.168,0,0,1,1.14-.583l4.684-1.173a2.813,2.813,0,0,0,2.031-2,39.058,39.058,0,0,1,3.945-9.5,2.806,2.806,0,0,0-.022-2.853l-2.4-3.993a5.112,5.112,0,0,1-.5-1.332l9.179-9.139a2.514,2.514,0,0,1,1.143.4l4.177,2.506a2.8,2.8,0,0,0,2.851.022,39.339,39.339,0,0,1,9.469-3.927,2.809,2.809,0,0,0,2-2.031l1.175-4.708a2.8,2.8,0,0,1,.527-1.131l12.87-.038a2.453,2.453,0,0,1,.631,1.156l1.18,4.721a2.808,2.808,0,0,0,2,2.031,39.267,39.267,0,0,1,9.466,3.927,2.8,2.8,0,0,0,2.849-.022l4.171-2.5a3.016,3.016,0,0,1,1.168-.427l9.127,9.07a2.464,2.464,0,0,1-.369,1.267l-2.492,4.151a2.8,2.8,0,0,0-.022,2.853,39.27,39.27,0,0,1,3.947,9.5,2.805,2.805,0,0,0,2.028,2l4.675,1.171a2.8,2.8,0,0,1,1.129.522v12.979a2.807,2.807,0,0,0,5.614,0V298.51C475.562,295.67,473.508,293.385,470.192,292.543Z"/><path d="M502.969,346.939l0,0-4.8-1.02a59.547,59.547,0,0,0-5.139-11.207l2.46-4.467c2.463-5.239.524-8.167-.851-9.447L481.79,308.843a6.372,6.372,0,0,0-4.756-1.728,9.87,9.87,0,0,0-4.886,1.655l-4.158,2.7a59.589,59.589,0,0,0-11.5-4.289l-1.428-4.932c-1.958-5.449-5.438-6.131-7.284-6.081l-17.537.632c-3.357.12-5.989,2.708-6.87,6.767l-1.029,4.846a59.762,59.762,0,0,0-11.159,5.107l-4.351-2.4a9.683,9.683,0,0,0-4.984-1.292,6.48,6.48,0,0,0-4.618,2.066l-11.954,12.85c-1.278,1.375-3,4.437-.072,9.64l2.682,4.123a59.274,59.274,0,0,0-4.316,11.545l-4.717,1.364c-3.971,1.162-6.363,3.974-6.245,7.337l.634,17.534c.068,1.882,1.015,5.27,6.767,6.871l4.791,1.015a59.219,59.219,0,0,0,5.141,11.208l-2.386,4.32c-1.978,3.631-1.682,7.308.776,9.6l12.853,11.957a6.4,6.4,0,0,0,4.648,1.7,10.932,10.932,0,0,0,4.985-1.625l4.162-2.7a59.727,59.727,0,0,0,11.5,4.287l1.378,4.774c1.138,3.873,3.841,6.243,7.091,6.243.081,0,.162,0,.244,0l17.536-.633c1.879-.068,5.263-1.016,6.87-6.765l1.026-4.849a59.563,59.563,0,0,0,11.16-5.1l4.5,2.479a10.807,10.807,0,0,0,4.921,1.18,6.354,6.354,0,0,0,4.528-2.03l11.955-12.851c2.285-2.458,2.316-6.146.071-9.64l-2.682-4.122a59.235,59.235,0,0,0,4.318-11.548l4.881-1.414c5.447-1.963,6.147-5.408,6.079-7.285l-.632-17.534C509.607,350.441,507.017,347.81,502.969,346.939Zm-.419,26.348-6.27,1.809a2.806,2.806,0,0,0-1.958,2.07,53.727,53.727,0,0,1-4.958,13.26,2.809,2.809,0,0,0,.123,2.853l3.561,5.477c.441.685,1.116,2.143.533,2.77L481.63,414.372a.755.755,0,0,1-.621.248,5.16,5.16,0,0,1-2.171-.568l-5.767-3.182a2.814,2.814,0,0,0-2.846.079,53.911,53.911,0,0,1-12.833,5.868,2.8,2.8,0,0,0-1.923,2.1l-1.318,6.263c-.162.579-.759,2.465-1.625,2.5l-17.536.634h-.029c-.844,0-1.493-1.441-1.714-2.2l-1.825-6.324a2.81,2.81,0,0,0-2.07-1.959,53.96,53.96,0,0,1-13.225-4.927,2.8,2.8,0,0,0-2.842.127l-5.373,3.5a5.283,5.283,0,0,1-2.278.813c-.4-.026-.511-.087-.629-.2l-12.849-11.954c-.627-.585-.059-2.087.323-2.784l3.166-5.735a2.8,2.8,0,0,0-.083-2.853,53.747,53.747,0,0,1-5.9-12.872,2.8,2.8,0,0,0-2.1-1.923l-6.208-1.312c-.579-.159-2.465-.754-2.5-1.622l-.634-17.532c-.03-.864,1.435-1.522,2.2-1.746l6.27-1.813a2.815,2.815,0,0,0,1.956-2.07,53.674,53.674,0,0,1,4.958-13.261,2.807,2.807,0,0,0-.123-2.852l-3.478-5.331c-.294-.524-1.206-2.281-.616-2.915l11.953-12.85a.9.9,0,0,1,.711-.278,4.592,4.592,0,0,1,2.074.6l5.767,3.184a2.8,2.8,0,0,0,2.849-.081,54.014,54.014,0,0,1,12.835-5.873,2.811,2.811,0,0,0,1.921-2.1l1.362-6.421c.171-.793.725-2.3,1.583-2.335l17.536-.631H448c.86,0,1.577,1.809,1.722,2.2l1.824,6.322a2.805,2.805,0,0,0,2.068,1.956,54.079,54.079,0,0,1,13.225,4.934,2.811,2.811,0,0,0,2.846-.127l5.515-3.585a4.414,4.414,0,0,1,2.036-.757,1.107,1.107,0,0,1,.728.228L490.814,324.9c.633.59-.15,2.408-.321,2.787l-3.166,5.73a2.8,2.8,0,0,0,.081,2.854,53.853,53.853,0,0,1,5.9,12.874,2.813,2.813,0,0,0,2.1,1.921l6.375,1.355c.793.171,2.3.721,2.331,1.581l.631,17.534C504.78,372.41,502.942,373.139,502.55,373.287Z"/><path d="M440.128,327.471a37.6,37.6,0,0,0,1.324,75.178c.46,0,.926-.009,1.388-.026a37.6,37.6,0,1,0-2.712-75.152Zm2.511,69.543a31.988,31.988,0,0,1-2.31-63.934c.395-.013.79-.022,1.182-.022a31.988,31.988,0,0,1,1.128,63.956Z"/><path d="M441.485,351.09a5.657,5.657,0,0,1,5.651,5.651,2.807,2.807,0,0,0,5.614,0,11.252,11.252,0,0,0-8.458-10.867v-3.912a2.807,2.807,0,1,0-5.614,0v3.912a11.241,11.241,0,0,0,2.807,22.132,5.652,5.652,0,1,1-5.653,5.653,2.807,2.807,0,0,0-5.614,0,11.253,11.253,0,0,0,8.46,10.868v3.605a2.807,2.807,0,0,0,5.614,0v-3.605a11.243,11.243,0,0,0-2.807-22.135,5.651,5.651,0,1,1,0-11.3Z"/><path d="M561.45,273.325l-.008,0-2.412-.6a38.407,38.407,0,0,0-2.6-6.245l1.373-2.291c2.042-3.963.322-6.331-.511-7.165l-7.78-7.78c-2.013-2.022-5.715-1.388-7.322-.427l-2.165,1.3a38.293,38.293,0,0,0-6.212-2.575l-.658-2.618c-1.359-4.245-4.248-4.7-5.427-4.7H516.724c-2.569,0-4.718,1.91-5.477,4.879l-.61,2.443a38.648,38.648,0,0,0-6.21,2.575l-2.171-1.3c-1.594-.951-5.307-1.585-7.311.428l-7.789,7.787c-.833.833-2.55,3.2-.419,7.32l1.283,2.137a38.419,38.419,0,0,0-2.592,6.241l-2.421.606c-2.956.75-4.868,2.9-4.868,5.473v11.008c0,1.18.458,4.068,4.879,5.478l2.41.6a38.345,38.345,0,0,0,2.592,6.241l-1.294,2.153c-1.55,2.623-1.382,5.489.432,7.307l7.787,7.785c1.735,1.736,4.164,2.076,7.317.423l2.165-1.3a38.341,38.341,0,0,0,6.21,2.574l.614,2.458c.755,2.954,2.9,4.864,5.473,4.864h11.009c1.179,0,4.068-.458,5.477-4.879l.61-2.443a38.485,38.485,0,0,0,6.213-2.574l2.313,1.383c2.829,1.465,5.439,1.226,7.166-.508l7.785-7.785c1.818-1.818,1.987-4.687.423-7.32l-1.283-2.14a38.483,38.483,0,0,0,2.6-6.243l2.583-.649c4.245-1.36,4.7-4.248,4.7-5.428V278.8C566.318,276.224,564.406,274.075,561.45,273.325Zm-1.37,16.512-3.974.991a2.813,2.813,0,0,0-2.033,2,32.48,32.48,0,0,1-3.3,7.947,2.811,2.811,0,0,0,.02,2.853l2.107,3.513c.191.322.23.577.373.535l-7.381,7.561a2.021,2.021,0,0,1-.812-.259l-3.543-2.125a2.8,2.8,0,0,0-2.847-.022,32.757,32.757,0,0,1-7.927,3.283,2.815,2.815,0,0,0-2,2.033l-.949,3.831a5.942,5.942,0,0,0-.274.8l-10.506.1a1.742,1.742,0,0,1-.34-.728l-1-4.006a2.811,2.811,0,0,0-2-2.031,32.874,32.874,0,0,1-7.927-3.285,2.8,2.8,0,0,0-2.846.022l-3.395,2.042a4.744,4.744,0,0,0-.748.375l-7.506-7.36a1.77,1.77,0,0,1,.274-.756l2.116-3.524a2.808,2.808,0,0,0,.022-2.855,32.519,32.519,0,0,1-3.3-7.947,2.813,2.813,0,0,0-2.033-2l-3.8-.94c-.471-.154-.748-.277-.8-.275l-.1-10.506a1.73,1.73,0,0,1,.73-.337l3.973-1a2.814,2.814,0,0,0,2.031-2,32.6,32.6,0,0,1,3.3-7.951,2.8,2.8,0,0,0-.022-2.853l-2.026-3.364a6.379,6.379,0,0,0-.375-.759l7.362-7.5a1.766,1.766,0,0,1,.752.276l3.546,2.127a2.806,2.806,0,0,0,2.848.022,32.766,32.766,0,0,1,7.925-3.287,2.81,2.81,0,0,0,2-2.03l1-3.992c.1-.366.233-.607.117-.64l10.563-.129a1.99,1.99,0,0,1,.394.754l1,4.007a2.812,2.812,0,0,0,2,2.032,32.588,32.588,0,0,1,7.925,3.285,2.808,2.808,0,0,0,2.849-.022l3.539-2.123c.333-.2.6-.267.513-.383l7.574,7.392a1.96,1.96,0,0,1-.254.811l-2.114,3.522a2.806,2.806,0,0,0-.022,2.853,32.56,32.56,0,0,1,3.3,7.951,2.814,2.814,0,0,0,2.031,2l3.965.993c.366.09.6.23.636.112l.129,10.563A1.958,1.958,0,0,1,560.08,289.837Z"/><path d="M522.229,266.169A18.133,18.133,0,1,0,540.361,284.3,18.152,18.152,0,0,0,522.229,266.169Zm0,30.652A12.519,12.519,0,1,1,534.748,284.3,12.533,12.533,0,0,1,522.229,296.821Z"/><path d="M412.473,478.468c-29.327,0-52.3,11.549-52.3,26.293v40.845c0,14.744,22.975,26.293,52.3,26.293s52.3-11.549,52.3-26.293V504.761C464.775,490.017,441.8,478.468,412.473,478.468Zm0,4.245c26.049,0,48.057,10.1,48.057,22.048s-22.008,22.049-48.057,22.049-48.057-10.1-48.057-22.049S386.424,482.713,412.473,482.713ZM383.18,526.667v9.021a49.393,49.393,0,0,1-9.34-4.421v-8.652A57.1,57.1,0,0,0,383.18,526.667Zm40.756,3.763v9.305c-3.023.355-6.144.571-9.34.639V531C417.8,530.941,420.922,530.757,423.936,530.43Zm30.566,3.731V542.5a35.084,35.084,0,0,1-5.943,3.848v-8.808A44.935,44.935,0,0,0,454.5,534.161Zm-10.189,14.154a67.3,67.3,0,0,1-9.34,3.061v-9.207a72.922,72.922,0,0,0,9.34-2.829Zm-22.925,5.314v-9.353q4.851-.4,9.34-1.227v9.269A92.544,92.544,0,0,1,421.388,553.629Zm-8.915.411c-1.573,0-3.13-.04-4.67-.112v-9.372c1.54.065,3.091.115,4.67.115s3.13-.05,4.67-.115v9.372C415.6,554,414.047,554.04,412.473,554.04Zm-18.255-1.722v-9.269q4.485.818,9.34,1.227v9.353A92.584,92.584,0,0,1,394.218,552.318Zm-13.585-4V539.34a72.922,72.922,0,0,0,9.34,2.829v9.207A67.3,67.3,0,0,1,380.633,548.315ZM370.444,542.5v-8.336a44.949,44.949,0,0,0,5.944,3.376v8.808A35.134,35.134,0,0,1,370.444,542.5Zm57.737-3.357v-9.246a86.766,86.766,0,0,0,9.34-1.948v9.107A81.951,81.951,0,0,1,428.181,539.14Zm-17.831,1.234c-3.2-.068-6.316-.284-9.339-.639V530.43c3.014.327,6.138.511,9.339.573Zm-13.585-1.234a81.933,81.933,0,0,1-9.339-2.087v-9.107a86.747,86.747,0,0,0,9.339,1.948ZM383.18,553.9v9.019a49.331,49.331,0,0,1-9.34-4.42v-8.651A57.1,57.1,0,0,0,383.18,553.9Zm4.246,1.279a86.747,86.747,0,0,0,9.339,1.948v9.244a81.935,81.935,0,0,1-9.339-2.086Zm13.585,2.484c1.491.162,3.011.283,4.55.381.042,0,.077.024.12.024.019,0,.035-.01.054-.011,1.517.094,3.058.149,4.615.179v9.37c-3.2-.068-6.316-.285-9.339-.639Zm13.585.573c1.558-.03,3.1-.085,4.615-.179.019,0,.035.011.055.011.042,0,.077-.022.119-.024,1.539-.1,3.06-.219,4.551-.381v9.3c-3.023.354-6.144.571-9.34.639Zm13.585-1.109a86.766,86.766,0,0,0,9.34-1.948v9.106a81.953,81.953,0,0,1-9.34,2.086Zm13.585-3.227a57.059,57.059,0,0,0,9.34-4.052V558.5a49.331,49.331,0,0,1-9.34,4.42Zm0-18.209v-9.021a57.059,57.059,0,0,0,9.34-4.052v8.652A49.393,49.393,0,0,1,441.766,535.688ZM369.6,519.971v8.141c-3.276-2.958-5.179-6.263-5.179-9.736V515.3A28.779,28.779,0,0,0,369.6,519.971Zm-3.4,10.83v6.934a10.992,10.992,0,0,1-1.783-5.744v-3.077A25.253,25.253,0,0,0,366.2,530.8Zm-1.783,14.8v-3.077a25.763,25.763,0,0,0,2.394,2.441c.016.017.036.028.052.044A32.3,32.3,0,0,0,369.6,547.2v8.14C366.319,552.384,364.416,549.079,364.416,545.606Zm96.114,0c0,3.473-1.9,6.778-5.179,9.735V547.2a32.3,32.3,0,0,0,2.733-2.187c.017-.016.036-.027.052-.044a25.763,25.763,0,0,0,2.394-2.441Zm0-13.615a10.983,10.983,0,0,1-1.783,5.744V530.8a25.049,25.049,0,0,0,1.783-1.887Zm0-13.615c0,3.473-1.9,6.778-5.179,9.736v-8.141a28.779,28.779,0,0,0,5.179-4.672Z"/></g></g></svg>