<svg xmlns="http://www.w3.org/2000/svg" viewBox="0 0 40 40"><g id="Layer_2" data-name="Layer 2"><g id="Layer_1-2" data-name="Layer 1"><path d="M20.51168,24.3164a.9751.9751,0,0,0-1.0234,0l-5.2461,3.5899c-.2813.1914-.4346.081-.3418-.2461l1.584-5.6016a1.17745,1.17745,0,0,0-.2656-1.0391l-4.0801-4.1504c-.2393-.2441-.1573-.4687.1826-.5l5.3994-.5039a1.16112,1.16112,0,0,0,.86332-.6269l2.16988-5.0039c.1357-.3125.3574-.3125.4922,0L22.418,15.2383a1.15584,1.15584,0,0,0,.86228.6269l5.4004.503c.3398.0322.4218.2568.1816.5009l-4.0791,4.1504a1.17463,1.17463,0,0,0-.2656,1.0391l1.584,5.6016c.0918.3271-.06158.4375-.3428.2461Z" style="fill:none;stroke:#000;stroke-linecap:round;stroke-linejoin:round;stroke-width:2px"/><circle cx="20" cy="20" r="15" style="fill:none;stroke:#000;stroke-miterlimit:10;stroke-width:2px"/><rect width="40" height="40" style="fill:none"/></g></g></svg>