<svg xmlns="http://www.w3.org/2000/svg" xmlns:xlink="http://www.w3.org/1999/xlink" viewBox="0 0 61.45 61.45"><defs><style>.cls-1{fill:none;}.cls-2{fill:#fc326c;}.cls-3{fill:#fa6846;}.cls-4{fill:#ff9e1d;}.cls-5{opacity:0.6;}.cls-6{clip-path:url(#clip-path);}.cls-7{fill:#fff;}</style><clipPath id="clip-path"><rect class="cls-1" x="30.69" y="12.84" width="30.76" height="35.8"/></clipPath></defs><title>Asset 2</title><g id="Layer_2" data-name="Layer 2"><g id="Layer_1-2" data-name="Layer 1"><path class="cls-2" d="M61.45,30.72A30.73,30.73,0,1,0,30.72,61.45,30.73,30.73,0,0,0,61.45,30.72"/><path class="cls-3" d="M51.18,30.72A20.46,20.46,0,1,0,30.72,51.18,20.46,20.46,0,0,0,51.18,30.72"/><path class="cls-4" d="M40.9,30.72A10.18,10.18,0,1,0,30.72,40.91,10.18,10.18,0,0,0,40.9,30.72"/><g class="cls-5"><g class="cls-6"><path class="cls-7" d="M61.45,30.72A30.61,30.61,0,0,0,55.7,12.84L32.29,28.21c-2.13,1.4-2.13,3.69,0,5.09L55.67,48.65a30.6,30.6,0,0,0,5.78-17.93"/></g></g></g></g></svg>