<svg xmlns="http://www.w3.org/2000/svg" viewBox="0 0 200 200"><g id="Layer_2" data-name="Layer 2"><g id="Layer_1-2" data-name="Layer 1"><rect width="200" height="200" style="fill:none"/><g id="Layer_2-2" data-name="Layer 2"><g id="Layer_1-2-2" data-name="Layer 1-2"><path d="M146.5065,150.01093a7.36953,7.36953,0,0,0,2.83148-6.05563c0-5.40232-4.00767-8.66919-10.06324-8.66919H127.25112V165.781h12.85136c6.18617,0,10.23776-3.52863,10.23776-8.93095A7.64207,7.64207,0,0,0,146.5065,150.01093ZM135.51,159.0699a.90559.90559,0,1,1-1.81118.00138V141.99683a.90559.90559,0,1,1,1.81118-.00138V159.0699Z"/><rect x="57.39121" y="135.28609" width="8.68982" height="30.4949"/><rect x="67.89222" y="157.03598" width="9.60898" height="8.74501"/><path d="M106.25618,135.28609H96.75923L86.69567,165.781h6.99714l5.22368-15.757a.90555.90555,0,1,1,1.7198.56775l-.00059.00179L95.601,165.781H116.3194Z"/><path d="M25.60811,91.12918a60.53659,60.53659,0,0,0-.68528,10.89157c.26472,10.95072,2.26128,22.21961,9.02842,31.10373a45.88241,45.88241,0,0,0,7.18979,7.46537c1.01824.84589,4.18613,3.94315,5.73864,2.67406,1.13762-.93.29991-4.038.1544-5.20276-.27317-2.18685-.88586-4.75981-.25715-6.93676,1.14688-3.97106,6.52945-3.81083,9.89848-3.77418,27.69789.30126,55.04556-4.14125,82.50157-7.04185q10.26893-1.08484,20.53829-2.16564c9.87657-1.05542,19.24546-1.43064,28.42489-5.7344a16.86625,16.86625,0,0,0,5.56017-3.74753c3.708-4.13936,4.48318-11.59283,5.147-16.88463a145.86314,145.86314,0,0,0,1.151-19.01656c-.036-6.03736.24808-13.391-1.62292-19.16494-3.05487-9.42731-13.71549-12.986-22.53117-14.31491-9.86129-1.48655-19.7939-.3105-29.62306.82515q-19.74048,2.28079-39.4741,4.61359c-10.90971,1.303-22.02778,1.99061-32.78108,4.28645a83.12322,83.12322,0,0,0-31.58664,14.3136,44.183,44.183,0,0,0-8.28557,7.7628A41.853,41.853,0,0,0,25.60811,91.12918Z"/><path d="M29.84034,49.42272c1.53186.88885,3.699-1.55727,4.31455-1.38394a1.33163,1.33163,0,0,1,.67423.58287c1.30157,1.88251,1.64317,4.47491,3.478,5.84293a1.39533,1.39533,0,0,0,1.028.3463c.49206-.08495.79748-.57785.97961-1.04277.509-1.29943-.02983-11.17347-.48719-12.07947-.28861-.57169-.80952-1.18492-1.43634-1.05369-.74959.15692-2.61971,2.14838-3.39953,1.53284s.22271-6.31567-.70387-6.97578a5.14423,5.14423,0,0,0-5.96874-.03688C27.27862,36.11652,27.27863,47.42732,29.84034,49.42272Z"/><path d="M2.6271,75.65665c2.60529,1.87659,9.44165,5.959,10.44836,4.365s.56378-3.79908.38676-4.94064,1.858-.45927,1.858-.45927a23.58526,23.58526,0,0,0,4.52661.13494c1.42772-.2156,2.81326-1.17377,1.55445-2.616-1.62254-1.859-10.08756-5.54177-11.93319-5.03842s-1.22361,3.37977-1.13763,3.756c.10891.47641-.22865.73788-.64212.46116L5.32884,69.74027c-.94546-.63275-2.13933-1.28649-3.15261-.769A5.158,5.158,0,0,0,.00109,72.92815c.02694.8724.9005,1.40236,1.51087,1.8856Q2.052,75.24132,2.6271,75.65665Z"/><path d="M13.57835,58.92857c.9002-.04492,1.22252-1.33988,1.50064-1.99825.99206-2.34824,3.362.79868,4.07977,1.76958,1.12866,1.52669,2.05393,3.30309,3.84059,4.17276,2.51511,1.2241,2.30061-2.41915,2.05-3.87657-.41852-2.43378-4.73536-9.15979-5.50822-10.45673-.5223-.87645-1.32176-2.93882-2.7038-2.369-1.09007.44946-1.18232,2.44535-1.80354,3.03965S11.824,44.8744,10.64562,43.74939a1.94871,1.94871,0,0,0-2.32487-.46792c-.70705.44465-3.90729,4.053-3.54517,6.33419S11.302,58.73985,13.57835,58.92857Z"/><path d="M175.191,147.62593,173.42933,148.63a.86819.86819,0,0,1-.864-1.50616l.00384-.00219,9.89689-5.6884c-2.15255-3.78046-5.68974-6.34428-10.18052-6.34433-6.825-.00006-12.28482,4.52412-12.28482,11.539.314,5.33776,5.29851,8.59535,9.28943,6.31423l2.18026-1.296a.86818.86818,0,1,1,.89074,1.49048l-.00343.002s-10.68989,6.35452-10.70061,6.35917c2.033,3.73206,4.63094,6.18942,9.72561,6.28317,6.59933.12144,12.71643-4.121,12.71643-10.126C184.0991,147.92307,178.247,145.95034,175.191,147.62593Z"/><path d="M61.341,82.59015a7.03987,7.03987,0,0,0-4.11053-.92651c-1.29044.14654-2.25328.86654-2.15581,1.72523.36153,3.18161,10.5561,1.32739,11.60069,10.52462.54258,4.77183-2.82914,10.72747-10.26543,11.57222a15.19277,15.19277,0,0,1-10.19639-2.36835.83507.83507,0,0,1-.22708-1.23657l3.293-5.11939a.93786.93786,0,0,1,1.351-.37179,9.18382,9.18382,0,0,0,5.56993,1.50057c2.01893-.22952,2.72441-1.31043,2.62207-2.21271-.42995-3.78233-10.59243-2.01833-11.61282-11.0036-.60556-5.32892,3.53467-9.8918,10.28359-10.65846a14.12,14.12,0,0,1,8.48328,1.47393.84333.84333,0,0,1,.27068,1.23292l-3.59883,5.5021A.98815.98815,0,0,1,61.341,82.59015Z" style="fill:#fff"/><path d="M71.1819,102.50273l1.29045-28.88334a.9186.9186,0,0,1,.86464-.96957l.02674-.00114L83.8944,71.4521c5.24353-.59587,9.70832,2.29264,10.38714,8.26708.72243,6.362-4.36123,11.81627-10.2073,12.48l-4.59922.5226-.38453,8.88233a.92432.92432,0,0,1-.87553.97066l-.01525.00066-6.19.70306C71.40838,103.34688,71.15405,103.02714,71.1819,102.50273ZM86.38263,81.09624c-.1756-1.54781-1.377-2.54335-3.74113-2.27508l-2.57908.29309-.27552,6.388,2.62206-.29793C85.031,84.907,86.62728,83.24476,86.38263,81.09624Z" style="fill:#fff"/><path d="M93.96605,99.91457,103.724,70.069a1.17816,1.17816,0,0,1,1.06336-.99008l8.21017-.93257c.55833-.06358.84536.16411.95739.76057l7.21947,27.91685a.65882.65882,0,0,1-.58981.9368l-6.491.737c-.55893.06359-1.00765-.05934-1.17176-.73635l-.96163-4.24618-8.46692.96223-1.2741,4.4993a1.26345,1.26345,0,0,1-1.23474,1.01007l-6.49038.73758C93.97754,100.78294,93.8092,100.45352,93.96605,99.91457Zm11.57645-13.071,5.11576-.58134-2.18547-8.5033Z" style="fill:#fff"/><path d="M148.35549,94.60564s-6.14642.69821-6.83494.77633a1.29728,1.29728,0,0,1-1.42973-.70729l-4.81661-8.2913-1.11725.12656-.42752,8.88718a.92446.92446,0,0,1-.87579.97067l-.0156.00067-6.18941.70306c-.55894.06358-.85021-.20771-.82781-.77573l1.29045-28.88333a.954.954,0,0,1,.89077-.97071l11.0902-1.25956a8.76621,8.76621,0,0,1,9.83609,8.02545c.63947,5.63049-3.43472,9.61991-5.54813,10.9479l5.47912,9.523C149.133,94.169,149.00042,94.53236,148.35549,94.60564ZM134.42038,79.25231l2.66506-.30278c2.62146-.29793,4.20864-2.045,3.97429-4.10872-.17562-1.54781-1.28682-2.50946-3.47893-2.26055l-2.87944.327C134.69349,73.60485,134.42038,79.25231,134.42038,79.25231Z" style="fill:#fff"/><path d="M171.68707,91.08556l-6.69929-10.29814-2.74318,3.44626-.35788,7.96491a.92446.92446,0,0,1-.87578.97068l-.0156.00067-6.18941.70306c-.55893.06358-.8502-.20771-.82779-.77573l1.29045-28.88333a.9238.9238,0,0,1,.87511-.97l.01567-.00067,6.19-.703c.55833-.06359.8502.20771.82779.77572l-.47173,10.02441,8.72428-10.96182a2.35979,2.35979,0,0,1,1.70827-1.064l8.03758-.91319c.51594-.05874.60252.32277.22647.84415l-10.5773,13.43606,9.93116,15.37392c.31246.44264.0975.85868-.46084.92227l-7.0923.80539A1.41,1.41,0,0,1,171.68707,91.08556Z" style="fill:#fff"/></g></g></g></g></svg>