<svg xmlns="http://www.w3.org/2000/svg" xmlns:xlink="http://www.w3.org/1999/xlink" viewBox="0 0 55.911 54.61"><defs><style>.cls-1{fill:none;}.cls-2{isolation:isolate;}.cls-3{clip-path:url(#clip-path);}.cls-4{fill:url(#radial-gradient);}.cls-5{clip-path:url(#clip-path-2);}.cls-6{fill:url(#radial-gradient-2);}.cls-7{clip-path:url(#clip-path-3);}.cls-8{fill:url(#radial-gradient-3);}.cls-9{clip-path:url(#clip-path-4);}.cls-10{fill:url(#radial-gradient-4);}.cls-11{clip-path:url(#clip-path-5);}.cls-12{fill:url(#radial-gradient-5);}.cls-13{opacity:0.75;mix-blend-mode:screen;}.cls-14{clip-path:url(#clip-path-6);}.cls-15{clip-path:url(#clip-path-7);}.cls-16{fill:url(#linear-gradient);}.cls-17{fill:#8adaed;}.cls-18{clip-path:url(#clip-path-8);}.cls-19{fill:url(#linear-gradient-2);}.cls-20{clip-path:url(#clip-path-9);}.cls-21{clip-path:url(#clip-path-10);}.cls-22{fill:url(#linear-gradient-3);}.cls-23{fill:#0d9ad1;}</style><clipPath id="clip-path"><path class="cls-1" d="M4.757,13.714S3.511,16.251,2.817,22.2s2.046,9.187,2.046,9.187c5.947-.9,18.305-1.546,24.3,3.674,12.744,11.1,2.92,18.907,8.331,17.574C53.2,42.685,35.416,24.9,35.3,24.783,24.642,14.343,15.983,11.148,10.605,11.148c-3.216,0-5.259,1.144-5.848,2.566"/></clipPath><radialGradient id="radial-gradient" cx="-490.087" cy="481.75" r="1" gradientTransform="matrix(54.921, 0, 0, -54.921, 26978.269, 26488.081)" gradientUnits="userSpaceOnUse"><stop offset="0" stop-color="#3983c4"/><stop offset="1" stop-color="#0d406b"/></radialGradient><clipPath id="clip-path-2"><path class="cls-1" d="M27.272,18.2a11.454,11.454,0,1,0,.413-.009c-.136,0-.276,0-.413.009"/></clipPath><radialGradient id="radial-gradient-2" cx="-466.312" cy="496.065" r="1" gradientTransform="translate(-5335.165 5734.709) rotate(180) scale(11.501)" gradientUnits="userSpaceOnUse"><stop offset="0" stop-color="#ffca32"/><stop offset="0.445" stop-color="#ff931d"/><stop offset="1" stop-color="#ff3f1d"/></radialGradient><clipPath id="clip-path-3"><path class="cls-1" d="M27.272,18.2A11.509,11.509,0,0,0,16.936,33.813c.136-2.738,1.685-3.693,3.635-4.843a8.189,8.189,0,0,1,3.94-1,32.282,32.282,0,0,1,3.358.124,31.524,31.524,0,0,0,3.338.123,8.458,8.458,0,0,0,3.183-.645,4.307,4.307,0,0,0,2.759-4.415,11.5,11.5,0,0,0-9.463-4.971c-.137,0-.276,0-.414.009"/></clipPath><radialGradient id="radial-gradient-3" cx="-461.447" cy="455.766" r="1" gradientTransform="matrix(-9.209, 0, 0, 9.209, -4222.846, -4171.331)" xlink:href="#radial-gradient-2"/><clipPath id="clip-path-4"><path class="cls-1" d="M1.944,20.674q-.228.9-.393,1.792a34.814,34.814,0,0,0-.446,5c-.016.358-.024.71-.026,1.06v.182c.056,15.574,14.707,24.086,20.843,24.516.906.119,1.549.263,2.241.318h1.156l.105-.009c6.259-.58,6.986-5.971,5.982-10.3-.827-3.56-3.478-6.953-6.579-9.664C19.44,28.86,13.383,26.909,8.186,22.006c-4.85-4.274-4.017-7.068-3.429-8.292a32.672,32.672,0,0,0-2.813,6.96"/></clipPath><radialGradient id="radial-gradient-4" cx="-481.531" cy="474.448" r="1" gradientTransform="matrix(-53.558, 0, 0, 53.558, -25750.672, -25399.66)" gradientUnits="userSpaceOnUse"><stop offset="0" stop-color="#00e6ff"/><stop offset="1" stop-color="#08f"/></radialGradient><clipPath id="clip-path-5"><path class="cls-1" d="M28.558,0q-1.21.012-2.412.127S24.669.294,24.04.388a30.833,30.833,0,0,0-5.074,1.34c-4.406,1.582-8.076,6.023-.5,12.31,23.862,19.8,24.783,33.364,19.025,38.6a27.09,27.09,0,0,0,12.608-8.8c.086-.15.172-.3.254-.45a27,27,0,0,0,5.559-16.4v-.047A26.87,26.87,0,0,0,29.085,0Z"/></clipPath><radialGradient id="radial-gradient-5" cx="-481.528" cy="474.446" r="1" gradientTransform="matrix(-53.526, 0, 0, 53.526, -25734.985, -25384.312)" xlink:href="#radial-gradient-4"/><clipPath id="clip-path-6"><rect class="cls-1" x="11.9" y="0.513" width="33.384" height="20.897"/></clipPath><clipPath id="clip-path-7"><path class="cls-1" d="M19.715,2.065C11.9,4.642,16.429,9.426,22.107,14.147,25.86,17.269,29.253,21.275,33,21.332c5.022.077,12.284-2.771,12.284-9.194S37.649.512,28.233.512a27.1,27.1,0,0,0-8.518,1.553"/></clipPath><linearGradient id="linear-gradient" x1="-473.329" y1="492.83" x2="-472.329" y2="492.83" gradientTransform="matrix(0, -15.798, -15.798, 0, 7814.334, -7461.067)" gradientUnits="userSpaceOnUse"><stop offset="0"/><stop offset="1" stop-color="#fff"/></linearGradient><clipPath id="clip-path-8"><path class="cls-1" d="M1.255,27.481c.009,1.595-.026,1.241-.026,1.241C1.272,40.643,9.8,48.4,16.551,51.586l-.017.005s.386.186,1.009.44c.212.089.416.167.622.245.253.094.527.192.821.291.169.057.337.115.5.163a16.225,16.225,0,0,0,4.5.814,7.829,7.829,0,0,0,.815-.024h.01a6.985,6.985,0,0,0,.736-.1l.172-.034c.163-.036.328-.083.492-.136.1-.032.209-.061.309-.1.141-.054.28-.124.421-.192.074-.037.155-.063.228-.1l.029-.02a5.925,5.925,0,0,0,2.731-3.651c1.635-5.3-4.858-12.3-11.023-15.462C10.381,29.353,2.616,24.083,2.892,18.328a30.887,30.887,0,0,0-1.637,9.153"/></clipPath><linearGradient id="linear-gradient-2" x1="-480.355" y1="485.056" x2="-479.355" y2="485.056" gradientTransform="matrix(34.46, 0, 0, -34.46, 16552.272, 16751.12)" gradientUnits="userSpaceOnUse"><stop offset="0" stop-color="#00e6ff"/><stop offset="0.576" stop-color="#00acff"/><stop offset="1" stop-color="#00acff"/></linearGradient><clipPath id="clip-path-9"><rect class="cls-1" x="6.05" y="33.478" width="24.107" height="20.096"/></clipPath><clipPath id="clip-path-10"><path class="cls-1" d="M20.849,35.118C17.559,33.488,7.4,30.9,6.108,39.882c-.741,5.169,5.612,9.348,11.832,12.3a14.979,14.979,0,0,0,5.652,1.362c5.446.479,8.7-5.289,4.947-11.251a21.938,21.938,0,0,0-7.69-7.177"/></clipPath><linearGradient id="linear-gradient-3" x1="-497.999" y1="475.774" x2="-497.333" y2="476.396" gradientTransform="matrix(-24.413, 0.014, 0.014, 24.413, -12138.933, -11574.856)" gradientUnits="userSpaceOnUse"><stop offset="0"/><stop offset="0.259"/><stop offset="0.301"/><stop offset="0.395" stop-color="#020404"/><stop offset="0.478" stop-color="#080e0e"/><stop offset="0.558" stop-color="#122121"/><stop offset="0.634" stop-color="#1f3a3a"/><stop offset="0.71" stop-color="#315b5b"/><stop offset="0.784" stop-color="#478484"/><stop offset="0.856" stop-color="#61b4b4"/><stop offset="0.927" stop-color="#7feaea"/><stop offset="0.952" stop-color="#8affff"/><stop offset="1" stop-color="#8affff"/></linearGradient></defs><title>Asset 4</title><g class="cls-2"><g id="Layer_2" data-name="Layer 2"><g id="Layer_1-2" data-name="Layer 1"><g class="cls-3"><rect class="cls-4" x="2.122" y="11.148" width="51.079" height="42.821"/></g><g class="cls-5"><rect class="cls-6" x="15.553" y="17.779" width="24.252" height="24.042" transform="translate(-1.038 0.999) rotate(-2.029)"/></g><g class="cls-7"><rect class="cls-8" x="15.687" y="17.816" width="21.799" height="16.369" transform="translate(-0.904 0.957) rotate(-2.029)"/></g><g class="cls-9"><rect class="cls-10" x="1.079" y="13.714" width="31.331" height="39.828"/></g><g class="cls-11"><rect class="cls-12" x="10.89" width="45.022" height="52.636"/></g><g class="cls-13"><g class="cls-14"><g class="cls-15"><rect class="cls-16" x="11.899" y="0.512" width="33.385" height="20.897"/></g></g></g><path class="cls-17" d="M32.1,44.689a16.928,16.928,0,0,0-.3-1.757,12.626,12.626,0,0,0-.531-1.72,15.184,15.184,0,0,0-.755-1.626,20.01,20.01,0,0,0-1.964-2.967,28.65,28.65,0,0,0-5.08-4.9c-.936-.71-1.9-1.373-2.89-2s-1.985-1.223-2.987-1.8-2-1.156-2.986-1.751c-.494-.3-.98-.6-1.464-.907s-.963-.621-1.433-.945a34.135,34.135,0,0,1-2.721-2.08l-.657-.567c-.218-.186-.432-.372-.642-.565a16.866,16.866,0,0,1-1.2-1.208,8.779,8.779,0,0,1-1.8-2.845,4.679,4.679,0,0,1-.29-1.659,4.407,4.407,0,0,1,.359-1.67,4.329,4.329,0,0,0-.533,1.661,4.913,4.913,0,0,0,.158,1.763,7.161,7.161,0,0,0,.684,1.642,11.565,11.565,0,0,0,.989,1.471,16.192,16.192,0,0,0,1.172,1.323c.207.21.416.416.631.615.2.187.41.4.625.6a30.813,30.813,0,0,0,2.7,2.251c1.872,1.411,3.881,2.6,5.85,3.809a65.409,65.409,0,0,1,5.735,3.787,32.008,32.008,0,0,1,2.6,2.2,27.029,27.029,0,0,1,2.327,2.473,19.27,19.27,0,0,1,1.927,2.767,14.779,14.779,0,0,1,.745,1.5,11.944,11.944,0,0,1,.553,1.574,14.87,14.87,0,0,1,.513,3.326,8.8,8.8,0,0,1-.585,3.383,5.347,5.347,0,0,1-.819,1.434,5.249,5.249,0,0,1-1.074.985A9.963,9.963,0,0,1,25.985,53.4a9.256,9.256,0,0,1-2.3.009,3.23,3.23,0,0,1-1.161.024,12.68,12.68,0,0,0,6.141-.686,9.611,9.611,0,0,0,.932-.535,6.635,6.635,0,0,0,.866-.733,5.787,5.787,0,0,0,1-1.5,8.786,8.786,0,0,0,.729-3.508,13.086,13.086,0,0,0-.092-1.782"/><g class="cls-18"><rect class="cls-19" x="-1.733" y="20.166" width="36.261" height="31.549" transform="translate(-20.093 51.073) rotate(-88)"/></g><g class="cls-13"><g class="cls-20"><g class="cls-21"><rect class="cls-22" x="4.343" y="21.72" width="28.975" height="35.487" transform="translate(-20.697 58.161) rotate(-89.805)"/></g></g></g><path class="cls-23" d="M37.491,52.636A8.331,8.331,0,0,0,38.785,51.3a8.869,8.869,0,0,0,.975-1.6,10.548,10.548,0,0,0,.94-3.638,15.188,15.188,0,0,0-.2-3.767,21.467,21.467,0,0,0-.986-3.634c-.213-.59-.447-1.173-.7-1.747s-.527-1.136-.812-1.693c-.573-1.111-1.2-2.191-1.871-3.245A55.376,55.376,0,0,0,31.665,26,89.443,89.443,0,0,0,21.027,15.616c-.473-.4-.953-.79-1.432-1.179l-.722-.582c-.242-.2-.478-.38-.71-.576a15.385,15.385,0,0,1-2.512-2.6,8.3,8.3,0,0,1-.922-1.539,5.535,5.535,0,0,1-.47-1.716,4.323,4.323,0,0,1,.2-1.774,5.177,5.177,0,0,1,.88-1.6A5.071,5.071,0,0,0,14.3,5.59a4.568,4.568,0,0,0-.357,1.856,5.6,5.6,0,0,0,.376,1.868,8.828,8.828,0,0,0,.867,1.692,15.984,15.984,0,0,0,2.478,2.842c.462.432.935.82,1.395,1.228s.922.812,1.379,1.224.911.825,1.363,1.242.9.832,1.351,1.253q1.341,1.263,2.639,2.567c.865.869,1.72,1.748,2.552,2.647s1.651,1.809,2.443,2.74,1.565,1.879,2.307,2.851,1.451,1.962,2.129,2.976a36.12,36.12,0,0,1,3.456,6.408,22.189,22.189,0,0,1,1.085,3.459,14.762,14.762,0,0,1,.376,3.59,10.43,10.43,0,0,1-.668,3.543,8.841,8.841,0,0,1-1.976,3.06"/></g></g></g></svg>