<svg xmlns="http://www.w3.org/2000/svg" viewBox="0 0 40 40"><g id="Layer_2" data-name="Layer 2"><g id="Objects_Tools" data-name="Objects / Tools"><path d="M5,21.99053c0-2,1-3,6-3,3,0,7,1,7,3s-2,7-6,7H11C5,28.99053,5,23.99053,5,21.99053Z" style="fill:none;stroke:#000;stroke-linecap:round;stroke-linejoin:round;stroke-width:2px"/><path d="M5,20.99053l5-9s1.875-2.7705,5,1" style="fill:none;stroke:#000;stroke-linecap:round;stroke-linejoin:round;stroke-width:2px"/><path d="M35,21.99053c0-2-1-3-6-3-3,0-7,1-7,3s2,7,6,7h1C35,28.99053,35,23.99053,35,21.99053Z" style="fill:none;stroke:#000;stroke-linecap:round;stroke-linejoin:round;stroke-width:2px"/><path d="M35,20.99053l-5-9s-1.875-2.7705-5,1" style="fill:none;stroke:#000;stroke-linecap:round;stroke-linejoin:round;stroke-width:2px"/><path d="M18,22.99053s0-1,2-1,2,1,2,1" style="fill:none;stroke:#000;stroke-linecap:round;stroke-linejoin:round;stroke-width:2px"/><rect width="40" height="40" style="fill:none"/></g></g></svg>