<svg xmlns="http://www.w3.org/2000/svg" viewBox="0 0 40 40"><g id="Layer_2" data-name="Layer 2"><g id="Layer_1-2" data-name="Layer 1"><path d="M32.81868,9.15712a16.30717,16.30717,0,0,0-4.179-2.9651,2.70324,2.70324,0,0,1-1.056-1.94941,8.72779,8.72779,0,0,1,.415-2.60028L23.52087,3.53219c-.15518-.10208-.30686-.20542-.4502-.31078A15.91047,15.91047,0,0,1,20.00042,0h-.00084a15.91047,15.91047,0,0,1-3.07025,3.22141c-.14344.10546-.29534.209-.45073.3112L12,1.64233a8.73126,8.73126,0,0,1,.415,2.60028,2.70371,2.70371,0,0,1-1.0579,1.95089l-.00063.00063a16.2973,16.2973,0,0,0-4.17512,2.963c-2.51988,2.72351-3.64971,7.69874-2.08,11.13012.06241.13635.58263,1.01157.58263,1.01157,1.08329-1.75763,2.005-1.86542,2.00622-1.86595C6.39929,21.97,6.14648,26.58462,8.73723,29.68978a34.70613,34.70613,0,0,0,5.42342,4.82227A67.80079,67.80079,0,0,1,19.99905,40s3.7026-3.80827,5.8403-5.48795a34.70161,34.70161,0,0,0,5.42342-4.82227c2.59075-3.10516,2.338-7.71979,1.04711-10.25692.00138.00053.92293.10832,2.00632,1.86595,0,0,.52012-.87522.58253-1.01157C36.46839,16.85586,35.33856,11.88063,32.81868,9.15712Z" style="fill:#ef1f30"/><path d="M31.01715,14.49871a3.31118,3.31118,0,0,0-4.104-2.21513,3.76794,3.76794,0,0,0-2.06567,1.25549l-.0128-.01428s.10039-1.89229,3.03408-3.39139c-3.81875-.7924-5.57977-.21876-6.65808.48214l-1.2115-2.09623h-.00021l-1.21149,2.09623c-1.07832-.7009-2.83944-1.27454-6.65819-.48214,2.9338,1.4991,3.03408,3.39139,3.03408,3.39139l-.0128.01428A3.76768,3.76768,0,0,0,13.085,12.28358a3.31113,3.31113,0,0,0-4.104,2.21513,3.21458,3.21458,0,0,0,2.08481,3.58592A5.32483,5.32483,0,0,0,9.9519,21.28605a10.60392,10.60392,0,0,0,1.29971,4.22885l1.46113-1.49318a5.966,5.966,0,0,0,1.75044,5.04061,10.57623,10.57623,0,0,0,5.53587,3.11478,10.57657,10.57657,0,0,0,5.53586-3.11478,5.96571,5.96571,0,0,0,1.75034-5.04061l1.46124,1.49318a10.60392,10.60392,0,0,0,1.29971-4.22885,5.32483,5.32483,0,0,0-1.11386-3.20142A3.2148,3.2148,0,0,0,31.01715,14.49871Z" style="fill:#fff"/><path d="M27.65114,16.32c-.00582-.27143-.23525-.54127-.502-.48087L22.749,17.0176a.51525.51525,0,0,0-.37869.23568.53065.53065,0,0,0-.089.41465l.22362,5.57754c-.8692-.16586-1.63419.2672-2.50169.26615s-1.63578-.43518-2.50772-.271l.22341-5.57268a.53029.53029,0,0,0-.089-.41465.51525.51525,0,0,0-.37859-.23568l-4.40021-1.17849c-.26678-.0604-.49621.20944-.502.48087a.48992.48992,0,0,0,.1355.34929h-.0001s1.98632,2.27394,3.98884,2.237c.04612-.00084.08917-.00349.13021-.0074l-.09055,4.79234-.00243.00159c-.00053.47357,1.544,1.77773,2.57182,2.59329v1.5301l-4.133,1.87007.71719,1.5849,4.33188-1.9601,4.32966,1.95915.71719-1.5849-4.22325-1.911V26.33773c1.0378-.80911,2.66469-2.15452,2.66522-2.63783l-.00042-.00021.00042-.00137-.09065-4.79943c.041.00391.08409.00656.13021.0074,2.00251.03692,3.98895-2.237,3.98895-2.237h-.00021A.48992.48992,0,0,0,27.65114,16.32Z" style="fill:#ef1f30"/><rect width="40" height="40" style="fill:none"/></g></g></svg>