<svg xmlns="http://www.w3.org/2000/svg" viewBox="0 0 40 40"><g id="Layer_2" data-name="Layer 2"><g id="Layer_1-2" data-name="Layer 1"><rect x="2.55305" y="3.5" width="34.89391" height="33" rx="3" style="fill:none;stroke:#000;stroke-linecap:round;stroke-linejoin:round;stroke-width:1.99610254556966px"/><path d="M8.3738,11.15672h1.65039l1.09766,4.40918h.01953l1.43652-4.40918h1.40821l1.42773,4.52539h.01953l1.15528-4.52539h1.53418l-2.00977,6.875H14.76247l-1.51464-4.75781h-.01856l-1.51562,4.75781H10.41287Z"/><path d="M23.04372,14.59422a3.89863,3.89863,0,0,1,.27637-1.49512,3.28062,3.28062,0,0,1,.77246-1.14062,3.388,3.388,0,0,1,1.17481-.72363,4.50418,4.50418,0,0,1,2.9707,0,3.40113,3.40113,0,0,1,1.17578.72363,3.27832,3.27832,0,0,1,.77149,1.14062,4.18251,4.18251,0,0,1,0,2.99024,3.28224,3.28224,0,0,1-.77149,1.1416,3.41355,3.41355,0,0,1-1.17578.72266,4.48788,4.48788,0,0,1-2.9707,0,3.40027,3.40027,0,0,1-1.17481-.72266,3.28453,3.28453,0,0,1-.77246-1.1416A3.89509,3.89509,0,0,1,23.04372,14.59422Zm1.57325,0a2.51429,2.51429,0,0,0,.15039.88867,2.04065,2.04065,0,0,0,.43164.69922,1.97572,1.97572,0,0,0,.6748.46094,2.42281,2.42281,0,0,0,1.75782,0,1.96655,1.96655,0,0,0,.6748-.46094,2.04307,2.04307,0,0,0,.43262-.69922,2.6864,2.6864,0,0,0,0-1.77246,2.03262,2.03262,0,0,0-.43262-.70312,1.969,1.969,0,0,0-.6748-.46192,2.42281,2.42281,0,0,0-1.75782,0,1.97819,1.97819,0,0,0-.6748.46192,2.03027,2.03027,0,0,0-.43164.70312A2.53342,2.53342,0,0,0,24.617,14.59422Z"/><path d="M10.80154,22.31492h2.66015a4.66367,4.66367,0,0,1,.99512.10254,2.35345,2.35345,0,0,1,.8252.33985,1.68654,1.68654,0,0,1,.56347.64062,2.1635,2.1635,0,0,1,.209,1.00489,2.01588,2.01588,0,0,1-.37891,1.23828,1.70333,1.70333,0,0,1-1.10644.6455l1.74707,2.90332H14.50076l-1.43653-2.748h-.748v2.748H10.80154Zm1.51465,2.84571h.89355c.13574,0,.2793-.00489.43164-.01465a1.34866,1.34866,0,0,0,.41309-.08789.7072.7072,0,0,0,.30566-.22754.694.694,0,0,0,.12109-.4375.668.668,0,0,0-.3789-.65527,1.21416,1.21416,0,0,0-.37793-.11133,3.08223,3.08223,0,0,0-.418-.0293h-.99023Z"/><path d="M23.76736,22.31492h2.27148a6.5291,6.5291,0,0,1,1.56836.18457,3.59045,3.59045,0,0,1,1.29688.59766,2.932,2.932,0,0,1,.87793,1.07324,3.59359,3.59359,0,0,1,.32617,1.60157,3.25983,3.25983,0,0,1-.31641,1.4707,3.14655,3.14655,0,0,1-.84961,1.06836,3.74056,3.74056,0,0,1-1.23242.65527,4.77866,4.77866,0,0,1-1.4668.22363H23.76736ZM25.282,27.79149h.78613a4.23975,4.23975,0,0,0,.97656-.10645,2.08444,2.08444,0,0,0,.78125-.35449,1.7006,1.7006,0,0,0,.51953-.65039,2.31192,2.31192,0,0,0,.18946-.98535,1.924,1.924,0,0,0-.18946-.87891,1.75788,1.75788,0,0,0-.50976-.61719,2.25,2.25,0,0,0-.75293-.36328,3.33632,3.33632,0,0,0-.90723-.12207H25.282Z"/><rect width="40" height="40" style="fill:none"/></g></g></svg>