<?xml version="1.0" encoding="utf-8"?>
<!-- Generator: Adobe Illustrator 15.0.2, SVG Export Plug-In . SVG Version: 6.00 Build 0)  -->
<!DOCTYPE svg PUBLIC "-//W3C//DTD SVG 1.1//EN" "http://www.w3.org/Graphics/SVG/1.1/DTD/svg11.dtd">
<svg version="1.1" id="Layer_1" xmlns="http://www.w3.org/2000/svg" xmlns:xlink="http://www.w3.org/1999/xlink" x="0px" y="0px"
	 width="47.7px" height="41px" viewBox="0 0 47.7 41" enable-background="new 0 0 47.7 41" xml:space="preserve">
<g>
	<g>
		<defs>
			<rect id="SVGID_1_" width="47.7" height="41"/>
		</defs>
		<clipPath id="SVGID_2_">
			<use xlink:href="#SVGID_1_"  overflow="visible"/>
		</clipPath>
		
			<line clip-path="url(#SVGID_2_)" fill="none" stroke="#333333" stroke-width="2.2778" stroke-linecap="round" x1="1.1" y1="23" x2="46.5" y2="23"/>
		
			<line clip-path="url(#SVGID_2_)" fill="none" stroke="#333333" stroke-width="2.2778" stroke-linecap="round" x1="7" y1="23.6" x2="7" y2="39.9"/>
		
			<line clip-path="url(#SVGID_2_)" fill="none" stroke="#333333" stroke-width="2.2778" stroke-linecap="round" x1="40.6" y1="23.6" x2="40.6" y2="39.9"/>
	</g>
	<line fill="none" stroke="#333333" stroke-width="1.8222" stroke-linecap="round" x1="29.7" y1="19.2" x2="43.5" y2="19.2"/>
	<line fill="none" stroke="#333333" stroke-width="1.8222" stroke-linecap="round" x1="29.7" y1="15.5" x2="43.5" y2="15.5"/>
	<line fill="none" stroke="#333333" stroke-width="1.8222" stroke-linecap="round" x1="29.7" y1="11.8" x2="43.5" y2="11.8"/>
	<g>
		<defs>
			<rect id="SVGID_3_" width="47.7" height="41"/>
		</defs>
		<clipPath id="SVGID_4_">
			<use xlink:href="#SVGID_3_"  overflow="visible"/>
		</clipPath>
		<path clip-path="url(#SVGID_4_)" fill="none" stroke="#333333" stroke-width="2.2778" d="M4.6,22.7c0-7.4,2.9-13.7,6.9-15.5"/>
		
			<path clip-path="url(#SVGID_4_)" fill="none" stroke="#333333" stroke-width="2.2778" stroke-linecap="round" stroke-linejoin="round" d="
			M13.7,9.5L9.6,5.3l4.2-4.2l4.1,4.1c1.4-1.4,3.6-1.4,5,0l1.3,1.3L15,15.7l-1.3-1.3C12.4,13.1,12.4,10.8,13.7,9.5z"/>
	</g>
</g>
</svg>
