<?xml version="1.0" encoding="utf-8"?>
<!-- Generator: Adobe Illustrator 15.0.2, SVG Export Plug-In . SVG Version: 6.00 Build 0)  -->
<!DOCTYPE svg PUBLIC "-//W3C//DTD SVG 1.1//EN" "http://www.w3.org/Graphics/SVG/1.1/DTD/svg11.dtd">
<svg version="1.1" id="Layer_1" xmlns="http://www.w3.org/2000/svg" xmlns:xlink="http://www.w3.org/1999/xlink" x="0px" y="0px"
	 width="50px" height="50px" viewBox="0 0 50 50" enable-background="new 0 0 50 50" xml:space="preserve">
<g>
	<path fill="#FFFFFF" d="M25,3.2C37,3.2,46.8,13,46.8,25S37,46.8,25,46.8C13,46.8,3.2,37,3.2,25S13,3.2,25,3.2 M25,0
		C11.2,0,0,11.2,0,25c0,13.8,11.2,25,25,25c13.8,0,25-11.2,25-25C50,11.2,38.8,0,25,0"/>
	<polygon fill="#FFFFFF" points="19.7,16.7 35.1,25 19.7,33.4 	"/>
	
		<polygon fill="none" stroke="#FFFFFF" stroke-width="0.7932" stroke-linecap="round" stroke-linejoin="round" stroke-miterlimit="10" points="
		19.7,16.7 35.1,25 19.7,33.4 	"/>
</g>
</svg>
