<?xml version="1.0" encoding="UTF-8" standalone="no"?>
<svg width="48px" height="88px" viewBox="0 0 48 88" version="1.1" xmlns="http://www.w3.org/2000/svg" xmlns:xlink="http://www.w3.org/1999/xlink">
    <defs></defs>
    <g id="Page-1" stroke="none" stroke-width="1" fill="none" fill-rule="evenodd">
        <g id="Artboard-1">
            <path d="M1.84277344,21.1376953 C2.58691778,20.4404262 3.5390567,20.0859376 4.69921875,20.0742188 C5.34375322,20.0742188 5.94726281,20.1914051 6.50976562,20.4257812 C8.39649381,21.1875038 9.35156238,22.857409 9.375,25.4355469 C9.36328119,26.4316456 9.17578307,27.3984328 8.8125,28.3359375 C7.76952604,30.9961071 5.73634324,32.7949172 2.71289062,33.7324219 L2.36132812,33.7851562 C1.97460744,33.8085939 1.78125,33.6386737 1.78125,33.2753906 L1.83398438,33.046875 C1.85742199,32.9765621 1.89257789,32.9238283 1.93945312,32.8886719 C2.05664121,32.7949214 2.24999865,32.7011723 2.51953125,32.6074219 C3.39844189,32.3261705 4.24218346,31.8691438 5.05078125,31.2363281 C5.61328406,30.814451 6.13476322,30.2695346 6.61523438,29.6015625 C6.88476697,29.2382794 7.09277271,28.9072281 7.23925781,28.6083984 C7.38574292,28.3095688 7.50585891,27.9902361 7.59960938,27.6503906 L7.65234375,27.3515625 L7.6171875,27.2109375 C7.55859346,27.0820306 7.43554781,27.0058595 7.24804688,26.9824219 C7.07226475,26.9941407 6.84961072,27.0527338 6.58007812,27.1582031 C6.0058565,27.4042981 5.37305033,27.5273438 4.68164062,27.5273438 C3.50975977,27.5273438 2.57226914,27.2226593 1.86914062,26.6132812 C1.11913688,25.9687468 0.744140625,25.0664121 0.744140625,23.90625 C0.732421816,22.7578068 1.09862909,21.8349644 1.84277344,21.1376953 L1.84277344,21.1376953 Z M11.6953125,21.1289062 C12.4453163,20.4374965 13.3945255,20.0859376 14.5429688,20.0742188 C15.1875032,20.0742188 15.7910128,20.1914051 16.3535156,20.4257812 C18.2402438,21.1875038 19.1953124,22.857409 19.21875,25.4355469 C19.2070312,27.3222751 18.5507878,29.0683513 17.25,30.6738281 C16.1015568,32.1035228 14.5371193,33.1230438 12.5566406,33.7324219 L12.1875,33.7851562 C11.8124981,33.8085939 11.625,33.6386737 11.625,33.2753906 L11.6777344,33.046875 C11.701172,32.9765621 11.7363279,32.9238283 11.7832031,32.8886719 C11.9003912,32.7949214 12.0937487,32.7011723 12.3632812,32.6074219 C13.2421919,32.3261705 14.0859335,31.8691438 14.8945312,31.2363281 C15.4570341,30.814451 15.9785132,30.2695346 16.4589844,29.6015625 C16.728517,29.2382794 16.9365227,28.9072281 17.0830078,28.6083984 C17.2294929,28.3095688 17.3496089,27.9902361 17.4433594,27.6503906 L17.4960938,27.3515625 L17.4609375,27.2109375 C17.4023435,27.0820306 17.2792978,27.0058595 17.0917969,26.9824219 C16.9160147,26.9941407 16.6933607,27.0527338 16.4238281,27.1582031 C15.8496065,27.4042981 15.2168003,27.5273438 14.5253906,27.5273438 C13.3535098,27.5273438 12.4013708,27.2109407 11.6689453,26.578125 C10.9365198,25.9453093 10.5761718,25.0429746 10.5878906,23.8710938 C10.5761718,22.7343693 10.9453087,21.820316 11.6953125,21.1289062 L11.6953125,21.1289062 Z M34.2128906,13.6669922 C33.4394493,14.3408237 32.4960993,14.6777344 31.3828125,14.6777344 C29.941399,14.6894532 28.7871137,14.1562554 27.9199219,13.078125 C27.1464805,12.1171827 26.7539063,10.8808669 26.7421875,9.36914062 C26.7304687,8.39647951 26.9179668,7.42090333 27.3046875,6.44238281 C27.6914082,5.46386229 28.224606,4.59375381 28.9042969,3.83203125 C29.3144552,3.3515601 29.7949191,2.91797068 30.3457031,2.53125 C31.3535207,1.81640268 32.378901,1.31250146 33.421875,1.01953125 L33.7734375,0.966796875 C33.8906256,0.966796875 33.9960933,0.996093457 34.0898438,1.0546875 L34.265625,1.24804688 C34.3007814,1.33007854 34.3242187,1.41210896 34.3359375,1.49414062 L34.2832031,1.70507812 C34.2480467,1.78710979 34.2128908,1.83984363 34.1777344,1.86328125 C34.0488275,1.96875053 33.85547,2.06249959 33.5976562,2.14453125 C33.1640603,2.27343814 32.7011743,2.48437354 32.2089844,2.77734375 C30.7441333,3.60937916 29.6308632,4.74608654 28.8691406,6.1875 C28.5644516,6.7265652 28.4296873,7.11328008 28.4648437,7.34765625 L28.5,7.54101562 C28.5703129,7.70507895 28.6933585,7.78710938 28.8691406,7.78710938 C29.0214851,7.78710938 29.2382798,7.72265689 29.5195312,7.59375 C30.0351588,7.35937383 30.6445277,7.23632818 31.3476562,7.22460938 C32.5195371,7.22460938 33.4833947,7.54101246 34.2392578,8.17382812 C34.995121,8.80664379 35.3730469,9.71483783 35.3730469,10.8984375 C35.3730469,12.0703184 34.986332,12.9931607 34.2128906,13.6669922 L34.2128906,13.6669922 Z M44.0566406,13.6669922 C43.2831993,14.3408237 42.3398493,14.6777344 41.2265625,14.6777344 C39.785149,14.6894532 38.6308637,14.1562554 37.7636719,13.078125 C36.9902305,12.1171827 36.5976563,10.8808669 36.5859375,9.36914062 C36.5742187,8.39647951 36.7617168,7.42090333 37.1484375,6.44238281 C37.5351582,5.46386229 38.068356,4.59375381 38.7480469,3.83203125 C39.1582052,3.3515601 39.6386691,2.91797068 40.1894531,2.53125 C41.1972707,1.81640268 42.222651,1.31250146 43.265625,1.01953125 L43.6171875,0.966796875 C43.7343756,0.966796875 43.8398433,0.996093457 43.9335937,1.0546875 L44.109375,1.24804688 C44.1445314,1.33007854 44.1679687,1.41210896 44.1796875,1.49414062 L44.1269531,1.70507812 C44.0917967,1.78710979 44.0566408,1.83984363 44.0214844,1.86328125 C43.8925775,1.96875053 43.69922,2.06249959 43.4414062,2.14453125 C42.9960915,2.28515695 42.5273462,2.49609234 42.0351562,2.77734375 C40.9687447,3.3867218 40.0722693,4.17772951 39.3457031,5.15039062 C38.8300755,5.81836271 38.4960945,6.46874684 38.34375,7.1015625 L38.3085937,7.40039062 C38.2734373,7.65820441 38.4023423,7.78710938 38.6953125,7.78710938 C38.8593758,7.78710938 39.0820298,7.72265689 39.3632812,7.59375 C39.8789088,7.35937383 40.4882777,7.23632818 41.1914062,7.22460938 C42.3632871,7.22460938 43.3271447,7.54101246 44.0830078,8.17382812 C44.838871,8.80664379 45.2167969,9.71483783 45.2167969,10.8984375 C45.2167969,12.0703184 44.830082,12.9931607 44.0566406,13.6669922 L44.0566406,13.6669922 Z" id="2" fill="#A7A7A7"></path>
            <path d="M1.84277344,71.1376953 C2.58691778,70.4404262 3.5390567,70.0859376 4.69921875,70.0742188 C5.34375322,70.0742188 5.94726281,70.1914051 6.50976562,70.4257812 C8.39649381,71.1875038 9.35156238,72.857409 9.375,75.4355469 C9.36328119,76.4316456 9.17578307,77.3984328 8.8125,78.3359375 C7.76952604,80.9961071 5.73634324,82.7949172 2.71289062,83.7324219 L2.36132812,83.7851562 C1.97460744,83.8085939 1.78125,83.6386737 1.78125,83.2753906 L1.83398438,83.046875 C1.85742199,82.9765621 1.89257789,82.9238283 1.93945312,82.8886719 C2.05664121,82.7949214 2.24999865,82.7011723 2.51953125,82.6074219 C3.39844189,82.3261705 4.24218346,81.8691438 5.05078125,81.2363281 C5.61328406,80.814451 6.13476322,80.2695346 6.61523438,79.6015625 C6.88476697,79.2382794 7.09277271,78.9072281 7.23925781,78.6083984 C7.38574292,78.3095688 7.50585891,77.9902361 7.59960938,77.6503906 L7.65234375,77.3515625 L7.6171875,77.2109375 C7.55859346,77.0820306 7.43554781,77.0058595 7.24804688,76.9824219 C7.07226475,76.9941407 6.84961072,77.0527338 6.58007812,77.1582031 C6.0058565,77.4042981 5.37305033,77.5273438 4.68164062,77.5273438 C3.50975977,77.5273438 2.57226914,77.2226593 1.86914062,76.6132812 C1.11913688,75.9687468 0.744140625,75.0664121 0.744140625,73.90625 C0.732421816,72.7578068 1.09862909,71.8349644 1.84277344,71.1376953 L1.84277344,71.1376953 Z M11.6953125,71.1289062 C12.4453163,70.4374965 13.3945255,70.0859376 14.5429688,70.0742188 C15.1875032,70.0742188 15.7910128,70.1914051 16.3535156,70.4257812 C18.2402438,71.1875038 19.1953124,72.857409 19.21875,75.4355469 C19.2070312,77.3222751 18.5507878,79.0683513 17.25,80.6738281 C16.1015568,82.1035228 14.5371193,83.1230438 12.5566406,83.7324219 L12.1875,83.7851562 C11.8124981,83.8085939 11.625,83.6386737 11.625,83.2753906 L11.6777344,83.046875 C11.701172,82.9765621 11.7363279,82.9238283 11.7832031,82.8886719 C11.9003912,82.7949214 12.0937487,82.7011723 12.3632812,82.6074219 C13.2421919,82.3261705 14.0859335,81.8691438 14.8945312,81.2363281 C15.4570341,80.814451 15.9785132,80.2695346 16.4589844,79.6015625 C16.728517,79.2382794 16.9365227,78.9072281 17.0830078,78.6083984 C17.2294929,78.3095688 17.3496089,77.9902361 17.4433594,77.6503906 L17.4960938,77.3515625 L17.4609375,77.2109375 C17.4023435,77.0820306 17.2792978,77.0058595 17.0917969,76.9824219 C16.9160147,76.9941407 16.6933607,77.0527338 16.4238281,77.1582031 C15.8496065,77.4042981 15.2168003,77.5273438 14.5253906,77.5273438 C13.3535098,77.5273438 12.4013708,77.2109407 11.6689453,76.578125 C10.9365198,75.9453093 10.5761718,75.0429746 10.5878906,73.8710938 C10.5761718,72.7343693 10.9453087,71.820316 11.6953125,71.1289062 L11.6953125,71.1289062 Z M34.2128906,63.6669922 C33.4394493,64.3408237 32.4960993,64.6777344 31.3828125,64.6777344 C29.941399,64.6894532 28.7871137,64.1562554 27.9199219,63.078125 C27.1464805,62.1171827 26.7539063,60.8808669 26.7421875,59.3691406 C26.7304687,58.3964795 26.9179668,57.4209033 27.3046875,56.4423828 C27.6914082,55.4638623 28.224606,54.5937538 28.9042969,53.8320312 C29.3144552,53.3515601 29.7949191,52.9179707 30.3457031,52.53125 C31.3535207,51.8164027 32.378901,51.3125015 33.421875,51.0195312 L33.7734375,50.9667969 C33.8906256,50.9667969 33.9960933,50.9960935 34.0898438,51.0546875 L34.265625,51.2480469 C34.3007814,51.3300785 34.3242187,51.412109 34.3359375,51.4941406 L34.2832031,51.7050781 C34.2480467,51.7871098 34.2128908,51.8398436 34.1777344,51.8632812 C34.0488275,51.9687505 33.85547,52.0624996 33.5976562,52.1445312 C33.1640603,52.2734381 32.7011743,52.4843735 32.2089844,52.7773438 C30.7441333,53.6093792 29.6308632,54.7460865 28.8691406,56.1875 C28.5644516,56.7265652 28.4296873,57.1132801 28.4648437,57.3476562 L28.5,57.5410156 C28.5703129,57.7050789 28.6933585,57.7871094 28.8691406,57.7871094 C29.0214851,57.7871094 29.2382798,57.7226569 29.5195312,57.59375 C30.0351588,57.3593738 30.6445277,57.2363282 31.3476562,57.2246094 C32.5195371,57.2246094 33.4833947,57.5410125 34.2392578,58.1738281 C34.995121,58.8066438 35.3730469,59.7148378 35.3730469,60.8984375 C35.3730469,62.0703184 34.986332,62.9931607 34.2128906,63.6669922 L34.2128906,63.6669922 Z M44.0566406,63.6669922 C43.2831993,64.3408237 42.3398493,64.6777344 41.2265625,64.6777344 C39.785149,64.6894532 38.6308637,64.1562554 37.7636719,63.078125 C36.9902305,62.1171827 36.5976563,60.8808669 36.5859375,59.3691406 C36.5742187,58.3964795 36.7617168,57.4209033 37.1484375,56.4423828 C37.5351582,55.4638623 38.068356,54.5937538 38.7480469,53.8320312 C39.1582052,53.3515601 39.6386691,52.9179707 40.1894531,52.53125 C41.1972707,51.8164027 42.222651,51.3125015 43.265625,51.0195312 L43.6171875,50.9667969 C43.7343756,50.9667969 43.8398433,50.9960935 43.9335937,51.0546875 L44.109375,51.2480469 C44.1445314,51.3300785 44.1679687,51.412109 44.1796875,51.4941406 L44.1269531,51.7050781 C44.0917967,51.7871098 44.0566408,51.8398436 44.0214844,51.8632812 C43.8925775,51.9687505 43.69922,52.0624996 43.4414062,52.1445312 C42.9960915,52.285157 42.5273462,52.4960923 42.0351562,52.7773438 C40.9687447,53.3867218 40.0722693,54.1777295 39.3457031,55.1503906 C38.8300755,55.8183627 38.4960945,56.4687468 38.34375,57.1015625 L38.3085937,57.4003906 C38.2734373,57.6582044 38.4023423,57.7871094 38.6953125,57.7871094 C38.8593758,57.7871094 39.0820298,57.7226569 39.3632812,57.59375 C39.8789088,57.3593738 40.4882777,57.2363282 41.1914062,57.2246094 C42.3632871,57.2246094 43.3271447,57.5410125 44.0830078,58.1738281 C44.838871,58.8066438 45.2167969,59.7148378 45.2167969,60.8984375 C45.2167969,62.0703184 44.830082,62.9931607 44.0566406,63.6669922 L44.0566406,63.6669922 Z" id="2-copy" fill="#FFFFFF"></path>
        </g>
    </g>
</svg>