<svg xmlns="http://www.w3.org/2000/svg" width="97" height="20" viewBox="0 0 97 20"><g fill="#000000"><path d="M44.3 6.8L44.3 5C44.3 4.3 44.7 4.1 45.1 4.1L47 4.1 47 1 44.4 1C41.4 1 40.8 3.3 40.8 4.8L40.8 6.9 39 6.9 39 10 40.7 10 40.7 19 44.3 19 44.3 10 46.7 10 47 6.8 44.3 6.8 44.3 6.8zM82.6 18.5C90.5 18.5 94.9 11.9 94.9 6.2L94.9 5.6C95.7 5 96.5 4.2 97 3.4 96.2 3.7 95.4 4 94.5 4.1 95.4 3.6 96.1 2.7 96.4 1.7 95.6 2.2 94.6 2.6 93.7 2.7 92.1 1 89.3.9 87.6 2.5 86.5 3.6 86 5.1 86.4 6.6 82.9 6.4 79.7 4.8 77.5 2.1 76.4 4.1 76.9 6.6 78.8 7.9 78.1 7.9 77.4 7.7 76.8 7.4 76.8 7.4 76.8 7.4 76.8 7.5 76.8 9.6 78.2 11.3 80.3 11.7 79.7 11.9 79 11.9 78.4 11.8 79 13.6 80.6 14.8 82.4 14.8 80.9 16 79 16.7 77 16.7 76.7 16.7 76.3 16.7 76 16.6 78 17.9 80.3 18.5 82.6 18.5M18.5 0L1.5 0C.7 0 0 .7 0 1.4L0 18.5C0 19.3.7 20 1.5 20L18.5 20C19.3 20 20 19.3 20 18.6L20 1.4C20 .7 19.3 0 18.5 0L18.5 0 18.5 0zM6 17L3 17 3 8 6 8 6 17 6 17zM4.5 6L4.5 6C3.6 6 3 5.3 3 4.5 3 3.6 3.6 3 4.5 3 5.4 3 6 3.6 6 4.5 6 5.3 5.4 6 4.5 6L4.5 6 4.5 6zM17 17L14.1 17 14.1 12.3C14.1 11.1 13.7 10.3 12.6 10.3 11.8 10.3 11.3 10.9 11.1 11.4 11 11.6 11 11.8 11 12.1L11 17 8 17 8 8.2 10.9 8.2 10.9 9.4C11.3 8.8 12 8 13.6 8 15.5 8 17 9.2 17 12L17 17 17 17z"/></g></svg>