<svg xmlns="http://www.w3.org/2000/svg" viewBox="0 0 1019.99994 1019.99994"><g id="Layer_2" data-name="Layer 2"><g id="Layer_1-2" data-name="Layer 1"><path d="M510,91.9c136.2,0,152.3.5,206.1,3,49.7,2.3,76.7,10.6,94.7,17.6,23.8,9.3,40.8,20.3,58.6,38.2,17.8,17.8,28.9,34.8,38.2,58.6,7,18,15.3,45,17.6,94.7,2.5,53.8,3,69.9,3,206.1s-.5,152.3-3,206.1c-2.3,49.7-10.6,76.7-17.6,94.7-9.3,23.8-20.3,40.8-38.2,58.6-17.8,17.8-34.8,28.9-58.6,38.2-18,7-45,15.3-94.7,17.6-53.8,2.5-69.9,3-206.1,3s-152.3-.5-206.1-3c-49.7-2.3-76.7-10.6-94.7-17.6-23.8-9.3-40.8-20.3-58.6-38.2-17.8-17.8-28.9-34.8-38.2-58.6-7-18-15.3-45-17.6-94.7-2.5-53.8-3-69.9-3-206.1s.5-152.3,3-206.1c2.3-49.7,10.6-76.7,17.6-94.7,9.3-23.8,20.3-40.8,38.2-58.6,17.8-17.8,34.8-28.9,58.6-38.2,18-7,45-15.3,94.7-17.6,53.80005-2.5,69.9-3,206.1-3M510,0C371.5,0,354.1.6,299.7,3.1c-54.3,2.5-91.4,11.1-123.8,23.7-33.5,13-62,30.5-90.3,58.8C57.2,114,39.8,142.4,26.8,175.9,14.2,208.4,5.5,245.4,3.1,299.7.6,354.1,0,371.5,0,510S.6,665.9,3.1,720.3c2.5,54.3,11.1,91.4,23.7,123.8,13,33.5,30.5,62,58.8,90.3,28.4,28.4,56.8,45.8,90.3,58.8,32.4,12.6,69.5,21.2,123.8,23.7,54.4,2.5,71.8,3.1,210.3,3.1s155.9-.6,210.3-3.1c54.3-2.5,91.4-11.1,123.8-23.7,33.5-13,62-30.5,90.3-58.8,28.4-28.4,45.8-56.8,58.8-90.3,12.6-32.4,21.2-69.5,23.7-123.8,2.5-54.4,3.1-71.8,3.1-210.3s-.6-155.9-3.1-210.3c-2.5-54.3-11.1-91.4-23.7-123.8-13-33.5-30.5-62-58.8-90.3-28.4-28.4-56.8-45.8-90.3-58.8C811.6,14.2,774.6,5.5,720.3,3.1,665.9.6,648.5,0,510,0Z" style="fill:#666"/><path d="M510,248.1c-144.6,0-261.9,117.3-261.9,261.9S365.4,771.9,510,771.9,771.9,654.6,771.9,510,654.6,248.1,510,248.1ZM510,680A170,170,0,1,1,680,510,169.98515,169.98515,0,0,1,510,680Z" style="fill:#666"/><circle cx="782.20001" cy="237.8" r="61.2" style="fill:#666"/></g></g></svg>