<svg xmlns="http://www.w3.org/2000/svg" viewBox="0 0 355.806 239.63"><title>Asset 6</title><path d="M354.2,21.152a.355.355,0,0,0-.231.543.436.436,0,0,0,.8-.121C354.8,21.272,354.615,21.071,354.2,21.152Z" style="fill:#0082c3;fill-rule:evenodd"/><path d="M331.048,12.306a.605.605,0,0,0-.393.925.742.742,0,0,0,1.368-.205C332.057,12.511,331.749,12.169,331.048,12.306Z" style="fill:#0082c3;fill-rule:evenodd"/><path d="M305.265,10.43a.356.356,0,0,0-.231.544.436.436,0,0,0,.8-.121C305.858,10.551,305.677,10.35,305.265,10.43Z" style="fill:#0082c3;fill-rule:evenodd"/><path d="M327.483,201.405a.85.85,0,0,0-.552,1.3,1.042,1.042,0,0,0,1.922-.288C328.9,201.694,328.468,201.214,327.483,201.405Z" style="fill:#0082c3;fill-rule:evenodd"/><path d="M293.211,185.8a.557.557,0,0,0-.362.851.683.683,0,0,0,1.26-.188C294.14,185.992,293.856,185.677,293.211,185.8Z" style="fill:#0082c3;fill-rule:evenodd"/><path d="M286.224,175.369a.372.372,0,0,0-.241.568.456.456,0,0,0,.841-.126C286.844,175.5,286.655,175.285,286.224,175.369Z" style="fill:#0082c3;fill-rule:evenodd"/><path d="M261.881,144.425a.372.372,0,0,0-.241.568.456.456,0,0,0,.841-.126C262.5,144.551,262.312,144.341,261.881,144.425Z" style="fill:#0082c3;fill-rule:evenodd"/><path d="M266.44,161.134a.228.228,0,0,0-.148.347.279.279,0,0,0,.514-.077C266.819,161.211,266.7,161.083,266.44,161.134Z" style="fill:#0082c3;fill-rule:evenodd"/><path d="M255.893,188.614a.227.227,0,0,0-.147.348.278.278,0,0,0,.512-.077C256.271,188.692,256.156,188.564,255.893,188.614Z" style="fill:#0082c3;fill-rule:evenodd"/><path d="M240.84,155.182a.462.462,0,0,0-.3.706.565.565,0,0,0,1.043-.156C241.61,155.339,241.375,155.078,240.84,155.182Z" style="fill:#0082c3;fill-rule:evenodd"/><path d="M231.748,200.992a.227.227,0,0,0-.147.347.278.278,0,0,0,.513-.078C232.126,201.069,232.011,200.941,231.748,200.992Z" style="fill:#0082c3;fill-rule:evenodd"/><path d="M210.712,204.522a.349.349,0,0,0-.227.534.429.429,0,0,0,.791-.118C211.3,204.641,211.118,204.443,210.712,204.522Z" style="fill:#0082c3;fill-rule:evenodd"/><path d="M213.832,146.962a.227.227,0,0,0-.148.347.278.278,0,0,0,.513-.076C214.209,147.039,214.094,146.911,213.832,146.962Z" style="fill:#0082c3;fill-rule:evenodd"/><path d="M170.732,192.4a.35.35,0,0,0-.227.534.429.429,0,0,0,.791-.118C171.315,192.519,171.138,192.322,170.732,192.4Z" style="fill:#0082c3;fill-rule:evenodd"/><path d="M170.27,170a.349.349,0,0,0-.227.534.429.429,0,0,0,.791-.118C170.853,170.116,170.675,169.918,170.27,170Z" style="fill:#0082c3;fill-rule:evenodd"/><path d="M156.484,164.876a.35.35,0,0,0-.227.534.429.429,0,0,0,.791-.118C157.067,165,156.89,164.8,156.484,164.876Z" style="fill:#0082c3;fill-rule:evenodd"/><path d="M147.75,149.582a.667.667,0,0,0-.433,1.019.818.818,0,0,0,1.508-.226C148.862,149.809,148.523,149.431,147.75,149.582Z" style="fill:#0082c3;fill-rule:evenodd"/><path d="M154.8,136.713a.351.351,0,0,0-.227.535.429.429,0,0,0,.791-.119C155.381,136.832,155.2,136.635,154.8,136.713Z" style="fill:#0082c3;fill-rule:evenodd"/><path d="M185.5,139.426a.462.462,0,0,0-.3.706.566.566,0,0,0,1.044-.157C186.268,139.583,186.033,139.322,185.5,139.426Z" style="fill:#0082c3;fill-rule:evenodd"/><path d="M141.178,193.476a.521.521,0,0,0-.339.8.639.639,0,0,0,1.178-.177C142.047,193.653,141.782,193.359,141.178,193.476Z" style="fill:#0082c3;fill-rule:evenodd"/><path d="M88.25,141.51a.226.226,0,0,0-.147.346.278.278,0,0,0,.513-.077C88.629,141.587,88.514,141.458,88.25,141.51Z" style="fill:#0082c3;fill-rule:evenodd"/><path d="M122.507,68.616a.227.227,0,0,0-.148.347.279.279,0,0,0,.514-.077C122.885,68.693,122.77,68.565,122.507,68.616Z" style="fill:#0082c3;fill-rule:evenodd"/><path d="M104.216,132.543a.35.35,0,0,0-.228.534.429.429,0,0,0,.791-.118C104.8,132.661,104.621,132.464,104.216,132.543Z" style="fill:#0082c3;fill-rule:evenodd"/><path d="M124.634,125.632a.349.349,0,0,0-.227.534.429.429,0,0,0,.791-.118C125.218,125.751,125.04,125.553,124.634,125.632Z" style="fill:#0082c3;fill-rule:evenodd"/><path d="M73.183,137.206a.349.349,0,0,0-.227.534.428.428,0,0,0,.79-.118C73.766,137.325,73.588,137.127,73.183,137.206Z" style="fill:#0082c3;fill-rule:evenodd"/><path d="M21.175,3.065a.356.356,0,0,0-.231.543.436.436,0,0,0,.8-.12C21.768,3.185,21.587,2.985,21.175,3.065Z" style="fill:#0082c3;fill-rule:evenodd"/><path d="M29.041,46.461a.227.227,0,0,0-.147.347.278.278,0,0,0,.513-.077C29.419,46.538,29.3,46.41,29.041,46.461Z" style="fill:#0082c3;fill-rule:evenodd"/><path d="M96.473,47.51a.355.355,0,0,0-.231.543.436.436,0,0,0,.8-.12C97.065,47.631,96.885,47.43,96.473,47.51Z" style="fill:#0082c3;fill-rule:evenodd"/><path d="M115.448,81.961a.227.227,0,0,0-.148.347.278.278,0,0,0,.513-.077C115.826,82.038,115.71,81.91,115.448,81.961Z" style="fill:#0082c3;fill-rule:evenodd"/><path d="M107.181,77.458a.334.334,0,0,0-.217.51.409.409,0,0,0,.754-.114C107.737,77.571,107.567,77.383,107.181,77.458Z" style="fill:#0082c3;fill-rule:evenodd"/><path d="M89.144,83.033a.333.333,0,0,0-.216.509.409.409,0,0,0,.754-.113C89.7,83.146,89.531,82.958,89.144,83.033Z" style="fill:#0082c3;fill-rule:evenodd"/><path d="M105.35,111.161a.35.35,0,0,0-.227.535.429.429,0,0,0,.791-.119C105.934,111.28,105.755,111.083,105.35,111.161Z" style="fill:#0082c3;fill-rule:evenodd"/><path d="M81.234,83.947a.334.334,0,0,0-.216.51.408.408,0,0,0,.753-.113C81.79,84.061,81.621,83.872,81.234,83.947Z" style="fill:#0082c3;fill-rule:evenodd"/><path d="M73.306,84.558a.333.333,0,0,0-.217.509.409.409,0,0,0,.754-.113C73.861,84.671,73.691,84.483,73.306,84.558Z" style="fill:#0082c3;fill-rule:evenodd"/><path d="M71.491,87.932a.228.228,0,0,0-.147.348.278.278,0,0,0,.513-.078C71.87,88.01,71.754,87.881,71.491,87.932Z" style="fill:#0082c3;fill-rule:evenodd"/><path d="M71.9,91.349a.528.528,0,0,0-.343.806.647.647,0,0,0,1.193-.179C72.782,91.528,72.513,91.23,71.9,91.349Z" style="fill:#0082c3;fill-rule:evenodd"/><path d="M113.868,110.883a.349.349,0,0,0-.227.534.428.428,0,0,0,.79-.118C114.451,111,114.273,110.8,113.868,110.883Z" style="fill:#0082c3;fill-rule:evenodd"/><path d="M275.105,231.5a.35.35,0,0,0,.227-.535.43.43,0,0,0-.792.119C274.521,231.384,274.7,231.581,275.105,231.5Z" style="fill:#0082c3;fill-rule:evenodd"/><path d="M289.06,239.144a.35.35,0,0,0,.228-.534.429.429,0,0,0-.791.118C288.477,239.026,288.655,239.223,289.06,239.144Z" style="fill:#0082c3;fill-rule:evenodd"/><path d="M323.041,230.028a.227.227,0,0,0,.148-.347.279.279,0,0,0-.514.078C322.663,229.951,322.779,230.079,323.041,230.028Z" style="fill:#0082c3;fill-rule:evenodd"/><path d="M354.206,224.971a.348.348,0,0,0,.226-.534.428.428,0,0,0-.79.119C353.623,224.853,353.8,225.051,354.206,224.971Z" style="fill:#0082c3;fill-rule:evenodd"/><path d="M346.892,55.329a.446.446,0,0,0-.289.681.546.546,0,0,0,1.007-.151C347.635,55.481,347.408,55.229,346.892,55.329Z" style="fill:#ee78af;fill-rule:evenodd"/><path d="M336.9,22.243c.521.355,1.01-.344.755-.766C337.1,20.566,336.1,21.7,336.9,22.243Z" style="fill:#ee78af;fill-rule:evenodd"/><path d="M346.284,82a.3.3,0,0,0-.2.465.374.374,0,0,0,.69-.1C346.792,82.107,346.637,81.935,346.284,82Z" style="fill:#ee78af;fill-rule:evenodd"/><path d="M337.738,92.113a.226.226,0,0,0-.148.346.278.278,0,0,0,.513-.077C338.116,92.189,338,92.061,337.738,92.113Z" style="fill:#ee78af;fill-rule:evenodd"/><path d="M352.027,113.906a.227.227,0,0,0-.148.346.278.278,0,0,0,.513-.076C352.406,113.982,352.29,113.854,352.027,113.906Z" style="fill:#ee78af;fill-rule:evenodd"/><path d="M337.072,121.986a.3.3,0,0,0-.2.465.374.374,0,0,0,.69-.1C337.58,122.089,337.424,121.917,337.072,121.986Z" style="fill:#ee78af;fill-rule:evenodd"/><path d="M347.683,182.241a.372.372,0,0,0-.242.568.456.456,0,0,0,.841-.126C348.3,182.367,348.114,182.157,347.683,182.241Z" style="fill:#ee78af;fill-rule:evenodd"/><path d="M322.952,30.225a.228.228,0,0,0-.148.347.279.279,0,0,0,.514-.077C323.331,30.3,323.214,30.175,322.952,30.225Z" style="fill:#ee78af;fill-rule:evenodd"/><path d="M292.239,1.614a.228.228,0,0,0-.148.348.279.279,0,0,0,.514-.077C292.617,1.692,292.5,1.564,292.239,1.614Z" style="fill:#ee78af;fill-rule:evenodd"/><path d="M339.715,165.3a.305.305,0,0,0-.2.466.374.374,0,0,0,.69-.1C340.224,165.4,340.069,165.227,339.715,165.3Z" style="fill:#ee78af;fill-rule:evenodd"/><path d="M308.782,176.276a.371.371,0,0,0-.242.567.456.456,0,0,0,.841-.125C309.4,176.4,309.212,176.192,308.782,176.276Z" style="fill:#ee78af;fill-rule:evenodd"/><path d="M315.867,152.955a.373.373,0,0,0-.242.569.456.456,0,0,0,.841-.127C316.487,153.081,316.3,152.871,315.867,152.955Z" style="fill:#ee78af;fill-rule:evenodd"/><path d="M292.774,135.686a.373.373,0,0,0-.242.569.456.456,0,0,0,.841-.126C293.394,135.813,293.205,135.6,292.774,135.686Z" style="fill:#ee78af;fill-rule:evenodd"/><path d="M278.157,131.75a.463.463,0,0,0-.3.706.566.566,0,0,0,1.044-.156C278.926,131.907,278.691,131.647,278.157,131.75Z" style="fill:#ee78af;fill-rule:evenodd"/><path d="M262.312,150.883a.372.372,0,0,0-.241.568.456.456,0,0,0,.841-.126C262.932,151.009,262.743,150.8,262.312,150.883Z" style="fill:#ee78af;fill-rule:evenodd"/><path d="M292.034,52.481a.7.7,0,0,0-.456,1.072.86.86,0,0,0,1.587-.238C293.2,52.719,292.846,52.322,292.034,52.481Z" style="fill:#ee78af;fill-rule:evenodd"/><path d="M279.446,43.837a.228.228,0,0,0-.148.347.278.278,0,0,0,.513-.076C279.824,43.914,279.708,43.786,279.446,43.837Z" style="fill:#ee78af;fill-rule:evenodd"/><path d="M271.335,157.156a.461.461,0,0,0-.3.7.565.565,0,0,0,1.043-.156C272.105,157.313,271.871,157.051,271.335,157.156Z" style="fill:#ee78af;fill-rule:evenodd"/><path d="M234.952,143.344a.228.228,0,0,0-.148.347.278.278,0,0,0,.513-.077C235.33,143.421,235.214,143.293,234.952,143.344Z" style="fill:#ee78af;fill-rule:evenodd"/><path d="M245.424,135.019a.667.667,0,0,0-.433,1.019.817.817,0,0,0,1.507-.226C246.536,135.245,246.2,134.868,245.424,135.019Z" style="fill:#ee78af;fill-rule:evenodd"/><path d="M244.009,130.316a.294.294,0,0,0-.191.45.361.361,0,0,0,.666-.1C244.5,130.416,244.35,130.25,244.009,130.316Z" style="fill:#ee78af;fill-rule:evenodd"/><path d="M255.023,135.518a.3.3,0,0,0-.191.45.361.361,0,0,0,.666-.1C255.514,135.618,255.365,135.451,255.023,135.518Z" style="fill:#ee78af;fill-rule:evenodd"/><path d="M249.309,126.907a.227.227,0,0,0-.147.347.278.278,0,0,0,.513-.077C249.688,126.984,249.572,126.856,249.309,126.907Z" style="fill:#ee78af;fill-rule:evenodd"/><path d="M232.493,128.235a.3.3,0,0,0-.192.45.361.361,0,0,0,.666-.1C232.984,128.335,232.833,128.169,232.493,128.235Z" style="fill:#ee78af;fill-rule:evenodd"/><path d="M231.452,114.172a.3.3,0,0,0-.192.45.362.362,0,0,0,.667-.1C231.944,114.272,231.793,114.105,231.452,114.172Z" style="fill:#ee78af;fill-rule:evenodd"/><path d="M241.02,105.009a.461.461,0,0,0-.3.7.565.565,0,0,0,1.043-.157C241.79,105.165,241.554,104.905,241.02,105.009Z" style="fill:#ee78af;fill-rule:evenodd"/><path d="M235.164,99.969a.227.227,0,0,0-.148.347.279.279,0,0,0,.514-.077C235.542,100.046,235.426,99.918,235.164,99.969Z" style="fill:#ee78af;fill-rule:evenodd"/><path d="M265.069,55.837a.294.294,0,0,0-.192.45.361.361,0,0,0,.666-.1C265.56,55.937,265.41,55.77,265.069,55.837Z" style="fill:#ee78af;fill-rule:evenodd"/><path d="M253.4,47.257a.227.227,0,0,0-.148.346.279.279,0,0,0,.514-.076C253.78,47.334,253.665,47.205,253.4,47.257Z" style="fill:#ee78af;fill-rule:evenodd"/><path d="M236.851,76.442a.462.462,0,0,0-.3.705.566.566,0,0,0,1.044-.157C237.621,76.6,237.386,76.338,236.851,76.442Z" style="fill:#ee78af;fill-rule:evenodd"/><path d="M229.773,86.445a.323.323,0,0,0-.209.493.4.4,0,0,0,.729-.109C230.311,86.555,230.147,86.373,229.773,86.445Z" style="fill:#ee78af;fill-rule:evenodd"/><path d="M213.551,102.435a.322.322,0,0,0-.21.492.4.4,0,0,0,.73-.109C214.088,102.544,213.924,102.362,213.551,102.435Z" style="fill:#ee78af;fill-rule:evenodd"/><path d="M158.354,146.747a.349.349,0,0,0-.227.534.429.429,0,0,0,.791-.118C158.937,146.865,158.759,146.668,158.354,146.747Z" style="fill:#ee78af;fill-rule:evenodd"/><path d="M169.089,133.434a.228.228,0,0,0-.148.347.279.279,0,0,0,.514-.077C169.468,133.511,169.352,133.383,169.089,133.434Z" style="fill:#ee78af;fill-rule:evenodd"/><path d="M198.22,132.681a.226.226,0,0,0-.146.347.277.277,0,0,0,.512-.078C198.6,132.758,198.484,132.63,198.22,132.681Z" style="fill:#ee78af;fill-rule:evenodd"/><path d="M181.268,125.386a.462.462,0,0,0-.3.7.566.566,0,0,0,1.044-.156C182.038,125.543,181.8,125.282,181.268,125.386Z" style="fill:#ee78af;fill-rule:evenodd"/><path d="M197.363,67.571a.333.333,0,0,0-.217.509.409.409,0,0,0,.754-.113C197.918,67.684,197.748,67.5,197.363,67.571Z" style="fill:#ee78af;fill-rule:evenodd"/><path d="M205.263,79.265a.227.227,0,0,0-.147.347.277.277,0,0,0,.512-.077C205.641,79.342,205.526,79.214,205.263,79.265Z" style="fill:#ee78af;fill-rule:evenodd"/><path d="M169.074,63.176a.334.334,0,0,0-.217.509.409.409,0,0,0,.754-.113C169.63,63.289,169.46,63.1,169.074,63.176Z" style="fill:#ee78af;fill-rule:evenodd"/><path d="M163.834,39.7a.228.228,0,0,0-.148.347.279.279,0,0,0,.514-.077C164.212,39.774,164.1,39.646,163.834,39.7Z" style="fill:#ee78af;fill-rule:evenodd"/><path d="M195.337,27.537a.356.356,0,0,0-.23.544.436.436,0,0,0,.8-.12C195.931,27.658,195.749,27.457,195.337,27.537Z" style="fill:#ee78af;fill-rule:evenodd"/><path d="M169.441,21.733a.356.356,0,0,0-.231.544.437.437,0,0,0,.8-.121C170.034,21.854,169.853,21.653,169.441,21.733Z" style="fill:#ee78af;fill-rule:evenodd"/><path d="M135.482,15.087a.227.227,0,0,0-.148.347.278.278,0,0,0,.513-.077C135.86,15.164,135.745,15.036,135.482,15.087Z" style="fill:#ee78af;fill-rule:evenodd"/><path d="M138.7,27.58a.356.356,0,0,0-.231.544.436.436,0,0,0,.8-.121C139.289,27.7,139.108,27.5,138.7,27.58Z" style="fill:#ee78af;fill-rule:evenodd"/><path d="M33.332,200.152a.226.226,0,0,0-.147.346.279.279,0,0,0,.514-.076C33.711,200.228,33.6,200.1,33.332,200.152Z" style="fill:#ee78af;fill-rule:evenodd"/><path d="M20.489,211.9a.521.521,0,0,0-.338.8.639.639,0,0,0,1.178-.177C21.358,212.075,21.093,211.781,20.489,211.9Z" style="fill:#ee78af;fill-rule:evenodd"/><path d="M24.466,174.911a.35.35,0,0,0-.227.535.429.429,0,0,0,.791-.119C25.05,175.03,24.872,174.833,24.466,174.911Z" style="fill:#ee78af;fill-rule:evenodd"/><path d="M62.531,174.8a.35.35,0,0,0-.227.535.428.428,0,0,0,.79-.119C63.114,174.923,62.936,174.724,62.531,174.8Z" style="fill:#ee78af;fill-rule:evenodd"/><path d="M66.92,159.65a.227.227,0,0,0-.148.346.279.279,0,0,0,.514-.076C67.3,159.727,67.183,159.6,66.92,159.65Z" style="fill:#ee78af;fill-rule:evenodd"/><path d="M86.311,147.793a.226.226,0,0,0-.147.346.278.278,0,0,0,.513-.076C86.69,147.87,86.574,147.741,86.311,147.793Z" style="fill:#ee78af;fill-rule:evenodd"/><path d="M119.46,43.852a.356.356,0,0,0-.231.543.436.436,0,0,0,.8-.12C120.053,43.972,119.872,43.772,119.46,43.852Z" style="fill:#ee78af;fill-rule:evenodd"/><path d="M124.008,65.957a.334.334,0,0,0-.217.51.409.409,0,0,0,.754-.113C124.564,66.071,124.394,65.882,124.008,65.957Z" style="fill:#ee78af;fill-rule:evenodd"/><path d="M147.249,112.507a.349.349,0,0,0-.227.534.428.428,0,0,0,.79-.118C147.832,112.626,147.654,112.428,147.249,112.507Z" style="fill:#ee78af;fill-rule:evenodd"/><path d="M161.229,99.824a.469.469,0,0,0-.3.716.575.575,0,0,0,1.06-.158C162.011,99.984,161.773,99.718,161.229,99.824Z" style="fill:#ee78af;fill-rule:evenodd"/><path d="M51.041,136.205a.227.227,0,0,0-.147.347.278.278,0,0,0,.513-.077C51.42,136.282,51.3,136.154,51.041,136.205Z" style="fill:#ee78af;fill-rule:evenodd"/><path d="M32.135,151.954a.228.228,0,0,0-.148.347.278.278,0,0,0,.513-.077C32.513,152.031,32.4,151.9,32.135,151.954Z" style="fill:#ee78af;fill-rule:evenodd"/><path d="M19.668,113.083a.228.228,0,0,0-.148.347.279.279,0,0,0,.514-.077C20.046,113.16,19.931,113.031,19.668,113.083Z" style="fill:#ee78af;fill-rule:evenodd"/><path d="M88.308,15.5a.228.228,0,0,0-.148.347.278.278,0,0,0,.513-.077C88.686,15.577,88.571,15.449,88.308,15.5Z" style="fill:#ee78af;fill-rule:evenodd"/><path d="M64.185,28.136a.356.356,0,0,0-.231.544.435.435,0,0,0,.8-.121C64.777,28.257,64.6,28.056,64.185,28.136Z" style="fill:#ee78af;fill-rule:evenodd"/><path d="M89.276,53.027a.228.228,0,0,0-.148.347.279.279,0,0,0,.514-.077C89.655,53.1,89.539,52.976,89.276,53.027Z" style="fill:#ee78af;fill-rule:evenodd"/><path d="M96.182,75.324a.227.227,0,0,0-.147.347.278.278,0,0,0,.513-.077C96.561,75.4,96.445,75.273,96.182,75.324Z" style="fill:#ee78af;fill-rule:evenodd"/><path d="M104.177,76.037a.333.333,0,0,0-.217.509.409.409,0,0,0,.754-.112C104.733,76.151,104.563,75.962,104.177,76.037Z" style="fill:#ee78af;fill-rule:evenodd"/><path d="M103.89,86.871a.334.334,0,0,0-.217.51.409.409,0,0,0,.754-.113C104.445,86.985,104.276,86.8,103.89,86.871Z" style="fill:#ee78af;fill-rule:evenodd"/><path d="M66.274,79.1a.334.334,0,0,0-.217.51.409.409,0,0,0,.754-.113C66.83,79.218,66.66,79.03,66.274,79.1Z" style="fill:#ee78af;fill-rule:evenodd"/><path d="M68.78,73.553a.227.227,0,0,0-.147.347.278.278,0,0,0,.513-.077C69.159,73.63,69.043,73.5,68.78,73.553Z" style="fill:#ee78af;fill-rule:evenodd"/><path d="M64.654,53.8a.392.392,0,0,0-.255.6.48.48,0,0,0,.886-.133C65.307,53.937,65.108,53.716,64.654,53.8Z" style="fill:#ee78af;fill-rule:evenodd"/><path d="M53.3,60.028a.342.342,0,0,0-.223.522.419.419,0,0,0,.773-.116C53.871,60.143,53.7,59.95,53.3,60.028Z" style="fill:#ee78af;fill-rule:evenodd"/><path d="M73.041,104.957a.227.227,0,0,0-.147.347.278.278,0,0,0,.513-.077C73.42,105.034,73.3,104.906,73.041,104.957Z" style="fill:#ee78af;fill-rule:evenodd"/><path d="M86.387,118.3a.227.227,0,0,0-.147.347.278.278,0,0,0,.513-.077C86.766,118.38,86.65,118.252,86.387,118.3Z" style="fill:#ee78af;fill-rule:evenodd"/><path d="M96.791,127.739a.227.227,0,0,0-.147.347.278.278,0,0,0,.513-.077C97.17,127.816,97.054,127.687,96.791,127.739Z" style="fill:#ee78af;fill-rule:evenodd"/><path d="M122.172,107.207a.322.322,0,0,0-.209.492.4.4,0,0,0,.729-.109C122.71,107.316,122.546,107.134,122.172,107.207Z" style="fill:#ee78af;fill-rule:evenodd"/><path d="M118.811,105.547a.227.227,0,0,0-.147.347.278.278,0,0,0,.513-.077C119.19,105.624,119.074,105.5,118.811,105.547Z" style="fill:#ee78af;fill-rule:evenodd"/><path d="M110.728,107.458a.322.322,0,0,0-.209.492.4.4,0,0,0,.729-.108C111.266,107.567,111.1,107.385,110.728,107.458Z" style="fill:#ee78af;fill-rule:evenodd"/><path d="M115.824,119.792a.228.228,0,0,0-.148.347.278.278,0,0,0,.513-.077C116.2,119.869,116.087,119.74,115.824,119.792Z" style="fill:#ee78af;fill-rule:evenodd"/><path d="M137.96,61.637a.228.228,0,0,0-.148.347.279.279,0,0,0,.514-.077C138.338,61.714,138.223,61.586,137.96,61.637Z" style="fill:#ee78af;fill-rule:evenodd"/><path d="M235.607,235.32a.227.227,0,0,0,.147-.347.277.277,0,0,0-.512.077C235.229,235.243,235.344,235.371,235.607,235.32Z" style="fill:#ee78af;fill-rule:evenodd"/><path d="M257.657,231.374a.227.227,0,0,0,.147-.347.279.279,0,0,0-.514.076C257.278,231.3,257.393,231.425,257.657,231.374Z" style="fill:#ee78af;fill-rule:evenodd"/><path d="M277.974,227.915a.35.35,0,0,0,.228-.534.429.429,0,0,0-.791.118C277.391,227.8,277.569,227.994,277.974,227.915Z" style="fill:#ee78af;fill-rule:evenodd"/><path d="M304.5,221.969a.227.227,0,0,0,.147-.347.279.279,0,0,0-.514.076C304.119,221.892,304.234,222.02,304.5,221.969Z" style="fill:#ee78af;fill-rule:evenodd"/><path d="M325,221.29a.349.349,0,0,0,.227-.534.429.429,0,0,0-.791.119C324.412,221.172,324.589,221.369,325,221.29Z" style="fill:#ee78af;fill-rule:evenodd"/><path d="M354.8,62.07a.3.3,0,0,0-.2.465.374.374,0,0,0,.69-.1C355.3,62.173,355.149,62,354.8,62.07Z" style="fill:#25baaa;fill-rule:evenodd"/><path d="M333.5,42.229a.227.227,0,0,0-.147.347.278.278,0,0,0,.513-.077C333.879,42.306,333.764,42.178,333.5,42.229Z" style="fill:#25baaa;fill-rule:evenodd"/><path d="M334.61,76.939a.228.228,0,0,0-.148.347.279.279,0,0,0,.514-.077C334.989,77.016,334.873,76.888,334.61,76.939Z" style="fill:#25baaa;fill-rule:evenodd"/><path d="M346.644,194.866a.509.509,0,0,0-.33.778.623.623,0,0,0,1.15-.173C347.494,195.039,347.234,194.751,346.644,194.866Z" style="fill:#25baaa;fill-rule:evenodd"/><path d="M325.939,22.921a.357.357,0,0,0-.232.544.437.437,0,0,0,.805-.121C326.532,23.042,326.351,22.841,325.939,22.921Z" style="fill:#25baaa;fill-rule:evenodd"/><path d="M349.033,1.112a.356.356,0,0,0-.231.544.436.436,0,0,0,.8-.121C349.625,1.233,349.445,1.031,349.033,1.112Z" style="fill:#25baaa;fill-rule:evenodd"/><path d="M331.323,5.705a.356.356,0,0,0-.232.543.436.436,0,0,0,.8-.12C331.915,5.826,331.735,5.625,331.323,5.705Z" style="fill:#25baaa;fill-rule:evenodd"/><path d="M319.665,189.272a.373.373,0,0,0-.241.569.456.456,0,0,0,.841-.126C320.286,189.4,320.1,189.188,319.665,189.272Z" style="fill:#25baaa;fill-rule:evenodd"/><path d="M308.746,197.694a.372.372,0,0,0-.242.568.456.456,0,0,0,.841-.127C309.366,197.82,309.177,197.61,308.746,197.694Z" style="fill:#25baaa;fill-rule:evenodd"/><path d="M293.5,192.958a.372.372,0,0,0-.241.568.456.456,0,0,0,.841-.126C294.119,193.084,293.929,192.874,293.5,192.958Z" style="fill:#25baaa;fill-rule:evenodd"/><path d="M298.506,182.1a.227.227,0,0,0-.147.347.279.279,0,0,0,.514-.077C298.885,182.173,298.769,182.045,298.506,182.1Z" style="fill:#25baaa;fill-rule:evenodd"/><path d="M284.981,190.707a.227.227,0,0,0-.148.346.278.278,0,0,0,.514-.077C285.36,190.783,285.244,190.656,284.981,190.707Z" style="fill:#25baaa;fill-rule:evenodd"/><path d="M314,216.276a.227.227,0,0,0-.147.347.279.279,0,0,0,.514-.077C314.377,216.353,314.261,216.225,314,216.276Z" style="fill:#25baaa;fill-rule:evenodd"/><path d="M279.874,173.4a.372.372,0,0,0-.241.568.455.455,0,0,0,.84-.126C280.5,173.522,280.305,173.312,279.874,173.4Z" style="fill:#25baaa;fill-rule:evenodd"/><path d="M304.377,164.606a.372.372,0,0,0-.241.568.456.456,0,0,0,.841-.126C305,164.733,304.808,164.523,304.377,164.606Z" style="fill:#25baaa;fill-rule:evenodd"/><path d="M275.776,192.58a.372.372,0,0,0-.242.568.455.455,0,0,0,.84-.125C276.4,192.707,276.207,192.5,275.776,192.58Z" style="fill:#25baaa;fill-rule:evenodd"/><path d="M264.144,195.058a.372.372,0,0,0-.241.568.455.455,0,0,0,.84-.125C264.764,195.184,264.575,194.974,264.144,195.058Z" style="fill:#25baaa;fill-rule:evenodd"/><path d="M275.7,183.358a.477.477,0,0,0-.31.728.584.584,0,0,0,1.077-.162C276.494,183.519,276.25,183.25,275.7,183.358Z" style="fill:#25baaa;fill-rule:evenodd"/><path d="M308.054,132.066a.372.372,0,0,0-.241.568.456.456,0,0,0,.841-.126C308.674,132.193,308.485,131.982,308.054,132.066Z" style="fill:#25baaa;fill-rule:evenodd"/><path d="M294.2,117.76a.372.372,0,0,0-.241.568.455.455,0,0,0,.84-.126C294.817,117.886,294.627,117.676,294.2,117.76Z" style="fill:#25baaa;fill-rule:evenodd"/><path d="M275.9,108.9a.372.372,0,0,0-.242.568.455.455,0,0,0,.84-.126C276.52,109.025,276.331,108.815,275.9,108.9Z" style="fill:#25baaa;fill-rule:evenodd"/><path d="M277.645,123.576a.227.227,0,0,0-.147.347.278.278,0,0,0,.513-.077C278.024,123.653,277.908,123.525,277.645,123.576Z" style="fill:#25baaa;fill-rule:evenodd"/><path d="M262.227,120.407a.372.372,0,0,0-.241.568.456.456,0,0,0,.841-.126C262.847,120.533,262.658,120.323,262.227,120.407Z" style="fill:#25baaa;fill-rule:evenodd"/><path d="M267.425,140.59a.667.667,0,0,0-.432,1.019.817.817,0,0,0,1.507-.226C268.538,140.816,268.2,140.439,267.425,140.59Z" style="fill:#25baaa;fill-rule:evenodd"/><path d="M320.969,93.66a.373.373,0,0,0-.241.569.456.456,0,0,0,.841-.126C321.589,93.787,321.4,93.577,320.969,93.66Z" style="fill:#25baaa;fill-rule:evenodd"/><path d="M276.629,155.5a.227.227,0,0,0-.147.347.279.279,0,0,0,.514-.077C277.008,155.578,276.892,155.45,276.629,155.5Z" style="fill:#25baaa;fill-rule:evenodd"/><path d="M266.25,165.337a.226.226,0,0,0-.147.346.279.279,0,0,0,.514-.077C266.629,165.414,266.513,165.285,266.25,165.337Z" style="fill:#25baaa;fill-rule:evenodd"/><path d="M262.115,176.7a.372.372,0,0,0-.242.568.455.455,0,0,0,.84-.126C262.734,176.822,262.545,176.611,262.115,176.7Z" style="fill:#25baaa;fill-rule:evenodd"/><path d="M245.094,174.264a.227.227,0,0,0-.147.347.278.278,0,0,0,.513-.077C245.473,174.342,245.357,174.213,245.094,174.264Z" style="fill:#25baaa;fill-rule:evenodd"/><path d="M249.916,167.188a.372.372,0,0,0-.241.568.455.455,0,0,0,.84-.126C250.537,167.314,250.347,167.1,249.916,167.188Z" style="fill:#25baaa;fill-rule:evenodd"/><path d="M257.343,154.537a.462.462,0,0,0-.3.7.566.566,0,0,0,1.044-.156C258.113,154.694,257.878,154.433,257.343,154.537Z" style="fill:#25baaa;fill-rule:evenodd"/><path d="M252.357,146.823a.462.462,0,0,0-.3.706.566.566,0,0,0,1.044-.157C253.126,146.98,252.891,146.719,252.357,146.823Z" style="fill:#25baaa;fill-rule:evenodd"/><path d="M237.181,142.411a.462.462,0,0,0-.3.705.566.566,0,0,0,1.044-.156C237.951,142.568,237.716,142.307,237.181,142.411Z" style="fill:#25baaa;fill-rule:evenodd"/><path d="M251.747,196.858a.372.372,0,0,0-.242.568.456.456,0,0,0,.84-.126C252.367,196.984,252.177,196.774,251.747,196.858Z" style="fill:#25baaa;fill-rule:evenodd"/><path d="M232.14,193.248a.349.349,0,0,0-.227.534.429.429,0,0,0,.791-.118C232.723,193.367,232.545,193.169,232.14,193.248Z" style="fill:#25baaa;fill-rule:evenodd"/><path d="M217.961,209.679a.227.227,0,0,0-.147.347.278.278,0,0,0,.513-.077C218.34,209.756,218.224,209.628,217.961,209.679Z" style="fill:#25baaa;fill-rule:evenodd"/><path d="M216.8,163.887a.372.372,0,0,0-.242.568.456.456,0,0,0,.841-.126C217.423,164.013,217.234,163.8,216.8,163.887Z" style="fill:#25baaa;fill-rule:evenodd"/><path d="M202.556,139.736a.372.372,0,0,0-.241.568.456.456,0,0,0,.841-.126C203.176,139.862,202.988,139.652,202.556,139.736Z" style="fill:#25baaa;fill-rule:evenodd"/><path d="M241.2,136.383a.461.461,0,0,0-.3.7.566.566,0,0,0,1.043-.156C241.969,136.54,241.734,136.279,241.2,136.383Z" style="fill:#25baaa;fill-rule:evenodd"/><path d="M253.506,123.642a.227.227,0,0,0-.147.347.279.279,0,0,0,.514-.077C253.885,123.719,253.769,123.591,253.506,123.642Z" style="fill:#25baaa;fill-rule:evenodd"/><path d="M251.39,131.786a.227.227,0,0,0-.147.347.277.277,0,0,0,.512-.077C251.769,131.864,251.653,131.735,251.39,131.786Z" style="fill:#25baaa;fill-rule:evenodd"/><path d="M237.013,121.885a.294.294,0,0,0-.191.45.361.361,0,0,0,.666-.1C237.5,121.985,237.354,121.819,237.013,121.885Z" style="fill:#25baaa;fill-rule:evenodd"/><path d="M248.105,119.844a.462.462,0,0,0-.3.705.566.566,0,0,0,1.044-.156C248.874,120,248.64,119.74,248.105,119.844Z" style="fill:#25baaa;fill-rule:evenodd"/><path d="M221.251,126.858a.461.461,0,0,0-.3.7.566.566,0,0,0,1.044-.157C222.021,127.014,221.787,126.754,221.251,126.858Z" style="fill:#25baaa;fill-rule:evenodd"/><path d="M238.215,104.682a.3.3,0,0,0-.191.451.361.361,0,0,0,.666-.1C238.707,104.782,238.556,104.615,238.215,104.682Z" style="fill:#25baaa;fill-rule:evenodd"/><path d="M266.63,84.544a.461.461,0,0,0-.3.7.565.565,0,0,0,1.043-.156C267.4,84.7,267.165,84.44,266.63,84.544Z" style="fill:#25baaa;fill-rule:evenodd"/><path d="M257.99,74.872a.462.462,0,0,0-.3.706.565.565,0,0,0,1.043-.156C258.759,75.03,258.524,74.768,257.99,74.872Z" style="fill:#25baaa;fill-rule:evenodd"/><path d="M244.231,66.747a.461.461,0,0,0-.3.7.565.565,0,0,0,1.043-.155C245,66.9,244.765,66.642,244.231,66.747Z" style="fill:#25baaa;fill-rule:evenodd"/><path d="M226.79,100.354a.322.322,0,0,0-.21.492.4.4,0,0,0,.729-.108C227.327,100.463,227.163,100.281,226.79,100.354Z" style="fill:#25baaa;fill-rule:evenodd"/><path d="M217.348,96.446a.323.323,0,0,0-.21.493.4.4,0,0,0,.73-.109C217.886,96.556,217.721,96.374,217.348,96.446Z" style="fill:#25baaa;fill-rule:evenodd"/><path d="M211.29,102.39a.227.227,0,0,0-.147.347.279.279,0,0,0,.514-.077C211.669,102.467,211.553,102.339,211.29,102.39Z" style="fill:#25baaa;fill-rule:evenodd"/><path d="M221.981,87.351a.228.228,0,0,0-.148.347.279.279,0,0,0,.514-.077C222.36,87.428,222.245,87.3,221.981,87.351Z" style="fill:#25baaa;fill-rule:evenodd"/><path d="M185.466,109.979a.225.225,0,0,0-.146.346.277.277,0,0,0,.512-.076C185.845,110.056,185.73,109.927,185.466,109.979Z" style="fill:#25baaa;fill-rule:evenodd"/><path d="M159.289,208.135a.227.227,0,0,0-.148.347.278.278,0,0,0,.513-.077C159.667,208.212,159.552,208.084,159.289,208.135Z" style="fill:#25baaa;fill-rule:evenodd"/><path d="M179.823,164.088a.35.35,0,0,0-.228.534.429.429,0,0,0,.791-.118C180.406,164.207,180.227,164.009,179.823,164.088Z" style="fill:#25baaa;fill-rule:evenodd"/><path d="M167.207,176.845a.227.227,0,0,0-.148.347.278.278,0,0,0,.513-.077C167.584,176.922,167.469,176.794,167.207,176.845Z" style="fill:#25baaa;fill-rule:evenodd"/><path d="M163.786,183.6a.349.349,0,0,0-.227.534.428.428,0,0,0,.79-.118C164.369,183.723,164.191,183.525,163.786,183.6Z" style="fill:#25baaa;fill-rule:evenodd"/><path d="M159.445,169.146a.351.351,0,0,0-.228.535.429.429,0,0,0,.791-.119C160.028,169.265,159.85,169.067,159.445,169.146Z" style="fill:#25baaa;fill-rule:evenodd"/><path d="M167.815,160.3a.668.668,0,0,0-.433,1.02.818.818,0,0,0,1.508-.226C168.927,160.528,168.587,160.151,167.815,160.3Z" style="fill:#25baaa;fill-rule:evenodd"/><path d="M146.659,178.293a.521.521,0,0,0-.338.8.638.638,0,0,0,1.177-.177C147.528,178.47,147.263,178.175,146.659,178.293Z" style="fill:#25baaa;fill-rule:evenodd"/><path d="M152.715,174.476a.228.228,0,0,0-.148.347.279.279,0,0,0,.514-.077C153.094,174.553,152.978,174.425,152.715,174.476Z" style="fill:#25baaa;fill-rule:evenodd"/><path d="M173.49,133.736a.349.349,0,0,0-.227.534.428.428,0,0,0,.79-.118C174.073,133.855,173.9,133.657,173.49,133.736Z" style="fill:#25baaa;fill-rule:evenodd"/><path d="M162.883,136.2a.227.227,0,0,0-.148.347.278.278,0,0,0,.513-.077C163.261,136.274,163.145,136.146,162.883,136.2Z" style="fill:#25baaa;fill-rule:evenodd"/><path d="M197.026,120.6a.227.227,0,0,0-.148.347.279.279,0,0,0,.514-.077C197.405,120.673,197.29,120.545,197.026,120.6Z" style="fill:#25baaa;fill-rule:evenodd"/><path d="M185.2,133.326a.228.228,0,0,0-.148.348.278.278,0,0,0,.513-.077C185.576,133.4,185.46,133.275,185.2,133.326Z" style="fill:#25baaa;fill-rule:evenodd"/><path d="M224.83,56.487a.528.528,0,0,0-.343.806.647.647,0,0,0,1.193-.179C225.709,56.666,225.441,56.367,224.83,56.487Z" style="fill:#25baaa;fill-rule:evenodd"/><path d="M178.715,11.6a.355.355,0,0,0-.23.543.436.436,0,0,0,.8-.12C179.308,11.718,179.127,11.518,178.715,11.6Z" style="fill:#25baaa;fill-rule:evenodd"/><path d="M153.707,6.944a.226.226,0,0,0-.147.346.278.278,0,0,0,.513-.077C154.085,7.021,153.97,6.892,153.707,6.944Z" style="fill:#25baaa;fill-rule:evenodd"/><path d="M139.712,9.724a.356.356,0,0,0-.231.544.436.436,0,0,0,.8-.121C140.305,9.845,140.124,9.644,139.712,9.724Z" style="fill:#25baaa;fill-rule:evenodd"/><path d="M142.873,196.276a.349.349,0,0,0-.227.534.428.428,0,0,0,.79-.118C143.456,196.4,143.278,196.2,142.873,196.276Z" style="fill:#25baaa;fill-rule:evenodd"/><path d="M121.905,200.422a.227.227,0,0,0-.147.347.278.278,0,0,0,.513-.076C122.284,200.5,122.168,200.371,121.905,200.422Z" style="fill:#25baaa;fill-rule:evenodd"/><path d="M104.8,197.316a.349.349,0,0,0-.227.534.428.428,0,0,0,.79-.118C105.378,197.434,105.2,197.237,104.8,197.316Z" style="fill:#25baaa;fill-rule:evenodd"/><path d="M113.477,190.392a.35.35,0,0,0-.228.534.429.429,0,0,0,.791-.119C114.06,190.51,113.882,190.313,113.477,190.392Z" style="fill:#25baaa;fill-rule:evenodd"/><path d="M58.592,180.527a.349.349,0,0,0-.227.534.428.428,0,0,0,.79-.118C59.175,180.646,59,180.448,58.592,180.527Z" style="fill:#25baaa;fill-rule:evenodd"/><path d="M64.552,175.148a.227.227,0,0,0-.147.347.278.278,0,0,0,.513-.077C64.931,175.225,64.815,175.1,64.552,175.148Z" style="fill:#25baaa;fill-rule:evenodd"/><path d="M81.9,164.041a.35.35,0,0,0-.227.534.429.429,0,0,0,.791-.118C82.487,164.159,82.31,163.962,81.9,164.041Z" style="fill:#25baaa;fill-rule:evenodd"/><path d="M81.815,154.388a.351.351,0,0,0-.228.535.429.429,0,0,0,.791-.119C82.4,154.507,82.22,154.309,81.815,154.388Z" style="fill:#25baaa;fill-rule:evenodd"/><path d="M127.029,47.09a.356.356,0,0,0-.231.544.436.436,0,0,0,.8-.121C127.622,47.211,127.441,47.01,127.029,47.09Z" style="fill:#25baaa;fill-rule:evenodd"/><path d="M150.474,75.3a.227.227,0,0,0-.147.347.278.278,0,0,0,.513-.077C150.852,75.379,150.737,75.251,150.474,75.3Z" style="fill:#25baaa;fill-rule:evenodd"/><path d="M118.8,79.7a.228.228,0,0,0-.148.348.279.279,0,0,0,.514-.077C119.175,79.779,119.06,79.651,118.8,79.7Z" style="fill:#25baaa;fill-rule:evenodd"/><path d="M119.191,85.011a.228.228,0,0,0-.147.348.278.278,0,0,0,.513-.078C119.57,85.089,119.455,84.96,119.191,85.011Z" style="fill:#25baaa;fill-rule:evenodd"/><path d="M118.2,69.011a.227.227,0,0,0-.148.347.278.278,0,0,0,.513-.077C118.58,69.088,118.465,68.959,118.2,69.011Z" style="fill:#25baaa;fill-rule:evenodd"/><path d="M111.564,71.271a.227.227,0,0,0-.147.347.278.278,0,0,0,.513-.077C111.943,71.348,111.828,71.22,111.564,71.271Z" style="fill:#25baaa;fill-rule:evenodd"/><path d="M117.7,63.773a.227.227,0,0,0-.148.347.278.278,0,0,0,.513-.077C118.078,63.85,117.962,63.721,117.7,63.773Z" style="fill:#25baaa;fill-rule:evenodd"/><path d="M38.354,47.366a.356.356,0,0,0-.231.543.436.436,0,0,0,.8-.12C38.947,47.487,38.766,47.286,38.354,47.366Z" style="fill:#25baaa;fill-rule:evenodd"/><path d="M39.839,51.986a.227.227,0,0,0-.147.347.278.278,0,0,0,.513-.077C40.218,52.063,40.1,51.935,39.839,51.986Z" style="fill:#25baaa;fill-rule:evenodd"/><path d="M79.217,28.424a.356.356,0,0,0-.232.543.436.436,0,0,0,.805-.121C79.81,28.545,79.628,28.343,79.217,28.424Z" style="fill:#25baaa;fill-rule:evenodd"/><path d="M13.859,57.885a.355.355,0,0,0-.231.542.436.436,0,0,0,.8-.12C14.452,58.005,14.271,57.8,13.859,57.885Z" style="fill:#25baaa;fill-rule:evenodd"/><path d="M102.913,21.877a.355.355,0,0,0-.231.543.435.435,0,0,0,.8-.12C103.505,22,103.324,21.8,102.913,21.877Z" style="fill:#25baaa;fill-rule:evenodd"/><path d="M99.052,11.249a.227.227,0,0,0-.147.347.278.278,0,0,0,.513-.077C99.431,11.326,99.315,11.2,99.052,11.249Z" style="fill:#25baaa;fill-rule:evenodd"/><path d="M115.211,54.839a.356.356,0,0,0-.231.544.436.436,0,0,0,.8-.121C115.805,54.96,115.623,54.759,115.211,54.839Z" style="fill:#25baaa;fill-rule:evenodd"/><path d="M84.4,53.458a.227.227,0,0,0-.148.346.278.278,0,0,0,.514-.077C84.775,53.534,84.66,53.406,84.4,53.458Z" style="fill:#25baaa;fill-rule:evenodd"/><path d="M111.89,85.76a.333.333,0,0,0-.217.509.409.409,0,0,0,.754-.113C112.446,85.873,112.276,85.684,111.89,85.76Z" style="fill:#25baaa;fill-rule:evenodd"/><path d="M106.883,80.244a.227.227,0,0,0-.147.347.278.278,0,0,0,.513-.077C107.262,80.321,107.146,80.193,106.883,80.244Z" style="fill:#25baaa;fill-rule:evenodd"/><path d="M110.484,93.994a.35.35,0,0,0-.227.534.429.429,0,0,0,.791-.118C111.068,94.113,110.89,93.915,110.484,93.994Z" style="fill:#25baaa;fill-rule:evenodd"/><path d="M90.517,96.975a.227.227,0,0,0-.147.347.278.278,0,0,0,.513-.077C90.9,97.052,90.78,96.924,90.517,96.975Z" style="fill:#25baaa;fill-rule:evenodd"/><path d="M80.64,101.888a.227.227,0,0,0-.147.347.277.277,0,0,0,.512-.077C81.018,101.965,80.9,101.837,80.64,101.888Z" style="fill:#25baaa;fill-rule:evenodd"/><path d="M64.019,93.1a.227.227,0,0,0-.147.347.278.278,0,0,0,.513-.077C64.4,93.177,64.282,93.049,64.019,93.1Z" style="fill:#25baaa;fill-rule:evenodd"/><path d="M42.816,93.585a.227.227,0,0,0-.148.347.279.279,0,0,0,.514-.077C43.194,93.662,43.079,93.533,42.816,93.585Z" style="fill:#25baaa;fill-rule:evenodd"/><path d="M33.98,91.3a.527.527,0,0,0-.342.806.647.647,0,0,0,1.193-.179C34.86,91.474,34.592,91.176,33.98,91.3Z" style="fill:#25baaa;fill-rule:evenodd"/><path d="M62.644,58.683a.392.392,0,0,0-.254.6.48.48,0,0,0,.886-.133C63.3,58.816,63.1,58.6,62.644,58.683Z" style="fill:#25baaa;fill-rule:evenodd"/><path d="M44.685,60.076a.228.228,0,0,0-.147.348.278.278,0,0,0,.513-.078C45.063,60.154,44.948,60.025,44.685,60.076Z" style="fill:#25baaa;fill-rule:evenodd"/><path d="M66.332,103.773a.227.227,0,0,0-.147.347.279.279,0,0,0,.514-.076C66.711,103.85,66.6,103.722,66.332,103.773Z" style="fill:#25baaa;fill-rule:evenodd"/><path d="M136.058,55.9a.227.227,0,0,0-.147.347.278.278,0,0,0,.513-.077C136.436,55.974,136.321,55.846,136.058,55.9Z" style="fill:#25baaa;fill-rule:evenodd"/><path d="M193.281,68.992a.227.227,0,0,0-.148.347.278.278,0,0,0,.513-.077C193.66,69.069,193.543,68.941,193.281,68.992Z" style="fill:#25baaa;fill-rule:evenodd"/><path d="M144.5,232.01a.35.35,0,0,0,.227-.535.429.429,0,0,0-.791.119C143.921,231.891,144.1,232.089,144.5,232.01Z" style="fill:#25baaa;fill-rule:evenodd"/><path d="M170.538,239.433a.35.35,0,0,0,.227-.534.429.429,0,0,0-.791.118C169.955,239.314,170.132,239.511,170.538,239.433Z" style="fill:#25baaa;fill-rule:evenodd"/><path d="M176.275,221.245a.227.227,0,0,0,.147-.347.278.278,0,0,0-.513.077C175.9,221.168,176.012,221.3,176.275,221.245Z" style="fill:#25baaa;fill-rule:evenodd"/><path d="M194.013,227.67a.35.35,0,0,0,.227-.534.429.429,0,0,0-.791.118C193.429,227.551,193.608,227.749,194.013,227.67Z" style="fill:#25baaa;fill-rule:evenodd"/><path d="M211.251,223.132a.35.35,0,0,0,.227-.535.429.429,0,0,0-.791.119C210.667,223.013,210.846,223.211,211.251,223.132Z" style="fill:#25baaa;fill-rule:evenodd"/><path d="M235.816,227.163a.522.522,0,0,0,.338-.8.639.639,0,0,0-1.178.177C234.947,226.986,235.211,227.28,235.816,227.163Z" style="fill:#25baaa;fill-rule:evenodd"/><path d="M247.359,220.129a.349.349,0,0,0,.226-.534.429.429,0,0,0-.791.118C246.775,220.01,246.954,220.208,247.359,220.129Z" style="fill:#25baaa;fill-rule:evenodd"/><path d="M259.864,237.162a.35.35,0,0,0,.226-.535.428.428,0,0,0-.79.119C259.281,237.043,259.458,237.24,259.864,237.162Z" style="fill:#25baaa;fill-rule:evenodd"/><path d="M244.741,237.8a.228.228,0,0,0,.147-.348.279.279,0,0,0-.514.077C244.362,237.718,244.478,237.846,244.741,237.8Z" style="fill:#25baaa;fill-rule:evenodd"/><path d="M273.944,220.216a.227.227,0,0,0,.147-.347.277.277,0,0,0-.512.077C273.566,220.139,273.681,220.267,273.944,220.216Z" style="fill:#25baaa;fill-rule:evenodd"/><path d="M282.076,213.657a.349.349,0,0,0,.227-.534.429.429,0,0,0-.791.118C281.493,213.538,281.67,213.737,282.076,213.657Z" style="fill:#25baaa;fill-rule:evenodd"/><path d="M311.856,232.383a.521.521,0,0,0,.338-.8.639.639,0,0,0-1.178.176C310.987,232.206,311.252,232.5,311.856,232.383Z" style="fill:#25baaa;fill-rule:evenodd"/><path d="M347.506,220.449a.228.228,0,0,0,.148-.347.279.279,0,0,0-.514.077C347.127,220.372,347.244,220.5,347.506,220.449Z" style="fill:#25baaa;fill-rule:evenodd"/><path d="M349.52,238.686a.35.35,0,0,0,.227-.534.428.428,0,0,0-.79.118C348.936,238.568,349.115,238.765,349.52,238.686Z" style="fill:#25baaa;fill-rule:evenodd"/><path d="M355.348,0H.468Q.487,24.153.5,48.3.542,143.957,0,239.63H355.806c-.407-63.172-.441-126.347-.469-189.518Q355.327,25.057,355.348,0Z" style="fill:none;fill-rule:evenodd"/></svg>