<svg xmlns="http://www.w3.org/2000/svg" viewBox="0 0 350.64 237.883"><title>Asset 7</title><path d="M319.614,56.131a.445.445,0,0,0-.289.68.545.545,0,0,0,1-.151C320.356,56.282,320.129,56.03,319.614,56.131Z" style="fill:#00b6e2;fill-rule:evenodd"/><path d="M335.881,35.436c.522.356,1.009-.345.754-.766C336.084,33.759,335.084,34.893,335.881,35.436Z" style="fill:#00b6e2;fill-rule:evenodd"/><path d="M326.02,123.269a.3.3,0,0,0-.2.466.374.374,0,0,0,.689-.1C326.529,123.372,326.373,123.2,326.02,123.269Z" style="fill:#00b6e2;fill-rule:evenodd"/><path d="M311.51,115.822a.227.227,0,0,0-.147.347.277.277,0,0,0,.512-.077C311.888,115.9,311.773,115.771,311.51,115.822Z" style="fill:#00b6e2;fill-rule:evenodd"/><path d="M347.586,165.974a.305.305,0,0,0-.2.466.374.374,0,0,0,.689-.1C348.1,166.077,347.94,165.9,347.586,165.974Z" style="fill:#00b6e2;fill-rule:evenodd"/><path d="M344.37,185.819a.305.305,0,0,0-.2.466.375.375,0,0,0,.691-.1C344.879,185.923,344.724,185.75,344.37,185.819Z" style="fill:#00b6e2;fill-rule:evenodd"/><path d="M340.962,214.735a.305.305,0,0,0-.2.466.373.373,0,0,0,.689-.1C341.471,214.839,341.316,214.667,340.962,214.735Z" style="fill:#00b6e2;fill-rule:evenodd"/><path d="M294.829,8.025a.535.535,0,0,0-.347.818.657.657,0,0,0,1.211-.181C295.723,8.207,295.45,7.9,294.829,8.025Z" style="fill:#00b6e2;fill-rule:evenodd"/><path d="M321.346,162.967a.4.4,0,0,0-.258.6.486.486,0,0,0,.9-.134C322.005,163.1,321.8,162.879,321.346,162.967Z" style="fill:#00b6e2;fill-rule:evenodd"/><path d="M287.24,206.448a.228.228,0,0,0-.148.347.278.278,0,0,0,.513-.077C287.617,206.525,287.5,206.4,287.24,206.448Z" style="fill:#00b6e2;fill-rule:evenodd"/><path d="M311.543,174.707a.372.372,0,0,0-.242.568.456.456,0,0,0,.841-.126C312.162,174.833,311.974,174.623,311.543,174.707Z" style="fill:#00b6e2;fill-rule:evenodd"/><path d="M309.074,136.62a.469.469,0,0,0-.305.716.574.574,0,0,0,1.06-.159C309.856,136.779,309.617,136.514,309.074,136.62Z" style="fill:#00b6e2;fill-rule:evenodd"/><path d="M283.011,131.161a.372.372,0,0,0-.241.568.456.456,0,0,0,.841-.126C283.631,131.287,283.443,131.077,283.011,131.161Z" style="fill:#00b6e2;fill-rule:evenodd"/><path d="M283.612,122.739a.372.372,0,0,0-.242.568.456.456,0,0,0,.841-.126C284.232,122.865,284.042,122.655,283.612,122.739Z" style="fill:#00b6e2;fill-rule:evenodd"/><path d="M262.85,125.193a.227.227,0,0,0-.148.347.279.279,0,0,0,.514-.077C263.229,125.27,263.113,125.141,262.85,125.193Z" style="fill:#00b6e2;fill-rule:evenodd"/><path d="M284.287,103.6a.227.227,0,0,0-.147.347.278.278,0,0,0,.513-.077C284.665,103.676,284.55,103.548,284.287,103.6Z" style="fill:#00b6e2;fill-rule:evenodd"/><path d="M306.9,71.52a.371.371,0,0,0-.241.568.456.456,0,0,0,.84-.126C307.517,71.646,307.327,71.436,306.9,71.52Z" style="fill:#00b6e2;fill-rule:evenodd"/><path d="M291.555,64.529a.228.228,0,0,0-.147.348.278.278,0,0,0,.513-.078C291.934,64.607,291.819,64.479,291.555,64.529Z" style="fill:#00b6e2;fill-rule:evenodd"/><path d="M280.152,55.46a.528.528,0,0,0-.344.806A.647.647,0,0,0,281,56.087C281.031,55.639,280.763,55.34,280.152,55.46Z" style="fill:#00b6e2;fill-rule:evenodd"/><path d="M287.47,30.883a.227.227,0,0,0-.147.347.277.277,0,0,0,.512-.077C287.848,30.96,287.733,30.832,287.47,30.883Z" style="fill:#00b6e2;fill-rule:evenodd"/><path d="M248.086,139.676a.462.462,0,0,0-.3.705.565.565,0,0,0,1.043-.156C248.856,139.833,248.62,139.572,248.086,139.676Z" style="fill:#00b6e2;fill-rule:evenodd"/><path d="M218.461,137.955a.226.226,0,0,0-.147.346.278.278,0,0,0,.513-.076C218.84,138.032,218.725,137.9,218.461,137.955Z" style="fill:#00b6e2;fill-rule:evenodd"/><path d="M246.007,128.764a.227.227,0,0,0-.147.347.277.277,0,0,0,.512-.077C246.385,128.841,246.27,128.714,246.007,128.764Z" style="fill:#00b6e2;fill-rule:evenodd"/><path d="M266.008,71.739a.227.227,0,0,0-.147.347.277.277,0,0,0,.512-.077C266.386,71.816,266.271,71.688,266.008,71.739Z" style="fill:#00b6e2;fill-rule:evenodd"/><path d="M226.249,72.544a.227.227,0,0,0-.147.347.278.278,0,0,0,.513-.077C226.627,72.621,226.512,72.493,226.249,72.544Z" style="fill:#00b6e2;fill-rule:evenodd"/><path d="M224.23,94.592a.227.227,0,0,0-.148.347.279.279,0,0,0,.514-.078C224.609,94.669,224.493,94.541,224.23,94.592Z" style="fill:#00b6e2;fill-rule:evenodd"/><path d="M205.752,110.277a.323.323,0,0,0-.21.492.4.4,0,0,0,.73-.109C206.29,110.386,206.126,110.2,205.752,110.277Z" style="fill:#00b6e2;fill-rule:evenodd"/><path d="M202.678,90.036a.3.3,0,0,0-.191.45.361.361,0,0,0,.666-.1C203.169,90.136,203.02,89.97,202.678,90.036Z" style="fill:#00b6e2;fill-rule:evenodd"/><path d="M183.152,202.974a.227.227,0,0,0-.148.346.279.279,0,0,0,.514-.077C183.531,203.05,183.415,202.923,183.152,202.974Z" style="fill:#00b6e2;fill-rule:evenodd"/><path d="M189.274,170.3a.351.351,0,0,0-.227.535.428.428,0,0,0,.79-.119C189.858,170.423,189.68,170.225,189.274,170.3Z" style="fill:#00b6e2;fill-rule:evenodd"/><path d="M161.846,156.491a.35.35,0,0,0-.227.535.429.429,0,0,0,.791-.119C162.43,156.61,162.252,156.413,161.846,156.491Z" style="fill:#00b6e2;fill-rule:evenodd"/><path d="M145.935,164.33a.35.35,0,0,0-.227.534.429.429,0,0,0,.791-.118C146.518,164.448,146.34,164.251,145.935,164.33Z" style="fill:#00b6e2;fill-rule:evenodd"/><path d="M194.705,76.065a.333.333,0,0,0-.216.509.408.408,0,0,0,.753-.112C195.262,76.178,195.092,75.99,194.705,76.065Z" style="fill:#00b6e2;fill-rule:evenodd"/><path d="M163.368,76.908a.334.334,0,0,0-.216.51.408.408,0,0,0,.753-.113C163.924,77.022,163.754,76.833,163.368,76.908Z" style="fill:#00b6e2;fill-rule:evenodd"/><path d="M110.82,204.052a.35.35,0,0,0-.227.535.429.429,0,0,0,.791-.119C111.4,204.171,111.225,203.973,110.82,204.052Z" style="fill:#00b6e2;fill-rule:evenodd"/><path d="M115.632,208.715a.521.521,0,0,0-.338.8.638.638,0,0,0,1.177-.176C116.5,208.892,116.236,208.6,115.632,208.715Z" style="fill:#00b6e2;fill-rule:evenodd"/><path d="M91.555,179.585a.349.349,0,0,0-.227.534.428.428,0,0,0,.79-.118C92.138,179.7,91.96,179.506,91.555,179.585Z" style="fill:#00b6e2;fill-rule:evenodd"/><path d="M49.974,196.483a.349.349,0,0,0-.227.534.429.429,0,0,0,.791-.118C50.557,196.6,50.379,196.4,49.974,196.483Z" style="fill:#00b6e2;fill-rule:evenodd"/><path d="M66.592,187.783a.35.35,0,0,0-.227.535.428.428,0,0,0,.79-.118C67.175,187.9,67,187.705,66.592,187.783Z" style="fill:#00b6e2;fill-rule:evenodd"/><path d="M14.047,204.2a.228.228,0,0,0-.147.348.278.278,0,0,0,.513-.077C14.426,204.275,14.31,204.146,14.047,204.2Z" style="fill:#00b6e2;fill-rule:evenodd"/><path d="M21.238,198.5a.227.227,0,0,0-.148.346.278.278,0,0,0,.513-.076C21.616,198.578,21.5,198.449,21.238,198.5Z" style="fill:#00b6e2;fill-rule:evenodd"/><path d="M3.941,215.429a.227.227,0,0,0-.147.347.278.278,0,0,0,.513-.077C4.32,215.506,4.2,215.378,3.941,215.429Z" style="fill:#00b6e2;fill-rule:evenodd"/><path d="M12.7,190.31a.349.349,0,0,0-.227.534.428.428,0,0,0,.79-.118C13.281,190.429,13.1,190.231,12.7,190.31Z" style="fill:#00b6e2;fill-rule:evenodd"/><path d="M7.15,185.452a.35.35,0,0,0-.227.534.429.429,0,0,0,.791-.118C7.734,185.57,7.555,185.373,7.15,185.452Z" style="fill:#00b6e2;fill-rule:evenodd"/><path d="M25.111,177.415a.349.349,0,0,0-.227.534.428.428,0,0,0,.79-.119C25.694,177.533,25.516,177.336,25.111,177.415Z" style="fill:#00b6e2;fill-rule:evenodd"/><path d="M34.647,181.155a.228.228,0,0,0-.148.347.279.279,0,0,0,.514-.077C35.026,181.232,34.91,181.1,34.647,181.155Z" style="fill:#00b6e2;fill-rule:evenodd"/><path d="M38.361,176.79a.228.228,0,0,0-.148.347.279.279,0,0,0,.514-.077C38.74,176.867,38.624,176.739,38.361,176.79Z" style="fill:#00b6e2;fill-rule:evenodd"/><path d="M46.505,167.247a.228.228,0,0,0-.148.347.278.278,0,0,0,.513-.077C46.883,167.324,46.768,167.2,46.505,167.247Z" style="fill:#00b6e2;fill-rule:evenodd"/><path d="M55.079,174.243a.227.227,0,0,0-.147.347.278.278,0,0,0,.513-.077C55.458,174.32,55.342,174.192,55.079,174.243Z" style="fill:#00b6e2;fill-rule:evenodd"/><path d="M60.891,169.507a.228.228,0,0,0-.148.348.279.279,0,0,0,.514-.078C61.27,169.585,61.154,169.456,60.891,169.507Z" style="fill:#00b6e2;fill-rule:evenodd"/><path d="M66.583,173.073a.35.35,0,0,0-.227.535.429.429,0,0,0,.791-.119C67.166,173.192,66.989,173,66.583,173.073Z" style="fill:#00b6e2;fill-rule:evenodd"/><path d="M70.1,162.921a.349.349,0,0,0-.227.534.428.428,0,0,0,.79-.118C70.682,163.039,70.5,162.842,70.1,162.921Z" style="fill:#00b6e2;fill-rule:evenodd"/><path d="M81.189,152.124a.227.227,0,0,0-.148.346.279.279,0,0,0,.514-.076C81.568,152.2,81.452,152.072,81.189,152.124Z" style="fill:#00b6e2;fill-rule:evenodd"/><path d="M72.342,146.185a.35.35,0,0,0-.228.534.429.429,0,0,0,.791-.119C72.925,146.3,72.747,146.106,72.342,146.185Z" style="fill:#00b6e2;fill-rule:evenodd"/><path d="M44,159.049a.228.228,0,0,0-.148.347.279.279,0,0,0,.514-.077C44.375,159.127,44.26,159,44,159.049Z" style="fill:#00b6e2;fill-rule:evenodd"/><path d="M51.4,153.7a.35.35,0,0,0-.227.534.429.429,0,0,0,.791-.119C51.979,153.815,51.8,153.617,51.4,153.7Z" style="fill:#00b6e2;fill-rule:evenodd"/><path d="M98.256,166.225a.227.227,0,0,0-.147.347.278.278,0,0,0,.513-.077C98.635,166.3,98.519,166.173,98.256,166.225Z" style="fill:#00b6e2;fill-rule:evenodd"/><path d="M107.141,157.988a.35.35,0,0,0-.227.534.428.428,0,0,0,.79-.119C107.724,158.107,107.547,157.909,107.141,157.988Z" style="fill:#00b6e2;fill-rule:evenodd"/><path d="M91.894,148.552a.35.35,0,0,0-.227.535.428.428,0,0,0,.79-.119C92.477,148.671,92.3,148.474,91.894,148.552Z" style="fill:#00b6e2;fill-rule:evenodd"/><path d="M147.167,72.1a.334.334,0,0,0-.216.51.408.408,0,0,0,.753-.113C147.723,72.213,147.554,72.024,147.167,72.1Z" style="fill:#00b6e2;fill-rule:evenodd"/><path d="M119.617,75.755a.333.333,0,0,0-.216.509.409.409,0,0,0,.754-.113C120.174,75.868,120,75.679,119.617,75.755Z" style="fill:#00b6e2;fill-rule:evenodd"/><path d="M149.758,99.654a.35.35,0,0,0-.226.535.428.428,0,0,0,.79-.119C150.342,99.773,150.164,99.576,149.758,99.654Z" style="fill:#00b6e2;fill-rule:evenodd"/><path d="M122.762,89.2a.35.35,0,0,0-.227.535.428.428,0,0,0,.79-.119C123.345,89.316,123.167,89.118,122.762,89.2Z" style="fill:#00b6e2;fill-rule:evenodd"/><path d="M135.244,160.718a.228.228,0,0,0-.147.348.278.278,0,0,0,.513-.077C135.623,160.8,135.507,160.668,135.244,160.718Z" style="fill:#00b6e2;fill-rule:evenodd"/><path d="M116.358,147.62a.35.35,0,0,0-.227.535.429.429,0,0,0,.791-.119C116.941,147.739,116.763,147.542,116.358,147.62Z" style="fill:#00b6e2;fill-rule:evenodd"/><path d="M124.334,141.943a.228.228,0,0,0-.148.347.279.279,0,0,0,.514-.076C124.712,142.021,124.6,141.892,124.334,141.943Z" style="fill:#00b6e2;fill-rule:evenodd"/><path d="M126.923,153.02a.35.35,0,0,0-.227.534.429.429,0,0,0,.791-.118C127.507,153.138,127.328,152.941,126.923,153.02Z" style="fill:#00b6e2;fill-rule:evenodd"/><path d="M109.708,126.915a.35.35,0,0,0-.227.534.429.429,0,0,0,.791-.118C110.291,127.034,110.113,126.837,109.708,126.915Z" style="fill:#00b6e2;fill-rule:evenodd"/><path d="M54.536,129.727a.227.227,0,0,0-.147.347A.279.279,0,0,0,54.9,130C54.915,129.8,54.8,129.676,54.536,129.727Z" style="fill:#00b6e2;fill-rule:evenodd"/><path d="M33.507,164.257a.227.227,0,0,0-.148.347.278.278,0,0,0,.513-.077C33.885,164.334,33.769,164.206,33.507,164.257Z" style="fill:#00b6e2;fill-rule:evenodd"/><path d="M21.9,144.669a.228.228,0,0,0-.148.347.278.278,0,0,0,.513-.077C22.277,144.746,22.161,144.618,21.9,144.669Z" style="fill:#00b6e2;fill-rule:evenodd"/><path d="M23.939,13.652a.356.356,0,0,0-.231.544.436.436,0,0,0,.8-.121C24.532,13.773,24.351,13.572,23.939,13.652Z" style="fill:#00b6e2;fill-rule:evenodd"/><path d="M23.084,41.061a.392.392,0,0,0-.254.6.481.481,0,0,0,.886-.133C23.738,41.194,23.538,40.972,23.084,41.061Z" style="fill:#00b6e2;fill-rule:evenodd"/><path d="M67.821,23.313a.228.228,0,0,0-.148.347.279.279,0,0,0,.514-.077C68.2,23.39,68.084,23.261,67.821,23.313Z" style="fill:#00b6e2;fill-rule:evenodd"/><path d="M99.1,9.687a.226.226,0,0,0-.147.346.279.279,0,0,0,.514-.077C99.482,9.763,99.367,9.635,99.1,9.687Z" style="fill:#00b6e2;fill-rule:evenodd"/><path d="M109.023,50.89a.355.355,0,0,0-.23.543.435.435,0,0,0,.8-.12C109.617,51.011,109.435,50.81,109.023,50.89Z" style="fill:#00b6e2;fill-rule:evenodd"/><path d="M82.565,53.162a.227.227,0,0,0-.147.347.278.278,0,0,0,.513-.077C82.944,53.239,82.828,53.111,82.565,53.162Z" style="fill:#00b6e2;fill-rule:evenodd"/><path d="M85.525,70.472a.227.227,0,0,0-.147.347.278.278,0,0,0,.513-.077C85.9,70.549,85.788,70.422,85.525,70.472Z" style="fill:#00b6e2;fill-rule:evenodd"/><path d="M99.966,81.539a.334.334,0,0,0-.217.509.409.409,0,0,0,.754-.112C100.522,81.652,100.352,81.464,99.966,81.539Z" style="fill:#00b6e2;fill-rule:evenodd"/><path d="M91.086,93.756a.227.227,0,0,0-.147.347.278.278,0,0,0,.513-.077C91.465,93.833,91.349,93.705,91.086,93.756Z" style="fill:#00b6e2;fill-rule:evenodd"/><path d="M96.96,105.566a.527.527,0,0,0-.343.806.647.647,0,0,0,1.193-.179C97.84,105.745,97.571,105.446,96.96,105.566Z" style="fill:#00b6e2;fill-rule:evenodd"/><path d="M80.013,89a.333.333,0,0,0-.217.509.409.409,0,0,0,.754-.112C80.569,89.111,80.4,88.923,80.013,89Z" style="fill:#00b6e2;fill-rule:evenodd"/><path d="M48.779,65.777a.342.342,0,0,0-.223.522.419.419,0,0,0,.773-.115C49.348,65.893,49.175,65.7,48.779,65.777Z" style="fill:#00b6e2;fill-rule:evenodd"/><path d="M51.379,91.518a.342.342,0,0,0-.221.523.418.418,0,0,0,.772-.116C51.95,91.634,51.776,91.442,51.379,91.518Z" style="fill:#00b6e2;fill-rule:evenodd"/><path d="M52.759,102.031a.393.393,0,0,0-.255.6.48.48,0,0,0,.886-.133C53.412,102.164,53.213,101.943,52.759,102.031Z" style="fill:#00b6e2;fill-rule:evenodd"/><path d="M20.507,98.569a.529.529,0,0,0-.343.807.647.647,0,0,0,1.193-.179C21.387,98.749,21.118,98.451,20.507,98.569Z" style="fill:#00b6e2;fill-rule:evenodd"/><path d="M1.869,83.2A.527.527,0,0,0,1.527,84a.647.647,0,0,0,1.193-.179C2.75,83.376,2.481,83.078,1.869,83.2Z" style="fill:#00b6e2;fill-rule:evenodd"/><path d="M133.173,62.811a.536.536,0,0,0-.348.819.657.657,0,0,0,1.211-.182C134.066,62.993,133.794,62.69,133.173,62.811Z" style="fill:#00b6e2;fill-rule:evenodd"/><path d="M18.073,226.435a.372.372,0,0,0,.241-.568.456.456,0,0,0-.841.126C17.452,226.309,17.642,226.519,18.073,226.435Z" style="fill:#00b6e2;fill-rule:evenodd"/><path d="M35.4,234.4a.372.372,0,0,0,.241-.568.455.455,0,0,0-.84.125C34.781,234.274,34.97,234.484,35.4,234.4Z" style="fill:#00b6e2;fill-rule:evenodd"/><path d="M54.677,235.638a.371.371,0,0,0,.241-.568.456.456,0,0,0-.841.126C54.056,235.512,54.245,235.722,54.677,235.638Z" style="fill:#00b6e2;fill-rule:evenodd"/><path d="M73.811,233.3a.226.226,0,0,0,.147-.346.277.277,0,0,0-.512.076C73.432,233.225,73.548,233.354,73.811,233.3Z" style="fill:#00b6e2;fill-rule:evenodd"/><path d="M95.485,232.768a.372.372,0,0,0,.242-.568.456.456,0,0,0-.841.126C94.865,232.642,95.054,232.852,95.485,232.768Z" style="fill:#00b6e2;fill-rule:evenodd"/><path d="M116.1,227.927a.227.227,0,0,0,.147-.347.278.278,0,0,0-.513.077C115.722,227.85,115.838,227.978,116.1,227.927Z" style="fill:#00b6e2;fill-rule:evenodd"/><path d="M288.95,227.727a.35.35,0,0,0,.228-.534.429.429,0,0,0-.791.119C288.367,227.609,288.546,227.806,288.95,227.727Z" style="fill:#00b6e2;fill-rule:evenodd"/><path d="M304.949,210.608a.349.349,0,0,0,.227-.534.429.429,0,0,0-.791.118C304.366,210.489,304.544,210.687,304.949,210.608Z" style="fill:#00b6e2;fill-rule:evenodd"/><path d="M312.518,233.071a.226.226,0,0,0,.147-.346.277.277,0,0,0-.512.076C312.14,232.994,312.255,233.123,312.518,233.071Z" style="fill:#00b6e2;fill-rule:evenodd"/><path d="M330.133,229.164a.523.523,0,0,0,.339-.8.639.639,0,0,0-1.179.177C329.264,228.986,329.53,229.281,330.133,229.164Z" style="fill:#00b6e2;fill-rule:evenodd"/><path d="M325.042,216.772a.228.228,0,0,0,.148-.348.278.278,0,0,0-.513.078C324.664,216.694,324.78,216.823,325.042,216.772Z" style="fill:#00b6e2;fill-rule:evenodd"/><path d="M336.471,42.079a.227.227,0,0,0-.147.347.278.278,0,0,0,.513-.076C336.85,42.156,336.735,42.028,336.471,42.079Z" style="fill:#f0513d;fill-rule:evenodd"/><path d="M324.209,67.1a.269.269,0,0,0-.175.41.329.329,0,0,0,.607-.091C324.657,67.193,324.52,67.042,324.209,67.1Z" style="fill:#f0513d;fill-rule:evenodd"/><path d="M350.274,78.6a.227.227,0,0,0-.148.347.278.278,0,0,0,.513-.077C350.653,78.677,350.536,78.549,350.274,78.6Z" style="fill:#f0513d;fill-rule:evenodd"/><path d="M325.943,115.494a.227.227,0,0,0-.148.347.279.279,0,0,0,.514-.077C326.322,115.571,326.205,115.443,325.943,115.494Z" style="fill:#f0513d;fill-rule:evenodd"/><path d="M334.148,162.571a.228.228,0,0,0-.148.348.278.278,0,0,0,.513-.078C334.527,162.649,334.41,162.52,334.148,162.571Z" style="fill:#f0513d;fill-rule:evenodd"/><path d="M299.162,166.007a.448.448,0,0,0-.29.684.548.548,0,0,0,1.011-.152C299.908,166.159,299.68,165.907,299.162,166.007Z" style="fill:#f0513d;fill-rule:evenodd"/><path d="M265.62,195.3a.372.372,0,0,0-.241.568.456.456,0,0,0,.841-.126C266.241,195.425,266.051,195.215,265.62,195.3Z" style="fill:#f0513d;fill-rule:evenodd"/><path d="M292.77,132.2a.372.372,0,0,0-.242.568.455.455,0,0,0,.84-.126C293.39,132.328,293.2,132.118,292.77,132.2Z" style="fill:#f0513d;fill-rule:evenodd"/><path d="M286.9,111.626a.227.227,0,0,0-.148.347.278.278,0,0,0,.513-.077C287.276,111.7,287.16,111.575,286.9,111.626Z" style="fill:#f0513d;fill-rule:evenodd"/><path d="M274.5,124.568a.373.373,0,0,0-.241.569.455.455,0,0,0,.84-.126C275.119,124.7,274.93,124.485,274.5,124.568Z" style="fill:#f0513d;fill-rule:evenodd"/><path d="M259.934,124.318a.371.371,0,0,0-.242.567.456.456,0,0,0,.841-.125C260.554,124.443,260.365,124.234,259.934,124.318Z" style="fill:#f0513d;fill-rule:evenodd"/><path d="M304.106,106.819a.371.371,0,0,0-.241.568.455.455,0,0,0,.84-.126C304.726,106.945,304.536,106.735,304.106,106.819Z" style="fill:#f0513d;fill-rule:evenodd"/><path d="M289.361,84.576a.372.372,0,0,0-.242.568.456.456,0,0,0,.841-.126C289.981,84.7,289.791,84.492,289.361,84.576Z" style="fill:#f0513d;fill-rule:evenodd"/><path d="M274.529,45.264a.228.228,0,0,0-.148.347.279.279,0,0,0,.514-.077C274.908,45.341,274.791,45.213,274.529,45.264Z" style="fill:#f0513d;fill-rule:evenodd"/><path d="M271.318,155.959a.228.228,0,0,0-.148.347.279.279,0,0,0,.514-.076C271.7,156.036,271.581,155.908,271.318,155.959Z" style="fill:#f0513d;fill-rule:evenodd"/><path d="M253.287,165.1a.372.372,0,0,0-.241.568.455.455,0,0,0,.84-.126C253.908,165.225,253.718,165.015,253.287,165.1Z" style="fill:#f0513d;fill-rule:evenodd"/><path d="M236.462,145.99a.462.462,0,0,0-.3.7.565.565,0,0,0,1.043-.156C237.232,146.147,237,145.886,236.462,145.99Z" style="fill:#f0513d;fill-rule:evenodd"/><path d="M213.557,203.89a.227.227,0,0,0-.148.346.279.279,0,0,0,.514-.076C213.936,203.967,213.821,203.839,213.557,203.89Z" style="fill:#f0513d;fill-rule:evenodd"/><path d="M200.606,211.388a.227.227,0,0,0-.148.347.279.279,0,0,0,.514-.077C200.985,211.465,200.868,211.337,200.606,211.388Z" style="fill:#f0513d;fill-rule:evenodd"/><path d="M225.16,138.994a.461.461,0,0,0-.3.705.565.565,0,0,0,1.043-.156C225.93,139.151,225.7,138.89,225.16,138.994Z" style="fill:#f0513d;fill-rule:evenodd"/><path d="M250.652,132.2a.3.3,0,0,0-.192.451.361.361,0,0,0,.666-.1C251.144,132.3,250.993,132.13,250.652,132.2Z" style="fill:#f0513d;fill-rule:evenodd"/><path d="M243.505,122.236a.294.294,0,0,0-.191.45.361.361,0,0,0,.666-.1C244,122.336,243.846,122.169,243.505,122.236Z" style="fill:#f0513d;fill-rule:evenodd"/><path d="M218.733,129.429a.3.3,0,0,0-.192.45.361.361,0,0,0,.666-.1C219.224,129.529,219.074,129.362,218.733,129.429Z" style="fill:#f0513d;fill-rule:evenodd"/><path d="M254.579,63.635a.461.461,0,0,0-.3.705.566.566,0,0,0,1.044-.156C255.349,63.792,255.115,63.531,254.579,63.635Z" style="fill:#f0513d;fill-rule:evenodd"/><path d="M219.97,93.229a.3.3,0,0,0-.191.45.361.361,0,0,0,.666-.1C220.462,93.329,220.312,93.163,219.97,93.229Z" style="fill:#f0513d;fill-rule:evenodd"/><path d="M212.821,107.837a.323.323,0,0,0-.21.493.4.4,0,0,0,.729-.109C213.358,107.947,213.194,107.764,212.821,107.837Z" style="fill:#f0513d;fill-rule:evenodd"/><path d="M189.9,110.241a.323.323,0,0,0-.209.493.394.394,0,0,0,.728-.109C190.433,110.35,190.269,110.168,189.9,110.241Z" style="fill:#f0513d;fill-rule:evenodd"/><path d="M178.534,113.97a.227.227,0,0,0-.147.347.278.278,0,0,0,.513-.077C178.912,114.047,178.8,113.919,178.534,113.97Z" style="fill:#f0513d;fill-rule:evenodd"/><path d="M172.843,195.813a.349.349,0,0,0-.227.534.429.429,0,0,0,.791-.119C173.426,195.931,173.248,195.734,172.843,195.813Z" style="fill:#f0513d;fill-rule:evenodd"/><path d="M174.926,182.924a.226.226,0,0,0-.147.347.277.277,0,0,0,.512-.078C175.3,183,175.189,182.873,174.926,182.924Z" style="fill:#f0513d;fill-rule:evenodd"/><path d="M157.435,208.208a.349.349,0,0,0-.227.534.428.428,0,0,0,.79-.118C158.018,208.327,157.84,208.129,157.435,208.208Z" style="fill:#f0513d;fill-rule:evenodd"/><path d="M169.07,164.639a.228.228,0,0,0-.148.347.279.279,0,0,0,.514-.077C169.449,164.716,169.333,164.588,169.07,164.639Z" style="fill:#f0513d;fill-rule:evenodd"/><path d="M153.093,173.336a.349.349,0,0,0-.227.534.428.428,0,0,0,.79-.118C153.676,173.454,153.5,173.256,153.093,173.336Z" style="fill:#f0513d;fill-rule:evenodd"/><path d="M158.761,163.721a.349.349,0,0,0-.227.534.429.429,0,0,0,.791-.118C159.344,163.839,159.166,163.642,158.761,163.721Z" style="fill:#f0513d;fill-rule:evenodd"/><path d="M180.682,146.123a.351.351,0,0,0-.228.535.429.429,0,0,0,.791-.119C181.265,146.242,181.087,146.045,180.682,146.123Z" style="fill:#f0513d;fill-rule:evenodd"/><path d="M148.877,158.426a.35.35,0,0,0-.227.535.429.429,0,0,0,.791-.119C149.46,158.545,149.283,158.347,148.877,158.426Z" style="fill:#f0513d;fill-rule:evenodd"/><path d="M147.083,154.356a.35.35,0,0,0-.227.535.429.429,0,0,0,.791-.119C147.666,154.475,147.489,154.277,147.083,154.356Z" style="fill:#f0513d;fill-rule:evenodd"/><path d="M152.12,144.22a.227.227,0,0,0-.147.347.278.278,0,0,0,.513-.077C152.5,144.3,152.383,144.169,152.12,144.22Z" style="fill:#f0513d;fill-rule:evenodd"/><path d="M155.1,131.309a.227.227,0,0,0-.147.347.278.278,0,0,0,.513-.076C155.474,131.386,155.359,131.258,155.1,131.309Z" style="fill:#f0513d;fill-rule:evenodd"/><path d="M213.017,73.68a.528.528,0,0,0-.343.807.647.647,0,0,0,1.193-.179C213.9,73.86,213.628,73.562,213.017,73.68Z" style="fill:#f0513d;fill-rule:evenodd"/><path d="M98.2,211.154a.522.522,0,0,0-.339.8.639.639,0,0,0,1.178-.177C99.065,211.332,98.8,211.037,98.2,211.154Z" style="fill:#f0513d;fill-rule:evenodd"/><path d="M73.473,207.963a.349.349,0,0,0-.227.534.429.429,0,0,0,.791-.118C74.056,208.082,73.878,207.884,73.473,207.963Z" style="fill:#f0513d;fill-rule:evenodd"/><path d="M28.406,205.85a.226.226,0,0,0-.147.346.278.278,0,0,0,.513-.077C28.785,205.927,28.669,205.8,28.406,205.85Z" style="fill:#f0513d;fill-rule:evenodd"/><path d="M11.945,202.8a.35.35,0,0,0-.228.534.429.429,0,0,0,.791-.118C12.528,202.916,12.349,202.718,11.945,202.8Z" style="fill:#f0513d;fill-rule:evenodd"/><path d="M2.736,199.285a.227.227,0,0,0-.148.346.279.279,0,0,0,.514-.076C3.115,199.361,3,199.233,2.736,199.285Z" style="fill:#f0513d;fill-rule:evenodd"/><path d="M23.573,189.733a.35.35,0,0,0-.227.535.429.429,0,0,0,.791-.119C24.157,189.852,23.979,189.654,23.573,189.733Z" style="fill:#f0513d;fill-rule:evenodd"/><path d="M10.746,177.757a.227.227,0,0,0-.147.347.278.278,0,0,0,.513-.077C11.125,177.834,11.009,177.706,10.746,177.757Z" style="fill:#f0513d;fill-rule:evenodd"/><path d="M21.839,175.594a.227.227,0,0,0-.147.347.278.278,0,0,0,.513-.077C22.218,175.672,22.1,175.543,21.839,175.594Z" style="fill:#f0513d;fill-rule:evenodd"/><path d="M43.371,172.822a.35.35,0,0,0-.227.535.429.429,0,0,0,.791-.119C43.954,172.941,43.777,172.743,43.371,172.822Z" style="fill:#f0513d;fill-rule:evenodd"/><path d="M67.121,168.482a.349.349,0,0,0-.227.534.429.429,0,0,0,.791-.119C67.705,168.6,67.527,168.4,67.121,168.482Z" style="fill:#f0513d;fill-rule:evenodd"/><path d="M70.852,158.866a.35.35,0,0,0-.227.535.429.429,0,0,0,.791-.119C71.436,158.985,71.258,158.788,70.852,158.866Z" style="fill:#f0513d;fill-rule:evenodd"/><path d="M86.818,156.176a.35.35,0,0,0-.228.534.429.429,0,0,0,.791-.119C87.4,156.295,87.222,156.1,86.818,156.176Z" style="fill:#f0513d;fill-rule:evenodd"/><path d="M117.294,158.562a.35.35,0,0,0-.227.534.429.429,0,0,0,.791-.118C117.877,158.68,117.7,158.483,117.294,158.562Z" style="fill:#f0513d;fill-rule:evenodd"/><path d="M115.321,165.665a.35.35,0,0,0-.227.535.429.429,0,0,0,.791-.119C115.9,165.784,115.726,165.586,115.321,165.665Z" style="fill:#f0513d;fill-rule:evenodd"/><path d="M91.75,144.175a.35.35,0,0,0-.227.535.429.429,0,0,0,.791-.119C92.333,144.294,92.156,144.1,91.75,144.175Z" style="fill:#f0513d;fill-rule:evenodd"/><path d="M136.412,113.683a.35.35,0,0,0-.227.534.429.429,0,0,0,.791-.118C137,113.8,136.818,113.6,136.412,113.683Z" style="fill:#f0513d;fill-rule:evenodd"/><path d="M133.094,92.676a.35.35,0,0,0-.227.535.429.429,0,0,0,.791-.119C133.677,92.8,133.5,92.6,133.094,92.676Z" style="fill:#f0513d;fill-rule:evenodd"/><path d="M108.7,146.544a.35.35,0,0,0-.228.534.429.429,0,0,0,.791-.118C109.282,146.663,109.1,146.465,108.7,146.544Z" style="fill:#f0513d;fill-rule:evenodd"/><path d="M122.552,135.31a.35.35,0,0,0-.227.535.429.429,0,0,0,.791-.119C123.135,135.429,122.957,135.232,122.552,135.31Z" style="fill:#f0513d;fill-rule:evenodd"/><path d="M112.638,130.858a.227.227,0,0,0-.147.347.278.278,0,0,0,.513-.077C113.017,130.935,112.9,130.807,112.638,130.858Z" style="fill:#f0513d;fill-rule:evenodd"/><path d="M61.342,130.381a.35.35,0,0,0-.227.535.429.429,0,0,0,.791-.118C61.925,130.5,61.747,130.3,61.342,130.381Z" style="fill:#f0513d;fill-rule:evenodd"/><path d="M9.863,48.055a.356.356,0,0,0-.231.544.435.435,0,0,0,.8-.121C10.456,48.176,10.275,47.975,9.863,48.055Z" style="fill:#f0513d;fill-rule:evenodd"/><path d="M89.107,85.823a.334.334,0,0,0-.217.51.409.409,0,0,0,.754-.114C89.663,85.936,89.493,85.748,89.107,85.823Z" style="fill:#f0513d;fill-rule:evenodd"/><path d="M76.9,80.715a.227.227,0,0,0-.148.347.279.279,0,0,0,.514-.077C77.276,80.792,77.16,80.664,76.9,80.715Z" style="fill:#f0513d;fill-rule:evenodd"/><path d="M60.932,97.756a.227.227,0,0,0-.147.347.278.278,0,0,0,.513-.077C61.311,97.834,61.2,97.705,60.932,97.756Z" style="fill:#f0513d;fill-rule:evenodd"/><path d="M46.814,69.653a.535.535,0,0,0-.347.818.656.656,0,0,0,1.21-.181C47.707,69.835,47.435,69.532,46.814,69.653Z" style="fill:#f0513d;fill-rule:evenodd"/><path d="M44.993,93.456a.341.341,0,0,0-.221.522.419.419,0,0,0,.773-.116C45.564,93.572,45.389,93.379,44.993,93.456Z" style="fill:#f0513d;fill-rule:evenodd"/><path d="M17.064,96.971a.342.342,0,0,0-.222.523.419.419,0,0,0,.773-.116C17.634,97.088,17.46,96.894,17.064,96.971Z" style="fill:#f0513d;fill-rule:evenodd"/><path d="M78.1,120.376a.227.227,0,0,0-.147.347.278.278,0,0,0,.513-.077C78.477,120.453,78.361,120.325,78.1,120.376Z" style="fill:#f0513d;fill-rule:evenodd"/><path d="M115.5,117.847a.226.226,0,0,0-.147.346.278.278,0,0,0,.513-.077C115.878,117.924,115.762,117.8,115.5,117.847Z" style="fill:#f0513d;fill-rule:evenodd"/><path d="M108.36,111.461a.227.227,0,0,0-.148.346.279.279,0,0,0,.514-.076C108.739,111.538,108.623,111.409,108.36,111.461Z" style="fill:#f0513d;fill-rule:evenodd"/><path d="M6.717,220.489a.305.305,0,0,0,.2-.466.374.374,0,0,0-.69.1C6.208,220.385,6.363,220.557,6.717,220.489Z" style="fill:#f0513d;fill-rule:evenodd"/><path d="M43.914,230.122a.372.372,0,0,0,.242-.568.456.456,0,0,0-.841.126C43.294,230,43.483,230.206,43.914,230.122Z" style="fill:#f0513d;fill-rule:evenodd"/><path d="M67.23,230.777a.227.227,0,0,0,.147-.347.278.278,0,0,0-.513.077C66.851,230.7,66.967,230.828,67.23,230.777Z" style="fill:#f0513d;fill-rule:evenodd"/><path d="M86.557,237.872a.227.227,0,0,0,.148-.347.278.278,0,0,0-.513.076C86.179,237.8,86.3,237.923,86.557,237.872Z" style="fill:#f0513d;fill-rule:evenodd"/><path d="M102.564,226.454a.226.226,0,0,0,.148-.346.278.278,0,0,0-.513.077C102.186,226.377,102.3,226.506,102.564,226.454Z" style="fill:#f0513d;fill-rule:evenodd"/><path d="M122.426,234.168a.227.227,0,0,0,.148-.346.279.279,0,0,0-.514.077C122.048,234.091,122.163,234.219,122.426,234.168Z" style="fill:#f0513d;fill-rule:evenodd"/><path d="M130.051,220.691a.35.35,0,0,0,.227-.534.429.429,0,0,0-.791.118C129.467,220.572,129.645,220.77,130.051,220.691Z" style="fill:#f0513d;fill-rule:evenodd"/><path d="M134.121,231.334a.227.227,0,0,0,.148-.347.278.278,0,0,0-.513.077C133.743,231.257,133.859,231.385,134.121,231.334Z" style="fill:#f0513d;fill-rule:evenodd"/><path d="M175.984,226.424a.349.349,0,0,0,.227-.534.429.429,0,0,0-.791.118C175.4,226.305,175.578,226.5,175.984,226.424Z" style="fill:#f0513d;fill-rule:evenodd"/><path d="M192.159,227.743a.227.227,0,0,0,.147-.347.278.278,0,0,0-.513.077C191.781,227.666,191.9,227.794,192.159,227.743Z" style="fill:#f0513d;fill-rule:evenodd"/><path d="M223.878,225.96a.35.35,0,0,0,.227-.535.428.428,0,0,0-.79.119C223.3,225.841,223.473,226.039,223.878,225.96Z" style="fill:#f0513d;fill-rule:evenodd"/><path d="M255.586,222.669a.35.35,0,0,0,.227-.535.428.428,0,0,0-.79.119C255,222.55,255.181,222.748,255.586,222.669Z" style="fill:#f0513d;fill-rule:evenodd"/><path d="M295.732,233.539a.349.349,0,0,0,.226-.534.428.428,0,0,0-.79.119C295.148,233.421,295.326,233.618,295.732,233.539Z" style="fill:#f0513d;fill-rule:evenodd"/><path d="M341.6,83.45a.377.377,0,0,0-.245.576.462.462,0,0,0,.852-.127C342.225,83.578,342.033,83.365,341.6,83.45Z" style="fill:#a4cf53;fill-rule:evenodd"/><path d="M349.844,99.306a.377.377,0,0,0-.245.576.462.462,0,0,0,.852-.127C350.473,99.434,350.281,99.221,349.844,99.306Z" style="fill:#a4cf53;fill-rule:evenodd"/><path d="M349.658,128.642a.228.228,0,0,0-.148.347.279.279,0,0,0,.514-.077C350.035,128.719,349.92,128.591,349.658,128.642Z" style="fill:#a4cf53;fill-rule:evenodd"/><path d="M330.643,127.587a.3.3,0,0,0-.2.466.373.373,0,0,0,.689-.1C331.152,127.691,331,127.518,330.643,127.587Z" style="fill:#a4cf53;fill-rule:evenodd"/><path d="M321.069,117.55a.378.378,0,0,0-.245.577.463.463,0,0,0,.853-.128C321.7,117.678,321.506,117.465,321.069,117.55Z" style="fill:#a4cf53;fill-rule:evenodd"/><path d="M337.908,214.064a.228.228,0,0,0-.148.347.279.279,0,0,0,.514-.077C338.286,214.141,338.17,214.012,337.908,214.064Z" style="fill:#a4cf53;fill-rule:evenodd"/><path d="M301.354,175.263a.371.371,0,0,0-.241.568.455.455,0,0,0,.84-.126C301.974,175.389,301.784,175.179,301.354,175.263Z" style="fill:#a4cf53;fill-rule:evenodd"/><path d="M311.355,172.4a.371.371,0,0,0-.241.568.454.454,0,0,0,.839-.126C311.975,172.528,311.785,172.318,311.355,172.4Z" style="fill:#a4cf53;fill-rule:evenodd"/><path d="M279.355,177.128a.227.227,0,0,0-.147.347.278.278,0,0,0,.513-.077C279.734,177.205,279.618,177.076,279.355,177.128Z" style="fill:#a4cf53;fill-rule:evenodd"/><path d="M294.439,167.5a.372.372,0,0,0-.242.568.455.455,0,0,0,.84-.126C295.058,167.631,294.869,167.42,294.439,167.5Z" style="fill:#a4cf53;fill-rule:evenodd"/><path d="M301.663,161.758a.227.227,0,0,0-.147.347.278.278,0,0,0,.513-.077C302.041,161.836,301.926,161.707,301.663,161.758Z" style="fill:#a4cf53;fill-rule:evenodd"/><path d="M278.694,133.711a.371.371,0,0,0-.242.567.455.455,0,0,0,.84-.126C279.314,133.837,279.124,133.627,278.694,133.711Z" style="fill:#a4cf53;fill-rule:evenodd"/><path d="M295.272,118.757a.371.371,0,0,0-.241.568.455.455,0,0,0,.839-.126C295.892,118.883,295.7,118.673,295.272,118.757Z" style="fill:#a4cf53;fill-rule:evenodd"/><path d="M278.227,115.011a.371.371,0,0,0-.241.568.455.455,0,0,0,.84-.126C278.847,115.137,278.658,114.927,278.227,115.011Z" style="fill:#a4cf53;fill-rule:evenodd"/><path d="M263.8,147.475a.227.227,0,0,0-.147.347.277.277,0,0,0,.512-.077C264.181,147.552,264.065,147.424,263.8,147.475Z" style="fill:#a4cf53;fill-rule:evenodd"/><path d="M258.472,153.219a.463.463,0,0,0-.3.706.566.566,0,0,0,1.044-.156C259.242,153.377,259.007,153.115,258.472,153.219Z" style="fill:#a4cf53;fill-rule:evenodd"/><path d="M296.173,104.587a.372.372,0,0,0-.242.568.456.456,0,0,0,.841-.126C296.793,104.713,296.6,104.5,296.173,104.587Z" style="fill:#a4cf53;fill-rule:evenodd"/><path d="M311.747,102.012a.372.372,0,0,0-.241.568.456.456,0,0,0,.841-.126C312.367,102.138,312.178,101.928,311.747,102.012Z" style="fill:#a4cf53;fill-rule:evenodd"/><path d="M306.318,93.764a.228.228,0,0,0-.149.347.279.279,0,0,0,.514-.077C306.7,93.841,306.58,93.713,306.318,93.764Z" style="fill:#a4cf53;fill-rule:evenodd"/><path d="M268.878,160.8a.228.228,0,0,0-.147.348.278.278,0,0,0,.513-.077C269.257,160.88,269.141,160.752,268.878,160.8Z" style="fill:#a4cf53;fill-rule:evenodd"/><path d="M260.662,167.081a.227.227,0,0,0-.147.347.279.279,0,0,0,.514-.077C261.041,167.158,260.925,167.029,260.662,167.081Z" style="fill:#a4cf53;fill-rule:evenodd"/><path d="M248.961,158.937a.462.462,0,0,0-.3.7.565.565,0,0,0,1.043-.156C249.731,159.094,249.5,158.833,248.961,158.937Z" style="fill:#a4cf53;fill-rule:evenodd"/><path d="M232.464,161.126a.226.226,0,0,0-.147.346.278.278,0,0,0,.513-.076C232.843,161.2,232.727,161.074,232.464,161.126Z" style="fill:#a4cf53;fill-rule:evenodd"/><path d="M242.059,146.779a.463.463,0,0,0-.3.706.565.565,0,0,0,1.043-.157C242.828,146.936,242.593,146.675,242.059,146.779Z" style="fill:#a4cf53;fill-rule:evenodd"/><path d="M193.215,203.6a.226.226,0,0,0-.147.346.278.278,0,0,0,.513-.076C193.594,203.68,193.479,203.551,193.215,203.6Z" style="fill:#a4cf53;fill-rule:evenodd"/><path d="M212.217,197.985a.349.349,0,0,0-.226.534.428.428,0,0,0,.79-.118C212.8,198.1,212.622,197.905,212.217,197.985Z" style="fill:#a4cf53;fill-rule:evenodd"/><path d="M221.429,154.982a.372.372,0,0,0-.241.568.456.456,0,0,0,.841-.126C222.049,155.108,221.86,154.9,221.429,154.982Z" style="fill:#a4cf53;fill-rule:evenodd"/><path d="M205.78,152.186a.372.372,0,0,0-.242.568.456.456,0,0,0,.841-.126C206.4,152.312,206.21,152.1,205.78,152.186Z" style="fill:#a4cf53;fill-rule:evenodd"/><path d="M229.163,146.2a.227.227,0,0,0-.147.347.278.278,0,0,0,.513-.077C229.541,146.278,229.426,146.15,229.163,146.2Z" style="fill:#a4cf53;fill-rule:evenodd"/><path d="M228.067,139.281a.462.462,0,0,0-.3.7.565.565,0,0,0,1.043-.156C228.836,139.438,228.6,139.177,228.067,139.281Z" style="fill:#a4cf53;fill-rule:evenodd"/><path d="M252.976,139.313a.3.3,0,0,0-.192.45.362.362,0,0,0,.667-.1C253.467,139.413,253.318,139.246,252.976,139.313Z" style="fill:#a4cf53;fill-rule:evenodd"/><path d="M251.512,130.67a.463.463,0,0,0-.3.706.566.566,0,0,0,1.044-.157C252.282,130.827,252.046,130.566,251.512,130.67Z" style="fill:#a4cf53;fill-rule:evenodd"/><path d="M251.747,125a.226.226,0,0,0-.147.346.278.278,0,0,0,.513-.077C252.125,125.075,252.01,124.946,251.747,125Z" style="fill:#a4cf53;fill-rule:evenodd"/><path d="M237.2,125.142a.461.461,0,0,0-.3.7.565.565,0,0,0,1.043-.156C237.965,125.3,237.73,125.038,237.2,125.142Z" style="fill:#a4cf53;fill-rule:evenodd"/><path d="M236.366,130.054a.228.228,0,0,0-.148.347.279.279,0,0,0,.514-.077C236.744,130.131,236.629,130,236.366,130.054Z" style="fill:#a4cf53;fill-rule:evenodd"/><path d="M247.227,105.732a.227.227,0,0,0-.148.347.278.278,0,0,0,.513-.077C247.605,105.809,247.49,105.68,247.227,105.732Z" style="fill:#a4cf53;fill-rule:evenodd"/><path d="M262.311,106.167a.461.461,0,0,0-.3.7.565.565,0,0,0,1.043-.157C263.08,106.323,262.845,106.063,262.311,106.167Z" style="fill:#a4cf53;fill-rule:evenodd"/><path d="M235.871,97.181a.227.227,0,0,0-.147.347.279.279,0,0,0,.514-.077C236.25,97.258,236.134,97.13,235.871,97.181Z" style="fill:#a4cf53;fill-rule:evenodd"/><path d="M232.928,84.676a.462.462,0,0,0-.3.7.566.566,0,0,0,1.044-.156C233.7,84.833,233.463,84.572,232.928,84.676Z" style="fill:#a4cf53;fill-rule:evenodd"/><path d="M223.559,105.978a.323.323,0,0,0-.21.493.4.4,0,0,0,.729-.11C224.1,106.088,223.932,105.905,223.559,105.978Z" style="fill:#a4cf53;fill-rule:evenodd"/><path d="M207.594,103.637a.227.227,0,0,0-.147.348.278.278,0,0,0,.512-.078C207.972,103.714,207.857,103.586,207.594,103.637Z" style="fill:#a4cf53;fill-rule:evenodd"/><path d="M204.319,106.933a.228.228,0,0,0-.148.347.279.279,0,0,0,.514-.077C204.7,107.01,204.582,106.882,204.319,106.933Z" style="fill:#a4cf53;fill-rule:evenodd"/><path d="M210.356,112.851a.227.227,0,0,0-.148.346.279.279,0,0,0,.514-.076C210.735,112.928,210.618,112.8,210.356,112.851Z" style="fill:#a4cf53;fill-rule:evenodd"/><path d="M219.5,81.713a.294.294,0,0,0-.191.45.361.361,0,0,0,.666-.1C220,81.813,219.845,81.647,219.5,81.713Z" style="fill:#a4cf53;fill-rule:evenodd"/><path d="M205.225,87.74a.3.3,0,0,0-.191.45.361.361,0,0,0,.666-.1C205.716,87.84,205.567,87.673,205.225,87.74Z" style="fill:#a4cf53;fill-rule:evenodd"/><path d="M199.5,97.964a.227.227,0,0,0-.147.347.279.279,0,0,0,.514-.077C199.875,98.041,199.76,97.913,199.5,97.964Z" style="fill:#a4cf53;fill-rule:evenodd"/><path d="M184.6,113.18a.227.227,0,0,0-.147.347.278.278,0,0,0,.513-.076C184.976,113.257,184.86,113.13,184.6,113.18Z" style="fill:#a4cf53;fill-rule:evenodd"/><path d="M160.165,193.507a.227.227,0,0,0-.147.347.279.279,0,0,0,.514-.077C160.544,193.584,160.429,193.456,160.165,193.507Z" style="fill:#a4cf53;fill-rule:evenodd"/><path d="M168.74,174.841a.521.521,0,0,0-.339.8.638.638,0,0,0,1.178-.176C169.608,175.018,169.343,174.724,168.74,174.841Z" style="fill:#a4cf53;fill-rule:evenodd"/><path d="M162.505,177.2a.227.227,0,0,0-.148.347.278.278,0,0,0,.513-.077C162.883,177.273,162.768,177.145,162.505,177.2Z" style="fill:#a4cf53;fill-rule:evenodd"/><path d="M159.232,161.7a.35.35,0,0,0-.227.535.428.428,0,0,0,.79-.119C159.815,161.819,159.637,161.621,159.232,161.7Z" style="fill:#a4cf53;fill-rule:evenodd"/><path d="M177.472,150.059a.667.667,0,0,0-.433,1.019.818.818,0,0,0,1.508-.226C178.584,150.285,178.244,149.908,177.472,150.059Z" style="fill:#a4cf53;fill-rule:evenodd"/><path d="M140.231,181.443a.35.35,0,0,0-.227.534.428.428,0,0,0,.79-.118C140.814,181.562,140.636,181.364,140.231,181.443Z" style="fill:#a4cf53;fill-rule:evenodd"/><path d="M170.008,135.557a.35.35,0,0,0-.227.534.429.429,0,0,0,.791-.118C170.591,135.676,170.413,135.478,170.008,135.557Z" style="fill:#a4cf53;fill-rule:evenodd"/><path d="M152.787,134.8a.35.35,0,0,0-.227.535.429.429,0,0,0,.791-.119C153.37,134.923,153.193,134.725,152.787,134.8Z" style="fill:#a4cf53;fill-rule:evenodd"/><path d="M147.777,132.637a.227.227,0,0,0-.147.347.278.278,0,0,0,.513-.077C148.156,132.714,148.04,132.586,147.777,132.637Z" style="fill:#a4cf53;fill-rule:evenodd"/><path d="M198.29,129.946a.227.227,0,0,0-.147.347.279.279,0,0,0,.514-.077C198.669,130.023,198.554,129.9,198.29,129.946Z" style="fill:#a4cf53;fill-rule:evenodd"/><path d="M172.685,127.655a.227.227,0,0,0-.147.347.278.278,0,0,0,.513-.077C173.064,127.732,172.949,127.6,172.685,127.655Z" style="fill:#a4cf53;fill-rule:evenodd"/><path d="M91.662,204.268a.349.349,0,0,0-.227.534.429.429,0,0,0,.791-.119C92.245,204.386,92.067,204.189,91.662,204.268Z" style="fill:#a4cf53;fill-rule:evenodd"/><path d="M98.048,190.814a.35.35,0,0,0-.227.534.429.429,0,0,0,.791-.118C98.631,190.933,98.453,190.735,98.048,190.814Z" style="fill:#a4cf53;fill-rule:evenodd"/><path d="M76.846,210.187a.35.35,0,0,0-.228.534.429.429,0,0,0,.791-.118C77.429,210.306,77.251,210.108,76.846,210.187Z" style="fill:#a4cf53;fill-rule:evenodd"/><path d="M52.845,212.447a.35.35,0,0,0-.228.535.429.429,0,0,0,.791-.119C53.428,212.566,53.249,212.368,52.845,212.447Z" style="fill:#a4cf53;fill-rule:evenodd"/><path d="M.189,189.455a.227.227,0,0,0-.148.346.278.278,0,0,0,.514-.077C.568,189.532.452,189.4.189,189.455Z" style="fill:#a4cf53;fill-rule:evenodd"/><path d="M8.046,181.6a.226.226,0,0,0-.148.346.278.278,0,0,0,.513-.076C8.424,181.675,8.309,181.547,8.046,181.6Z" style="fill:#a4cf53;fill-rule:evenodd"/><path d="M44.591,176.159a.35.35,0,0,0-.227.534.429.429,0,0,0,.791-.118C45.174,176.277,45,176.08,44.591,176.159Z" style="fill:#a4cf53;fill-rule:evenodd"/><path d="M73.407,173.308a.349.349,0,0,0-.227.534.429.429,0,0,0,.791-.118C73.99,173.426,73.812,173.229,73.407,173.308Z" style="fill:#a4cf53;fill-rule:evenodd"/><path d="M152.536,71.836a.333.333,0,0,0-.216.509.408.408,0,0,0,.753-.112C153.092,71.949,152.922,71.761,152.536,71.836Z" style="fill:#a4cf53;fill-rule:evenodd"/><path d="M134.244,76.561a.528.528,0,0,0-.343.806.647.647,0,0,0,1.194-.178C135.124,76.74,134.855,76.442,134.244,76.561Z" style="fill:#a4cf53;fill-rule:evenodd"/><path d="M117.548,77.106a.334.334,0,0,0-.216.51.408.408,0,0,0,.753-.113C118.1,77.22,117.935,77.031,117.548,77.106Z" style="fill:#a4cf53;fill-rule:evenodd"/><path d="M146.96,118.633a.35.35,0,0,0-.227.535.429.429,0,0,0,.791-.119C147.543,118.752,147.366,118.555,146.96,118.633Z" style="fill:#a4cf53;fill-rule:evenodd"/><path d="M137.9,114.888a.227.227,0,0,0-.148.347.279.279,0,0,0,.514-.077C138.274,114.965,138.159,114.837,137.9,114.888Z" style="fill:#a4cf53;fill-rule:evenodd"/><path d="M137.309,105.969a.35.35,0,0,0-.227.535.429.429,0,0,0,.791-.119C137.893,106.088,137.715,105.89,137.309,105.969Z" style="fill:#a4cf53;fill-rule:evenodd"/><path d="M178.974,104.842a.228.228,0,0,0-.148.347.278.278,0,0,0,.513-.077C179.352,104.919,179.237,104.791,178.974,104.842Z" style="fill:#a4cf53;fill-rule:evenodd"/><path d="M162.254,98.356a.323.323,0,0,0-.209.493.4.4,0,0,0,.729-.11C162.792,98.465,162.628,98.283,162.254,98.356Z" style="fill:#a4cf53;fill-rule:evenodd"/><path d="M145,104.6a.323.323,0,0,0-.209.493.4.4,0,0,0,.729-.109C145.535,104.708,145.371,104.526,145,104.6Z" style="fill:#a4cf53;fill-rule:evenodd"/><path d="M130.353,102.849a.227.227,0,0,0-.147.347.279.279,0,0,0,.514-.077C130.732,102.926,130.617,102.8,130.353,102.849Z" style="fill:#a4cf53;fill-rule:evenodd"/><path d="M123.1,101.925a.323.323,0,0,0-.21.493.4.4,0,0,0,.729-.109C123.633,102.035,123.469,101.853,123.1,101.925Z" style="fill:#a4cf53;fill-rule:evenodd"/><path d="M134.673,91.385a.349.349,0,0,0-.227.534.428.428,0,0,0,.79-.118C135.256,91.5,135.078,91.306,134.673,91.385Z" style="fill:#a4cf53;fill-rule:evenodd"/><path d="M58.666,125a.226.226,0,0,0-.147.346.279.279,0,0,0,.514-.076C59.045,125.081,58.929,124.952,58.666,125Z" style="fill:#a4cf53;fill-rule:evenodd"/><path d="M15.725,119.852a.35.35,0,0,0-.227.534.429.429,0,0,0,.791-.119C16.309,119.97,16.131,119.773,15.725,119.852Z" style="fill:#a4cf53;fill-rule:evenodd"/><path d="M30.309,110.219a.35.35,0,0,0-.227.534.429.429,0,0,0,.791-.118C30.892,110.338,30.714,110.14,30.309,110.219Z" style="fill:#a4cf53;fill-rule:evenodd"/><path d="M25.927.011a.228.228,0,0,0-.148.347.279.279,0,0,0,.514-.077C26.305.089,26.19-.04,25.927.011Z" style="fill:#a4cf53;fill-rule:evenodd"/><path d="M54.434,7.41a.355.355,0,0,0-.231.543.436.436,0,0,0,.8-.12C55.027,7.531,54.846,7.33,54.434,7.41Z" style="fill:#a4cf53;fill-rule:evenodd"/><path d="M18.348,43.3a.228.228,0,0,0-.148.347.279.279,0,0,0,.514-.077C18.726,43.373,18.611,43.245,18.348,43.3Z" style="fill:#a4cf53;fill-rule:evenodd"/><path d="M95.176,71.01a.228.228,0,0,0-.147.348.278.278,0,0,0,.513-.078C95.554,71.088,95.439,70.96,95.176,71.01Z" style="fill:#a4cf53;fill-rule:evenodd"/><path d="M104.453,59.646a.356.356,0,0,0-.231.543.436.436,0,0,0,.8-.12C105.046,59.767,104.865,59.566,104.453,59.646Z" style="fill:#a4cf53;fill-rule:evenodd"/><path d="M89.022,80.183a.334.334,0,0,0-.216.51.408.408,0,0,0,.753-.114C89.578,80.3,89.409,80.108,89.022,80.183Z" style="fill:#a4cf53;fill-rule:evenodd"/><path d="M104.155,94.938a.228.228,0,0,0-.148.347.278.278,0,0,0,.513-.077C104.533,95.015,104.418,94.887,104.155,94.938Z" style="fill:#a4cf53;fill-rule:evenodd"/><path d="M88.879,91.161a.334.334,0,0,0-.217.51.409.409,0,0,0,.754-.113C89.435,91.274,89.265,91.086,88.879,91.161Z" style="fill:#a4cf53;fill-rule:evenodd"/><path d="M82.53,88a.228.228,0,0,0-.148.347.278.278,0,0,0,.513-.077C82.909,88.075,82.793,87.947,82.53,88Z" style="fill:#a4cf53;fill-rule:evenodd"/><path d="M65.012,75.016a.228.228,0,0,0-.148.347.278.278,0,0,0,.513-.077C65.39,75.093,65.275,74.964,65.012,75.016Z" style="fill:#a4cf53;fill-rule:evenodd"/><path d="M54.177,71.609a.527.527,0,0,0-.342.806.647.647,0,0,0,1.193-.179C55.057,71.788,54.789,71.49,54.177,71.609Z" style="fill:#a4cf53;fill-rule:evenodd"/><path d="M34.778,81.72a.226.226,0,0,0-.147.346.278.278,0,0,0,.513-.077C35.157,81.8,35.041,81.669,34.778,81.72Z" style="fill:#a4cf53;fill-rule:evenodd"/><path d="M33.855,95.518a.227.227,0,0,0-.147.347.278.278,0,0,0,.513-.076C34.234,95.6,34.118,95.467,33.855,95.518Z" style="fill:#a4cf53;fill-rule:evenodd"/><path d="M57.742,110.007a.227.227,0,0,0-.147.347.278.278,0,0,0,.513-.077C58.12,110.085,58.005,109.956,57.742,110.007Z" style="fill:#a4cf53;fill-rule:evenodd"/><path d="M75.617,106.739a.333.333,0,0,0-.217.509.409.409,0,0,0,.754-.113C76.173,106.852,76,106.664,75.617,106.739Z" style="fill:#a4cf53;fill-rule:evenodd"/><path d="M75.214,112.447a.227.227,0,0,0-.148.347.278.278,0,0,0,.513-.077C75.592,112.524,75.476,112.4,75.214,112.447Z" style="fill:#a4cf53;fill-rule:evenodd"/><path d="M88.09,111.127a.333.333,0,0,0-.216.509.409.409,0,0,0,.754-.112C88.646,111.24,88.476,111.052,88.09,111.127Z" style="fill:#a4cf53;fill-rule:evenodd"/><path d="M95,121.093a.228.228,0,0,0-.148.348.279.279,0,0,0,.514-.078C95.374,121.171,95.259,121.043,95,121.093Z" style="fill:#a4cf53;fill-rule:evenodd"/><path d="M107.391,108.16a.227.227,0,0,0-.147.347.278.278,0,0,0,.513-.077C107.77,108.237,107.654,108.109,107.391,108.16Z" style="fill:#a4cf53;fill-rule:evenodd"/><path d="M110.3,121.2a.323.323,0,0,0-.21.492.4.4,0,0,0,.729-.109C110.832,121.311,110.668,121.129,110.3,121.2Z" style="fill:#a4cf53;fill-rule:evenodd"/><path d="M135.456,62.165a.227.227,0,0,0-.147.347.279.279,0,0,0,.514-.077C135.835,62.242,135.72,62.114,135.456,62.165Z" style="fill:#a4cf53;fill-rule:evenodd"/><path d="M229.116,230.643a.521.521,0,0,0,.338-.8.638.638,0,0,0-1.177.177C228.247,230.466,228.512,230.761,229.116,230.643Z" style="fill:#a4cf53;fill-rule:evenodd"/><path d="M349.876,236.454a.522.522,0,0,0,.339-.8.639.639,0,0,0-1.178.177C349.008,236.277,349.273,236.571,349.876,236.454Z" style="fill:#a4cf53;fill-rule:evenodd"/></svg>