<svg xmlns="http://www.w3.org/2000/svg" viewBox="0 0 355.806 239.63"><title>Asset 8</title><path d="M336.8,26.443a.356.356,0,0,0-.23.544.435.435,0,0,0,.8-.121C337.4,26.564,337.214,26.363,336.8,26.443Z" style="fill:#f9ed20;fill-rule:evenodd"/><path d="M348.863,177.025a.509.509,0,0,0-.33.778.623.623,0,0,0,1.15-.173C349.712,177.2,349.453,176.91,348.863,177.025Z" style="fill:#f9ed20;fill-rule:evenodd"/><path d="M337.7,4.341a.356.356,0,0,0-.231.543.436.436,0,0,0,.8-.12C338.289,4.462,338.108,4.26,337.7,4.341Z" style="fill:#f9ed20;fill-rule:evenodd"/><path d="M318.307,185.047a.372.372,0,0,0-.241.568.455.455,0,0,0,.84-.126C318.927,185.174,318.738,184.963,318.307,185.047Z" style="fill:#f9ed20;fill-rule:evenodd"/><path d="M318.558,195.451a.372.372,0,0,0-.241.568.455.455,0,0,0,.84-.126C319.178,195.577,318.989,195.367,318.558,195.451Z" style="fill:#f9ed20;fill-rule:evenodd"/><path d="M304.611,138.6a.373.373,0,0,0-.242.569.455.455,0,0,0,.84-.126C305.23,138.722,305.041,138.511,304.611,138.6Z" style="fill:#f9ed20;fill-rule:evenodd"/><path d="M295.222,117.016a.227.227,0,0,0-.147.347.278.278,0,0,0,.513-.078C295.6,117.093,295.486,116.965,295.222,117.016Z" style="fill:#f9ed20;fill-rule:evenodd"/><path d="M278.053,117.976a.372.372,0,0,0-.242.568.456.456,0,0,0,.841-.126C278.672,118.1,278.484,117.892,278.053,117.976Z" style="fill:#f9ed20;fill-rule:evenodd"/><path d="M215.009,138.989a.372.372,0,0,0-.242.568.456.456,0,0,0,.841-.126C215.629,139.115,215.44,138.905,215.009,138.989Z" style="fill:#f9ed20;fill-rule:evenodd"/><path d="M253.731,128.486a.3.3,0,0,0-.191.451.362.362,0,0,0,.667-.1C254.223,128.586,254.073,128.42,253.731,128.486Z" style="fill:#f9ed20;fill-rule:evenodd"/><path d="M233.461,122.026a.227.227,0,0,0-.147.347.279.279,0,0,0,.514-.077C233.84,122.1,233.724,121.975,233.461,122.026Z" style="fill:#f9ed20;fill-rule:evenodd"/><path d="M218.06,119.809a.227.227,0,0,0-.147.347.278.278,0,0,0,.513-.077C218.439,119.886,218.323,119.758,218.06,119.809Z" style="fill:#f9ed20;fill-rule:evenodd"/><path d="M253.766,103.662a.462.462,0,0,0-.3.706.565.565,0,0,0,1.043-.156C254.536,103.82,254.3,103.559,253.766,103.662Z" style="fill:#f9ed20;fill-rule:evenodd"/><path d="M263.354,49.438a.3.3,0,0,0-.191.45.361.361,0,0,0,.666-.1C263.845,49.538,263.7,49.371,263.354,49.438Z" style="fill:#f9ed20;fill-rule:evenodd"/><path d="M242.347,58.29a.7.7,0,0,0-.455,1.072.86.86,0,0,0,1.587-.238C243.518,58.528,243.161,58.132,242.347,58.29Z" style="fill:#f9ed20;fill-rule:evenodd"/><path d="M217.27,100.814a.322.322,0,0,0-.209.492.4.4,0,0,0,.729-.109C217.808,100.923,217.644,100.741,217.27,100.814Z" style="fill:#f9ed20;fill-rule:evenodd"/><path d="M201.2,195.484a.226.226,0,0,0-.148.346.278.278,0,0,0,.513-.077C201.578,195.561,201.462,195.432,201.2,195.484Z" style="fill:#f9ed20;fill-rule:evenodd"/><path d="M188.018,169.4a.227.227,0,0,0-.147.347.278.278,0,0,0,.513-.077C188.4,169.478,188.281,169.35,188.018,169.4Z" style="fill:#f9ed20;fill-rule:evenodd"/><path d="M171.239,167.163a.349.349,0,0,0-.227.534.428.428,0,0,0,.79-.118C171.822,167.281,171.644,167.084,171.239,167.163Z" style="fill:#f9ed20;fill-rule:evenodd"/><path d="M155.929,179.3a.349.349,0,0,0-.227.534.428.428,0,0,0,.79-.118C156.512,179.418,156.334,179.22,155.929,179.3Z" style="fill:#f9ed20;fill-rule:evenodd"/><path d="M171.411,146.766a.667.667,0,0,0-.433,1.019.817.817,0,0,0,1.507-.225C172.523,146.993,172.183,146.616,171.411,146.766Z" style="fill:#f9ed20;fill-rule:evenodd"/><path d="M152.4,168.921a.227.227,0,0,0-.147.347.278.278,0,0,0,.513-.077C152.775,169,152.659,168.87,152.4,168.921Z" style="fill:#f9ed20;fill-rule:evenodd"/><path d="M181.3,130.569a.462.462,0,0,0-.3.705.565.565,0,0,0,1.043-.157C182.073,130.725,181.837,130.465,181.3,130.569Z" style="fill:#f9ed20;fill-rule:evenodd"/><path d="M181.263,34.416a.355.355,0,0,0-.231.543.435.435,0,0,0,.8-.12C181.856,34.536,181.674,34.335,181.263,34.416Z" style="fill:#f9ed20;fill-rule:evenodd"/><path d="M68.015,194.42a.522.522,0,0,0-.339.8.639.639,0,0,0,1.178-.177C68.884,194.6,68.619,194.3,68.015,194.42Z" style="fill:#f9ed20;fill-rule:evenodd"/><path d="M36.382,201.837a.228.228,0,0,0-.148.347.279.279,0,0,0,.514-.076C36.761,201.914,36.645,201.786,36.382,201.837Z" style="fill:#f9ed20;fill-rule:evenodd"/><path d="M17.472,208.411a.227.227,0,0,0-.147.347.278.278,0,0,0,.513-.078C17.851,208.488,17.735,208.36,17.472,208.411Z" style="fill:#f9ed20;fill-rule:evenodd"/><path d="M1.011,211.56a.349.349,0,0,0-.227.534.428.428,0,0,0,.79-.118C1.594,211.679,1.416,211.481,1.011,211.56Z" style="fill:#f9ed20;fill-rule:evenodd"/><path d="M16.982,174.59a.349.349,0,0,0-.227.534.429.429,0,0,0,.791-.119C17.565,174.708,17.387,174.51,16.982,174.59Z" style="fill:#f9ed20;fill-rule:evenodd"/><path d="M39.786,186.551a.349.349,0,0,0-.227.534.428.428,0,0,0,.79-.118C40.369,186.67,40.191,186.472,39.786,186.551Z" style="fill:#f9ed20;fill-rule:evenodd"/><path d="M38.709,178.176a.349.349,0,0,0-.227.534.428.428,0,0,0,.79-.118C39.292,178.3,39.114,178.1,38.709,178.176Z" style="fill:#f9ed20;fill-rule:evenodd"/><path d="M70.041,180.888a.227.227,0,0,0-.147.347.278.278,0,0,0,.513-.077C70.42,180.966,70.305,180.837,70.041,180.888Z" style="fill:#f9ed20;fill-rule:evenodd"/><path d="M134.406,6.9a.355.355,0,0,0-.231.543.435.435,0,0,0,.8-.12C135,7.019,134.817,6.819,134.406,6.9Z" style="fill:#f9ed20;fill-rule:evenodd"/><path d="M147.763,45.153a.227.227,0,0,0-.147.347.278.278,0,0,0,.513-.077C148.142,45.23,148.026,45.1,147.763,45.153Z" style="fill:#f9ed20;fill-rule:evenodd"/><path d="M125.586,73.1a.334.334,0,0,0-.216.51.408.408,0,0,0,.753-.113C126.143,73.21,125.973,73.021,125.586,73.1Z" style="fill:#f9ed20;fill-rule:evenodd"/><path d="M119.782,78.8a.227.227,0,0,0-.147.347.278.278,0,0,0,.513-.077C120.161,78.877,120.045,78.749,119.782,78.8Z" style="fill:#f9ed20;fill-rule:evenodd"/><path d="M115.764,67.1a.227.227,0,0,0-.147.347.278.278,0,0,0,.513-.077C116.143,67.181,116.027,67.053,115.764,67.1Z" style="fill:#f9ed20;fill-rule:evenodd"/><path d="M172.147,105.26a.35.35,0,0,0-.228.534.429.429,0,0,0,.791-.119C172.73,105.378,172.552,105.18,172.147,105.26Z" style="fill:#f9ed20;fill-rule:evenodd"/><path d="M136.109,162.858a.35.35,0,0,0-.227.534.429.429,0,0,0,.791-.118C136.693,162.977,136.515,162.779,136.109,162.858Z" style="fill:#f9ed20;fill-rule:evenodd"/><path d="M133.146,169.26a.228.228,0,0,0-.148.348.279.279,0,0,0,.514-.077C133.525,169.338,133.409,169.209,133.146,169.26Z" style="fill:#f9ed20;fill-rule:evenodd"/><path d="M58.593,134.722a.227.227,0,0,0-.148.347.278.278,0,0,0,.513-.077C58.971,134.8,58.855,134.671,58.593,134.722Z" style="fill:#f9ed20;fill-rule:evenodd"/><path d="M28.081,138.393a.228.228,0,0,0-.148.347.279.279,0,0,0,.514-.077C28.459,138.47,28.344,138.342,28.081,138.393Z" style="fill:#f9ed20;fill-rule:evenodd"/><path d="M108.936,51.412a.228.228,0,0,0-.147.348.278.278,0,0,0,.513-.078C109.315,51.489,109.2,51.362,108.936,51.412Z" style="fill:#f9ed20;fill-rule:evenodd"/><path d="M99.046,79.266a.333.333,0,0,0-.216.509.409.409,0,0,0,.754-.113C99.6,79.379,99.433,79.191,99.046,79.266Z" style="fill:#f9ed20;fill-rule:evenodd"/><path d="M115.627,90.32a.228.228,0,0,0-.148.347.279.279,0,0,0,.514-.077C116.006,90.4,115.89,90.269,115.627,90.32Z" style="fill:#f9ed20;fill-rule:evenodd"/><path d="M99.913,91.5a.227.227,0,0,0-.147.347.278.278,0,0,0,.513-.077C100.292,91.581,100.176,91.453,99.913,91.5Z" style="fill:#f9ed20;fill-rule:evenodd"/><path d="M84.741,100.132a.227.227,0,0,0-.147.347.278.278,0,0,0,.513-.077C85.12,100.209,85,100.081,84.741,100.132Z" style="fill:#f9ed20;fill-rule:evenodd"/><path d="M81.85,88.437a.227.227,0,0,0-.148.346.278.278,0,0,0,.514-.077C82.228,88.514,82.113,88.385,81.85,88.437Z" style="fill:#f9ed20;fill-rule:evenodd"/><path d="M45.3,89.268a.528.528,0,0,0-.343.806.647.647,0,0,0,1.193-.178C46.179,89.447,45.91,89.149,45.3,89.268Z" style="fill:#f9ed20;fill-rule:evenodd"/><path d="M30.52,83.042a.227.227,0,0,0-.147.347.278.278,0,0,0,.513-.077C30.9,83.119,30.784,82.99,30.52,83.042Z" style="fill:#f9ed20;fill-rule:evenodd"/><path d="M71.212,105.854a.227.227,0,0,0-.148.347.279.279,0,0,0,.514-.077C71.59,105.931,71.475,105.8,71.212,105.854Z" style="fill:#f9ed20;fill-rule:evenodd"/><path d="M78.853,119.38a.226.226,0,0,0-.147.346.278.278,0,0,0,.513-.077C79.232,119.457,79.116,119.328,78.853,119.38Z" style="fill:#f9ed20;fill-rule:evenodd"/><path d="M94.685,113.96a.227.227,0,0,0-.148.347.278.278,0,0,0,.513-.077C95.063,114.037,94.947,113.909,94.685,113.96Z" style="fill:#f9ed20;fill-rule:evenodd"/><path d="M135.449,60.346a.227.227,0,0,0-.148.347.278.278,0,0,0,.513-.078C135.827,60.423,135.711,60.3,135.449,60.346Z" style="fill:#f9ed20;fill-rule:evenodd"/><path d="M46.192,235.227a.227.227,0,0,0,.147-.347.278.278,0,0,0-.513.077C45.813,235.15,45.929,235.279,46.192,235.227Z" style="fill:#f9ed20;fill-rule:evenodd"/><path d="M325.637,129.751a.305.305,0,0,0-.2.466.374.374,0,0,0,.689-.1C326.145,129.854,325.991,129.682,325.637,129.751Z" style="fill:#f89633;fill-rule:evenodd"/><path d="M329.679,184.4a.372.372,0,0,0-.241.568.456.456,0,0,0,.841-.126C330.3,184.528,330.111,184.317,329.679,184.4Z" style="fill:#f89633;fill-rule:evenodd"/><path d="M325.909,210.146a.372.372,0,0,0-.242.568.456.456,0,0,0,.841-.126C326.529,210.272,326.34,210.062,325.909,210.146Z" style="fill:#f89633;fill-rule:evenodd"/><path d="M307.669,192.707a.372.372,0,0,0-.241.568.456.456,0,0,0,.841-.126C308.29,192.833,308.1,192.623,307.669,192.707Z" style="fill:#f89633;fill-rule:evenodd"/><path d="M298.481,179.676a.372.372,0,0,0-.241.568.456.456,0,0,0,.841-.126C299.1,179.8,298.912,179.592,298.481,179.676Z" style="fill:#f89633;fill-rule:evenodd"/><path d="M286.978,164.355a.372.372,0,0,0-.241.568.455.455,0,0,0,.84-.126C287.6,164.481,287.409,164.271,286.978,164.355Z" style="fill:#f89633;fill-rule:evenodd"/><path d="M311.777,147.359a.37.37,0,0,0-.241.567.455.455,0,0,0,.84-.125C312.4,147.485,312.207,147.275,311.777,147.359Z" style="fill:#f89633;fill-rule:evenodd"/><path d="M298.431,122.9a.462.462,0,0,0-.3.7.566.566,0,0,0,1.044-.156C299.2,123.061,298.966,122.8,298.431,122.9Z" style="fill:#f89633;fill-rule:evenodd"/><path d="M277.586,112.917a.372.372,0,0,0-.241.568.456.456,0,0,0,.841-.125C278.207,113.043,278.017,112.833,277.586,112.917Z" style="fill:#f89633;fill-rule:evenodd"/><path d="M268.342,136.9a.227.227,0,0,0-.147.347.278.278,0,0,0,.513-.077C268.721,136.977,268.605,136.849,268.342,136.9Z" style="fill:#f89633;fill-rule:evenodd"/><path d="M261.307,139.259a.372.372,0,0,0-.241.568.456.456,0,0,0,.841-.126C261.927,139.385,261.738,139.175,261.307,139.259Z" style="fill:#f89633;fill-rule:evenodd"/><path d="M316.641,89.053a.373.373,0,0,0-.241.569.456.456,0,0,0,.841-.127C317.261,89.18,317.072,88.97,316.641,89.053Z" style="fill:#f89633;fill-rule:evenodd"/><path d="M271.945,154.968a.461.461,0,0,0-.3.705.566.566,0,0,0,1.043-.157C272.715,155.124,272.48,154.864,271.945,154.968Z" style="fill:#f89633;fill-rule:evenodd"/><path d="M260.823,170.489a.37.37,0,0,0-.241.567.454.454,0,0,0,.839-.125C261.443,170.614,261.253,170.405,260.823,170.489Z" style="fill:#f89633;fill-rule:evenodd"/><path d="M246.509,141.083a.462.462,0,0,0-.3.705.566.566,0,0,0,1.044-.156C247.279,141.24,247.043,140.979,246.509,141.083Z" style="fill:#f89633;fill-rule:evenodd"/><path d="M253.4,136.6a.462.462,0,0,0-.3.7.566.566,0,0,0,1.044-.156C254.166,136.755,253.932,136.494,253.4,136.6Z" style="fill:#f89633;fill-rule:evenodd"/><path d="M238.294,133.066a.227.227,0,0,0-.147.347.279.279,0,0,0,.514-.077C238.673,133.143,238.558,133.015,238.294,133.066Z" style="fill:#f89633;fill-rule:evenodd"/><path d="M247.387,125.261a.462.462,0,0,0-.3.706.566.566,0,0,0,1.043-.157C248.157,125.418,247.922,125.157,247.387,125.261Z" style="fill:#f89633;fill-rule:evenodd"/><path d="M249.677,100.359a.3.3,0,0,0-.191.45.361.361,0,0,0,.666-.1C250.169,100.459,250.019,100.292,249.677,100.359Z" style="fill:#f89633;fill-rule:evenodd"/><path d="M267.765,96.273a.462.462,0,0,0-.3.7.566.566,0,0,0,1.044-.156C268.536,96.43,268.3,96.169,267.765,96.273Z" style="fill:#f89633;fill-rule:evenodd"/><path d="M259.239,56.644a.3.3,0,0,0-.192.45.361.361,0,0,0,.666-.1C259.73,56.744,259.581,56.577,259.239,56.644Z" style="fill:#f89633;fill-rule:evenodd"/><path d="M216.069,111.773a.322.322,0,0,0-.209.492.4.4,0,0,0,.729-.109C216.607,111.882,216.443,111.7,216.069,111.773Z" style="fill:#f89633;fill-rule:evenodd"/><path d="M163.715,207.068a.349.349,0,0,0-.227.534.428.428,0,0,0,.79-.118C164.3,207.186,164.12,206.989,163.715,207.068Z" style="fill:#f89633;fill-rule:evenodd"/><path d="M208.138,133.367a.462.462,0,0,0-.3.705.566.566,0,0,0,1.044-.156C208.908,133.524,208.673,133.263,208.138,133.367Z" style="fill:#f89633;fill-rule:evenodd"/><path d="M182.193,90.033a.228.228,0,0,0-.148.348.278.278,0,0,0,.513-.078C182.571,90.111,182.456,89.982,182.193,90.033Z" style="fill:#f89633;fill-rule:evenodd"/><path d="M220.274,28.852a.228.228,0,0,0-.148.347.279.279,0,0,0,.514-.077C220.653,28.929,220.538,28.8,220.274,28.852Z" style="fill:#f89633;fill-rule:evenodd"/><path d="M193.707,23.633a.226.226,0,0,0-.147.346.279.279,0,0,0,.514-.076C194.086,23.71,193.97,23.581,193.707,23.633Z" style="fill:#f89633;fill-rule:evenodd"/><path d="M170.173,36.864a.227.227,0,0,0-.147.347.279.279,0,0,0,.514-.076C170.552,36.942,170.436,36.813,170.173,36.864Z" style="fill:#f89633;fill-rule:evenodd"/><path d="M155.774,26.781a.537.537,0,0,0-.348.819.657.657,0,0,0,1.211-.182C156.667,26.963,156.394,26.66,155.774,26.781Z" style="fill:#f89633;fill-rule:evenodd"/><path d="M173.065,21.482a.356.356,0,0,0-.231.544.436.436,0,0,0,.8-.121C173.658,21.6,173.477,21.4,173.065,21.482Z" style="fill:#f89633;fill-rule:evenodd"/><path d="M129.984,210.374a.521.521,0,0,0-.338.8.639.639,0,0,0,1.178-.177C130.853,210.551,130.588,210.256,129.984,210.374Z" style="fill:#f89633;fill-rule:evenodd"/><path d="M107.858,216.4a.349.349,0,0,0-.227.534.428.428,0,0,0,.79-.118C108.441,216.522,108.263,216.324,107.858,216.4Z" style="fill:#f89633;fill-rule:evenodd"/><path d="M111.432,189.028a.35.35,0,0,0-.227.535.428.428,0,0,0,.79-.119C112.015,189.147,111.837,188.949,111.432,189.028Z" style="fill:#f89633;fill-rule:evenodd"/><path d="M72.435,210.41a.351.351,0,0,0-.228.535.429.429,0,0,0,.791-.119C73.018,210.529,72.84,210.332,72.435,210.41Z" style="fill:#f89633;fill-rule:evenodd"/><path d="M34.248,203.539a.521.521,0,0,0-.338.8.639.639,0,0,0,1.178-.177C35.117,203.716,34.852,203.421,34.248,203.539Z" style="fill:#f89633;fill-rule:evenodd"/><path d="M23.51,191.543a.228.228,0,0,0-.148.347.279.279,0,0,0,.514-.076C23.889,191.62,23.773,191.492,23.51,191.543Z" style="fill:#f89633;fill-rule:evenodd"/><path d="M50.668,171.453a.227.227,0,0,0-.148.347.279.279,0,0,0,.514-.077C51.047,171.53,50.931,171.4,50.668,171.453Z" style="fill:#f89633;fill-rule:evenodd"/><path d="M66.059,171.489a.227.227,0,0,0-.147.347.278.278,0,0,0,.513-.077C66.437,171.566,66.322,171.438,66.059,171.489Z" style="fill:#f89633;fill-rule:evenodd"/><path d="M69.18,168.08a.227.227,0,0,0-.147.347.278.278,0,0,0,.513-.076C69.559,168.157,69.443,168.029,69.18,168.08Z" style="fill:#f89633;fill-rule:evenodd"/><path d="M62.14,165.464a.35.35,0,0,0-.227.534.429.429,0,0,0,.791-.118C62.724,165.583,62.545,165.385,62.14,165.464Z" style="fill:#f89633;fill-rule:evenodd"/><path d="M137.022,38.668a.356.356,0,0,0-.232.543.437.437,0,0,0,.805-.12C137.614,38.788,137.434,38.588,137.022,38.668Z" style="fill:#f89633;fill-rule:evenodd"/><path d="M158.825,80.576a.334.334,0,0,0-.217.51.409.409,0,0,0,.754-.113C159.381,80.69,159.211,80.5,158.825,80.576Z" style="fill:#f89633;fill-rule:evenodd"/><path d="M133.268,70.045a.333.333,0,0,0-.217.509.409.409,0,0,0,.754-.113C133.824,70.158,133.654,69.969,133.268,70.045Z" style="fill:#f89633;fill-rule:evenodd"/><path d="M143.681,132.694a.667.667,0,0,0-.433,1.019.817.817,0,0,0,1.507-.225C144.792,132.921,144.454,132.544,143.681,132.694Z" style="fill:#f89633;fill-rule:evenodd"/><path d="M172.154,113.691a.468.468,0,0,0-.3.716.574.574,0,0,0,1.059-.159C172.936,113.85,172.7,113.585,172.154,113.691Z" style="fill:#f89633;fill-rule:evenodd"/><path d="M159.027,99.691a.323.323,0,0,0-.21.493.4.4,0,0,0,.729-.109C159.564,99.8,159.4,99.618,159.027,99.691Z" style="fill:#f89633;fill-rule:evenodd"/><path d="M31.082,147.52a.349.349,0,0,0-.227.534.428.428,0,0,0,.79-.118C31.665,147.639,31.487,147.441,31.082,147.52Z" style="fill:#f89633;fill-rule:evenodd"/><path d="M6.752,110.894a.227.227,0,0,0-.147.347.278.278,0,0,0,.513-.077C7.131,110.971,7.016,110.843,6.752,110.894Z" style="fill:#f89633;fill-rule:evenodd"/><path d="M36.942,1.527a.226.226,0,0,0-.147.346.278.278,0,0,0,.513-.077C37.321,1.6,37.206,1.475,36.942,1.527Z" style="fill:#f89633;fill-rule:evenodd"/><path d="M46,27.957a.356.356,0,0,0-.231.544.436.436,0,0,0,.8-.121C46.588,28.078,46.407,27.877,46,27.957Z" style="fill:#f89633;fill-rule:evenodd"/><path d="M12.4,56.117a.227.227,0,0,0-.148.347.278.278,0,0,0,.513-.077C12.782,56.194,12.667,56.066,12.4,56.117Z" style="fill:#f89633;fill-rule:evenodd"/><path d="M93.872,30.343a.356.356,0,0,0-.231.544.436.436,0,0,0,.8-.12C94.465,30.464,94.284,30.263,93.872,30.343Z" style="fill:#f89633;fill-rule:evenodd"/><path d="M90.744,58.068a.356.356,0,0,0-.231.544.436.436,0,0,0,.8-.121C91.337,58.189,91.156,57.988,90.744,58.068Z" style="fill:#f89633;fill-rule:evenodd"/><path d="M74.221,70.854a.356.356,0,0,0-.231.543.435.435,0,0,0,.8-.12C74.814,70.975,74.633,70.774,74.221,70.854Z" style="fill:#f89633;fill-rule:evenodd"/><path d="M106.787,72.462a.356.356,0,0,0-.231.543.436.436,0,0,0,.8-.12C107.38,72.583,107.2,72.382,106.787,72.462Z" style="fill:#f89633;fill-rule:evenodd"/><path d="M126.317,59.138a.356.356,0,0,0-.231.543.437.437,0,0,0,.805-.12C126.911,59.259,126.729,59.058,126.317,59.138Z" style="fill:#f89633;fill-rule:evenodd"/><path d="M98.006,86.549a.333.333,0,0,0-.216.509.408.408,0,0,0,.753-.113C98.562,86.662,98.393,86.473,98.006,86.549Z" style="fill:#f89633;fill-rule:evenodd"/><path d="M79.984,92.813a.227.227,0,0,0-.147.347.278.278,0,0,0,.513-.077C80.363,92.89,80.247,92.762,79.984,92.813Z" style="fill:#f89633;fill-rule:evenodd"/><path d="M49.337,79.346a.343.343,0,0,0-.222.523.419.419,0,0,0,.773-.116C49.907,79.463,49.733,79.269,49.337,79.346Z" style="fill:#f89633;fill-rule:evenodd"/><path d="M44.538,93.262a.227.227,0,0,0-.147.347.278.278,0,0,0,.513-.077C44.916,93.339,44.8,93.211,44.538,93.262Z" style="fill:#f89633;fill-rule:evenodd"/><path d="M58.34,107.51a.392.392,0,0,0-.255.6.48.48,0,0,0,.886-.133C58.993,107.644,58.793,107.422,58.34,107.51Z" style="fill:#f89633;fill-rule:evenodd"/><path d="M85.233,113.779a.333.333,0,0,0-.216.509.409.409,0,0,0,.754-.113C85.79,113.892,85.62,113.7,85.233,113.779Z" style="fill:#f89633;fill-rule:evenodd"/><path d="M92.737,127.918a.227.227,0,0,0-.147.347.278.278,0,0,0,.513-.077C93.116,128,93,127.867,92.737,127.918Z" style="fill:#f89633;fill-rule:evenodd"/><path d="M109.294,113.154a.323.323,0,0,0-.209.493.4.4,0,0,0,.729-.11C109.832,113.263,109.668,113.081,109.294,113.154Z" style="fill:#f89633;fill-rule:evenodd"/><path d="M64.764,228.231a.226.226,0,0,0,.148-.346.278.278,0,0,0-.513.076C64.386,228.154,64.5,228.282,64.764,228.231Z" style="fill:#f89633;fill-rule:evenodd"/><path d="M141.657,226.176a.227.227,0,0,0,.148-.347.279.279,0,0,0-.514.077C141.279,226.1,141.394,226.227,141.657,226.176Z" style="fill:#f89633;fill-rule:evenodd"/><path d="M147.828,236.975a.228.228,0,0,0,.148-.347.279.279,0,0,0-.514.077C147.449,236.9,147.565,237.026,147.828,236.975Z" style="fill:#f89633;fill-rule:evenodd"/><path d="M191.5,229.464a.35.35,0,0,0,.227-.535.428.428,0,0,0-.79.119C190.918,229.345,191.1,229.543,191.5,229.464Z" style="fill:#f89633;fill-rule:evenodd"/><path d="M320.968,232.992a.521.521,0,0,0,.339-.795.639.639,0,0,0-1.179.176C320.1,232.816,320.365,233.11,320.968,232.992Z" style="fill:#f89633;fill-rule:evenodd"/><path d="M334.727,224.634a.522.522,0,0,0,.338-.8.639.639,0,0,0-1.178.177C333.858,224.456,334.123,224.751,334.727,224.634Z" style="fill:#f89633;fill-rule:evenodd"/><path d="M347.212,31.556a.227.227,0,0,0-.147.347.279.279,0,0,0,.514-.077C347.591,31.634,347.475,31.505,347.212,31.556Z" style="fill:#ffd416;fill-rule:evenodd"/><path d="M341.774,88.278a.228.228,0,0,0-.148.347.278.278,0,0,0,.513-.077C342.153,88.355,342.037,88.227,341.774,88.278Z" style="fill:#ffd416;fill-rule:evenodd"/><path d="M354.248,131.9a.305.305,0,0,0-.2.466.374.374,0,0,0,.69-.1C354.757,132.007,354.6,131.834,354.248,131.9Z" style="fill:#ffd416;fill-rule:evenodd"/><path d="M329.3,18.251a.356.356,0,0,0-.231.544.435.435,0,0,0,.8-.121C329.9,18.372,329.714,18.171,329.3,18.251Z" style="fill:#ffd416;fill-rule:evenodd"/><path d="M285.171,2.8a.227.227,0,0,0-.147.347.278.278,0,0,0,.513-.077C285.549,2.876,285.434,2.747,285.171,2.8Z" style="fill:#ffd416;fill-rule:evenodd"/><path d="M324.965,168.5a.227.227,0,0,0-.147.347.278.278,0,0,0,.513-.077C325.344,168.576,325.228,168.448,324.965,168.5Z" style="fill:#ffd416;fill-rule:evenodd"/><path d="M331.33,208.8a.372.372,0,0,0-.242.568.456.456,0,0,0,.841-.126C331.95,208.923,331.76,208.713,331.33,208.8Z" style="fill:#ffd416;fill-rule:evenodd"/><path d="M304.19,192.42a.372.372,0,0,0-.241.568.455.455,0,0,0,.84-.126C304.81,192.546,304.621,192.336,304.19,192.42Z" style="fill:#ffd416;fill-rule:evenodd"/><path d="M290.649,189.917a.227.227,0,0,0-.147.347.278.278,0,0,0,.513-.077C291.028,189.994,290.913,189.866,290.649,189.917Z" style="fill:#ffd416;fill-rule:evenodd"/><path d="M283.778,168.77a.373.373,0,0,0-.242.569.455.455,0,0,0,.84-.126C284.4,168.9,284.208,168.686,283.778,168.77Z" style="fill:#ffd416;fill-rule:evenodd"/><path d="M269.376,200.907a.227.227,0,0,0-.147.347.278.278,0,0,0,.513-.077C269.755,200.985,269.639,200.856,269.376,200.907Z" style="fill:#ffd416;fill-rule:evenodd"/><path d="M270.02,184.8a.227.227,0,0,0-.147.347.278.278,0,0,0,.513-.077C270.4,184.881,270.283,184.753,270.02,184.8Z" style="fill:#ffd416;fill-rule:evenodd"/><path d="M305.57,118.514a.371.371,0,0,0-.241.568.455.455,0,0,0,.84-.126C306.19,118.64,306,118.43,305.57,118.514Z" style="fill:#ffd416;fill-rule:evenodd"/><path d="M275.132,139.008a.227.227,0,0,0-.148.347.279.279,0,0,0,.514-.077C275.51,139.085,275.4,138.957,275.132,139.008Z" style="fill:#ffd416;fill-rule:evenodd"/><path d="M301.74,102.2a.372.372,0,0,0-.242.568.456.456,0,0,0,.841-.126C302.36,102.325,302.17,102.115,301.74,102.2Z" style="fill:#ffd416;fill-rule:evenodd"/><path d="M314.727,66.143a.373.373,0,0,0-.241.569.455.455,0,0,0,.84-.127C315.347,66.27,315.158,66.06,314.727,66.143Z" style="fill:#ffd416;fill-rule:evenodd"/><path d="M246.544,183.8a.371.371,0,0,0-.241.567.455.455,0,0,0,.84-.125C247.165,183.925,246.975,183.715,246.544,183.8Z" style="fill:#ffd416;fill-rule:evenodd"/><path d="M251.8,174.982a.227.227,0,0,0-.147.347.277.277,0,0,0,.512-.077C252.181,175.059,252.066,174.931,251.8,174.982Z" style="fill:#ffd416;fill-rule:evenodd"/><path d="M234.6,153.373a.461.461,0,0,0-.3.7.566.566,0,0,0,1.044-.156C235.37,153.53,235.134,153.268,234.6,153.373Z" style="fill:#ffd416;fill-rule:evenodd"/><path d="M213.559,210.356a.226.226,0,0,0-.147.346.278.278,0,0,0,.513-.076C213.938,210.433,213.822,210.3,213.559,210.356Z" style="fill:#ffd416;fill-rule:evenodd"/><path d="M204.285,173.886a.228.228,0,0,0-.148.347.279.279,0,0,0,.514-.077C204.664,173.963,204.547,173.835,204.285,173.886Z" style="fill:#ffd416;fill-rule:evenodd"/><path d="M181.994,192.484a.351.351,0,0,0-.228.535.429.429,0,0,0,.791-.119C182.577,192.6,182.4,192.405,181.994,192.484Z" style="fill:#ffd416;fill-rule:evenodd"/><path d="M183.943,188.524a.227.227,0,0,0-.148.346.279.279,0,0,0,.514-.076C184.322,188.6,184.207,188.472,183.943,188.524Z" style="fill:#ffd416;fill-rule:evenodd"/><path d="M178.477,212a.351.351,0,0,0-.227.535.428.428,0,0,0,.79-.119C179.061,212.119,178.882,211.922,178.477,212Z" style="fill:#ffd416;fill-rule:evenodd"/><path d="M173.073,185.582a.226.226,0,0,0-.148.346.278.278,0,0,0,.513-.077C173.451,185.658,173.335,185.531,173.073,185.582Z" style="fill:#ffd416;fill-rule:evenodd"/><path d="M173.807,163.93a.227.227,0,0,0-.147.347.278.278,0,0,0,.513-.077C174.186,164.007,174.07,163.879,173.807,163.93Z" style="fill:#ffd416;fill-rule:evenodd"/><path d="M201.207,70.265a.228.228,0,0,0-.148.348.279.279,0,0,0,.514-.078C201.585,70.343,201.47,70.214,201.207,70.265Z" style="fill:#ffd416;fill-rule:evenodd"/><path d="M179.622,63.463a.333.333,0,0,0-.217.509.409.409,0,0,0,.754-.112C180.177,63.576,180.007,63.388,179.622,63.463Z" style="fill:#ffd416;fill-rule:evenodd"/><path d="M252.273,3.282a.536.536,0,0,0-.348.818.656.656,0,0,0,1.211-.181C253.166,3.464,252.894,3.161,252.273,3.282Z" style="fill:#ffd416;fill-rule:evenodd"/><path d="M205.53,20.488a.226.226,0,0,0-.148.346.278.278,0,0,0,.513-.076C205.908,20.565,205.792,20.436,205.53,20.488Z" style="fill:#ffd416;fill-rule:evenodd"/><path d="M186.931,29.86a.355.355,0,0,0-.23.543.435.435,0,0,0,.8-.121C187.524,29.98,187.343,29.78,186.931,29.86Z" style="fill:#ffd416;fill-rule:evenodd"/><path d="M166.114,34.045a.356.356,0,0,0-.231.543.436.436,0,0,0,.8-.12C166.707,34.166,166.526,33.965,166.114,34.045Z" style="fill:#ffd416;fill-rule:evenodd"/><path d="M152.472,40.353a.356.356,0,0,0-.231.543.436.436,0,0,0,.8-.12C153.065,40.473,152.884,40.273,152.472,40.353Z" style="fill:#ffd416;fill-rule:evenodd"/><path d="M146.424,10.029a.227.227,0,0,0-.148.347.279.279,0,0,0,.514-.077C146.8,10.106,146.687,9.977,146.424,10.029Z" style="fill:#ffd416;fill-rule:evenodd"/><path d="M136.307,16.056a.227.227,0,0,0-.147.347.278.278,0,0,0,.513-.077C136.686,16.133,136.57,16.005,136.307,16.056Z" style="fill:#ffd416;fill-rule:evenodd"/><path d="M102.821,185.763a.351.351,0,0,0-.227.535.429.429,0,0,0,.791-.119C103.405,185.883,103.227,185.685,102.821,185.763Z" style="fill:#ffd416;fill-rule:evenodd"/><path d="M124.37,174.587a.521.521,0,0,0-.338.8.638.638,0,0,0,1.177-.177C125.239,174.764,124.973,174.47,124.37,174.587Z" style="fill:#ffd416;fill-rule:evenodd"/><path d="M80.112,205.029a.35.35,0,0,0-.227.535.429.429,0,0,0,.791-.119C80.695,205.148,80.517,204.95,80.112,205.029Z" style="fill:#ffd416;fill-rule:evenodd"/><path d="M62.5,208.151a.35.35,0,0,0-.228.534.429.429,0,0,0,.791-.119C63.08,208.269,62.9,208.072,62.5,208.151Z" style="fill:#ffd416;fill-rule:evenodd"/><path d="M60.38,189.475a.349.349,0,0,0-.227.534.428.428,0,0,0,.79-.119C60.963,189.593,60.785,189.4,60.38,189.475Z" style="fill:#ffd416;fill-rule:evenodd"/><path d="M43.361,204.149a.522.522,0,0,0-.339.8.639.639,0,0,0,1.178-.176C44.229,204.326,43.964,204.031,43.361,204.149Z" style="fill:#ffd416;fill-rule:evenodd"/><path d="M22.616,205.656a.227.227,0,0,0-.148.346.278.278,0,0,0,.513-.076C22.994,205.733,22.879,205.6,22.616,205.656Z" style="fill:#ffd416;fill-rule:evenodd"/><path d="M1.571,199.424a.522.522,0,0,0-.339.8.638.638,0,0,0,1.178-.176C2.439,199.6,2.175,199.307,1.571,199.424Z" style="fill:#ffd416;fill-rule:evenodd"/><path d="M27.269,186.319a.521.521,0,0,0-.338.8.639.639,0,0,0,1.178-.176C28.139,186.5,27.873,186.2,27.269,186.319Z" style="fill:#ffd416;fill-rule:evenodd"/><path d="M20.093,180.927a.349.349,0,0,0-.226.534.428.428,0,0,0,.79-.118C20.677,181.046,20.5,180.848,20.093,180.927Z" style="fill:#ffd416;fill-rule:evenodd"/><path d="M4.316,170.771a.227.227,0,0,0-.147.347.278.278,0,0,0,.513-.077C4.7,170.848,4.58,170.72,4.316,170.771Z" style="fill:#ffd416;fill-rule:evenodd"/><path d="M56.4,173.424a.349.349,0,0,0-.227.534.429.429,0,0,0,.791-.118C56.987,173.543,56.809,173.344,56.4,173.424Z" style="fill:#ffd416;fill-rule:evenodd"/><path d="M72.77,161.187a.227.227,0,0,0-.147.347.278.278,0,0,0,.513-.077C73.149,161.264,73.033,161.136,72.77,161.187Z" style="fill:#ffd416;fill-rule:evenodd"/><path d="M112.5,152.641a.35.35,0,0,0-.227.535.429.429,0,0,0,.791-.119C113.079,152.76,112.9,152.562,112.5,152.641Z" style="fill:#ffd416;fill-rule:evenodd"/><path d="M96.8,152.921a.227.227,0,0,0-.148.347.279.279,0,0,0,.514-.077C97.175,153,97.06,152.87,96.8,152.921Z" style="fill:#ffd416;fill-rule:evenodd"/><path d="M137.825,45.835a.227.227,0,0,0-.147.347.278.278,0,0,0,.513-.077C138.2,45.912,138.088,45.783,137.825,45.835Z" style="fill:#ffd416;fill-rule:evenodd"/><path d="M122.86,40.037a.356.356,0,0,0-.231.544.436.436,0,0,0,.8-.121C123.453,40.158,123.272,39.957,122.86,40.037Z" style="fill:#ffd416;fill-rule:evenodd"/><path d="M105.483,36.023a.226.226,0,0,0-.147.346.278.278,0,0,0,.513-.077C105.862,36.1,105.746,35.971,105.483,36.023Z" style="fill:#ffd416;fill-rule:evenodd"/><path d="M143.291,82.837a.333.333,0,0,0-.217.509.409.409,0,0,0,.754-.113C143.847,82.95,143.677,82.761,143.291,82.837Z" style="fill:#ffd416;fill-rule:evenodd"/><path d="M114.6,72.676a.528.528,0,0,0-.342.807.647.647,0,0,0,1.193-.179C115.484,72.856,115.215,72.557,114.6,72.676Z" style="fill:#ffd416;fill-rule:evenodd"/><path d="M117.2,76.975a.227.227,0,0,0-.147.347.278.278,0,0,0,.513-.077C117.576,77.052,117.46,76.924,117.2,76.975Z" style="fill:#ffd416;fill-rule:evenodd"/><path d="M134.692,122.911a.35.35,0,0,0-.227.534.429.429,0,0,0,.791-.118C135.276,123.03,135.1,122.832,134.692,122.911Z" style="fill:#ffd416;fill-rule:evenodd"/><path d="M169.269,119.884a.322.322,0,0,0-.21.492.4.4,0,0,0,.729-.109C169.807,119.993,169.643,119.811,169.269,119.884Z" style="fill:#ffd416;fill-rule:evenodd"/><path d="M123.086,92.936a.35.35,0,0,0-.227.534.429.429,0,0,0,.791-.118C123.669,93.055,123.492,92.857,123.086,92.936Z" style="fill:#ffd416;fill-rule:evenodd"/><path d="M98.835,139.279a.226.226,0,0,0-.147.346.279.279,0,0,0,.514-.076C99.214,139.356,99.1,139.227,98.835,139.279Z" style="fill:#ffd416;fill-rule:evenodd"/><path d="M56.41,142.641a.35.35,0,0,0-.226.535.428.428,0,0,0,.79-.119C56.994,142.76,56.816,142.563,56.41,142.641Z" style="fill:#ffd416;fill-rule:evenodd"/><path d="M61.18,126.841a.227.227,0,0,0-.148.347.278.278,0,0,0,.513-.076C61.558,126.918,61.442,126.79,61.18,126.841Z" style="fill:#ffd416;fill-rule:evenodd"/><path d="M3.537,130.391a.349.349,0,0,0-.227.534.428.428,0,0,0,.79-.119C4.12,130.51,3.942,130.312,3.537,130.391Z" style="fill:#ffd416;fill-rule:evenodd"/><path d="M21.21,117.568a.226.226,0,0,0-.147.346.278.278,0,0,0,.513-.077C21.589,117.644,21.474,117.516,21.21,117.568Z" style="fill:#ffd416;fill-rule:evenodd"/><path d="M90.93,12.8a.356.356,0,0,0-.231.543.436.436,0,0,0,.8-.121C91.523,12.921,91.342,12.719,90.93,12.8Z" style="fill:#ffd416;fill-rule:evenodd"/><path d="M70.893,16.118a.356.356,0,0,0-.231.543.436.436,0,0,0,.8-.12C71.486,16.239,71.305,16.038,70.893,16.118Z" style="fill:#ffd416;fill-rule:evenodd"/><path d="M8.54,68.892a.356.356,0,0,0-.231.543.436.436,0,0,0,.8-.12C9.133,69.013,8.952,68.812,8.54,68.892Z" style="fill:#ffd416;fill-rule:evenodd"/><path d="M123.057,60.955a.228.228,0,0,0-.148.347.278.278,0,0,0,.513-.077C123.436,61.032,123.32,60.9,123.057,60.955Z" style="fill:#ffd416;fill-rule:evenodd"/><path d="M97.333,50.632a.356.356,0,0,0-.231.543.437.437,0,0,0,.8-.121C97.927,50.752,97.746,50.551,97.333,50.632Z" style="fill:#ffd416;fill-rule:evenodd"/><path d="M90.616,67.876a.356.356,0,0,0-.231.544.436.436,0,0,0,.8-.121C91.209,68,91.028,67.8,90.616,67.876Z" style="fill:#ffd416;fill-rule:evenodd"/><path d="M97.223,76.006a.226.226,0,0,0-.148.346.278.278,0,0,0,.513-.076C97.6,76.083,97.485,75.954,97.223,76.006Z" style="fill:#ffd416;fill-rule:evenodd"/><path d="M112.428,80.773a.333.333,0,0,0-.216.509.409.409,0,0,0,.754-.113C112.984,80.886,112.814,80.7,112.428,80.773Z" style="fill:#ffd416;fill-rule:evenodd"/><path d="M104.866,83.391a.227.227,0,0,0-.147.347.278.278,0,0,0,.513-.077C105.245,83.468,105.129,83.34,104.866,83.391Z" style="fill:#ffd416;fill-rule:evenodd"/><path d="M91.118,87.553a.334.334,0,0,0-.217.51.409.409,0,0,0,.754-.113C91.674,87.666,91.5,87.478,91.118,87.553Z" style="fill:#ffd416;fill-rule:evenodd"/><path d="M106.825,98.8a.35.35,0,0,0-.227.534.429.429,0,0,0,.791-.118C107.408,98.92,107.23,98.722,106.825,98.8Z" style="fill:#ffd416;fill-rule:evenodd"/><path d="M88.056,92.2a.228.228,0,0,0-.147.348.278.278,0,0,0,.513-.077C88.435,92.281,88.319,92.153,88.056,92.2Z" style="fill:#ffd416;fill-rule:evenodd"/><path d="M79.579,88.119a.227.227,0,0,0-.147.347.278.278,0,0,0,.513-.077C79.957,88.2,79.842,88.068,79.579,88.119Z" style="fill:#ffd416;fill-rule:evenodd"/><path d="M65.093,82.188a.333.333,0,0,0-.216.509.409.409,0,0,0,.754-.113C65.649,82.3,65.48,82.113,65.093,82.188Z" style="fill:#ffd416;fill-rule:evenodd"/><path d="M45.637,71.5a.536.536,0,0,0-.347.819.656.656,0,0,0,1.21-.182C46.53,71.683,46.258,71.38,45.637,71.5Z" style="fill:#ffd416;fill-rule:evenodd"/><path d="M32.752,99.743a.528.528,0,0,0-.343.806.647.647,0,0,0,1.193-.178C33.632,99.922,33.363,99.624,32.752,99.743Z" style="fill:#ffd416;fill-rule:evenodd"/><path d="M67.488,52.728a.391.391,0,0,0-.255.6.48.48,0,0,0,.886-.132C68.141,52.861,67.942,52.639,67.488,52.728Z" style="fill:#ffd416;fill-rule:evenodd"/><path d="M7.245,90.571a.227.227,0,0,0-.147.347.278.278,0,0,0,.513-.077C7.623,90.648,7.508,90.52,7.245,90.571Z" style="fill:#ffd416;fill-rule:evenodd"/><path d="M91.01,125.33a.334.334,0,0,0-.217.51.409.409,0,0,0,.754-.113C91.565,125.444,91.4,125.256,91.01,125.33Z" style="fill:#ffd416;fill-rule:evenodd"/><path d="M112.808,118.555a.323.323,0,0,0-.209.493.4.4,0,0,0,.729-.109C113.346,118.665,113.182,118.482,112.808,118.555Z" style="fill:#ffd416;fill-rule:evenodd"/><path d="M136.176,62.389a.227.227,0,0,0-.148.347.278.278,0,0,0,.513-.078C136.554,62.466,136.438,62.337,136.176,62.389Z" style="fill:#ffd416;fill-rule:evenodd"/><path d="M155.97,63.79a.227.227,0,0,0-.148.347.278.278,0,0,0,.513-.077C156.348,63.867,156.232,63.739,155.97,63.79Z" style="fill:#ffd416;fill-rule:evenodd"/><path d="M26.254,230.282a.372.372,0,0,0,.242-.568.456.456,0,0,0-.841.126C25.634,230.156,25.824,230.366,26.254,230.282Z" style="fill:#ffd416;fill-rule:evenodd"/><path d="M83.828,226.606a.372.372,0,0,0,.241-.568.456.456,0,0,0-.841.126C83.207,226.48,83.4,226.69,83.828,226.606Z" style="fill:#ffd416;fill-rule:evenodd"/><path d="M158.232,232.275a.227.227,0,0,0,.148-.347.279.279,0,0,0-.514.077C157.853,232.2,157.969,232.326,158.232,232.275Z" style="fill:#ffd416;fill-rule:evenodd"/><path d="M231.586,220.094a.35.35,0,0,0,.228-.534.429.429,0,0,0-.791.118C231,219.975,231.181,220.173,231.586,220.094Z" style="fill:#ffd416;fill-rule:evenodd"/><path d="M266.29,227.649a.35.35,0,0,0,.227-.535.428.428,0,0,0-.79.119C265.707,227.53,265.885,227.728,266.29,227.649Z" style="fill:#ffd416;fill-rule:evenodd"/><path d="M295.307,219.586a.35.35,0,0,0,.228-.534.429.429,0,0,0-.791.119C294.724,219.468,294.9,219.665,295.307,219.586Z" style="fill:#ffd416;fill-rule:evenodd"/><path d="M339.5,233.081a.35.35,0,0,0,.227-.534.428.428,0,0,0-.79.118C338.92,232.962,339.1,233.16,339.5,233.081Z" style="fill:#ffd416;fill-rule:evenodd"/><path d="M331.291,137.821a.683.683,0,0,0-.444,1.043.837.837,0,0,0,1.545-.231C332.43,138.053,332.082,137.667,331.291,137.821Z" style="fill:#b772b0;fill-rule:evenodd"/><path d="M325.3,147.258a.305.305,0,0,0-.2.466.374.374,0,0,0,.69-.1C325.807,147.362,325.651,147.189,325.3,147.258Z" style="fill:#b772b0;fill-rule:evenodd"/><path d="M325.321,185.01a.509.509,0,0,0-.331.778.624.624,0,0,0,1.151-.173C326.169,185.183,325.911,184.9,325.321,185.01Z" style="fill:#b772b0;fill-rule:evenodd"/><path d="M310.468,193.568a.372.372,0,0,0-.241.568.456.456,0,0,0,.841-.126C311.088,193.694,310.9,193.484,310.468,193.568Z" style="fill:#b772b0;fill-rule:evenodd"/><path d="M307.224,197.559a.227.227,0,0,0-.147.347.278.278,0,0,0,.513-.077C307.6,197.636,307.487,197.508,307.224,197.559Z" style="fill:#b772b0;fill-rule:evenodd"/><path d="M301.89,198.827a.372.372,0,0,0-.241.568.456.456,0,0,0,.841-.126C302.51,198.953,302.321,198.743,301.89,198.827Z" style="fill:#b772b0;fill-rule:evenodd"/><path d="M283.352,186.948a.355.355,0,0,0-.23.543.435.435,0,0,0,.8-.12C283.945,187.069,283.764,186.867,283.352,186.948Z" style="fill:#b772b0;fill-rule:evenodd"/><path d="M294.6,170.1a.227.227,0,0,0-.147.347.278.278,0,0,0,.513-.077C294.983,170.181,294.868,170.053,294.6,170.1Z" style="fill:#b772b0;fill-rule:evenodd"/><path d="M262.573,199.038a.371.371,0,0,0-.241.568.455.455,0,0,0,.84-.126C263.193,199.164,263,198.954,262.573,199.038Z" style="fill:#b772b0;fill-rule:evenodd"/><path d="M249.078,216.168a.228.228,0,0,0-.148.347.278.278,0,0,0,.513-.077C249.456,216.245,249.34,216.117,249.078,216.168Z" style="fill:#b772b0;fill-rule:evenodd"/><path d="M302.709,131.635a.373.373,0,0,0-.242.569.456.456,0,0,0,.841-.126C303.329,131.762,303.14,131.552,302.709,131.635Z" style="fill:#b772b0;fill-rule:evenodd"/><path d="M282.145,149.759a.462.462,0,0,0-.3.705.565.565,0,0,0,1.043-.157C282.915,149.915,282.68,149.655,282.145,149.759Z" style="fill:#b772b0;fill-rule:evenodd"/><path d="M260.9,147.7a.227.227,0,0,0-.148.347.279.279,0,0,0,.514-.078C261.277,147.776,261.161,147.648,260.9,147.7Z" style="fill:#b772b0;fill-rule:evenodd"/><path d="M270.782,172.148a.226.226,0,0,0-.148.346.278.278,0,0,0,.513-.076C271.16,172.225,271.044,172.1,270.782,172.148Z" style="fill:#b772b0;fill-rule:evenodd"/><path d="M258.707,168.623a.373.373,0,0,0-.243.568.456.456,0,0,0,.841-.126C259.327,168.749,259.137,168.539,258.707,168.623Z" style="fill:#b772b0;fill-rule:evenodd"/><path d="M257.954,151.739a.462.462,0,0,0-.3.7.566.566,0,0,0,1.044-.157C258.723,151.9,258.489,151.635,257.954,151.739Z" style="fill:#b772b0;fill-rule:evenodd"/><path d="M220.985,209.925a.228.228,0,0,0-.148.347.279.279,0,0,0,.514-.077C221.364,210,221.248,209.874,220.985,209.925Z" style="fill:#b772b0;fill-rule:evenodd"/><path d="M201.972,207.25a.349.349,0,0,0-.226.534.428.428,0,0,0,.79-.119C202.556,207.368,202.377,207.171,201.972,207.25Z" style="fill:#b772b0;fill-rule:evenodd"/><path d="M196.624,195.22a.35.35,0,0,0-.227.535.429.429,0,0,0,.791-.119C197.207,195.339,197.03,195.141,196.624,195.22Z" style="fill:#b772b0;fill-rule:evenodd"/><path d="M186.167,189.815a.227.227,0,0,0-.147.347.278.278,0,0,0,.513-.077C186.546,189.892,186.43,189.764,186.167,189.815Z" style="fill:#b772b0;fill-rule:evenodd"/><path d="M171.924,187.3a.228.228,0,0,0-.147.348.278.278,0,0,0,.513-.078C172.3,187.381,172.187,187.252,171.924,187.3Z" style="fill:#b772b0;fill-rule:evenodd"/><path d="M176.952,158.365a.35.35,0,0,0-.227.534.429.429,0,0,0,.791-.118C177.535,158.484,177.357,158.286,176.952,158.365Z" style="fill:#b772b0;fill-rule:evenodd"/><path d="M150.964,175.161a.35.35,0,0,0-.228.534.429.429,0,0,0,.791-.118C151.547,175.28,151.369,175.082,150.964,175.161Z" style="fill:#b772b0;fill-rule:evenodd"/><path d="M155.42,160.162a.227.227,0,0,0-.147.347.278.278,0,0,0,.513-.077C155.8,160.239,155.684,160.111,155.42,160.162Z" style="fill:#b772b0;fill-rule:evenodd"/><path d="M155.707,139.39a.227.227,0,0,0-.147.347.279.279,0,0,0,.514-.077C156.086,139.467,155.971,139.339,155.707,139.39Z" style="fill:#b772b0;fill-rule:evenodd"/><path d="M110.535,182.068a.35.35,0,0,0-.227.535.428.428,0,0,0,.79-.119C111.118,182.187,110.94,181.989,110.535,182.068Z" style="fill:#b772b0;fill-rule:evenodd"/><path d="M48.013,192.966a.521.521,0,0,0-.338.8.639.639,0,0,0,1.178-.176C48.882,193.143,48.617,192.849,48.013,192.966Z" style="fill:#b772b0;fill-rule:evenodd"/><path d="M24.18,207.612a.35.35,0,0,0-.227.535.429.429,0,0,0,.791-.119C24.763,207.731,24.585,207.533,24.18,207.612Z" style="fill:#b772b0;fill-rule:evenodd"/><path d="M22.757,184.153a.227.227,0,0,0-.148.347.279.279,0,0,0,.514-.077C23.135,184.23,23.019,184.1,22.757,184.153Z" style="fill:#b772b0;fill-rule:evenodd"/><path d="M48.862,169.673a.35.35,0,0,0-.227.535.429.429,0,0,0,.791-.118C49.445,169.792,49.268,169.594,48.862,169.673Z" style="fill:#b772b0;fill-rule:evenodd"/><path d="M61.813,169.637a.35.35,0,0,0-.227.535.429.429,0,0,0,.791-.119C62.4,169.756,62.219,169.558,61.813,169.637Z" style="fill:#b772b0;fill-rule:evenodd"/><path d="M69.936,176.793a.228.228,0,0,0-.148.347.279.279,0,0,0,.514-.077C70.314,176.87,70.2,176.742,69.936,176.793Z" style="fill:#b772b0;fill-rule:evenodd"/><path d="M75.953,163.717a.521.521,0,0,0-.338.8.639.639,0,0,0,1.178-.176C76.822,163.894,76.557,163.6,75.953,163.717Z" style="fill:#b772b0;fill-rule:evenodd"/><path d="M100.267,156.044a.227.227,0,0,0-.147.347.278.278,0,0,0,.513-.076C100.645,156.121,100.53,155.993,100.267,156.044Z" style="fill:#b772b0;fill-rule:evenodd"/><path d="M126.409,159.574a.35.35,0,0,0-.227.535.428.428,0,0,0,.79-.119C126.992,159.693,126.813,159.5,126.409,159.574Z" style="fill:#b772b0;fill-rule:evenodd"/><path d="M97.514,145.961a.227.227,0,0,0-.147.347.278.278,0,0,0,.513-.077C97.893,146.038,97.777,145.91,97.514,145.961Z" style="fill:#b772b0;fill-rule:evenodd"/><path d="M158.748,72.837a.227.227,0,0,0-.147.347.278.278,0,0,0,.513-.077C159.127,72.914,159.012,72.786,158.748,72.837Z" style="fill:#b772b0;fill-rule:evenodd"/><path d="M112.057,76.982a.528.528,0,0,0-.343.806.647.647,0,0,0,1.193-.179C112.936,77.161,112.668,76.863,112.057,76.982Z" style="fill:#b772b0;fill-rule:evenodd"/><path d="M113.789,65.567a.226.226,0,0,0-.147.346.278.278,0,0,0,.513-.076C114.167,65.644,114.052,65.515,113.789,65.567Z" style="fill:#b772b0;fill-rule:evenodd"/><path d="M169.015,106.139a.469.469,0,0,0-.3.716.575.575,0,0,0,1.06-.159C169.8,106.3,169.558,106.033,169.015,106.139Z" style="fill:#b772b0;fill-rule:evenodd"/><path d="M99.588,134.963a.35.35,0,0,0-.228.534.429.429,0,0,0,.791-.119C100.171,135.081,99.993,134.884,99.588,134.963Z" style="fill:#b772b0;fill-rule:evenodd"/><path d="M80.97,16.349a.356.356,0,0,0-.231.543.436.436,0,0,0,.8-.12C81.563,16.47,81.382,16.269,80.97,16.349Z" style="fill:#b772b0;fill-rule:evenodd"/><path d="M97.658,61.958a.536.536,0,0,0-.348.819.657.657,0,0,0,1.211-.182C98.551,62.14,98.278,61.837,97.658,61.958Z" style="fill:#b772b0;fill-rule:evenodd"/><path d="M98.652,82.889a.334.334,0,0,0-.217.51.409.409,0,0,0,.754-.113C99.207,83,99.038,82.814,98.652,82.889Z" style="fill:#b772b0;fill-rule:evenodd"/><path d="M94.283,89.921a.227.227,0,0,0-.148.346.278.278,0,0,0,.514-.077C94.662,90,94.546,89.869,94.283,89.921Z" style="fill:#b772b0;fill-rule:evenodd"/><path d="M107.369,105.523a.349.349,0,0,0-.227.534.428.428,0,0,0,.79-.118C107.952,105.642,107.774,105.445,107.369,105.523Z" style="fill:#b772b0;fill-rule:evenodd"/><path d="M116.146,114.841a.227.227,0,0,0-.147.347.279.279,0,0,0,.514-.077C116.525,114.918,116.41,114.79,116.146,114.841Z" style="fill:#b772b0;fill-rule:evenodd"/><path d="M29.307,226.386a.372.372,0,0,0,.242-.568.456.456,0,0,0-.841.126C28.687,226.26,28.876,226.47,29.307,226.386Z" style="fill:#b772b0;fill-rule:evenodd"/><path d="M150.842,224.49a.227.227,0,0,0,.147-.347.278.278,0,0,0-.513.077C150.463,224.413,150.579,224.541,150.842,224.49Z" style="fill:#b772b0;fill-rule:evenodd"/><path d="M253.251,224.723a.521.521,0,0,0,.338-.8.638.638,0,0,0-1.177.177C252.382,224.546,252.648,224.841,253.251,224.723Z" style="fill:#b772b0;fill-rule:evenodd"/><path d="M276.527,221.974a.227.227,0,0,0,.147-.347.277.277,0,0,0-.512.077C276.149,221.9,276.264,222.025,276.527,221.974Z" style="fill:#b772b0;fill-rule:evenodd"/><path d="M355.348,0H.468Q.487,24.153.5,48.3.542,143.957,0,239.63H355.806c-.407-63.172-.441-126.347-.469-189.518Q355.327,25.057,355.348,0Z" style="fill:none;fill-rule:evenodd"/></svg>