<?xml version="1.0" encoding="utf-8"?>
<!-- Generator: Adobe Illustrator 15.0.2, SVG Export Plug-In . SVG Version: 6.00 Build 0)  -->
<!DOCTYPE svg PUBLIC "-//W3C//DTD SVG 1.1//EN" "http://www.w3.org/Graphics/SVG/1.1/DTD/svg11.dtd">
<svg version="1.1" id="Layer_1" xmlns="http://www.w3.org/2000/svg" xmlns:xlink="http://www.w3.org/1999/xlink" x="0px" y="0px"
	 width="47.4px" height="41px" viewBox="0 0 47.4 41" enable-background="new 0 0 47.4 41" xml:space="preserve">
<g>
	<defs>
		<rect id="SVGID_1_" y="0" width="47.4" height="41"/>
	</defs>
	<clipPath id="SVGID_2_">
		<use xlink:href="#SVGID_1_"  overflow="visible"/>
	</clipPath>
	<path clip-path="url(#SVGID_2_)" fill="none" stroke="#333333" stroke-width="2.2778" stroke-linejoin="round" d="M18.4,34.9
		l-1.5,4c-0.3,0.7-1.1,1.1-1.8,0.8l-2.2-0.8c-0.7-0.3-1.1-1.1-0.8-1.8l1.7-4.6"/>
	<path clip-path="url(#SVGID_2_)" fill="none" stroke="#333333" stroke-width="2.2778" stroke-linejoin="round" d="M31.2,34.9l1.5,4
		c0.3,0.7,1.1,1.1,1.8,0.8l2.2-0.8c0.7-0.3,1.1-1.1,0.8-1.8l-1.7-4.6"/>
	
		<path clip-path="url(#SVGID_2_)" fill="none" stroke="#333333" stroke-width="2.2778" stroke-linecap="round" stroke-linejoin="round" d="
		M44.1,15.8H41c-0.7-1.5-1.6-2.8-2.7-4V1.1l-6.4,6.4c-2.2-0.8-4.5-1.3-7.1-1.3c-9.6,0-17.3,6.6-17.3,14.8c0,8.2,7.8,14.8,17.3,14.8
		c7.4,0,13.7-4,16.2-9.5h3.1c1.2,0,2.1-1,2.1-2.1V18C46.2,16.8,45.3,15.8,44.1,15.8z"/>
	
		<path clip-path="url(#SVGID_2_)" fill="none" stroke="#333333" stroke-width="2.2778" stroke-linecap="round" stroke-linejoin="round" d="
		M7.3,21.1c-3.8,0-4.2-5.3-6.2,1.1"/>
	
		<path clip-path="url(#SVGID_2_)" fill="none" stroke="#333333" stroke-width="2.2778" stroke-linecap="round" stroke-linejoin="round" d="
		M29.5,11.8c-1.4-0.5-3-0.8-4.7-0.8s-3.2,0.3-4.7,0.8"/>
</g>
</svg>
