<?xml version="1.0" encoding="utf-8"?>
<!-- Generator: Adobe Illustrator 15.0.2, SVG Export Plug-In . SVG Version: 6.00 Build 0)  -->
<!DOCTYPE svg PUBLIC "-//W3C//DTD SVG 1.1//EN" "http://www.w3.org/Graphics/SVG/1.1/DTD/svg11.dtd">
<svg version="1.1" id="Layer_1" xmlns="http://www.w3.org/2000/svg" xmlns:xlink="http://www.w3.org/1999/xlink" x="0px" y="0px"
	 width="48.7px" height="41px" viewBox="0 0 48.7 41" enable-background="new 0 0 48.7 41" xml:space="preserve">
<g>
	<defs>
		<rect id="SVGID_1_" width="48.7" height="41"/>
	</defs>
	<clipPath id="SVGID_2_">
		<use xlink:href="#SVGID_1_"  overflow="visible"/>
	</clipPath>
	<path clip-path="url(#SVGID_2_)" fill="none" stroke="#333333" stroke-width="2.2778" stroke-linejoin="round" d="M10.8,34.7V13.8
		c0-2.2,1.8-3.9,3.9-3.9H34c2.2,0,3.9,1.7,3.9,3.9v20.8c0,0.8-0.7,1.5-1.5,1.5H12.3C11.5,36.1,10.8,35.5,10.8,34.7z"/>
	
		<path clip-path="url(#SVGID_2_)" fill="none" stroke="#333333" stroke-width="2.2778" stroke-linecap="round" stroke-linejoin="round" d="
		M41.7,39.9c3.7-4.1,5.9-9.5,5.9-15.5c0-12.8-10.4-23.2-23.2-23.2C11.5,1.1,1.1,11.5,1.1,24.4c0,6,2.2,11.4,5.9,15.5"/>
	
		<line clip-path="url(#SVGID_2_)" fill="none" stroke="#333333" stroke-width="2.7333" stroke-linecap="round" stroke-linejoin="round" x1="34.6" y1="39.6" x2="34.6" y2="36.6"/>
	
		<line clip-path="url(#SVGID_2_)" fill="none" stroke="#333333" stroke-width="2.7333" stroke-linecap="round" stroke-linejoin="round" x1="14.2" y1="39.6" x2="14.2" y2="36.6"/>
	
		<rect x="15.1" y="16.4" clip-path="url(#SVGID_2_)" fill="none" stroke="#333333" stroke-width="1.3667" stroke-linecap="round" stroke-linejoin="round" width="18.6" height="10.2"/>
	
		<line clip-path="url(#SVGID_2_)" fill="none" stroke="#333333" stroke-width="1.8222" stroke-linejoin="round" x1="20.8" y1="13.4" x2="27.9" y2="13.4"/>
	<path clip-path="url(#SVGID_2_)" fill="#333333" d="M18.9,31.4c0,1.1-0.9,1.9-1.9,1.9c-1.1,0-1.9-0.9-1.9-1.9
		c0-1.1,0.9-1.9,1.9-1.9C18,29.5,18.9,30.4,18.9,31.4"/>
	<path clip-path="url(#SVGID_2_)" fill="#333333" d="M33.7,31.4c0,1.1-0.9,1.9-1.9,1.9c-1.1,0-1.9-0.9-1.9-1.9
		c0-1.1,0.9-1.9,1.9-1.9C32.8,29.5,33.7,30.4,33.7,31.4"/>
</g>
</svg>
