<?xml version="1.0" encoding="utf-8"?>
<!-- Generator: Adobe Illustrator 15.0.2, SVG Export Plug-In . SVG Version: 6.00 Build 0)  -->
<!DOCTYPE svg PUBLIC "-//W3C//DTD SVG 1.1//EN" "http://www.w3.org/Graphics/SVG/1.1/DTD/svg11.dtd">
<svg version="1.1" id="Layer_1" xmlns="http://www.w3.org/2000/svg" xmlns:xlink="http://www.w3.org/1999/xlink" x="0px" y="0px"
	 width="41px" height="41px" viewBox="0 0 41 41" enable-background="new 0 0 41 41" xml:space="preserve">
<g>
	<defs>
		<rect id="SVGID_1_" width="41" height="41"/>
	</defs>
	<clipPath id="SVGID_2_">
		<use xlink:href="#SVGID_1_"  overflow="visible"/>
	</clipPath>
	<path clip-path="url(#SVGID_2_)" fill="none" stroke="#333333" stroke-width="2.2778" stroke-linejoin="round" d="M24.3,10.4
		c0,0-11.8-6.3-21-9C1,0.7,0.4,1.9,2.1,3.7c5.5,5.5,14.6,14.6,14.6,14.6"/>
	<path clip-path="url(#SVGID_2_)" fill="none" stroke="#333333" stroke-width="2.2778" stroke-linejoin="round" d="M11,33.2
		c10.1-7.6,18.3-15.8,26-23.4c1.8-1.8,4-6.2,2.2-8C37.4,0,33,2.2,31.2,4c-7.7,7.7-15.8,15.8-23.4,26c-1.7-1.7-4.6-1.7-6.3,0l9.6,9.6
		C12.8,37.8,12.8,35,11,33.2z"/>
	<path clip-path="url(#SVGID_2_)" fill="none" stroke="#333333" stroke-width="2.2778" stroke-linejoin="round" d="M30.6,16.7
		c0,0,6.3,11.8,9,21c0.7,2.4-0.5,2.9-2.2,1.2c-5.5-5.5-14.6-14.6-14.6-14.6"/>
	<path clip-path="url(#SVGID_2_)" fill="none" stroke="#333333" stroke-width="1.3667" stroke-linejoin="round" d="M30.1,5.2
		c1.3-1.3,3.6-1.1,5.2,0.5c1.6,1.6,1.8,3.9,0.5,5.2"/>
</g>
</svg>
