<svg xmlns="http://www.w3.org/2000/svg" width="799.688" height="1089.7" viewBox="0 0 799.688 1089.7">
  <defs>
    <style>
      .cls-1 {
        fill: none;
        stroke: #707070;
        stroke-miterlimit: 10;
        stroke-width: 0.2px;
      }
    </style>
  </defs>
  <g id="Group_6" data-name="Group 6" transform="translate(0.031 0.1)">
    <path id="Path_2" data-name="Path 2" class="cls-1" d="M1064.2-806.764c-9.961,60.694-58.927,109.683-119.623,119.644a154.194,154.194,0,0,1-24.825,2.033c-89.055,0-159.555-79.448-144.448-171.307,9.939-60.716,58.905-109.684,119.623-119.645A146.693,146.693,0,0,1,1064.2-806.764Zm272.75-166.778c-.021-41.523-.066-91.838-.087-128.966h.066l-.066-6.426-.287-26.283c-.287-10.867-7.842-18.532-18.73-18.841h-.574c-17.869,0-446.155.464-446.155.464-45.1,2.386-89.915,11.706-133.669,30.148C628.778-1077.727,556.179-999.825,541.093-880.4c-15.328,121.875,15.682,227.185,128.569,295.035.464.287,4.682,4.22,2.275,7.311-.022.023-.022.045-.045.068-11.043,7.421-22.329,14.665-33.241,22.44-68.534,48.879-101.157,134.84-81.7,218.946C576.344-252.694,632.577-207.2,714.078-190.7c16.389,3.335,33.13,4.484,49.827,4.484,76.2-.021,152.377-1.678,228.533-1.745,38.034-.023,54.753,17.029,54.665,54.6-.023,5.522-.287,49.651-.287,49.651.332,11.088,8.062,18.863,19.215,19.018.287,0,.552.132.839.132l13.253-.132h173.16l12.326.111c.264.021.485-.111.772-.111h.023c7.885-.089,13.937-4.064,16.94-10.315.089-.132.177-.243.265-.375a1.3,1.3,0,0,0-.133.176c3.026-5.256,58.95-104.228,51.971-182.9-12.037-87.265-80.352-158.407-185.177-171.769-36.906-4.727-158.03-4.573-240.15-4.418-29.552.045-54.069.088-67.763-.089-29.376-.375-44.659-14.776-44.371-38.078.33-25.665,22.33-44.306,49.231-44.725,15.791-.242,31.65-.176,47.509-.11,43.731.176,87.529.353,130.311-6.009C1161.358-543.49,1251.76-633.714,1269.5-759.056c7.841-55.306.089-108.668-27.188-163.09h60.076s15.594.044,16.3,0c10.448-.685,17.67-8.106,17.913-18.73l.353-29.2.044-3.467Z" transform="translate(-537.437 1154.058)"/>
  </g>
</svg>
