<svg id="Design" xmlns="http://www.w3.org/2000/svg" viewBox="0 0 791.89 76.98"><defs><style>.cls-1{fill:#1b042b;}.cls-2{fill:#e94335;}.cls-3{fill:#fabb05;}.cls-4{fill:#4284f3;}.cls-5{fill:#34a753;}.cls-6{fill:#fb024d;}</style></defs><polygon class="cls-1" points="218.66 33.36 224.33 33.36 224.33 22.9 218.65 22.9 218.65 33.36 218.66 33.36"/><rect class="cls-1" x="207.29" y="34.26" width="10.47" height="5.68"/><path class="cls-1" d="M235.69,34.26v5.67H224.33V51.29h-5.67v-17h17"/><path class="cls-2" d="M337.71,36.31a14.24,14.24,0,0,1-28.48,0,14.24,14.24,0,0,1,28.48,0Zm-6.24,0c0-5.11-3.7-8.6-8-8.6s-8,3.49-8,8.6,3.71,8.6,8,8.6S331.47,41.36,331.47,36.31Z"/><path class="cls-3" d="M368.42,36.31a14.24,14.24,0,0,1-28.47,0,14.24,14.24,0,0,1,28.47,0Zm-6.23,0c0-5.11-3.71-8.6-8-8.6s-8,3.49-8,8.6,3.7,8.6,8,8.6S362.19,41.36,362.19,36.31Z"/><path class="cls-4" d="M397.86,23V48.45c0,10.48-6.18,14.76-13.49,14.76a13.51,13.51,0,0,1-12.58-8.36l5.42-2.26a7.86,7.86,0,0,0,7.15,5c4.68,0,7.58-2.89,7.58-8.32v-2h-.22a9.65,9.65,0,0,1-7.47,3.22c-7.1,0-13.6-6.18-13.6-14.13s6.5-14.25,13.6-14.25a9.84,9.84,0,0,1,7.47,3.18h.22V23h5.92Zm-5.48,13.39c0-5-3.33-8.65-7.58-8.65s-7.9,3.65-7.9,8.65,3.6,8.55,7.9,8.55S392.38,41.3,392.38,36.36Z"/><path class="cls-5" d="M407.62,8V49.63h-6.08V8Z"/><path class="cls-2" d="M431.3,41l4.84,3.22a14.12,14.12,0,0,1-11.82,6.29A13.88,13.88,0,0,1,410.23,36.3c0-8.44,6.07-14.19,13.39-14.19s11,5.86,12.14,9l.65,1.61-19,7.86a7.23,7.23,0,0,0,6.88,4.3,8.08,8.08,0,0,0,7-3.93Zm-14.89-5.11,12.69-5.26c-.7-1.78-2.8-3-5.27-3A7.78,7.78,0,0,0,416.41,35.87Z"/><path class="cls-4" d="M286.22,32.61v-6h20.29a19.83,19.83,0,0,1,.3,3.64c0,4.52-1.23,10.1-5.21,14.08s-8.82,6.18-15.37,6.18a22.34,22.34,0,0,1-22.36-22c0-12.14,10.21-22,22.36-22a21,21,0,0,1,15.1,6.07l-4.25,4.25a15.34,15.34,0,0,0-10.86-4.3,15.81,15.81,0,0,0-15.81,16,15.81,15.81,0,0,0,15.81,16,14.75,14.75,0,0,0,11.13-4.41,12.46,12.46,0,0,0,3.26-7.45Z"/><path class="cls-6" d="M117.07,36.27v13.3a.85.85,0,0,1-.85.86h-7.49a.86.86,0,0,1-.6-.25.89.89,0,0,1-.25-.61V36.26a5.41,5.41,0,0,0-.16-1.28,5.24,5.24,0,0,0-.47-1.15,5.09,5.09,0,0,0-1.54-1.69,5,5,0,0,0-2.17-.83h-.17l-.21,0H103a4.92,4.92,0,0,0-3.58,1.49,5.15,5.15,0,0,0-1.49,3.61v13.2a.85.85,0,0,1-.85.86H89.55a.85.85,0,0,1-.86-.86V36.25c0-.06,0-.12,0-.17V35.9a14,14,0,0,1,3.12-8.5,14.26,14.26,0,0,1,7.51-4.87h0a14.64,14.64,0,0,1,4.89-.35,14.14,14.14,0,0,1,4.45,1.18l.25.12.25.12.12.06.12.06.13.07.12.07A14.26,14.26,0,0,1,115,29,14.07,14.07,0,0,1,117.07,36.27Zm-65,14.1H44.58a.86.86,0,0,1-.6-.25.89.89,0,0,1-.25-.61V8.73A.89.89,0,0,1,44,8.12a.86.86,0,0,1,.6-.25h7.49a.85.85,0,0,1,.85.86V49.51a.85.85,0,0,1-.85.86ZM40,30.12v1.45a.85.85,0,0,1-.23.58.82.82,0,0,1-.57.25h-3.4A12.2,12.2,0,0,1,37,36a11.69,11.69,0,0,1,0,3.64,11.92,11.92,0,0,1-3.46,7,13.23,13.23,0,0,1-7.42,3.49,25,25,0,0,1-2.88.24c-1,0-1.94,0-2.91,0H18.24A2.34,2.34,0,0,0,16.7,51a1.92,1.92,0,0,0-.65,1.41,1.53,1.53,0,0,0,.49,1.23,2.28,2.28,0,0,0,1.49.47h3c1.83,0,4.09,0,6.1,0s3.77.07,4.59.18a9.81,9.81,0,0,1,5.66,2.58A8.65,8.65,0,0,1,40,62a12.65,12.65,0,0,1-1,5.29,21.5,21.5,0,0,1-1.33,2.85h0a.8.8,0,0,1-.3.33,1,1,0,0,1-.46.13H28a.89.89,0,0,1-.61-.25.85.85,0,0,1-.25-.6s0-.49,0-1,0-1.08,0-1.2a2.52,2.52,0,0,0-.58-1.84,2.52,2.52,0,0,0-1.86-.59c-1.69,0-3.39,0-5.08,0s-3.39,0-5.09,0a10.31,10.31,0,0,1-1.11-.05,10,10,0,0,1-1.1-.15,9.46,9.46,0,0,1-4.53-2.12,8.17,8.17,0,0,1-2.46-4.37A9.36,9.36,0,0,1,5.68,53,9.22,9.22,0,0,1,9,48.71l.74-.5.74-.49h0a.17.17,0,0,0,0-.21.37.37,0,0,0-.1-.11,11.57,11.57,0,0,1-5-5.66,15,15,0,0,1-.72-7.47,12.56,12.56,0,0,1,2.81-6.64,15.24,15.24,0,0,1,5.93-4.17,17.11,17.11,0,0,1,2.95-.94,19,19,0,0,1,3-.41H39.18a.84.84,0,0,1,.84.84v1.46h0v5.74ZM28,36.25a6.52,6.52,0,1,0-1.91,4.61A6.5,6.5,0,0,0,28,36.25Zm110.63,3H147a.85.85,0,0,1,.83,1,14.16,14.16,0,1,1,0-6.77.82.82,0,0,1-.16.73.85.85,0,0,1-.67.32h-8.42a.15.15,0,0,1-.09,0,.23.23,0,0,1-.07-.07,5,5,0,0,0-9.3,3.07,5,5,0,0,0,7.38,3.81,5,5,0,0,0,2-2,.16.16,0,0,1,.07-.07A.17.17,0,0,1,138.62,39.27ZM179,36.77c0,.42,0,.84,0,1.25a12,12,0,0,1-.14,1.22.85.85,0,0,1-.29.52.88.88,0,0,1-.55.2H159a6.57,6.57,0,0,0,3.45,3.17l.45.16a4.05,4.05,0,0,0,.47.12l.08,0,.08,0h.08l.08,0,.18,0,.19,0h1.77a6.5,6.5,0,0,0,1.77-.54,7,7,0,0,0,1.52-1,.1.1,0,0,1,0,0h7.71a.86.86,0,0,1,.77,1.23A14.31,14.31,0,0,1,172.43,49,14.15,14.15,0,1,1,179,36.77Zm-8.34-3.34a6.5,6.5,0,0,0-2-2.35,6.37,6.37,0,0,0-2.88-1.2H164l-.19,0a.57.57,0,0,0-.18,0h-.08l-.08,0h-.08l-.08,0-.16,0-.17,0-.37.12-.37.15a6.38,6.38,0,0,0-1.93,1.26A6.27,6.27,0,0,0,159,33.43h11.68ZM84.94,36.25V49.56a.85.85,0,0,1-.85.85H78.15a.85.85,0,0,1-.85-.85v-.73A14.54,14.54,0,0,1,74.19,50a14.17,14.17,0,1,1-.09-27.52,13.74,13.74,0,0,1,3.41,1.3,14.27,14.27,0,0,1,5.2,4.83,14,14,0,0,1,2.21,6.91,1.09,1.09,0,0,1,0,.18c0,.06,0,.12,0,.18v.37Zm-7.64,0a6.52,6.52,0,1,0-1.91,4.61A6.5,6.5,0,0,0,77.3,36.25Z"/><rect x="582.13" y="22.87" width="4.26" height="25.17"/><polygon points="666.27 34.74 645.01 34.74 645.01 22.87 640.75 22.87 640.75 48.04 645.01 48.04 645.01 39.01 666.27 39.01 666.27 48.04 670.53 48.04 670.53 22.87 666.27 22.87 666.27 34.74"/><rect x="733.99" y="22.87" width="4.26" height="25.17"/><polygon points="554.32 22.89 554.3 22.87 538.88 38.3 523.45 22.87 517.72 22.87 517.72 48.04 521.98 48.04 521.98 27.43 538.83 44.28 555.78 27.42 555.78 48.04 560.04 48.04 560.04 22.87 554.31 22.87 554.32 22.89"/><polygon points="612.06 22.87 601.61 22.87 601.61 27.13 612.06 27.13 612.06 48.04 616.33 48.04 616.33 27.13 626.78 27.13 626.78 22.87 616.33 22.87 612.06 22.87"/><polygon points="762.34 43.78 762.34 22.87 758.08 22.87 758.08 48.04 762.26 48.04 762.34 48.04 787.43 48.04 787.43 43.78 762.34 43.78"/><path d="M716.9,30.74A7.87,7.87,0,0,0,709,22.87h-19.3V38.62h0V48H694V38.62h12.21L713.25,48h5.32l-7.3-9.75A7.88,7.88,0,0,0,716.9,30.74Zm-13.83,3.72H694V27h15a3.72,3.72,0,0,1,0,7.43h-5.95Z"/><polygon class="cls-1" points="474.8 33.36 480.47 33.36 480.47 22.9 474.79 22.9 474.79 33.36 474.8 33.36"/><rect class="cls-1" x="463.43" y="34.26" width="10.47" height="5.68"/><path class="cls-1" d="M491.83,34.26v5.67H480.47V51.29H474.8v-17h17"/></svg>